M48
;DRILL file {KiCad (5.0.2)-1} date 4/13/2019 7:43:05 AM
;FORMAT={-:-/ absolute / inch / decimal}
FMAT,2
INCH,TZ
T1C0.0157
T2C0.0350
T3C0.0374
T4C0.0400
%
G90
G05
T1
X2.1693Y-2.0276
X2.1693Y-4.0354
X2.2087Y-3.1063
X2.2087Y-5.1142
X2.2756Y-3.1063
X2.2756Y-5.1142
X2.3268Y-2.0512
X2.3268Y-4.0591
X2.8445Y-3.4055
X2.8445Y-5.4134
X2.8937Y-2.5295
X2.8937Y-2.628
X2.8937Y-4.5374
X2.8937Y-4.6358
X2.9035Y-3.0413
X2.9035Y-5.0492
X2.9528Y-2.6969
X2.9528Y-4.7047
X3.0315Y-3.0413
X3.0315Y-5.0492
X3.061Y-3.0217
X3.061Y-3.1004
X3.061Y-5.0295
X3.061Y-5.1083
X3.1102Y-2.0768
X3.1102Y-4.0846
X3.189Y-3.4055
X3.189Y-5.4134
X3.2677Y-2.687
X3.2677Y-4.6949
X3.2776Y-3.4055
X3.2776Y-5.4134
X3.2972Y-3.5531
X3.2972Y-5.561
X3.3661Y-3.5728
X3.3661Y-5.5807
X3.4154Y-3.6122
X3.4154Y-5.6201
X3.4843Y-3.061
X3.4843Y-5.0689
X3.5039Y-2.0374
X3.5039Y-4.0453
X3.5138Y-3.4744
X3.5138Y-5.4823
X3.5354Y-2.0482
X3.5354Y-4.0561
X3.563Y-2.0669
X3.563Y-4.0748
X3.5728Y-2.7067
X3.5728Y-3.4843
X3.5728Y-4.7146
X3.5728Y-5.4921
X3.6417Y-2.7362
X3.6417Y-3.061
X3.6417Y-4.7441
X3.6417Y-5.0689
X3.8287Y-3.0315
X3.8287Y-3.0906
X3.8287Y-3.1496
X3.8287Y-5.0394
X3.8287Y-5.0984
X3.8287Y-5.1575
X4.0236Y-2.0276
X4.0236Y-4.0354
X4.1772Y-2.0276
X4.1772Y-4.0354
X4.6358Y-2.3819
X4.6358Y-4.3898
X4.9567Y-2.0315
X4.9567Y-4.0394
X5.2717Y-2.0315
X5.2717Y-4.0394
X4.626Y-3.4252
X3.3465Y-5.2362
X2.8051Y-2.7362
X2.5394Y-5.6398
X5.1181Y-4.8425
X3.0512Y-4.2717
X2.8445Y-3.622
X2.6969Y-3.1398
X5.1673Y-2.7362
X3.7205Y-5.6299
X4.0906Y-4.8622
X5.3642Y-4.1535
X2.6476Y-3.6319
X2.0669Y-2.2441
X3.1004Y-3.1299
X2.4114Y-5.5315
X3.5925Y-4.1535
X2.561Y-2.1457
X2.2638Y-2.2441
X2.3622Y-3.2283
X3.8189Y-5.6299
X2.6575Y-4.252
X3.0295Y-2.1457
X2.2244Y-3.1693
X2.5591Y-2.8543
X2.1654Y-5.6299
X2.1161Y-3.5236
X3.3957Y-3.1299
X4.872Y-5.3346
X3.7402Y-2.4409
X4.1339Y-3.4252
X4.3799Y-5.7087
X3.3071Y-2.6378
X4.4783Y-3.3268
X2.7067Y-4.9409
X4.0906Y-4.6594
X4.0906Y-2.6024
X4.4291Y-3.4252
X5.4134Y-4.9902
X4.2559Y-5.2598
X3.315Y-4.252
X3.1004Y-3.7008
X4.3799Y-3.3268
X3.1004Y-5.1378
X2.1161Y-4.3504
X3.8878Y-5.1378
X2.2146Y-4.3504
X4.7953Y-3.
X3.4449Y-5.2362
X3.248Y-2.2638
X3.2087Y-4.3307
X3.1988Y-3.7008
X4.7736Y-5.3346
X3.3071Y-4.6457
X5.2165Y-3.622
X2.9035Y-5.3346
X5.1673Y-4.5472
X2.2146Y-2.3425
X4.498Y-3.622
X3.5925Y-5.3346
X2.8051Y-4.7441
X2.4606Y-2.2441
X3.9469Y-3.5827
X2.3622Y-5.4331
X2.0276Y-2.6969
X5.4331Y-5.4331
X3.8386Y-4.6654
X3.8091Y-4.4783
X3.5728Y-3.6614
X2.313Y-5.3346
X2.1654Y-2.874
X3.2283Y-5.6299
X2.0276Y-4.7047
X2.0669Y-4.0551
X4.0354Y-3.622
X3.4449Y-3.2283
X2.8543Y-2.874
X5.2657Y-5.5315
X2.0669Y-4.8819
X3.8878Y-4.1535
X2.1654Y-3.622
X3.6909Y-2.1457
X3.937Y-3.0315
X5.1673Y-5.5315
X2.4055Y-4.1535
X2.25Y-2.1457
X3.8091Y-2.4705
X3.4941Y-3.1299
X5.1181Y-2.6378
X5.2165Y-5.6299
X3.0295Y-4.1535
X2.7067Y-2.1457
X5.1673Y-3.1299
X3.5728Y-5.6693
X5.0374Y-4.0197
X4.1831Y-3.3268
X3.2972Y-3.1299
X4.8031Y-5.6299
X2.2638Y-2.4409
X5.1181Y-3.4252
X2.8051Y-4.9409
X4.7953Y-5.0591
X4.2559Y-3.0512
X5.4134Y-3.1791
X5.1673Y-4.9409
X5.4134Y-4.252
X3.5925Y-2.3425
X5.0197Y-3.4252
X2.5098Y-5.1378
X4.3996Y-5.6299
X4.8228Y-4.252
X4.7953Y-2.5512
X2.1654Y-3.4252
X3.1988Y-5.1378
X3.5925Y-4.3504
X4.7953Y-2.8031
X3.9862Y-5.1378
X5.4134Y-2.2441
X2.313Y-4.3504
X4.2559Y-3.1496
X5.4134Y-5.187
X4.8228Y-2.2441
X2.0669Y-4.4488
X3.7795Y-4.5079
X5.Y-3.622
X3.9862Y-5.3346
X5.0197Y-2.2441
X3.5768Y-4.5492
X4.7953Y-3.2008
X4.5768Y-5.3346
X4.2559Y-5.0591
X4.9213Y-2.2441
X5.2657Y-3.5236
X2.8051Y-5.4331
X4.0906Y-4.9213
X2.1654Y-2.4409
X3.6319Y-3.622
X2.4606Y-5.4331
X2.0276Y-2.6378
X4.9213Y-5.4331
X5.1181Y-4.6457
X2.25Y-4.1535
X3.1496Y-3.622
X5.1673Y-2.9331
X2.5098Y-5.3346
X3.8189Y-2.7362
X2.9035Y-5.5315
X2.8543Y-4.8819
X2.561Y-4.1535
X2.8051Y-3.5236
X2.6575Y-3.0315
X2.7559Y-2.874
X2.0669Y-5.6299
X3.4646Y-4.6457
X2.0177Y-4.1535
X3.2283Y-3.622
X3.5925Y-2.1457
X2.6181Y-2.9528
X3.9469Y-5.5906
X2.7067Y-4.1535
X5.0374Y-2.0118
X2.6083Y-3.1299
X4.0906Y-2.752
X2.8051Y-5.5315
X2.9528Y-4.252
X2.4055Y-2.1457
X2.7953Y-3.1398
X4.0906Y-2.9134
X5.0984Y-5.6299
X4.1004Y-4.1535
X2.5098Y-3.3268
X2.2146Y-3.3268
X4.7953Y-4.8622
X2.0177Y-2.5394
X3.5925Y-3.3268
X2.5Y-4.9606
X4.7953Y-4.6594
X3.7894Y-2.3425
X4.5276Y-3.4252
X2.6575Y-5.0394
X4.7953Y-5.2087
X5.0197Y-4.252
X3.5433Y-2.4409
X4.5768Y-3.3268
X2.6083Y-5.1378
X4.6457Y-4.3406
X4.9213Y-4.252
X4.2815Y-3.7008
X5.4331Y-3.4252
X5.1673Y-5.1378
X3.7894Y-4.3504
X4.0846Y-5.1378
X2.4114Y-4.3504
X4.7047Y-3.622
X4.1831Y-5.3346
X3.1496Y-2.2638
X2.1654Y-4.4488
X4.7953Y-2.7008
X4.2323Y-5.4331
X3.315Y-2.2441
X4.0906Y-4.5591
X4.6457Y-2.3327
X2.9528Y-5.4331
X4.0906Y-4.7087
X2.9035Y-2.3425
X4.1339Y-3.622
X3.8878Y-5.3346
X5.1673Y-4.7441
X3.6909Y-2.3425
X3.7205Y-3.622
X4.3307Y-5.4331
X5.4134Y-2.7854
X4.626Y-5.4331
X5.4134Y-4.5866
X3.3425Y-4.1535
X2.4114Y-3.5236
X5.4134Y-2.9823
X2.4114Y-5.3346
X3.1693Y-2.6378
X2.4508Y-5.6398
X2.4803Y-4.8622
X3.185Y-4.1535
X2.0669Y-3.622
X4.0846Y-3.1299
X2.0276Y-2.9134
X3.1496Y-5.6299
X3.9882Y-4.5039
X5.4134Y-4.0551
X2.0669Y-2.0472
X4.0846Y-3.3268
X2.6575Y-3.2283
X2.6575Y-2.8543
X2.2638Y-5.6299
X2.872Y-4.1535
X3.6122Y-2.6673
X2.872Y-2.1457
X2.2638Y-3.2283
X3.6417Y-2.4409
X4.6063Y-5.6299
X2.4606Y-4.252
X5.1909Y-2.1457
X4.2815Y-3.3268
X3.8878Y-3.1299
X2.3228Y-2.7165
X4.7047Y-5.6299
X2.0669Y-4.252
X4.8228Y-3.4252
X4.2559Y-5.1575
X2.3622Y-2.4409
X2.9724Y-3.3268
X2.6181Y-4.9606
X4.7953Y-5.0079
X4.0906Y-2.8543
X4.6752Y-3.3268
X3.937Y-5.0394
X5.1181Y-4.252
X2.8937Y-2.5787
X4.7736Y-3.3268
X2.2244Y-5.1772
X4.7953Y-4.5591
X3.5433Y-4.4488
X4.7953Y-2.9134
X3.6417Y-3.4252
X2.3622Y-5.2362
X2.3622Y-4.4488
X4.3996Y-3.622
X2.2638Y-5.2362
X2.6575Y-2.2441
X2.9035Y-4.3504
X4.6063Y-3.622
X4.3799Y-5.3346
X2.9528Y-2.2441
X2.2638Y-4.4488
X4.2559Y-3.2008
X2.2146Y-5.3346
X5.2165Y-2.2441
X4.0906Y-4.6102
X3.2087Y-2.3228
X5.0984Y-3.622
X2.9724Y-5.3346
X4.0906Y-4.7598
X2.5098Y-2.3425
X2.313Y-3.3268
X4.0846Y-5.3346
X5.0197Y-5.4331
X2.2638Y-4.8819
X2.1161Y-2.3425
X3.8189Y-3.622
X2.2638Y-5.4331
X4.2559Y-3.
X4.7244Y-5.4331
X2.3425Y-4.8819
X4.7244Y-4.1535
X3.0512Y-3.622
X3.1988Y-3.1299
X3.937Y-5.4331
X2.3425Y-2.874
X3.6319Y-5.6299
X3.4941Y-4.5472
X3.7894Y-4.1535
X2.313Y-3.5236
X3.3465Y-3.2283
X2.1161Y-5.5315
X5.4134Y-4.7933
X2.0906Y-4.1535
X3.3425Y-2.1457
X2.9035Y-3.5236
X2.4606Y-3.0315
X2.1161Y-2.9331
X3.4646Y-2.6378
X3.0512Y-5.6299
X2.3622Y-4.252
X5.3642Y-2.1457
X3.7795Y-2.5
X2.8051Y-2.9331
X3.9882Y-2.4961
X4.2323Y-5.6299
X2.0177Y-2.1457
X4.3307Y-3.4252
X4.0354Y-3.0315
X4.7953Y-5.1575
X2.6083Y-3.3268
X3.1988Y-5.7087
X2.4803Y-2.8543
X4.2323Y-3.4252
X2.4606Y-5.0394
X4.7953Y-4.7087
X3.4941Y-2.5394
X2.9232Y-2.7264
X3.7402Y-3.4252
X3.3957Y-5.1378
X4.498Y-5.6299
X5.2165Y-4.252
X2.5591Y-3.2283
X2.6969Y-5.1476
X3.1004Y-5.7087
X3.4941Y-4.3504
X4.9016Y-3.622
X2.4606Y-5.2362
X3.0118Y-4.3307
X5.1181Y-3.2283
X2.6575Y-5.2362
X5.315Y-2.2441
X3.248Y-4.4488
X5.4331Y-3.622
X3.6417Y-5.4331
X2.0177Y-2.3425
X3.7402Y-4.4488
X4.0906Y-2.6516
X4.4291Y-5.4331
X5.1181Y-2.2441
X2.3228Y-4.7244
X3.1102Y-2.3228
X4.7953Y-3.252
X4.6752Y-5.3346
X4.2559Y-5.0079
X2.4114Y-2.3425
X2.5394Y-3.6319
X4.4783Y-5.3346
X4.8228Y-5.4331
X2.0276Y-4.6457
X2.0669Y-2.4409
X2.2146Y-3.5236
X2.5591Y-5.2362
X3.5768Y-2.5413
X5.2165Y-5.4331
X2.6575Y-4.8622
X4.2559Y-4.1535
X2.4508Y-3.6319
X2.4606Y-3.2283
X2.2638Y-2.874
X4.3307Y-5.6299
X2.4114Y-4.7441
X2.2638Y-4.252
X2.3622Y-3.4252
X2.126Y-3.3465
X2.2146Y-5.5315
X5.1909Y-4.1535
X2.0906Y-2.1457
X4.2323Y-3.622
X2.5Y-2.9528
X4.0906Y-2.5512
X4.1339Y-5.6299
X2.8543Y-4.252
X3.185Y-2.1457
X4.7244Y-2.1457
X3.9862Y-3.1299
X5.4134Y-2.5787
X4.7953Y-4.6102
X3.6122Y-4.6752
X4.1004Y-2.1457
X2.4606Y-3.4252
X3.248Y-3.2283
X4.0906Y-2.7008
X5.1181Y-5.2362
X2.8051Y-3.4252
X4.2559Y-5.2087
X2.4114Y-2.7362
X2.9035Y-3.3268
X2.0276Y-4.9213
X4.7953Y-4.811
X3.248Y-2.4409
X2.2638Y-3.4252
X4.0354Y-5.0394
X4.2815Y-5.7087
X5.315Y-4.252
X2.4114Y-3.3268
X2.7953Y-5.1476
X5.4331Y-5.6299
X3.2972Y-4.3504
X4.8031Y-3.622
X3.2972Y-5.1378
X3.6909Y-4.3504
X4.872Y-3.3268
X3.248Y-5.2362
X3.6417Y-4.4488
X4.7953Y-2.6516
X3.7402Y-5.4331
X2.5591Y-4.8622
X4.7953Y-2.752
X4.5276Y-5.4331
X4.0906Y-4.811
X3.4941Y-2.3425
X2.2638Y-3.622
X4.7953Y-2.6024
X4.2815Y-5.3346
X2.1654Y-4.8819
X3.0118Y-2.3228
X5.1673Y-3.5236
X4.0354Y-5.4331
X5.1181Y-5.4331
X2.2638Y-4.6457
X2.313Y-2.3425
X4.3307Y-3.622
X3.1496Y-5.2362
X5.1181Y-2.8346
X2.8445Y-5.6299
X2.7559Y-4.8819
X2.9232Y-4.7343
X3.9862Y-3.3268
X2.5098Y-3.1299
X2.3622Y-2.6378
X4.0354Y-5.6299
X2.0177Y-4.5472
X3.1496Y-4.2717
X5.2165Y-3.4252
X3.8878Y-2.1457
X3.1496Y-3.2283
X2.313Y-5.5315
X2.1654Y-4.252
X4.9213Y-3.4252
X4.2559Y-2.1457
X2.7067Y-2.9331
X2.6476Y-5.6398
X2.5591Y-4.252
X3.7894Y-2.1457
X5.1181Y-3.0315
X3.8386Y-2.6575
X3.5728Y-4.7539
X3.6909Y-4.1535
X2.1654Y-2.2441
X2.0669Y-3.4252
X3.0315Y-3.1693
X2.0669Y-2.874
X4.7953Y-4.7598
X4.0354Y-3.4252
X4.9016Y-5.6299
X5.1673Y-2.5394
X2.9528Y-3.4252
X2.1161Y-4.9409
X4.7953Y-4.9213
X4.0906Y-2.8031
X5.4134Y-2.0472
X3.8878Y-3.3268
X5.1181Y-5.0394
X5.Y-5.6299
X3.248Y-4.2717
X4.7953Y-2.8543
X4.7244Y-3.4252
X3.0315Y-5.1772
X4.7953Y-5.2598
X2.0177Y-4.3504
X3.5728Y-2.7461
X3.4941Y-5.1378
X2.5098Y-4.3504
X4.7953Y-3.0512
X2.126Y-5.3543
X3.0512Y-2.2638
X3.1102Y-4.3307
X4.2559Y-3.252
X4.1339Y-5.4331
X2.5591Y-2.2441
X2.8937Y-4.5866
X4.7953Y-3.1496
X2.6083Y-5.3346
X3.8189Y-4.7441
X2.8543Y-2.2441
X2.0177Y-3.5236
X4.3799Y-3.7008
X2.0669Y-5.4331
X2.3622Y-4.6457
X3.2972Y-2.3425
X3.937Y-3.4252
X2.1654Y-5.4331
X2.2638Y-2.6378
X2.0177Y-5.5315
X3.1693Y-4.6457
X2.3622Y-2.2441
T2
X2.0866Y-3.7189
X2.0866Y-3.8189
X2.1866Y-3.7189
X2.1866Y-3.8189
X2.2866Y-3.7189
X2.2866Y-3.8189
X2.3866Y-3.7189
X2.3866Y-3.8189
X2.4866Y-3.7189
X2.4866Y-3.8189
X2.5866Y-3.7189
X2.5866Y-3.8189
X2.6866Y-3.7189
X2.6866Y-3.8189
X2.7866Y-3.7189
X2.7866Y-3.8189
X2.8866Y-3.7189
X2.8866Y-3.8189
X2.9866Y-3.7189
X2.9866Y-3.8189
X5.2543Y-2.4268
X5.2543Y-2.5268
X5.2543Y-2.6268
X5.2543Y-2.7268
X5.2543Y-2.8268
X5.2543Y-2.9268
X5.2543Y-3.0268
X5.2543Y-3.1268
X5.2543Y-3.2268
X5.2543Y-3.3268
X5.3543Y-2.4268
X5.3543Y-2.5268
X5.3543Y-2.6268
X5.3543Y-2.7268
X5.3543Y-2.8268
X5.3543Y-2.9268
X5.3543Y-3.0268
X5.3543Y-3.1268
X5.3543Y-3.2268
X5.3543Y-3.3268
X4.4488Y-5.7268
X4.4488Y-5.8268
X4.5488Y-5.7268
X4.5488Y-5.8268
X4.6488Y-5.7268
X4.6488Y-5.8268
X4.7488Y-5.7268
X4.7488Y-5.8268
X4.8488Y-5.7268
X4.8488Y-5.8268
X4.9488Y-5.7268
X4.9488Y-5.8268
X5.0488Y-5.7268
X5.0488Y-5.8268
X5.1488Y-5.7268
X5.1488Y-5.8268
X5.2488Y-5.7268
X5.2488Y-5.8268
X5.3488Y-5.7268
X5.3488Y-5.8268
X3.2677Y-5.7268
X3.2677Y-5.8268
X3.3677Y-5.7268
X3.3677Y-5.8268
X3.4677Y-5.7268
X3.4677Y-5.8268
X3.5677Y-5.7268
X3.5677Y-5.8268
X3.6677Y-5.7268
X3.6677Y-5.8268
X3.7677Y-5.7268
X3.7677Y-5.8268
X3.8677Y-5.7268
X3.8677Y-5.8268
X3.9677Y-5.7268
X3.9677Y-5.8268
X4.0677Y-5.7268
X4.0677Y-5.8268
X4.1677Y-5.7268
X4.1677Y-5.8268
X3.2677Y-3.7189
X3.2677Y-3.8189
X3.3677Y-3.7189
X3.3677Y-3.8189
X3.4677Y-3.7189
X3.4677Y-3.8189
X3.5677Y-3.7189
X3.5677Y-3.8189
X3.6677Y-3.7189
X3.6677Y-3.8189
X3.7677Y-3.7189
X3.7677Y-3.8189
X3.8677Y-3.7189
X3.8677Y-3.8189
X3.9677Y-3.7189
X3.9677Y-3.8189
X4.0677Y-3.7189
X4.0677Y-3.8189
X4.1677Y-3.7189
X4.1677Y-3.8189
X4.9394Y-4.4346
X4.9394Y-4.5346
X4.9394Y-4.6346
X4.9394Y-4.7346
X4.9394Y-4.8346
X4.9394Y-4.9346
X4.9394Y-5.0346
X4.9394Y-5.1346
X4.9394Y-5.2346
X4.9394Y-5.3346
X5.0394Y-4.4346
X5.0394Y-4.5346
X5.0394Y-4.6346
X5.0394Y-4.7346
X5.0394Y-4.8346
X5.0394Y-4.9346
X5.0394Y-5.0346
X5.0394Y-5.1346
X5.0394Y-5.2346
X5.0394Y-5.3346
X4.9394Y-2.4268
X4.9394Y-2.5268
X4.9394Y-2.6268
X4.9394Y-2.7268
X4.9394Y-2.8268
X4.9394Y-2.9268
X4.9394Y-3.0268
X4.9394Y-3.1268
X4.9394Y-3.2268
X4.9394Y-3.3268
X5.0394Y-2.4268
X5.0394Y-2.5268
X5.0394Y-2.6268
X5.0394Y-2.7268
X5.0394Y-2.8268
X5.0394Y-2.9268
X5.0394Y-3.0268
X5.0394Y-3.1268
X5.0394Y-3.2268
X5.0394Y-3.3268
X5.2543Y-4.4346
X5.2543Y-4.5346
X5.2543Y-4.6346
X5.2543Y-4.7346
X5.2543Y-4.8346
X5.2543Y-4.9346
X5.2543Y-5.0346
X5.2543Y-5.1346
X5.2543Y-5.2346
X5.2543Y-5.3346
X5.3543Y-4.4346
X5.3543Y-4.5346
X5.3543Y-4.6346
X5.3543Y-4.7346
X5.3543Y-4.8346
X5.3543Y-4.9346
X5.3543Y-5.0346
X5.3543Y-5.1346
X5.3543Y-5.2346
X5.3543Y-5.3346
X4.4488Y-3.7189
X4.4488Y-3.8189
X4.5488Y-3.7189
X4.5488Y-3.8189
X4.6488Y-3.7189
X4.6488Y-3.8189
X4.7488Y-3.7189
X4.7488Y-3.8189
X4.8488Y-3.7189
X4.8488Y-3.8189
X4.9488Y-3.7189
X4.9488Y-3.8189
X5.0488Y-3.7189
X5.0488Y-3.8189
X5.1488Y-3.7189
X5.1488Y-3.8189
X5.2488Y-3.7189
X5.2488Y-3.8189
X5.3488Y-3.7189
X5.3488Y-3.8189
X2.0866Y-5.7268
X2.0866Y-5.8268
X2.1866Y-5.7268
X2.1866Y-5.8268
X2.2866Y-5.7268
X2.2866Y-5.8268
X2.3866Y-5.7268
X2.3866Y-5.8268
X2.4866Y-5.7268
X2.4866Y-5.8268
X2.5866Y-5.7268
X2.5866Y-5.8268
X2.6866Y-5.7268
X2.6866Y-5.8268
X2.7866Y-5.7268
X2.7866Y-5.8268
X2.8866Y-5.7268
X2.8866Y-5.8268
X2.9866Y-5.7268
X2.9866Y-5.8268
T3
X2.7461Y-4.4193
X2.8461Y-4.4193
X2.9461Y-4.4193
X3.0461Y-4.4193
X3.1461Y-4.4193
X2.7461Y-2.4114
X2.8461Y-2.4114
X2.9461Y-2.4114
X3.0461Y-2.4114
X3.1461Y-2.4114
T4
X2.1713Y-2.1457
X2.3273Y-2.1457
X2.4833Y-2.1457
X2.6393Y-2.1457
X2.7953Y-2.1457
X2.9513Y-2.1457
X3.1073Y-2.1457
X3.2633Y-2.1457
X3.4193Y-2.1457
X2.1228Y-2.5197
X2.2228Y-2.5197
X2.3228Y-2.5197
X2.4228Y-2.5197
X2.5228Y-2.5197
X2.1713Y-4.1535
X2.3273Y-4.1535
X2.4833Y-4.1535
X2.6393Y-4.1535
X2.7953Y-4.1535
X2.9513Y-4.1535
X3.1073Y-4.1535
X3.2633Y-4.1535
X3.4193Y-4.1535
X4.0217Y-2.1457
X4.1777Y-2.1457
X4.3337Y-2.1457
X4.4897Y-2.1457
X4.6457Y-2.1457
X4.8017Y-2.1457
X4.9577Y-2.1457
X5.1137Y-2.1457
X5.2697Y-2.1457
X2.1228Y-4.5276
X2.2228Y-4.5276
X2.3228Y-4.5276
X2.4228Y-4.5276
X2.5228Y-4.5276
X4.0217Y-4.1535
X4.1777Y-4.1535
X4.3337Y-4.1535
X4.4897Y-4.1535
X4.6457Y-4.1535
X4.8017Y-4.1535
X4.9577Y-4.1535
X5.1137Y-4.1535
X5.2697Y-4.1535
T0
M30
