G04 #@! TF.GenerationSoftware,KiCad,Pcbnew,(5.0.2)-1*
G04 #@! TF.CreationDate,2019-04-13T09:27:36-04:00*
G04 #@! TF.ProjectId,Console,436f6e73-6f6c-4652-9e6b-696361645f70,rev?*
G04 #@! TF.SameCoordinates,Original*
G04 #@! TF.FileFunction,Paste,Top*
G04 #@! TF.FilePolarity,Positive*
%FSLAX46Y46*%
G04 Gerber Fmt 4.6, Leading zero omitted, Abs format (unit mm)*
G04 Created by KiCad (PCBNEW (5.0.2)-1) date 4/13/2019 9:27:36 AM*
%MOMM*%
%LPD*%
G01*
G04 APERTURE LIST*
%ADD10O,2.000000X5.800000*%
%ADD11R,2.000000X5.800000*%
%ADD12R,0.899200X1.000800*%
%ADD13R,1.000800X0.899200*%
%ADD14R,1.600200X2.692400*%
%ADD15R,2.692400X1.600200*%
%ADD16R,1.200000X0.900000*%
%ADD17R,1.900000X1.800000*%
%ADD18R,1.900000X1.900000*%
%ADD19R,1.350000X0.400000*%
%ADD20R,1.600000X2.100000*%
%ADD21R,0.720000X0.760000*%
%ADD22O,0.250000X1.500000*%
%ADD23O,1.500000X0.250000*%
G04 APERTURE END LIST*
D10*
G04 #@! TO.C,PS1*
X136849600Y-104045000D03*
X132887200Y-104045000D03*
X128924800Y-104045000D03*
X124962400Y-104045000D03*
X121000000Y-104045000D03*
X117037600Y-104045000D03*
X113075200Y-104045000D03*
X109112800Y-104045000D03*
D11*
X105150400Y-104045000D03*
G04 #@! TD*
D12*
G04 #@! TO.C,C18*
X139248200Y-138250000D03*
X140751800Y-138250000D03*
G04 #@! TD*
D13*
G04 #@! TO.C,C2*
X122250000Y-122251800D03*
X122250000Y-120748200D03*
G04 #@! TD*
G04 #@! TO.C,C3*
X143500000Y-122001800D03*
X143500000Y-120498200D03*
G04 #@! TD*
G04 #@! TO.C,C15*
X122250000Y-134748200D03*
X122250000Y-136251800D03*
G04 #@! TD*
D12*
G04 #@! TO.C,C13*
X144498200Y-129500000D03*
X146001800Y-129500000D03*
G04 #@! TD*
G04 #@! TO.C,C14*
X144498200Y-131000000D03*
X146001800Y-131000000D03*
G04 #@! TD*
D14*
G04 #@! TO.C,C4*
X104647000Y-121750000D03*
X101853000Y-121750000D03*
G04 #@! TD*
D13*
G04 #@! TO.C,C12*
X122500000Y-128748200D03*
X122500000Y-130251800D03*
G04 #@! TD*
D12*
G04 #@! TO.C,C1*
X131498200Y-115250000D03*
X133001800Y-115250000D03*
G04 #@! TD*
D15*
G04 #@! TO.C,C5*
X115000000Y-121353000D03*
X115000000Y-124147000D03*
G04 #@! TD*
D12*
G04 #@! TO.C,C16*
X132501800Y-138750000D03*
X130998200Y-138750000D03*
G04 #@! TD*
G04 #@! TO.C,C19*
X132501800Y-140250000D03*
X130998200Y-140250000D03*
G04 #@! TD*
G04 #@! TO.C,C20*
X133998200Y-140250000D03*
X135501800Y-140250000D03*
G04 #@! TD*
G04 #@! TO.C,C17*
X133998200Y-138750000D03*
X135501800Y-138750000D03*
G04 #@! TD*
D13*
G04 #@! TO.C,C11*
X121000000Y-127998200D03*
X121000000Y-129501800D03*
G04 #@! TD*
G04 #@! TO.C,C10*
X119500000Y-127998200D03*
X119500000Y-129501800D03*
G04 #@! TD*
D12*
G04 #@! TO.C,C9*
X144498200Y-128000000D03*
X146001800Y-128000000D03*
G04 #@! TD*
D13*
G04 #@! TO.C,C7*
X107500000Y-126501800D03*
X107500000Y-124998200D03*
G04 #@! TD*
G04 #@! TO.C,C8*
X109000000Y-126501800D03*
X109000000Y-124998200D03*
G04 #@! TD*
G04 #@! TO.C,C6*
X106000000Y-126501800D03*
X106000000Y-124998200D03*
G04 #@! TD*
D16*
G04 #@! TO.C,D1*
X111000000Y-123100000D03*
X111000000Y-126400000D03*
G04 #@! TD*
D17*
G04 #@! TO.C,J1*
X101500000Y-126700000D03*
X101500000Y-134300000D03*
D18*
X101500000Y-129300000D03*
X101500000Y-131700000D03*
D19*
X104175000Y-130500000D03*
X104175000Y-131150000D03*
X104175000Y-131800000D03*
X104175000Y-129850000D03*
X104175000Y-129200000D03*
D20*
X104050000Y-127400000D03*
X104050000Y-133600000D03*
G04 #@! TD*
D12*
G04 #@! TO.C,R4*
X133001800Y-116500000D03*
X131498200Y-116500000D03*
G04 #@! TD*
D21*
G04 #@! TO.C,R1*
X124190000Y-115250000D03*
X124810000Y-115250000D03*
G04 #@! TD*
D12*
G04 #@! TO.C,R7*
X109248200Y-130250000D03*
X110751800Y-130250000D03*
G04 #@! TD*
G04 #@! TO.C,R6*
X109248200Y-128750000D03*
X110751800Y-128750000D03*
G04 #@! TD*
D22*
G04 #@! TO.C,U2*
X138750000Y-120750000D03*
X138250000Y-120750000D03*
X137750000Y-120750000D03*
X137250000Y-120750000D03*
X136750000Y-120750000D03*
X136250000Y-120750000D03*
X135750000Y-120750000D03*
X135250000Y-120750000D03*
X134750000Y-120750000D03*
X134250000Y-120750000D03*
X133750000Y-120750000D03*
X133250000Y-120750000D03*
X132750000Y-120750000D03*
X132250000Y-120750000D03*
X131750000Y-120750000D03*
X131250000Y-120750000D03*
X130750000Y-120750000D03*
X130250000Y-120750000D03*
X129750000Y-120750000D03*
X129250000Y-120750000D03*
X128750000Y-120750000D03*
X128250000Y-120750000D03*
X127750000Y-120750000D03*
X127250000Y-120750000D03*
X126750000Y-120750000D03*
D23*
X125250000Y-122250000D03*
X125250000Y-122750000D03*
X125250000Y-123250000D03*
X125250000Y-123750000D03*
X125250000Y-124250000D03*
X125250000Y-124750000D03*
X125250000Y-125250000D03*
X125250000Y-125750000D03*
X125250000Y-126250000D03*
X125250000Y-126750000D03*
X125250000Y-127250000D03*
X125250000Y-127750000D03*
X125250000Y-128250000D03*
X125250000Y-128750000D03*
X125250000Y-129250000D03*
X125250000Y-129750000D03*
X125250000Y-130250000D03*
X125250000Y-130750000D03*
X125250000Y-131250000D03*
X125250000Y-131750000D03*
X125250000Y-132250000D03*
X125250000Y-132750000D03*
X125250000Y-133250000D03*
X125250000Y-133750000D03*
X125250000Y-134250000D03*
D22*
X126750000Y-135750000D03*
X127250000Y-135750000D03*
X127750000Y-135750000D03*
X128250000Y-135750000D03*
X128750000Y-135750000D03*
X129250000Y-135750000D03*
X129750000Y-135750000D03*
X130250000Y-135750000D03*
X130750000Y-135750000D03*
X131250000Y-135750000D03*
X131750000Y-135750000D03*
X132250000Y-135750000D03*
X132750000Y-135750000D03*
X133250000Y-135750000D03*
X133750000Y-135750000D03*
X134250000Y-135750000D03*
X134750000Y-135750000D03*
X135250000Y-135750000D03*
X135750000Y-135750000D03*
X136250000Y-135750000D03*
X136750000Y-135750000D03*
X137250000Y-135750000D03*
X137750000Y-135750000D03*
X138250000Y-135750000D03*
X138750000Y-135750000D03*
D23*
X140250000Y-134250000D03*
X140250000Y-133750000D03*
X140250000Y-133250000D03*
X140250000Y-132750000D03*
X140250000Y-132250000D03*
X140250000Y-131750000D03*
X140250000Y-131250000D03*
X140250000Y-130750000D03*
X140250000Y-130250000D03*
X140250000Y-129750000D03*
X140250000Y-129250000D03*
X140250000Y-128750000D03*
X140250000Y-128250000D03*
X140250000Y-127750000D03*
X140250000Y-127250000D03*
X140250000Y-126750000D03*
X140250000Y-126250000D03*
X140250000Y-125750000D03*
X140250000Y-125250000D03*
X140250000Y-124750000D03*
X140250000Y-124250000D03*
X140250000Y-123750000D03*
X140250000Y-123250000D03*
X140250000Y-122750000D03*
X140250000Y-122250000D03*
G04 #@! TD*
D10*
G04 #@! TO.C,PS2*
X183849600Y-104045000D03*
X179887200Y-104045000D03*
X175924800Y-104045000D03*
X171962400Y-104045000D03*
X168000000Y-104045000D03*
X164037600Y-104045000D03*
X160075200Y-104045000D03*
X156112800Y-104045000D03*
D11*
X152150400Y-104045000D03*
G04 #@! TD*
M02*
