G04 #@! TF.GenerationSoftware,KiCad,Pcbnew,(5.0.2)-1*
G04 #@! TF.CreationDate,2019-04-13T07:43:00-04:00*
G04 #@! TF.ProjectId,Console-Panel,436f6e73-6f6c-4652-9d50-616e656c2e6b,rev?*
G04 #@! TF.SameCoordinates,Original*
G04 #@! TF.FileFunction,Legend,Top*
G04 #@! TF.FilePolarity,Positive*
%FSLAX46Y46*%
G04 Gerber Fmt 4.6, Leading zero omitted, Abs format (unit mm)*
G04 Created by KiCad (PCBNEW (5.0.2)-1) date 4/13/2019 7:43:00 AM*
%MOMM*%
%LPD*%
G01*
G04 APERTURE LIST*
%ADD10C,0.150000*%
%ADD11C,0.127000*%
%ADD12C,0.120000*%
%ADD13C,0.050000*%
%ADD14C,0.149860*%
G04 APERTURE END LIST*
D10*
G04 #@! TO.C,PS2*
X138400000Y-50127000D02*
X97600000Y-50127000D01*
X102760000Y-58255000D02*
X102125000Y-56985000D01*
X101490000Y-58255000D02*
X102760000Y-58255000D01*
X102125000Y-56985000D02*
X101490000Y-58255000D01*
X138320000Y-53175000D02*
G75*
G03X135780000Y-50635000I-2540000J0D01*
G01*
X100220000Y-50635000D02*
G75*
G03X97680000Y-53175000I0J-2540000D01*
G01*
X100220000Y-50635000D02*
X135780000Y-50635000D01*
X97680000Y-56350000D02*
X97680000Y-53175000D01*
X138320000Y-56350000D02*
X97680000Y-56350000D01*
X138320000Y-53175000D02*
X138320000Y-56350000D01*
D11*
G04 #@! TO.C,C6*
X55593600Y-73937200D02*
X56406400Y-73937200D01*
X55593600Y-75562800D02*
X55593600Y-73937200D01*
X56406400Y-75562800D02*
X55593600Y-75562800D01*
X56406400Y-73937200D02*
X56406400Y-75562800D01*
X56381000Y-74191200D02*
X55593600Y-74191200D01*
X55593600Y-75308800D02*
X56406400Y-75308800D01*
D10*
G04 #@! TO.C,U2*
X75750000Y-84250000D02*
X76250000Y-84250000D01*
X75750000Y-83750000D02*
X75750000Y-84250000D01*
X75750000Y-70250000D02*
X76250000Y-70250000D01*
X75750000Y-70750000D02*
X75750000Y-70250000D01*
X89750000Y-84250000D02*
X89250000Y-84250000D01*
X89750000Y-83750000D02*
X89750000Y-84250000D01*
X89250000Y-70250000D02*
X89750000Y-70750000D01*
D11*
G04 #@! TO.C,C8*
X58593600Y-73937200D02*
X59406400Y-73937200D01*
X58593600Y-75562800D02*
X58593600Y-73937200D01*
X59406400Y-75562800D02*
X58593600Y-75562800D01*
X59406400Y-73937200D02*
X59406400Y-75562800D01*
X59381000Y-74191200D02*
X58593600Y-74191200D01*
X58593600Y-75308800D02*
X59406400Y-75308800D01*
G04 #@! TO.C,R6*
X60812800Y-77343600D02*
X60812800Y-78156400D01*
X59187200Y-77343600D02*
X60812800Y-77343600D01*
X59187200Y-78156400D02*
X59187200Y-77343600D01*
X60812800Y-78156400D02*
X59187200Y-78156400D01*
X60558800Y-78131000D02*
X60558800Y-77343600D01*
X59441200Y-77343600D02*
X59441200Y-78156400D01*
G04 #@! TO.C,R7*
X60812800Y-78843600D02*
X60812800Y-79656400D01*
X59187200Y-78843600D02*
X60812800Y-78843600D01*
X59187200Y-79656400D02*
X59187200Y-78843600D01*
X60812800Y-79656400D02*
X59187200Y-79656400D01*
X60558800Y-79631000D02*
X60558800Y-78843600D01*
X59441200Y-78843600D02*
X59441200Y-79656400D01*
G04 #@! TO.C,C7*
X57093600Y-73937200D02*
X57906400Y-73937200D01*
X57093600Y-75562800D02*
X57093600Y-73937200D01*
X57906400Y-75562800D02*
X57093600Y-75562800D01*
X57906400Y-73937200D02*
X57906400Y-75562800D01*
X57881000Y-74191200D02*
X57093600Y-74191200D01*
X57093600Y-75308800D02*
X57906400Y-75308800D01*
G04 #@! TO.C,R4*
X81437200Y-65906400D02*
X81437200Y-65093600D01*
X83062800Y-65906400D02*
X81437200Y-65906400D01*
X83062800Y-65093600D02*
X83062800Y-65906400D01*
X81437200Y-65093600D02*
X83062800Y-65093600D01*
X81691200Y-65119000D02*
X81691200Y-65906400D01*
X82808800Y-65906400D02*
X82808800Y-65093600D01*
D12*
G04 #@! TO.C,KP1*
X68080000Y-62920000D02*
X69480000Y-62920000D01*
X68080000Y-61520000D02*
X68080000Y-62920000D01*
X81330000Y-62670000D02*
X69580000Y-62670000D01*
X81330000Y-59830000D02*
X81330000Y-62670000D01*
X68330000Y-59830000D02*
X81330000Y-59830000D01*
X68330000Y-61420000D02*
X68330000Y-59830000D01*
D13*
G04 #@! TO.C,J1*
X50050000Y-74500000D02*
X50050000Y-84500000D01*
D12*
G04 #@! TO.C,D1*
X62000000Y-71500000D02*
X62000000Y-75400000D01*
X60000000Y-71500000D02*
X60000000Y-75400000D01*
X62000000Y-71500000D02*
X60000000Y-71500000D01*
D11*
G04 #@! TO.C,C10*
X69906400Y-78562800D02*
X69093600Y-78562800D01*
X69906400Y-76937200D02*
X69906400Y-78562800D01*
X69093600Y-76937200D02*
X69906400Y-76937200D01*
X69093600Y-78562800D02*
X69093600Y-76937200D01*
X69119000Y-78308800D02*
X69906400Y-78308800D01*
X69906400Y-77191200D02*
X69093600Y-77191200D01*
G04 #@! TO.C,C11*
X71406400Y-78562800D02*
X70593600Y-78562800D01*
X71406400Y-76937200D02*
X71406400Y-78562800D01*
X70593600Y-76937200D02*
X71406400Y-76937200D01*
X70593600Y-78562800D02*
X70593600Y-76937200D01*
X70619000Y-78308800D02*
X71406400Y-78308800D01*
X71406400Y-77191200D02*
X70593600Y-77191200D01*
G04 #@! TO.C,C1*
X83062800Y-63843600D02*
X83062800Y-64656400D01*
X81437200Y-63843600D02*
X83062800Y-63843600D01*
X81437200Y-64656400D02*
X81437200Y-63843600D01*
X83062800Y-64656400D02*
X81437200Y-64656400D01*
X82808800Y-64631000D02*
X82808800Y-63843600D01*
X81691200Y-63843600D02*
X81691200Y-64656400D01*
G04 #@! TO.C,C19*
X80937200Y-89656400D02*
X80937200Y-88843600D01*
X82562800Y-89656400D02*
X80937200Y-89656400D01*
X82562800Y-88843600D02*
X82562800Y-89656400D01*
X80937200Y-88843600D02*
X82562800Y-88843600D01*
X81191200Y-88869000D02*
X81191200Y-89656400D01*
X82308800Y-89656400D02*
X82308800Y-88843600D01*
G04 #@! TO.C,C17*
X85562800Y-87343600D02*
X85562800Y-88156400D01*
X83937200Y-87343600D02*
X85562800Y-87343600D01*
X83937200Y-88156400D02*
X83937200Y-87343600D01*
X85562800Y-88156400D02*
X83937200Y-88156400D01*
X85308800Y-88131000D02*
X85308800Y-87343600D01*
X84191200Y-87343600D02*
X84191200Y-88156400D01*
G04 #@! TO.C,C20*
X85562800Y-88843600D02*
X85562800Y-89656400D01*
X83937200Y-88843600D02*
X85562800Y-88843600D01*
X83937200Y-89656400D02*
X83937200Y-88843600D01*
X85562800Y-89656400D02*
X83937200Y-89656400D01*
X85308800Y-89631000D02*
X85308800Y-88843600D01*
X84191200Y-88843600D02*
X84191200Y-89656400D01*
G04 #@! TO.C,C16*
X80937200Y-88156400D02*
X80937200Y-87343600D01*
X82562800Y-88156400D02*
X80937200Y-88156400D01*
X82562800Y-87343600D02*
X82562800Y-88156400D01*
X80937200Y-87343600D02*
X82562800Y-87343600D01*
X81191200Y-87369000D02*
X81191200Y-88156400D01*
X82308800Y-88156400D02*
X82308800Y-87343600D01*
G04 #@! TO.C,C4*
X54850200Y-69505400D02*
X51649800Y-69505400D01*
X51649800Y-71994600D02*
X54850200Y-71994600D01*
X52107000Y-71994600D02*
X52107000Y-69505400D01*
X54393000Y-69505400D02*
X54393000Y-71994600D01*
X54850200Y-71994600D02*
X54850200Y-69505400D01*
X51649800Y-69505400D02*
X51649800Y-71994600D01*
G04 #@! TO.C,C14*
X96062800Y-79593600D02*
X96062800Y-80406400D01*
X94437200Y-79593600D02*
X96062800Y-79593600D01*
X94437200Y-80406400D02*
X94437200Y-79593600D01*
X96062800Y-80406400D02*
X94437200Y-80406400D01*
X95808800Y-80381000D02*
X95808800Y-79593600D01*
X94691200Y-79593600D02*
X94691200Y-80406400D01*
G04 #@! TO.C,C3*
X93093600Y-69437200D02*
X93906400Y-69437200D01*
X93093600Y-71062800D02*
X93093600Y-69437200D01*
X93906400Y-71062800D02*
X93093600Y-71062800D01*
X93906400Y-69437200D02*
X93906400Y-71062800D01*
X93881000Y-69691200D02*
X93093600Y-69691200D01*
X93093600Y-70808800D02*
X93906400Y-70808800D01*
G04 #@! TO.C,C13*
X96062800Y-78093600D02*
X96062800Y-78906400D01*
X94437200Y-78093600D02*
X96062800Y-78093600D01*
X94437200Y-78906400D02*
X94437200Y-78093600D01*
X96062800Y-78906400D02*
X94437200Y-78906400D01*
X95808800Y-78881000D02*
X95808800Y-78093600D01*
X94691200Y-78093600D02*
X94691200Y-78906400D01*
G04 #@! TO.C,C15*
X72656400Y-85312800D02*
X71843600Y-85312800D01*
X72656400Y-83687200D02*
X72656400Y-85312800D01*
X71843600Y-83687200D02*
X72656400Y-83687200D01*
X71843600Y-85312800D02*
X71843600Y-83687200D01*
X71869000Y-85058800D02*
X72656400Y-85058800D01*
X72656400Y-83941200D02*
X71843600Y-83941200D01*
G04 #@! TO.C,C18*
X90812800Y-86843600D02*
X90812800Y-87656400D01*
X89187200Y-86843600D02*
X90812800Y-86843600D01*
X89187200Y-87656400D02*
X89187200Y-86843600D01*
X90812800Y-87656400D02*
X89187200Y-87656400D01*
X90558800Y-87631000D02*
X90558800Y-86843600D01*
X89441200Y-86843600D02*
X89441200Y-87656400D01*
G04 #@! TO.C,C9*
X96062800Y-76593600D02*
X96062800Y-77406400D01*
X94437200Y-76593600D02*
X96062800Y-76593600D01*
X94437200Y-77406400D02*
X94437200Y-76593600D01*
X96062800Y-77406400D02*
X94437200Y-77406400D01*
X95808800Y-77381000D02*
X95808800Y-76593600D01*
X94691200Y-76593600D02*
X94691200Y-77406400D01*
G04 #@! TO.C,C5*
X63755400Y-70149800D02*
X63755400Y-73350200D01*
X66244600Y-73350200D02*
X66244600Y-70149800D01*
X66244600Y-72893000D02*
X63755400Y-72893000D01*
X63755400Y-70607000D02*
X66244600Y-70607000D01*
X66244600Y-70149800D02*
X63755400Y-70149800D01*
X63755400Y-73350200D02*
X66244600Y-73350200D01*
G04 #@! TO.C,C12*
X72906400Y-79312800D02*
X72093600Y-79312800D01*
X72906400Y-77687200D02*
X72906400Y-79312800D01*
X72093600Y-77687200D02*
X72906400Y-77687200D01*
X72093600Y-79312800D02*
X72093600Y-77687200D01*
X72119000Y-79058800D02*
X72906400Y-79058800D01*
X72906400Y-77941200D02*
X72093600Y-77941200D01*
G04 #@! TO.C,C2*
X71843600Y-69687200D02*
X72656400Y-69687200D01*
X71843600Y-71312800D02*
X71843600Y-69687200D01*
X72656400Y-71312800D02*
X71843600Y-71312800D01*
X72656400Y-69687200D02*
X72656400Y-71312800D01*
X72631000Y-69941200D02*
X71843600Y-69941200D01*
X71843600Y-71058800D02*
X72656400Y-71058800D01*
D10*
G04 #@! TO.C,PS1*
X91400000Y-50127000D02*
X50600000Y-50127000D01*
X55760000Y-58255000D02*
X55125000Y-56985000D01*
X54490000Y-58255000D02*
X55760000Y-58255000D01*
X55125000Y-56985000D02*
X54490000Y-58255000D01*
X91320000Y-53175000D02*
G75*
G03X88780000Y-50635000I-2540000J0D01*
G01*
X53220000Y-50635000D02*
G75*
G03X50680000Y-53175000I0J-2540000D01*
G01*
X53220000Y-50635000D02*
X88780000Y-50635000D01*
X50680000Y-56350000D02*
X50680000Y-53175000D01*
X91320000Y-56350000D02*
X50680000Y-56350000D01*
X91320000Y-53175000D02*
X91320000Y-56350000D01*
G04 #@! TO.C,U1*
X65500000Y-69000000D02*
X65500000Y-61500000D01*
X52500000Y-69000000D02*
X65500000Y-69000000D01*
X52500000Y-61500000D02*
X52500000Y-69000000D01*
X53500000Y-60500000D02*
X53500000Y-61000000D01*
X54000000Y-60500000D02*
X53500000Y-60500000D01*
X54000000Y-61000000D02*
X54000000Y-60500000D01*
X56000000Y-60500000D02*
X56000000Y-61000000D01*
X56500000Y-60500000D02*
X56000000Y-60500000D01*
X56500000Y-61000000D02*
X56500000Y-60500000D01*
X59000000Y-60500000D02*
X59000000Y-61000000D01*
X59500000Y-60500000D02*
X59000000Y-60500000D01*
X59500000Y-61000000D02*
X59500000Y-60500000D01*
X61500000Y-60500000D02*
X61500000Y-61000000D01*
X62000000Y-60500000D02*
X61500000Y-60500000D01*
X62000000Y-61000000D02*
X62000000Y-60500000D01*
X64000000Y-60500000D02*
X64000000Y-61000000D01*
X64500000Y-60500000D02*
X64000000Y-60500000D01*
X64500000Y-61000000D02*
X64500000Y-60500000D01*
X52396000Y-61500000D02*
X65604000Y-61500000D01*
X52396000Y-61000000D02*
X52396000Y-61500000D01*
X65604000Y-61000000D02*
X52396000Y-61000000D01*
X65604000Y-61500000D02*
X65604000Y-61000000D01*
G04 #@! TO.C,PS1*
X91320000Y-104175000D02*
X91320000Y-107350000D01*
X91320000Y-107350000D02*
X50680000Y-107350000D01*
X50680000Y-107350000D02*
X50680000Y-104175000D01*
X53220000Y-101635000D02*
X88780000Y-101635000D01*
X53220000Y-101635000D02*
G75*
G03X50680000Y-104175000I0J-2540000D01*
G01*
X91320000Y-104175000D02*
G75*
G03X88780000Y-101635000I-2540000J0D01*
G01*
X55125000Y-107985000D02*
X54490000Y-109255000D01*
X54490000Y-109255000D02*
X55760000Y-109255000D01*
X55760000Y-109255000D02*
X55125000Y-107985000D01*
X91400000Y-101127000D02*
X50600000Y-101127000D01*
D11*
G04 #@! TO.C,C18*
X89441200Y-137843600D02*
X89441200Y-138656400D01*
X90558800Y-138631000D02*
X90558800Y-137843600D01*
X90812800Y-138656400D02*
X89187200Y-138656400D01*
X89187200Y-138656400D02*
X89187200Y-137843600D01*
X89187200Y-137843600D02*
X90812800Y-137843600D01*
X90812800Y-137843600D02*
X90812800Y-138656400D01*
G04 #@! TO.C,C2*
X71843600Y-122058800D02*
X72656400Y-122058800D01*
X72631000Y-120941200D02*
X71843600Y-120941200D01*
X72656400Y-120687200D02*
X72656400Y-122312800D01*
X72656400Y-122312800D02*
X71843600Y-122312800D01*
X71843600Y-122312800D02*
X71843600Y-120687200D01*
X71843600Y-120687200D02*
X72656400Y-120687200D01*
G04 #@! TO.C,C3*
X93093600Y-121808800D02*
X93906400Y-121808800D01*
X93881000Y-120691200D02*
X93093600Y-120691200D01*
X93906400Y-120437200D02*
X93906400Y-122062800D01*
X93906400Y-122062800D02*
X93093600Y-122062800D01*
X93093600Y-122062800D02*
X93093600Y-120437200D01*
X93093600Y-120437200D02*
X93906400Y-120437200D01*
G04 #@! TO.C,C15*
X72656400Y-134941200D02*
X71843600Y-134941200D01*
X71869000Y-136058800D02*
X72656400Y-136058800D01*
X71843600Y-136312800D02*
X71843600Y-134687200D01*
X71843600Y-134687200D02*
X72656400Y-134687200D01*
X72656400Y-134687200D02*
X72656400Y-136312800D01*
X72656400Y-136312800D02*
X71843600Y-136312800D01*
G04 #@! TO.C,C13*
X94691200Y-129093600D02*
X94691200Y-129906400D01*
X95808800Y-129881000D02*
X95808800Y-129093600D01*
X96062800Y-129906400D02*
X94437200Y-129906400D01*
X94437200Y-129906400D02*
X94437200Y-129093600D01*
X94437200Y-129093600D02*
X96062800Y-129093600D01*
X96062800Y-129093600D02*
X96062800Y-129906400D01*
G04 #@! TO.C,C14*
X94691200Y-130593600D02*
X94691200Y-131406400D01*
X95808800Y-131381000D02*
X95808800Y-130593600D01*
X96062800Y-131406400D02*
X94437200Y-131406400D01*
X94437200Y-131406400D02*
X94437200Y-130593600D01*
X94437200Y-130593600D02*
X96062800Y-130593600D01*
X96062800Y-130593600D02*
X96062800Y-131406400D01*
G04 #@! TO.C,C4*
X51649800Y-120505400D02*
X51649800Y-122994600D01*
X54850200Y-122994600D02*
X54850200Y-120505400D01*
X54393000Y-120505400D02*
X54393000Y-122994600D01*
X52107000Y-122994600D02*
X52107000Y-120505400D01*
X51649800Y-122994600D02*
X54850200Y-122994600D01*
X54850200Y-120505400D02*
X51649800Y-120505400D01*
G04 #@! TO.C,C12*
X72906400Y-128941200D02*
X72093600Y-128941200D01*
X72119000Y-130058800D02*
X72906400Y-130058800D01*
X72093600Y-130312800D02*
X72093600Y-128687200D01*
X72093600Y-128687200D02*
X72906400Y-128687200D01*
X72906400Y-128687200D02*
X72906400Y-130312800D01*
X72906400Y-130312800D02*
X72093600Y-130312800D01*
G04 #@! TO.C,C1*
X81691200Y-114843600D02*
X81691200Y-115656400D01*
X82808800Y-115631000D02*
X82808800Y-114843600D01*
X83062800Y-115656400D02*
X81437200Y-115656400D01*
X81437200Y-115656400D02*
X81437200Y-114843600D01*
X81437200Y-114843600D02*
X83062800Y-114843600D01*
X83062800Y-114843600D02*
X83062800Y-115656400D01*
G04 #@! TO.C,C5*
X63755400Y-124350200D02*
X66244600Y-124350200D01*
X66244600Y-121149800D02*
X63755400Y-121149800D01*
X63755400Y-121607000D02*
X66244600Y-121607000D01*
X66244600Y-123893000D02*
X63755400Y-123893000D01*
X66244600Y-124350200D02*
X66244600Y-121149800D01*
X63755400Y-121149800D02*
X63755400Y-124350200D01*
G04 #@! TO.C,C16*
X82308800Y-139156400D02*
X82308800Y-138343600D01*
X81191200Y-138369000D02*
X81191200Y-139156400D01*
X80937200Y-138343600D02*
X82562800Y-138343600D01*
X82562800Y-138343600D02*
X82562800Y-139156400D01*
X82562800Y-139156400D02*
X80937200Y-139156400D01*
X80937200Y-139156400D02*
X80937200Y-138343600D01*
G04 #@! TO.C,C19*
X82308800Y-140656400D02*
X82308800Y-139843600D01*
X81191200Y-139869000D02*
X81191200Y-140656400D01*
X80937200Y-139843600D02*
X82562800Y-139843600D01*
X82562800Y-139843600D02*
X82562800Y-140656400D01*
X82562800Y-140656400D02*
X80937200Y-140656400D01*
X80937200Y-140656400D02*
X80937200Y-139843600D01*
G04 #@! TO.C,C20*
X84191200Y-139843600D02*
X84191200Y-140656400D01*
X85308800Y-140631000D02*
X85308800Y-139843600D01*
X85562800Y-140656400D02*
X83937200Y-140656400D01*
X83937200Y-140656400D02*
X83937200Y-139843600D01*
X83937200Y-139843600D02*
X85562800Y-139843600D01*
X85562800Y-139843600D02*
X85562800Y-140656400D01*
G04 #@! TO.C,C17*
X84191200Y-138343600D02*
X84191200Y-139156400D01*
X85308800Y-139131000D02*
X85308800Y-138343600D01*
X85562800Y-139156400D02*
X83937200Y-139156400D01*
X83937200Y-139156400D02*
X83937200Y-138343600D01*
X83937200Y-138343600D02*
X85562800Y-138343600D01*
X85562800Y-138343600D02*
X85562800Y-139156400D01*
G04 #@! TO.C,C11*
X71406400Y-128191200D02*
X70593600Y-128191200D01*
X70619000Y-129308800D02*
X71406400Y-129308800D01*
X70593600Y-129562800D02*
X70593600Y-127937200D01*
X70593600Y-127937200D02*
X71406400Y-127937200D01*
X71406400Y-127937200D02*
X71406400Y-129562800D01*
X71406400Y-129562800D02*
X70593600Y-129562800D01*
G04 #@! TO.C,C10*
X69906400Y-128191200D02*
X69093600Y-128191200D01*
X69119000Y-129308800D02*
X69906400Y-129308800D01*
X69093600Y-129562800D02*
X69093600Y-127937200D01*
X69093600Y-127937200D02*
X69906400Y-127937200D01*
X69906400Y-127937200D02*
X69906400Y-129562800D01*
X69906400Y-129562800D02*
X69093600Y-129562800D01*
G04 #@! TO.C,C9*
X94691200Y-127593600D02*
X94691200Y-128406400D01*
X95808800Y-128381000D02*
X95808800Y-127593600D01*
X96062800Y-128406400D02*
X94437200Y-128406400D01*
X94437200Y-128406400D02*
X94437200Y-127593600D01*
X94437200Y-127593600D02*
X96062800Y-127593600D01*
X96062800Y-127593600D02*
X96062800Y-128406400D01*
G04 #@! TO.C,C7*
X57093600Y-126308800D02*
X57906400Y-126308800D01*
X57881000Y-125191200D02*
X57093600Y-125191200D01*
X57906400Y-124937200D02*
X57906400Y-126562800D01*
X57906400Y-126562800D02*
X57093600Y-126562800D01*
X57093600Y-126562800D02*
X57093600Y-124937200D01*
X57093600Y-124937200D02*
X57906400Y-124937200D01*
G04 #@! TO.C,C8*
X58593600Y-126308800D02*
X59406400Y-126308800D01*
X59381000Y-125191200D02*
X58593600Y-125191200D01*
X59406400Y-124937200D02*
X59406400Y-126562800D01*
X59406400Y-126562800D02*
X58593600Y-126562800D01*
X58593600Y-126562800D02*
X58593600Y-124937200D01*
X58593600Y-124937200D02*
X59406400Y-124937200D01*
G04 #@! TO.C,C6*
X55593600Y-126308800D02*
X56406400Y-126308800D01*
X56381000Y-125191200D02*
X55593600Y-125191200D01*
X56406400Y-124937200D02*
X56406400Y-126562800D01*
X56406400Y-126562800D02*
X55593600Y-126562800D01*
X55593600Y-126562800D02*
X55593600Y-124937200D01*
X55593600Y-124937200D02*
X56406400Y-124937200D01*
D12*
G04 #@! TO.C,D1*
X62000000Y-122500000D02*
X60000000Y-122500000D01*
X60000000Y-122500000D02*
X60000000Y-126400000D01*
X62000000Y-122500000D02*
X62000000Y-126400000D01*
D13*
G04 #@! TO.C,J1*
X50050000Y-125500000D02*
X50050000Y-135500000D01*
D12*
G04 #@! TO.C,KP1*
X68330000Y-112420000D02*
X68330000Y-110830000D01*
X68330000Y-110830000D02*
X81330000Y-110830000D01*
X81330000Y-110830000D02*
X81330000Y-113670000D01*
X81330000Y-113670000D02*
X69580000Y-113670000D01*
X68080000Y-112520000D02*
X68080000Y-113920000D01*
X68080000Y-113920000D02*
X69480000Y-113920000D01*
D11*
G04 #@! TO.C,R4*
X82808800Y-116906400D02*
X82808800Y-116093600D01*
X81691200Y-116119000D02*
X81691200Y-116906400D01*
X81437200Y-116093600D02*
X83062800Y-116093600D01*
X83062800Y-116093600D02*
X83062800Y-116906400D01*
X83062800Y-116906400D02*
X81437200Y-116906400D01*
X81437200Y-116906400D02*
X81437200Y-116093600D01*
G04 #@! TO.C,R7*
X59441200Y-129843600D02*
X59441200Y-130656400D01*
X60558800Y-130631000D02*
X60558800Y-129843600D01*
X60812800Y-130656400D02*
X59187200Y-130656400D01*
X59187200Y-130656400D02*
X59187200Y-129843600D01*
X59187200Y-129843600D02*
X60812800Y-129843600D01*
X60812800Y-129843600D02*
X60812800Y-130656400D01*
G04 #@! TO.C,R6*
X59441200Y-128343600D02*
X59441200Y-129156400D01*
X60558800Y-129131000D02*
X60558800Y-128343600D01*
X60812800Y-129156400D02*
X59187200Y-129156400D01*
X59187200Y-129156400D02*
X59187200Y-128343600D01*
X59187200Y-128343600D02*
X60812800Y-128343600D01*
X60812800Y-128343600D02*
X60812800Y-129156400D01*
D10*
G04 #@! TO.C,U2*
X89250000Y-121250000D02*
X89750000Y-121750000D01*
X89750000Y-134750000D02*
X89750000Y-135250000D01*
X89750000Y-135250000D02*
X89250000Y-135250000D01*
X75750000Y-121750000D02*
X75750000Y-121250000D01*
X75750000Y-121250000D02*
X76250000Y-121250000D01*
X75750000Y-134750000D02*
X75750000Y-135250000D01*
X75750000Y-135250000D02*
X76250000Y-135250000D01*
G04 #@! TO.C,PS2*
X138320000Y-104175000D02*
X138320000Y-107350000D01*
X138320000Y-107350000D02*
X97680000Y-107350000D01*
X97680000Y-107350000D02*
X97680000Y-104175000D01*
X100220000Y-101635000D02*
X135780000Y-101635000D01*
X100220000Y-101635000D02*
G75*
G03X97680000Y-104175000I0J-2540000D01*
G01*
X138320000Y-104175000D02*
G75*
G03X135780000Y-101635000I-2540000J0D01*
G01*
X102125000Y-107985000D02*
X101490000Y-109255000D01*
X101490000Y-109255000D02*
X102760000Y-109255000D01*
X102760000Y-109255000D02*
X102125000Y-107985000D01*
X138400000Y-101127000D02*
X97600000Y-101127000D01*
G04 #@! TO.C,U1*
X65604000Y-112500000D02*
X65604000Y-112000000D01*
X65604000Y-112000000D02*
X52396000Y-112000000D01*
X52396000Y-112000000D02*
X52396000Y-112500000D01*
X52396000Y-112500000D02*
X65604000Y-112500000D01*
X64500000Y-112000000D02*
X64500000Y-111500000D01*
X64500000Y-111500000D02*
X64000000Y-111500000D01*
X64000000Y-111500000D02*
X64000000Y-112000000D01*
X62000000Y-112000000D02*
X62000000Y-111500000D01*
X62000000Y-111500000D02*
X61500000Y-111500000D01*
X61500000Y-111500000D02*
X61500000Y-112000000D01*
X59500000Y-112000000D02*
X59500000Y-111500000D01*
X59500000Y-111500000D02*
X59000000Y-111500000D01*
X59000000Y-111500000D02*
X59000000Y-112000000D01*
X56500000Y-112000000D02*
X56500000Y-111500000D01*
X56500000Y-111500000D02*
X56000000Y-111500000D01*
X56000000Y-111500000D02*
X56000000Y-112000000D01*
X54000000Y-112000000D02*
X54000000Y-111500000D01*
X54000000Y-111500000D02*
X53500000Y-111500000D01*
X53500000Y-111500000D02*
X53500000Y-112000000D01*
X52500000Y-112500000D02*
X52500000Y-120000000D01*
X52500000Y-120000000D02*
X65500000Y-120000000D01*
X65500000Y-120000000D02*
X65500000Y-112500000D01*
G04 #@! TO.C,PS2*
X116150714Y-58072380D02*
X116150714Y-57072380D01*
X116531666Y-57072380D01*
X116626904Y-57120000D01*
X116674523Y-57167619D01*
X116722142Y-57262857D01*
X116722142Y-57405714D01*
X116674523Y-57500952D01*
X116626904Y-57548571D01*
X116531666Y-57596190D01*
X116150714Y-57596190D01*
X117103095Y-58024761D02*
X117245952Y-58072380D01*
X117484047Y-58072380D01*
X117579285Y-58024761D01*
X117626904Y-57977142D01*
X117674523Y-57881904D01*
X117674523Y-57786666D01*
X117626904Y-57691428D01*
X117579285Y-57643809D01*
X117484047Y-57596190D01*
X117293571Y-57548571D01*
X117198333Y-57500952D01*
X117150714Y-57453333D01*
X117103095Y-57358095D01*
X117103095Y-57262857D01*
X117150714Y-57167619D01*
X117198333Y-57120000D01*
X117293571Y-57072380D01*
X117531666Y-57072380D01*
X117674523Y-57120000D01*
X118055476Y-57167619D02*
X118103095Y-57120000D01*
X118198333Y-57072380D01*
X118436428Y-57072380D01*
X118531666Y-57120000D01*
X118579285Y-57167619D01*
X118626904Y-57262857D01*
X118626904Y-57358095D01*
X118579285Y-57500952D01*
X118007857Y-58072380D01*
X118626904Y-58072380D01*
G04 #@! TO.C,P5*
D14*
X115761343Y-92452724D02*
X115761343Y-91451964D01*
X116142585Y-91451964D01*
X116237896Y-91499620D01*
X116285551Y-91547275D01*
X116333206Y-91642585D01*
X116333206Y-91785551D01*
X116285551Y-91880861D01*
X116237896Y-91928517D01*
X116142585Y-91976172D01*
X115761343Y-91976172D01*
X117238656Y-91451964D02*
X116762103Y-91451964D01*
X116714448Y-91928517D01*
X116762103Y-91880861D01*
X116857414Y-91833206D01*
X117095690Y-91833206D01*
X117191000Y-91880861D01*
X117238656Y-91928517D01*
X117286311Y-92023827D01*
X117286311Y-92262103D01*
X117238656Y-92357414D01*
X117191000Y-92405069D01*
X117095690Y-92452724D01*
X116857414Y-92452724D01*
X116762103Y-92405069D01*
X116714448Y-92357414D01*
G04 #@! TO.C,C6*
D10*
X56357142Y-77166666D02*
X56404761Y-77214285D01*
X56452380Y-77357142D01*
X56452380Y-77452380D01*
X56404761Y-77595238D01*
X56309523Y-77690476D01*
X56214285Y-77738095D01*
X56023809Y-77785714D01*
X55880952Y-77785714D01*
X55690476Y-77738095D01*
X55595238Y-77690476D01*
X55500000Y-77595238D01*
X55452380Y-77452380D01*
X55452380Y-77357142D01*
X55500000Y-77214285D01*
X55547619Y-77166666D01*
X55452380Y-76309523D02*
X55452380Y-76500000D01*
X55500000Y-76595238D01*
X55547619Y-76642857D01*
X55690476Y-76738095D01*
X55880952Y-76785714D01*
X56261904Y-76785714D01*
X56357142Y-76738095D01*
X56404761Y-76690476D01*
X56452380Y-76595238D01*
X56452380Y-76404761D01*
X56404761Y-76309523D01*
X56357142Y-76261904D01*
X56261904Y-76214285D01*
X56023809Y-76214285D01*
X55928571Y-76261904D01*
X55880952Y-76309523D01*
X55833333Y-76404761D01*
X55833333Y-76595238D01*
X55880952Y-76690476D01*
X55928571Y-76738095D01*
X56023809Y-76785714D01*
G04 #@! TO.C,U2*
X89085714Y-66592857D02*
X89085714Y-67564285D01*
X89142857Y-67678571D01*
X89200000Y-67735714D01*
X89314285Y-67792857D01*
X89542857Y-67792857D01*
X89657142Y-67735714D01*
X89714285Y-67678571D01*
X89771428Y-67564285D01*
X89771428Y-66592857D01*
X90285714Y-66707142D02*
X90342857Y-66650000D01*
X90457142Y-66592857D01*
X90742857Y-66592857D01*
X90857142Y-66650000D01*
X90914285Y-66707142D01*
X90971428Y-66821428D01*
X90971428Y-66935714D01*
X90914285Y-67107142D01*
X90228571Y-67792857D01*
X90971428Y-67792857D01*
G04 #@! TO.C,R5*
X72583333Y-67202380D02*
X72250000Y-66726190D01*
X72011904Y-67202380D02*
X72011904Y-66202380D01*
X72392857Y-66202380D01*
X72488095Y-66250000D01*
X72535714Y-66297619D01*
X72583333Y-66392857D01*
X72583333Y-66535714D01*
X72535714Y-66630952D01*
X72488095Y-66678571D01*
X72392857Y-66726190D01*
X72011904Y-66726190D01*
X73488095Y-66202380D02*
X73011904Y-66202380D01*
X72964285Y-66678571D01*
X73011904Y-66630952D01*
X73107142Y-66583333D01*
X73345238Y-66583333D01*
X73440476Y-66630952D01*
X73488095Y-66678571D01*
X73535714Y-66773809D01*
X73535714Y-67011904D01*
X73488095Y-67107142D01*
X73440476Y-67154761D01*
X73345238Y-67202380D01*
X73107142Y-67202380D01*
X73011904Y-67154761D01*
X72964285Y-67107142D01*
G04 #@! TO.C,C8*
X59357142Y-72416666D02*
X59404761Y-72464285D01*
X59452380Y-72607142D01*
X59452380Y-72702380D01*
X59404761Y-72845238D01*
X59309523Y-72940476D01*
X59214285Y-72988095D01*
X59023809Y-73035714D01*
X58880952Y-73035714D01*
X58690476Y-72988095D01*
X58595238Y-72940476D01*
X58500000Y-72845238D01*
X58452380Y-72702380D01*
X58452380Y-72607142D01*
X58500000Y-72464285D01*
X58547619Y-72416666D01*
X58880952Y-71845238D02*
X58833333Y-71940476D01*
X58785714Y-71988095D01*
X58690476Y-72035714D01*
X58642857Y-72035714D01*
X58547619Y-71988095D01*
X58500000Y-71940476D01*
X58452380Y-71845238D01*
X58452380Y-71654761D01*
X58500000Y-71559523D01*
X58547619Y-71511904D01*
X58642857Y-71464285D01*
X58690476Y-71464285D01*
X58785714Y-71511904D01*
X58833333Y-71559523D01*
X58880952Y-71654761D01*
X58880952Y-71845238D01*
X58928571Y-71940476D01*
X58976190Y-71988095D01*
X59071428Y-72035714D01*
X59261904Y-72035714D01*
X59357142Y-71988095D01*
X59404761Y-71940476D01*
X59452380Y-71845238D01*
X59452380Y-71654761D01*
X59404761Y-71559523D01*
X59357142Y-71511904D01*
X59261904Y-71464285D01*
X59071428Y-71464285D01*
X58976190Y-71511904D01*
X58928571Y-71559523D01*
X58880952Y-71654761D01*
G04 #@! TO.C,P3*
D14*
X56261343Y-92452724D02*
X56261343Y-91451964D01*
X56642585Y-91451964D01*
X56737896Y-91499620D01*
X56785551Y-91547275D01*
X56833206Y-91642585D01*
X56833206Y-91785551D01*
X56785551Y-91880861D01*
X56737896Y-91928517D01*
X56642585Y-91976172D01*
X56261343Y-91976172D01*
X57166793Y-91451964D02*
X57786311Y-91451964D01*
X57452724Y-91833206D01*
X57595690Y-91833206D01*
X57691000Y-91880861D01*
X57738656Y-91928517D01*
X57786311Y-92023827D01*
X57786311Y-92262103D01*
X57738656Y-92357414D01*
X57691000Y-92405069D01*
X57595690Y-92452724D01*
X57309759Y-92452724D01*
X57214448Y-92405069D01*
X57166793Y-92357414D01*
G04 #@! TO.C,P4*
X101011343Y-92452724D02*
X101011343Y-91451964D01*
X101392585Y-91451964D01*
X101487896Y-91499620D01*
X101535551Y-91547275D01*
X101583206Y-91642585D01*
X101583206Y-91785551D01*
X101535551Y-91880861D01*
X101487896Y-91928517D01*
X101392585Y-91976172D01*
X101011343Y-91976172D01*
X102441000Y-91785551D02*
X102441000Y-92452724D01*
X102202724Y-91404309D02*
X101964448Y-92119138D01*
X102583966Y-92119138D01*
G04 #@! TO.C,R6*
D10*
X62333333Y-77952380D02*
X62000000Y-77476190D01*
X61761904Y-77952380D02*
X61761904Y-76952380D01*
X62142857Y-76952380D01*
X62238095Y-77000000D01*
X62285714Y-77047619D01*
X62333333Y-77142857D01*
X62333333Y-77285714D01*
X62285714Y-77380952D01*
X62238095Y-77428571D01*
X62142857Y-77476190D01*
X61761904Y-77476190D01*
X63190476Y-76952380D02*
X63000000Y-76952380D01*
X62904761Y-77000000D01*
X62857142Y-77047619D01*
X62761904Y-77190476D01*
X62714285Y-77380952D01*
X62714285Y-77761904D01*
X62761904Y-77857142D01*
X62809523Y-77904761D01*
X62904761Y-77952380D01*
X63095238Y-77952380D01*
X63190476Y-77904761D01*
X63238095Y-77857142D01*
X63285714Y-77761904D01*
X63285714Y-77523809D01*
X63238095Y-77428571D01*
X63190476Y-77380952D01*
X63095238Y-77333333D01*
X62904761Y-77333333D01*
X62809523Y-77380952D01*
X62761904Y-77428571D01*
X62714285Y-77523809D01*
G04 #@! TO.C,R7*
X62333333Y-80202380D02*
X62000000Y-79726190D01*
X61761904Y-80202380D02*
X61761904Y-79202380D01*
X62142857Y-79202380D01*
X62238095Y-79250000D01*
X62285714Y-79297619D01*
X62333333Y-79392857D01*
X62333333Y-79535714D01*
X62285714Y-79630952D01*
X62238095Y-79678571D01*
X62142857Y-79726190D01*
X61761904Y-79726190D01*
X62666666Y-79202380D02*
X63333333Y-79202380D01*
X62904761Y-80202380D01*
G04 #@! TO.C,C7*
X57857142Y-72416666D02*
X57904761Y-72464285D01*
X57952380Y-72607142D01*
X57952380Y-72702380D01*
X57904761Y-72845238D01*
X57809523Y-72940476D01*
X57714285Y-72988095D01*
X57523809Y-73035714D01*
X57380952Y-73035714D01*
X57190476Y-72988095D01*
X57095238Y-72940476D01*
X57000000Y-72845238D01*
X56952380Y-72702380D01*
X56952380Y-72607142D01*
X57000000Y-72464285D01*
X57047619Y-72416666D01*
X56952380Y-72083333D02*
X56952380Y-71416666D01*
X57952380Y-71845238D01*
G04 #@! TO.C,R3*
X76333333Y-66452380D02*
X76000000Y-65976190D01*
X75761904Y-66452380D02*
X75761904Y-65452380D01*
X76142857Y-65452380D01*
X76238095Y-65500000D01*
X76285714Y-65547619D01*
X76333333Y-65642857D01*
X76333333Y-65785714D01*
X76285714Y-65880952D01*
X76238095Y-65928571D01*
X76142857Y-65976190D01*
X75761904Y-65976190D01*
X76666666Y-65452380D02*
X77285714Y-65452380D01*
X76952380Y-65833333D01*
X77095238Y-65833333D01*
X77190476Y-65880952D01*
X77238095Y-65928571D01*
X77285714Y-66023809D01*
X77285714Y-66261904D01*
X77238095Y-66357142D01*
X77190476Y-66404761D01*
X77095238Y-66452380D01*
X76809523Y-66452380D01*
X76714285Y-66404761D01*
X76666666Y-66357142D01*
G04 #@! TO.C,R2*
X72583333Y-65452380D02*
X72250000Y-64976190D01*
X72011904Y-65452380D02*
X72011904Y-64452380D01*
X72392857Y-64452380D01*
X72488095Y-64500000D01*
X72535714Y-64547619D01*
X72583333Y-64642857D01*
X72583333Y-64785714D01*
X72535714Y-64880952D01*
X72488095Y-64928571D01*
X72392857Y-64976190D01*
X72011904Y-64976190D01*
X72964285Y-64547619D02*
X73011904Y-64500000D01*
X73107142Y-64452380D01*
X73345238Y-64452380D01*
X73440476Y-64500000D01*
X73488095Y-64547619D01*
X73535714Y-64642857D01*
X73535714Y-64738095D01*
X73488095Y-64880952D01*
X72916666Y-65452380D01*
X73535714Y-65452380D01*
G04 #@! TO.C,R4*
X84583333Y-66202380D02*
X84250000Y-65726190D01*
X84011904Y-66202380D02*
X84011904Y-65202380D01*
X84392857Y-65202380D01*
X84488095Y-65250000D01*
X84535714Y-65297619D01*
X84583333Y-65392857D01*
X84583333Y-65535714D01*
X84535714Y-65630952D01*
X84488095Y-65678571D01*
X84392857Y-65726190D01*
X84011904Y-65726190D01*
X85440476Y-65535714D02*
X85440476Y-66202380D01*
X85202380Y-65154761D02*
X84964285Y-65869047D01*
X85583333Y-65869047D01*
G04 #@! TO.C,R1*
X76333333Y-64702380D02*
X76000000Y-64226190D01*
X75761904Y-64702380D02*
X75761904Y-63702380D01*
X76142857Y-63702380D01*
X76238095Y-63750000D01*
X76285714Y-63797619D01*
X76333333Y-63892857D01*
X76333333Y-64035714D01*
X76285714Y-64130952D01*
X76238095Y-64178571D01*
X76142857Y-64226190D01*
X75761904Y-64226190D01*
X77285714Y-64702380D02*
X76714285Y-64702380D01*
X77000000Y-64702380D02*
X77000000Y-63702380D01*
X76904761Y-63845238D01*
X76809523Y-63940476D01*
X76714285Y-63988095D01*
G04 #@! TO.C,KP1*
X72011904Y-59202380D02*
X72011904Y-58202380D01*
X72583333Y-59202380D02*
X72154761Y-58630952D01*
X72583333Y-58202380D02*
X72011904Y-58773809D01*
X73011904Y-59202380D02*
X73011904Y-58202380D01*
X73392857Y-58202380D01*
X73488095Y-58250000D01*
X73535714Y-58297619D01*
X73583333Y-58392857D01*
X73583333Y-58535714D01*
X73535714Y-58630952D01*
X73488095Y-58678571D01*
X73392857Y-58726190D01*
X73011904Y-58726190D01*
X74535714Y-59202380D02*
X73964285Y-59202380D01*
X74250000Y-59202380D02*
X74250000Y-58202380D01*
X74154761Y-58345238D01*
X74059523Y-58440476D01*
X73964285Y-58488095D01*
G04 #@! TO.C,J1*
X52641666Y-84677380D02*
X52641666Y-85391666D01*
X52594047Y-85534523D01*
X52498809Y-85629761D01*
X52355952Y-85677380D01*
X52260714Y-85677380D01*
X53641666Y-85677380D02*
X53070238Y-85677380D01*
X53355952Y-85677380D02*
X53355952Y-84677380D01*
X53260714Y-84820238D01*
X53165476Y-84915476D01*
X53070238Y-84963095D01*
G04 #@! TO.C,D1*
X62511904Y-75952380D02*
X62511904Y-74952380D01*
X62750000Y-74952380D01*
X62892857Y-75000000D01*
X62988095Y-75095238D01*
X63035714Y-75190476D01*
X63083333Y-75380952D01*
X63083333Y-75523809D01*
X63035714Y-75714285D01*
X62988095Y-75809523D01*
X62892857Y-75904761D01*
X62750000Y-75952380D01*
X62511904Y-75952380D01*
X64035714Y-75952380D02*
X63464285Y-75952380D01*
X63750000Y-75952380D02*
X63750000Y-74952380D01*
X63654761Y-75095238D01*
X63559523Y-75190476D01*
X63464285Y-75238095D01*
G04 #@! TO.C,C10*
X69857142Y-81142857D02*
X69904761Y-81190476D01*
X69952380Y-81333333D01*
X69952380Y-81428571D01*
X69904761Y-81571428D01*
X69809523Y-81666666D01*
X69714285Y-81714285D01*
X69523809Y-81761904D01*
X69380952Y-81761904D01*
X69190476Y-81714285D01*
X69095238Y-81666666D01*
X69000000Y-81571428D01*
X68952380Y-81428571D01*
X68952380Y-81333333D01*
X69000000Y-81190476D01*
X69047619Y-81142857D01*
X69952380Y-80190476D02*
X69952380Y-80761904D01*
X69952380Y-80476190D02*
X68952380Y-80476190D01*
X69095238Y-80571428D01*
X69190476Y-80666666D01*
X69238095Y-80761904D01*
X68952380Y-79571428D02*
X68952380Y-79476190D01*
X69000000Y-79380952D01*
X69047619Y-79333333D01*
X69142857Y-79285714D01*
X69333333Y-79238095D01*
X69571428Y-79238095D01*
X69761904Y-79285714D01*
X69857142Y-79333333D01*
X69904761Y-79380952D01*
X69952380Y-79476190D01*
X69952380Y-79571428D01*
X69904761Y-79666666D01*
X69857142Y-79714285D01*
X69761904Y-79761904D01*
X69571428Y-79809523D01*
X69333333Y-79809523D01*
X69142857Y-79761904D01*
X69047619Y-79714285D01*
X69000000Y-79666666D01*
X68952380Y-79571428D01*
G04 #@! TO.C,C11*
X71357142Y-75392857D02*
X71404761Y-75440476D01*
X71452380Y-75583333D01*
X71452380Y-75678571D01*
X71404761Y-75821428D01*
X71309523Y-75916666D01*
X71214285Y-75964285D01*
X71023809Y-76011904D01*
X70880952Y-76011904D01*
X70690476Y-75964285D01*
X70595238Y-75916666D01*
X70500000Y-75821428D01*
X70452380Y-75678571D01*
X70452380Y-75583333D01*
X70500000Y-75440476D01*
X70547619Y-75392857D01*
X71452380Y-74440476D02*
X71452380Y-75011904D01*
X71452380Y-74726190D02*
X70452380Y-74726190D01*
X70595238Y-74821428D01*
X70690476Y-74916666D01*
X70738095Y-75011904D01*
X71452380Y-73488095D02*
X71452380Y-74059523D01*
X71452380Y-73773809D02*
X70452380Y-73773809D01*
X70595238Y-73869047D01*
X70690476Y-73964285D01*
X70738095Y-74059523D01*
G04 #@! TO.C,C1*
X84583333Y-64357142D02*
X84535714Y-64404761D01*
X84392857Y-64452380D01*
X84297619Y-64452380D01*
X84154761Y-64404761D01*
X84059523Y-64309523D01*
X84011904Y-64214285D01*
X83964285Y-64023809D01*
X83964285Y-63880952D01*
X84011904Y-63690476D01*
X84059523Y-63595238D01*
X84154761Y-63500000D01*
X84297619Y-63452380D01*
X84392857Y-63452380D01*
X84535714Y-63500000D01*
X84583333Y-63547619D01*
X85535714Y-64452380D02*
X84964285Y-64452380D01*
X85250000Y-64452380D02*
X85250000Y-63452380D01*
X85154761Y-63595238D01*
X85059523Y-63690476D01*
X84964285Y-63738095D01*
G04 #@! TO.C,C19*
X80607142Y-91107142D02*
X80559523Y-91154761D01*
X80416666Y-91202380D01*
X80321428Y-91202380D01*
X80178571Y-91154761D01*
X80083333Y-91059523D01*
X80035714Y-90964285D01*
X79988095Y-90773809D01*
X79988095Y-90630952D01*
X80035714Y-90440476D01*
X80083333Y-90345238D01*
X80178571Y-90250000D01*
X80321428Y-90202380D01*
X80416666Y-90202380D01*
X80559523Y-90250000D01*
X80607142Y-90297619D01*
X81559523Y-91202380D02*
X80988095Y-91202380D01*
X81273809Y-91202380D02*
X81273809Y-90202380D01*
X81178571Y-90345238D01*
X81083333Y-90440476D01*
X80988095Y-90488095D01*
X82035714Y-91202380D02*
X82226190Y-91202380D01*
X82321428Y-91154761D01*
X82369047Y-91107142D01*
X82464285Y-90964285D01*
X82511904Y-90773809D01*
X82511904Y-90392857D01*
X82464285Y-90297619D01*
X82416666Y-90250000D01*
X82321428Y-90202380D01*
X82130952Y-90202380D01*
X82035714Y-90250000D01*
X81988095Y-90297619D01*
X81940476Y-90392857D01*
X81940476Y-90630952D01*
X81988095Y-90726190D01*
X82035714Y-90773809D01*
X82130952Y-90821428D01*
X82321428Y-90821428D01*
X82416666Y-90773809D01*
X82464285Y-90726190D01*
X82511904Y-90630952D01*
G04 #@! TO.C,C17*
X87107142Y-89107142D02*
X87059523Y-89154761D01*
X86916666Y-89202380D01*
X86821428Y-89202380D01*
X86678571Y-89154761D01*
X86583333Y-89059523D01*
X86535714Y-88964285D01*
X86488095Y-88773809D01*
X86488095Y-88630952D01*
X86535714Y-88440476D01*
X86583333Y-88345238D01*
X86678571Y-88250000D01*
X86821428Y-88202380D01*
X86916666Y-88202380D01*
X87059523Y-88250000D01*
X87107142Y-88297619D01*
X88059523Y-89202380D02*
X87488095Y-89202380D01*
X87773809Y-89202380D02*
X87773809Y-88202380D01*
X87678571Y-88345238D01*
X87583333Y-88440476D01*
X87488095Y-88488095D01*
X88392857Y-88202380D02*
X89059523Y-88202380D01*
X88630952Y-89202380D01*
G04 #@! TO.C,C20*
X84607142Y-91107142D02*
X84559523Y-91154761D01*
X84416666Y-91202380D01*
X84321428Y-91202380D01*
X84178571Y-91154761D01*
X84083333Y-91059523D01*
X84035714Y-90964285D01*
X83988095Y-90773809D01*
X83988095Y-90630952D01*
X84035714Y-90440476D01*
X84083333Y-90345238D01*
X84178571Y-90250000D01*
X84321428Y-90202380D01*
X84416666Y-90202380D01*
X84559523Y-90250000D01*
X84607142Y-90297619D01*
X84988095Y-90297619D02*
X85035714Y-90250000D01*
X85130952Y-90202380D01*
X85369047Y-90202380D01*
X85464285Y-90250000D01*
X85511904Y-90297619D01*
X85559523Y-90392857D01*
X85559523Y-90488095D01*
X85511904Y-90630952D01*
X84940476Y-91202380D01*
X85559523Y-91202380D01*
X86178571Y-90202380D02*
X86273809Y-90202380D01*
X86369047Y-90250000D01*
X86416666Y-90297619D01*
X86464285Y-90392857D01*
X86511904Y-90583333D01*
X86511904Y-90821428D01*
X86464285Y-91011904D01*
X86416666Y-91107142D01*
X86369047Y-91154761D01*
X86273809Y-91202380D01*
X86178571Y-91202380D01*
X86083333Y-91154761D01*
X86035714Y-91107142D01*
X85988095Y-91011904D01*
X85940476Y-90821428D01*
X85940476Y-90583333D01*
X85988095Y-90392857D01*
X86035714Y-90297619D01*
X86083333Y-90250000D01*
X86178571Y-90202380D01*
G04 #@! TO.C,C16*
X78107142Y-88107142D02*
X78059523Y-88154761D01*
X77916666Y-88202380D01*
X77821428Y-88202380D01*
X77678571Y-88154761D01*
X77583333Y-88059523D01*
X77535714Y-87964285D01*
X77488095Y-87773809D01*
X77488095Y-87630952D01*
X77535714Y-87440476D01*
X77583333Y-87345238D01*
X77678571Y-87250000D01*
X77821428Y-87202380D01*
X77916666Y-87202380D01*
X78059523Y-87250000D01*
X78107142Y-87297619D01*
X79059523Y-88202380D02*
X78488095Y-88202380D01*
X78773809Y-88202380D02*
X78773809Y-87202380D01*
X78678571Y-87345238D01*
X78583333Y-87440476D01*
X78488095Y-87488095D01*
X79916666Y-87202380D02*
X79726190Y-87202380D01*
X79630952Y-87250000D01*
X79583333Y-87297619D01*
X79488095Y-87440476D01*
X79440476Y-87630952D01*
X79440476Y-88011904D01*
X79488095Y-88107142D01*
X79535714Y-88154761D01*
X79630952Y-88202380D01*
X79821428Y-88202380D01*
X79916666Y-88154761D01*
X79964285Y-88107142D01*
X80011904Y-88011904D01*
X80011904Y-87773809D01*
X79964285Y-87678571D01*
X79916666Y-87630952D01*
X79821428Y-87583333D01*
X79630952Y-87583333D01*
X79535714Y-87630952D01*
X79488095Y-87678571D01*
X79440476Y-87773809D01*
G04 #@! TO.C,C4*
X52083333Y-73607142D02*
X52035714Y-73654761D01*
X51892857Y-73702380D01*
X51797619Y-73702380D01*
X51654761Y-73654761D01*
X51559523Y-73559523D01*
X51511904Y-73464285D01*
X51464285Y-73273809D01*
X51464285Y-73130952D01*
X51511904Y-72940476D01*
X51559523Y-72845238D01*
X51654761Y-72750000D01*
X51797619Y-72702380D01*
X51892857Y-72702380D01*
X52035714Y-72750000D01*
X52083333Y-72797619D01*
X52940476Y-73035714D02*
X52940476Y-73702380D01*
X52702380Y-72654761D02*
X52464285Y-73369047D01*
X53083333Y-73369047D01*
G04 #@! TO.C,C14*
X94607142Y-81857142D02*
X94559523Y-81904761D01*
X94416666Y-81952380D01*
X94321428Y-81952380D01*
X94178571Y-81904761D01*
X94083333Y-81809523D01*
X94035714Y-81714285D01*
X93988095Y-81523809D01*
X93988095Y-81380952D01*
X94035714Y-81190476D01*
X94083333Y-81095238D01*
X94178571Y-81000000D01*
X94321428Y-80952380D01*
X94416666Y-80952380D01*
X94559523Y-81000000D01*
X94607142Y-81047619D01*
X95559523Y-81952380D02*
X94988095Y-81952380D01*
X95273809Y-81952380D02*
X95273809Y-80952380D01*
X95178571Y-81095238D01*
X95083333Y-81190476D01*
X94988095Y-81238095D01*
X96416666Y-81285714D02*
X96416666Y-81952380D01*
X96178571Y-80904761D02*
X95940476Y-81619047D01*
X96559523Y-81619047D01*
G04 #@! TO.C,C3*
X95333333Y-70607142D02*
X95285714Y-70654761D01*
X95142857Y-70702380D01*
X95047619Y-70702380D01*
X94904761Y-70654761D01*
X94809523Y-70559523D01*
X94761904Y-70464285D01*
X94714285Y-70273809D01*
X94714285Y-70130952D01*
X94761904Y-69940476D01*
X94809523Y-69845238D01*
X94904761Y-69750000D01*
X95047619Y-69702380D01*
X95142857Y-69702380D01*
X95285714Y-69750000D01*
X95333333Y-69797619D01*
X95666666Y-69702380D02*
X96285714Y-69702380D01*
X95952380Y-70083333D01*
X96095238Y-70083333D01*
X96190476Y-70130952D01*
X96238095Y-70178571D01*
X96285714Y-70273809D01*
X96285714Y-70511904D01*
X96238095Y-70607142D01*
X96190476Y-70654761D01*
X96095238Y-70702380D01*
X95809523Y-70702380D01*
X95714285Y-70654761D01*
X95666666Y-70607142D01*
G04 #@! TO.C,C13*
X97107142Y-78857142D02*
X97059523Y-78904761D01*
X96916666Y-78952380D01*
X96821428Y-78952380D01*
X96678571Y-78904761D01*
X96583333Y-78809523D01*
X96535714Y-78714285D01*
X96488095Y-78523809D01*
X96488095Y-78380952D01*
X96535714Y-78190476D01*
X96583333Y-78095238D01*
X96678571Y-78000000D01*
X96821428Y-77952380D01*
X96916666Y-77952380D01*
X97059523Y-78000000D01*
X97107142Y-78047619D01*
X98059523Y-78952380D02*
X97488095Y-78952380D01*
X97773809Y-78952380D02*
X97773809Y-77952380D01*
X97678571Y-78095238D01*
X97583333Y-78190476D01*
X97488095Y-78238095D01*
X98392857Y-77952380D02*
X99011904Y-77952380D01*
X98678571Y-78333333D01*
X98821428Y-78333333D01*
X98916666Y-78380952D01*
X98964285Y-78428571D01*
X99011904Y-78523809D01*
X99011904Y-78761904D01*
X98964285Y-78857142D01*
X98916666Y-78904761D01*
X98821428Y-78952380D01*
X98535714Y-78952380D01*
X98440476Y-78904761D01*
X98392857Y-78857142D01*
G04 #@! TO.C,C15*
X71357142Y-85142857D02*
X71404761Y-85190476D01*
X71452380Y-85333333D01*
X71452380Y-85428571D01*
X71404761Y-85571428D01*
X71309523Y-85666666D01*
X71214285Y-85714285D01*
X71023809Y-85761904D01*
X70880952Y-85761904D01*
X70690476Y-85714285D01*
X70595238Y-85666666D01*
X70500000Y-85571428D01*
X70452380Y-85428571D01*
X70452380Y-85333333D01*
X70500000Y-85190476D01*
X70547619Y-85142857D01*
X71452380Y-84190476D02*
X71452380Y-84761904D01*
X71452380Y-84476190D02*
X70452380Y-84476190D01*
X70595238Y-84571428D01*
X70690476Y-84666666D01*
X70738095Y-84761904D01*
X70452380Y-83285714D02*
X70452380Y-83761904D01*
X70928571Y-83809523D01*
X70880952Y-83761904D01*
X70833333Y-83666666D01*
X70833333Y-83428571D01*
X70880952Y-83333333D01*
X70928571Y-83285714D01*
X71023809Y-83238095D01*
X71261904Y-83238095D01*
X71357142Y-83285714D01*
X71404761Y-83333333D01*
X71452380Y-83428571D01*
X71452380Y-83666666D01*
X71404761Y-83761904D01*
X71357142Y-83809523D01*
G04 #@! TO.C,C18*
X91857142Y-87607142D02*
X91809523Y-87654761D01*
X91666666Y-87702380D01*
X91571428Y-87702380D01*
X91428571Y-87654761D01*
X91333333Y-87559523D01*
X91285714Y-87464285D01*
X91238095Y-87273809D01*
X91238095Y-87130952D01*
X91285714Y-86940476D01*
X91333333Y-86845238D01*
X91428571Y-86750000D01*
X91571428Y-86702380D01*
X91666666Y-86702380D01*
X91809523Y-86750000D01*
X91857142Y-86797619D01*
X92809523Y-87702380D02*
X92238095Y-87702380D01*
X92523809Y-87702380D02*
X92523809Y-86702380D01*
X92428571Y-86845238D01*
X92333333Y-86940476D01*
X92238095Y-86988095D01*
X93380952Y-87130952D02*
X93285714Y-87083333D01*
X93238095Y-87035714D01*
X93190476Y-86940476D01*
X93190476Y-86892857D01*
X93238095Y-86797619D01*
X93285714Y-86750000D01*
X93380952Y-86702380D01*
X93571428Y-86702380D01*
X93666666Y-86750000D01*
X93714285Y-86797619D01*
X93761904Y-86892857D01*
X93761904Y-86940476D01*
X93714285Y-87035714D01*
X93666666Y-87083333D01*
X93571428Y-87130952D01*
X93380952Y-87130952D01*
X93285714Y-87178571D01*
X93238095Y-87226190D01*
X93190476Y-87321428D01*
X93190476Y-87511904D01*
X93238095Y-87607142D01*
X93285714Y-87654761D01*
X93380952Y-87702380D01*
X93571428Y-87702380D01*
X93666666Y-87654761D01*
X93714285Y-87607142D01*
X93761904Y-87511904D01*
X93761904Y-87321428D01*
X93714285Y-87226190D01*
X93666666Y-87178571D01*
X93571428Y-87130952D01*
G04 #@! TO.C,C9*
X95083333Y-75857142D02*
X95035714Y-75904761D01*
X94892857Y-75952380D01*
X94797619Y-75952380D01*
X94654761Y-75904761D01*
X94559523Y-75809523D01*
X94511904Y-75714285D01*
X94464285Y-75523809D01*
X94464285Y-75380952D01*
X94511904Y-75190476D01*
X94559523Y-75095238D01*
X94654761Y-75000000D01*
X94797619Y-74952380D01*
X94892857Y-74952380D01*
X95035714Y-75000000D01*
X95083333Y-75047619D01*
X95559523Y-75952380D02*
X95750000Y-75952380D01*
X95845238Y-75904761D01*
X95892857Y-75857142D01*
X95988095Y-75714285D01*
X96035714Y-75523809D01*
X96035714Y-75142857D01*
X95988095Y-75047619D01*
X95940476Y-75000000D01*
X95845238Y-74952380D01*
X95654761Y-74952380D01*
X95559523Y-75000000D01*
X95511904Y-75047619D01*
X95464285Y-75142857D01*
X95464285Y-75380952D01*
X95511904Y-75476190D01*
X95559523Y-75523809D01*
X95654761Y-75571428D01*
X95845238Y-75571428D01*
X95940476Y-75523809D01*
X95988095Y-75476190D01*
X96035714Y-75380952D01*
G04 #@! TO.C,C5*
X67857142Y-71416666D02*
X67904761Y-71464285D01*
X67952380Y-71607142D01*
X67952380Y-71702380D01*
X67904761Y-71845238D01*
X67809523Y-71940476D01*
X67714285Y-71988095D01*
X67523809Y-72035714D01*
X67380952Y-72035714D01*
X67190476Y-71988095D01*
X67095238Y-71940476D01*
X67000000Y-71845238D01*
X66952380Y-71702380D01*
X66952380Y-71607142D01*
X67000000Y-71464285D01*
X67047619Y-71416666D01*
X66952380Y-70511904D02*
X66952380Y-70988095D01*
X67428571Y-71035714D01*
X67380952Y-70988095D01*
X67333333Y-70892857D01*
X67333333Y-70654761D01*
X67380952Y-70559523D01*
X67428571Y-70511904D01*
X67523809Y-70464285D01*
X67761904Y-70464285D01*
X67857142Y-70511904D01*
X67904761Y-70559523D01*
X67952380Y-70654761D01*
X67952380Y-70892857D01*
X67904761Y-70988095D01*
X67857142Y-71035714D01*
G04 #@! TO.C,C12*
X72857142Y-81642857D02*
X72904761Y-81690476D01*
X72952380Y-81833333D01*
X72952380Y-81928571D01*
X72904761Y-82071428D01*
X72809523Y-82166666D01*
X72714285Y-82214285D01*
X72523809Y-82261904D01*
X72380952Y-82261904D01*
X72190476Y-82214285D01*
X72095238Y-82166666D01*
X72000000Y-82071428D01*
X71952380Y-81928571D01*
X71952380Y-81833333D01*
X72000000Y-81690476D01*
X72047619Y-81642857D01*
X72952380Y-80690476D02*
X72952380Y-81261904D01*
X72952380Y-80976190D02*
X71952380Y-80976190D01*
X72095238Y-81071428D01*
X72190476Y-81166666D01*
X72238095Y-81261904D01*
X72047619Y-80309523D02*
X72000000Y-80261904D01*
X71952380Y-80166666D01*
X71952380Y-79928571D01*
X72000000Y-79833333D01*
X72047619Y-79785714D01*
X72142857Y-79738095D01*
X72238095Y-79738095D01*
X72380952Y-79785714D01*
X72952380Y-80357142D01*
X72952380Y-79738095D01*
G04 #@! TO.C,C2*
X72857142Y-73166666D02*
X72904761Y-73214285D01*
X72952380Y-73357142D01*
X72952380Y-73452380D01*
X72904761Y-73595238D01*
X72809523Y-73690476D01*
X72714285Y-73738095D01*
X72523809Y-73785714D01*
X72380952Y-73785714D01*
X72190476Y-73738095D01*
X72095238Y-73690476D01*
X72000000Y-73595238D01*
X71952380Y-73452380D01*
X71952380Y-73357142D01*
X72000000Y-73214285D01*
X72047619Y-73166666D01*
X72047619Y-72785714D02*
X72000000Y-72738095D01*
X71952380Y-72642857D01*
X71952380Y-72404761D01*
X72000000Y-72309523D01*
X72047619Y-72261904D01*
X72142857Y-72214285D01*
X72238095Y-72214285D01*
X72380952Y-72261904D01*
X72952380Y-72833333D01*
X72952380Y-72214285D01*
G04 #@! TO.C,PS1*
X69150714Y-58072380D02*
X69150714Y-57072380D01*
X69531666Y-57072380D01*
X69626904Y-57120000D01*
X69674523Y-57167619D01*
X69722142Y-57262857D01*
X69722142Y-57405714D01*
X69674523Y-57500952D01*
X69626904Y-57548571D01*
X69531666Y-57596190D01*
X69150714Y-57596190D01*
X70103095Y-58024761D02*
X70245952Y-58072380D01*
X70484047Y-58072380D01*
X70579285Y-58024761D01*
X70626904Y-57977142D01*
X70674523Y-57881904D01*
X70674523Y-57786666D01*
X70626904Y-57691428D01*
X70579285Y-57643809D01*
X70484047Y-57596190D01*
X70293571Y-57548571D01*
X70198333Y-57500952D01*
X70150714Y-57453333D01*
X70103095Y-57358095D01*
X70103095Y-57262857D01*
X70150714Y-57167619D01*
X70198333Y-57120000D01*
X70293571Y-57072380D01*
X70531666Y-57072380D01*
X70674523Y-57120000D01*
X71626904Y-58072380D02*
X71055476Y-58072380D01*
X71341190Y-58072380D02*
X71341190Y-57072380D01*
X71245952Y-57215238D01*
X71150714Y-57310476D01*
X71055476Y-57358095D01*
G04 #@! TO.C,U1*
X68398095Y-63452380D02*
X68398095Y-64261904D01*
X68445714Y-64357142D01*
X68493333Y-64404761D01*
X68588571Y-64452380D01*
X68779047Y-64452380D01*
X68874285Y-64404761D01*
X68921904Y-64357142D01*
X68969523Y-64261904D01*
X68969523Y-63452380D01*
X69969523Y-64452380D02*
X69398095Y-64452380D01*
X69683809Y-64452380D02*
X69683809Y-63452380D01*
X69588571Y-63595238D01*
X69493333Y-63690476D01*
X69398095Y-63738095D01*
G04 #@! TO.C,P2*
D14*
X134011343Y-58952724D02*
X134011343Y-57951964D01*
X134392585Y-57951964D01*
X134487896Y-57999620D01*
X134535551Y-58047275D01*
X134583206Y-58142585D01*
X134583206Y-58285551D01*
X134535551Y-58380861D01*
X134487896Y-58428517D01*
X134392585Y-58476172D01*
X134011343Y-58476172D01*
X134964448Y-58047275D02*
X135012103Y-57999620D01*
X135107414Y-57951964D01*
X135345690Y-57951964D01*
X135441000Y-57999620D01*
X135488656Y-58047275D01*
X135536311Y-58142585D01*
X135536311Y-58237896D01*
X135488656Y-58380861D01*
X134916793Y-58952724D01*
X135536311Y-58952724D01*
G04 #@! TO.C,P1*
X125761343Y-58952724D02*
X125761343Y-57951964D01*
X126142585Y-57951964D01*
X126237896Y-57999620D01*
X126285551Y-58047275D01*
X126333206Y-58142585D01*
X126333206Y-58285551D01*
X126285551Y-58380861D01*
X126237896Y-58428517D01*
X126142585Y-58476172D01*
X125761343Y-58476172D01*
X127286311Y-58952724D02*
X126714448Y-58952724D01*
X127000380Y-58952724D02*
X127000380Y-57951964D01*
X126905069Y-58094930D01*
X126809759Y-58190240D01*
X126714448Y-58237896D01*
G04 #@! TO.C,P2*
X134011343Y-109952724D02*
X134011343Y-108951964D01*
X134392585Y-108951964D01*
X134487896Y-108999620D01*
X134535551Y-109047275D01*
X134583206Y-109142585D01*
X134583206Y-109285551D01*
X134535551Y-109380861D01*
X134487896Y-109428517D01*
X134392585Y-109476172D01*
X134011343Y-109476172D01*
X134964448Y-109047275D02*
X135012103Y-108999620D01*
X135107414Y-108951964D01*
X135345690Y-108951964D01*
X135441000Y-108999620D01*
X135488656Y-109047275D01*
X135536311Y-109142585D01*
X135536311Y-109237896D01*
X135488656Y-109380861D01*
X134916793Y-109952724D01*
X135536311Y-109952724D01*
G04 #@! TO.C,P1*
X125761343Y-109952724D02*
X125761343Y-108951964D01*
X126142585Y-108951964D01*
X126237896Y-108999620D01*
X126285551Y-109047275D01*
X126333206Y-109142585D01*
X126333206Y-109285551D01*
X126285551Y-109380861D01*
X126237896Y-109428517D01*
X126142585Y-109476172D01*
X125761343Y-109476172D01*
X127286311Y-109952724D02*
X126714448Y-109952724D01*
X127000380Y-109952724D02*
X127000380Y-108951964D01*
X126905069Y-109094930D01*
X126809759Y-109190240D01*
X126714448Y-109237896D01*
G04 #@! TO.C,PS1*
D10*
X69150714Y-109072380D02*
X69150714Y-108072380D01*
X69531666Y-108072380D01*
X69626904Y-108120000D01*
X69674523Y-108167619D01*
X69722142Y-108262857D01*
X69722142Y-108405714D01*
X69674523Y-108500952D01*
X69626904Y-108548571D01*
X69531666Y-108596190D01*
X69150714Y-108596190D01*
X70103095Y-109024761D02*
X70245952Y-109072380D01*
X70484047Y-109072380D01*
X70579285Y-109024761D01*
X70626904Y-108977142D01*
X70674523Y-108881904D01*
X70674523Y-108786666D01*
X70626904Y-108691428D01*
X70579285Y-108643809D01*
X70484047Y-108596190D01*
X70293571Y-108548571D01*
X70198333Y-108500952D01*
X70150714Y-108453333D01*
X70103095Y-108358095D01*
X70103095Y-108262857D01*
X70150714Y-108167619D01*
X70198333Y-108120000D01*
X70293571Y-108072380D01*
X70531666Y-108072380D01*
X70674523Y-108120000D01*
X71626904Y-109072380D02*
X71055476Y-109072380D01*
X71341190Y-109072380D02*
X71341190Y-108072380D01*
X71245952Y-108215238D01*
X71150714Y-108310476D01*
X71055476Y-108358095D01*
G04 #@! TO.C,C18*
X91857142Y-138607142D02*
X91809523Y-138654761D01*
X91666666Y-138702380D01*
X91571428Y-138702380D01*
X91428571Y-138654761D01*
X91333333Y-138559523D01*
X91285714Y-138464285D01*
X91238095Y-138273809D01*
X91238095Y-138130952D01*
X91285714Y-137940476D01*
X91333333Y-137845238D01*
X91428571Y-137750000D01*
X91571428Y-137702380D01*
X91666666Y-137702380D01*
X91809523Y-137750000D01*
X91857142Y-137797619D01*
X92809523Y-138702380D02*
X92238095Y-138702380D01*
X92523809Y-138702380D02*
X92523809Y-137702380D01*
X92428571Y-137845238D01*
X92333333Y-137940476D01*
X92238095Y-137988095D01*
X93380952Y-138130952D02*
X93285714Y-138083333D01*
X93238095Y-138035714D01*
X93190476Y-137940476D01*
X93190476Y-137892857D01*
X93238095Y-137797619D01*
X93285714Y-137750000D01*
X93380952Y-137702380D01*
X93571428Y-137702380D01*
X93666666Y-137750000D01*
X93714285Y-137797619D01*
X93761904Y-137892857D01*
X93761904Y-137940476D01*
X93714285Y-138035714D01*
X93666666Y-138083333D01*
X93571428Y-138130952D01*
X93380952Y-138130952D01*
X93285714Y-138178571D01*
X93238095Y-138226190D01*
X93190476Y-138321428D01*
X93190476Y-138511904D01*
X93238095Y-138607142D01*
X93285714Y-138654761D01*
X93380952Y-138702380D01*
X93571428Y-138702380D01*
X93666666Y-138654761D01*
X93714285Y-138607142D01*
X93761904Y-138511904D01*
X93761904Y-138321428D01*
X93714285Y-138226190D01*
X93666666Y-138178571D01*
X93571428Y-138130952D01*
G04 #@! TO.C,C2*
X72857142Y-124166666D02*
X72904761Y-124214285D01*
X72952380Y-124357142D01*
X72952380Y-124452380D01*
X72904761Y-124595238D01*
X72809523Y-124690476D01*
X72714285Y-124738095D01*
X72523809Y-124785714D01*
X72380952Y-124785714D01*
X72190476Y-124738095D01*
X72095238Y-124690476D01*
X72000000Y-124595238D01*
X71952380Y-124452380D01*
X71952380Y-124357142D01*
X72000000Y-124214285D01*
X72047619Y-124166666D01*
X72047619Y-123785714D02*
X72000000Y-123738095D01*
X71952380Y-123642857D01*
X71952380Y-123404761D01*
X72000000Y-123309523D01*
X72047619Y-123261904D01*
X72142857Y-123214285D01*
X72238095Y-123214285D01*
X72380952Y-123261904D01*
X72952380Y-123833333D01*
X72952380Y-123214285D01*
G04 #@! TO.C,C3*
X95333333Y-121607142D02*
X95285714Y-121654761D01*
X95142857Y-121702380D01*
X95047619Y-121702380D01*
X94904761Y-121654761D01*
X94809523Y-121559523D01*
X94761904Y-121464285D01*
X94714285Y-121273809D01*
X94714285Y-121130952D01*
X94761904Y-120940476D01*
X94809523Y-120845238D01*
X94904761Y-120750000D01*
X95047619Y-120702380D01*
X95142857Y-120702380D01*
X95285714Y-120750000D01*
X95333333Y-120797619D01*
X95666666Y-120702380D02*
X96285714Y-120702380D01*
X95952380Y-121083333D01*
X96095238Y-121083333D01*
X96190476Y-121130952D01*
X96238095Y-121178571D01*
X96285714Y-121273809D01*
X96285714Y-121511904D01*
X96238095Y-121607142D01*
X96190476Y-121654761D01*
X96095238Y-121702380D01*
X95809523Y-121702380D01*
X95714285Y-121654761D01*
X95666666Y-121607142D01*
G04 #@! TO.C,C15*
X71357142Y-136142857D02*
X71404761Y-136190476D01*
X71452380Y-136333333D01*
X71452380Y-136428571D01*
X71404761Y-136571428D01*
X71309523Y-136666666D01*
X71214285Y-136714285D01*
X71023809Y-136761904D01*
X70880952Y-136761904D01*
X70690476Y-136714285D01*
X70595238Y-136666666D01*
X70500000Y-136571428D01*
X70452380Y-136428571D01*
X70452380Y-136333333D01*
X70500000Y-136190476D01*
X70547619Y-136142857D01*
X71452380Y-135190476D02*
X71452380Y-135761904D01*
X71452380Y-135476190D02*
X70452380Y-135476190D01*
X70595238Y-135571428D01*
X70690476Y-135666666D01*
X70738095Y-135761904D01*
X70452380Y-134285714D02*
X70452380Y-134761904D01*
X70928571Y-134809523D01*
X70880952Y-134761904D01*
X70833333Y-134666666D01*
X70833333Y-134428571D01*
X70880952Y-134333333D01*
X70928571Y-134285714D01*
X71023809Y-134238095D01*
X71261904Y-134238095D01*
X71357142Y-134285714D01*
X71404761Y-134333333D01*
X71452380Y-134428571D01*
X71452380Y-134666666D01*
X71404761Y-134761904D01*
X71357142Y-134809523D01*
G04 #@! TO.C,C13*
X97107142Y-129857142D02*
X97059523Y-129904761D01*
X96916666Y-129952380D01*
X96821428Y-129952380D01*
X96678571Y-129904761D01*
X96583333Y-129809523D01*
X96535714Y-129714285D01*
X96488095Y-129523809D01*
X96488095Y-129380952D01*
X96535714Y-129190476D01*
X96583333Y-129095238D01*
X96678571Y-129000000D01*
X96821428Y-128952380D01*
X96916666Y-128952380D01*
X97059523Y-129000000D01*
X97107142Y-129047619D01*
X98059523Y-129952380D02*
X97488095Y-129952380D01*
X97773809Y-129952380D02*
X97773809Y-128952380D01*
X97678571Y-129095238D01*
X97583333Y-129190476D01*
X97488095Y-129238095D01*
X98392857Y-128952380D02*
X99011904Y-128952380D01*
X98678571Y-129333333D01*
X98821428Y-129333333D01*
X98916666Y-129380952D01*
X98964285Y-129428571D01*
X99011904Y-129523809D01*
X99011904Y-129761904D01*
X98964285Y-129857142D01*
X98916666Y-129904761D01*
X98821428Y-129952380D01*
X98535714Y-129952380D01*
X98440476Y-129904761D01*
X98392857Y-129857142D01*
G04 #@! TO.C,C14*
X94607142Y-132857142D02*
X94559523Y-132904761D01*
X94416666Y-132952380D01*
X94321428Y-132952380D01*
X94178571Y-132904761D01*
X94083333Y-132809523D01*
X94035714Y-132714285D01*
X93988095Y-132523809D01*
X93988095Y-132380952D01*
X94035714Y-132190476D01*
X94083333Y-132095238D01*
X94178571Y-132000000D01*
X94321428Y-131952380D01*
X94416666Y-131952380D01*
X94559523Y-132000000D01*
X94607142Y-132047619D01*
X95559523Y-132952380D02*
X94988095Y-132952380D01*
X95273809Y-132952380D02*
X95273809Y-131952380D01*
X95178571Y-132095238D01*
X95083333Y-132190476D01*
X94988095Y-132238095D01*
X96416666Y-132285714D02*
X96416666Y-132952380D01*
X96178571Y-131904761D02*
X95940476Y-132619047D01*
X96559523Y-132619047D01*
G04 #@! TO.C,C4*
X52083333Y-124607142D02*
X52035714Y-124654761D01*
X51892857Y-124702380D01*
X51797619Y-124702380D01*
X51654761Y-124654761D01*
X51559523Y-124559523D01*
X51511904Y-124464285D01*
X51464285Y-124273809D01*
X51464285Y-124130952D01*
X51511904Y-123940476D01*
X51559523Y-123845238D01*
X51654761Y-123750000D01*
X51797619Y-123702380D01*
X51892857Y-123702380D01*
X52035714Y-123750000D01*
X52083333Y-123797619D01*
X52940476Y-124035714D02*
X52940476Y-124702380D01*
X52702380Y-123654761D02*
X52464285Y-124369047D01*
X53083333Y-124369047D01*
G04 #@! TO.C,C12*
X72857142Y-132642857D02*
X72904761Y-132690476D01*
X72952380Y-132833333D01*
X72952380Y-132928571D01*
X72904761Y-133071428D01*
X72809523Y-133166666D01*
X72714285Y-133214285D01*
X72523809Y-133261904D01*
X72380952Y-133261904D01*
X72190476Y-133214285D01*
X72095238Y-133166666D01*
X72000000Y-133071428D01*
X71952380Y-132928571D01*
X71952380Y-132833333D01*
X72000000Y-132690476D01*
X72047619Y-132642857D01*
X72952380Y-131690476D02*
X72952380Y-132261904D01*
X72952380Y-131976190D02*
X71952380Y-131976190D01*
X72095238Y-132071428D01*
X72190476Y-132166666D01*
X72238095Y-132261904D01*
X72047619Y-131309523D02*
X72000000Y-131261904D01*
X71952380Y-131166666D01*
X71952380Y-130928571D01*
X72000000Y-130833333D01*
X72047619Y-130785714D01*
X72142857Y-130738095D01*
X72238095Y-130738095D01*
X72380952Y-130785714D01*
X72952380Y-131357142D01*
X72952380Y-130738095D01*
G04 #@! TO.C,C1*
X84583333Y-115357142D02*
X84535714Y-115404761D01*
X84392857Y-115452380D01*
X84297619Y-115452380D01*
X84154761Y-115404761D01*
X84059523Y-115309523D01*
X84011904Y-115214285D01*
X83964285Y-115023809D01*
X83964285Y-114880952D01*
X84011904Y-114690476D01*
X84059523Y-114595238D01*
X84154761Y-114500000D01*
X84297619Y-114452380D01*
X84392857Y-114452380D01*
X84535714Y-114500000D01*
X84583333Y-114547619D01*
X85535714Y-115452380D02*
X84964285Y-115452380D01*
X85250000Y-115452380D02*
X85250000Y-114452380D01*
X85154761Y-114595238D01*
X85059523Y-114690476D01*
X84964285Y-114738095D01*
G04 #@! TO.C,C5*
X67857142Y-122416666D02*
X67904761Y-122464285D01*
X67952380Y-122607142D01*
X67952380Y-122702380D01*
X67904761Y-122845238D01*
X67809523Y-122940476D01*
X67714285Y-122988095D01*
X67523809Y-123035714D01*
X67380952Y-123035714D01*
X67190476Y-122988095D01*
X67095238Y-122940476D01*
X67000000Y-122845238D01*
X66952380Y-122702380D01*
X66952380Y-122607142D01*
X67000000Y-122464285D01*
X67047619Y-122416666D01*
X66952380Y-121511904D02*
X66952380Y-121988095D01*
X67428571Y-122035714D01*
X67380952Y-121988095D01*
X67333333Y-121892857D01*
X67333333Y-121654761D01*
X67380952Y-121559523D01*
X67428571Y-121511904D01*
X67523809Y-121464285D01*
X67761904Y-121464285D01*
X67857142Y-121511904D01*
X67904761Y-121559523D01*
X67952380Y-121654761D01*
X67952380Y-121892857D01*
X67904761Y-121988095D01*
X67857142Y-122035714D01*
G04 #@! TO.C,C16*
X78107142Y-139107142D02*
X78059523Y-139154761D01*
X77916666Y-139202380D01*
X77821428Y-139202380D01*
X77678571Y-139154761D01*
X77583333Y-139059523D01*
X77535714Y-138964285D01*
X77488095Y-138773809D01*
X77488095Y-138630952D01*
X77535714Y-138440476D01*
X77583333Y-138345238D01*
X77678571Y-138250000D01*
X77821428Y-138202380D01*
X77916666Y-138202380D01*
X78059523Y-138250000D01*
X78107142Y-138297619D01*
X79059523Y-139202380D02*
X78488095Y-139202380D01*
X78773809Y-139202380D02*
X78773809Y-138202380D01*
X78678571Y-138345238D01*
X78583333Y-138440476D01*
X78488095Y-138488095D01*
X79916666Y-138202380D02*
X79726190Y-138202380D01*
X79630952Y-138250000D01*
X79583333Y-138297619D01*
X79488095Y-138440476D01*
X79440476Y-138630952D01*
X79440476Y-139011904D01*
X79488095Y-139107142D01*
X79535714Y-139154761D01*
X79630952Y-139202380D01*
X79821428Y-139202380D01*
X79916666Y-139154761D01*
X79964285Y-139107142D01*
X80011904Y-139011904D01*
X80011904Y-138773809D01*
X79964285Y-138678571D01*
X79916666Y-138630952D01*
X79821428Y-138583333D01*
X79630952Y-138583333D01*
X79535714Y-138630952D01*
X79488095Y-138678571D01*
X79440476Y-138773809D01*
G04 #@! TO.C,C19*
X80607142Y-142107142D02*
X80559523Y-142154761D01*
X80416666Y-142202380D01*
X80321428Y-142202380D01*
X80178571Y-142154761D01*
X80083333Y-142059523D01*
X80035714Y-141964285D01*
X79988095Y-141773809D01*
X79988095Y-141630952D01*
X80035714Y-141440476D01*
X80083333Y-141345238D01*
X80178571Y-141250000D01*
X80321428Y-141202380D01*
X80416666Y-141202380D01*
X80559523Y-141250000D01*
X80607142Y-141297619D01*
X81559523Y-142202380D02*
X80988095Y-142202380D01*
X81273809Y-142202380D02*
X81273809Y-141202380D01*
X81178571Y-141345238D01*
X81083333Y-141440476D01*
X80988095Y-141488095D01*
X82035714Y-142202380D02*
X82226190Y-142202380D01*
X82321428Y-142154761D01*
X82369047Y-142107142D01*
X82464285Y-141964285D01*
X82511904Y-141773809D01*
X82511904Y-141392857D01*
X82464285Y-141297619D01*
X82416666Y-141250000D01*
X82321428Y-141202380D01*
X82130952Y-141202380D01*
X82035714Y-141250000D01*
X81988095Y-141297619D01*
X81940476Y-141392857D01*
X81940476Y-141630952D01*
X81988095Y-141726190D01*
X82035714Y-141773809D01*
X82130952Y-141821428D01*
X82321428Y-141821428D01*
X82416666Y-141773809D01*
X82464285Y-141726190D01*
X82511904Y-141630952D01*
G04 #@! TO.C,C20*
X84607142Y-142107142D02*
X84559523Y-142154761D01*
X84416666Y-142202380D01*
X84321428Y-142202380D01*
X84178571Y-142154761D01*
X84083333Y-142059523D01*
X84035714Y-141964285D01*
X83988095Y-141773809D01*
X83988095Y-141630952D01*
X84035714Y-141440476D01*
X84083333Y-141345238D01*
X84178571Y-141250000D01*
X84321428Y-141202380D01*
X84416666Y-141202380D01*
X84559523Y-141250000D01*
X84607142Y-141297619D01*
X84988095Y-141297619D02*
X85035714Y-141250000D01*
X85130952Y-141202380D01*
X85369047Y-141202380D01*
X85464285Y-141250000D01*
X85511904Y-141297619D01*
X85559523Y-141392857D01*
X85559523Y-141488095D01*
X85511904Y-141630952D01*
X84940476Y-142202380D01*
X85559523Y-142202380D01*
X86178571Y-141202380D02*
X86273809Y-141202380D01*
X86369047Y-141250000D01*
X86416666Y-141297619D01*
X86464285Y-141392857D01*
X86511904Y-141583333D01*
X86511904Y-141821428D01*
X86464285Y-142011904D01*
X86416666Y-142107142D01*
X86369047Y-142154761D01*
X86273809Y-142202380D01*
X86178571Y-142202380D01*
X86083333Y-142154761D01*
X86035714Y-142107142D01*
X85988095Y-142011904D01*
X85940476Y-141821428D01*
X85940476Y-141583333D01*
X85988095Y-141392857D01*
X86035714Y-141297619D01*
X86083333Y-141250000D01*
X86178571Y-141202380D01*
G04 #@! TO.C,C17*
X87107142Y-140107142D02*
X87059523Y-140154761D01*
X86916666Y-140202380D01*
X86821428Y-140202380D01*
X86678571Y-140154761D01*
X86583333Y-140059523D01*
X86535714Y-139964285D01*
X86488095Y-139773809D01*
X86488095Y-139630952D01*
X86535714Y-139440476D01*
X86583333Y-139345238D01*
X86678571Y-139250000D01*
X86821428Y-139202380D01*
X86916666Y-139202380D01*
X87059523Y-139250000D01*
X87107142Y-139297619D01*
X88059523Y-140202380D02*
X87488095Y-140202380D01*
X87773809Y-140202380D02*
X87773809Y-139202380D01*
X87678571Y-139345238D01*
X87583333Y-139440476D01*
X87488095Y-139488095D01*
X88392857Y-139202380D02*
X89059523Y-139202380D01*
X88630952Y-140202380D01*
G04 #@! TO.C,C11*
X71357142Y-126392857D02*
X71404761Y-126440476D01*
X71452380Y-126583333D01*
X71452380Y-126678571D01*
X71404761Y-126821428D01*
X71309523Y-126916666D01*
X71214285Y-126964285D01*
X71023809Y-127011904D01*
X70880952Y-127011904D01*
X70690476Y-126964285D01*
X70595238Y-126916666D01*
X70500000Y-126821428D01*
X70452380Y-126678571D01*
X70452380Y-126583333D01*
X70500000Y-126440476D01*
X70547619Y-126392857D01*
X71452380Y-125440476D02*
X71452380Y-126011904D01*
X71452380Y-125726190D02*
X70452380Y-125726190D01*
X70595238Y-125821428D01*
X70690476Y-125916666D01*
X70738095Y-126011904D01*
X71452380Y-124488095D02*
X71452380Y-125059523D01*
X71452380Y-124773809D02*
X70452380Y-124773809D01*
X70595238Y-124869047D01*
X70690476Y-124964285D01*
X70738095Y-125059523D01*
G04 #@! TO.C,C10*
X69857142Y-132142857D02*
X69904761Y-132190476D01*
X69952380Y-132333333D01*
X69952380Y-132428571D01*
X69904761Y-132571428D01*
X69809523Y-132666666D01*
X69714285Y-132714285D01*
X69523809Y-132761904D01*
X69380952Y-132761904D01*
X69190476Y-132714285D01*
X69095238Y-132666666D01*
X69000000Y-132571428D01*
X68952380Y-132428571D01*
X68952380Y-132333333D01*
X69000000Y-132190476D01*
X69047619Y-132142857D01*
X69952380Y-131190476D02*
X69952380Y-131761904D01*
X69952380Y-131476190D02*
X68952380Y-131476190D01*
X69095238Y-131571428D01*
X69190476Y-131666666D01*
X69238095Y-131761904D01*
X68952380Y-130571428D02*
X68952380Y-130476190D01*
X69000000Y-130380952D01*
X69047619Y-130333333D01*
X69142857Y-130285714D01*
X69333333Y-130238095D01*
X69571428Y-130238095D01*
X69761904Y-130285714D01*
X69857142Y-130333333D01*
X69904761Y-130380952D01*
X69952380Y-130476190D01*
X69952380Y-130571428D01*
X69904761Y-130666666D01*
X69857142Y-130714285D01*
X69761904Y-130761904D01*
X69571428Y-130809523D01*
X69333333Y-130809523D01*
X69142857Y-130761904D01*
X69047619Y-130714285D01*
X69000000Y-130666666D01*
X68952380Y-130571428D01*
G04 #@! TO.C,C9*
X95083333Y-126857142D02*
X95035714Y-126904761D01*
X94892857Y-126952380D01*
X94797619Y-126952380D01*
X94654761Y-126904761D01*
X94559523Y-126809523D01*
X94511904Y-126714285D01*
X94464285Y-126523809D01*
X94464285Y-126380952D01*
X94511904Y-126190476D01*
X94559523Y-126095238D01*
X94654761Y-126000000D01*
X94797619Y-125952380D01*
X94892857Y-125952380D01*
X95035714Y-126000000D01*
X95083333Y-126047619D01*
X95559523Y-126952380D02*
X95750000Y-126952380D01*
X95845238Y-126904761D01*
X95892857Y-126857142D01*
X95988095Y-126714285D01*
X96035714Y-126523809D01*
X96035714Y-126142857D01*
X95988095Y-126047619D01*
X95940476Y-126000000D01*
X95845238Y-125952380D01*
X95654761Y-125952380D01*
X95559523Y-126000000D01*
X95511904Y-126047619D01*
X95464285Y-126142857D01*
X95464285Y-126380952D01*
X95511904Y-126476190D01*
X95559523Y-126523809D01*
X95654761Y-126571428D01*
X95845238Y-126571428D01*
X95940476Y-126523809D01*
X95988095Y-126476190D01*
X96035714Y-126380952D01*
G04 #@! TO.C,C7*
X57857142Y-123416666D02*
X57904761Y-123464285D01*
X57952380Y-123607142D01*
X57952380Y-123702380D01*
X57904761Y-123845238D01*
X57809523Y-123940476D01*
X57714285Y-123988095D01*
X57523809Y-124035714D01*
X57380952Y-124035714D01*
X57190476Y-123988095D01*
X57095238Y-123940476D01*
X57000000Y-123845238D01*
X56952380Y-123702380D01*
X56952380Y-123607142D01*
X57000000Y-123464285D01*
X57047619Y-123416666D01*
X56952380Y-123083333D02*
X56952380Y-122416666D01*
X57952380Y-122845238D01*
G04 #@! TO.C,C8*
X59357142Y-123416666D02*
X59404761Y-123464285D01*
X59452380Y-123607142D01*
X59452380Y-123702380D01*
X59404761Y-123845238D01*
X59309523Y-123940476D01*
X59214285Y-123988095D01*
X59023809Y-124035714D01*
X58880952Y-124035714D01*
X58690476Y-123988095D01*
X58595238Y-123940476D01*
X58500000Y-123845238D01*
X58452380Y-123702380D01*
X58452380Y-123607142D01*
X58500000Y-123464285D01*
X58547619Y-123416666D01*
X58880952Y-122845238D02*
X58833333Y-122940476D01*
X58785714Y-122988095D01*
X58690476Y-123035714D01*
X58642857Y-123035714D01*
X58547619Y-122988095D01*
X58500000Y-122940476D01*
X58452380Y-122845238D01*
X58452380Y-122654761D01*
X58500000Y-122559523D01*
X58547619Y-122511904D01*
X58642857Y-122464285D01*
X58690476Y-122464285D01*
X58785714Y-122511904D01*
X58833333Y-122559523D01*
X58880952Y-122654761D01*
X58880952Y-122845238D01*
X58928571Y-122940476D01*
X58976190Y-122988095D01*
X59071428Y-123035714D01*
X59261904Y-123035714D01*
X59357142Y-122988095D01*
X59404761Y-122940476D01*
X59452380Y-122845238D01*
X59452380Y-122654761D01*
X59404761Y-122559523D01*
X59357142Y-122511904D01*
X59261904Y-122464285D01*
X59071428Y-122464285D01*
X58976190Y-122511904D01*
X58928571Y-122559523D01*
X58880952Y-122654761D01*
G04 #@! TO.C,C6*
X56357142Y-128166666D02*
X56404761Y-128214285D01*
X56452380Y-128357142D01*
X56452380Y-128452380D01*
X56404761Y-128595238D01*
X56309523Y-128690476D01*
X56214285Y-128738095D01*
X56023809Y-128785714D01*
X55880952Y-128785714D01*
X55690476Y-128738095D01*
X55595238Y-128690476D01*
X55500000Y-128595238D01*
X55452380Y-128452380D01*
X55452380Y-128357142D01*
X55500000Y-128214285D01*
X55547619Y-128166666D01*
X55452380Y-127309523D02*
X55452380Y-127500000D01*
X55500000Y-127595238D01*
X55547619Y-127642857D01*
X55690476Y-127738095D01*
X55880952Y-127785714D01*
X56261904Y-127785714D01*
X56357142Y-127738095D01*
X56404761Y-127690476D01*
X56452380Y-127595238D01*
X56452380Y-127404761D01*
X56404761Y-127309523D01*
X56357142Y-127261904D01*
X56261904Y-127214285D01*
X56023809Y-127214285D01*
X55928571Y-127261904D01*
X55880952Y-127309523D01*
X55833333Y-127404761D01*
X55833333Y-127595238D01*
X55880952Y-127690476D01*
X55928571Y-127738095D01*
X56023809Y-127785714D01*
G04 #@! TO.C,D1*
X62511904Y-126952380D02*
X62511904Y-125952380D01*
X62750000Y-125952380D01*
X62892857Y-126000000D01*
X62988095Y-126095238D01*
X63035714Y-126190476D01*
X63083333Y-126380952D01*
X63083333Y-126523809D01*
X63035714Y-126714285D01*
X62988095Y-126809523D01*
X62892857Y-126904761D01*
X62750000Y-126952380D01*
X62511904Y-126952380D01*
X64035714Y-126952380D02*
X63464285Y-126952380D01*
X63750000Y-126952380D02*
X63750000Y-125952380D01*
X63654761Y-126095238D01*
X63559523Y-126190476D01*
X63464285Y-126238095D01*
G04 #@! TO.C,J1*
X52641666Y-135677380D02*
X52641666Y-136391666D01*
X52594047Y-136534523D01*
X52498809Y-136629761D01*
X52355952Y-136677380D01*
X52260714Y-136677380D01*
X53641666Y-136677380D02*
X53070238Y-136677380D01*
X53355952Y-136677380D02*
X53355952Y-135677380D01*
X53260714Y-135820238D01*
X53165476Y-135915476D01*
X53070238Y-135963095D01*
G04 #@! TO.C,KP1*
X72011904Y-110202380D02*
X72011904Y-109202380D01*
X72583333Y-110202380D02*
X72154761Y-109630952D01*
X72583333Y-109202380D02*
X72011904Y-109773809D01*
X73011904Y-110202380D02*
X73011904Y-109202380D01*
X73392857Y-109202380D01*
X73488095Y-109250000D01*
X73535714Y-109297619D01*
X73583333Y-109392857D01*
X73583333Y-109535714D01*
X73535714Y-109630952D01*
X73488095Y-109678571D01*
X73392857Y-109726190D01*
X73011904Y-109726190D01*
X74535714Y-110202380D02*
X73964285Y-110202380D01*
X74250000Y-110202380D02*
X74250000Y-109202380D01*
X74154761Y-109345238D01*
X74059523Y-109440476D01*
X73964285Y-109488095D01*
G04 #@! TO.C,R4*
X84583333Y-117202380D02*
X84250000Y-116726190D01*
X84011904Y-117202380D02*
X84011904Y-116202380D01*
X84392857Y-116202380D01*
X84488095Y-116250000D01*
X84535714Y-116297619D01*
X84583333Y-116392857D01*
X84583333Y-116535714D01*
X84535714Y-116630952D01*
X84488095Y-116678571D01*
X84392857Y-116726190D01*
X84011904Y-116726190D01*
X85440476Y-116535714D02*
X85440476Y-117202380D01*
X85202380Y-116154761D02*
X84964285Y-116869047D01*
X85583333Y-116869047D01*
G04 #@! TO.C,R1*
X76333333Y-115702380D02*
X76000000Y-115226190D01*
X75761904Y-115702380D02*
X75761904Y-114702380D01*
X76142857Y-114702380D01*
X76238095Y-114750000D01*
X76285714Y-114797619D01*
X76333333Y-114892857D01*
X76333333Y-115035714D01*
X76285714Y-115130952D01*
X76238095Y-115178571D01*
X76142857Y-115226190D01*
X75761904Y-115226190D01*
X77285714Y-115702380D02*
X76714285Y-115702380D01*
X77000000Y-115702380D02*
X77000000Y-114702380D01*
X76904761Y-114845238D01*
X76809523Y-114940476D01*
X76714285Y-114988095D01*
G04 #@! TO.C,R2*
X72583333Y-116452380D02*
X72250000Y-115976190D01*
X72011904Y-116452380D02*
X72011904Y-115452380D01*
X72392857Y-115452380D01*
X72488095Y-115500000D01*
X72535714Y-115547619D01*
X72583333Y-115642857D01*
X72583333Y-115785714D01*
X72535714Y-115880952D01*
X72488095Y-115928571D01*
X72392857Y-115976190D01*
X72011904Y-115976190D01*
X72964285Y-115547619D02*
X73011904Y-115500000D01*
X73107142Y-115452380D01*
X73345238Y-115452380D01*
X73440476Y-115500000D01*
X73488095Y-115547619D01*
X73535714Y-115642857D01*
X73535714Y-115738095D01*
X73488095Y-115880952D01*
X72916666Y-116452380D01*
X73535714Y-116452380D01*
G04 #@! TO.C,R3*
X76333333Y-117452380D02*
X76000000Y-116976190D01*
X75761904Y-117452380D02*
X75761904Y-116452380D01*
X76142857Y-116452380D01*
X76238095Y-116500000D01*
X76285714Y-116547619D01*
X76333333Y-116642857D01*
X76333333Y-116785714D01*
X76285714Y-116880952D01*
X76238095Y-116928571D01*
X76142857Y-116976190D01*
X75761904Y-116976190D01*
X76666666Y-116452380D02*
X77285714Y-116452380D01*
X76952380Y-116833333D01*
X77095238Y-116833333D01*
X77190476Y-116880952D01*
X77238095Y-116928571D01*
X77285714Y-117023809D01*
X77285714Y-117261904D01*
X77238095Y-117357142D01*
X77190476Y-117404761D01*
X77095238Y-117452380D01*
X76809523Y-117452380D01*
X76714285Y-117404761D01*
X76666666Y-117357142D01*
G04 #@! TO.C,R5*
X72583333Y-118202380D02*
X72250000Y-117726190D01*
X72011904Y-118202380D02*
X72011904Y-117202380D01*
X72392857Y-117202380D01*
X72488095Y-117250000D01*
X72535714Y-117297619D01*
X72583333Y-117392857D01*
X72583333Y-117535714D01*
X72535714Y-117630952D01*
X72488095Y-117678571D01*
X72392857Y-117726190D01*
X72011904Y-117726190D01*
X73488095Y-117202380D02*
X73011904Y-117202380D01*
X72964285Y-117678571D01*
X73011904Y-117630952D01*
X73107142Y-117583333D01*
X73345238Y-117583333D01*
X73440476Y-117630952D01*
X73488095Y-117678571D01*
X73535714Y-117773809D01*
X73535714Y-118011904D01*
X73488095Y-118107142D01*
X73440476Y-118154761D01*
X73345238Y-118202380D01*
X73107142Y-118202380D01*
X73011904Y-118154761D01*
X72964285Y-118107142D01*
G04 #@! TO.C,R7*
X62333333Y-131202380D02*
X62000000Y-130726190D01*
X61761904Y-131202380D02*
X61761904Y-130202380D01*
X62142857Y-130202380D01*
X62238095Y-130250000D01*
X62285714Y-130297619D01*
X62333333Y-130392857D01*
X62333333Y-130535714D01*
X62285714Y-130630952D01*
X62238095Y-130678571D01*
X62142857Y-130726190D01*
X61761904Y-130726190D01*
X62666666Y-130202380D02*
X63333333Y-130202380D01*
X62904761Y-131202380D01*
G04 #@! TO.C,R6*
X62333333Y-128952380D02*
X62000000Y-128476190D01*
X61761904Y-128952380D02*
X61761904Y-127952380D01*
X62142857Y-127952380D01*
X62238095Y-128000000D01*
X62285714Y-128047619D01*
X62333333Y-128142857D01*
X62333333Y-128285714D01*
X62285714Y-128380952D01*
X62238095Y-128428571D01*
X62142857Y-128476190D01*
X61761904Y-128476190D01*
X63190476Y-127952380D02*
X63000000Y-127952380D01*
X62904761Y-128000000D01*
X62857142Y-128047619D01*
X62761904Y-128190476D01*
X62714285Y-128380952D01*
X62714285Y-128761904D01*
X62761904Y-128857142D01*
X62809523Y-128904761D01*
X62904761Y-128952380D01*
X63095238Y-128952380D01*
X63190476Y-128904761D01*
X63238095Y-128857142D01*
X63285714Y-128761904D01*
X63285714Y-128523809D01*
X63238095Y-128428571D01*
X63190476Y-128380952D01*
X63095238Y-128333333D01*
X62904761Y-128333333D01*
X62809523Y-128380952D01*
X62761904Y-128428571D01*
X62714285Y-128523809D01*
G04 #@! TO.C,U2*
X89085714Y-117592857D02*
X89085714Y-118564285D01*
X89142857Y-118678571D01*
X89200000Y-118735714D01*
X89314285Y-118792857D01*
X89542857Y-118792857D01*
X89657142Y-118735714D01*
X89714285Y-118678571D01*
X89771428Y-118564285D01*
X89771428Y-117592857D01*
X90285714Y-117707142D02*
X90342857Y-117650000D01*
X90457142Y-117592857D01*
X90742857Y-117592857D01*
X90857142Y-117650000D01*
X90914285Y-117707142D01*
X90971428Y-117821428D01*
X90971428Y-117935714D01*
X90914285Y-118107142D01*
X90228571Y-118792857D01*
X90971428Y-118792857D01*
G04 #@! TO.C,P4*
D14*
X101011343Y-143452724D02*
X101011343Y-142451964D01*
X101392585Y-142451964D01*
X101487896Y-142499620D01*
X101535551Y-142547275D01*
X101583206Y-142642585D01*
X101583206Y-142785551D01*
X101535551Y-142880861D01*
X101487896Y-142928517D01*
X101392585Y-142976172D01*
X101011343Y-142976172D01*
X102441000Y-142785551D02*
X102441000Y-143452724D01*
X102202724Y-142404309D02*
X101964448Y-143119138D01*
X102583966Y-143119138D01*
G04 #@! TO.C,P3*
X56261343Y-143452724D02*
X56261343Y-142451964D01*
X56642585Y-142451964D01*
X56737896Y-142499620D01*
X56785551Y-142547275D01*
X56833206Y-142642585D01*
X56833206Y-142785551D01*
X56785551Y-142880861D01*
X56737896Y-142928517D01*
X56642585Y-142976172D01*
X56261343Y-142976172D01*
X57166793Y-142451964D02*
X57786311Y-142451964D01*
X57452724Y-142833206D01*
X57595690Y-142833206D01*
X57691000Y-142880861D01*
X57738656Y-142928517D01*
X57786311Y-143023827D01*
X57786311Y-143262103D01*
X57738656Y-143357414D01*
X57691000Y-143405069D01*
X57595690Y-143452724D01*
X57309759Y-143452724D01*
X57214448Y-143405069D01*
X57166793Y-143357414D01*
G04 #@! TO.C,P5*
X115761343Y-143452724D02*
X115761343Y-142451964D01*
X116142585Y-142451964D01*
X116237896Y-142499620D01*
X116285551Y-142547275D01*
X116333206Y-142642585D01*
X116333206Y-142785551D01*
X116285551Y-142880861D01*
X116237896Y-142928517D01*
X116142585Y-142976172D01*
X115761343Y-142976172D01*
X117238656Y-142451964D02*
X116762103Y-142451964D01*
X116714448Y-142928517D01*
X116762103Y-142880861D01*
X116857414Y-142833206D01*
X117095690Y-142833206D01*
X117191000Y-142880861D01*
X117238656Y-142928517D01*
X117286311Y-143023827D01*
X117286311Y-143262103D01*
X117238656Y-143357414D01*
X117191000Y-143405069D01*
X117095690Y-143452724D01*
X116857414Y-143452724D01*
X116762103Y-143405069D01*
X116714448Y-143357414D01*
G04 #@! TO.C,PS2*
D10*
X116150714Y-109072380D02*
X116150714Y-108072380D01*
X116531666Y-108072380D01*
X116626904Y-108120000D01*
X116674523Y-108167619D01*
X116722142Y-108262857D01*
X116722142Y-108405714D01*
X116674523Y-108500952D01*
X116626904Y-108548571D01*
X116531666Y-108596190D01*
X116150714Y-108596190D01*
X117103095Y-109024761D02*
X117245952Y-109072380D01*
X117484047Y-109072380D01*
X117579285Y-109024761D01*
X117626904Y-108977142D01*
X117674523Y-108881904D01*
X117674523Y-108786666D01*
X117626904Y-108691428D01*
X117579285Y-108643809D01*
X117484047Y-108596190D01*
X117293571Y-108548571D01*
X117198333Y-108500952D01*
X117150714Y-108453333D01*
X117103095Y-108358095D01*
X117103095Y-108262857D01*
X117150714Y-108167619D01*
X117198333Y-108120000D01*
X117293571Y-108072380D01*
X117531666Y-108072380D01*
X117674523Y-108120000D01*
X118055476Y-108167619D02*
X118103095Y-108120000D01*
X118198333Y-108072380D01*
X118436428Y-108072380D01*
X118531666Y-108120000D01*
X118579285Y-108167619D01*
X118626904Y-108262857D01*
X118626904Y-108358095D01*
X118579285Y-108500952D01*
X118007857Y-109072380D01*
X118626904Y-109072380D01*
G04 #@! TO.C,U1*
X68398095Y-114452380D02*
X68398095Y-115261904D01*
X68445714Y-115357142D01*
X68493333Y-115404761D01*
X68588571Y-115452380D01*
X68779047Y-115452380D01*
X68874285Y-115404761D01*
X68921904Y-115357142D01*
X68969523Y-115261904D01*
X68969523Y-114452380D01*
X69969523Y-115452380D02*
X69398095Y-115452380D01*
X69683809Y-115452380D02*
X69683809Y-114452380D01*
X69588571Y-114595238D01*
X69493333Y-114690476D01*
X69398095Y-114738095D01*
G04 #@! TD*
M02*
