G04 #@! TF.FileFunction,Legend,Top*
%FSLAX46Y46*%
G04 Gerber Fmt 4.6, Leading zero omitted, Abs format (unit mm)*
G04 Created by KiCad (PCBNEW 4.0.2+dfsg1-2~bpo8+1-stable) date Wed 06 Apr 2016 09:14:05 AM EDT*
%MOMM*%
G01*
G04 APERTURE LIST*
%ADD10C,0.100000*%
%ADD11C,0.200000*%
%ADD12C,0.300000*%
%ADD13C,0.150000*%
%ADD14C,0.010000*%
%ADD15R,2.127200X2.432000*%
%ADD16O,2.127200X2.432000*%
%ADD17C,8.655000*%
%ADD18C,2.398980*%
%ADD19R,2.400000X2.400000*%
%ADD20C,2.400000*%
%ADD21R,2.432000X2.127200*%
%ADD22O,2.432000X2.127200*%
%ADD23C,1.797000*%
G04 APERTURE END LIST*
D10*
D11*
X138790000Y-106460000D02*
X138790000Y-101380000D01*
X131170000Y-101380000D02*
X131170000Y-106460000D01*
D12*
X133357143Y-104178571D02*
X133357143Y-105392857D01*
X133428571Y-105535714D01*
X133500000Y-105607143D01*
X133642857Y-105678571D01*
X133928571Y-105678571D01*
X134071429Y-105607143D01*
X134142857Y-105535714D01*
X134214286Y-105392857D01*
X134214286Y-104178571D01*
X134857143Y-105607143D02*
X135071429Y-105678571D01*
X135428572Y-105678571D01*
X135571429Y-105607143D01*
X135642858Y-105535714D01*
X135714286Y-105392857D01*
X135714286Y-105250000D01*
X135642858Y-105107143D01*
X135571429Y-105035714D01*
X135428572Y-104964286D01*
X135142858Y-104892857D01*
X135000000Y-104821429D01*
X134928572Y-104750000D01*
X134857143Y-104607143D01*
X134857143Y-104464286D01*
X134928572Y-104321429D01*
X135000000Y-104250000D01*
X135142858Y-104178571D01*
X135500000Y-104178571D01*
X135714286Y-104250000D01*
X136857143Y-104892857D02*
X137071429Y-104964286D01*
X137142857Y-105035714D01*
X137214286Y-105178571D01*
X137214286Y-105392857D01*
X137142857Y-105535714D01*
X137071429Y-105607143D01*
X136928571Y-105678571D01*
X136357143Y-105678571D01*
X136357143Y-104178571D01*
X136857143Y-104178571D01*
X137000000Y-104250000D01*
X137071429Y-104321429D01*
X137142857Y-104464286D01*
X137142857Y-104607143D01*
X137071429Y-104750000D01*
X137000000Y-104821429D01*
X136857143Y-104892857D01*
X136357143Y-104892857D01*
D11*
X131170000Y-106460000D02*
X138790000Y-106460000D01*
X138790000Y-101380000D02*
X131170000Y-101380000D01*
D13*
X128730000Y-91730000D02*
X65230000Y-91730000D01*
X65230000Y-91730000D02*
X65230000Y-94270000D01*
X65230000Y-94270000D02*
X128730000Y-94270000D01*
X131550000Y-94550000D02*
X130000000Y-94550000D01*
X128730000Y-94270000D02*
X128730000Y-91730000D01*
X130000000Y-91450000D02*
X131550000Y-91450000D01*
X131550000Y-91450000D02*
X131550000Y-94550000D01*
X128730000Y-112050000D02*
X65230000Y-112050000D01*
X65230000Y-112050000D02*
X65230000Y-114590000D01*
X65230000Y-114590000D02*
X128730000Y-114590000D01*
X131550000Y-114870000D02*
X130000000Y-114870000D01*
X128730000Y-114590000D02*
X128730000Y-112050000D01*
X130000000Y-111770000D02*
X131550000Y-111770000D01*
X131550000Y-111770000D02*
X131550000Y-114870000D01*
X121460000Y-107730000D02*
X126540000Y-107730000D01*
X126540000Y-107730000D02*
X126540000Y-110270000D01*
X126540000Y-110270000D02*
X121460000Y-110270000D01*
X121460000Y-110270000D02*
X121460000Y-107730000D01*
X121460000Y-109000000D02*
X120190000Y-109000000D01*
X126540000Y-109000000D02*
X127810000Y-109000000D01*
X121460000Y-104730000D02*
X126540000Y-104730000D01*
X126540000Y-104730000D02*
X126540000Y-107270000D01*
X126540000Y-107270000D02*
X121460000Y-107270000D01*
X121460000Y-107270000D02*
X121460000Y-104730000D01*
X121460000Y-106000000D02*
X120190000Y-106000000D01*
X126540000Y-106000000D02*
X127810000Y-106000000D01*
X103960000Y-108230000D02*
X109040000Y-108230000D01*
X109040000Y-108230000D02*
X109040000Y-110770000D01*
X109040000Y-110770000D02*
X103960000Y-110770000D01*
X103960000Y-110770000D02*
X103960000Y-108230000D01*
X103960000Y-109500000D02*
X102690000Y-109500000D01*
X109040000Y-109500000D02*
X110310000Y-109500000D01*
X103960000Y-105230000D02*
X109040000Y-105230000D01*
X109040000Y-105230000D02*
X109040000Y-107770000D01*
X109040000Y-107770000D02*
X103960000Y-107770000D01*
X103960000Y-107770000D02*
X103960000Y-105230000D01*
X103960000Y-106500000D02*
X102690000Y-106500000D01*
X109040000Y-106500000D02*
X110310000Y-106500000D01*
X104460000Y-99730000D02*
X109540000Y-99730000D01*
X109540000Y-99730000D02*
X109540000Y-102270000D01*
X109540000Y-102270000D02*
X104460000Y-102270000D01*
X104460000Y-102270000D02*
X104460000Y-99730000D01*
X104460000Y-101000000D02*
X103190000Y-101000000D01*
X109540000Y-101000000D02*
X110810000Y-101000000D01*
X104460000Y-96730000D02*
X109540000Y-96730000D01*
X109540000Y-96730000D02*
X109540000Y-99270000D01*
X109540000Y-99270000D02*
X104460000Y-99270000D01*
X104460000Y-99270000D02*
X104460000Y-96730000D01*
X104460000Y-98000000D02*
X103190000Y-98000000D01*
X109540000Y-98000000D02*
X110810000Y-98000000D01*
X121460000Y-98730000D02*
X126540000Y-98730000D01*
X126540000Y-98730000D02*
X126540000Y-101270000D01*
X126540000Y-101270000D02*
X121460000Y-101270000D01*
X121460000Y-101270000D02*
X121460000Y-98730000D01*
X121460000Y-100000000D02*
X120190000Y-100000000D01*
X126540000Y-100000000D02*
X127810000Y-100000000D01*
X121460000Y-95730000D02*
X126540000Y-95730000D01*
X126540000Y-95730000D02*
X126540000Y-98270000D01*
X126540000Y-98270000D02*
X121460000Y-98270000D01*
X121460000Y-98270000D02*
X121460000Y-95730000D01*
X121460000Y-97000000D02*
X120190000Y-97000000D01*
X126540000Y-97000000D02*
X127810000Y-97000000D01*
X66540000Y-122270000D02*
X61460000Y-122270000D01*
X61460000Y-122270000D02*
X61460000Y-119730000D01*
X61460000Y-119730000D02*
X66540000Y-119730000D01*
X66540000Y-119730000D02*
X66540000Y-122270000D01*
X66540000Y-121000000D02*
X67810000Y-121000000D01*
X61460000Y-121000000D02*
X60190000Y-121000000D01*
X67540000Y-103270000D02*
X62460000Y-103270000D01*
X62460000Y-103270000D02*
X62460000Y-100730000D01*
X62460000Y-100730000D02*
X67540000Y-100730000D01*
X67540000Y-100730000D02*
X67540000Y-103270000D01*
X67540000Y-102000000D02*
X68810000Y-102000000D01*
X62460000Y-102000000D02*
X61190000Y-102000000D01*
X66540000Y-79270000D02*
X61460000Y-79270000D01*
X61460000Y-79270000D02*
X61460000Y-76730000D01*
X61460000Y-76730000D02*
X66540000Y-76730000D01*
X66540000Y-76730000D02*
X66540000Y-79270000D01*
X66540000Y-78000000D02*
X67810000Y-78000000D01*
X61460000Y-78000000D02*
X60190000Y-78000000D01*
X86540000Y-79270000D02*
X81460000Y-79270000D01*
X81460000Y-79270000D02*
X81460000Y-76730000D01*
X81460000Y-76730000D02*
X86540000Y-76730000D01*
X86540000Y-76730000D02*
X86540000Y-79270000D01*
X86540000Y-78000000D02*
X87810000Y-78000000D01*
X81460000Y-78000000D02*
X80190000Y-78000000D01*
X66540000Y-125270000D02*
X61460000Y-125270000D01*
X61460000Y-125270000D02*
X61460000Y-122730000D01*
X61460000Y-122730000D02*
X66540000Y-122730000D01*
X66540000Y-122730000D02*
X66540000Y-125270000D01*
X66540000Y-124000000D02*
X67810000Y-124000000D01*
X61460000Y-124000000D02*
X60190000Y-124000000D01*
X67540000Y-106270000D02*
X62460000Y-106270000D01*
X62460000Y-106270000D02*
X62460000Y-103730000D01*
X62460000Y-103730000D02*
X67540000Y-103730000D01*
X67540000Y-103730000D02*
X67540000Y-106270000D01*
X67540000Y-105000000D02*
X68810000Y-105000000D01*
X62460000Y-105000000D02*
X61190000Y-105000000D01*
X66540000Y-82270000D02*
X61460000Y-82270000D01*
X61460000Y-82270000D02*
X61460000Y-79730000D01*
X61460000Y-79730000D02*
X66540000Y-79730000D01*
X66540000Y-79730000D02*
X66540000Y-82270000D01*
X66540000Y-81000000D02*
X67810000Y-81000000D01*
X61460000Y-81000000D02*
X60190000Y-81000000D01*
X86540000Y-82270000D02*
X81460000Y-82270000D01*
X81460000Y-82270000D02*
X81460000Y-79730000D01*
X81460000Y-79730000D02*
X86540000Y-79730000D01*
X86540000Y-79730000D02*
X86540000Y-82270000D01*
X86540000Y-81000000D02*
X87810000Y-81000000D01*
X81460000Y-81000000D02*
X80190000Y-81000000D01*
X66540000Y-128270000D02*
X61460000Y-128270000D01*
X61460000Y-128270000D02*
X61460000Y-125730000D01*
X61460000Y-125730000D02*
X66540000Y-125730000D01*
X66540000Y-125730000D02*
X66540000Y-128270000D01*
X66540000Y-127000000D02*
X67810000Y-127000000D01*
X61460000Y-127000000D02*
X60190000Y-127000000D01*
X67540000Y-109270000D02*
X62460000Y-109270000D01*
X62460000Y-109270000D02*
X62460000Y-106730000D01*
X62460000Y-106730000D02*
X67540000Y-106730000D01*
X67540000Y-106730000D02*
X67540000Y-109270000D01*
X67540000Y-108000000D02*
X68810000Y-108000000D01*
X62460000Y-108000000D02*
X61190000Y-108000000D01*
X66540000Y-85270000D02*
X61460000Y-85270000D01*
X61460000Y-85270000D02*
X61460000Y-82730000D01*
X61460000Y-82730000D02*
X66540000Y-82730000D01*
X66540000Y-82730000D02*
X66540000Y-85270000D01*
X66540000Y-84000000D02*
X67810000Y-84000000D01*
X61460000Y-84000000D02*
X60190000Y-84000000D01*
X69540000Y-72270000D02*
X64460000Y-72270000D01*
X64460000Y-72270000D02*
X64460000Y-69730000D01*
X64460000Y-69730000D02*
X69540000Y-69730000D01*
X69540000Y-69730000D02*
X69540000Y-72270000D01*
X69540000Y-71000000D02*
X70810000Y-71000000D01*
X64460000Y-71000000D02*
X63190000Y-71000000D01*
X86540000Y-70270000D02*
X81460000Y-70270000D01*
X81460000Y-70270000D02*
X81460000Y-67730000D01*
X81460000Y-67730000D02*
X86540000Y-67730000D01*
X86540000Y-67730000D02*
X86540000Y-70270000D01*
X86540000Y-69000000D02*
X87810000Y-69000000D01*
X81460000Y-69000000D02*
X80190000Y-69000000D01*
X120730000Y-75540000D02*
X120730000Y-70460000D01*
X120730000Y-70460000D02*
X123270000Y-70460000D01*
X123270000Y-70460000D02*
X123270000Y-75540000D01*
X123270000Y-75540000D02*
X120730000Y-75540000D01*
X122000000Y-75540000D02*
X122000000Y-76810000D01*
X122000000Y-70460000D02*
X122000000Y-69190000D01*
X105730000Y-75540000D02*
X105730000Y-70460000D01*
X105730000Y-70460000D02*
X108270000Y-70460000D01*
X108270000Y-70460000D02*
X108270000Y-75540000D01*
X108270000Y-75540000D02*
X105730000Y-75540000D01*
X107000000Y-75540000D02*
X107000000Y-76810000D01*
X107000000Y-70460000D02*
X107000000Y-69190000D01*
X86540000Y-73270000D02*
X81460000Y-73270000D01*
X81460000Y-73270000D02*
X81460000Y-70730000D01*
X81460000Y-70730000D02*
X86540000Y-70730000D01*
X86540000Y-70730000D02*
X86540000Y-73270000D01*
X86540000Y-72000000D02*
X87810000Y-72000000D01*
X81460000Y-72000000D02*
X80190000Y-72000000D01*
X116730000Y-75540000D02*
X116730000Y-70460000D01*
X116730000Y-70460000D02*
X119270000Y-70460000D01*
X119270000Y-70460000D02*
X119270000Y-75540000D01*
X119270000Y-75540000D02*
X116730000Y-75540000D01*
X118000000Y-75540000D02*
X118000000Y-76810000D01*
X118000000Y-70460000D02*
X118000000Y-69190000D01*
X101730000Y-75540000D02*
X101730000Y-70460000D01*
X101730000Y-70460000D02*
X104270000Y-70460000D01*
X104270000Y-70460000D02*
X104270000Y-75540000D01*
X104270000Y-75540000D02*
X101730000Y-75540000D01*
X103000000Y-75540000D02*
X103000000Y-76810000D01*
X103000000Y-70460000D02*
X103000000Y-69190000D01*
X86540000Y-76270000D02*
X81460000Y-76270000D01*
X81460000Y-76270000D02*
X81460000Y-73730000D01*
X81460000Y-73730000D02*
X86540000Y-73730000D01*
X86540000Y-73730000D02*
X86540000Y-76270000D01*
X86540000Y-75000000D02*
X87810000Y-75000000D01*
X81460000Y-75000000D02*
X80190000Y-75000000D01*
X112730000Y-75540000D02*
X112730000Y-70460000D01*
X112730000Y-70460000D02*
X115270000Y-70460000D01*
X115270000Y-70460000D02*
X115270000Y-75540000D01*
X115270000Y-75540000D02*
X112730000Y-75540000D01*
X114000000Y-75540000D02*
X114000000Y-76810000D01*
X114000000Y-70460000D02*
X114000000Y-69190000D01*
X97730000Y-75540000D02*
X97730000Y-70460000D01*
X97730000Y-70460000D02*
X100270000Y-70460000D01*
X100270000Y-70460000D02*
X100270000Y-75540000D01*
X100270000Y-75540000D02*
X97730000Y-75540000D01*
X99000000Y-75540000D02*
X99000000Y-76810000D01*
X99000000Y-70460000D02*
X99000000Y-69190000D01*
X95110000Y-134770000D02*
X95110000Y-148270000D01*
X95110000Y-148270000D02*
X114510000Y-148270000D01*
X114510000Y-134770000D02*
X114510000Y-148270000D01*
X114510000Y-134770000D02*
X95110000Y-134770000D01*
X113160000Y-146220000D02*
G75*
G03X113160000Y-146220000I-750000J0D01*
G01*
X109660000Y-146220000D02*
G75*
G03X109660000Y-146220000I-750000J0D01*
G01*
X106200569Y-146220000D02*
G75*
G03X106200569Y-146220000I-790569J0D01*
G01*
X102660000Y-146220000D02*
G75*
G03X102660000Y-146220000I-750000J0D01*
G01*
X99160000Y-146220000D02*
G75*
G03X99160000Y-146220000I-750000J0D01*
G01*
X95160000Y-136170000D02*
X95160000Y-148170000D01*
X95160000Y-136170000D02*
X114160000Y-136170000D01*
X114160000Y-136170000D02*
X114160000Y-148170000D01*
X95160000Y-148170000D02*
X114160000Y-148170000D01*
X96660000Y-148170000D02*
X96660000Y-136170000D01*
X56200000Y-111450000D02*
X42700000Y-111450000D01*
X42700000Y-111450000D02*
X42700000Y-127350000D01*
X56200000Y-127350000D02*
X42700000Y-127350000D01*
X56200000Y-127350000D02*
X56200000Y-111450000D01*
X45500000Y-125250000D02*
G75*
G03X45500000Y-125250000I-750000J0D01*
G01*
X45540569Y-121750000D02*
G75*
G03X45540569Y-121750000I-790569J0D01*
G01*
X45500000Y-118250000D02*
G75*
G03X45500000Y-118250000I-750000J0D01*
G01*
X45500000Y-114750000D02*
G75*
G03X45500000Y-114750000I-750000J0D01*
G01*
X54800000Y-111500000D02*
X42800000Y-111500000D01*
X54800000Y-111500000D02*
X54800000Y-127000000D01*
X54800000Y-127000000D02*
X42800000Y-127000000D01*
X42800000Y-111500000D02*
X42800000Y-127000000D01*
X42800000Y-113000000D02*
X54800000Y-113000000D01*
X56200000Y-91450000D02*
X42700000Y-91450000D01*
X42700000Y-91450000D02*
X42700000Y-107350000D01*
X56200000Y-107350000D02*
X42700000Y-107350000D01*
X56200000Y-107350000D02*
X56200000Y-91450000D01*
X45500000Y-105250000D02*
G75*
G03X45500000Y-105250000I-750000J0D01*
G01*
X45540569Y-101750000D02*
G75*
G03X45540569Y-101750000I-790569J0D01*
G01*
X45500000Y-98250000D02*
G75*
G03X45500000Y-98250000I-750000J0D01*
G01*
X45500000Y-94750000D02*
G75*
G03X45500000Y-94750000I-750000J0D01*
G01*
X54800000Y-91500000D02*
X42800000Y-91500000D01*
X54800000Y-91500000D02*
X54800000Y-107000000D01*
X54800000Y-107000000D02*
X42800000Y-107000000D01*
X42800000Y-91500000D02*
X42800000Y-107000000D01*
X42800000Y-93000000D02*
X54800000Y-93000000D01*
X56200000Y-71450000D02*
X42700000Y-71450000D01*
X42700000Y-71450000D02*
X42700000Y-87350000D01*
X56200000Y-87350000D02*
X42700000Y-87350000D01*
X56200000Y-87350000D02*
X56200000Y-71450000D01*
X45500000Y-85250000D02*
G75*
G03X45500000Y-85250000I-750000J0D01*
G01*
X45540569Y-81750000D02*
G75*
G03X45540569Y-81750000I-790569J0D01*
G01*
X45500000Y-78250000D02*
G75*
G03X45500000Y-78250000I-750000J0D01*
G01*
X45500000Y-74750000D02*
G75*
G03X45500000Y-74750000I-750000J0D01*
G01*
X54800000Y-71500000D02*
X42800000Y-71500000D01*
X54800000Y-71500000D02*
X54800000Y-87000000D01*
X54800000Y-87000000D02*
X42800000Y-87000000D01*
X42800000Y-71500000D02*
X42800000Y-87000000D01*
X42800000Y-73000000D02*
X54800000Y-73000000D01*
X66550000Y-65200000D02*
X66550000Y-51700000D01*
X66550000Y-51700000D02*
X50650000Y-51700000D01*
X50650000Y-65200000D02*
X50650000Y-51700000D01*
X50650000Y-65200000D02*
X66550000Y-65200000D01*
X53500000Y-53750000D02*
G75*
G03X53500000Y-53750000I-750000J0D01*
G01*
X57040569Y-53750000D02*
G75*
G03X57040569Y-53750000I-790569J0D01*
G01*
X60500000Y-53750000D02*
G75*
G03X60500000Y-53750000I-750000J0D01*
G01*
X64000000Y-53750000D02*
G75*
G03X64000000Y-53750000I-750000J0D01*
G01*
X66500000Y-63800000D02*
X66500000Y-51800000D01*
X66500000Y-63800000D02*
X51000000Y-63800000D01*
X51000000Y-63800000D02*
X51000000Y-51800000D01*
X66500000Y-51800000D02*
X51000000Y-51800000D01*
X65000000Y-51800000D02*
X65000000Y-63800000D01*
X84550000Y-65200000D02*
X84550000Y-51700000D01*
X84550000Y-51700000D02*
X68650000Y-51700000D01*
X68650000Y-65200000D02*
X68650000Y-51700000D01*
X68650000Y-65200000D02*
X84550000Y-65200000D01*
X71500000Y-53750000D02*
G75*
G03X71500000Y-53750000I-750000J0D01*
G01*
X75040569Y-53750000D02*
G75*
G03X75040569Y-53750000I-790569J0D01*
G01*
X78500000Y-53750000D02*
G75*
G03X78500000Y-53750000I-750000J0D01*
G01*
X82000000Y-53750000D02*
G75*
G03X82000000Y-53750000I-750000J0D01*
G01*
X84500000Y-63800000D02*
X84500000Y-51800000D01*
X84500000Y-63800000D02*
X69000000Y-63800000D01*
X69000000Y-63800000D02*
X69000000Y-51800000D01*
X84500000Y-51800000D02*
X69000000Y-51800000D01*
X83000000Y-51800000D02*
X83000000Y-63800000D01*
X112550000Y-65200000D02*
X112550000Y-51700000D01*
X112550000Y-51700000D02*
X96650000Y-51700000D01*
X96650000Y-65200000D02*
X96650000Y-51700000D01*
X96650000Y-65200000D02*
X112550000Y-65200000D01*
X99500000Y-53750000D02*
G75*
G03X99500000Y-53750000I-750000J0D01*
G01*
X103040569Y-53750000D02*
G75*
G03X103040569Y-53750000I-790569J0D01*
G01*
X106500000Y-53750000D02*
G75*
G03X106500000Y-53750000I-750000J0D01*
G01*
X110000000Y-53750000D02*
G75*
G03X110000000Y-53750000I-750000J0D01*
G01*
X112500000Y-63800000D02*
X112500000Y-51800000D01*
X112500000Y-63800000D02*
X97000000Y-63800000D01*
X97000000Y-63800000D02*
X97000000Y-51800000D01*
X112500000Y-51800000D02*
X97000000Y-51800000D01*
X111000000Y-51800000D02*
X111000000Y-63800000D01*
X129550000Y-65200000D02*
X129550000Y-51700000D01*
X129550000Y-51700000D02*
X113650000Y-51700000D01*
X113650000Y-65200000D02*
X113650000Y-51700000D01*
X113650000Y-65200000D02*
X129550000Y-65200000D01*
X116500000Y-53750000D02*
G75*
G03X116500000Y-53750000I-750000J0D01*
G01*
X120040569Y-53750000D02*
G75*
G03X120040569Y-53750000I-790569J0D01*
G01*
X123500000Y-53750000D02*
G75*
G03X123500000Y-53750000I-750000J0D01*
G01*
X127000000Y-53750000D02*
G75*
G03X127000000Y-53750000I-750000J0D01*
G01*
X129500000Y-63800000D02*
X129500000Y-51800000D01*
X129500000Y-63800000D02*
X114000000Y-63800000D01*
X114000000Y-63800000D02*
X114000000Y-51800000D01*
X129500000Y-51800000D02*
X114000000Y-51800000D01*
X128000000Y-51800000D02*
X128000000Y-63800000D01*
X54470000Y-134770000D02*
X54470000Y-148270000D01*
X54470000Y-148270000D02*
X73870000Y-148270000D01*
X73870000Y-134770000D02*
X73870000Y-148270000D01*
X73870000Y-134770000D02*
X54470000Y-134770000D01*
X72520000Y-146220000D02*
G75*
G03X72520000Y-146220000I-750000J0D01*
G01*
X69020000Y-146220000D02*
G75*
G03X69020000Y-146220000I-750000J0D01*
G01*
X65560569Y-146220000D02*
G75*
G03X65560569Y-146220000I-790569J0D01*
G01*
X62020000Y-146220000D02*
G75*
G03X62020000Y-146220000I-750000J0D01*
G01*
X58520000Y-146220000D02*
G75*
G03X58520000Y-146220000I-750000J0D01*
G01*
X54520000Y-136170000D02*
X54520000Y-148170000D01*
X54520000Y-136170000D02*
X73520000Y-136170000D01*
X73520000Y-136170000D02*
X73520000Y-148170000D01*
X54520000Y-148170000D02*
X73520000Y-148170000D01*
X56020000Y-148170000D02*
X56020000Y-136170000D01*
X74790000Y-134770000D02*
X74790000Y-148270000D01*
X74790000Y-148270000D02*
X94190000Y-148270000D01*
X94190000Y-134770000D02*
X94190000Y-148270000D01*
X94190000Y-134770000D02*
X74790000Y-134770000D01*
X92840000Y-146220000D02*
G75*
G03X92840000Y-146220000I-750000J0D01*
G01*
X89340000Y-146220000D02*
G75*
G03X89340000Y-146220000I-750000J0D01*
G01*
X85880569Y-146220000D02*
G75*
G03X85880569Y-146220000I-790569J0D01*
G01*
X82340000Y-146220000D02*
G75*
G03X82340000Y-146220000I-750000J0D01*
G01*
X78840000Y-146220000D02*
G75*
G03X78840000Y-146220000I-750000J0D01*
G01*
X74840000Y-136170000D02*
X74840000Y-148170000D01*
X74840000Y-136170000D02*
X93840000Y-136170000D01*
X93840000Y-136170000D02*
X93840000Y-148170000D01*
X74840000Y-148170000D02*
X93840000Y-148170000D01*
X76340000Y-148170000D02*
X76340000Y-136170000D01*
X124800000Y-140050000D02*
X138300000Y-140050000D01*
X138300000Y-140050000D02*
X138300000Y-117150000D01*
X124800000Y-117150000D02*
X138300000Y-117150000D01*
X124800000Y-117150000D02*
X124800000Y-140050000D01*
X137000000Y-119250000D02*
G75*
G03X137000000Y-119250000I-750000J0D01*
G01*
X137000000Y-122750000D02*
G75*
G03X137000000Y-122750000I-750000J0D01*
G01*
X137000000Y-126250000D02*
G75*
G03X137000000Y-126250000I-750000J0D01*
G01*
X137040569Y-129750000D02*
G75*
G03X137040569Y-129750000I-790569J0D01*
G01*
X137000000Y-133250000D02*
G75*
G03X137000000Y-133250000I-750000J0D01*
G01*
X137000000Y-136750000D02*
G75*
G03X137000000Y-136750000I-750000J0D01*
G01*
X126200000Y-140000000D02*
X138200000Y-140000000D01*
X126200000Y-140000000D02*
X126200000Y-117500000D01*
X126200000Y-117500000D02*
X138200000Y-117500000D01*
X138200000Y-140000000D02*
X138200000Y-117500000D01*
X138200000Y-138500000D02*
X126200000Y-138500000D01*
X124800000Y-89050000D02*
X138300000Y-89050000D01*
X138300000Y-89050000D02*
X138300000Y-66150000D01*
X124800000Y-66150000D02*
X138300000Y-66150000D01*
X124800000Y-66150000D02*
X124800000Y-89050000D01*
X137000000Y-68250000D02*
G75*
G03X137000000Y-68250000I-750000J0D01*
G01*
X137000000Y-71750000D02*
G75*
G03X137000000Y-71750000I-750000J0D01*
G01*
X137000000Y-75250000D02*
G75*
G03X137000000Y-75250000I-750000J0D01*
G01*
X137040569Y-78750000D02*
G75*
G03X137040569Y-78750000I-790569J0D01*
G01*
X137000000Y-82250000D02*
G75*
G03X137000000Y-82250000I-750000J0D01*
G01*
X137000000Y-85750000D02*
G75*
G03X137000000Y-85750000I-750000J0D01*
G01*
X126200000Y-89000000D02*
X138200000Y-89000000D01*
X126200000Y-89000000D02*
X126200000Y-66500000D01*
X126200000Y-66500000D02*
X138200000Y-66500000D01*
X138200000Y-89000000D02*
X138200000Y-66500000D01*
X138200000Y-87500000D02*
X126200000Y-87500000D01*
X86730000Y-55270000D02*
X86730000Y-62890000D01*
X89270000Y-55270000D02*
X89270000Y-62890000D01*
X89550000Y-52450000D02*
X89550000Y-54000000D01*
X86730000Y-62890000D02*
X89270000Y-62890000D01*
X89270000Y-55270000D02*
X86730000Y-55270000D01*
X86450000Y-54000000D02*
X86450000Y-52450000D01*
X86450000Y-52450000D02*
X89550000Y-52450000D01*
X91730000Y-55270000D02*
X91730000Y-62890000D01*
X94270000Y-55270000D02*
X94270000Y-62890000D01*
X94550000Y-52450000D02*
X94550000Y-54000000D01*
X91730000Y-62890000D02*
X94270000Y-62890000D01*
X94270000Y-55270000D02*
X91730000Y-55270000D01*
X91450000Y-54000000D02*
X91450000Y-52450000D01*
X91450000Y-52450000D02*
X94550000Y-52450000D01*
D14*
G36*
X97173270Y-127450104D02*
X97166178Y-127485385D01*
X97154780Y-127544417D01*
X97141182Y-127616259D01*
X97136793Y-127639722D01*
X97121171Y-127722978D01*
X97105406Y-127806190D01*
X97092519Y-127873417D01*
X97090803Y-127882257D01*
X97072777Y-127974861D01*
X96903712Y-127974861D01*
X96845856Y-128243854D01*
X96825396Y-128337981D01*
X96807010Y-128420704D01*
X96792177Y-128485505D01*
X96782379Y-128525866D01*
X96779688Y-128535245D01*
X96783653Y-128542746D01*
X96804284Y-128548225D01*
X96845142Y-128551849D01*
X96909790Y-128553784D01*
X97001789Y-128554198D01*
X97124700Y-128553257D01*
X97156273Y-128552884D01*
X97541172Y-128548125D01*
X97589228Y-128283541D01*
X97606044Y-128189987D01*
X97620458Y-128107969D01*
X97631330Y-128044112D01*
X97637521Y-128005042D01*
X97638503Y-127996909D01*
X97623287Y-127981976D01*
X97574913Y-127975294D01*
X97551528Y-127974861D01*
X97501249Y-127972481D01*
X97469394Y-127966397D01*
X97463503Y-127961632D01*
X97466395Y-127940407D01*
X97474239Y-127890912D01*
X97485973Y-127819637D01*
X97500539Y-127733076D01*
X97507431Y-127692639D01*
X97522836Y-127602375D01*
X97535890Y-127525474D01*
X97545543Y-127468144D01*
X97550747Y-127436594D01*
X97551358Y-127432465D01*
X97568329Y-127431371D01*
X97616309Y-127430376D01*
X97691028Y-127429515D01*
X97788218Y-127428822D01*
X97903609Y-127428333D01*
X98032932Y-127428081D01*
X98091719Y-127428055D01*
X98631910Y-127428055D01*
X98622810Y-127476562D01*
X98616185Y-127512107D01*
X98604712Y-127573901D01*
X98589955Y-127653506D01*
X98573480Y-127742482D01*
X98572098Y-127749951D01*
X98530486Y-127974833D01*
X98437882Y-127974847D01*
X98386128Y-127975827D01*
X98352517Y-127978330D01*
X98345278Y-127980518D01*
X98342290Y-127998461D01*
X98333708Y-128047872D01*
X98320109Y-128125485D01*
X98302068Y-128228034D01*
X98280161Y-128352254D01*
X98254963Y-128494877D01*
X98227049Y-128652639D01*
X98196996Y-128822273D01*
X98186528Y-128881312D01*
X98155815Y-129054968D01*
X98127060Y-129218482D01*
X98100841Y-129368495D01*
X98077738Y-129501644D01*
X98058331Y-129614570D01*
X98043200Y-129703911D01*
X98032925Y-129766307D01*
X98028084Y-129798397D01*
X98027778Y-129801696D01*
X98041115Y-129819596D01*
X98083727Y-129826693D01*
X98098334Y-129826944D01*
X98127576Y-129826834D01*
X98148175Y-129829768D01*
X98160679Y-129840640D01*
X98165639Y-129864345D01*
X98163604Y-129905777D01*
X98155125Y-129969831D01*
X98140752Y-130061401D01*
X98131308Y-130120406D01*
X98093727Y-130356111D01*
X97036176Y-130356111D01*
X97045287Y-130316423D01*
X97051754Y-130284414D01*
X97062821Y-130225735D01*
X97076990Y-130148460D01*
X97092764Y-130060667D01*
X97094333Y-130051840D01*
X97134269Y-129826944D01*
X97227446Y-129826944D01*
X97281755Y-129825808D01*
X97310620Y-129818757D01*
X97323872Y-129800323D01*
X97330552Y-129769618D01*
X97340078Y-129711023D01*
X97351803Y-129633560D01*
X97364692Y-129544735D01*
X97377709Y-129452056D01*
X97389820Y-129363033D01*
X97399987Y-129285172D01*
X97407176Y-129225983D01*
X97410351Y-129192972D01*
X97410417Y-129190619D01*
X97409037Y-129179040D01*
X97401921Y-129170459D01*
X97384604Y-129164510D01*
X97352620Y-129160827D01*
X97301504Y-129159046D01*
X97226791Y-129158801D01*
X97124016Y-129159726D01*
X97044955Y-129160718D01*
X96679494Y-129165486D01*
X96631541Y-129447708D01*
X96610466Y-129571869D01*
X96595338Y-129665501D01*
X96586501Y-129732903D01*
X96584301Y-129778377D01*
X96589083Y-129806223D01*
X96601191Y-129820741D01*
X96620970Y-129826233D01*
X96648766Y-129826998D01*
X96661953Y-129826944D01*
X96711111Y-129828921D01*
X96732737Y-129837043D01*
X96734463Y-129854598D01*
X96733604Y-129857812D01*
X96727361Y-129887506D01*
X96717556Y-129943253D01*
X96705699Y-130016196D01*
X96696812Y-130073889D01*
X96684186Y-130156164D01*
X96672420Y-130230009D01*
X96663114Y-130285522D01*
X96659037Y-130307604D01*
X96649142Y-130356111D01*
X95589202Y-130356111D01*
X95598328Y-130307604D01*
X95604452Y-130271534D01*
X95614352Y-130209343D01*
X95626652Y-130129807D01*
X95639781Y-130043020D01*
X95672107Y-129826944D01*
X95763750Y-129826944D01*
X95817818Y-129825473D01*
X95846552Y-129817897D01*
X95859869Y-129799472D01*
X95865155Y-129778437D01*
X95870409Y-129749844D01*
X95880695Y-129691658D01*
X95895332Y-129607852D01*
X95913638Y-129502399D01*
X95934933Y-129379271D01*
X95958535Y-129242439D01*
X95983762Y-129095877D01*
X96009934Y-128943555D01*
X96036370Y-128789448D01*
X96062387Y-128637526D01*
X96087305Y-128491762D01*
X96110442Y-128356129D01*
X96131117Y-128234598D01*
X96148649Y-128131141D01*
X96162357Y-128049732D01*
X96171559Y-127994342D01*
X96175574Y-127968944D01*
X96175695Y-127967810D01*
X96159809Y-127961803D01*
X96119144Y-127957966D01*
X96086312Y-127957222D01*
X96033720Y-127955582D01*
X96008868Y-127948748D01*
X96004296Y-127933852D01*
X96006061Y-127926354D01*
X96012771Y-127897322D01*
X96024090Y-127841819D01*
X96038379Y-127768094D01*
X96052487Y-127692639D01*
X96068164Y-127608413D01*
X96082395Y-127533840D01*
X96093500Y-127477604D01*
X96099373Y-127450104D01*
X96108964Y-127410416D01*
X97181784Y-127410416D01*
X97173270Y-127450104D01*
X97173270Y-127450104D01*
G37*
X97173270Y-127450104D02*
X97166178Y-127485385D01*
X97154780Y-127544417D01*
X97141182Y-127616259D01*
X97136793Y-127639722D01*
X97121171Y-127722978D01*
X97105406Y-127806190D01*
X97092519Y-127873417D01*
X97090803Y-127882257D01*
X97072777Y-127974861D01*
X96903712Y-127974861D01*
X96845856Y-128243854D01*
X96825396Y-128337981D01*
X96807010Y-128420704D01*
X96792177Y-128485505D01*
X96782379Y-128525866D01*
X96779688Y-128535245D01*
X96783653Y-128542746D01*
X96804284Y-128548225D01*
X96845142Y-128551849D01*
X96909790Y-128553784D01*
X97001789Y-128554198D01*
X97124700Y-128553257D01*
X97156273Y-128552884D01*
X97541172Y-128548125D01*
X97589228Y-128283541D01*
X97606044Y-128189987D01*
X97620458Y-128107969D01*
X97631330Y-128044112D01*
X97637521Y-128005042D01*
X97638503Y-127996909D01*
X97623287Y-127981976D01*
X97574913Y-127975294D01*
X97551528Y-127974861D01*
X97501249Y-127972481D01*
X97469394Y-127966397D01*
X97463503Y-127961632D01*
X97466395Y-127940407D01*
X97474239Y-127890912D01*
X97485973Y-127819637D01*
X97500539Y-127733076D01*
X97507431Y-127692639D01*
X97522836Y-127602375D01*
X97535890Y-127525474D01*
X97545543Y-127468144D01*
X97550747Y-127436594D01*
X97551358Y-127432465D01*
X97568329Y-127431371D01*
X97616309Y-127430376D01*
X97691028Y-127429515D01*
X97788218Y-127428822D01*
X97903609Y-127428333D01*
X98032932Y-127428081D01*
X98091719Y-127428055D01*
X98631910Y-127428055D01*
X98622810Y-127476562D01*
X98616185Y-127512107D01*
X98604712Y-127573901D01*
X98589955Y-127653506D01*
X98573480Y-127742482D01*
X98572098Y-127749951D01*
X98530486Y-127974833D01*
X98437882Y-127974847D01*
X98386128Y-127975827D01*
X98352517Y-127978330D01*
X98345278Y-127980518D01*
X98342290Y-127998461D01*
X98333708Y-128047872D01*
X98320109Y-128125485D01*
X98302068Y-128228034D01*
X98280161Y-128352254D01*
X98254963Y-128494877D01*
X98227049Y-128652639D01*
X98196996Y-128822273D01*
X98186528Y-128881312D01*
X98155815Y-129054968D01*
X98127060Y-129218482D01*
X98100841Y-129368495D01*
X98077738Y-129501644D01*
X98058331Y-129614570D01*
X98043200Y-129703911D01*
X98032925Y-129766307D01*
X98028084Y-129798397D01*
X98027778Y-129801696D01*
X98041115Y-129819596D01*
X98083727Y-129826693D01*
X98098334Y-129826944D01*
X98127576Y-129826834D01*
X98148175Y-129829768D01*
X98160679Y-129840640D01*
X98165639Y-129864345D01*
X98163604Y-129905777D01*
X98155125Y-129969831D01*
X98140752Y-130061401D01*
X98131308Y-130120406D01*
X98093727Y-130356111D01*
X97036176Y-130356111D01*
X97045287Y-130316423D01*
X97051754Y-130284414D01*
X97062821Y-130225735D01*
X97076990Y-130148460D01*
X97092764Y-130060667D01*
X97094333Y-130051840D01*
X97134269Y-129826944D01*
X97227446Y-129826944D01*
X97281755Y-129825808D01*
X97310620Y-129818757D01*
X97323872Y-129800323D01*
X97330552Y-129769618D01*
X97340078Y-129711023D01*
X97351803Y-129633560D01*
X97364692Y-129544735D01*
X97377709Y-129452056D01*
X97389820Y-129363033D01*
X97399987Y-129285172D01*
X97407176Y-129225983D01*
X97410351Y-129192972D01*
X97410417Y-129190619D01*
X97409037Y-129179040D01*
X97401921Y-129170459D01*
X97384604Y-129164510D01*
X97352620Y-129160827D01*
X97301504Y-129159046D01*
X97226791Y-129158801D01*
X97124016Y-129159726D01*
X97044955Y-129160718D01*
X96679494Y-129165486D01*
X96631541Y-129447708D01*
X96610466Y-129571869D01*
X96595338Y-129665501D01*
X96586501Y-129732903D01*
X96584301Y-129778377D01*
X96589083Y-129806223D01*
X96601191Y-129820741D01*
X96620970Y-129826233D01*
X96648766Y-129826998D01*
X96661953Y-129826944D01*
X96711111Y-129828921D01*
X96732737Y-129837043D01*
X96734463Y-129854598D01*
X96733604Y-129857812D01*
X96727361Y-129887506D01*
X96717556Y-129943253D01*
X96705699Y-130016196D01*
X96696812Y-130073889D01*
X96684186Y-130156164D01*
X96672420Y-130230009D01*
X96663114Y-130285522D01*
X96659037Y-130307604D01*
X96649142Y-130356111D01*
X95589202Y-130356111D01*
X95598328Y-130307604D01*
X95604452Y-130271534D01*
X95614352Y-130209343D01*
X95626652Y-130129807D01*
X95639781Y-130043020D01*
X95672107Y-129826944D01*
X95763750Y-129826944D01*
X95817818Y-129825473D01*
X95846552Y-129817897D01*
X95859869Y-129799472D01*
X95865155Y-129778437D01*
X95870409Y-129749844D01*
X95880695Y-129691658D01*
X95895332Y-129607852D01*
X95913638Y-129502399D01*
X95934933Y-129379271D01*
X95958535Y-129242439D01*
X95983762Y-129095877D01*
X96009934Y-128943555D01*
X96036370Y-128789448D01*
X96062387Y-128637526D01*
X96087305Y-128491762D01*
X96110442Y-128356129D01*
X96131117Y-128234598D01*
X96148649Y-128131141D01*
X96162357Y-128049732D01*
X96171559Y-127994342D01*
X96175574Y-127968944D01*
X96175695Y-127967810D01*
X96159809Y-127961803D01*
X96119144Y-127957966D01*
X96086312Y-127957222D01*
X96033720Y-127955582D01*
X96008868Y-127948748D01*
X96004296Y-127933852D01*
X96006061Y-127926354D01*
X96012771Y-127897322D01*
X96024090Y-127841819D01*
X96038379Y-127768094D01*
X96052487Y-127692639D01*
X96068164Y-127608413D01*
X96082395Y-127533840D01*
X96093500Y-127477604D01*
X96099373Y-127450104D01*
X96108964Y-127410416D01*
X97181784Y-127410416D01*
X97173270Y-127450104D01*
G36*
X94094950Y-126926242D02*
X94152988Y-127061660D01*
X94207005Y-127186599D01*
X94255379Y-127297391D01*
X94296491Y-127390371D01*
X94328718Y-127461873D01*
X94350440Y-127508230D01*
X94360036Y-127525778D01*
X94360045Y-127525783D01*
X94373246Y-127514033D01*
X94405918Y-127477292D01*
X94455776Y-127418343D01*
X94520535Y-127339964D01*
X94597908Y-127244937D01*
X94685613Y-127136042D01*
X94781362Y-127016060D01*
X94846392Y-126933999D01*
X95320209Y-126334472D01*
X95775599Y-126334458D01*
X95914114Y-126334589D01*
X96021241Y-126335172D01*
X96100868Y-126336474D01*
X96156884Y-126338766D01*
X96193177Y-126342314D01*
X96213637Y-126347389D01*
X96222151Y-126354259D01*
X96222609Y-126363193D01*
X96222059Y-126365312D01*
X96215029Y-126395870D01*
X96203820Y-126451351D01*
X96190384Y-126521936D01*
X96184328Y-126554930D01*
X96168966Y-126637948D01*
X96153493Y-126718821D01*
X96140635Y-126783382D01*
X96137691Y-126797465D01*
X96119855Y-126881250D01*
X96034523Y-126881250D01*
X95982653Y-126883040D01*
X95955604Y-126891929D01*
X95942968Y-126913196D01*
X95938879Y-126929757D01*
X95933773Y-126956502D01*
X95923134Y-127014369D01*
X95907613Y-127099746D01*
X95887861Y-127209023D01*
X95864529Y-127338591D01*
X95838269Y-127484838D01*
X95809732Y-127644154D01*
X95779569Y-127812929D01*
X95779001Y-127816111D01*
X95748866Y-127984655D01*
X95720374Y-128143500D01*
X95694171Y-128289083D01*
X95670901Y-128417842D01*
X95651209Y-128526216D01*
X95635743Y-128610643D01*
X95625145Y-128667560D01*
X95620063Y-128693405D01*
X95620007Y-128693645D01*
X95617209Y-128717097D01*
X95628676Y-128728859D01*
X95662365Y-128732925D01*
X95699109Y-128733333D01*
X95749541Y-128735354D01*
X95781603Y-128740523D01*
X95787639Y-128744603D01*
X95784840Y-128766572D01*
X95777341Y-128815236D01*
X95766489Y-128882536D01*
X95753631Y-128960411D01*
X95740114Y-129040800D01*
X95727284Y-129115644D01*
X95716489Y-129176881D01*
X95709075Y-129216453D01*
X95707730Y-129222812D01*
X95698773Y-129262500D01*
X95159934Y-129262500D01*
X95007830Y-129262392D01*
X94887412Y-129261929D01*
X94795089Y-129260901D01*
X94727270Y-129259100D01*
X94680363Y-129256317D01*
X94650779Y-129252341D01*
X94634924Y-129246965D01*
X94629209Y-129239979D01*
X94629908Y-129231632D01*
X94635845Y-129203516D01*
X94645989Y-129147911D01*
X94659050Y-129072175D01*
X94673738Y-128983666D01*
X94677864Y-128958229D01*
X94717006Y-128715694D01*
X94811350Y-128715694D01*
X94863648Y-128713412D01*
X94897908Y-128707540D01*
X94905695Y-128702177D01*
X94908574Y-128682352D01*
X94916615Y-128632987D01*
X94928922Y-128559293D01*
X94944599Y-128466486D01*
X94962752Y-128359778D01*
X94982484Y-128244383D01*
X95002900Y-128125513D01*
X95023106Y-128008383D01*
X95042204Y-127898204D01*
X95059301Y-127800191D01*
X95073499Y-127719557D01*
X95083905Y-127661516D01*
X95089622Y-127631279D01*
X95089702Y-127630902D01*
X95094072Y-127606280D01*
X95087024Y-127610369D01*
X95072041Y-127630902D01*
X95042062Y-127671500D01*
X94995575Y-127732675D01*
X94935323Y-127810944D01*
X94864053Y-127902826D01*
X94784508Y-128004838D01*
X94699433Y-128113499D01*
X94611571Y-128225326D01*
X94523669Y-128336837D01*
X94438470Y-128444550D01*
X94358718Y-128544983D01*
X94287158Y-128634655D01*
X94226534Y-128710081D01*
X94179592Y-128767782D01*
X94149075Y-128804274D01*
X94137903Y-128816112D01*
X94127149Y-128801770D01*
X94104594Y-128758418D01*
X94071883Y-128689662D01*
X94030658Y-128599108D01*
X93982562Y-128490362D01*
X93929237Y-128367030D01*
X93875222Y-128239611D01*
X93818622Y-128105548D01*
X93766051Y-127982370D01*
X93719109Y-127873725D01*
X93679396Y-127783259D01*
X93648512Y-127714620D01*
X93628058Y-127671453D01*
X93619751Y-127657361D01*
X93614798Y-127673879D01*
X93604685Y-127720016D01*
X93590359Y-127790645D01*
X93572767Y-127880639D01*
X93552855Y-127984872D01*
X93531570Y-128098217D01*
X93509858Y-128215548D01*
X93488668Y-128331738D01*
X93468944Y-128441660D01*
X93451634Y-128540188D01*
X93437685Y-128622195D01*
X93428043Y-128682555D01*
X93423655Y-128716141D01*
X93423499Y-128720104D01*
X93439610Y-128728000D01*
X93479755Y-128732731D01*
X93503403Y-128733333D01*
X93558677Y-128738008D01*
X93582267Y-128751629D01*
X93582991Y-128755382D01*
X93580376Y-128780089D01*
X93573056Y-128832584D01*
X93562064Y-128905845D01*
X93548432Y-128992852D01*
X93544082Y-129019965D01*
X93504961Y-129262500D01*
X92433447Y-129262500D01*
X92443508Y-129213993D01*
X92450455Y-129175902D01*
X92460894Y-129113213D01*
X92473137Y-129036221D01*
X92480395Y-128989097D01*
X92495377Y-128889853D01*
X92506902Y-128820159D01*
X92517656Y-128774826D01*
X92530321Y-128748664D01*
X92547579Y-128736483D01*
X92572115Y-128733096D01*
X92606612Y-128733311D01*
X92612639Y-128733333D01*
X92666029Y-128731254D01*
X92694164Y-128722305D01*
X92706955Y-128702415D01*
X92709296Y-128693645D01*
X92713902Y-128668883D01*
X92723676Y-128612777D01*
X92738035Y-128528791D01*
X92756395Y-128420386D01*
X92778171Y-128291026D01*
X92802780Y-128144172D01*
X92829638Y-127983287D01*
X92858159Y-127811833D01*
X92865501Y-127767604D01*
X93012572Y-126881250D01*
X92944897Y-126881250D01*
X92916059Y-126880859D01*
X92895841Y-126876454D01*
X92883719Y-126863181D01*
X92879169Y-126836189D01*
X92881667Y-126790624D01*
X92890688Y-126721636D01*
X92905708Y-126624371D01*
X92912500Y-126581389D01*
X92925714Y-126496837D01*
X92936661Y-126425101D01*
X92944281Y-126373270D01*
X92947508Y-126348433D01*
X92947549Y-126347673D01*
X92964470Y-126344081D01*
X93011976Y-126340860D01*
X93085373Y-126338148D01*
X93179970Y-126336085D01*
X93291074Y-126334807D01*
X93395081Y-126334444D01*
X93842385Y-126334444D01*
X94094950Y-126926242D01*
X94094950Y-126926242D01*
G37*
X94094950Y-126926242D02*
X94152988Y-127061660D01*
X94207005Y-127186599D01*
X94255379Y-127297391D01*
X94296491Y-127390371D01*
X94328718Y-127461873D01*
X94350440Y-127508230D01*
X94360036Y-127525778D01*
X94360045Y-127525783D01*
X94373246Y-127514033D01*
X94405918Y-127477292D01*
X94455776Y-127418343D01*
X94520535Y-127339964D01*
X94597908Y-127244937D01*
X94685613Y-127136042D01*
X94781362Y-127016060D01*
X94846392Y-126933999D01*
X95320209Y-126334472D01*
X95775599Y-126334458D01*
X95914114Y-126334589D01*
X96021241Y-126335172D01*
X96100868Y-126336474D01*
X96156884Y-126338766D01*
X96193177Y-126342314D01*
X96213637Y-126347389D01*
X96222151Y-126354259D01*
X96222609Y-126363193D01*
X96222059Y-126365312D01*
X96215029Y-126395870D01*
X96203820Y-126451351D01*
X96190384Y-126521936D01*
X96184328Y-126554930D01*
X96168966Y-126637948D01*
X96153493Y-126718821D01*
X96140635Y-126783382D01*
X96137691Y-126797465D01*
X96119855Y-126881250D01*
X96034523Y-126881250D01*
X95982653Y-126883040D01*
X95955604Y-126891929D01*
X95942968Y-126913196D01*
X95938879Y-126929757D01*
X95933773Y-126956502D01*
X95923134Y-127014369D01*
X95907613Y-127099746D01*
X95887861Y-127209023D01*
X95864529Y-127338591D01*
X95838269Y-127484838D01*
X95809732Y-127644154D01*
X95779569Y-127812929D01*
X95779001Y-127816111D01*
X95748866Y-127984655D01*
X95720374Y-128143500D01*
X95694171Y-128289083D01*
X95670901Y-128417842D01*
X95651209Y-128526216D01*
X95635743Y-128610643D01*
X95625145Y-128667560D01*
X95620063Y-128693405D01*
X95620007Y-128693645D01*
X95617209Y-128717097D01*
X95628676Y-128728859D01*
X95662365Y-128732925D01*
X95699109Y-128733333D01*
X95749541Y-128735354D01*
X95781603Y-128740523D01*
X95787639Y-128744603D01*
X95784840Y-128766572D01*
X95777341Y-128815236D01*
X95766489Y-128882536D01*
X95753631Y-128960411D01*
X95740114Y-129040800D01*
X95727284Y-129115644D01*
X95716489Y-129176881D01*
X95709075Y-129216453D01*
X95707730Y-129222812D01*
X95698773Y-129262500D01*
X95159934Y-129262500D01*
X95007830Y-129262392D01*
X94887412Y-129261929D01*
X94795089Y-129260901D01*
X94727270Y-129259100D01*
X94680363Y-129256317D01*
X94650779Y-129252341D01*
X94634924Y-129246965D01*
X94629209Y-129239979D01*
X94629908Y-129231632D01*
X94635845Y-129203516D01*
X94645989Y-129147911D01*
X94659050Y-129072175D01*
X94673738Y-128983666D01*
X94677864Y-128958229D01*
X94717006Y-128715694D01*
X94811350Y-128715694D01*
X94863648Y-128713412D01*
X94897908Y-128707540D01*
X94905695Y-128702177D01*
X94908574Y-128682352D01*
X94916615Y-128632987D01*
X94928922Y-128559293D01*
X94944599Y-128466486D01*
X94962752Y-128359778D01*
X94982484Y-128244383D01*
X95002900Y-128125513D01*
X95023106Y-128008383D01*
X95042204Y-127898204D01*
X95059301Y-127800191D01*
X95073499Y-127719557D01*
X95083905Y-127661516D01*
X95089622Y-127631279D01*
X95089702Y-127630902D01*
X95094072Y-127606280D01*
X95087024Y-127610369D01*
X95072041Y-127630902D01*
X95042062Y-127671500D01*
X94995575Y-127732675D01*
X94935323Y-127810944D01*
X94864053Y-127902826D01*
X94784508Y-128004838D01*
X94699433Y-128113499D01*
X94611571Y-128225326D01*
X94523669Y-128336837D01*
X94438470Y-128444550D01*
X94358718Y-128544983D01*
X94287158Y-128634655D01*
X94226534Y-128710081D01*
X94179592Y-128767782D01*
X94149075Y-128804274D01*
X94137903Y-128816112D01*
X94127149Y-128801770D01*
X94104594Y-128758418D01*
X94071883Y-128689662D01*
X94030658Y-128599108D01*
X93982562Y-128490362D01*
X93929237Y-128367030D01*
X93875222Y-128239611D01*
X93818622Y-128105548D01*
X93766051Y-127982370D01*
X93719109Y-127873725D01*
X93679396Y-127783259D01*
X93648512Y-127714620D01*
X93628058Y-127671453D01*
X93619751Y-127657361D01*
X93614798Y-127673879D01*
X93604685Y-127720016D01*
X93590359Y-127790645D01*
X93572767Y-127880639D01*
X93552855Y-127984872D01*
X93531570Y-128098217D01*
X93509858Y-128215548D01*
X93488668Y-128331738D01*
X93468944Y-128441660D01*
X93451634Y-128540188D01*
X93437685Y-128622195D01*
X93428043Y-128682555D01*
X93423655Y-128716141D01*
X93423499Y-128720104D01*
X93439610Y-128728000D01*
X93479755Y-128732731D01*
X93503403Y-128733333D01*
X93558677Y-128738008D01*
X93582267Y-128751629D01*
X93582991Y-128755382D01*
X93580376Y-128780089D01*
X93573056Y-128832584D01*
X93562064Y-128905845D01*
X93548432Y-128992852D01*
X93544082Y-129019965D01*
X93504961Y-129262500D01*
X92433447Y-129262500D01*
X92443508Y-129213993D01*
X92450455Y-129175902D01*
X92460894Y-129113213D01*
X92473137Y-129036221D01*
X92480395Y-128989097D01*
X92495377Y-128889853D01*
X92506902Y-128820159D01*
X92517656Y-128774826D01*
X92530321Y-128748664D01*
X92547579Y-128736483D01*
X92572115Y-128733096D01*
X92606612Y-128733311D01*
X92612639Y-128733333D01*
X92666029Y-128731254D01*
X92694164Y-128722305D01*
X92706955Y-128702415D01*
X92709296Y-128693645D01*
X92713902Y-128668883D01*
X92723676Y-128612777D01*
X92738035Y-128528791D01*
X92756395Y-128420386D01*
X92778171Y-128291026D01*
X92802780Y-128144172D01*
X92829638Y-127983287D01*
X92858159Y-127811833D01*
X92865501Y-127767604D01*
X93012572Y-126881250D01*
X92944897Y-126881250D01*
X92916059Y-126880859D01*
X92895841Y-126876454D01*
X92883719Y-126863181D01*
X92879169Y-126836189D01*
X92881667Y-126790624D01*
X92890688Y-126721636D01*
X92905708Y-126624371D01*
X92912500Y-126581389D01*
X92925714Y-126496837D01*
X92936661Y-126425101D01*
X92944281Y-126373270D01*
X92947508Y-126348433D01*
X92947549Y-126347673D01*
X92964470Y-126344081D01*
X93011976Y-126340860D01*
X93085373Y-126338148D01*
X93179970Y-126336085D01*
X93291074Y-126334807D01*
X93395081Y-126334444D01*
X93842385Y-126334444D01*
X94094950Y-126926242D01*
G36*
X92533264Y-125223256D02*
X92705243Y-125424810D01*
X92782769Y-125518306D01*
X92836345Y-125589256D01*
X92867365Y-125639655D01*
X92877223Y-125671189D01*
X92874730Y-125705947D01*
X92868080Y-125766332D01*
X92858517Y-125843108D01*
X92847284Y-125927039D01*
X92835625Y-126008891D01*
X92824784Y-126079427D01*
X92816004Y-126129413D01*
X92814632Y-126136007D01*
X92810889Y-126149452D01*
X92803231Y-126159456D01*
X92787003Y-126166527D01*
X92757550Y-126171173D01*
X92710216Y-126173904D01*
X92640348Y-126175229D01*
X92543290Y-126175656D01*
X92451590Y-126175694D01*
X92097185Y-126175694D01*
X92107495Y-126118368D01*
X92122638Y-126032274D01*
X92130855Y-125972791D01*
X92131410Y-125931801D01*
X92123572Y-125901185D01*
X92106606Y-125872824D01*
X92082539Y-125842032D01*
X92024652Y-125770000D01*
X91525747Y-125770000D01*
X91433938Y-125853784D01*
X91387727Y-125897644D01*
X91358366Y-125933561D01*
X91339720Y-125973231D01*
X91325652Y-126028346D01*
X91315929Y-126078680D01*
X91300308Y-126167713D01*
X91292773Y-126230934D01*
X91293926Y-126277007D01*
X91304367Y-126314594D01*
X91324699Y-126352358D01*
X91336164Y-126370100D01*
X91382605Y-126440277D01*
X92305465Y-126440277D01*
X92481100Y-126634846D01*
X92543427Y-126705157D01*
X92596814Y-126767782D01*
X92636896Y-126817413D01*
X92659308Y-126848745D01*
X92662437Y-126855319D01*
X92661390Y-126879798D01*
X92655314Y-126932994D01*
X92645155Y-127008857D01*
X92631861Y-127101336D01*
X92616378Y-127204382D01*
X92599654Y-127311943D01*
X92582635Y-127417969D01*
X92566268Y-127516411D01*
X92551500Y-127601216D01*
X92539277Y-127666335D01*
X92530548Y-127705717D01*
X92528216Y-127712979D01*
X92511569Y-127733592D01*
X92472870Y-127773329D01*
X92416494Y-127827950D01*
X92346820Y-127893212D01*
X92268825Y-127964333D01*
X92022025Y-128186527D01*
X91422159Y-128183878D01*
X91276564Y-128182937D01*
X91139247Y-128181485D01*
X91014961Y-128179615D01*
X90908458Y-128177420D01*
X90824492Y-128174993D01*
X90767814Y-128172428D01*
X90747268Y-128170649D01*
X90716695Y-128164817D01*
X90689722Y-128154013D01*
X90661411Y-128133882D01*
X90626822Y-128100069D01*
X90581018Y-128048218D01*
X90519060Y-127973974D01*
X90505257Y-127957222D01*
X90426655Y-127858446D01*
X90372554Y-127782896D01*
X90343281Y-127731057D01*
X90337724Y-127710277D01*
X90339925Y-127675690D01*
X90346315Y-127615048D01*
X90355883Y-127537189D01*
X90366484Y-127458923D01*
X90395790Y-127251666D01*
X90754562Y-127251666D01*
X90862737Y-127252339D01*
X90957837Y-127254218D01*
X91034626Y-127257092D01*
X91087868Y-127260751D01*
X91112328Y-127264986D01*
X91113334Y-127266066D01*
X91110336Y-127290030D01*
X91102574Y-127337246D01*
X91094373Y-127383031D01*
X91075413Y-127485597D01*
X91142050Y-127553840D01*
X91208688Y-127622083D01*
X91447643Y-127621888D01*
X91686598Y-127621694D01*
X91779972Y-127538104D01*
X91823678Y-127498033D01*
X91852304Y-127465853D01*
X91870723Y-127431621D01*
X91883807Y-127385396D01*
X91896427Y-127317237D01*
X91900747Y-127291644D01*
X91928146Y-127128774D01*
X91872036Y-127057929D01*
X91815925Y-126987083D01*
X90886279Y-126987083D01*
X90715905Y-126781303D01*
X90655966Y-126708259D01*
X90604260Y-126644020D01*
X90564922Y-126593821D01*
X90542089Y-126562896D01*
X90538192Y-126556398D01*
X90539399Y-126534101D01*
X90546935Y-126483173D01*
X90559663Y-126409283D01*
X90576444Y-126318104D01*
X90596142Y-126215307D01*
X90617617Y-126106562D01*
X90639733Y-125997542D01*
X90661351Y-125893917D01*
X90681334Y-125801358D01*
X90698544Y-125725538D01*
X90711843Y-125672127D01*
X90720093Y-125646797D01*
X90720898Y-125645704D01*
X90738018Y-125631094D01*
X90777448Y-125597499D01*
X90834632Y-125548798D01*
X90905012Y-125488872D01*
X90975608Y-125428775D01*
X91217118Y-125223194D01*
X92533264Y-125223256D01*
X92533264Y-125223256D01*
G37*
X92533264Y-125223256D02*
X92705243Y-125424810D01*
X92782769Y-125518306D01*
X92836345Y-125589256D01*
X92867365Y-125639655D01*
X92877223Y-125671189D01*
X92874730Y-125705947D01*
X92868080Y-125766332D01*
X92858517Y-125843108D01*
X92847284Y-125927039D01*
X92835625Y-126008891D01*
X92824784Y-126079427D01*
X92816004Y-126129413D01*
X92814632Y-126136007D01*
X92810889Y-126149452D01*
X92803231Y-126159456D01*
X92787003Y-126166527D01*
X92757550Y-126171173D01*
X92710216Y-126173904D01*
X92640348Y-126175229D01*
X92543290Y-126175656D01*
X92451590Y-126175694D01*
X92097185Y-126175694D01*
X92107495Y-126118368D01*
X92122638Y-126032274D01*
X92130855Y-125972791D01*
X92131410Y-125931801D01*
X92123572Y-125901185D01*
X92106606Y-125872824D01*
X92082539Y-125842032D01*
X92024652Y-125770000D01*
X91525747Y-125770000D01*
X91433938Y-125853784D01*
X91387727Y-125897644D01*
X91358366Y-125933561D01*
X91339720Y-125973231D01*
X91325652Y-126028346D01*
X91315929Y-126078680D01*
X91300308Y-126167713D01*
X91292773Y-126230934D01*
X91293926Y-126277007D01*
X91304367Y-126314594D01*
X91324699Y-126352358D01*
X91336164Y-126370100D01*
X91382605Y-126440277D01*
X92305465Y-126440277D01*
X92481100Y-126634846D01*
X92543427Y-126705157D01*
X92596814Y-126767782D01*
X92636896Y-126817413D01*
X92659308Y-126848745D01*
X92662437Y-126855319D01*
X92661390Y-126879798D01*
X92655314Y-126932994D01*
X92645155Y-127008857D01*
X92631861Y-127101336D01*
X92616378Y-127204382D01*
X92599654Y-127311943D01*
X92582635Y-127417969D01*
X92566268Y-127516411D01*
X92551500Y-127601216D01*
X92539277Y-127666335D01*
X92530548Y-127705717D01*
X92528216Y-127712979D01*
X92511569Y-127733592D01*
X92472870Y-127773329D01*
X92416494Y-127827950D01*
X92346820Y-127893212D01*
X92268825Y-127964333D01*
X92022025Y-128186527D01*
X91422159Y-128183878D01*
X91276564Y-128182937D01*
X91139247Y-128181485D01*
X91014961Y-128179615D01*
X90908458Y-128177420D01*
X90824492Y-128174993D01*
X90767814Y-128172428D01*
X90747268Y-128170649D01*
X90716695Y-128164817D01*
X90689722Y-128154013D01*
X90661411Y-128133882D01*
X90626822Y-128100069D01*
X90581018Y-128048218D01*
X90519060Y-127973974D01*
X90505257Y-127957222D01*
X90426655Y-127858446D01*
X90372554Y-127782896D01*
X90343281Y-127731057D01*
X90337724Y-127710277D01*
X90339925Y-127675690D01*
X90346315Y-127615048D01*
X90355883Y-127537189D01*
X90366484Y-127458923D01*
X90395790Y-127251666D01*
X90754562Y-127251666D01*
X90862737Y-127252339D01*
X90957837Y-127254218D01*
X91034626Y-127257092D01*
X91087868Y-127260751D01*
X91112328Y-127264986D01*
X91113334Y-127266066D01*
X91110336Y-127290030D01*
X91102574Y-127337246D01*
X91094373Y-127383031D01*
X91075413Y-127485597D01*
X91142050Y-127553840D01*
X91208688Y-127622083D01*
X91447643Y-127621888D01*
X91686598Y-127621694D01*
X91779972Y-127538104D01*
X91823678Y-127498033D01*
X91852304Y-127465853D01*
X91870723Y-127431621D01*
X91883807Y-127385396D01*
X91896427Y-127317237D01*
X91900747Y-127291644D01*
X91928146Y-127128774D01*
X91872036Y-127057929D01*
X91815925Y-126987083D01*
X90886279Y-126987083D01*
X90715905Y-126781303D01*
X90655966Y-126708259D01*
X90604260Y-126644020D01*
X90564922Y-126593821D01*
X90542089Y-126562896D01*
X90538192Y-126556398D01*
X90539399Y-126534101D01*
X90546935Y-126483173D01*
X90559663Y-126409283D01*
X90576444Y-126318104D01*
X90596142Y-126215307D01*
X90617617Y-126106562D01*
X90639733Y-125997542D01*
X90661351Y-125893917D01*
X90681334Y-125801358D01*
X90698544Y-125725538D01*
X90711843Y-125672127D01*
X90720093Y-125646797D01*
X90720898Y-125645704D01*
X90738018Y-125631094D01*
X90777448Y-125597499D01*
X90834632Y-125548798D01*
X90905012Y-125488872D01*
X90975608Y-125428775D01*
X91217118Y-125223194D01*
X92533264Y-125223256D01*
G36*
X94325669Y-118644162D02*
X94409830Y-118645285D01*
X94468380Y-118647706D01*
X94506151Y-118651877D01*
X94527974Y-118658249D01*
X94538683Y-118667272D01*
X94541967Y-118674757D01*
X94546933Y-118701587D01*
X94555188Y-118757253D01*
X94565882Y-118835552D01*
X94578167Y-118930287D01*
X94590177Y-119026891D01*
X94629319Y-119348157D01*
X94727820Y-119367763D01*
X94786423Y-119379806D01*
X94867506Y-119396967D01*
X94959113Y-119416698D01*
X95027235Y-119431584D01*
X95116372Y-119450405D01*
X95177041Y-119460904D01*
X95214920Y-119463626D01*
X95235686Y-119459117D01*
X95242861Y-119452309D01*
X95256047Y-119430285D01*
X95284008Y-119382942D01*
X95323721Y-119315421D01*
X95372162Y-119232861D01*
X95426310Y-119140404D01*
X95430001Y-119134095D01*
X95484501Y-119042761D01*
X95534211Y-118962868D01*
X95576039Y-118899111D01*
X95606895Y-118856188D01*
X95623686Y-118838797D01*
X95624422Y-118838644D01*
X95647282Y-118844700D01*
X95697077Y-118861952D01*
X95768075Y-118888280D01*
X95854542Y-118921566D01*
X95935951Y-118953760D01*
X96225489Y-119069605D01*
X96183330Y-119222754D01*
X96160306Y-119305441D01*
X96131604Y-119407143D01*
X96101429Y-119513011D01*
X96081587Y-119581977D01*
X96022003Y-119788052D01*
X96173814Y-119880496D01*
X96251591Y-119929082D01*
X96329869Y-119980020D01*
X96395876Y-120024929D01*
X96416810Y-120039936D01*
X96507995Y-120106932D01*
X96818133Y-119876662D01*
X96909293Y-119809721D01*
X96991226Y-119750969D01*
X97059655Y-119703358D01*
X97110299Y-119669842D01*
X97138879Y-119653373D01*
X97143292Y-119652258D01*
X97160397Y-119665787D01*
X97198543Y-119699686D01*
X97253309Y-119749905D01*
X97320274Y-119812399D01*
X97383477Y-119872139D01*
X97608642Y-120086154D01*
X97368462Y-120388087D01*
X97128282Y-120690021D01*
X97240821Y-120839229D01*
X97294385Y-120911526D01*
X97345815Y-120983156D01*
X97387543Y-121043480D01*
X97403937Y-121068493D01*
X97434186Y-121113102D01*
X97457864Y-121142178D01*
X97466629Y-121148579D01*
X97486530Y-121144207D01*
X97535340Y-121131963D01*
X97607912Y-121113183D01*
X97699103Y-121089203D01*
X97803765Y-121061359D01*
X97843510Y-121050711D01*
X97951328Y-121022187D01*
X98047184Y-120997614D01*
X98126029Y-120978222D01*
X98182811Y-120965243D01*
X98212481Y-120959904D01*
X98215572Y-120960108D01*
X98229913Y-120983544D01*
X98253377Y-121031771D01*
X98283330Y-121098380D01*
X98317140Y-121176963D01*
X98352176Y-121261110D01*
X98385805Y-121344412D01*
X98415394Y-121420460D01*
X98438312Y-121482845D01*
X98451927Y-121525159D01*
X98454051Y-121540782D01*
X98433329Y-121554907D01*
X98387867Y-121582247D01*
X98323295Y-121619673D01*
X98245242Y-121664057D01*
X98159338Y-121712272D01*
X98071214Y-121761189D01*
X97986500Y-121807681D01*
X97910824Y-121848619D01*
X97849818Y-121880875D01*
X97809111Y-121901322D01*
X97794767Y-121907083D01*
X97786529Y-121920984D01*
X97790364Y-121944601D01*
X97795911Y-121962703D01*
X97803926Y-121990153D01*
X97815589Y-122031158D01*
X97832084Y-122089923D01*
X97854589Y-122170655D01*
X97884288Y-122277558D01*
X97916579Y-122393983D01*
X97946427Y-122501647D01*
X98264915Y-122540111D01*
X98370448Y-122553059D01*
X98466772Y-122565254D01*
X98547213Y-122575822D01*
X98605097Y-122583888D01*
X98631910Y-122588189D01*
X98680417Y-122597803D01*
X98680417Y-123210762D01*
X98623091Y-123220253D01*
X98585735Y-123225828D01*
X98521119Y-123234847D01*
X98436972Y-123246256D01*
X98341024Y-123258999D01*
X98293798Y-123265183D01*
X98199771Y-123277941D01*
X98118579Y-123289915D01*
X98056448Y-123300112D01*
X98019605Y-123307537D01*
X98012333Y-123310121D01*
X98005039Y-123329558D01*
X97990824Y-123377403D01*
X97971310Y-123447838D01*
X97948120Y-123535042D01*
X97929043Y-123608920D01*
X97855252Y-123898220D01*
X98152627Y-124067606D01*
X98245164Y-124120768D01*
X98326870Y-124168570D01*
X98392880Y-124208095D01*
X98438330Y-124236427D01*
X98458356Y-124250648D01*
X98458755Y-124251153D01*
X98456356Y-124273723D01*
X98441119Y-124321021D01*
X98415937Y-124386609D01*
X98383698Y-124464053D01*
X98347295Y-124546916D01*
X98309616Y-124628763D01*
X98273554Y-124703158D01*
X98241997Y-124763664D01*
X98217837Y-124803846D01*
X98204472Y-124817335D01*
X98178288Y-124813007D01*
X98125086Y-124801253D01*
X98051940Y-124783729D01*
X97965920Y-124762091D01*
X97940533Y-124755532D01*
X97853889Y-124734129D01*
X97779680Y-124717905D01*
X97724414Y-124708123D01*
X97694602Y-124706045D01*
X97691522Y-124707189D01*
X97684196Y-124729599D01*
X97673139Y-124781603D01*
X97659197Y-124857815D01*
X97643217Y-124952848D01*
X97626045Y-125061317D01*
X97608528Y-125177835D01*
X97591511Y-125297017D01*
X97575842Y-125413476D01*
X97562367Y-125521827D01*
X97559155Y-125549514D01*
X97549254Y-125655833D01*
X97540704Y-125784274D01*
X97534192Y-125921686D01*
X97530403Y-126054919D01*
X97529751Y-126113958D01*
X97532845Y-126314143D01*
X97544503Y-126484515D01*
X97565670Y-126629704D01*
X97597286Y-126754341D01*
X97640296Y-126863058D01*
X97695642Y-126960484D01*
X97704903Y-126974173D01*
X97729782Y-127016056D01*
X97740171Y-127045918D01*
X97738665Y-127052770D01*
X97716040Y-127058832D01*
X97668550Y-127062957D01*
X97608163Y-127064240D01*
X97498480Y-127053470D01*
X97399908Y-127020070D01*
X97304907Y-126960434D01*
X97207570Y-126872618D01*
X97117377Y-126763075D01*
X97032327Y-126625866D01*
X96955917Y-126468562D01*
X96891647Y-126298738D01*
X96843016Y-126123965D01*
X96828194Y-126051454D01*
X96777475Y-125843735D01*
X96705566Y-125659336D01*
X96613774Y-125499782D01*
X96503406Y-125366599D01*
X96375770Y-125261315D01*
X96232172Y-125185454D01*
X96073919Y-125140544D01*
X96044072Y-125135877D01*
X95983002Y-125128021D01*
X95937846Y-125123263D01*
X95917774Y-125122558D01*
X95917543Y-125122689D01*
X95924878Y-125138251D01*
X95947541Y-125179037D01*
X95982661Y-125240048D01*
X96027368Y-125316285D01*
X96067361Y-125383626D01*
X96230540Y-125664521D01*
X96370662Y-125921825D01*
X96487576Y-126155190D01*
X96581133Y-126364267D01*
X96651181Y-126548711D01*
X96697569Y-126708173D01*
X96720148Y-126842306D01*
X96722500Y-126893510D01*
X96720361Y-126958550D01*
X96711069Y-127002300D01*
X96690314Y-127038633D01*
X96669598Y-127063747D01*
X96595672Y-127121969D01*
X96538315Y-127143735D01*
X96487867Y-127155290D01*
X96446479Y-127160144D01*
X96401408Y-127158320D01*
X96339909Y-127149841D01*
X96305248Y-127144157D01*
X96238192Y-127129029D01*
X96158902Y-127105629D01*
X96102401Y-127085711D01*
X95990486Y-127042457D01*
X96078681Y-127039142D01*
X96142790Y-127034838D01*
X96201110Y-127027873D01*
X96218949Y-127024656D01*
X96271023Y-127013487D01*
X96344294Y-126585771D01*
X96417566Y-126158055D01*
X95670666Y-126158055D01*
X95648954Y-125924340D01*
X95631067Y-125751003D01*
X95607508Y-125552276D01*
X95579514Y-125337360D01*
X95548326Y-125115459D01*
X95515181Y-124895776D01*
X95487082Y-124721772D01*
X95434273Y-124405558D01*
X95333143Y-124299429D01*
X95081835Y-124047350D01*
X94825460Y-123812580D01*
X94566191Y-123596383D01*
X94306202Y-123400022D01*
X94047665Y-123224761D01*
X93792754Y-123071863D01*
X93543642Y-122942591D01*
X93302503Y-122838208D01*
X93071509Y-122759979D01*
X92852833Y-122709166D01*
X92648649Y-122687033D01*
X92559267Y-122686862D01*
X92414221Y-122692014D01*
X92282459Y-122989327D01*
X92229346Y-123112325D01*
X92192226Y-123205489D01*
X92171250Y-123268404D01*
X92166567Y-123300659D01*
X92168186Y-123304130D01*
X92196395Y-123314032D01*
X92251442Y-123319732D01*
X92325161Y-123321421D01*
X92409389Y-123319294D01*
X92495960Y-123313543D01*
X92576709Y-123304361D01*
X92639098Y-123292990D01*
X92738172Y-123262882D01*
X92852443Y-123217345D01*
X92969543Y-123162206D01*
X93077104Y-123103292D01*
X93162760Y-123046430D01*
X93163342Y-123045985D01*
X93246615Y-122982221D01*
X93386335Y-123036103D01*
X93591476Y-123131025D01*
X93800656Y-123258306D01*
X94011180Y-123415677D01*
X94220353Y-123600867D01*
X94425482Y-123811608D01*
X94623870Y-124045628D01*
X94696754Y-124139953D01*
X94756322Y-124220979D01*
X94794633Y-124278390D01*
X94813316Y-124315417D01*
X94813997Y-124335293D01*
X94798306Y-124341249D01*
X94798144Y-124341250D01*
X94775471Y-124343453D01*
X94723704Y-124349555D01*
X94648717Y-124358799D01*
X94556384Y-124370423D01*
X94452580Y-124383670D01*
X94343179Y-124397779D01*
X94234057Y-124411991D01*
X94131086Y-124425547D01*
X94040141Y-124437687D01*
X93967098Y-124447653D01*
X93917830Y-124454685D01*
X93904688Y-124456738D01*
X93847361Y-124466320D01*
X93847361Y-124692083D01*
X93848376Y-124801542D01*
X93851120Y-124920718D01*
X93855142Y-125033289D01*
X93858758Y-125104108D01*
X93870155Y-125290371D01*
X93922983Y-125300936D01*
X93994512Y-125322450D01*
X94087749Y-125361112D01*
X94195986Y-125413168D01*
X94312512Y-125474864D01*
X94430617Y-125542446D01*
X94543593Y-125612158D01*
X94644729Y-125680248D01*
X94727316Y-125742959D01*
X94753789Y-125765819D01*
X94854136Y-125852264D01*
X94960082Y-125935519D01*
X95063223Y-126009443D01*
X95155159Y-126067894D01*
X95201146Y-126092835D01*
X95251493Y-126121571D01*
X95274554Y-126143562D01*
X95268251Y-126156129D01*
X95251790Y-126158055D01*
X95232458Y-126171368D01*
X95197409Y-126207384D01*
X95151597Y-126260219D01*
X95099975Y-126323988D01*
X95047498Y-126392807D01*
X95008915Y-126446556D01*
X94992592Y-126440836D01*
X94953739Y-126415285D01*
X94896592Y-126373052D01*
X94825386Y-126317289D01*
X94744357Y-126251143D01*
X94729585Y-126238821D01*
X94638862Y-126163455D01*
X94549548Y-126090253D01*
X94468102Y-126024436D01*
X94400982Y-125971225D01*
X94356324Y-125937073D01*
X94217418Y-125844603D01*
X94067642Y-125762044D01*
X93915826Y-125693407D01*
X93770803Y-125642703D01*
X93646506Y-125614672D01*
X93556320Y-125601442D01*
X93560076Y-125363811D01*
X93561550Y-125279681D01*
X93563719Y-125168183D01*
X93566416Y-125037217D01*
X93569476Y-124894682D01*
X93572734Y-124748477D01*
X93575312Y-124636701D01*
X93586792Y-124147222D01*
X93809681Y-124146801D01*
X93953789Y-124143661D01*
X94064358Y-124134885D01*
X94140957Y-124120527D01*
X94183158Y-124100641D01*
X94184478Y-124099383D01*
X94185993Y-124074448D01*
X94167203Y-124028995D01*
X94131730Y-123968432D01*
X94083192Y-123898168D01*
X94025210Y-123823610D01*
X93961403Y-123750167D01*
X93925746Y-123712821D01*
X93774559Y-123581944D01*
X93613786Y-123484911D01*
X93443000Y-123421609D01*
X93261774Y-123391924D01*
X93069683Y-123395742D01*
X92871839Y-123431533D01*
X92760648Y-123464380D01*
X92648230Y-123505779D01*
X92541571Y-123552394D01*
X92447659Y-123600890D01*
X92373478Y-123647932D01*
X92326017Y-123690185D01*
X92323578Y-123693266D01*
X92239726Y-123830039D01*
X92176943Y-123990352D01*
X92136848Y-124168313D01*
X92121062Y-124358029D01*
X92121634Y-124427835D01*
X92127570Y-124611434D01*
X91796008Y-124751852D01*
X91695701Y-124793792D01*
X91606784Y-124829939D01*
X91534206Y-124858367D01*
X91482919Y-124877146D01*
X91457874Y-124884349D01*
X91456311Y-124884134D01*
X91460242Y-124866333D01*
X91474714Y-124818572D01*
X91498615Y-124744192D01*
X91530836Y-124646533D01*
X91534132Y-124636701D01*
X91677917Y-124636701D01*
X91682301Y-124640326D01*
X91699314Y-124635673D01*
X91734082Y-124620596D01*
X91791731Y-124592945D01*
X91844510Y-124566911D01*
X91914475Y-124531260D01*
X91957773Y-124505754D01*
X91979844Y-124485924D01*
X91986130Y-124467304D01*
X91984002Y-124452396D01*
X91980479Y-124406977D01*
X91984018Y-124335783D01*
X91993426Y-124247336D01*
X92007513Y-124150158D01*
X92025085Y-124052773D01*
X92044950Y-123963703D01*
X92059879Y-123909910D01*
X92089053Y-123823331D01*
X92123684Y-123731029D01*
X92156434Y-123652535D01*
X92157400Y-123650400D01*
X92210806Y-123532815D01*
X92161179Y-123470620D01*
X92111553Y-123408425D01*
X91894804Y-124020358D01*
X91845555Y-124159507D01*
X91800222Y-124287791D01*
X91760110Y-124401507D01*
X91726521Y-124496953D01*
X91700759Y-124570423D01*
X91684128Y-124618215D01*
X91677929Y-124636624D01*
X91677917Y-124636701D01*
X91534132Y-124636701D01*
X91570266Y-124528933D01*
X91615795Y-124394732D01*
X91666312Y-124247269D01*
X91712709Y-124112944D01*
X91767722Y-123953884D01*
X91819710Y-123802852D01*
X91867407Y-123663579D01*
X91909546Y-123539794D01*
X91944862Y-123435225D01*
X91972089Y-123353603D01*
X91989960Y-123298656D01*
X91996591Y-123276716D01*
X92019425Y-123201533D01*
X92053780Y-123102502D01*
X92096442Y-122987827D01*
X92144197Y-122865715D01*
X92193832Y-122744369D01*
X92242133Y-122631994D01*
X92285886Y-122536797D01*
X92288645Y-122531091D01*
X92408785Y-122303005D01*
X92537978Y-122093516D01*
X92671316Y-121910511D01*
X92686250Y-121892061D01*
X92792422Y-121762386D01*
X92724579Y-121663365D01*
X92672612Y-121595115D01*
X92600492Y-121510815D01*
X92514842Y-121417385D01*
X92422284Y-121321742D01*
X92329443Y-121230807D01*
X92242942Y-121151496D01*
X92198125Y-121113419D01*
X91955805Y-120935466D01*
X91691317Y-120780077D01*
X91402639Y-120646284D01*
X91087750Y-120533124D01*
X90845180Y-120464689D01*
X91704930Y-120464689D01*
X91865751Y-120522110D01*
X92111025Y-120627850D01*
X92339017Y-120762706D01*
X92547171Y-120924201D01*
X92732929Y-121109855D01*
X92893736Y-121317189D01*
X93027034Y-121543725D01*
X93108157Y-121726655D01*
X93123576Y-121766713D01*
X93242934Y-121706691D01*
X93463876Y-121614999D01*
X93699111Y-121553804D01*
X93944982Y-121523233D01*
X94197835Y-121523413D01*
X94454014Y-121554470D01*
X94709865Y-121616530D01*
X94817500Y-121652286D01*
X95073874Y-121761288D01*
X95318162Y-121898196D01*
X95546600Y-122059758D01*
X95755422Y-122242724D01*
X95940863Y-122443844D01*
X96099159Y-122659867D01*
X96210666Y-122854998D01*
X96313537Y-123098598D01*
X96381895Y-123348591D01*
X96415742Y-123605142D01*
X96415081Y-123868415D01*
X96379912Y-124138577D01*
X96310237Y-124415792D01*
X96227966Y-124646968D01*
X96199344Y-124718921D01*
X96176391Y-124777794D01*
X96161831Y-124816518D01*
X96158056Y-124828179D01*
X96173344Y-124833188D01*
X96207771Y-124835139D01*
X96300203Y-124847197D01*
X96407813Y-124880729D01*
X96521339Y-124931766D01*
X96631517Y-124996342D01*
X96699537Y-125045753D01*
X96812856Y-125155378D01*
X96917204Y-125293890D01*
X97009727Y-125455434D01*
X97087574Y-125634155D01*
X97147893Y-125824197D01*
X97187832Y-126019704D01*
X97193154Y-126059198D01*
X97197989Y-126098208D01*
X97201949Y-126124303D01*
X97205583Y-126134476D01*
X97209446Y-126125719D01*
X97214088Y-126095028D01*
X97220061Y-126039394D01*
X97227917Y-125955813D01*
X97238208Y-125841276D01*
X97242994Y-125787639D01*
X97284328Y-125399016D01*
X97340147Y-124989920D01*
X97408559Y-124571124D01*
X97487669Y-124153399D01*
X97575583Y-123747518D01*
X97666548Y-123378846D01*
X97727279Y-123148457D01*
X97700370Y-122981971D01*
X97628868Y-122646071D01*
X97524372Y-122312575D01*
X97389123Y-121985673D01*
X97225359Y-121669556D01*
X97035320Y-121368414D01*
X96821246Y-121086438D01*
X96585375Y-120827818D01*
X96510327Y-120755063D01*
X96337831Y-120602519D01*
X96146363Y-120450377D01*
X95944987Y-120305060D01*
X95742768Y-120172992D01*
X95548770Y-120060595D01*
X95478959Y-120024311D01*
X95268831Y-119930476D01*
X95036411Y-119846748D01*
X94794102Y-119776852D01*
X94554306Y-119724509D01*
X94402986Y-119701331D01*
X94170084Y-119683094D01*
X93919089Y-119682214D01*
X93662172Y-119697915D01*
X93411501Y-119729425D01*
X93179246Y-119775967D01*
X93161717Y-119780344D01*
X92886898Y-119862254D01*
X92604374Y-119969041D01*
X92325313Y-120095780D01*
X92060880Y-120237542D01*
X91898611Y-120337715D01*
X91704930Y-120464689D01*
X90845180Y-120464689D01*
X90830243Y-120460475D01*
X90746084Y-120438851D01*
X90671432Y-120418982D01*
X90614704Y-120403149D01*
X90585263Y-120393996D01*
X90575766Y-120387981D01*
X90574283Y-120377580D01*
X90583214Y-120360158D01*
X90604955Y-120333083D01*
X90641904Y-120293719D01*
X90696459Y-120239432D01*
X90771018Y-120167589D01*
X90867978Y-120075556D01*
X90918776Y-120027588D01*
X91014487Y-119937617D01*
X91102234Y-119855747D01*
X91178655Y-119785067D01*
X91240388Y-119728663D01*
X91284072Y-119689623D01*
X91306347Y-119671034D01*
X91308144Y-119669955D01*
X91327363Y-119677858D01*
X91369428Y-119703491D01*
X91429011Y-119743348D01*
X91500785Y-119793926D01*
X91539859Y-119822347D01*
X91755142Y-119980548D01*
X91914898Y-119893353D01*
X92005769Y-119845122D01*
X92107723Y-119793112D01*
X92202776Y-119746445D01*
X92228993Y-119734039D01*
X92295127Y-119701236D01*
X92347076Y-119671851D01*
X92377851Y-119650038D01*
X92383246Y-119642383D01*
X92378466Y-119619457D01*
X92365336Y-119569018D01*
X92345576Y-119497365D01*
X92320908Y-119410795D01*
X92305624Y-119358264D01*
X92279773Y-119266948D01*
X92259064Y-119187726D01*
X92244943Y-119126645D01*
X92238854Y-119089753D01*
X92239566Y-119081828D01*
X92260066Y-119070798D01*
X92306817Y-119050061D01*
X92373042Y-119022296D01*
X92451963Y-118990186D01*
X92536800Y-118956411D01*
X92620776Y-118923651D01*
X92697112Y-118894590D01*
X92759029Y-118871906D01*
X92799749Y-118858283D01*
X92811641Y-118855555D01*
X92827587Y-118869893D01*
X92858278Y-118909701D01*
X92900356Y-118970170D01*
X92950463Y-119046492D01*
X92999516Y-119124548D01*
X93052818Y-119211039D01*
X93099307Y-119286448D01*
X93135992Y-119345927D01*
X93159882Y-119384628D01*
X93167982Y-119397698D01*
X93185171Y-119396374D01*
X93227895Y-119388996D01*
X93287240Y-119377119D01*
X93292953Y-119375912D01*
X93365125Y-119362479D01*
X93457570Y-119347915D01*
X93555446Y-119334472D01*
X93604758Y-119328539D01*
X93694761Y-119317060D01*
X93754393Y-119305972D01*
X93788525Y-119294072D01*
X93802027Y-119280156D01*
X93802143Y-119279770D01*
X93806911Y-119253918D01*
X93815221Y-119199381D01*
X93826172Y-119122470D01*
X93838859Y-119029494D01*
X93849603Y-118948159D01*
X93889229Y-118643889D01*
X94211065Y-118643889D01*
X94325669Y-118644162D01*
X94325669Y-118644162D01*
G37*
X94325669Y-118644162D02*
X94409830Y-118645285D01*
X94468380Y-118647706D01*
X94506151Y-118651877D01*
X94527974Y-118658249D01*
X94538683Y-118667272D01*
X94541967Y-118674757D01*
X94546933Y-118701587D01*
X94555188Y-118757253D01*
X94565882Y-118835552D01*
X94578167Y-118930287D01*
X94590177Y-119026891D01*
X94629319Y-119348157D01*
X94727820Y-119367763D01*
X94786423Y-119379806D01*
X94867506Y-119396967D01*
X94959113Y-119416698D01*
X95027235Y-119431584D01*
X95116372Y-119450405D01*
X95177041Y-119460904D01*
X95214920Y-119463626D01*
X95235686Y-119459117D01*
X95242861Y-119452309D01*
X95256047Y-119430285D01*
X95284008Y-119382942D01*
X95323721Y-119315421D01*
X95372162Y-119232861D01*
X95426310Y-119140404D01*
X95430001Y-119134095D01*
X95484501Y-119042761D01*
X95534211Y-118962868D01*
X95576039Y-118899111D01*
X95606895Y-118856188D01*
X95623686Y-118838797D01*
X95624422Y-118838644D01*
X95647282Y-118844700D01*
X95697077Y-118861952D01*
X95768075Y-118888280D01*
X95854542Y-118921566D01*
X95935951Y-118953760D01*
X96225489Y-119069605D01*
X96183330Y-119222754D01*
X96160306Y-119305441D01*
X96131604Y-119407143D01*
X96101429Y-119513011D01*
X96081587Y-119581977D01*
X96022003Y-119788052D01*
X96173814Y-119880496D01*
X96251591Y-119929082D01*
X96329869Y-119980020D01*
X96395876Y-120024929D01*
X96416810Y-120039936D01*
X96507995Y-120106932D01*
X96818133Y-119876662D01*
X96909293Y-119809721D01*
X96991226Y-119750969D01*
X97059655Y-119703358D01*
X97110299Y-119669842D01*
X97138879Y-119653373D01*
X97143292Y-119652258D01*
X97160397Y-119665787D01*
X97198543Y-119699686D01*
X97253309Y-119749905D01*
X97320274Y-119812399D01*
X97383477Y-119872139D01*
X97608642Y-120086154D01*
X97368462Y-120388087D01*
X97128282Y-120690021D01*
X97240821Y-120839229D01*
X97294385Y-120911526D01*
X97345815Y-120983156D01*
X97387543Y-121043480D01*
X97403937Y-121068493D01*
X97434186Y-121113102D01*
X97457864Y-121142178D01*
X97466629Y-121148579D01*
X97486530Y-121144207D01*
X97535340Y-121131963D01*
X97607912Y-121113183D01*
X97699103Y-121089203D01*
X97803765Y-121061359D01*
X97843510Y-121050711D01*
X97951328Y-121022187D01*
X98047184Y-120997614D01*
X98126029Y-120978222D01*
X98182811Y-120965243D01*
X98212481Y-120959904D01*
X98215572Y-120960108D01*
X98229913Y-120983544D01*
X98253377Y-121031771D01*
X98283330Y-121098380D01*
X98317140Y-121176963D01*
X98352176Y-121261110D01*
X98385805Y-121344412D01*
X98415394Y-121420460D01*
X98438312Y-121482845D01*
X98451927Y-121525159D01*
X98454051Y-121540782D01*
X98433329Y-121554907D01*
X98387867Y-121582247D01*
X98323295Y-121619673D01*
X98245242Y-121664057D01*
X98159338Y-121712272D01*
X98071214Y-121761189D01*
X97986500Y-121807681D01*
X97910824Y-121848619D01*
X97849818Y-121880875D01*
X97809111Y-121901322D01*
X97794767Y-121907083D01*
X97786529Y-121920984D01*
X97790364Y-121944601D01*
X97795911Y-121962703D01*
X97803926Y-121990153D01*
X97815589Y-122031158D01*
X97832084Y-122089923D01*
X97854589Y-122170655D01*
X97884288Y-122277558D01*
X97916579Y-122393983D01*
X97946427Y-122501647D01*
X98264915Y-122540111D01*
X98370448Y-122553059D01*
X98466772Y-122565254D01*
X98547213Y-122575822D01*
X98605097Y-122583888D01*
X98631910Y-122588189D01*
X98680417Y-122597803D01*
X98680417Y-123210762D01*
X98623091Y-123220253D01*
X98585735Y-123225828D01*
X98521119Y-123234847D01*
X98436972Y-123246256D01*
X98341024Y-123258999D01*
X98293798Y-123265183D01*
X98199771Y-123277941D01*
X98118579Y-123289915D01*
X98056448Y-123300112D01*
X98019605Y-123307537D01*
X98012333Y-123310121D01*
X98005039Y-123329558D01*
X97990824Y-123377403D01*
X97971310Y-123447838D01*
X97948120Y-123535042D01*
X97929043Y-123608920D01*
X97855252Y-123898220D01*
X98152627Y-124067606D01*
X98245164Y-124120768D01*
X98326870Y-124168570D01*
X98392880Y-124208095D01*
X98438330Y-124236427D01*
X98458356Y-124250648D01*
X98458755Y-124251153D01*
X98456356Y-124273723D01*
X98441119Y-124321021D01*
X98415937Y-124386609D01*
X98383698Y-124464053D01*
X98347295Y-124546916D01*
X98309616Y-124628763D01*
X98273554Y-124703158D01*
X98241997Y-124763664D01*
X98217837Y-124803846D01*
X98204472Y-124817335D01*
X98178288Y-124813007D01*
X98125086Y-124801253D01*
X98051940Y-124783729D01*
X97965920Y-124762091D01*
X97940533Y-124755532D01*
X97853889Y-124734129D01*
X97779680Y-124717905D01*
X97724414Y-124708123D01*
X97694602Y-124706045D01*
X97691522Y-124707189D01*
X97684196Y-124729599D01*
X97673139Y-124781603D01*
X97659197Y-124857815D01*
X97643217Y-124952848D01*
X97626045Y-125061317D01*
X97608528Y-125177835D01*
X97591511Y-125297017D01*
X97575842Y-125413476D01*
X97562367Y-125521827D01*
X97559155Y-125549514D01*
X97549254Y-125655833D01*
X97540704Y-125784274D01*
X97534192Y-125921686D01*
X97530403Y-126054919D01*
X97529751Y-126113958D01*
X97532845Y-126314143D01*
X97544503Y-126484515D01*
X97565670Y-126629704D01*
X97597286Y-126754341D01*
X97640296Y-126863058D01*
X97695642Y-126960484D01*
X97704903Y-126974173D01*
X97729782Y-127016056D01*
X97740171Y-127045918D01*
X97738665Y-127052770D01*
X97716040Y-127058832D01*
X97668550Y-127062957D01*
X97608163Y-127064240D01*
X97498480Y-127053470D01*
X97399908Y-127020070D01*
X97304907Y-126960434D01*
X97207570Y-126872618D01*
X97117377Y-126763075D01*
X97032327Y-126625866D01*
X96955917Y-126468562D01*
X96891647Y-126298738D01*
X96843016Y-126123965D01*
X96828194Y-126051454D01*
X96777475Y-125843735D01*
X96705566Y-125659336D01*
X96613774Y-125499782D01*
X96503406Y-125366599D01*
X96375770Y-125261315D01*
X96232172Y-125185454D01*
X96073919Y-125140544D01*
X96044072Y-125135877D01*
X95983002Y-125128021D01*
X95937846Y-125123263D01*
X95917774Y-125122558D01*
X95917543Y-125122689D01*
X95924878Y-125138251D01*
X95947541Y-125179037D01*
X95982661Y-125240048D01*
X96027368Y-125316285D01*
X96067361Y-125383626D01*
X96230540Y-125664521D01*
X96370662Y-125921825D01*
X96487576Y-126155190D01*
X96581133Y-126364267D01*
X96651181Y-126548711D01*
X96697569Y-126708173D01*
X96720148Y-126842306D01*
X96722500Y-126893510D01*
X96720361Y-126958550D01*
X96711069Y-127002300D01*
X96690314Y-127038633D01*
X96669598Y-127063747D01*
X96595672Y-127121969D01*
X96538315Y-127143735D01*
X96487867Y-127155290D01*
X96446479Y-127160144D01*
X96401408Y-127158320D01*
X96339909Y-127149841D01*
X96305248Y-127144157D01*
X96238192Y-127129029D01*
X96158902Y-127105629D01*
X96102401Y-127085711D01*
X95990486Y-127042457D01*
X96078681Y-127039142D01*
X96142790Y-127034838D01*
X96201110Y-127027873D01*
X96218949Y-127024656D01*
X96271023Y-127013487D01*
X96344294Y-126585771D01*
X96417566Y-126158055D01*
X95670666Y-126158055D01*
X95648954Y-125924340D01*
X95631067Y-125751003D01*
X95607508Y-125552276D01*
X95579514Y-125337360D01*
X95548326Y-125115459D01*
X95515181Y-124895776D01*
X95487082Y-124721772D01*
X95434273Y-124405558D01*
X95333143Y-124299429D01*
X95081835Y-124047350D01*
X94825460Y-123812580D01*
X94566191Y-123596383D01*
X94306202Y-123400022D01*
X94047665Y-123224761D01*
X93792754Y-123071863D01*
X93543642Y-122942591D01*
X93302503Y-122838208D01*
X93071509Y-122759979D01*
X92852833Y-122709166D01*
X92648649Y-122687033D01*
X92559267Y-122686862D01*
X92414221Y-122692014D01*
X92282459Y-122989327D01*
X92229346Y-123112325D01*
X92192226Y-123205489D01*
X92171250Y-123268404D01*
X92166567Y-123300659D01*
X92168186Y-123304130D01*
X92196395Y-123314032D01*
X92251442Y-123319732D01*
X92325161Y-123321421D01*
X92409389Y-123319294D01*
X92495960Y-123313543D01*
X92576709Y-123304361D01*
X92639098Y-123292990D01*
X92738172Y-123262882D01*
X92852443Y-123217345D01*
X92969543Y-123162206D01*
X93077104Y-123103292D01*
X93162760Y-123046430D01*
X93163342Y-123045985D01*
X93246615Y-122982221D01*
X93386335Y-123036103D01*
X93591476Y-123131025D01*
X93800656Y-123258306D01*
X94011180Y-123415677D01*
X94220353Y-123600867D01*
X94425482Y-123811608D01*
X94623870Y-124045628D01*
X94696754Y-124139953D01*
X94756322Y-124220979D01*
X94794633Y-124278390D01*
X94813316Y-124315417D01*
X94813997Y-124335293D01*
X94798306Y-124341249D01*
X94798144Y-124341250D01*
X94775471Y-124343453D01*
X94723704Y-124349555D01*
X94648717Y-124358799D01*
X94556384Y-124370423D01*
X94452580Y-124383670D01*
X94343179Y-124397779D01*
X94234057Y-124411991D01*
X94131086Y-124425547D01*
X94040141Y-124437687D01*
X93967098Y-124447653D01*
X93917830Y-124454685D01*
X93904688Y-124456738D01*
X93847361Y-124466320D01*
X93847361Y-124692083D01*
X93848376Y-124801542D01*
X93851120Y-124920718D01*
X93855142Y-125033289D01*
X93858758Y-125104108D01*
X93870155Y-125290371D01*
X93922983Y-125300936D01*
X93994512Y-125322450D01*
X94087749Y-125361112D01*
X94195986Y-125413168D01*
X94312512Y-125474864D01*
X94430617Y-125542446D01*
X94543593Y-125612158D01*
X94644729Y-125680248D01*
X94727316Y-125742959D01*
X94753789Y-125765819D01*
X94854136Y-125852264D01*
X94960082Y-125935519D01*
X95063223Y-126009443D01*
X95155159Y-126067894D01*
X95201146Y-126092835D01*
X95251493Y-126121571D01*
X95274554Y-126143562D01*
X95268251Y-126156129D01*
X95251790Y-126158055D01*
X95232458Y-126171368D01*
X95197409Y-126207384D01*
X95151597Y-126260219D01*
X95099975Y-126323988D01*
X95047498Y-126392807D01*
X95008915Y-126446556D01*
X94992592Y-126440836D01*
X94953739Y-126415285D01*
X94896592Y-126373052D01*
X94825386Y-126317289D01*
X94744357Y-126251143D01*
X94729585Y-126238821D01*
X94638862Y-126163455D01*
X94549548Y-126090253D01*
X94468102Y-126024436D01*
X94400982Y-125971225D01*
X94356324Y-125937073D01*
X94217418Y-125844603D01*
X94067642Y-125762044D01*
X93915826Y-125693407D01*
X93770803Y-125642703D01*
X93646506Y-125614672D01*
X93556320Y-125601442D01*
X93560076Y-125363811D01*
X93561550Y-125279681D01*
X93563719Y-125168183D01*
X93566416Y-125037217D01*
X93569476Y-124894682D01*
X93572734Y-124748477D01*
X93575312Y-124636701D01*
X93586792Y-124147222D01*
X93809681Y-124146801D01*
X93953789Y-124143661D01*
X94064358Y-124134885D01*
X94140957Y-124120527D01*
X94183158Y-124100641D01*
X94184478Y-124099383D01*
X94185993Y-124074448D01*
X94167203Y-124028995D01*
X94131730Y-123968432D01*
X94083192Y-123898168D01*
X94025210Y-123823610D01*
X93961403Y-123750167D01*
X93925746Y-123712821D01*
X93774559Y-123581944D01*
X93613786Y-123484911D01*
X93443000Y-123421609D01*
X93261774Y-123391924D01*
X93069683Y-123395742D01*
X92871839Y-123431533D01*
X92760648Y-123464380D01*
X92648230Y-123505779D01*
X92541571Y-123552394D01*
X92447659Y-123600890D01*
X92373478Y-123647932D01*
X92326017Y-123690185D01*
X92323578Y-123693266D01*
X92239726Y-123830039D01*
X92176943Y-123990352D01*
X92136848Y-124168313D01*
X92121062Y-124358029D01*
X92121634Y-124427835D01*
X92127570Y-124611434D01*
X91796008Y-124751852D01*
X91695701Y-124793792D01*
X91606784Y-124829939D01*
X91534206Y-124858367D01*
X91482919Y-124877146D01*
X91457874Y-124884349D01*
X91456311Y-124884134D01*
X91460242Y-124866333D01*
X91474714Y-124818572D01*
X91498615Y-124744192D01*
X91530836Y-124646533D01*
X91534132Y-124636701D01*
X91677917Y-124636701D01*
X91682301Y-124640326D01*
X91699314Y-124635673D01*
X91734082Y-124620596D01*
X91791731Y-124592945D01*
X91844510Y-124566911D01*
X91914475Y-124531260D01*
X91957773Y-124505754D01*
X91979844Y-124485924D01*
X91986130Y-124467304D01*
X91984002Y-124452396D01*
X91980479Y-124406977D01*
X91984018Y-124335783D01*
X91993426Y-124247336D01*
X92007513Y-124150158D01*
X92025085Y-124052773D01*
X92044950Y-123963703D01*
X92059879Y-123909910D01*
X92089053Y-123823331D01*
X92123684Y-123731029D01*
X92156434Y-123652535D01*
X92157400Y-123650400D01*
X92210806Y-123532815D01*
X92161179Y-123470620D01*
X92111553Y-123408425D01*
X91894804Y-124020358D01*
X91845555Y-124159507D01*
X91800222Y-124287791D01*
X91760110Y-124401507D01*
X91726521Y-124496953D01*
X91700759Y-124570423D01*
X91684128Y-124618215D01*
X91677929Y-124636624D01*
X91677917Y-124636701D01*
X91534132Y-124636701D01*
X91570266Y-124528933D01*
X91615795Y-124394732D01*
X91666312Y-124247269D01*
X91712709Y-124112944D01*
X91767722Y-123953884D01*
X91819710Y-123802852D01*
X91867407Y-123663579D01*
X91909546Y-123539794D01*
X91944862Y-123435225D01*
X91972089Y-123353603D01*
X91989960Y-123298656D01*
X91996591Y-123276716D01*
X92019425Y-123201533D01*
X92053780Y-123102502D01*
X92096442Y-122987827D01*
X92144197Y-122865715D01*
X92193832Y-122744369D01*
X92242133Y-122631994D01*
X92285886Y-122536797D01*
X92288645Y-122531091D01*
X92408785Y-122303005D01*
X92537978Y-122093516D01*
X92671316Y-121910511D01*
X92686250Y-121892061D01*
X92792422Y-121762386D01*
X92724579Y-121663365D01*
X92672612Y-121595115D01*
X92600492Y-121510815D01*
X92514842Y-121417385D01*
X92422284Y-121321742D01*
X92329443Y-121230807D01*
X92242942Y-121151496D01*
X92198125Y-121113419D01*
X91955805Y-120935466D01*
X91691317Y-120780077D01*
X91402639Y-120646284D01*
X91087750Y-120533124D01*
X90845180Y-120464689D01*
X91704930Y-120464689D01*
X91865751Y-120522110D01*
X92111025Y-120627850D01*
X92339017Y-120762706D01*
X92547171Y-120924201D01*
X92732929Y-121109855D01*
X92893736Y-121317189D01*
X93027034Y-121543725D01*
X93108157Y-121726655D01*
X93123576Y-121766713D01*
X93242934Y-121706691D01*
X93463876Y-121614999D01*
X93699111Y-121553804D01*
X93944982Y-121523233D01*
X94197835Y-121523413D01*
X94454014Y-121554470D01*
X94709865Y-121616530D01*
X94817500Y-121652286D01*
X95073874Y-121761288D01*
X95318162Y-121898196D01*
X95546600Y-122059758D01*
X95755422Y-122242724D01*
X95940863Y-122443844D01*
X96099159Y-122659867D01*
X96210666Y-122854998D01*
X96313537Y-123098598D01*
X96381895Y-123348591D01*
X96415742Y-123605142D01*
X96415081Y-123868415D01*
X96379912Y-124138577D01*
X96310237Y-124415792D01*
X96227966Y-124646968D01*
X96199344Y-124718921D01*
X96176391Y-124777794D01*
X96161831Y-124816518D01*
X96158056Y-124828179D01*
X96173344Y-124833188D01*
X96207771Y-124835139D01*
X96300203Y-124847197D01*
X96407813Y-124880729D01*
X96521339Y-124931766D01*
X96631517Y-124996342D01*
X96699537Y-125045753D01*
X96812856Y-125155378D01*
X96917204Y-125293890D01*
X97009727Y-125455434D01*
X97087574Y-125634155D01*
X97147893Y-125824197D01*
X97187832Y-126019704D01*
X97193154Y-126059198D01*
X97197989Y-126098208D01*
X97201949Y-126124303D01*
X97205583Y-126134476D01*
X97209446Y-126125719D01*
X97214088Y-126095028D01*
X97220061Y-126039394D01*
X97227917Y-125955813D01*
X97238208Y-125841276D01*
X97242994Y-125787639D01*
X97284328Y-125399016D01*
X97340147Y-124989920D01*
X97408559Y-124571124D01*
X97487669Y-124153399D01*
X97575583Y-123747518D01*
X97666548Y-123378846D01*
X97727279Y-123148457D01*
X97700370Y-122981971D01*
X97628868Y-122646071D01*
X97524372Y-122312575D01*
X97389123Y-121985673D01*
X97225359Y-121669556D01*
X97035320Y-121368414D01*
X96821246Y-121086438D01*
X96585375Y-120827818D01*
X96510327Y-120755063D01*
X96337831Y-120602519D01*
X96146363Y-120450377D01*
X95944987Y-120305060D01*
X95742768Y-120172992D01*
X95548770Y-120060595D01*
X95478959Y-120024311D01*
X95268831Y-119930476D01*
X95036411Y-119846748D01*
X94794102Y-119776852D01*
X94554306Y-119724509D01*
X94402986Y-119701331D01*
X94170084Y-119683094D01*
X93919089Y-119682214D01*
X93662172Y-119697915D01*
X93411501Y-119729425D01*
X93179246Y-119775967D01*
X93161717Y-119780344D01*
X92886898Y-119862254D01*
X92604374Y-119969041D01*
X92325313Y-120095780D01*
X92060880Y-120237542D01*
X91898611Y-120337715D01*
X91704930Y-120464689D01*
X90845180Y-120464689D01*
X90830243Y-120460475D01*
X90746084Y-120438851D01*
X90671432Y-120418982D01*
X90614704Y-120403149D01*
X90585263Y-120393996D01*
X90575766Y-120387981D01*
X90574283Y-120377580D01*
X90583214Y-120360158D01*
X90604955Y-120333083D01*
X90641904Y-120293719D01*
X90696459Y-120239432D01*
X90771018Y-120167589D01*
X90867978Y-120075556D01*
X90918776Y-120027588D01*
X91014487Y-119937617D01*
X91102234Y-119855747D01*
X91178655Y-119785067D01*
X91240388Y-119728663D01*
X91284072Y-119689623D01*
X91306347Y-119671034D01*
X91308144Y-119669955D01*
X91327363Y-119677858D01*
X91369428Y-119703491D01*
X91429011Y-119743348D01*
X91500785Y-119793926D01*
X91539859Y-119822347D01*
X91755142Y-119980548D01*
X91914898Y-119893353D01*
X92005769Y-119845122D01*
X92107723Y-119793112D01*
X92202776Y-119746445D01*
X92228993Y-119734039D01*
X92295127Y-119701236D01*
X92347076Y-119671851D01*
X92377851Y-119650038D01*
X92383246Y-119642383D01*
X92378466Y-119619457D01*
X92365336Y-119569018D01*
X92345576Y-119497365D01*
X92320908Y-119410795D01*
X92305624Y-119358264D01*
X92279773Y-119266948D01*
X92259064Y-119187726D01*
X92244943Y-119126645D01*
X92238854Y-119089753D01*
X92239566Y-119081828D01*
X92260066Y-119070798D01*
X92306817Y-119050061D01*
X92373042Y-119022296D01*
X92451963Y-118990186D01*
X92536800Y-118956411D01*
X92620776Y-118923651D01*
X92697112Y-118894590D01*
X92759029Y-118871906D01*
X92799749Y-118858283D01*
X92811641Y-118855555D01*
X92827587Y-118869893D01*
X92858278Y-118909701D01*
X92900356Y-118970170D01*
X92950463Y-119046492D01*
X92999516Y-119124548D01*
X93052818Y-119211039D01*
X93099307Y-119286448D01*
X93135992Y-119345927D01*
X93159882Y-119384628D01*
X93167982Y-119397698D01*
X93185171Y-119396374D01*
X93227895Y-119388996D01*
X93287240Y-119377119D01*
X93292953Y-119375912D01*
X93365125Y-119362479D01*
X93457570Y-119347915D01*
X93555446Y-119334472D01*
X93604758Y-119328539D01*
X93694761Y-119317060D01*
X93754393Y-119305972D01*
X93788525Y-119294072D01*
X93802027Y-119280156D01*
X93802143Y-119279770D01*
X93806911Y-119253918D01*
X93815221Y-119199381D01*
X93826172Y-119122470D01*
X93838859Y-119029494D01*
X93849603Y-118948159D01*
X93889229Y-118643889D01*
X94211065Y-118643889D01*
X94325669Y-118644162D01*
G36*
X94149124Y-121186889D02*
X94303044Y-121193222D01*
X94452043Y-121204272D01*
X94586214Y-121219647D01*
X94685209Y-121236670D01*
X94969001Y-121312429D01*
X95242661Y-121415608D01*
X95503024Y-121543920D01*
X95746927Y-121695073D01*
X95971204Y-121866781D01*
X96172690Y-122056752D01*
X96348222Y-122262699D01*
X96494635Y-122482331D01*
X96550760Y-122586180D01*
X96645840Y-122812726D01*
X96714592Y-123058583D01*
X96756529Y-123319042D01*
X96771162Y-123589398D01*
X96758003Y-123864943D01*
X96716566Y-124140971D01*
X96713463Y-124156041D01*
X96692790Y-124246278D01*
X96668747Y-124337463D01*
X96643403Y-124423188D01*
X96618824Y-124497046D01*
X96597078Y-124552629D01*
X96580231Y-124583529D01*
X96574199Y-124587720D01*
X96549632Y-124576944D01*
X96511217Y-124550514D01*
X96496526Y-124538787D01*
X96460479Y-124505749D01*
X96447982Y-124480224D01*
X96453850Y-124449264D01*
X96457118Y-124440365D01*
X96474401Y-124383187D01*
X96493992Y-124299567D01*
X96514362Y-124198135D01*
X96533982Y-124087516D01*
X96551324Y-123976340D01*
X96564859Y-123873233D01*
X96573058Y-123786823D01*
X96573137Y-123785625D01*
X96573051Y-123533885D01*
X96541405Y-123279239D01*
X96480020Y-123027886D01*
X96390717Y-122786026D01*
X96275317Y-122559858D01*
X96163762Y-122392152D01*
X96005082Y-122205772D01*
X95816971Y-122029067D01*
X95604688Y-121865287D01*
X95373489Y-121717686D01*
X95128632Y-121589516D01*
X94875375Y-121484027D01*
X94618975Y-121404473D01*
X94534564Y-121384464D01*
X94402774Y-121363684D01*
X94249975Y-121352532D01*
X94087259Y-121350817D01*
X93925719Y-121358347D01*
X93776447Y-121374932D01*
X93653131Y-121399684D01*
X93562318Y-121426405D01*
X93467436Y-121458475D01*
X93385027Y-121490193D01*
X93363715Y-121499461D01*
X93305432Y-121525175D01*
X93261552Y-121543184D01*
X93240091Y-121550233D01*
X93239200Y-121550051D01*
X93232026Y-121532464D01*
X93216225Y-121491254D01*
X93198265Y-121443482D01*
X93160202Y-121341478D01*
X93208330Y-121323094D01*
X93263027Y-121305676D01*
X93343241Y-121284482D01*
X93439701Y-121261591D01*
X93543137Y-121239083D01*
X93644277Y-121219035D01*
X93733851Y-121203527D01*
X93756935Y-121200091D01*
X93866162Y-121189933D01*
X94000194Y-121185662D01*
X94149124Y-121186889D01*
X94149124Y-121186889D01*
G37*
X94149124Y-121186889D02*
X94303044Y-121193222D01*
X94452043Y-121204272D01*
X94586214Y-121219647D01*
X94685209Y-121236670D01*
X94969001Y-121312429D01*
X95242661Y-121415608D01*
X95503024Y-121543920D01*
X95746927Y-121695073D01*
X95971204Y-121866781D01*
X96172690Y-122056752D01*
X96348222Y-122262699D01*
X96494635Y-122482331D01*
X96550760Y-122586180D01*
X96645840Y-122812726D01*
X96714592Y-123058583D01*
X96756529Y-123319042D01*
X96771162Y-123589398D01*
X96758003Y-123864943D01*
X96716566Y-124140971D01*
X96713463Y-124156041D01*
X96692790Y-124246278D01*
X96668747Y-124337463D01*
X96643403Y-124423188D01*
X96618824Y-124497046D01*
X96597078Y-124552629D01*
X96580231Y-124583529D01*
X96574199Y-124587720D01*
X96549632Y-124576944D01*
X96511217Y-124550514D01*
X96496526Y-124538787D01*
X96460479Y-124505749D01*
X96447982Y-124480224D01*
X96453850Y-124449264D01*
X96457118Y-124440365D01*
X96474401Y-124383187D01*
X96493992Y-124299567D01*
X96514362Y-124198135D01*
X96533982Y-124087516D01*
X96551324Y-123976340D01*
X96564859Y-123873233D01*
X96573058Y-123786823D01*
X96573137Y-123785625D01*
X96573051Y-123533885D01*
X96541405Y-123279239D01*
X96480020Y-123027886D01*
X96390717Y-122786026D01*
X96275317Y-122559858D01*
X96163762Y-122392152D01*
X96005082Y-122205772D01*
X95816971Y-122029067D01*
X95604688Y-121865287D01*
X95373489Y-121717686D01*
X95128632Y-121589516D01*
X94875375Y-121484027D01*
X94618975Y-121404473D01*
X94534564Y-121384464D01*
X94402774Y-121363684D01*
X94249975Y-121352532D01*
X94087259Y-121350817D01*
X93925719Y-121358347D01*
X93776447Y-121374932D01*
X93653131Y-121399684D01*
X93562318Y-121426405D01*
X93467436Y-121458475D01*
X93385027Y-121490193D01*
X93363715Y-121499461D01*
X93305432Y-121525175D01*
X93261552Y-121543184D01*
X93240091Y-121550233D01*
X93239200Y-121550051D01*
X93232026Y-121532464D01*
X93216225Y-121491254D01*
X93198265Y-121443482D01*
X93160202Y-121341478D01*
X93208330Y-121323094D01*
X93263027Y-121305676D01*
X93343241Y-121284482D01*
X93439701Y-121261591D01*
X93543137Y-121239083D01*
X93644277Y-121219035D01*
X93733851Y-121203527D01*
X93756935Y-121200091D01*
X93866162Y-121189933D01*
X94000194Y-121185662D01*
X94149124Y-121186889D01*
D13*
X132666667Y-92452381D02*
X132666667Y-93166667D01*
X132619047Y-93309524D01*
X132523809Y-93404762D01*
X132380952Y-93452381D01*
X132285714Y-93452381D01*
X133666667Y-93452381D02*
X133095238Y-93452381D01*
X133380952Y-93452381D02*
X133380952Y-92452381D01*
X133285714Y-92595238D01*
X133190476Y-92690476D01*
X133095238Y-92738095D01*
X133166667Y-112702381D02*
X133166667Y-113416667D01*
X133119047Y-113559524D01*
X133023809Y-113654762D01*
X132880952Y-113702381D01*
X132785714Y-113702381D01*
X133595238Y-112797619D02*
X133642857Y-112750000D01*
X133738095Y-112702381D01*
X133976191Y-112702381D01*
X134071429Y-112750000D01*
X134119048Y-112797619D01*
X134166667Y-112892857D01*
X134166667Y-112988095D01*
X134119048Y-113130952D01*
X133547619Y-113702381D01*
X134166667Y-113702381D01*
X132088334Y-109198381D02*
X131755000Y-108722190D01*
X131516905Y-109198381D02*
X131516905Y-108198381D01*
X131897858Y-108198381D01*
X131993096Y-108246000D01*
X132040715Y-108293619D01*
X132088334Y-108388857D01*
X132088334Y-108531714D01*
X132040715Y-108626952D01*
X131993096Y-108674571D01*
X131897858Y-108722190D01*
X131516905Y-108722190D01*
X133040715Y-109198381D02*
X132469286Y-109198381D01*
X132755000Y-109198381D02*
X132755000Y-108198381D01*
X132659762Y-108341238D01*
X132564524Y-108436476D01*
X132469286Y-108484095D01*
X116333334Y-105452381D02*
X116000000Y-104976190D01*
X115761905Y-105452381D02*
X115761905Y-104452381D01*
X116142858Y-104452381D01*
X116238096Y-104500000D01*
X116285715Y-104547619D01*
X116333334Y-104642857D01*
X116333334Y-104785714D01*
X116285715Y-104880952D01*
X116238096Y-104928571D01*
X116142858Y-104976190D01*
X115761905Y-104976190D01*
X116714286Y-104547619D02*
X116761905Y-104500000D01*
X116857143Y-104452381D01*
X117095239Y-104452381D01*
X117190477Y-104500000D01*
X117238096Y-104547619D01*
X117285715Y-104642857D01*
X117285715Y-104738095D01*
X117238096Y-104880952D01*
X116666667Y-105452381D01*
X117285715Y-105452381D01*
X98713334Y-109952381D02*
X98380000Y-109476190D01*
X98141905Y-109952381D02*
X98141905Y-108952381D01*
X98522858Y-108952381D01*
X98618096Y-109000000D01*
X98665715Y-109047619D01*
X98713334Y-109142857D01*
X98713334Y-109285714D01*
X98665715Y-109380952D01*
X98618096Y-109428571D01*
X98522858Y-109476190D01*
X98141905Y-109476190D01*
X99046667Y-108952381D02*
X99665715Y-108952381D01*
X99332381Y-109333333D01*
X99475239Y-109333333D01*
X99570477Y-109380952D01*
X99618096Y-109428571D01*
X99665715Y-109523810D01*
X99665715Y-109761905D01*
X99618096Y-109857143D01*
X99570477Y-109904762D01*
X99475239Y-109952381D01*
X99189524Y-109952381D01*
X99094286Y-109904762D01*
X99046667Y-109857143D01*
X98713334Y-106952381D02*
X98380000Y-106476190D01*
X98141905Y-106952381D02*
X98141905Y-105952381D01*
X98522858Y-105952381D01*
X98618096Y-106000000D01*
X98665715Y-106047619D01*
X98713334Y-106142857D01*
X98713334Y-106285714D01*
X98665715Y-106380952D01*
X98618096Y-106428571D01*
X98522858Y-106476190D01*
X98141905Y-106476190D01*
X99570477Y-106285714D02*
X99570477Y-106952381D01*
X99332381Y-105904762D02*
X99094286Y-106619048D01*
X99713334Y-106619048D01*
X98578334Y-101452381D02*
X98245000Y-100976190D01*
X98006905Y-101452381D02*
X98006905Y-100452381D01*
X98387858Y-100452381D01*
X98483096Y-100500000D01*
X98530715Y-100547619D01*
X98578334Y-100642857D01*
X98578334Y-100785714D01*
X98530715Y-100880952D01*
X98483096Y-100928571D01*
X98387858Y-100976190D01*
X98006905Y-100976190D01*
X99483096Y-100452381D02*
X99006905Y-100452381D01*
X98959286Y-100928571D01*
X99006905Y-100880952D01*
X99102143Y-100833333D01*
X99340239Y-100833333D01*
X99435477Y-100880952D01*
X99483096Y-100928571D01*
X99530715Y-101023810D01*
X99530715Y-101261905D01*
X99483096Y-101357143D01*
X99435477Y-101404762D01*
X99340239Y-101452381D01*
X99102143Y-101452381D01*
X99006905Y-101404762D01*
X98959286Y-101357143D01*
X98578334Y-98452381D02*
X98245000Y-97976190D01*
X98006905Y-98452381D02*
X98006905Y-97452381D01*
X98387858Y-97452381D01*
X98483096Y-97500000D01*
X98530715Y-97547619D01*
X98578334Y-97642857D01*
X98578334Y-97785714D01*
X98530715Y-97880952D01*
X98483096Y-97928571D01*
X98387858Y-97976190D01*
X98006905Y-97976190D01*
X99435477Y-97452381D02*
X99245000Y-97452381D01*
X99149762Y-97500000D01*
X99102143Y-97547619D01*
X99006905Y-97690476D01*
X98959286Y-97880952D01*
X98959286Y-98261905D01*
X99006905Y-98357143D01*
X99054524Y-98404762D01*
X99149762Y-98452381D01*
X99340239Y-98452381D01*
X99435477Y-98404762D01*
X99483096Y-98357143D01*
X99530715Y-98261905D01*
X99530715Y-98023810D01*
X99483096Y-97928571D01*
X99435477Y-97880952D01*
X99340239Y-97833333D01*
X99149762Y-97833333D01*
X99054524Y-97880952D01*
X99006905Y-97928571D01*
X98959286Y-98023810D01*
X116583334Y-101952381D02*
X116250000Y-101476190D01*
X116011905Y-101952381D02*
X116011905Y-100952381D01*
X116392858Y-100952381D01*
X116488096Y-101000000D01*
X116535715Y-101047619D01*
X116583334Y-101142857D01*
X116583334Y-101285714D01*
X116535715Y-101380952D01*
X116488096Y-101428571D01*
X116392858Y-101476190D01*
X116011905Y-101476190D01*
X116916667Y-100952381D02*
X117583334Y-100952381D01*
X117154762Y-101952381D01*
X131453334Y-97452381D02*
X131120000Y-96976190D01*
X130881905Y-97452381D02*
X130881905Y-96452381D01*
X131262858Y-96452381D01*
X131358096Y-96500000D01*
X131405715Y-96547619D01*
X131453334Y-96642857D01*
X131453334Y-96785714D01*
X131405715Y-96880952D01*
X131358096Y-96928571D01*
X131262858Y-96976190D01*
X130881905Y-96976190D01*
X132024762Y-96880952D02*
X131929524Y-96833333D01*
X131881905Y-96785714D01*
X131834286Y-96690476D01*
X131834286Y-96642857D01*
X131881905Y-96547619D01*
X131929524Y-96500000D01*
X132024762Y-96452381D01*
X132215239Y-96452381D01*
X132310477Y-96500000D01*
X132358096Y-96547619D01*
X132405715Y-96642857D01*
X132405715Y-96690476D01*
X132358096Y-96785714D01*
X132310477Y-96833333D01*
X132215239Y-96880952D01*
X132024762Y-96880952D01*
X131929524Y-96928571D01*
X131881905Y-96976190D01*
X131834286Y-97071429D01*
X131834286Y-97261905D01*
X131881905Y-97357143D01*
X131929524Y-97404762D01*
X132024762Y-97452381D01*
X132215239Y-97452381D01*
X132310477Y-97404762D01*
X132358096Y-97357143D01*
X132405715Y-97261905D01*
X132405715Y-97071429D01*
X132358096Y-96976190D01*
X132310477Y-96928571D01*
X132215239Y-96880952D01*
X63583334Y-119202381D02*
X63250000Y-118726190D01*
X63011905Y-119202381D02*
X63011905Y-118202381D01*
X63392858Y-118202381D01*
X63488096Y-118250000D01*
X63535715Y-118297619D01*
X63583334Y-118392857D01*
X63583334Y-118535714D01*
X63535715Y-118630952D01*
X63488096Y-118678571D01*
X63392858Y-118726190D01*
X63011905Y-118726190D01*
X64059524Y-119202381D02*
X64250000Y-119202381D01*
X64345239Y-119154762D01*
X64392858Y-119107143D01*
X64488096Y-118964286D01*
X64535715Y-118773810D01*
X64535715Y-118392857D01*
X64488096Y-118297619D01*
X64440477Y-118250000D01*
X64345239Y-118202381D01*
X64154762Y-118202381D01*
X64059524Y-118250000D01*
X64011905Y-118297619D01*
X63964286Y-118392857D01*
X63964286Y-118630952D01*
X64011905Y-118726190D01*
X64059524Y-118773810D01*
X64154762Y-118821429D01*
X64345239Y-118821429D01*
X64440477Y-118773810D01*
X64488096Y-118726190D01*
X64535715Y-118630952D01*
X64357143Y-99912381D02*
X64023809Y-99436190D01*
X63785714Y-99912381D02*
X63785714Y-98912381D01*
X64166667Y-98912381D01*
X64261905Y-98960000D01*
X64309524Y-99007619D01*
X64357143Y-99102857D01*
X64357143Y-99245714D01*
X64309524Y-99340952D01*
X64261905Y-99388571D01*
X64166667Y-99436190D01*
X63785714Y-99436190D01*
X65309524Y-99912381D02*
X64738095Y-99912381D01*
X65023809Y-99912381D02*
X65023809Y-98912381D01*
X64928571Y-99055238D01*
X64833333Y-99150476D01*
X64738095Y-99198095D01*
X65928571Y-98912381D02*
X66023810Y-98912381D01*
X66119048Y-98960000D01*
X66166667Y-99007619D01*
X66214286Y-99102857D01*
X66261905Y-99293333D01*
X66261905Y-99531429D01*
X66214286Y-99721905D01*
X66166667Y-99817143D01*
X66119048Y-99864762D01*
X66023810Y-99912381D01*
X65928571Y-99912381D01*
X65833333Y-99864762D01*
X65785714Y-99817143D01*
X65738095Y-99721905D01*
X65690476Y-99531429D01*
X65690476Y-99293333D01*
X65738095Y-99102857D01*
X65785714Y-99007619D01*
X65833333Y-98960000D01*
X65928571Y-98912381D01*
X71612143Y-78452381D02*
X71278809Y-77976190D01*
X71040714Y-78452381D02*
X71040714Y-77452381D01*
X71421667Y-77452381D01*
X71516905Y-77500000D01*
X71564524Y-77547619D01*
X71612143Y-77642857D01*
X71612143Y-77785714D01*
X71564524Y-77880952D01*
X71516905Y-77928571D01*
X71421667Y-77976190D01*
X71040714Y-77976190D01*
X72564524Y-78452381D02*
X71993095Y-78452381D01*
X72278809Y-78452381D02*
X72278809Y-77452381D01*
X72183571Y-77595238D01*
X72088333Y-77690476D01*
X71993095Y-77738095D01*
X73516905Y-78452381D02*
X72945476Y-78452381D01*
X73231190Y-78452381D02*
X73231190Y-77452381D01*
X73135952Y-77595238D01*
X73040714Y-77690476D01*
X72945476Y-77738095D01*
X91612143Y-78452381D02*
X91278809Y-77976190D01*
X91040714Y-78452381D02*
X91040714Y-77452381D01*
X91421667Y-77452381D01*
X91516905Y-77500000D01*
X91564524Y-77547619D01*
X91612143Y-77642857D01*
X91612143Y-77785714D01*
X91564524Y-77880952D01*
X91516905Y-77928571D01*
X91421667Y-77976190D01*
X91040714Y-77976190D01*
X92564524Y-78452381D02*
X91993095Y-78452381D01*
X92278809Y-78452381D02*
X92278809Y-77452381D01*
X92183571Y-77595238D01*
X92088333Y-77690476D01*
X91993095Y-77738095D01*
X92945476Y-77547619D02*
X92993095Y-77500000D01*
X93088333Y-77452381D01*
X93326429Y-77452381D01*
X93421667Y-77500000D01*
X93469286Y-77547619D01*
X93516905Y-77642857D01*
X93516905Y-77738095D01*
X93469286Y-77880952D01*
X92897857Y-78452381D01*
X93516905Y-78452381D01*
X71612143Y-124452381D02*
X71278809Y-123976190D01*
X71040714Y-124452381D02*
X71040714Y-123452381D01*
X71421667Y-123452381D01*
X71516905Y-123500000D01*
X71564524Y-123547619D01*
X71612143Y-123642857D01*
X71612143Y-123785714D01*
X71564524Y-123880952D01*
X71516905Y-123928571D01*
X71421667Y-123976190D01*
X71040714Y-123976190D01*
X72564524Y-124452381D02*
X71993095Y-124452381D01*
X72278809Y-124452381D02*
X72278809Y-123452381D01*
X72183571Y-123595238D01*
X72088333Y-123690476D01*
X71993095Y-123738095D01*
X72897857Y-123452381D02*
X73516905Y-123452381D01*
X73183571Y-123833333D01*
X73326429Y-123833333D01*
X73421667Y-123880952D01*
X73469286Y-123928571D01*
X73516905Y-124023810D01*
X73516905Y-124261905D01*
X73469286Y-124357143D01*
X73421667Y-124404762D01*
X73326429Y-124452381D01*
X73040714Y-124452381D01*
X72945476Y-124404762D01*
X72897857Y-124357143D01*
X72607143Y-105202381D02*
X72273809Y-104726190D01*
X72035714Y-105202381D02*
X72035714Y-104202381D01*
X72416667Y-104202381D01*
X72511905Y-104250000D01*
X72559524Y-104297619D01*
X72607143Y-104392857D01*
X72607143Y-104535714D01*
X72559524Y-104630952D01*
X72511905Y-104678571D01*
X72416667Y-104726190D01*
X72035714Y-104726190D01*
X73559524Y-105202381D02*
X72988095Y-105202381D01*
X73273809Y-105202381D02*
X73273809Y-104202381D01*
X73178571Y-104345238D01*
X73083333Y-104440476D01*
X72988095Y-104488095D01*
X74416667Y-104535714D02*
X74416667Y-105202381D01*
X74178571Y-104154762D02*
X73940476Y-104869048D01*
X74559524Y-104869048D01*
X71612143Y-81452381D02*
X71278809Y-80976190D01*
X71040714Y-81452381D02*
X71040714Y-80452381D01*
X71421667Y-80452381D01*
X71516905Y-80500000D01*
X71564524Y-80547619D01*
X71612143Y-80642857D01*
X71612143Y-80785714D01*
X71564524Y-80880952D01*
X71516905Y-80928571D01*
X71421667Y-80976190D01*
X71040714Y-80976190D01*
X72564524Y-81452381D02*
X71993095Y-81452381D01*
X72278809Y-81452381D02*
X72278809Y-80452381D01*
X72183571Y-80595238D01*
X72088333Y-80690476D01*
X71993095Y-80738095D01*
X73469286Y-80452381D02*
X72993095Y-80452381D01*
X72945476Y-80928571D01*
X72993095Y-80880952D01*
X73088333Y-80833333D01*
X73326429Y-80833333D01*
X73421667Y-80880952D01*
X73469286Y-80928571D01*
X73516905Y-81023810D01*
X73516905Y-81261905D01*
X73469286Y-81357143D01*
X73421667Y-81404762D01*
X73326429Y-81452381D01*
X73088333Y-81452381D01*
X72993095Y-81404762D01*
X72945476Y-81357143D01*
X91612143Y-81452381D02*
X91278809Y-80976190D01*
X91040714Y-81452381D02*
X91040714Y-80452381D01*
X91421667Y-80452381D01*
X91516905Y-80500000D01*
X91564524Y-80547619D01*
X91612143Y-80642857D01*
X91612143Y-80785714D01*
X91564524Y-80880952D01*
X91516905Y-80928571D01*
X91421667Y-80976190D01*
X91040714Y-80976190D01*
X92564524Y-81452381D02*
X91993095Y-81452381D01*
X92278809Y-81452381D02*
X92278809Y-80452381D01*
X92183571Y-80595238D01*
X92088333Y-80690476D01*
X91993095Y-80738095D01*
X93421667Y-80452381D02*
X93231190Y-80452381D01*
X93135952Y-80500000D01*
X93088333Y-80547619D01*
X92993095Y-80690476D01*
X92945476Y-80880952D01*
X92945476Y-81261905D01*
X92993095Y-81357143D01*
X93040714Y-81404762D01*
X93135952Y-81452381D01*
X93326429Y-81452381D01*
X93421667Y-81404762D01*
X93469286Y-81357143D01*
X93516905Y-81261905D01*
X93516905Y-81023810D01*
X93469286Y-80928571D01*
X93421667Y-80880952D01*
X93326429Y-80833333D01*
X93135952Y-80833333D01*
X93040714Y-80880952D01*
X92993095Y-80928571D01*
X92945476Y-81023810D01*
X71612143Y-127452381D02*
X71278809Y-126976190D01*
X71040714Y-127452381D02*
X71040714Y-126452381D01*
X71421667Y-126452381D01*
X71516905Y-126500000D01*
X71564524Y-126547619D01*
X71612143Y-126642857D01*
X71612143Y-126785714D01*
X71564524Y-126880952D01*
X71516905Y-126928571D01*
X71421667Y-126976190D01*
X71040714Y-126976190D01*
X72564524Y-127452381D02*
X71993095Y-127452381D01*
X72278809Y-127452381D02*
X72278809Y-126452381D01*
X72183571Y-126595238D01*
X72088333Y-126690476D01*
X71993095Y-126738095D01*
X72897857Y-126452381D02*
X73564524Y-126452381D01*
X73135952Y-127452381D01*
X64357143Y-110992381D02*
X64023809Y-110516190D01*
X63785714Y-110992381D02*
X63785714Y-109992381D01*
X64166667Y-109992381D01*
X64261905Y-110040000D01*
X64309524Y-110087619D01*
X64357143Y-110182857D01*
X64357143Y-110325714D01*
X64309524Y-110420952D01*
X64261905Y-110468571D01*
X64166667Y-110516190D01*
X63785714Y-110516190D01*
X65309524Y-110992381D02*
X64738095Y-110992381D01*
X65023809Y-110992381D02*
X65023809Y-109992381D01*
X64928571Y-110135238D01*
X64833333Y-110230476D01*
X64738095Y-110278095D01*
X65880952Y-110420952D02*
X65785714Y-110373333D01*
X65738095Y-110325714D01*
X65690476Y-110230476D01*
X65690476Y-110182857D01*
X65738095Y-110087619D01*
X65785714Y-110040000D01*
X65880952Y-109992381D01*
X66071429Y-109992381D01*
X66166667Y-110040000D01*
X66214286Y-110087619D01*
X66261905Y-110182857D01*
X66261905Y-110230476D01*
X66214286Y-110325714D01*
X66166667Y-110373333D01*
X66071429Y-110420952D01*
X65880952Y-110420952D01*
X65785714Y-110468571D01*
X65738095Y-110516190D01*
X65690476Y-110611429D01*
X65690476Y-110801905D01*
X65738095Y-110897143D01*
X65785714Y-110944762D01*
X65880952Y-110992381D01*
X66071429Y-110992381D01*
X66166667Y-110944762D01*
X66214286Y-110897143D01*
X66261905Y-110801905D01*
X66261905Y-110611429D01*
X66214286Y-110516190D01*
X66166667Y-110468571D01*
X66071429Y-110420952D01*
X71612143Y-84452381D02*
X71278809Y-83976190D01*
X71040714Y-84452381D02*
X71040714Y-83452381D01*
X71421667Y-83452381D01*
X71516905Y-83500000D01*
X71564524Y-83547619D01*
X71612143Y-83642857D01*
X71612143Y-83785714D01*
X71564524Y-83880952D01*
X71516905Y-83928571D01*
X71421667Y-83976190D01*
X71040714Y-83976190D01*
X72564524Y-84452381D02*
X71993095Y-84452381D01*
X72278809Y-84452381D02*
X72278809Y-83452381D01*
X72183571Y-83595238D01*
X72088333Y-83690476D01*
X71993095Y-83738095D01*
X73040714Y-84452381D02*
X73231190Y-84452381D01*
X73326429Y-84404762D01*
X73374048Y-84357143D01*
X73469286Y-84214286D01*
X73516905Y-84023810D01*
X73516905Y-83642857D01*
X73469286Y-83547619D01*
X73421667Y-83500000D01*
X73326429Y-83452381D01*
X73135952Y-83452381D01*
X73040714Y-83500000D01*
X72993095Y-83547619D01*
X72945476Y-83642857D01*
X72945476Y-83880952D01*
X72993095Y-83976190D01*
X73040714Y-84023810D01*
X73135952Y-84071429D01*
X73326429Y-84071429D01*
X73421667Y-84023810D01*
X73469286Y-83976190D01*
X73516905Y-83880952D01*
X74612143Y-71452381D02*
X74278809Y-70976190D01*
X74040714Y-71452381D02*
X74040714Y-70452381D01*
X74421667Y-70452381D01*
X74516905Y-70500000D01*
X74564524Y-70547619D01*
X74612143Y-70642857D01*
X74612143Y-70785714D01*
X74564524Y-70880952D01*
X74516905Y-70928571D01*
X74421667Y-70976190D01*
X74040714Y-70976190D01*
X74993095Y-70547619D02*
X75040714Y-70500000D01*
X75135952Y-70452381D01*
X75374048Y-70452381D01*
X75469286Y-70500000D01*
X75516905Y-70547619D01*
X75564524Y-70642857D01*
X75564524Y-70738095D01*
X75516905Y-70880952D01*
X74945476Y-71452381D01*
X75564524Y-71452381D01*
X76183571Y-70452381D02*
X76278810Y-70452381D01*
X76374048Y-70500000D01*
X76421667Y-70547619D01*
X76469286Y-70642857D01*
X76516905Y-70833333D01*
X76516905Y-71071429D01*
X76469286Y-71261905D01*
X76421667Y-71357143D01*
X76374048Y-71404762D01*
X76278810Y-71452381D01*
X76183571Y-71452381D01*
X76088333Y-71404762D01*
X76040714Y-71357143D01*
X75993095Y-71261905D01*
X75945476Y-71071429D01*
X75945476Y-70833333D01*
X75993095Y-70642857D01*
X76040714Y-70547619D01*
X76088333Y-70500000D01*
X76183571Y-70452381D01*
X91612143Y-69452381D02*
X91278809Y-68976190D01*
X91040714Y-69452381D02*
X91040714Y-68452381D01*
X91421667Y-68452381D01*
X91516905Y-68500000D01*
X91564524Y-68547619D01*
X91612143Y-68642857D01*
X91612143Y-68785714D01*
X91564524Y-68880952D01*
X91516905Y-68928571D01*
X91421667Y-68976190D01*
X91040714Y-68976190D01*
X91993095Y-68547619D02*
X92040714Y-68500000D01*
X92135952Y-68452381D01*
X92374048Y-68452381D01*
X92469286Y-68500000D01*
X92516905Y-68547619D01*
X92564524Y-68642857D01*
X92564524Y-68738095D01*
X92516905Y-68880952D01*
X91945476Y-69452381D01*
X92564524Y-69452381D01*
X93516905Y-69452381D02*
X92945476Y-69452381D01*
X93231190Y-69452381D02*
X93231190Y-68452381D01*
X93135952Y-68595238D01*
X93040714Y-68690476D01*
X92945476Y-68738095D01*
X122452381Y-82142857D02*
X121976190Y-82476191D01*
X122452381Y-82714286D02*
X121452381Y-82714286D01*
X121452381Y-82333333D01*
X121500000Y-82238095D01*
X121547619Y-82190476D01*
X121642857Y-82142857D01*
X121785714Y-82142857D01*
X121880952Y-82190476D01*
X121928571Y-82238095D01*
X121976190Y-82333333D01*
X121976190Y-82714286D01*
X121547619Y-81761905D02*
X121500000Y-81714286D01*
X121452381Y-81619048D01*
X121452381Y-81380952D01*
X121500000Y-81285714D01*
X121547619Y-81238095D01*
X121642857Y-81190476D01*
X121738095Y-81190476D01*
X121880952Y-81238095D01*
X122452381Y-81809524D01*
X122452381Y-81190476D01*
X121547619Y-80809524D02*
X121500000Y-80761905D01*
X121452381Y-80666667D01*
X121452381Y-80428571D01*
X121500000Y-80333333D01*
X121547619Y-80285714D01*
X121642857Y-80238095D01*
X121738095Y-80238095D01*
X121880952Y-80285714D01*
X122452381Y-80857143D01*
X122452381Y-80238095D01*
X107452381Y-81897857D02*
X106976190Y-82231191D01*
X107452381Y-82469286D02*
X106452381Y-82469286D01*
X106452381Y-82088333D01*
X106500000Y-81993095D01*
X106547619Y-81945476D01*
X106642857Y-81897857D01*
X106785714Y-81897857D01*
X106880952Y-81945476D01*
X106928571Y-81993095D01*
X106976190Y-82088333D01*
X106976190Y-82469286D01*
X106547619Y-81516905D02*
X106500000Y-81469286D01*
X106452381Y-81374048D01*
X106452381Y-81135952D01*
X106500000Y-81040714D01*
X106547619Y-80993095D01*
X106642857Y-80945476D01*
X106738095Y-80945476D01*
X106880952Y-80993095D01*
X107452381Y-81564524D01*
X107452381Y-80945476D01*
X106452381Y-80612143D02*
X106452381Y-79993095D01*
X106833333Y-80326429D01*
X106833333Y-80183571D01*
X106880952Y-80088333D01*
X106928571Y-80040714D01*
X107023810Y-79993095D01*
X107261905Y-79993095D01*
X107357143Y-80040714D01*
X107404762Y-80088333D01*
X107452381Y-80183571D01*
X107452381Y-80469286D01*
X107404762Y-80564524D01*
X107357143Y-80612143D01*
X91612143Y-72452381D02*
X91278809Y-71976190D01*
X91040714Y-72452381D02*
X91040714Y-71452381D01*
X91421667Y-71452381D01*
X91516905Y-71500000D01*
X91564524Y-71547619D01*
X91612143Y-71642857D01*
X91612143Y-71785714D01*
X91564524Y-71880952D01*
X91516905Y-71928571D01*
X91421667Y-71976190D01*
X91040714Y-71976190D01*
X91993095Y-71547619D02*
X92040714Y-71500000D01*
X92135952Y-71452381D01*
X92374048Y-71452381D01*
X92469286Y-71500000D01*
X92516905Y-71547619D01*
X92564524Y-71642857D01*
X92564524Y-71738095D01*
X92516905Y-71880952D01*
X91945476Y-72452381D01*
X92564524Y-72452381D01*
X93421667Y-71785714D02*
X93421667Y-72452381D01*
X93183571Y-71404762D02*
X92945476Y-72119048D01*
X93564524Y-72119048D01*
X118452381Y-82142857D02*
X117976190Y-82476191D01*
X118452381Y-82714286D02*
X117452381Y-82714286D01*
X117452381Y-82333333D01*
X117500000Y-82238095D01*
X117547619Y-82190476D01*
X117642857Y-82142857D01*
X117785714Y-82142857D01*
X117880952Y-82190476D01*
X117928571Y-82238095D01*
X117976190Y-82333333D01*
X117976190Y-82714286D01*
X117547619Y-81761905D02*
X117500000Y-81714286D01*
X117452381Y-81619048D01*
X117452381Y-81380952D01*
X117500000Y-81285714D01*
X117547619Y-81238095D01*
X117642857Y-81190476D01*
X117738095Y-81190476D01*
X117880952Y-81238095D01*
X118452381Y-81809524D01*
X118452381Y-81190476D01*
X117452381Y-80285714D02*
X117452381Y-80761905D01*
X117928571Y-80809524D01*
X117880952Y-80761905D01*
X117833333Y-80666667D01*
X117833333Y-80428571D01*
X117880952Y-80333333D01*
X117928571Y-80285714D01*
X118023810Y-80238095D01*
X118261905Y-80238095D01*
X118357143Y-80285714D01*
X118404762Y-80333333D01*
X118452381Y-80428571D01*
X118452381Y-80666667D01*
X118404762Y-80761905D01*
X118357143Y-80809524D01*
X103452381Y-81897857D02*
X102976190Y-82231191D01*
X103452381Y-82469286D02*
X102452381Y-82469286D01*
X102452381Y-82088333D01*
X102500000Y-81993095D01*
X102547619Y-81945476D01*
X102642857Y-81897857D01*
X102785714Y-81897857D01*
X102880952Y-81945476D01*
X102928571Y-81993095D01*
X102976190Y-82088333D01*
X102976190Y-82469286D01*
X102547619Y-81516905D02*
X102500000Y-81469286D01*
X102452381Y-81374048D01*
X102452381Y-81135952D01*
X102500000Y-81040714D01*
X102547619Y-80993095D01*
X102642857Y-80945476D01*
X102738095Y-80945476D01*
X102880952Y-80993095D01*
X103452381Y-81564524D01*
X103452381Y-80945476D01*
X102452381Y-80088333D02*
X102452381Y-80278810D01*
X102500000Y-80374048D01*
X102547619Y-80421667D01*
X102690476Y-80516905D01*
X102880952Y-80564524D01*
X103261905Y-80564524D01*
X103357143Y-80516905D01*
X103404762Y-80469286D01*
X103452381Y-80374048D01*
X103452381Y-80183571D01*
X103404762Y-80088333D01*
X103357143Y-80040714D01*
X103261905Y-79993095D01*
X103023810Y-79993095D01*
X102928571Y-80040714D01*
X102880952Y-80088333D01*
X102833333Y-80183571D01*
X102833333Y-80374048D01*
X102880952Y-80469286D01*
X102928571Y-80516905D01*
X103023810Y-80564524D01*
X91612143Y-75452381D02*
X91278809Y-74976190D01*
X91040714Y-75452381D02*
X91040714Y-74452381D01*
X91421667Y-74452381D01*
X91516905Y-74500000D01*
X91564524Y-74547619D01*
X91612143Y-74642857D01*
X91612143Y-74785714D01*
X91564524Y-74880952D01*
X91516905Y-74928571D01*
X91421667Y-74976190D01*
X91040714Y-74976190D01*
X91993095Y-74547619D02*
X92040714Y-74500000D01*
X92135952Y-74452381D01*
X92374048Y-74452381D01*
X92469286Y-74500000D01*
X92516905Y-74547619D01*
X92564524Y-74642857D01*
X92564524Y-74738095D01*
X92516905Y-74880952D01*
X91945476Y-75452381D01*
X92564524Y-75452381D01*
X92897857Y-74452381D02*
X93564524Y-74452381D01*
X93135952Y-75452381D01*
X114452381Y-82142857D02*
X113976190Y-82476191D01*
X114452381Y-82714286D02*
X113452381Y-82714286D01*
X113452381Y-82333333D01*
X113500000Y-82238095D01*
X113547619Y-82190476D01*
X113642857Y-82142857D01*
X113785714Y-82142857D01*
X113880952Y-82190476D01*
X113928571Y-82238095D01*
X113976190Y-82333333D01*
X113976190Y-82714286D01*
X113547619Y-81761905D02*
X113500000Y-81714286D01*
X113452381Y-81619048D01*
X113452381Y-81380952D01*
X113500000Y-81285714D01*
X113547619Y-81238095D01*
X113642857Y-81190476D01*
X113738095Y-81190476D01*
X113880952Y-81238095D01*
X114452381Y-81809524D01*
X114452381Y-81190476D01*
X113880952Y-80619048D02*
X113833333Y-80714286D01*
X113785714Y-80761905D01*
X113690476Y-80809524D01*
X113642857Y-80809524D01*
X113547619Y-80761905D01*
X113500000Y-80714286D01*
X113452381Y-80619048D01*
X113452381Y-80428571D01*
X113500000Y-80333333D01*
X113547619Y-80285714D01*
X113642857Y-80238095D01*
X113690476Y-80238095D01*
X113785714Y-80285714D01*
X113833333Y-80333333D01*
X113880952Y-80428571D01*
X113880952Y-80619048D01*
X113928571Y-80714286D01*
X113976190Y-80761905D01*
X114071429Y-80809524D01*
X114261905Y-80809524D01*
X114357143Y-80761905D01*
X114404762Y-80714286D01*
X114452381Y-80619048D01*
X114452381Y-80428571D01*
X114404762Y-80333333D01*
X114357143Y-80285714D01*
X114261905Y-80238095D01*
X114071429Y-80238095D01*
X113976190Y-80285714D01*
X113928571Y-80333333D01*
X113880952Y-80428571D01*
X99452381Y-81897857D02*
X98976190Y-82231191D01*
X99452381Y-82469286D02*
X98452381Y-82469286D01*
X98452381Y-82088333D01*
X98500000Y-81993095D01*
X98547619Y-81945476D01*
X98642857Y-81897857D01*
X98785714Y-81897857D01*
X98880952Y-81945476D01*
X98928571Y-81993095D01*
X98976190Y-82088333D01*
X98976190Y-82469286D01*
X98547619Y-81516905D02*
X98500000Y-81469286D01*
X98452381Y-81374048D01*
X98452381Y-81135952D01*
X98500000Y-81040714D01*
X98547619Y-80993095D01*
X98642857Y-80945476D01*
X98738095Y-80945476D01*
X98880952Y-80993095D01*
X99452381Y-81564524D01*
X99452381Y-80945476D01*
X99452381Y-80469286D02*
X99452381Y-80278810D01*
X99404762Y-80183571D01*
X99357143Y-80135952D01*
X99214286Y-80040714D01*
X99023810Y-79993095D01*
X98642857Y-79993095D01*
X98547619Y-80040714D01*
X98500000Y-80088333D01*
X98452381Y-80183571D01*
X98452381Y-80374048D01*
X98500000Y-80469286D01*
X98547619Y-80516905D01*
X98642857Y-80564524D01*
X98880952Y-80564524D01*
X98976190Y-80516905D01*
X99023810Y-80469286D01*
X99071429Y-80374048D01*
X99071429Y-80183571D01*
X99023810Y-80088333D01*
X98976190Y-80040714D01*
X98880952Y-79993095D01*
X101702381Y-133666667D02*
X102178572Y-133666667D01*
X101607143Y-133952381D02*
X101940476Y-132952381D01*
X102273810Y-133952381D01*
X102607143Y-133285714D02*
X102607143Y-133952381D01*
X102607143Y-133380952D02*
X102654762Y-133333333D01*
X102750000Y-133285714D01*
X102892858Y-133285714D01*
X102988096Y-133333333D01*
X103035715Y-133428571D01*
X103035715Y-133952381D01*
X103940477Y-133952381D02*
X103940477Y-133428571D01*
X103892858Y-133333333D01*
X103797620Y-133285714D01*
X103607143Y-133285714D01*
X103511905Y-133333333D01*
X103940477Y-133904762D02*
X103845239Y-133952381D01*
X103607143Y-133952381D01*
X103511905Y-133904762D01*
X103464286Y-133809524D01*
X103464286Y-133714286D01*
X103511905Y-133619048D01*
X103607143Y-133571429D01*
X103845239Y-133571429D01*
X103940477Y-133523810D01*
X104559524Y-133952381D02*
X104464286Y-133904762D01*
X104416667Y-133809524D01*
X104416667Y-132952381D01*
X105083334Y-133952381D02*
X104988096Y-133904762D01*
X104940477Y-133857143D01*
X104892858Y-133761905D01*
X104892858Y-133476190D01*
X104940477Y-133380952D01*
X104988096Y-133333333D01*
X105083334Y-133285714D01*
X105226192Y-133285714D01*
X105321430Y-133333333D01*
X105369049Y-133380952D01*
X105416668Y-133476190D01*
X105416668Y-133761905D01*
X105369049Y-133857143D01*
X105321430Y-133904762D01*
X105226192Y-133952381D01*
X105083334Y-133952381D01*
X106273811Y-133285714D02*
X106273811Y-134095238D01*
X106226192Y-134190476D01*
X106178573Y-134238095D01*
X106083334Y-134285714D01*
X105940477Y-134285714D01*
X105845239Y-134238095D01*
X106273811Y-133904762D02*
X106178573Y-133952381D01*
X105988096Y-133952381D01*
X105892858Y-133904762D01*
X105845239Y-133857143D01*
X105797620Y-133761905D01*
X105797620Y-133476190D01*
X105845239Y-133380952D01*
X105892858Y-133333333D01*
X105988096Y-133285714D01*
X106178573Y-133285714D01*
X106273811Y-133333333D01*
X106750001Y-133952381D02*
X106750001Y-132952381D01*
X107416667Y-132952381D02*
X107607144Y-132952381D01*
X107702382Y-133000000D01*
X107797620Y-133095238D01*
X107845239Y-133285714D01*
X107845239Y-133619048D01*
X107797620Y-133809524D01*
X107702382Y-133904762D01*
X107607144Y-133952381D01*
X107416667Y-133952381D01*
X107321429Y-133904762D01*
X107226191Y-133809524D01*
X107178572Y-133619048D01*
X107178572Y-133285714D01*
X107226191Y-133095238D01*
X107321429Y-133000000D01*
X107416667Y-132952381D01*
X108797620Y-133952381D02*
X108226191Y-133952381D01*
X108511905Y-133952381D02*
X108511905Y-132952381D01*
X108416667Y-133095238D01*
X108321429Y-133190476D01*
X108226191Y-133238095D01*
X57428571Y-116333333D02*
X57476190Y-116190476D01*
X57523810Y-116142857D01*
X57619048Y-116095238D01*
X57761905Y-116095238D01*
X57857143Y-116142857D01*
X57904762Y-116190476D01*
X57952381Y-116285714D01*
X57952381Y-116666667D01*
X56952381Y-116666667D01*
X56952381Y-116333333D01*
X57000000Y-116238095D01*
X57047619Y-116190476D01*
X57142857Y-116142857D01*
X57238095Y-116142857D01*
X57333333Y-116190476D01*
X57380952Y-116238095D01*
X57428571Y-116333333D01*
X57428571Y-116666667D01*
X57285714Y-115238095D02*
X57952381Y-115238095D01*
X57285714Y-115666667D02*
X57809524Y-115666667D01*
X57904762Y-115619048D01*
X57952381Y-115523810D01*
X57952381Y-115380952D01*
X57904762Y-115285714D01*
X57857143Y-115238095D01*
X57285714Y-114904762D02*
X57285714Y-114523810D01*
X56952381Y-114761905D02*
X57809524Y-114761905D01*
X57904762Y-114714286D01*
X57952381Y-114619048D01*
X57952381Y-114523810D01*
X57285714Y-114333333D02*
X57285714Y-113952381D01*
X56952381Y-114190476D02*
X57809524Y-114190476D01*
X57904762Y-114142857D01*
X57952381Y-114047619D01*
X57952381Y-113952381D01*
X57952381Y-113476190D02*
X57904762Y-113571428D01*
X57857143Y-113619047D01*
X57761905Y-113666666D01*
X57476190Y-113666666D01*
X57380952Y-113619047D01*
X57333333Y-113571428D01*
X57285714Y-113476190D01*
X57285714Y-113333332D01*
X57333333Y-113238094D01*
X57380952Y-113190475D01*
X57476190Y-113142856D01*
X57761905Y-113142856D01*
X57857143Y-113190475D01*
X57904762Y-113238094D01*
X57952381Y-113333332D01*
X57952381Y-113476190D01*
X57285714Y-112714285D02*
X57952381Y-112714285D01*
X57380952Y-112714285D02*
X57333333Y-112666666D01*
X57285714Y-112571428D01*
X57285714Y-112428570D01*
X57333333Y-112333332D01*
X57428571Y-112285713D01*
X57952381Y-112285713D01*
X57952381Y-111285713D02*
X57952381Y-111857142D01*
X57952381Y-111571428D02*
X56952381Y-111571428D01*
X57095238Y-111666666D01*
X57190476Y-111761904D01*
X57238095Y-111857142D01*
X57428571Y-102083333D02*
X57476190Y-101940476D01*
X57523810Y-101892857D01*
X57619048Y-101845238D01*
X57761905Y-101845238D01*
X57857143Y-101892857D01*
X57904762Y-101940476D01*
X57952381Y-102035714D01*
X57952381Y-102416667D01*
X56952381Y-102416667D01*
X56952381Y-102083333D01*
X57000000Y-101988095D01*
X57047619Y-101940476D01*
X57142857Y-101892857D01*
X57238095Y-101892857D01*
X57333333Y-101940476D01*
X57380952Y-101988095D01*
X57428571Y-102083333D01*
X57428571Y-102416667D01*
X57285714Y-100988095D02*
X57952381Y-100988095D01*
X57285714Y-101416667D02*
X57809524Y-101416667D01*
X57904762Y-101369048D01*
X57952381Y-101273810D01*
X57952381Y-101130952D01*
X57904762Y-101035714D01*
X57857143Y-100988095D01*
X57285714Y-100654762D02*
X57285714Y-100273810D01*
X56952381Y-100511905D02*
X57809524Y-100511905D01*
X57904762Y-100464286D01*
X57952381Y-100369048D01*
X57952381Y-100273810D01*
X57285714Y-100083333D02*
X57285714Y-99702381D01*
X56952381Y-99940476D02*
X57809524Y-99940476D01*
X57904762Y-99892857D01*
X57952381Y-99797619D01*
X57952381Y-99702381D01*
X57952381Y-99226190D02*
X57904762Y-99321428D01*
X57857143Y-99369047D01*
X57761905Y-99416666D01*
X57476190Y-99416666D01*
X57380952Y-99369047D01*
X57333333Y-99321428D01*
X57285714Y-99226190D01*
X57285714Y-99083332D01*
X57333333Y-98988094D01*
X57380952Y-98940475D01*
X57476190Y-98892856D01*
X57761905Y-98892856D01*
X57857143Y-98940475D01*
X57904762Y-98988094D01*
X57952381Y-99083332D01*
X57952381Y-99226190D01*
X57285714Y-98464285D02*
X57952381Y-98464285D01*
X57380952Y-98464285D02*
X57333333Y-98416666D01*
X57285714Y-98321428D01*
X57285714Y-98178570D01*
X57333333Y-98083332D01*
X57428571Y-98035713D01*
X57952381Y-98035713D01*
X57047619Y-97607142D02*
X57000000Y-97559523D01*
X56952381Y-97464285D01*
X56952381Y-97226189D01*
X57000000Y-97130951D01*
X57047619Y-97083332D01*
X57142857Y-97035713D01*
X57238095Y-97035713D01*
X57380952Y-97083332D01*
X57952381Y-97654761D01*
X57952381Y-97035713D01*
X57428571Y-75083333D02*
X57476190Y-74940476D01*
X57523810Y-74892857D01*
X57619048Y-74845238D01*
X57761905Y-74845238D01*
X57857143Y-74892857D01*
X57904762Y-74940476D01*
X57952381Y-75035714D01*
X57952381Y-75416667D01*
X56952381Y-75416667D01*
X56952381Y-75083333D01*
X57000000Y-74988095D01*
X57047619Y-74940476D01*
X57142857Y-74892857D01*
X57238095Y-74892857D01*
X57333333Y-74940476D01*
X57380952Y-74988095D01*
X57428571Y-75083333D01*
X57428571Y-75416667D01*
X57285714Y-73988095D02*
X57952381Y-73988095D01*
X57285714Y-74416667D02*
X57809524Y-74416667D01*
X57904762Y-74369048D01*
X57952381Y-74273810D01*
X57952381Y-74130952D01*
X57904762Y-74035714D01*
X57857143Y-73988095D01*
X57285714Y-73654762D02*
X57285714Y-73273810D01*
X56952381Y-73511905D02*
X57809524Y-73511905D01*
X57904762Y-73464286D01*
X57952381Y-73369048D01*
X57952381Y-73273810D01*
X57285714Y-73083333D02*
X57285714Y-72702381D01*
X56952381Y-72940476D02*
X57809524Y-72940476D01*
X57904762Y-72892857D01*
X57952381Y-72797619D01*
X57952381Y-72702381D01*
X57952381Y-72226190D02*
X57904762Y-72321428D01*
X57857143Y-72369047D01*
X57761905Y-72416666D01*
X57476190Y-72416666D01*
X57380952Y-72369047D01*
X57333333Y-72321428D01*
X57285714Y-72226190D01*
X57285714Y-72083332D01*
X57333333Y-71988094D01*
X57380952Y-71940475D01*
X57476190Y-71892856D01*
X57761905Y-71892856D01*
X57857143Y-71940475D01*
X57904762Y-71988094D01*
X57952381Y-72083332D01*
X57952381Y-72226190D01*
X57285714Y-71464285D02*
X57952381Y-71464285D01*
X57380952Y-71464285D02*
X57333333Y-71416666D01*
X57285714Y-71321428D01*
X57285714Y-71178570D01*
X57333333Y-71083332D01*
X57428571Y-71035713D01*
X57952381Y-71035713D01*
X56952381Y-70654761D02*
X56952381Y-70035713D01*
X57333333Y-70369047D01*
X57333333Y-70226189D01*
X57380952Y-70130951D01*
X57428571Y-70083332D01*
X57523810Y-70035713D01*
X57761905Y-70035713D01*
X57857143Y-70083332D01*
X57904762Y-70130951D01*
X57952381Y-70226189D01*
X57952381Y-70511904D01*
X57904762Y-70607142D01*
X57857143Y-70654761D01*
X61416667Y-66428571D02*
X61559524Y-66476190D01*
X61607143Y-66523810D01*
X61654762Y-66619048D01*
X61654762Y-66761905D01*
X61607143Y-66857143D01*
X61559524Y-66904762D01*
X61464286Y-66952381D01*
X61083333Y-66952381D01*
X61083333Y-65952381D01*
X61416667Y-65952381D01*
X61511905Y-66000000D01*
X61559524Y-66047619D01*
X61607143Y-66142857D01*
X61607143Y-66238095D01*
X61559524Y-66333333D01*
X61511905Y-66380952D01*
X61416667Y-66428571D01*
X61083333Y-66428571D01*
X62511905Y-66285714D02*
X62511905Y-66952381D01*
X62083333Y-66285714D02*
X62083333Y-66809524D01*
X62130952Y-66904762D01*
X62226190Y-66952381D01*
X62369048Y-66952381D01*
X62464286Y-66904762D01*
X62511905Y-66857143D01*
X62845238Y-66285714D02*
X63226190Y-66285714D01*
X62988095Y-65952381D02*
X62988095Y-66809524D01*
X63035714Y-66904762D01*
X63130952Y-66952381D01*
X63226190Y-66952381D01*
X63416667Y-66285714D02*
X63797619Y-66285714D01*
X63559524Y-65952381D02*
X63559524Y-66809524D01*
X63607143Y-66904762D01*
X63702381Y-66952381D01*
X63797619Y-66952381D01*
X64273810Y-66952381D02*
X64178572Y-66904762D01*
X64130953Y-66857143D01*
X64083334Y-66761905D01*
X64083334Y-66476190D01*
X64130953Y-66380952D01*
X64178572Y-66333333D01*
X64273810Y-66285714D01*
X64416668Y-66285714D01*
X64511906Y-66333333D01*
X64559525Y-66380952D01*
X64607144Y-66476190D01*
X64607144Y-66761905D01*
X64559525Y-66857143D01*
X64511906Y-66904762D01*
X64416668Y-66952381D01*
X64273810Y-66952381D01*
X65035715Y-66285714D02*
X65035715Y-66952381D01*
X65035715Y-66380952D02*
X65083334Y-66333333D01*
X65178572Y-66285714D01*
X65321430Y-66285714D01*
X65416668Y-66333333D01*
X65464287Y-66428571D01*
X65464287Y-66952381D01*
X66369049Y-66285714D02*
X66369049Y-66952381D01*
X66130953Y-65904762D02*
X65892858Y-66619048D01*
X66511906Y-66619048D01*
X77666667Y-66428571D02*
X77809524Y-66476190D01*
X77857143Y-66523810D01*
X77904762Y-66619048D01*
X77904762Y-66761905D01*
X77857143Y-66857143D01*
X77809524Y-66904762D01*
X77714286Y-66952381D01*
X77333333Y-66952381D01*
X77333333Y-65952381D01*
X77666667Y-65952381D01*
X77761905Y-66000000D01*
X77809524Y-66047619D01*
X77857143Y-66142857D01*
X77857143Y-66238095D01*
X77809524Y-66333333D01*
X77761905Y-66380952D01*
X77666667Y-66428571D01*
X77333333Y-66428571D01*
X78761905Y-66285714D02*
X78761905Y-66952381D01*
X78333333Y-66285714D02*
X78333333Y-66809524D01*
X78380952Y-66904762D01*
X78476190Y-66952381D01*
X78619048Y-66952381D01*
X78714286Y-66904762D01*
X78761905Y-66857143D01*
X79095238Y-66285714D02*
X79476190Y-66285714D01*
X79238095Y-65952381D02*
X79238095Y-66809524D01*
X79285714Y-66904762D01*
X79380952Y-66952381D01*
X79476190Y-66952381D01*
X79666667Y-66285714D02*
X80047619Y-66285714D01*
X79809524Y-65952381D02*
X79809524Y-66809524D01*
X79857143Y-66904762D01*
X79952381Y-66952381D01*
X80047619Y-66952381D01*
X80523810Y-66952381D02*
X80428572Y-66904762D01*
X80380953Y-66857143D01*
X80333334Y-66761905D01*
X80333334Y-66476190D01*
X80380953Y-66380952D01*
X80428572Y-66333333D01*
X80523810Y-66285714D01*
X80666668Y-66285714D01*
X80761906Y-66333333D01*
X80809525Y-66380952D01*
X80857144Y-66476190D01*
X80857144Y-66761905D01*
X80809525Y-66857143D01*
X80761906Y-66904762D01*
X80666668Y-66952381D01*
X80523810Y-66952381D01*
X81285715Y-66285714D02*
X81285715Y-66952381D01*
X81285715Y-66380952D02*
X81333334Y-66333333D01*
X81428572Y-66285714D01*
X81571430Y-66285714D01*
X81666668Y-66333333D01*
X81714287Y-66428571D01*
X81714287Y-66952381D01*
X82666668Y-65952381D02*
X82190477Y-65952381D01*
X82142858Y-66428571D01*
X82190477Y-66380952D01*
X82285715Y-66333333D01*
X82523811Y-66333333D01*
X82619049Y-66380952D01*
X82666668Y-66428571D01*
X82714287Y-66523810D01*
X82714287Y-66761905D01*
X82666668Y-66857143D01*
X82619049Y-66904762D01*
X82523811Y-66952381D01*
X82285715Y-66952381D01*
X82190477Y-66904762D01*
X82142858Y-66857143D01*
X92916667Y-66178571D02*
X93059524Y-66226190D01*
X93107143Y-66273810D01*
X93154762Y-66369048D01*
X93154762Y-66511905D01*
X93107143Y-66607143D01*
X93059524Y-66654762D01*
X92964286Y-66702381D01*
X92583333Y-66702381D01*
X92583333Y-65702381D01*
X92916667Y-65702381D01*
X93011905Y-65750000D01*
X93059524Y-65797619D01*
X93107143Y-65892857D01*
X93107143Y-65988095D01*
X93059524Y-66083333D01*
X93011905Y-66130952D01*
X92916667Y-66178571D01*
X92583333Y-66178571D01*
X94011905Y-66035714D02*
X94011905Y-66702381D01*
X93583333Y-66035714D02*
X93583333Y-66559524D01*
X93630952Y-66654762D01*
X93726190Y-66702381D01*
X93869048Y-66702381D01*
X93964286Y-66654762D01*
X94011905Y-66607143D01*
X94345238Y-66035714D02*
X94726190Y-66035714D01*
X94488095Y-65702381D02*
X94488095Y-66559524D01*
X94535714Y-66654762D01*
X94630952Y-66702381D01*
X94726190Y-66702381D01*
X94916667Y-66035714D02*
X95297619Y-66035714D01*
X95059524Y-65702381D02*
X95059524Y-66559524D01*
X95107143Y-66654762D01*
X95202381Y-66702381D01*
X95297619Y-66702381D01*
X95773810Y-66702381D02*
X95678572Y-66654762D01*
X95630953Y-66607143D01*
X95583334Y-66511905D01*
X95583334Y-66226190D01*
X95630953Y-66130952D01*
X95678572Y-66083333D01*
X95773810Y-66035714D01*
X95916668Y-66035714D01*
X96011906Y-66083333D01*
X96059525Y-66130952D01*
X96107144Y-66226190D01*
X96107144Y-66511905D01*
X96059525Y-66607143D01*
X96011906Y-66654762D01*
X95916668Y-66702381D01*
X95773810Y-66702381D01*
X96535715Y-66035714D02*
X96535715Y-66702381D01*
X96535715Y-66130952D02*
X96583334Y-66083333D01*
X96678572Y-66035714D01*
X96821430Y-66035714D01*
X96916668Y-66083333D01*
X96964287Y-66178571D01*
X96964287Y-66702381D01*
X97869049Y-65702381D02*
X97678572Y-65702381D01*
X97583334Y-65750000D01*
X97535715Y-65797619D01*
X97440477Y-65940476D01*
X97392858Y-66130952D01*
X97392858Y-66511905D01*
X97440477Y-66607143D01*
X97488096Y-66654762D01*
X97583334Y-66702381D01*
X97773811Y-66702381D01*
X97869049Y-66654762D01*
X97916668Y-66607143D01*
X97964287Y-66511905D01*
X97964287Y-66273810D01*
X97916668Y-66178571D01*
X97869049Y-66130952D01*
X97773811Y-66083333D01*
X97583334Y-66083333D01*
X97488096Y-66130952D01*
X97440477Y-66178571D01*
X97392858Y-66273810D01*
X130666667Y-61928571D02*
X130809524Y-61976190D01*
X130857143Y-62023810D01*
X130904762Y-62119048D01*
X130904762Y-62261905D01*
X130857143Y-62357143D01*
X130809524Y-62404762D01*
X130714286Y-62452381D01*
X130333333Y-62452381D01*
X130333333Y-61452381D01*
X130666667Y-61452381D01*
X130761905Y-61500000D01*
X130809524Y-61547619D01*
X130857143Y-61642857D01*
X130857143Y-61738095D01*
X130809524Y-61833333D01*
X130761905Y-61880952D01*
X130666667Y-61928571D01*
X130333333Y-61928571D01*
X131761905Y-61785714D02*
X131761905Y-62452381D01*
X131333333Y-61785714D02*
X131333333Y-62309524D01*
X131380952Y-62404762D01*
X131476190Y-62452381D01*
X131619048Y-62452381D01*
X131714286Y-62404762D01*
X131761905Y-62357143D01*
X132095238Y-61785714D02*
X132476190Y-61785714D01*
X132238095Y-61452381D02*
X132238095Y-62309524D01*
X132285714Y-62404762D01*
X132380952Y-62452381D01*
X132476190Y-62452381D01*
X132666667Y-61785714D02*
X133047619Y-61785714D01*
X132809524Y-61452381D02*
X132809524Y-62309524D01*
X132857143Y-62404762D01*
X132952381Y-62452381D01*
X133047619Y-62452381D01*
X133523810Y-62452381D02*
X133428572Y-62404762D01*
X133380953Y-62357143D01*
X133333334Y-62261905D01*
X133333334Y-61976190D01*
X133380953Y-61880952D01*
X133428572Y-61833333D01*
X133523810Y-61785714D01*
X133666668Y-61785714D01*
X133761906Y-61833333D01*
X133809525Y-61880952D01*
X133857144Y-61976190D01*
X133857144Y-62261905D01*
X133809525Y-62357143D01*
X133761906Y-62404762D01*
X133666668Y-62452381D01*
X133523810Y-62452381D01*
X134285715Y-61785714D02*
X134285715Y-62452381D01*
X134285715Y-61880952D02*
X134333334Y-61833333D01*
X134428572Y-61785714D01*
X134571430Y-61785714D01*
X134666668Y-61833333D01*
X134714287Y-61928571D01*
X134714287Y-62452381D01*
X135095239Y-61452381D02*
X135761906Y-61452381D01*
X135333334Y-62452381D01*
X63940477Y-133202381D02*
X63940477Y-133916667D01*
X63892857Y-134059524D01*
X63797619Y-134154762D01*
X63654762Y-134202381D01*
X63559524Y-134202381D01*
X64369048Y-134154762D02*
X64511905Y-134202381D01*
X64750001Y-134202381D01*
X64845239Y-134154762D01*
X64892858Y-134107143D01*
X64940477Y-134011905D01*
X64940477Y-133916667D01*
X64892858Y-133821429D01*
X64845239Y-133773810D01*
X64750001Y-133726190D01*
X64559524Y-133678571D01*
X64464286Y-133630952D01*
X64416667Y-133583333D01*
X64369048Y-133488095D01*
X64369048Y-133392857D01*
X64416667Y-133297619D01*
X64464286Y-133250000D01*
X64559524Y-133202381D01*
X64797620Y-133202381D01*
X64940477Y-133250000D01*
X65892858Y-134202381D02*
X65321429Y-134202381D01*
X65607143Y-134202381D02*
X65607143Y-133202381D01*
X65511905Y-133345238D01*
X65416667Y-133440476D01*
X65321429Y-133488095D01*
X84190477Y-133202381D02*
X84190477Y-133916667D01*
X84142857Y-134059524D01*
X84047619Y-134154762D01*
X83904762Y-134202381D01*
X83809524Y-134202381D01*
X84619048Y-134154762D02*
X84761905Y-134202381D01*
X85000001Y-134202381D01*
X85095239Y-134154762D01*
X85142858Y-134107143D01*
X85190477Y-134011905D01*
X85190477Y-133916667D01*
X85142858Y-133821429D01*
X85095239Y-133773810D01*
X85000001Y-133726190D01*
X84809524Y-133678571D01*
X84714286Y-133630952D01*
X84666667Y-133583333D01*
X84619048Y-133488095D01*
X84619048Y-133392857D01*
X84666667Y-133297619D01*
X84714286Y-133250000D01*
X84809524Y-133202381D01*
X85047620Y-133202381D01*
X85190477Y-133250000D01*
X85571429Y-133297619D02*
X85619048Y-133250000D01*
X85714286Y-133202381D01*
X85952382Y-133202381D01*
X86047620Y-133250000D01*
X86095239Y-133297619D01*
X86142858Y-133392857D01*
X86142858Y-133488095D01*
X86095239Y-133630952D01*
X85523810Y-134202381D01*
X86142858Y-134202381D01*
X124452381Y-129119047D02*
X124452381Y-129595238D01*
X123452381Y-129595238D01*
X123928571Y-128785714D02*
X123928571Y-128452380D01*
X124452381Y-128309523D02*
X124452381Y-128785714D01*
X123452381Y-128785714D01*
X123452381Y-128309523D01*
X124452381Y-127880952D02*
X123452381Y-127880952D01*
X123452381Y-127642857D01*
X123500000Y-127499999D01*
X123595238Y-127404761D01*
X123690476Y-127357142D01*
X123880952Y-127309523D01*
X124023810Y-127309523D01*
X124214286Y-127357142D01*
X124309524Y-127404761D01*
X124404762Y-127499999D01*
X124452381Y-127642857D01*
X124452381Y-127880952D01*
X123452381Y-126690476D02*
X123452381Y-126595237D01*
X123500000Y-126499999D01*
X123547619Y-126452380D01*
X123642857Y-126404761D01*
X123833333Y-126357142D01*
X124071429Y-126357142D01*
X124261905Y-126404761D01*
X124357143Y-126452380D01*
X124404762Y-126499999D01*
X124452381Y-126595237D01*
X124452381Y-126690476D01*
X124404762Y-126785714D01*
X124357143Y-126833333D01*
X124261905Y-126880952D01*
X124071429Y-126928571D01*
X123833333Y-126928571D01*
X123642857Y-126880952D01*
X123547619Y-126833333D01*
X123500000Y-126785714D01*
X123452381Y-126690476D01*
X124202381Y-88619047D02*
X124202381Y-89095238D01*
X123202381Y-89095238D01*
X123678571Y-88285714D02*
X123678571Y-87952380D01*
X124202381Y-87809523D02*
X124202381Y-88285714D01*
X123202381Y-88285714D01*
X123202381Y-87809523D01*
X124202381Y-87380952D02*
X123202381Y-87380952D01*
X123202381Y-87142857D01*
X123250000Y-86999999D01*
X123345238Y-86904761D01*
X123440476Y-86857142D01*
X123630952Y-86809523D01*
X123773810Y-86809523D01*
X123964286Y-86857142D01*
X124059524Y-86904761D01*
X124154762Y-86999999D01*
X124202381Y-87142857D01*
X124202381Y-87380952D01*
X124202381Y-85857142D02*
X124202381Y-86428571D01*
X124202381Y-86142857D02*
X123202381Y-86142857D01*
X123345238Y-86238095D01*
X123440476Y-86333333D01*
X123488095Y-86428571D01*
X86547619Y-65702381D02*
X86547619Y-64702381D01*
X86976190Y-64797619D02*
X87023809Y-64750000D01*
X87119047Y-64702381D01*
X87357143Y-64702381D01*
X87452381Y-64750000D01*
X87500000Y-64797619D01*
X87547619Y-64892857D01*
X87547619Y-64988095D01*
X87500000Y-65130952D01*
X86928571Y-65702381D01*
X87547619Y-65702381D01*
X88547619Y-65607143D02*
X88500000Y-65654762D01*
X88357143Y-65702381D01*
X88261905Y-65702381D01*
X88119047Y-65654762D01*
X88023809Y-65559524D01*
X87976190Y-65464286D01*
X87928571Y-65273810D01*
X87928571Y-65130952D01*
X87976190Y-64940476D01*
X88023809Y-64845238D01*
X88119047Y-64750000D01*
X88261905Y-64702381D01*
X88357143Y-64702381D01*
X88500000Y-64750000D01*
X88547619Y-64797619D01*
X89500000Y-65702381D02*
X88928571Y-65702381D01*
X89214285Y-65702381D02*
X89214285Y-64702381D01*
X89119047Y-64845238D01*
X89023809Y-64940476D01*
X88928571Y-64988095D01*
X94952381Y-60071429D02*
X95761905Y-60071429D01*
X95857143Y-60023810D01*
X95904762Y-59976191D01*
X95952381Y-59880953D01*
X95952381Y-59690476D01*
X95904762Y-59595238D01*
X95857143Y-59547619D01*
X95761905Y-59500000D01*
X94952381Y-59500000D01*
X95666667Y-59071429D02*
X95666667Y-58595238D01*
X95952381Y-59166667D02*
X94952381Y-58833334D01*
X95952381Y-58500000D01*
X95952381Y-57595238D02*
X95476190Y-57928572D01*
X95952381Y-58166667D02*
X94952381Y-58166667D01*
X94952381Y-57785714D01*
X95000000Y-57690476D01*
X95047619Y-57642857D01*
X95142857Y-57595238D01*
X95285714Y-57595238D01*
X95380952Y-57642857D01*
X95428571Y-57690476D01*
X95476190Y-57785714D01*
X95476190Y-58166667D01*
X94952381Y-57309524D02*
X94952381Y-56738095D01*
X95952381Y-57023810D02*
X94952381Y-57023810D01*
X95952381Y-55880952D02*
X95952381Y-56452381D01*
X95952381Y-56166667D02*
X94952381Y-56166667D01*
X95095238Y-56261905D01*
X95190476Y-56357143D01*
X95238095Y-56452381D01*
%LPC*%
D15*
X130000000Y-93000000D03*
D16*
X127460000Y-93000000D03*
X124920000Y-93000000D03*
X122380000Y-93000000D03*
X119840000Y-93000000D03*
X117300000Y-93000000D03*
X114760000Y-93000000D03*
X112220000Y-93000000D03*
X109680000Y-93000000D03*
X107140000Y-93000000D03*
X104600000Y-93000000D03*
X102060000Y-93000000D03*
X99520000Y-93000000D03*
X96980000Y-93000000D03*
X94440000Y-93000000D03*
X91900000Y-93000000D03*
X89360000Y-93000000D03*
X86820000Y-93000000D03*
X84280000Y-93000000D03*
X81740000Y-93000000D03*
X79200000Y-93000000D03*
X76660000Y-93000000D03*
X74120000Y-93000000D03*
X71580000Y-93000000D03*
X69040000Y-93000000D03*
X66500000Y-93000000D03*
D15*
X130000000Y-113320000D03*
D16*
X127460000Y-113320000D03*
X124920000Y-113320000D03*
X122380000Y-113320000D03*
X119840000Y-113320000D03*
X117300000Y-113320000D03*
X114760000Y-113320000D03*
X112220000Y-113320000D03*
X109680000Y-113320000D03*
X107140000Y-113320000D03*
X104600000Y-113320000D03*
X102060000Y-113320000D03*
X99520000Y-113320000D03*
X96980000Y-113320000D03*
X94440000Y-113320000D03*
X91900000Y-113320000D03*
X89360000Y-113320000D03*
X86820000Y-113320000D03*
X84280000Y-113320000D03*
X81740000Y-113320000D03*
X79200000Y-113320000D03*
X76660000Y-113320000D03*
X74120000Y-113320000D03*
X71580000Y-113320000D03*
X69040000Y-113320000D03*
X66500000Y-113320000D03*
D17*
X45000000Y-145000000D03*
X135000000Y-145000000D03*
X45000000Y-55000000D03*
X135000000Y-55000000D03*
D18*
X118920000Y-109000000D03*
X129080000Y-109000000D03*
X118920000Y-106000000D03*
X129080000Y-106000000D03*
X101420000Y-109500000D03*
X111580000Y-109500000D03*
X101420000Y-106500000D03*
X111580000Y-106500000D03*
X101920000Y-101000000D03*
X112080000Y-101000000D03*
X101920000Y-98000000D03*
X112080000Y-98000000D03*
X118920000Y-100000000D03*
X129080000Y-100000000D03*
X118920000Y-97000000D03*
X129080000Y-97000000D03*
X69080000Y-121000000D03*
X58920000Y-121000000D03*
X70080000Y-102000000D03*
X59920000Y-102000000D03*
X69080000Y-78000000D03*
X58920000Y-78000000D03*
X89080000Y-78000000D03*
X78920000Y-78000000D03*
X69080000Y-124000000D03*
X58920000Y-124000000D03*
X70080000Y-105000000D03*
X59920000Y-105000000D03*
X69080000Y-81000000D03*
X58920000Y-81000000D03*
X89080000Y-81000000D03*
X78920000Y-81000000D03*
X69080000Y-127000000D03*
X58920000Y-127000000D03*
X70080000Y-108000000D03*
X59920000Y-108000000D03*
X69080000Y-84000000D03*
X58920000Y-84000000D03*
X72080000Y-71000000D03*
X61920000Y-71000000D03*
X89080000Y-69000000D03*
X78920000Y-69000000D03*
X122000000Y-78080000D03*
X122000000Y-67920000D03*
X107000000Y-78080000D03*
X107000000Y-67920000D03*
X89080000Y-72000000D03*
X78920000Y-72000000D03*
X118000000Y-78080000D03*
X118000000Y-67920000D03*
X103000000Y-78080000D03*
X103000000Y-67920000D03*
X89080000Y-75000000D03*
X78920000Y-75000000D03*
X114000000Y-78080000D03*
X114000000Y-67920000D03*
X99000000Y-78080000D03*
X99000000Y-67920000D03*
D19*
X98410000Y-143470000D03*
X98410000Y-138470000D03*
D20*
X101910000Y-143470000D03*
X101910000Y-138470000D03*
X105410000Y-143470000D03*
X105410000Y-138470000D03*
X108910000Y-143470000D03*
X108910000Y-138470000D03*
X112410000Y-143470000D03*
X112410000Y-138470000D03*
D19*
X47500000Y-114750000D03*
X52500000Y-114750000D03*
D20*
X47500000Y-118250000D03*
X52500000Y-118250000D03*
X47500000Y-121750000D03*
X52500000Y-121750000D03*
X47500000Y-125250000D03*
X52500000Y-125250000D03*
D19*
X47500000Y-94750000D03*
X52500000Y-94750000D03*
D20*
X47500000Y-98250000D03*
X52500000Y-98250000D03*
X47500000Y-101750000D03*
X52500000Y-101750000D03*
X47500000Y-105250000D03*
X52500000Y-105250000D03*
D19*
X47500000Y-74750000D03*
X52500000Y-74750000D03*
D20*
X47500000Y-78250000D03*
X52500000Y-78250000D03*
X47500000Y-81750000D03*
X52500000Y-81750000D03*
X47500000Y-85250000D03*
X52500000Y-85250000D03*
D19*
X63250000Y-56500000D03*
X63250000Y-61500000D03*
D20*
X59750000Y-56500000D03*
X59750000Y-61500000D03*
X56250000Y-56500000D03*
X56250000Y-61500000D03*
X52750000Y-56500000D03*
X52750000Y-61500000D03*
D19*
X81250000Y-56500000D03*
X81250000Y-61500000D03*
D20*
X77750000Y-56500000D03*
X77750000Y-61500000D03*
X74250000Y-56500000D03*
X74250000Y-61500000D03*
X70750000Y-56500000D03*
X70750000Y-61500000D03*
D19*
X109250000Y-56500000D03*
X109250000Y-61500000D03*
D20*
X105750000Y-56500000D03*
X105750000Y-61500000D03*
X102250000Y-56500000D03*
X102250000Y-61500000D03*
X98750000Y-56500000D03*
X98750000Y-61500000D03*
D19*
X126250000Y-56500000D03*
X126250000Y-61500000D03*
D20*
X122750000Y-56500000D03*
X122750000Y-61500000D03*
X119250000Y-56500000D03*
X119250000Y-61500000D03*
X115750000Y-56500000D03*
X115750000Y-61500000D03*
D19*
X57770000Y-143470000D03*
X57770000Y-138470000D03*
D20*
X61270000Y-143470000D03*
X61270000Y-138470000D03*
X64770000Y-143470000D03*
X64770000Y-138470000D03*
X68270000Y-143470000D03*
X68270000Y-138470000D03*
X71770000Y-143470000D03*
X71770000Y-138470000D03*
D19*
X78090000Y-143470000D03*
X78090000Y-138470000D03*
D20*
X81590000Y-143470000D03*
X81590000Y-138470000D03*
X85090000Y-143470000D03*
X85090000Y-138470000D03*
X88590000Y-143470000D03*
X88590000Y-138470000D03*
X92090000Y-143470000D03*
X92090000Y-138470000D03*
D19*
X133500000Y-136750000D03*
X128500000Y-136750000D03*
D20*
X133500000Y-133250000D03*
X128500000Y-133250000D03*
X133500000Y-129750000D03*
X128500000Y-129750000D03*
X133500000Y-126250000D03*
X128500000Y-126250000D03*
X133500000Y-122750000D03*
X128500000Y-122750000D03*
X133500000Y-119250000D03*
X128500000Y-119250000D03*
D19*
X133500000Y-85750000D03*
X128500000Y-85750000D03*
D20*
X133500000Y-82250000D03*
X128500000Y-82250000D03*
X133500000Y-78750000D03*
X128500000Y-78750000D03*
X133500000Y-75250000D03*
X128500000Y-75250000D03*
X133500000Y-71750000D03*
X128500000Y-71750000D03*
X133500000Y-68250000D03*
X128500000Y-68250000D03*
D21*
X88000000Y-54000000D03*
D22*
X88000000Y-56540000D03*
X88000000Y-59080000D03*
X88000000Y-61620000D03*
D21*
X93000000Y-54000000D03*
D22*
X93000000Y-56540000D03*
X93000000Y-59080000D03*
X93000000Y-61620000D03*
D23*
X137500000Y-103000000D03*
X133500000Y-103000000D03*
X83000000Y-122000000D03*
X93500000Y-70500000D03*
M02*
