M48
;DRILL file {KiCad (5.0.2)-1} date 4/13/2019 7:43:53 AM
;FORMAT={-:-/ absolute / inch / decimal}
FMAT,2
INCH,TZ
T1C0.0157
T2C0.0350
T3C0.0374
T4C0.0400
%
G90
G05
T1
X4.1378Y-4.0354
X4.1772Y-5.1142
X4.2441Y-5.1142
X4.2953Y-4.0591
X4.813Y-5.4134
X4.8622Y-4.5374
X4.8622Y-4.6358
X4.872Y-5.0492
X4.9213Y-4.7047
X5.Y-5.0492
X5.0295Y-5.0295
X5.0295Y-5.1083
X5.0787Y-4.0846
X5.1575Y-5.4134
X5.2362Y-4.6949
X5.2461Y-5.4134
X5.2657Y-5.561
X5.3346Y-5.5807
X5.3839Y-5.6201
X5.4528Y-5.0689
X5.4724Y-4.0453
X5.4823Y-5.4823
X5.5039Y-4.0561
X5.5315Y-4.0748
X5.5413Y-4.7146
X5.5413Y-5.4921
X5.6102Y-4.7441
X5.6102Y-5.0689
X5.7972Y-5.0394
X5.7972Y-5.0984
X5.7972Y-5.1575
X5.9921Y-4.0354
X6.1457Y-4.0354
X6.6043Y-4.3898
X6.9252Y-4.0394
X7.2402Y-4.0394
X6.3484Y-5.7087
X6.7717Y-5.6299
X6.4665Y-5.6299
X4.6161Y-5.6398
X4.8917Y-4.7343
X5.8563Y-5.1378
X5.315Y-5.2362
X4.626Y-5.2362
X6.7638Y-4.6102
X7.0866Y-4.6457
X6.1516Y-5.3346
X6.7638Y-4.8622
X4.2323Y-4.8819
X5.9547Y-5.3346
X4.5768Y-5.1378
X5.4331Y-4.6457
X4.3307Y-4.4488
X7.0866Y-5.0394
X6.0591Y-4.8622
X4.3799Y-5.5315
X5.7579Y-4.3504
X5.6594Y-4.1535
X4.311Y-4.8819
X4.872Y-5.5315
X3.9862Y-4.3504
X7.0866Y-4.252
X7.2343Y-5.5315
X6.0591Y-4.7087
X4.9213Y-4.252
X5.2165Y-4.4488
X6.9882Y-4.252
X4.4291Y-5.4331
X5.7579Y-4.1535
X6.5945Y-5.4331
X6.2244Y-4.1535
X6.8898Y-5.4331
X7.185Y-5.6299
X7.0669Y-5.6299
X4.813Y-5.6299
X6.5748Y-5.6299
X4.1929Y-5.1772
X6.0531Y-5.1378
X6.7638Y-5.2598
X6.7421Y-5.3346
X6.7638Y-5.2087
X4.626Y-4.8622
X4.5768Y-5.3346
X6.7638Y-4.6594
X7.1358Y-4.9409
X7.3819Y-4.7933
X6.25Y-5.3346
X5.4626Y-5.1378
X4.0846Y-4.9409
X6.0591Y-4.6102
X5.Y-5.1772
X4.5866Y-4.9606
X4.1339Y-5.6299
X4.4783Y-4.3504
X5.1181Y-4.2717
X4.3307Y-4.6457
X7.0866Y-5.4331
X4.1339Y-4.4488
X4.1339Y-4.252
X4.0354Y-5.6299
X5.0787Y-4.3307
X6.8898Y-4.252
X5.2756Y-4.6457
X4.5295Y-4.1535
X6.7913Y-5.4331
X4.626Y-4.252
X6.4961Y-5.4331
X5.1673Y-5.7087
X7.4016Y-5.6299
X5.7874Y-5.6299
X7.3819Y-4.0551
X6.6732Y-5.6299
X4.4291Y-5.2362
X4.0354Y-4.0551
X5.4134Y-5.2362
X6.7638Y-5.1575
X5.8563Y-5.3346
X5.5413Y-4.7539
X5.8071Y-4.6654
X4.872Y-5.3346
X6.7638Y-4.7087
X4.626Y-5.0394
X4.7244Y-4.8819
X4.0354Y-5.4331
X4.4783Y-5.1378
X4.4488Y-4.8622
X5.561Y-4.3504
X5.2657Y-5.1378
X4.2323Y-4.6457
X4.7736Y-5.5315
X4.5276Y-4.8622
X4.0354Y-4.252
X4.1339Y-4.8819
X3.9862Y-5.5315
X4.0846Y-4.3504
X4.4291Y-4.252
X4.2323Y-5.6299
X4.8622Y-4.5866
X5.8563Y-4.1535
X5.2657Y-4.3504
X7.1594Y-4.1535
X6.3976Y-5.4331
X3.9862Y-4.1535
X4.7736Y-5.4331
X6.9685Y-5.6299
X6.25Y-5.7087
X6.0039Y-5.6299
X6.8406Y-5.3346
X5.9154Y-5.5906
X5.689Y-5.6299
X5.7776Y-4.4783
X7.3819Y-5.187
X7.0059Y-4.0197
X4.5276Y-5.2362
X6.7638Y-5.0591
X4.1339Y-5.4331
X6.7638Y-4.811
X4.3799Y-4.7441
X4.9409Y-5.3346
X6.0039Y-5.0394
X5.7874Y-4.7441
X6.5453Y-5.3346
X4.7736Y-4.9409
X4.8228Y-4.8819
X5.6594Y-4.3504
X5.3642Y-5.1378
X6.0591Y-4.811
X4.4193Y-5.6398
X7.185Y-4.252
X5.2165Y-4.2717
X3.9961Y-4.6457
X4.0846Y-5.5315
X4.1831Y-4.3504
X6.7913Y-4.252
X4.2815Y-4.3504
X6.6929Y-4.1535
X5.4626Y-4.3504
X4.3307Y-4.252
X5.9055Y-5.4331
X4.998Y-4.1535
X4.9213Y-5.4331
X7.0866Y-5.2362
X5.748Y-4.5079
X6.2244Y-5.1575
X6.3681Y-5.6299
X6.8701Y-5.6299
X5.1181Y-5.6299
X4.2815Y-5.3346
X5.5413Y-5.6693
X5.9547Y-5.1378
X4.2323Y-5.2362
X6.7638Y-5.0079
X4.7736Y-4.7441
X6.4469Y-5.3346
X6.7638Y-4.5591
X7.1358Y-4.7441
X5.561Y-5.3346
X5.0689Y-5.1378
X7.1358Y-4.5472
X6.0531Y-5.3346
X4.6654Y-5.1476
X7.0866Y-4.8425
X5.4626Y-4.5472
X7.3819Y-4.9902
X3.9961Y-4.9213
X6.9882Y-5.4331
X3.9862Y-4.5472
X4.8406Y-4.1535
X4.2913Y-4.7244
X4.1831Y-5.5315
X4.3799Y-4.3504
X5.0197Y-4.2717
X4.872Y-4.3504
X7.3327Y-4.1535
X6.2992Y-5.4331
X5.9567Y-4.5039
X4.8228Y-4.252
X6.2008Y-5.4331
X4.6752Y-4.1535
X5.6102Y-5.4331
X6.2244Y-5.2598
X6.2008Y-5.6299
X5.0689Y-5.7087
X5.6004Y-5.6299
X7.1358Y-5.1378
X5.1969Y-5.6299
X5.1181Y-5.2362
X4.3307Y-5.2362
X4.4685Y-4.9606
X4.3799Y-5.3346
X4.0354Y-4.8819
X6.3484Y-5.3346
X5.1673Y-5.1378
X5.1378Y-4.6457
X4.0354Y-4.4488
X4.4291Y-5.0394
X6.0591Y-4.7598
X5.5453Y-4.5492
X6.0591Y-4.9213
X7.1358Y-5.5315
X7.2835Y-4.252
X4.2185Y-4.1535
X7.185Y-5.4331
X6.0591Y-4.5591
X5.1535Y-4.1535
X4.2323Y-4.4488
X4.2323Y-4.252
X4.2323Y-5.4331
X5.5118Y-4.4488
X6.0689Y-4.1535
X6.6929Y-5.4331
X5.561Y-4.1535
X5.7087Y-5.4331
X6.2244Y-5.2087
X6.1024Y-5.6299
X6.6142Y-4.3406
X6.2992Y-5.6299
X5.5807Y-4.6752
X4.0945Y-5.3543
X5.0197Y-5.6299
X5.2165Y-5.2362
X6.0591Y-4.6594
X4.1831Y-5.3346
X6.7638Y-4.7598
X6.2244Y-5.0591
X4.4783Y-5.3346
X6.7638Y-4.9213
X7.3819Y-4.5866
X6.6437Y-5.3346
X5.9055Y-5.0394
X3.9961Y-4.7047
X5.7087Y-4.4488
X4.7638Y-5.1476
X4.6752Y-4.9409
X4.2815Y-5.5315
X5.6102Y-4.4488
X6.2244Y-5.0079
X4.5079Y-5.6398
X7.3819Y-4.252
X4.374Y-4.1535
X7.4016Y-5.4331
X4.9803Y-4.3307
X5.311Y-4.1535
X5.1772Y-4.3307
X5.2835Y-4.252
X4.3307Y-5.4331
X4.0591Y-4.1535
X6.1024Y-5.4331
X4.5276Y-4.252
X6.0039Y-5.4331
T2
X5.2362Y-5.7268
X5.2362Y-5.8268
X5.3362Y-5.7268
X5.3362Y-5.8268
X5.4362Y-5.7268
X5.4362Y-5.8268
X5.5362Y-5.7268
X5.5362Y-5.8268
X5.6362Y-5.7268
X5.6362Y-5.8268
X5.7362Y-5.7268
X5.7362Y-5.8268
X5.8362Y-5.7268
X5.8362Y-5.8268
X5.9362Y-5.7268
X5.9362Y-5.8268
X6.0362Y-5.7268
X6.0362Y-5.8268
X6.1362Y-5.7268
X6.1362Y-5.8268
X4.0551Y-5.7268
X4.0551Y-5.8268
X4.1551Y-5.7268
X4.1551Y-5.8268
X4.2551Y-5.7268
X4.2551Y-5.8268
X4.3551Y-5.7268
X4.3551Y-5.8268
X4.4551Y-5.7268
X4.4551Y-5.8268
X4.5551Y-5.7268
X4.5551Y-5.8268
X4.6551Y-5.7268
X4.6551Y-5.8268
X4.7551Y-5.7268
X4.7551Y-5.8268
X4.8551Y-5.7268
X4.8551Y-5.8268
X4.9551Y-5.7268
X4.9551Y-5.8268
X7.2228Y-4.4346
X7.2228Y-4.5346
X7.2228Y-4.6346
X7.2228Y-4.7346
X7.2228Y-4.8346
X7.2228Y-4.9346
X7.2228Y-5.0346
X7.2228Y-5.1346
X7.2228Y-5.2346
X7.2228Y-5.3346
X7.3228Y-4.4346
X7.3228Y-4.5346
X7.3228Y-4.6346
X7.3228Y-4.7346
X7.3228Y-4.8346
X7.3228Y-4.9346
X7.3228Y-5.0346
X7.3228Y-5.1346
X7.3228Y-5.2346
X7.3228Y-5.3346
X6.4173Y-5.7268
X6.4173Y-5.8268
X6.5173Y-5.7268
X6.5173Y-5.8268
X6.6173Y-5.7268
X6.6173Y-5.8268
X6.7173Y-5.7268
X6.7173Y-5.8268
X6.8173Y-5.7268
X6.8173Y-5.8268
X6.9173Y-5.7268
X6.9173Y-5.8268
X7.0173Y-5.7268
X7.0173Y-5.8268
X7.1173Y-5.7268
X7.1173Y-5.8268
X7.2173Y-5.7268
X7.2173Y-5.8268
X7.3173Y-5.7268
X7.3173Y-5.8268
X6.9079Y-4.4346
X6.9079Y-4.5346
X6.9079Y-4.6346
X6.9079Y-4.7346
X6.9079Y-4.8346
X6.9079Y-4.9346
X6.9079Y-5.0346
X6.9079Y-5.1346
X6.9079Y-5.2346
X6.9079Y-5.3346
X7.0079Y-4.4346
X7.0079Y-4.5346
X7.0079Y-4.6346
X7.0079Y-4.7346
X7.0079Y-4.8346
X7.0079Y-4.9346
X7.0079Y-5.0346
X7.0079Y-5.1346
X7.0079Y-5.2346
X7.0079Y-5.3346
T3
X4.7146Y-4.4193
X4.8146Y-4.4193
X4.9146Y-4.4193
X5.0146Y-4.4193
X5.1146Y-4.4193
T4
X5.9902Y-4.1535
X6.1462Y-4.1535
X6.3022Y-4.1535
X6.4582Y-4.1535
X6.6142Y-4.1535
X6.7702Y-4.1535
X6.9262Y-4.1535
X7.0822Y-4.1535
X7.2382Y-4.1535
X4.0913Y-4.5276
X4.1913Y-4.5276
X4.2913Y-4.5276
X4.3913Y-4.5276
X4.4913Y-4.5276
X4.1398Y-4.1535
X4.2958Y-4.1535
X4.4518Y-4.1535
X4.6078Y-4.1535
X4.7638Y-4.1535
X4.9198Y-4.1535
X5.0758Y-4.1535
X5.2318Y-4.1535
X5.3878Y-4.1535
T0
M30
