G04 #@! TF.GenerationSoftware,KiCad,Pcbnew,(5.0.2)-1*
G04 #@! TF.CreationDate,2019-04-13T07:43:48-04:00*
G04 #@! TF.ProjectId,Console,436f6e73-6f6c-4652-9e6b-696361645f70,rev?*
G04 #@! TF.SameCoordinates,Original*
G04 #@! TF.FileFunction,Copper,L2,Bot*
G04 #@! TF.FilePolarity,Positive*
%FSLAX46Y46*%
G04 Gerber Fmt 4.6, Leading zero omitted, Abs format (unit mm)*
G04 Created by KiCad (PCBNEW (5.0.2)-1) date 4/13/2019 7:43:48 AM*
%MOMM*%
%LPD*%
G01*
G04 APERTURE LIST*
G04 #@! TA.AperFunction,ViaPad*
%ADD10C,0.600000*%
G04 #@! TD*
G04 #@! TA.AperFunction,ComponentPad*
%ADD11R,1.270000X1.270000*%
G04 #@! TD*
G04 #@! TA.AperFunction,ComponentPad*
%ADD12C,1.270000*%
G04 #@! TD*
G04 #@! TA.AperFunction,ComponentPad*
%ADD13R,2.000000X2.000000*%
G04 #@! TD*
G04 #@! TA.AperFunction,ComponentPad*
%ADD14C,2.000000*%
G04 #@! TD*
G04 #@! TA.AperFunction,ComponentPad*
%ADD15R,1.600000X2.000000*%
G04 #@! TD*
G04 #@! TA.AperFunction,ComponentPad*
%ADD16O,1.600000X2.000000*%
G04 #@! TD*
G04 #@! TA.AperFunction,ComponentPad*
%ADD17R,1.905000X2.286000*%
G04 #@! TD*
G04 #@! TA.AperFunction,ComponentPad*
%ADD18O,1.905000X2.286000*%
G04 #@! TD*
G04 #@! TA.AperFunction,Conductor*
%ADD19C,0.150000*%
G04 #@! TD*
G04 #@! TA.AperFunction,Conductor*
%ADD20C,0.200000*%
G04 #@! TD*
G04 #@! TA.AperFunction,Conductor*
%ADD21C,0.500000*%
G04 #@! TD*
G04 #@! TA.AperFunction,Conductor*
%ADD22C,0.254000*%
G04 #@! TD*
G04 APERTURE END LIST*
D10*
G04 #@! TO.N,GND1*
G04 #@! TO.C,REF\002A\002A*
X171800000Y-118350000D03*
G04 #@! TD*
G04 #@! TO.N,GND1*
G04 #@! TO.C,REF\002A\002A*
X153900000Y-118350000D03*
G04 #@! TD*
G04 #@! TO.N,VCC*
G04 #@! TO.C,REF\002A\002A*
X140750000Y-120750000D03*
G04 #@! TD*
G04 #@! TO.N,GND1*
G04 #@! TO.C,REF\002A\002A*
X171800000Y-127200000D03*
G04 #@! TD*
G04 #@! TO.N,GND1*
G04 #@! TO.C,REF\002A\002A*
X171800000Y-128500000D03*
G04 #@! TD*
G04 #@! TO.N,GND1*
G04 #@! TO.C,REF\002A\002A*
X171800000Y-131000000D03*
G04 #@! TD*
G04 #@! TO.N,GND1*
G04 #@! TO.C,REF\002A\002A*
X171800000Y-132300000D03*
G04 #@! TD*
G04 #@! TO.N,GND1*
G04 #@! TO.C,REF\002A\002A*
X171800000Y-133600000D03*
G04 #@! TD*
G04 #@! TO.N,GND1*
G04 #@! TO.C,REF\002A\002A*
X171800000Y-115800000D03*
G04 #@! TD*
G04 #@! TO.N,GND1*
G04 #@! TO.C,REF\002A\002A*
X171800000Y-117100000D03*
G04 #@! TD*
G04 #@! TO.N,GND1*
G04 #@! TO.C,REF\002A\002A*
X171800000Y-119600000D03*
G04 #@! TD*
G04 #@! TO.N,GND1*
G04 #@! TO.C,REF\002A\002A*
X171800000Y-120900000D03*
G04 #@! TD*
G04 #@! TO.N,GND1*
G04 #@! TO.C,REF\002A\002A*
X171800000Y-122200000D03*
G04 #@! TD*
G04 #@! TO.N,GND1*
G04 #@! TO.C,REF\002A\002A*
X171800000Y-123500000D03*
G04 #@! TD*
G04 #@! TO.N,GND1*
G04 #@! TO.C,REF\002A\002A*
X171800000Y-125000000D03*
G04 #@! TD*
G04 #@! TO.N,GND1*
G04 #@! TO.C,REF\002A\002A*
X158100000Y-133600000D03*
G04 #@! TD*
G04 #@! TO.N,GND1*
G04 #@! TO.C,REF\002A\002A*
X158100000Y-132300000D03*
G04 #@! TD*
G04 #@! TO.N,GND1*
G04 #@! TO.C,REF\002A\002A*
X158100000Y-131000000D03*
G04 #@! TD*
G04 #@! TO.N,VCC*
G04 #@! TO.C,REF\002A\002A*
X168000000Y-110250000D03*
G04 #@! TD*
D11*
G04 #@! TO.P,P2,1*
G04 #@! TO.N,VCC*
X186000000Y-135500000D03*
D12*
G04 #@! TO.P,P2,2*
X183460000Y-135500000D03*
G04 #@! TO.P,P2,3*
G04 #@! TO.N,GND1*
X186000000Y-132960000D03*
G04 #@! TO.P,P2,4*
G04 #@! TO.N,/P4_4*
X183460000Y-132960000D03*
G04 #@! TO.P,P2,5*
G04 #@! TO.N,GND1*
X186000000Y-130420000D03*
G04 #@! TO.P,P2,6*
G04 #@! TO.N,/P4_6*
X183460000Y-130420000D03*
G04 #@! TO.P,P2,7*
G04 #@! TO.N,GND1*
X186000000Y-127880000D03*
G04 #@! TO.P,P2,8*
G04 #@! TO.N,/P6_0*
X183460000Y-127880000D03*
G04 #@! TO.P,P2,9*
G04 #@! TO.N,GND1*
X186000000Y-125340000D03*
G04 #@! TO.P,P2,10*
G04 #@! TO.N,/P6_2*
X183460000Y-125340000D03*
G04 #@! TO.P,P2,11*
G04 #@! TO.N,GND1*
X186000000Y-122800000D03*
G04 #@! TO.P,P2,12*
G04 #@! TO.N,/P2_0*
X183460000Y-122800000D03*
G04 #@! TO.P,P2,13*
G04 #@! TO.N,GND1*
X186000000Y-120260000D03*
G04 #@! TO.P,P2,14*
G04 #@! TO.N,/P2_2*
X183460000Y-120260000D03*
G04 #@! TO.P,P2,15*
G04 #@! TO.N,GND1*
X186000000Y-117720000D03*
G04 #@! TO.P,P2,16*
G04 #@! TO.N,/P2_4*
X183460000Y-117720000D03*
G04 #@! TO.P,P2,17*
G04 #@! TO.N,GND1*
X186000000Y-115180000D03*
G04 #@! TO.P,P2,18*
G04 #@! TO.N,/P2_6*
X183460000Y-115180000D03*
G04 #@! TO.P,P2,19*
G04 #@! TO.N,VCC*
X186000000Y-112640000D03*
G04 #@! TO.P,P2,20*
X183460000Y-112640000D03*
G04 #@! TD*
D10*
G04 #@! TO.N,GND1*
G04 #@! TO.C,REF\002A\002A*
X173750000Y-135500000D03*
G04 #@! TD*
G04 #@! TO.N,GND1*
G04 #@! TO.C,REF\002A\002A*
X180000000Y-133000000D03*
G04 #@! TD*
D11*
G04 #@! TO.P,P1,1*
G04 #@! TO.N,VCC*
X178000000Y-135500000D03*
D12*
G04 #@! TO.P,P1,2*
X175460000Y-135500000D03*
G04 #@! TO.P,P1,3*
G04 #@! TO.N,GND1*
X178000000Y-132960000D03*
G04 #@! TO.P,P1,4*
G04 #@! TO.N,/P4_5*
X175460000Y-132960000D03*
G04 #@! TO.P,P1,5*
G04 #@! TO.N,GND1*
X178000000Y-130420000D03*
G04 #@! TO.P,P1,6*
G04 #@! TO.N,/P4_7*
X175460000Y-130420000D03*
G04 #@! TO.P,P1,7*
G04 #@! TO.N,GND1*
X178000000Y-127880000D03*
G04 #@! TO.P,P1,8*
G04 #@! TO.N,/P6_1*
X175460000Y-127880000D03*
G04 #@! TO.P,P1,9*
G04 #@! TO.N,GND1*
X178000000Y-125340000D03*
G04 #@! TO.P,P1,10*
G04 #@! TO.N,/P6_3*
X175460000Y-125340000D03*
G04 #@! TO.P,P1,11*
G04 #@! TO.N,GND1*
X178000000Y-122800000D03*
G04 #@! TO.P,P1,12*
G04 #@! TO.N,/P2_1*
X175460000Y-122800000D03*
G04 #@! TO.P,P1,13*
G04 #@! TO.N,GND1*
X178000000Y-120260000D03*
G04 #@! TO.P,P1,14*
G04 #@! TO.N,/P2_3*
X175460000Y-120260000D03*
G04 #@! TO.P,P1,15*
G04 #@! TO.N,GND1*
X178000000Y-117720000D03*
G04 #@! TO.P,P1,16*
G04 #@! TO.N,/P2_5*
X175460000Y-117720000D03*
G04 #@! TO.P,P1,17*
G04 #@! TO.N,GND1*
X178000000Y-115180000D03*
G04 #@! TO.P,P1,18*
G04 #@! TO.N,/P2_7*
X175460000Y-115180000D03*
G04 #@! TO.P,P1,19*
G04 #@! TO.N,VCC*
X178000000Y-112640000D03*
G04 #@! TO.P,P1,20*
X175460000Y-112640000D03*
G04 #@! TD*
D10*
G04 #@! TO.N,GND1*
G04 #@! TO.C,REF\002A\002A*
X161250000Y-145000000D03*
G04 #@! TD*
G04 #@! TO.N,GND1*
G04 #@! TO.C,REF\002A\002A*
X158750000Y-145000000D03*
G04 #@! TD*
G04 #@! TO.N,GND1*
G04 #@! TO.C,REF\002A\002A*
X131250000Y-145000000D03*
G04 #@! TD*
G04 #@! TO.N,GND1*
G04 #@! TO.C,REF\002A\002A*
X128750000Y-145000000D03*
G04 #@! TD*
G04 #@! TO.N,GND1*
G04 #@! TO.C,REF\002A\002A*
X188000000Y-143000000D03*
G04 #@! TD*
G04 #@! TO.N,GND1*
G04 #@! TO.C,REF\002A\002A*
X182500000Y-143000000D03*
G04 #@! TD*
G04 #@! TO.N,GND1*
G04 #@! TO.C,REF\002A\002A*
X179500000Y-143000000D03*
G04 #@! TD*
G04 #@! TO.N,GND1*
G04 #@! TO.C,REF\002A\002A*
X177000000Y-143000000D03*
G04 #@! TD*
G04 #@! TO.N,GND1*
G04 #@! TO.C,REF\002A\002A*
X174500000Y-143000000D03*
G04 #@! TD*
G04 #@! TO.N,GND1*
G04 #@! TO.C,REF\002A\002A*
X172000000Y-143000000D03*
G04 #@! TD*
G04 #@! TO.N,GND1*
G04 #@! TO.C,REF\002A\002A*
X169500000Y-143000000D03*
G04 #@! TD*
G04 #@! TO.N,GND1*
G04 #@! TO.C,REF\002A\002A*
X167000000Y-143000000D03*
G04 #@! TD*
G04 #@! TO.N,GND1*
G04 #@! TO.C,REF\002A\002A*
X164250000Y-143000000D03*
G04 #@! TD*
G04 #@! TO.N,GND1*
G04 #@! TO.C,REF\002A\002A*
X161750000Y-143000000D03*
G04 #@! TD*
G04 #@! TO.N,GND1*
G04 #@! TO.C,REF\002A\002A*
X160000000Y-143000000D03*
G04 #@! TD*
G04 #@! TO.N,GND1*
G04 #@! TO.C,REF\002A\002A*
X157500000Y-143000000D03*
G04 #@! TD*
G04 #@! TO.N,GND1*
G04 #@! TO.C,REF\002A\002A*
X155000000Y-143000000D03*
G04 #@! TD*
G04 #@! TO.N,GND1*
G04 #@! TO.C,REF\002A\002A*
X152500000Y-143000000D03*
G04 #@! TD*
G04 #@! TO.N,GND1*
G04 #@! TO.C,REF\002A\002A*
X150250000Y-142000000D03*
G04 #@! TD*
G04 #@! TO.N,GND1*
G04 #@! TO.C,REF\002A\002A*
X147000000Y-143000000D03*
G04 #@! TD*
G04 #@! TO.N,GND1*
G04 #@! TO.C,REF\002A\002A*
X144500000Y-143000000D03*
G04 #@! TD*
G04 #@! TO.N,GND1*
G04 #@! TO.C,REF\002A\002A*
X142250000Y-143000000D03*
G04 #@! TD*
G04 #@! TO.N,GND1*
G04 #@! TO.C,REF\002A\002A*
X140750000Y-144000000D03*
G04 #@! TD*
G04 #@! TO.N,GND1*
G04 #@! TO.C,REF\002A\002A*
X132000000Y-143000000D03*
G04 #@! TD*
G04 #@! TO.N,GND1*
G04 #@! TO.C,REF\002A\002A*
X130000000Y-143000000D03*
G04 #@! TD*
G04 #@! TO.N,GND1*
G04 #@! TO.C,REF\002A\002A*
X127500000Y-143000000D03*
G04 #@! TD*
G04 #@! TO.N,GND1*
G04 #@! TO.C,REF\002A\002A*
X122250000Y-143000000D03*
G04 #@! TD*
G04 #@! TO.N,GND1*
G04 #@! TO.C,REF\002A\002A*
X117250000Y-143250000D03*
G04 #@! TD*
G04 #@! TO.N,GND1*
G04 #@! TO.C,REF\002A\002A*
X114500000Y-143250000D03*
G04 #@! TD*
G04 #@! TO.N,GND1*
G04 #@! TO.C,REF\002A\002A*
X112250000Y-143250000D03*
G04 #@! TD*
G04 #@! TO.N,GND1*
G04 #@! TO.C,REF\002A\002A*
X107500000Y-143000000D03*
G04 #@! TD*
G04 #@! TO.N,GND1*
G04 #@! TO.C,REF\002A\002A*
X105000000Y-143000000D03*
G04 #@! TD*
G04 #@! TO.N,GND1*
G04 #@! TO.C,REF\002A\002A*
X102500000Y-143000000D03*
G04 #@! TD*
G04 #@! TO.N,GND1*
G04 #@! TO.C,REF\002A\002A*
X183750000Y-140500000D03*
G04 #@! TD*
G04 #@! TO.N,GND1*
G04 #@! TO.C,REF\002A\002A*
X181250000Y-140500000D03*
G04 #@! TD*
G04 #@! TO.N,GND1*
G04 #@! TO.C,REF\002A\002A*
X123750000Y-140500000D03*
G04 #@! TD*
G04 #@! TO.N,GND1*
G04 #@! TO.C,REF\002A\002A*
X121250000Y-140500000D03*
G04 #@! TD*
G04 #@! TO.N,GND1*
G04 #@! TO.C,REF\002A\002A*
X111250000Y-140500000D03*
G04 #@! TD*
G04 #@! TO.N,GND1*
G04 #@! TO.C,REF\002A\002A*
X108750000Y-140500000D03*
G04 #@! TD*
G04 #@! TO.N,GND1*
G04 #@! TO.C,REF\002A\002A*
X106250000Y-140500000D03*
G04 #@! TD*
G04 #@! TO.N,GND1*
G04 #@! TO.C,REF\002A\002A*
X103750000Y-140500000D03*
G04 #@! TD*
G04 #@! TO.N,GND1*
G04 #@! TO.C,REF\002A\002A*
X101250000Y-140500000D03*
G04 #@! TD*
G04 #@! TO.N,GND1*
G04 #@! TO.C,REF\002A\002A*
X188000000Y-138000000D03*
G04 #@! TD*
G04 #@! TO.N,GND1*
G04 #@! TO.C,REF\002A\002A*
X182500000Y-138000000D03*
G04 #@! TD*
G04 #@! TO.N,GND1*
G04 #@! TO.C,REF\002A\002A*
X180000000Y-138000000D03*
G04 #@! TD*
G04 #@! TO.N,GND1*
G04 #@! TO.C,REF\002A\002A*
X177500000Y-138000000D03*
G04 #@! TD*
G04 #@! TO.N,GND1*
G04 #@! TO.C,REF\002A\002A*
X175000000Y-138000000D03*
G04 #@! TD*
G04 #@! TO.N,GND1*
G04 #@! TO.C,REF\002A\002A*
X172500000Y-138000000D03*
G04 #@! TD*
G04 #@! TO.N,GND1*
G04 #@! TO.C,REF\002A\002A*
X170000000Y-138000000D03*
G04 #@! TD*
G04 #@! TO.N,GND1*
G04 #@! TO.C,REF\002A\002A*
X167500000Y-138000000D03*
G04 #@! TD*
G04 #@! TO.N,GND1*
G04 #@! TO.C,REF\002A\002A*
X165000000Y-138000000D03*
G04 #@! TD*
G04 #@! TO.N,GND1*
G04 #@! TO.C,REF\002A\002A*
X162500000Y-138000000D03*
G04 #@! TD*
G04 #@! TO.N,GND1*
G04 #@! TO.C,REF\002A\002A*
X160000000Y-138000000D03*
G04 #@! TD*
G04 #@! TO.N,GND1*
G04 #@! TO.C,REF\002A\002A*
X157500000Y-138000000D03*
G04 #@! TD*
G04 #@! TO.N,GND1*
G04 #@! TO.C,REF\002A\002A*
X155000000Y-138000000D03*
G04 #@! TD*
G04 #@! TO.N,GND1*
G04 #@! TO.C,REF\002A\002A*
X152500000Y-138000000D03*
G04 #@! TD*
G04 #@! TO.N,GND1*
G04 #@! TO.C,REF\002A\002A*
X150000000Y-138000000D03*
G04 #@! TD*
G04 #@! TO.N,GND1*
G04 #@! TO.C,REF\002A\002A*
X145000000Y-138000000D03*
G04 #@! TD*
G04 #@! TO.N,GND1*
G04 #@! TO.C,REF\002A\002A*
X142500000Y-138000000D03*
G04 #@! TD*
G04 #@! TO.N,GND1*
G04 #@! TO.C,REF\002A\002A*
X125000000Y-138000000D03*
G04 #@! TD*
G04 #@! TO.N,GND1*
G04 #@! TO.C,REF\002A\002A*
X121250000Y-138000000D03*
G04 #@! TD*
G04 #@! TO.N,GND1*
G04 #@! TO.C,REF\002A\002A*
X112500000Y-138000000D03*
G04 #@! TD*
G04 #@! TO.N,GND1*
G04 #@! TO.C,REF\002A\002A*
X110000000Y-138000000D03*
G04 #@! TD*
G04 #@! TO.N,GND1*
G04 #@! TO.C,REF\002A\002A*
X107500000Y-138000000D03*
G04 #@! TD*
G04 #@! TO.N,GND1*
G04 #@! TO.C,REF\002A\002A*
X105000000Y-138000000D03*
G04 #@! TD*
G04 #@! TO.N,GND1*
G04 #@! TO.C,REF\002A\002A*
X102500000Y-138000000D03*
G04 #@! TD*
G04 #@! TO.N,GND1*
G04 #@! TO.C,REF\002A\002A*
X171250000Y-135500000D03*
G04 #@! TD*
G04 #@! TO.N,GND1*
G04 #@! TO.C,REF\002A\002A*
X168750000Y-135500000D03*
G04 #@! TD*
G04 #@! TO.N,GND1*
G04 #@! TO.C,REF\002A\002A*
X166250000Y-135500000D03*
G04 #@! TD*
G04 #@! TO.N,GND1*
G04 #@! TO.C,REF\002A\002A*
X163750000Y-135500000D03*
G04 #@! TD*
G04 #@! TO.N,GND1*
G04 #@! TO.C,REF\002A\002A*
X161250000Y-135500000D03*
G04 #@! TD*
G04 #@! TO.N,GND1*
G04 #@! TO.C,REF\002A\002A*
X158750000Y-135500000D03*
G04 #@! TD*
G04 #@! TO.N,GND1*
G04 #@! TO.C,REF\002A\002A*
X156250000Y-135500000D03*
G04 #@! TD*
G04 #@! TO.N,GND1*
G04 #@! TO.C,REF\002A\002A*
X153750000Y-135500000D03*
G04 #@! TD*
G04 #@! TO.N,GND1*
G04 #@! TO.C,REF\002A\002A*
X151250000Y-135500000D03*
G04 #@! TD*
G04 #@! TO.N,GND1*
G04 #@! TO.C,REF\002A\002A*
X148750000Y-135500000D03*
G04 #@! TD*
G04 #@! TO.N,GND1*
G04 #@! TO.C,REF\002A\002A*
X141250000Y-135500000D03*
G04 #@! TD*
G04 #@! TO.N,GND1*
G04 #@! TO.C,REF\002A\002A*
X125500000Y-135500000D03*
G04 #@! TD*
G04 #@! TO.N,GND1*
G04 #@! TO.C,REF\002A\002A*
X123750000Y-135500000D03*
G04 #@! TD*
G04 #@! TO.N,GND1*
G04 #@! TO.C,REF\002A\002A*
X116250000Y-135500000D03*
G04 #@! TD*
G04 #@! TO.N,GND1*
G04 #@! TO.C,REF\002A\002A*
X113750000Y-135500000D03*
G04 #@! TD*
G04 #@! TO.N,GND1*
G04 #@! TO.C,REF\002A\002A*
X111250000Y-135500000D03*
G04 #@! TD*
G04 #@! TO.N,GND1*
G04 #@! TO.C,REF\002A\002A*
X108750000Y-135500000D03*
G04 #@! TD*
G04 #@! TO.N,GND1*
G04 #@! TO.C,REF\002A\002A*
X106250000Y-135500000D03*
G04 #@! TD*
G04 #@! TO.N,GND1*
G04 #@! TO.C,REF\002A\002A*
X104000000Y-136000000D03*
G04 #@! TD*
G04 #@! TO.N,GND1*
G04 #@! TO.C,REF\002A\002A*
X187500000Y-131750000D03*
G04 #@! TD*
G04 #@! TO.N,GND1*
G04 #@! TO.C,REF\002A\002A*
X137500000Y-133000000D03*
G04 #@! TD*
G04 #@! TO.N,GND1*
G04 #@! TO.C,REF\002A\002A*
X135000000Y-133000000D03*
G04 #@! TD*
G04 #@! TO.N,GND1*
G04 #@! TO.C,REF\002A\002A*
X132500000Y-133000000D03*
G04 #@! TD*
G04 #@! TO.N,GND1*
G04 #@! TO.C,REF\002A\002A*
X130000000Y-133000000D03*
G04 #@! TD*
G04 #@! TO.N,GND1*
G04 #@! TO.C,REF\002A\002A*
X117500000Y-133000000D03*
G04 #@! TD*
G04 #@! TO.N,GND1*
G04 #@! TO.C,REF\002A\002A*
X115000000Y-133000000D03*
G04 #@! TD*
G04 #@! TO.N,GND1*
G04 #@! TO.C,REF\002A\002A*
X112500000Y-133000000D03*
G04 #@! TD*
G04 #@! TO.N,GND1*
G04 #@! TO.C,REF\002A\002A*
X110000000Y-133000000D03*
G04 #@! TD*
G04 #@! TO.N,GND1*
G04 #@! TO.C,REF\002A\002A*
X107500000Y-133000000D03*
G04 #@! TD*
G04 #@! TO.N,GND1*
G04 #@! TO.C,REF\002A\002A*
X106500000Y-131500000D03*
G04 #@! TD*
G04 #@! TO.N,GND1*
G04 #@! TO.C,REF\002A\002A*
X181250000Y-130500000D03*
G04 #@! TD*
G04 #@! TO.N,GND1*
G04 #@! TO.C,REF\002A\002A*
X153750000Y-130500000D03*
G04 #@! TD*
G04 #@! TO.N,GND1*
G04 #@! TO.C,REF\002A\002A*
X151250000Y-130500000D03*
G04 #@! TD*
G04 #@! TO.N,GND1*
G04 #@! TO.C,REF\002A\002A*
X148750000Y-130500000D03*
G04 #@! TD*
G04 #@! TO.N,GND1*
G04 #@! TO.C,REF\002A\002A*
X138750000Y-130500000D03*
G04 #@! TD*
G04 #@! TO.N,GND1*
G04 #@! TO.C,REF\002A\002A*
X136250000Y-130500000D03*
G04 #@! TD*
G04 #@! TO.N,GND1*
G04 #@! TO.C,REF\002A\002A*
X133750000Y-130500000D03*
G04 #@! TD*
G04 #@! TO.N,GND1*
G04 #@! TO.C,REF\002A\002A*
X131250000Y-130500000D03*
G04 #@! TD*
G04 #@! TO.N,GND1*
G04 #@! TO.C,REF\002A\002A*
X128750000Y-130500000D03*
G04 #@! TD*
G04 #@! TO.N,GND1*
G04 #@! TO.C,REF\002A\002A*
X127000000Y-131500000D03*
G04 #@! TD*
G04 #@! TO.N,GND1*
G04 #@! TO.C,REF\002A\002A*
X121000000Y-130750000D03*
G04 #@! TD*
G04 #@! TO.N,GND1*
G04 #@! TO.C,REF\002A\002A*
X118500000Y-130750000D03*
G04 #@! TD*
G04 #@! TO.N,GND1*
G04 #@! TO.C,REF\002A\002A*
X116250000Y-130500000D03*
G04 #@! TD*
G04 #@! TO.N,GND1*
G04 #@! TO.C,REF\002A\002A*
X113750000Y-130500000D03*
G04 #@! TD*
G04 #@! TO.N,GND1*
G04 #@! TO.C,REF\002A\002A*
X187500000Y-126750000D03*
G04 #@! TD*
G04 #@! TO.N,GND1*
G04 #@! TO.C,REF\002A\002A*
X180000000Y-128000000D03*
G04 #@! TD*
G04 #@! TO.N,GND1*
G04 #@! TO.C,REF\002A\002A*
X152500000Y-128000000D03*
G04 #@! TD*
G04 #@! TO.N,GND1*
G04 #@! TO.C,REF\002A\002A*
X150000000Y-128000000D03*
G04 #@! TD*
G04 #@! TO.N,GND1*
G04 #@! TO.C,REF\002A\002A*
X117500000Y-128000000D03*
G04 #@! TD*
G04 #@! TO.N,GND1*
G04 #@! TO.C,REF\002A\002A*
X112500000Y-128000000D03*
G04 #@! TD*
G04 #@! TO.N,GND1*
G04 #@! TO.C,REF\002A\002A*
X181250000Y-125500000D03*
G04 #@! TD*
G04 #@! TO.N,GND1*
G04 #@! TO.C,REF\002A\002A*
X121250000Y-125500000D03*
G04 #@! TD*
G04 #@! TO.N,GND1*
G04 #@! TO.C,REF\002A\002A*
X118750000Y-125500000D03*
G04 #@! TD*
G04 #@! TO.N,GND1*
G04 #@! TO.C,REF\002A\002A*
X116500000Y-126000000D03*
G04 #@! TD*
G04 #@! TO.N,GND1*
G04 #@! TO.C,REF\002A\002A*
X113500000Y-126000000D03*
G04 #@! TD*
G04 #@! TO.N,GND1*
G04 #@! TO.C,REF\002A\002A*
X103750000Y-125500000D03*
G04 #@! TD*
G04 #@! TO.N,GND1*
G04 #@! TO.C,REF\002A\002A*
X101500000Y-125000000D03*
G04 #@! TD*
G04 #@! TO.N,GND1*
G04 #@! TO.C,REF\002A\002A*
X187500000Y-121750000D03*
G04 #@! TD*
G04 #@! TO.N,GND1*
G04 #@! TO.C,REF\002A\002A*
X180000000Y-123000000D03*
G04 #@! TD*
G04 #@! TO.N,GND1*
G04 #@! TO.C,REF\002A\002A*
X122500000Y-124000000D03*
G04 #@! TD*
G04 #@! TO.N,GND1*
G04 #@! TO.C,REF\002A\002A*
X120000000Y-124000000D03*
G04 #@! TD*
G04 #@! TO.N,GND1*
G04 #@! TO.C,REF\002A\002A*
X117500000Y-123500000D03*
G04 #@! TD*
G04 #@! TO.N,GND1*
G04 #@! TO.C,REF\002A\002A*
X113000000Y-123500000D03*
G04 #@! TD*
G04 #@! TO.N,GND1*
G04 #@! TO.C,REF\002A\002A*
X109500000Y-124000000D03*
G04 #@! TD*
G04 #@! TO.N,GND1*
G04 #@! TO.C,REF\002A\002A*
X107500000Y-124000000D03*
G04 #@! TD*
G04 #@! TO.N,GND1*
G04 #@! TO.C,REF\002A\002A*
X105000000Y-124000000D03*
G04 #@! TD*
G04 #@! TO.N,GND1*
G04 #@! TO.C,REF\002A\002A*
X102500000Y-124000000D03*
G04 #@! TD*
G04 #@! TO.N,GND1*
G04 #@! TO.C,REF\002A\002A*
X181250000Y-120500000D03*
G04 #@! TD*
G04 #@! TO.N,GND1*
G04 #@! TO.C,REF\002A\002A*
X147000000Y-120500000D03*
G04 #@! TD*
G04 #@! TO.N,GND1*
G04 #@! TO.C,REF\002A\002A*
X121250000Y-120500000D03*
G04 #@! TD*
G04 #@! TO.N,GND1*
G04 #@! TO.C,REF\002A\002A*
X111250000Y-120500000D03*
G04 #@! TD*
G04 #@! TO.N,GND1*
G04 #@! TO.C,REF\002A\002A*
X109000000Y-120000000D03*
G04 #@! TD*
G04 #@! TO.N,GND1*
G04 #@! TO.C,REF\002A\002A*
X101500000Y-119500000D03*
G04 #@! TD*
G04 #@! TO.N,GND1*
G04 #@! TO.C,REF\002A\002A*
X187500000Y-116500000D03*
G04 #@! TD*
G04 #@! TO.N,GND1*
G04 #@! TO.C,REF\002A\002A*
X180000000Y-118000000D03*
G04 #@! TD*
G04 #@! TO.N,GND1*
G04 #@! TO.C,REF\002A\002A*
X147500000Y-118500000D03*
G04 #@! TD*
G04 #@! TO.N,GND1*
G04 #@! TO.C,REF\002A\002A*
X138000000Y-118000000D03*
G04 #@! TD*
G04 #@! TO.N,GND1*
G04 #@! TO.C,REF\002A\002A*
X130500000Y-118000000D03*
G04 #@! TD*
G04 #@! TO.N,GND1*
G04 #@! TO.C,REF\002A\002A*
X110000000Y-118000000D03*
G04 #@! TD*
G04 #@! TO.N,GND1*
G04 #@! TO.C,REF\002A\002A*
X107500000Y-118000000D03*
G04 #@! TD*
G04 #@! TO.N,GND1*
G04 #@! TO.C,REF\002A\002A*
X101500000Y-118000000D03*
G04 #@! TD*
G04 #@! TO.N,GND1*
G04 #@! TO.C,REF\002A\002A*
X181250000Y-115500000D03*
G04 #@! TD*
G04 #@! TO.N,GND1*
G04 #@! TO.C,REF\002A\002A*
X158100000Y-128500000D03*
G04 #@! TD*
G04 #@! TO.N,GND1*
G04 #@! TO.C,REF\002A\002A*
X158100000Y-127200000D03*
G04 #@! TD*
G04 #@! TO.N,GND1*
G04 #@! TO.C,REF\002A\002A*
X153900000Y-125000000D03*
G04 #@! TD*
G04 #@! TO.N,GND1*
G04 #@! TO.C,REF\002A\002A*
X153900000Y-123500000D03*
G04 #@! TD*
G04 #@! TO.N,GND1*
G04 #@! TO.C,REF\002A\002A*
X153900000Y-122200000D03*
G04 #@! TD*
G04 #@! TO.N,GND1*
G04 #@! TO.C,REF\002A\002A*
X153900000Y-120900000D03*
G04 #@! TD*
G04 #@! TO.N,GND1*
G04 #@! TO.C,REF\002A\002A*
X153900000Y-119600000D03*
G04 #@! TD*
G04 #@! TO.N,GND1*
G04 #@! TO.C,REF\002A\002A*
X153900000Y-117100000D03*
G04 #@! TD*
G04 #@! TO.N,GND1*
G04 #@! TO.C,REF\002A\002A*
X153900000Y-115800000D03*
G04 #@! TD*
G04 #@! TO.N,GND1*
G04 #@! TO.C,REF\002A\002A*
X151300000Y-114400000D03*
G04 #@! TD*
G04 #@! TO.N,GND1*
G04 #@! TO.C,REF\002A\002A*
X140850000Y-115550000D03*
G04 #@! TD*
G04 #@! TO.N,GND1*
G04 #@! TO.C,REF\002A\002A*
X138750000Y-115500000D03*
G04 #@! TD*
G04 #@! TO.N,GND1*
G04 #@! TO.C,REF\002A\002A*
X134000000Y-118000000D03*
G04 #@! TD*
G04 #@! TO.N,GND1*
G04 #@! TO.C,REF\002A\002A*
X123500000Y-116500000D03*
G04 #@! TD*
G04 #@! TO.N,GND1*
G04 #@! TO.C,REF\002A\002A*
X115000000Y-123500000D03*
G04 #@! TD*
G04 #@! TO.N,GND1*
G04 #@! TO.C,REF\002A\002A*
X101250000Y-115500000D03*
G04 #@! TD*
G04 #@! TO.N,GND1*
G04 #@! TO.C,REF\002A\002A*
X145000000Y-113000000D03*
G04 #@! TD*
G04 #@! TO.N,GND1*
G04 #@! TO.C,REF\002A\002A*
X142500000Y-113000000D03*
G04 #@! TD*
G04 #@! TO.N,GND1*
G04 #@! TO.C,REF\002A\002A*
X140000000Y-113000000D03*
G04 #@! TD*
G04 #@! TO.N,GND1*
G04 #@! TO.C,REF\002A\002A*
X132500000Y-113000000D03*
G04 #@! TD*
G04 #@! TO.N,GND1*
G04 #@! TO.C,REF\002A\002A*
X110000000Y-113000000D03*
G04 #@! TD*
G04 #@! TO.N,GND1*
G04 #@! TO.C,REF\002A\002A*
X107500000Y-113000000D03*
G04 #@! TD*
G04 #@! TO.N,GND1*
G04 #@! TO.C,REF\002A\002A*
X105000000Y-113000000D03*
G04 #@! TD*
G04 #@! TO.N,GND1*
G04 #@! TO.C,REF\002A\002A*
X102500000Y-113000000D03*
G04 #@! TD*
G04 #@! TO.N,GND1*
G04 #@! TO.C,REF\002A\002A*
X146250000Y-110500000D03*
G04 #@! TD*
G04 #@! TO.N,GND1*
G04 #@! TO.C,REF\002A\002A*
X143750000Y-110500000D03*
G04 #@! TD*
G04 #@! TO.N,GND1*
G04 #@! TO.C,REF\002A\002A*
X141250000Y-110500000D03*
G04 #@! TD*
G04 #@! TO.N,GND1*
G04 #@! TO.C,REF\002A\002A*
X138750000Y-110500000D03*
G04 #@! TD*
G04 #@! TO.N,GND1*
G04 #@! TO.C,REF\002A\002A*
X133750000Y-110500000D03*
G04 #@! TD*
G04 #@! TO.N,GND1*
G04 #@! TO.C,REF\002A\002A*
X131500000Y-110000000D03*
G04 #@! TD*
G04 #@! TO.N,GND1*
G04 #@! TO.C,REF\002A\002A*
X129000000Y-110000000D03*
G04 #@! TD*
G04 #@! TO.N,GND1*
G04 #@! TO.C,REF\002A\002A*
X126500000Y-110000000D03*
G04 #@! TD*
G04 #@! TO.N,GND1*
G04 #@! TO.C,REF\002A\002A*
X123750000Y-110500000D03*
G04 #@! TD*
G04 #@! TO.N,GND1*
G04 #@! TO.C,REF\002A\002A*
X113750000Y-110500000D03*
G04 #@! TD*
G04 #@! TO.N,GND1*
G04 #@! TO.C,REF\002A\002A*
X111250000Y-110500000D03*
G04 #@! TD*
G04 #@! TO.N,GND1*
G04 #@! TO.C,REF\002A\002A*
X108750000Y-110500000D03*
G04 #@! TD*
G04 #@! TO.N,GND1*
G04 #@! TO.C,REF\002A\002A*
X106250000Y-110500000D03*
G04 #@! TD*
G04 #@! TO.N,GND1*
G04 #@! TO.C,REF\002A\002A*
X103750000Y-110500000D03*
G04 #@! TD*
G04 #@! TO.N,GND1*
G04 #@! TO.C,REF\002A\002A*
X101250000Y-110500000D03*
G04 #@! TD*
G04 #@! TO.N,GND1*
G04 #@! TO.C,REF\002A\002A*
X187500000Y-108000000D03*
G04 #@! TD*
G04 #@! TO.N,GND1*
G04 #@! TO.C,REF\002A\002A*
X185000000Y-108000000D03*
G04 #@! TD*
G04 #@! TO.N,GND1*
G04 #@! TO.C,REF\002A\002A*
X182500000Y-108000000D03*
G04 #@! TD*
G04 #@! TO.N,GND1*
G04 #@! TO.C,REF\002A\002A*
X180000000Y-108000000D03*
G04 #@! TD*
G04 #@! TO.N,GND1*
G04 #@! TO.C,REF\002A\002A*
X177500000Y-108000000D03*
G04 #@! TD*
G04 #@! TO.N,GND1*
G04 #@! TO.C,REF\002A\002A*
X175000000Y-108000000D03*
G04 #@! TD*
G04 #@! TO.N,GND1*
G04 #@! TO.C,REF\002A\002A*
X172500000Y-108000000D03*
G04 #@! TD*
G04 #@! TO.N,GND1*
G04 #@! TO.C,REF\002A\002A*
X134200000Y-108000000D03*
G04 #@! TD*
G04 #@! TO.N,GND1*
G04 #@! TO.C,REF\002A\002A*
X132500000Y-108500000D03*
G04 #@! TD*
G04 #@! TO.N,GND1*
G04 #@! TO.C,REF\002A\002A*
X130000000Y-108500000D03*
G04 #@! TD*
G04 #@! TO.N,GND1*
G04 #@! TO.C,REF\002A\002A*
X127500000Y-108500000D03*
G04 #@! TD*
G04 #@! TO.N,GND1*
G04 #@! TO.C,REF\002A\002A*
X125000000Y-108000000D03*
G04 #@! TD*
G04 #@! TO.N,GND1*
G04 #@! TO.C,REF\002A\002A*
X122500000Y-108000000D03*
G04 #@! TD*
G04 #@! TO.N,GND1*
G04 #@! TO.C,REF\002A\002A*
X117500000Y-108000000D03*
G04 #@! TD*
G04 #@! TO.N,GND1*
G04 #@! TO.C,REF\002A\002A*
X115000000Y-108000000D03*
G04 #@! TD*
G04 #@! TO.N,GND1*
G04 #@! TO.C,REF\002A\002A*
X112500000Y-108000000D03*
G04 #@! TD*
G04 #@! TO.N,GND1*
G04 #@! TO.C,REF\002A\002A*
X110000000Y-108000000D03*
G04 #@! TD*
G04 #@! TO.N,GND1*
G04 #@! TO.C,REF\002A\002A*
X107500000Y-108000000D03*
G04 #@! TD*
G04 #@! TO.N,GND1*
G04 #@! TO.C,REF\002A\002A*
X105000000Y-108000000D03*
G04 #@! TD*
G04 #@! TO.N,GND1*
G04 #@! TO.C,REF\002A\002A*
X102500000Y-108000000D03*
G04 #@! TD*
G04 #@! TO.N,GND1*
G04 #@! TO.C,REF\002A\002A*
X186250000Y-105500000D03*
G04 #@! TD*
G04 #@! TO.N,GND1*
G04 #@! TO.C,REF\002A\002A*
X181850000Y-105500000D03*
G04 #@! TD*
G04 #@! TO.N,GND1*
G04 #@! TO.C,REF\002A\002A*
X170000000Y-105500000D03*
G04 #@! TD*
G04 #@! TO.N,GND1*
G04 #@! TO.C,REF\002A\002A*
X158100000Y-105500000D03*
G04 #@! TD*
G04 #@! TO.N,GND1*
G04 #@! TO.C,REF\002A\002A*
X154150000Y-105500000D03*
G04 #@! TD*
G04 #@! TO.N,GND1*
G04 #@! TO.C,REF\002A\002A*
X148750000Y-105500000D03*
G04 #@! TD*
G04 #@! TO.N,GND1*
G04 #@! TO.C,REF\002A\002A*
X146250000Y-105500000D03*
G04 #@! TD*
G04 #@! TO.N,GND1*
G04 #@! TO.C,REF\002A\002A*
X143750000Y-105500000D03*
G04 #@! TD*
G04 #@! TO.N,GND1*
G04 #@! TO.C,REF\002A\002A*
X141250000Y-105500000D03*
G04 #@! TD*
G04 #@! TO.N,GND1*
G04 #@! TO.C,REF\002A\002A*
X134900000Y-105500000D03*
G04 #@! TD*
G04 #@! TO.N,GND1*
G04 #@! TO.C,REF\002A\002A*
X130900000Y-105500000D03*
G04 #@! TD*
G04 #@! TO.N,GND1*
G04 #@! TO.C,REF\002A\002A*
X126950000Y-105500000D03*
G04 #@! TD*
G04 #@! TO.N,GND1*
G04 #@! TO.C,REF\002A\002A*
X122950000Y-105500000D03*
G04 #@! TD*
G04 #@! TO.N,GND1*
G04 #@! TO.C,REF\002A\002A*
X118750000Y-105500000D03*
G04 #@! TD*
G04 #@! TO.N,GND1*
G04 #@! TO.C,REF\002A\002A*
X115050000Y-105500000D03*
G04 #@! TD*
G04 #@! TO.N,GND1*
G04 #@! TO.C,REF\002A\002A*
X111100000Y-105500000D03*
G04 #@! TD*
G04 #@! TO.N,GND1*
G04 #@! TO.C,REF\002A\002A*
X107150000Y-105500000D03*
G04 #@! TD*
G04 #@! TO.N,GND1*
G04 #@! TO.C,REF\002A\002A*
X103100000Y-105500000D03*
G04 #@! TD*
G04 #@! TO.N,GND1*
G04 #@! TO.C,REF\002A\002A*
X101250000Y-105500000D03*
G04 #@! TD*
G04 #@! TO.N,GND1*
G04 #@! TO.C,REF\002A\002A*
X187500000Y-103000000D03*
G04 #@! TD*
G04 #@! TO.N,GND1*
G04 #@! TO.C,REF\002A\002A*
X177950000Y-102100000D03*
G04 #@! TD*
G04 #@! TO.N,GND1*
G04 #@! TO.C,REF\002A\002A*
X102500000Y-103000000D03*
G04 #@! TD*
G04 #@! TO.N,VCC*
G04 #@! TO.C,REF\002A\002A*
X124250000Y-120250000D03*
G04 #@! TD*
G04 #@! TO.N,VCC*
G04 #@! TO.C,REF\002A\002A*
X141750000Y-118750000D03*
G04 #@! TD*
G04 #@! TO.N,VCC*
G04 #@! TO.C,REF\002A\002A*
X146750000Y-113750000D03*
G04 #@! TD*
D13*
G04 #@! TO.P,PS1,1*
G04 #@! TO.N,/SPI_MISO*
X105150400Y-105500000D03*
D14*
G04 #@! TO.P,PS1,9*
G04 #@! TO.N,/PS1_ACK*
X136849600Y-105500000D03*
G04 #@! TO.P,PS1,2*
G04 #@! TO.N,/SPI_MOSI*
X109112800Y-105500000D03*
G04 #@! TO.P,PS1,3*
G04 #@! TO.N,Net-(PS1-Pad3)*
X113075200Y-105500000D03*
G04 #@! TO.P,PS1,4*
G04 #@! TO.N,GND1*
X117037600Y-105500000D03*
G04 #@! TO.P,PS1,5*
G04 #@! TO.N,VCC*
X121000000Y-105500000D03*
G04 #@! TO.P,PS1,6*
G04 #@! TO.N,/SPI_CS0*
X124962400Y-105500000D03*
G04 #@! TO.P,PS1,7*
G04 #@! TO.N,/SPI_CLK*
X128924800Y-105500000D03*
G04 #@! TO.P,PS1,8*
G04 #@! TO.N,Net-(PS1-Pad8)*
X132887200Y-105500000D03*
G04 #@! TD*
D15*
G04 #@! TO.P,KP1,1*
G04 #@! TO.N,VCC*
X119750000Y-112250000D03*
D16*
G04 #@! TO.P,KP1,2*
G04 #@! TO.N,GND1*
X122290000Y-112250000D03*
G04 #@! TO.P,KP1,3*
G04 #@! TO.N,/XRES*
X124830000Y-112250000D03*
G04 #@! TO.P,KP1,4*
G04 #@! TO.N,/SWDCK*
X127370000Y-112250000D03*
G04 #@! TO.P,KP1,5*
G04 #@! TO.N,/SWDIO*
X129910000Y-112250000D03*
G04 #@! TD*
D11*
G04 #@! TO.P,P4,1*
G04 #@! TO.N,VCC*
X133000000Y-148000000D03*
D12*
G04 #@! TO.P,P4,2*
X133000000Y-145460000D03*
G04 #@! TO.P,P4,3*
G04 #@! TO.N,GND1*
X135540000Y-148000000D03*
G04 #@! TO.P,P4,4*
G04 #@! TO.N,/P12_0*
X135540000Y-145460000D03*
G04 #@! TO.P,P4,5*
G04 #@! TO.N,GND1*
X138080000Y-148000000D03*
G04 #@! TO.P,P4,6*
G04 #@! TO.N,/P12_1*
X138080000Y-145460000D03*
G04 #@! TO.P,P4,7*
G04 #@! TO.N,GND1*
X140620000Y-148000000D03*
G04 #@! TO.P,P4,8*
G04 #@! TO.N,/P12_2*
X140620000Y-145460000D03*
G04 #@! TO.P,P4,9*
G04 #@! TO.N,GND1*
X143160000Y-148000000D03*
G04 #@! TO.P,P4,10*
G04 #@! TO.N,/P12_3*
X143160000Y-145460000D03*
G04 #@! TO.P,P4,11*
G04 #@! TO.N,GND1*
X145700000Y-148000000D03*
G04 #@! TO.P,P4,12*
G04 #@! TO.N,/P4_0*
X145700000Y-145460000D03*
G04 #@! TO.P,P4,13*
G04 #@! TO.N,GND1*
X148240000Y-148000000D03*
G04 #@! TO.P,P4,14*
G04 #@! TO.N,/P4_1*
X148240000Y-145460000D03*
G04 #@! TO.P,P4,15*
G04 #@! TO.N,GND1*
X150780000Y-148000000D03*
G04 #@! TO.P,P4,16*
G04 #@! TO.N,/P0_0*
X150780000Y-145460000D03*
G04 #@! TO.P,P4,17*
G04 #@! TO.N,GND1*
X153320000Y-148000000D03*
G04 #@! TO.P,P4,18*
G04 #@! TO.N,/P0_1*
X153320000Y-145460000D03*
G04 #@! TO.P,P4,19*
G04 #@! TO.N,VCC*
X155860000Y-148000000D03*
G04 #@! TO.P,P4,20*
X155860000Y-145460000D03*
G04 #@! TD*
D11*
G04 #@! TO.P,P3,1*
G04 #@! TO.N,VCC*
X103000000Y-148000000D03*
D12*
G04 #@! TO.P,P3,2*
X103000000Y-145460000D03*
G04 #@! TO.P,P3,3*
G04 #@! TO.N,GND1*
X105540000Y-148000000D03*
G04 #@! TO.P,P3,4*
G04 #@! TO.N,/P3_0*
X105540000Y-145460000D03*
G04 #@! TO.P,P3,5*
G04 #@! TO.N,GND1*
X108080000Y-148000000D03*
G04 #@! TO.P,P3,6*
G04 #@! TO.N,/P3_1*
X108080000Y-145460000D03*
G04 #@! TO.P,P3,7*
G04 #@! TO.N,GND1*
X110620000Y-148000000D03*
G04 #@! TO.P,P3,8*
G04 #@! TO.N,/P3_2*
X110620000Y-145460000D03*
G04 #@! TO.P,P3,9*
G04 #@! TO.N,GND1*
X113160000Y-148000000D03*
G04 #@! TO.P,P3,10*
G04 #@! TO.N,/P3_3*
X113160000Y-145460000D03*
G04 #@! TO.P,P3,11*
G04 #@! TO.N,GND1*
X115700000Y-148000000D03*
G04 #@! TO.P,P3,12*
G04 #@! TO.N,/P3_4*
X115700000Y-145460000D03*
G04 #@! TO.P,P3,13*
G04 #@! TO.N,GND1*
X118240000Y-148000000D03*
G04 #@! TO.P,P3,14*
G04 #@! TO.N,/P3_5*
X118240000Y-145460000D03*
G04 #@! TO.P,P3,15*
G04 #@! TO.N,GND1*
X120780000Y-148000000D03*
G04 #@! TO.P,P3,16*
G04 #@! TO.N,/P3_6*
X120780000Y-145460000D03*
G04 #@! TO.P,P3,17*
G04 #@! TO.N,GND1*
X123320000Y-148000000D03*
G04 #@! TO.P,P3,18*
G04 #@! TO.N,/P3_7*
X123320000Y-145460000D03*
G04 #@! TO.P,P3,19*
G04 #@! TO.N,VCC*
X125860000Y-148000000D03*
G04 #@! TO.P,P3,20*
X125860000Y-145460000D03*
G04 #@! TD*
D11*
G04 #@! TO.P,P5,1*
G04 #@! TO.N,VCC*
X163000000Y-148000000D03*
D12*
G04 #@! TO.P,P5,2*
X163000000Y-145460000D03*
G04 #@! TO.P,P5,3*
G04 #@! TO.N,GND1*
X165540000Y-148000000D03*
G04 #@! TO.P,P5,4*
G04 #@! TO.N,/P0_2*
X165540000Y-145460000D03*
G04 #@! TO.P,P5,5*
G04 #@! TO.N,GND1*
X168080000Y-148000000D03*
G04 #@! TO.P,P5,6*
G04 #@! TO.N,/P0_3*
X168080000Y-145460000D03*
G04 #@! TO.P,P5,7*
G04 #@! TO.N,GND1*
X170620000Y-148000000D03*
G04 #@! TO.P,P5,8*
G04 #@! TO.N,/P0_4*
X170620000Y-145460000D03*
G04 #@! TO.P,P5,9*
G04 #@! TO.N,GND1*
X173160000Y-148000000D03*
G04 #@! TO.P,P5,10*
G04 #@! TO.N,/P0_5*
X173160000Y-145460000D03*
G04 #@! TO.P,P5,11*
G04 #@! TO.N,GND1*
X175700000Y-148000000D03*
G04 #@! TO.P,P5,12*
G04 #@! TO.N,/P0_6*
X175700000Y-145460000D03*
G04 #@! TO.P,P5,13*
G04 #@! TO.N,GND1*
X178240000Y-148000000D03*
G04 #@! TO.P,P5,14*
G04 #@! TO.N,/P0_7*
X178240000Y-145460000D03*
G04 #@! TO.P,P5,15*
G04 #@! TO.N,GND1*
X180780000Y-148000000D03*
G04 #@! TO.P,P5,16*
G04 #@! TO.N,/P4_2*
X180780000Y-145460000D03*
G04 #@! TO.P,P5,17*
G04 #@! TO.N,GND1*
X183320000Y-148000000D03*
G04 #@! TO.P,P5,18*
G04 #@! TO.N,/P4_3*
X183320000Y-145460000D03*
G04 #@! TO.P,P5,19*
G04 #@! TO.N,VCC*
X185860000Y-148000000D03*
G04 #@! TO.P,P5,20*
X185860000Y-145460000D03*
G04 #@! TD*
D13*
G04 #@! TO.P,PS2,1*
G04 #@! TO.N,/SPI_MISO*
X152150400Y-105500000D03*
D14*
G04 #@! TO.P,PS2,9*
G04 #@! TO.N,/PS1_ACK*
X183849600Y-105500000D03*
G04 #@! TO.P,PS2,2*
G04 #@! TO.N,/SPI_MOSI*
X156112800Y-105500000D03*
G04 #@! TO.P,PS2,3*
G04 #@! TO.N,Net-(PS2-Pad3)*
X160075200Y-105500000D03*
G04 #@! TO.P,PS2,4*
G04 #@! TO.N,GND1*
X164037600Y-105500000D03*
G04 #@! TO.P,PS2,5*
G04 #@! TO.N,VCC*
X168000000Y-105500000D03*
G04 #@! TO.P,PS2,6*
G04 #@! TO.N,/SPI_CS1*
X171962400Y-105500000D03*
G04 #@! TO.P,PS2,7*
G04 #@! TO.N,/SPI_CLK*
X175924800Y-105500000D03*
G04 #@! TO.P,PS2,8*
G04 #@! TO.N,Net-(PS2-Pad8)*
X179887200Y-105500000D03*
G04 #@! TD*
D10*
G04 #@! TO.N,VCC*
G04 #@! TO.C,REF\002A\002A*
X146000000Y-114500000D03*
G04 #@! TD*
D17*
G04 #@! TO.P,U1,1*
G04 #@! TO.N,/VIN*
X103920000Y-115000000D03*
D18*
G04 #@! TO.P,U1,2*
X106460000Y-115000000D03*
G04 #@! TO.P,U1,3*
G04 #@! TO.N,GND1*
X109000000Y-115000000D03*
G04 #@! TO.P,U1,4*
G04 #@! TO.N,VCC*
X111540000Y-115000000D03*
G04 #@! TO.P,U1,5*
X114080000Y-115000000D03*
G04 #@! TD*
D10*
G04 #@! TO.N,GND1*
X122250000Y-137500000D03*
X131000000Y-137500000D03*
X135500000Y-141750000D03*
X140750000Y-139500000D03*
X147250000Y-131000000D03*
X147250000Y-129500000D03*
X142500000Y-120500000D03*
X123750000Y-128250000D03*
X127000000Y-128250000D03*
X138500000Y-128750000D03*
X142500000Y-128750000D03*
X133250000Y-137500000D03*
X123500000Y-115250000D03*
X123500000Y-117750000D03*
X147250000Y-128000000D03*
G04 #@! TO.N,Net-(J1-Pad2)*
X107800000Y-129900000D03*
X106100000Y-129900000D03*
G04 #@! TO.N,/PS1_ACK*
X183900000Y-102600000D03*
G04 #@! TO.N,/SPI_CLK*
X140500000Y-103500000D03*
X129000000Y-103750000D03*
X175900000Y-102600000D03*
G04 #@! TO.N,/SPI_MOSI*
X139800000Y-103025010D03*
X156100000Y-102500000D03*
X109100000Y-103100000D03*
G04 #@! TO.N,/SPI_MISO*
X139000000Y-102750000D03*
X152200000Y-102500000D03*
X105100000Y-102500000D03*
G04 #@! TO.N,VCC*
X127750000Y-129750000D03*
X127750000Y-127750000D03*
X125000000Y-119500000D03*
X140750000Y-119750000D03*
X133000000Y-119250000D03*
X167750000Y-111500000D03*
X139250000Y-139250000D03*
X136750000Y-142750000D03*
X133750000Y-141250000D03*
G04 #@! TD*
D19*
G04 #@! TO.N,Net-(J1-Pad2)*
X107700000Y-130000000D02*
X107800000Y-129900000D01*
X106200000Y-130000000D02*
X107700000Y-130000000D01*
X106100000Y-129900000D02*
X106200000Y-130000000D01*
G04 #@! TO.N,/PS1_ACK*
X175600000Y-103200000D02*
X183300000Y-103200000D01*
X183600001Y-102899999D02*
X183900000Y-102600000D01*
X157100000Y-103000000D02*
X175400000Y-103000000D01*
X150900000Y-103700000D02*
X151100000Y-103900000D01*
X141177002Y-103700000D02*
X150900000Y-103700000D01*
X153300000Y-103300000D02*
X155300000Y-103300000D01*
X139377002Y-105500000D02*
X141177002Y-103700000D01*
X136849600Y-105500000D02*
X139377002Y-105500000D01*
X152700000Y-103900000D02*
X153300000Y-103300000D01*
X156600000Y-103500000D02*
X157100000Y-103000000D01*
X183300000Y-103200000D02*
X183600001Y-102899999D01*
X155300000Y-103300000D02*
X155500000Y-103500000D01*
X155500000Y-103500000D02*
X156600000Y-103500000D01*
X151100000Y-103900000D02*
X152700000Y-103900000D01*
X175400000Y-103000000D02*
X175600000Y-103200000D01*
G04 #@! TO.N,/SPI_CLK*
X140302012Y-103302012D02*
X140302012Y-103300000D01*
X140500000Y-103500000D02*
X140302012Y-103302012D01*
X139802013Y-103799999D02*
X129049999Y-103799999D01*
X155500000Y-102900000D02*
X153200000Y-102900000D01*
X151300000Y-103500000D02*
X151100000Y-103300000D01*
X175900000Y-102600000D02*
X156900000Y-102600000D01*
X156900000Y-102600000D02*
X156400000Y-103100000D01*
X156400000Y-103100000D02*
X155700000Y-103100000D01*
X155700000Y-103100000D02*
X155500000Y-102900000D01*
X153200000Y-102900000D02*
X152600000Y-103500000D01*
X152600000Y-103500000D02*
X151300000Y-103500000D01*
X151100000Y-103300000D02*
X140302012Y-103300000D01*
X140302012Y-103300000D02*
X139802013Y-103799999D01*
X129049999Y-103799999D02*
X129000000Y-103750000D01*
X175800000Y-102500000D02*
X175900000Y-102600000D01*
G04 #@! TO.N,/SPI_MOSI*
X140000000Y-102800001D02*
X139524999Y-103275002D01*
X141077003Y-102800001D02*
X140000000Y-102800001D01*
X139800000Y-103025010D02*
X139800000Y-103000001D01*
X139800000Y-103000001D02*
X140000000Y-102800001D01*
X152500000Y-103100000D02*
X151500000Y-103100000D01*
X141177002Y-102900000D02*
X141077003Y-102800001D01*
X151500000Y-103100000D02*
X151300000Y-102900000D01*
X151300000Y-102900000D02*
X141177002Y-102900000D01*
X138747998Y-103275002D02*
X138572996Y-103100000D01*
X139524999Y-103275002D02*
X138747998Y-103275002D01*
X109524264Y-103100000D02*
X109100000Y-103100000D01*
X138572996Y-103100000D02*
X109524264Y-103100000D01*
X153100000Y-102500000D02*
X152500000Y-103100000D01*
X156100000Y-102500000D02*
X153100000Y-102500000D01*
G04 #@! TO.N,/SPI_MISO*
X152200000Y-102500000D02*
X138500000Y-102500000D01*
X138500000Y-102500000D02*
X105100000Y-102500000D01*
X138500000Y-102500000D02*
X138750000Y-102500000D01*
X138750000Y-102500000D02*
X139000000Y-102750000D01*
D20*
G04 #@! TO.N,VCC*
X127750000Y-129750000D02*
X127750000Y-127750000D01*
X133000000Y-119250000D02*
X140250000Y-119250000D01*
X140250000Y-119250000D02*
X140750000Y-119750000D01*
X132750000Y-119500000D02*
X125000000Y-119500000D01*
X133000000Y-119250000D02*
X132750000Y-119500000D01*
X168000000Y-105500000D02*
X168000000Y-111250000D01*
X168000000Y-111250000D02*
X167750000Y-111500000D01*
D21*
X139250000Y-139250000D02*
X136750000Y-141750000D01*
X136750000Y-141750000D02*
X136750000Y-142750000D01*
D20*
X133000000Y-145460000D02*
X133040000Y-145460000D01*
D21*
X133040000Y-145460000D02*
X133750000Y-144750000D01*
X133750000Y-144750000D02*
X133750000Y-141250000D01*
G04 #@! TD*
D22*
G04 #@! TO.N,GND1*
G36*
X188398001Y-149398000D02*
X100602000Y-149398000D01*
X100602000Y-147365000D01*
X101827676Y-147365000D01*
X101827676Y-148635000D01*
X101868577Y-148840625D01*
X101985055Y-149014945D01*
X102159375Y-149131423D01*
X102365000Y-149172324D01*
X103635000Y-149172324D01*
X103840625Y-149131423D01*
X104014945Y-149014945D01*
X104131423Y-148840625D01*
X104172324Y-148635000D01*
X104172324Y-147768864D01*
X124698000Y-147768864D01*
X124698000Y-148231136D01*
X124874904Y-148658220D01*
X125201780Y-148985096D01*
X125628864Y-149162000D01*
X126091136Y-149162000D01*
X126518220Y-148985096D01*
X126845096Y-148658220D01*
X127022000Y-148231136D01*
X127022000Y-147768864D01*
X126854715Y-147365000D01*
X131827676Y-147365000D01*
X131827676Y-148635000D01*
X131868577Y-148840625D01*
X131985055Y-149014945D01*
X132159375Y-149131423D01*
X132365000Y-149172324D01*
X133635000Y-149172324D01*
X133840625Y-149131423D01*
X134014945Y-149014945D01*
X134131423Y-148840625D01*
X134172324Y-148635000D01*
X134172324Y-147768864D01*
X154698000Y-147768864D01*
X154698000Y-148231136D01*
X154874904Y-148658220D01*
X155201780Y-148985096D01*
X155628864Y-149162000D01*
X156091136Y-149162000D01*
X156518220Y-148985096D01*
X156845096Y-148658220D01*
X157022000Y-148231136D01*
X157022000Y-147768864D01*
X156854715Y-147365000D01*
X161827676Y-147365000D01*
X161827676Y-148635000D01*
X161868577Y-148840625D01*
X161985055Y-149014945D01*
X162159375Y-149131423D01*
X162365000Y-149172324D01*
X163635000Y-149172324D01*
X163840625Y-149131423D01*
X164014945Y-149014945D01*
X164131423Y-148840625D01*
X164172324Y-148635000D01*
X164172324Y-147768864D01*
X184698000Y-147768864D01*
X184698000Y-148231136D01*
X184874904Y-148658220D01*
X185201780Y-148985096D01*
X185628864Y-149162000D01*
X186091136Y-149162000D01*
X186518220Y-148985096D01*
X186845096Y-148658220D01*
X187022000Y-148231136D01*
X187022000Y-147768864D01*
X186845096Y-147341780D01*
X186518220Y-147014904D01*
X186091136Y-146838000D01*
X185628864Y-146838000D01*
X185201780Y-147014904D01*
X184874904Y-147341780D01*
X184698000Y-147768864D01*
X164172324Y-147768864D01*
X164172324Y-147365000D01*
X164131423Y-147159375D01*
X164014945Y-146985055D01*
X163840625Y-146868577D01*
X163635000Y-146827676D01*
X162365000Y-146827676D01*
X162159375Y-146868577D01*
X161985055Y-146985055D01*
X161868577Y-147159375D01*
X161827676Y-147365000D01*
X156854715Y-147365000D01*
X156845096Y-147341780D01*
X156518220Y-147014904D01*
X156091136Y-146838000D01*
X155628864Y-146838000D01*
X155201780Y-147014904D01*
X154874904Y-147341780D01*
X154698000Y-147768864D01*
X134172324Y-147768864D01*
X134172324Y-147365000D01*
X134131423Y-147159375D01*
X134014945Y-146985055D01*
X133840625Y-146868577D01*
X133635000Y-146827676D01*
X132365000Y-146827676D01*
X132159375Y-146868577D01*
X131985055Y-146985055D01*
X131868577Y-147159375D01*
X131827676Y-147365000D01*
X126854715Y-147365000D01*
X126845096Y-147341780D01*
X126518220Y-147014904D01*
X126091136Y-146838000D01*
X125628864Y-146838000D01*
X125201780Y-147014904D01*
X124874904Y-147341780D01*
X124698000Y-147768864D01*
X104172324Y-147768864D01*
X104172324Y-147365000D01*
X104131423Y-147159375D01*
X104014945Y-146985055D01*
X103840625Y-146868577D01*
X103635000Y-146827676D01*
X102365000Y-146827676D01*
X102159375Y-146868577D01*
X101985055Y-146985055D01*
X101868577Y-147159375D01*
X101827676Y-147365000D01*
X100602000Y-147365000D01*
X100602000Y-145228864D01*
X101838000Y-145228864D01*
X101838000Y-145691136D01*
X102014904Y-146118220D01*
X102341780Y-146445096D01*
X102768864Y-146622000D01*
X103231136Y-146622000D01*
X103658220Y-146445096D01*
X103985096Y-146118220D01*
X104162000Y-145691136D01*
X104162000Y-145228864D01*
X104378000Y-145228864D01*
X104378000Y-145691136D01*
X104554904Y-146118220D01*
X104881780Y-146445096D01*
X105308864Y-146622000D01*
X105771136Y-146622000D01*
X106198220Y-146445096D01*
X106525096Y-146118220D01*
X106702000Y-145691136D01*
X106702000Y-145228864D01*
X106918000Y-145228864D01*
X106918000Y-145691136D01*
X107094904Y-146118220D01*
X107421780Y-146445096D01*
X107848864Y-146622000D01*
X108311136Y-146622000D01*
X108738220Y-146445096D01*
X109065096Y-146118220D01*
X109242000Y-145691136D01*
X109242000Y-145228864D01*
X109458000Y-145228864D01*
X109458000Y-145691136D01*
X109634904Y-146118220D01*
X109961780Y-146445096D01*
X110388864Y-146622000D01*
X110851136Y-146622000D01*
X111278220Y-146445096D01*
X111605096Y-146118220D01*
X111782000Y-145691136D01*
X111782000Y-145228864D01*
X111998000Y-145228864D01*
X111998000Y-145691136D01*
X112174904Y-146118220D01*
X112501780Y-146445096D01*
X112928864Y-146622000D01*
X113391136Y-146622000D01*
X113818220Y-146445096D01*
X114145096Y-146118220D01*
X114322000Y-145691136D01*
X114322000Y-145228864D01*
X114538000Y-145228864D01*
X114538000Y-145691136D01*
X114714904Y-146118220D01*
X115041780Y-146445096D01*
X115468864Y-146622000D01*
X115931136Y-146622000D01*
X116358220Y-146445096D01*
X116685096Y-146118220D01*
X116862000Y-145691136D01*
X116862000Y-145228864D01*
X117078000Y-145228864D01*
X117078000Y-145691136D01*
X117254904Y-146118220D01*
X117581780Y-146445096D01*
X118008864Y-146622000D01*
X118471136Y-146622000D01*
X118898220Y-146445096D01*
X119225096Y-146118220D01*
X119402000Y-145691136D01*
X119402000Y-145228864D01*
X119618000Y-145228864D01*
X119618000Y-145691136D01*
X119794904Y-146118220D01*
X120121780Y-146445096D01*
X120548864Y-146622000D01*
X121011136Y-146622000D01*
X121438220Y-146445096D01*
X121765096Y-146118220D01*
X121942000Y-145691136D01*
X121942000Y-145228864D01*
X122158000Y-145228864D01*
X122158000Y-145691136D01*
X122334904Y-146118220D01*
X122661780Y-146445096D01*
X123088864Y-146622000D01*
X123551136Y-146622000D01*
X123978220Y-146445096D01*
X124305096Y-146118220D01*
X124482000Y-145691136D01*
X124482000Y-145228864D01*
X124698000Y-145228864D01*
X124698000Y-145691136D01*
X124874904Y-146118220D01*
X125201780Y-146445096D01*
X125628864Y-146622000D01*
X126091136Y-146622000D01*
X126518220Y-146445096D01*
X126845096Y-146118220D01*
X127022000Y-145691136D01*
X127022000Y-145228864D01*
X131838000Y-145228864D01*
X131838000Y-145691136D01*
X132014904Y-146118220D01*
X132341780Y-146445096D01*
X132768864Y-146622000D01*
X133231136Y-146622000D01*
X133658220Y-146445096D01*
X133985096Y-146118220D01*
X134162000Y-145691136D01*
X134162000Y-145436844D01*
X134245308Y-145353536D01*
X134310186Y-145310186D01*
X134399980Y-145175799D01*
X134378000Y-145228864D01*
X134378000Y-145691136D01*
X134554904Y-146118220D01*
X134881780Y-146445096D01*
X135308864Y-146622000D01*
X135771136Y-146622000D01*
X136198220Y-146445096D01*
X136525096Y-146118220D01*
X136702000Y-145691136D01*
X136702000Y-145228864D01*
X136918000Y-145228864D01*
X136918000Y-145691136D01*
X137094904Y-146118220D01*
X137421780Y-146445096D01*
X137848864Y-146622000D01*
X138311136Y-146622000D01*
X138738220Y-146445096D01*
X139065096Y-146118220D01*
X139242000Y-145691136D01*
X139242000Y-145228864D01*
X139458000Y-145228864D01*
X139458000Y-145691136D01*
X139634904Y-146118220D01*
X139961780Y-146445096D01*
X140388864Y-146622000D01*
X140851136Y-146622000D01*
X141278220Y-146445096D01*
X141605096Y-146118220D01*
X141782000Y-145691136D01*
X141782000Y-145228864D01*
X141998000Y-145228864D01*
X141998000Y-145691136D01*
X142174904Y-146118220D01*
X142501780Y-146445096D01*
X142928864Y-146622000D01*
X143391136Y-146622000D01*
X143818220Y-146445096D01*
X144145096Y-146118220D01*
X144322000Y-145691136D01*
X144322000Y-145228864D01*
X144538000Y-145228864D01*
X144538000Y-145691136D01*
X144714904Y-146118220D01*
X145041780Y-146445096D01*
X145468864Y-146622000D01*
X145931136Y-146622000D01*
X146358220Y-146445096D01*
X146685096Y-146118220D01*
X146862000Y-145691136D01*
X146862000Y-145228864D01*
X147078000Y-145228864D01*
X147078000Y-145691136D01*
X147254904Y-146118220D01*
X147581780Y-146445096D01*
X148008864Y-146622000D01*
X148471136Y-146622000D01*
X148898220Y-146445096D01*
X149225096Y-146118220D01*
X149402000Y-145691136D01*
X149402000Y-145228864D01*
X149618000Y-145228864D01*
X149618000Y-145691136D01*
X149794904Y-146118220D01*
X150121780Y-146445096D01*
X150548864Y-146622000D01*
X151011136Y-146622000D01*
X151438220Y-146445096D01*
X151765096Y-146118220D01*
X151942000Y-145691136D01*
X151942000Y-145228864D01*
X152158000Y-145228864D01*
X152158000Y-145691136D01*
X152334904Y-146118220D01*
X152661780Y-146445096D01*
X153088864Y-146622000D01*
X153551136Y-146622000D01*
X153978220Y-146445096D01*
X154305096Y-146118220D01*
X154482000Y-145691136D01*
X154482000Y-145228864D01*
X154698000Y-145228864D01*
X154698000Y-145691136D01*
X154874904Y-146118220D01*
X155201780Y-146445096D01*
X155628864Y-146622000D01*
X156091136Y-146622000D01*
X156518220Y-146445096D01*
X156845096Y-146118220D01*
X157022000Y-145691136D01*
X157022000Y-145228864D01*
X161838000Y-145228864D01*
X161838000Y-145691136D01*
X162014904Y-146118220D01*
X162341780Y-146445096D01*
X162768864Y-146622000D01*
X163231136Y-146622000D01*
X163658220Y-146445096D01*
X163985096Y-146118220D01*
X164162000Y-145691136D01*
X164162000Y-145228864D01*
X164378000Y-145228864D01*
X164378000Y-145691136D01*
X164554904Y-146118220D01*
X164881780Y-146445096D01*
X165308864Y-146622000D01*
X165771136Y-146622000D01*
X166198220Y-146445096D01*
X166525096Y-146118220D01*
X166702000Y-145691136D01*
X166702000Y-145228864D01*
X166918000Y-145228864D01*
X166918000Y-145691136D01*
X167094904Y-146118220D01*
X167421780Y-146445096D01*
X167848864Y-146622000D01*
X168311136Y-146622000D01*
X168738220Y-146445096D01*
X169065096Y-146118220D01*
X169242000Y-145691136D01*
X169242000Y-145228864D01*
X169458000Y-145228864D01*
X169458000Y-145691136D01*
X169634904Y-146118220D01*
X169961780Y-146445096D01*
X170388864Y-146622000D01*
X170851136Y-146622000D01*
X171278220Y-146445096D01*
X171605096Y-146118220D01*
X171782000Y-145691136D01*
X171782000Y-145228864D01*
X171998000Y-145228864D01*
X171998000Y-145691136D01*
X172174904Y-146118220D01*
X172501780Y-146445096D01*
X172928864Y-146622000D01*
X173391136Y-146622000D01*
X173818220Y-146445096D01*
X174145096Y-146118220D01*
X174322000Y-145691136D01*
X174322000Y-145228864D01*
X174538000Y-145228864D01*
X174538000Y-145691136D01*
X174714904Y-146118220D01*
X175041780Y-146445096D01*
X175468864Y-146622000D01*
X175931136Y-146622000D01*
X176358220Y-146445096D01*
X176685096Y-146118220D01*
X176862000Y-145691136D01*
X176862000Y-145228864D01*
X177078000Y-145228864D01*
X177078000Y-145691136D01*
X177254904Y-146118220D01*
X177581780Y-146445096D01*
X178008864Y-146622000D01*
X178471136Y-146622000D01*
X178898220Y-146445096D01*
X179225096Y-146118220D01*
X179402000Y-145691136D01*
X179402000Y-145228864D01*
X179618000Y-145228864D01*
X179618000Y-145691136D01*
X179794904Y-146118220D01*
X180121780Y-146445096D01*
X180548864Y-146622000D01*
X181011136Y-146622000D01*
X181438220Y-146445096D01*
X181765096Y-146118220D01*
X181942000Y-145691136D01*
X181942000Y-145228864D01*
X182158000Y-145228864D01*
X182158000Y-145691136D01*
X182334904Y-146118220D01*
X182661780Y-146445096D01*
X183088864Y-146622000D01*
X183551136Y-146622000D01*
X183978220Y-146445096D01*
X184305096Y-146118220D01*
X184482000Y-145691136D01*
X184482000Y-145228864D01*
X184698000Y-145228864D01*
X184698000Y-145691136D01*
X184874904Y-146118220D01*
X185201780Y-146445096D01*
X185628864Y-146622000D01*
X186091136Y-146622000D01*
X186518220Y-146445096D01*
X186845096Y-146118220D01*
X187022000Y-145691136D01*
X187022000Y-145228864D01*
X186845096Y-144801780D01*
X186518220Y-144474904D01*
X186091136Y-144298000D01*
X185628864Y-144298000D01*
X185201780Y-144474904D01*
X184874904Y-144801780D01*
X184698000Y-145228864D01*
X184482000Y-145228864D01*
X184305096Y-144801780D01*
X183978220Y-144474904D01*
X183551136Y-144298000D01*
X183088864Y-144298000D01*
X182661780Y-144474904D01*
X182334904Y-144801780D01*
X182158000Y-145228864D01*
X181942000Y-145228864D01*
X181765096Y-144801780D01*
X181438220Y-144474904D01*
X181011136Y-144298000D01*
X180548864Y-144298000D01*
X180121780Y-144474904D01*
X179794904Y-144801780D01*
X179618000Y-145228864D01*
X179402000Y-145228864D01*
X179225096Y-144801780D01*
X178898220Y-144474904D01*
X178471136Y-144298000D01*
X178008864Y-144298000D01*
X177581780Y-144474904D01*
X177254904Y-144801780D01*
X177078000Y-145228864D01*
X176862000Y-145228864D01*
X176685096Y-144801780D01*
X176358220Y-144474904D01*
X175931136Y-144298000D01*
X175468864Y-144298000D01*
X175041780Y-144474904D01*
X174714904Y-144801780D01*
X174538000Y-145228864D01*
X174322000Y-145228864D01*
X174145096Y-144801780D01*
X173818220Y-144474904D01*
X173391136Y-144298000D01*
X172928864Y-144298000D01*
X172501780Y-144474904D01*
X172174904Y-144801780D01*
X171998000Y-145228864D01*
X171782000Y-145228864D01*
X171605096Y-144801780D01*
X171278220Y-144474904D01*
X170851136Y-144298000D01*
X170388864Y-144298000D01*
X169961780Y-144474904D01*
X169634904Y-144801780D01*
X169458000Y-145228864D01*
X169242000Y-145228864D01*
X169065096Y-144801780D01*
X168738220Y-144474904D01*
X168311136Y-144298000D01*
X167848864Y-144298000D01*
X167421780Y-144474904D01*
X167094904Y-144801780D01*
X166918000Y-145228864D01*
X166702000Y-145228864D01*
X166525096Y-144801780D01*
X166198220Y-144474904D01*
X165771136Y-144298000D01*
X165308864Y-144298000D01*
X164881780Y-144474904D01*
X164554904Y-144801780D01*
X164378000Y-145228864D01*
X164162000Y-145228864D01*
X163985096Y-144801780D01*
X163658220Y-144474904D01*
X163231136Y-144298000D01*
X162768864Y-144298000D01*
X162341780Y-144474904D01*
X162014904Y-144801780D01*
X161838000Y-145228864D01*
X157022000Y-145228864D01*
X156845096Y-144801780D01*
X156518220Y-144474904D01*
X156091136Y-144298000D01*
X155628864Y-144298000D01*
X155201780Y-144474904D01*
X154874904Y-144801780D01*
X154698000Y-145228864D01*
X154482000Y-145228864D01*
X154305096Y-144801780D01*
X153978220Y-144474904D01*
X153551136Y-144298000D01*
X153088864Y-144298000D01*
X152661780Y-144474904D01*
X152334904Y-144801780D01*
X152158000Y-145228864D01*
X151942000Y-145228864D01*
X151765096Y-144801780D01*
X151438220Y-144474904D01*
X151011136Y-144298000D01*
X150548864Y-144298000D01*
X150121780Y-144474904D01*
X149794904Y-144801780D01*
X149618000Y-145228864D01*
X149402000Y-145228864D01*
X149225096Y-144801780D01*
X148898220Y-144474904D01*
X148471136Y-144298000D01*
X148008864Y-144298000D01*
X147581780Y-144474904D01*
X147254904Y-144801780D01*
X147078000Y-145228864D01*
X146862000Y-145228864D01*
X146685096Y-144801780D01*
X146358220Y-144474904D01*
X145931136Y-144298000D01*
X145468864Y-144298000D01*
X145041780Y-144474904D01*
X144714904Y-144801780D01*
X144538000Y-145228864D01*
X144322000Y-145228864D01*
X144145096Y-144801780D01*
X143818220Y-144474904D01*
X143391136Y-144298000D01*
X142928864Y-144298000D01*
X142501780Y-144474904D01*
X142174904Y-144801780D01*
X141998000Y-145228864D01*
X141782000Y-145228864D01*
X141605096Y-144801780D01*
X141278220Y-144474904D01*
X140851136Y-144298000D01*
X140388864Y-144298000D01*
X139961780Y-144474904D01*
X139634904Y-144801780D01*
X139458000Y-145228864D01*
X139242000Y-145228864D01*
X139065096Y-144801780D01*
X138738220Y-144474904D01*
X138311136Y-144298000D01*
X137848864Y-144298000D01*
X137421780Y-144474904D01*
X137094904Y-144801780D01*
X136918000Y-145228864D01*
X136702000Y-145228864D01*
X136525096Y-144801780D01*
X136198220Y-144474904D01*
X135771136Y-144298000D01*
X135308864Y-144298000D01*
X134881780Y-144474904D01*
X134554904Y-144801780D01*
X134510690Y-144908521D01*
X134542222Y-144750000D01*
X134527000Y-144673474D01*
X134527000Y-142585499D01*
X135923000Y-142585499D01*
X135923000Y-142914501D01*
X136048903Y-143218458D01*
X136281542Y-143451097D01*
X136585499Y-143577000D01*
X136914501Y-143577000D01*
X137218458Y-143451097D01*
X137451097Y-143218458D01*
X137577000Y-142914501D01*
X137577000Y-142585499D01*
X137527000Y-142464788D01*
X137527000Y-142071843D01*
X139597747Y-140001097D01*
X139718458Y-139951097D01*
X139951097Y-139718458D01*
X140077000Y-139414501D01*
X140077000Y-139085499D01*
X139951097Y-138781542D01*
X139718458Y-138548903D01*
X139414501Y-138423000D01*
X139085499Y-138423000D01*
X138781542Y-138548903D01*
X138548903Y-138781542D01*
X138498903Y-138902253D01*
X136254695Y-141146462D01*
X136189814Y-141189814D01*
X136018082Y-141446831D01*
X135975393Y-141661444D01*
X135957778Y-141750000D01*
X135973000Y-141826526D01*
X135973001Y-142464787D01*
X135923000Y-142585499D01*
X134527000Y-142585499D01*
X134527000Y-141535212D01*
X134577000Y-141414501D01*
X134577000Y-141085499D01*
X134451097Y-140781542D01*
X134218458Y-140548903D01*
X133914501Y-140423000D01*
X133585499Y-140423000D01*
X133281542Y-140548903D01*
X133048903Y-140781542D01*
X132923000Y-141085499D01*
X132923000Y-141414501D01*
X132973001Y-141535214D01*
X132973000Y-144298000D01*
X132768864Y-144298000D01*
X132341780Y-144474904D01*
X132014904Y-144801780D01*
X131838000Y-145228864D01*
X127022000Y-145228864D01*
X126845096Y-144801780D01*
X126518220Y-144474904D01*
X126091136Y-144298000D01*
X125628864Y-144298000D01*
X125201780Y-144474904D01*
X124874904Y-144801780D01*
X124698000Y-145228864D01*
X124482000Y-145228864D01*
X124305096Y-144801780D01*
X123978220Y-144474904D01*
X123551136Y-144298000D01*
X123088864Y-144298000D01*
X122661780Y-144474904D01*
X122334904Y-144801780D01*
X122158000Y-145228864D01*
X121942000Y-145228864D01*
X121765096Y-144801780D01*
X121438220Y-144474904D01*
X121011136Y-144298000D01*
X120548864Y-144298000D01*
X120121780Y-144474904D01*
X119794904Y-144801780D01*
X119618000Y-145228864D01*
X119402000Y-145228864D01*
X119225096Y-144801780D01*
X118898220Y-144474904D01*
X118471136Y-144298000D01*
X118008864Y-144298000D01*
X117581780Y-144474904D01*
X117254904Y-144801780D01*
X117078000Y-145228864D01*
X116862000Y-145228864D01*
X116685096Y-144801780D01*
X116358220Y-144474904D01*
X115931136Y-144298000D01*
X115468864Y-144298000D01*
X115041780Y-144474904D01*
X114714904Y-144801780D01*
X114538000Y-145228864D01*
X114322000Y-145228864D01*
X114145096Y-144801780D01*
X113818220Y-144474904D01*
X113391136Y-144298000D01*
X112928864Y-144298000D01*
X112501780Y-144474904D01*
X112174904Y-144801780D01*
X111998000Y-145228864D01*
X111782000Y-145228864D01*
X111605096Y-144801780D01*
X111278220Y-144474904D01*
X110851136Y-144298000D01*
X110388864Y-144298000D01*
X109961780Y-144474904D01*
X109634904Y-144801780D01*
X109458000Y-145228864D01*
X109242000Y-145228864D01*
X109065096Y-144801780D01*
X108738220Y-144474904D01*
X108311136Y-144298000D01*
X107848864Y-144298000D01*
X107421780Y-144474904D01*
X107094904Y-144801780D01*
X106918000Y-145228864D01*
X106702000Y-145228864D01*
X106525096Y-144801780D01*
X106198220Y-144474904D01*
X105771136Y-144298000D01*
X105308864Y-144298000D01*
X104881780Y-144474904D01*
X104554904Y-144801780D01*
X104378000Y-145228864D01*
X104162000Y-145228864D01*
X103985096Y-144801780D01*
X103658220Y-144474904D01*
X103231136Y-144298000D01*
X102768864Y-144298000D01*
X102341780Y-144474904D01*
X102014904Y-144801780D01*
X101838000Y-145228864D01*
X100602000Y-145228864D01*
X100602000Y-135268864D01*
X174298000Y-135268864D01*
X174298000Y-135731136D01*
X174474904Y-136158220D01*
X174801780Y-136485096D01*
X175228864Y-136662000D01*
X175691136Y-136662000D01*
X176118220Y-136485096D01*
X176445096Y-136158220D01*
X176622000Y-135731136D01*
X176622000Y-135268864D01*
X176454715Y-134865000D01*
X176827676Y-134865000D01*
X176827676Y-136135000D01*
X176868577Y-136340625D01*
X176985055Y-136514945D01*
X177159375Y-136631423D01*
X177365000Y-136672324D01*
X178635000Y-136672324D01*
X178840625Y-136631423D01*
X179014945Y-136514945D01*
X179131423Y-136340625D01*
X179172324Y-136135000D01*
X179172324Y-135268864D01*
X182298000Y-135268864D01*
X182298000Y-135731136D01*
X182474904Y-136158220D01*
X182801780Y-136485096D01*
X183228864Y-136662000D01*
X183691136Y-136662000D01*
X184118220Y-136485096D01*
X184445096Y-136158220D01*
X184622000Y-135731136D01*
X184622000Y-135268864D01*
X184454715Y-134865000D01*
X184827676Y-134865000D01*
X184827676Y-136135000D01*
X184868577Y-136340625D01*
X184985055Y-136514945D01*
X185159375Y-136631423D01*
X185365000Y-136672324D01*
X186635000Y-136672324D01*
X186840625Y-136631423D01*
X187014945Y-136514945D01*
X187131423Y-136340625D01*
X187172324Y-136135000D01*
X187172324Y-134865000D01*
X187131423Y-134659375D01*
X187014945Y-134485055D01*
X186840625Y-134368577D01*
X186635000Y-134327676D01*
X185365000Y-134327676D01*
X185159375Y-134368577D01*
X184985055Y-134485055D01*
X184868577Y-134659375D01*
X184827676Y-134865000D01*
X184454715Y-134865000D01*
X184445096Y-134841780D01*
X184118220Y-134514904D01*
X183691136Y-134338000D01*
X183228864Y-134338000D01*
X182801780Y-134514904D01*
X182474904Y-134841780D01*
X182298000Y-135268864D01*
X179172324Y-135268864D01*
X179172324Y-134865000D01*
X179131423Y-134659375D01*
X179014945Y-134485055D01*
X178840625Y-134368577D01*
X178635000Y-134327676D01*
X177365000Y-134327676D01*
X177159375Y-134368577D01*
X176985055Y-134485055D01*
X176868577Y-134659375D01*
X176827676Y-134865000D01*
X176454715Y-134865000D01*
X176445096Y-134841780D01*
X176118220Y-134514904D01*
X175691136Y-134338000D01*
X175228864Y-134338000D01*
X174801780Y-134514904D01*
X174474904Y-134841780D01*
X174298000Y-135268864D01*
X100602000Y-135268864D01*
X100602000Y-132728864D01*
X174298000Y-132728864D01*
X174298000Y-133191136D01*
X174474904Y-133618220D01*
X174801780Y-133945096D01*
X175228864Y-134122000D01*
X175691136Y-134122000D01*
X176118220Y-133945096D01*
X176445096Y-133618220D01*
X176622000Y-133191136D01*
X176622000Y-132728864D01*
X182298000Y-132728864D01*
X182298000Y-133191136D01*
X182474904Y-133618220D01*
X182801780Y-133945096D01*
X183228864Y-134122000D01*
X183691136Y-134122000D01*
X184118220Y-133945096D01*
X184445096Y-133618220D01*
X184622000Y-133191136D01*
X184622000Y-132728864D01*
X184445096Y-132301780D01*
X184118220Y-131974904D01*
X183691136Y-131798000D01*
X183228864Y-131798000D01*
X182801780Y-131974904D01*
X182474904Y-132301780D01*
X182298000Y-132728864D01*
X176622000Y-132728864D01*
X176445096Y-132301780D01*
X176118220Y-131974904D01*
X175691136Y-131798000D01*
X175228864Y-131798000D01*
X174801780Y-131974904D01*
X174474904Y-132301780D01*
X174298000Y-132728864D01*
X100602000Y-132728864D01*
X100602000Y-129735499D01*
X105273000Y-129735499D01*
X105273000Y-130064501D01*
X105398903Y-130368458D01*
X105631542Y-130601097D01*
X105935499Y-130727000D01*
X106264501Y-130727000D01*
X106566278Y-130602000D01*
X107333722Y-130602000D01*
X107635499Y-130727000D01*
X107964501Y-130727000D01*
X108268458Y-130601097D01*
X108501097Y-130368458D01*
X108627000Y-130064501D01*
X108627000Y-129735499D01*
X108501097Y-129431542D01*
X108268458Y-129198903D01*
X107964501Y-129073000D01*
X107635499Y-129073000D01*
X107331542Y-129198903D01*
X107132445Y-129398000D01*
X106767555Y-129398000D01*
X106568458Y-129198903D01*
X106264501Y-129073000D01*
X105935499Y-129073000D01*
X105631542Y-129198903D01*
X105398903Y-129431542D01*
X105273000Y-129735499D01*
X100602000Y-129735499D01*
X100602000Y-127585499D01*
X126923000Y-127585499D01*
X126923000Y-127914501D01*
X127048903Y-128218458D01*
X127123001Y-128292556D01*
X127123000Y-129207445D01*
X127048903Y-129281542D01*
X126923000Y-129585499D01*
X126923000Y-129914501D01*
X127048903Y-130218458D01*
X127281542Y-130451097D01*
X127585499Y-130577000D01*
X127914501Y-130577000D01*
X128218458Y-130451097D01*
X128451097Y-130218458D01*
X128463355Y-130188864D01*
X174298000Y-130188864D01*
X174298000Y-130651136D01*
X174474904Y-131078220D01*
X174801780Y-131405096D01*
X175228864Y-131582000D01*
X175691136Y-131582000D01*
X176118220Y-131405096D01*
X176445096Y-131078220D01*
X176622000Y-130651136D01*
X176622000Y-130188864D01*
X182298000Y-130188864D01*
X182298000Y-130651136D01*
X182474904Y-131078220D01*
X182801780Y-131405096D01*
X183228864Y-131582000D01*
X183691136Y-131582000D01*
X184118220Y-131405096D01*
X184445096Y-131078220D01*
X184622000Y-130651136D01*
X184622000Y-130188864D01*
X184445096Y-129761780D01*
X184118220Y-129434904D01*
X183691136Y-129258000D01*
X183228864Y-129258000D01*
X182801780Y-129434904D01*
X182474904Y-129761780D01*
X182298000Y-130188864D01*
X176622000Y-130188864D01*
X176445096Y-129761780D01*
X176118220Y-129434904D01*
X175691136Y-129258000D01*
X175228864Y-129258000D01*
X174801780Y-129434904D01*
X174474904Y-129761780D01*
X174298000Y-130188864D01*
X128463355Y-130188864D01*
X128577000Y-129914501D01*
X128577000Y-129585499D01*
X128451097Y-129281542D01*
X128377000Y-129207445D01*
X128377000Y-128292555D01*
X128451097Y-128218458D01*
X128577000Y-127914501D01*
X128577000Y-127648864D01*
X174298000Y-127648864D01*
X174298000Y-128111136D01*
X174474904Y-128538220D01*
X174801780Y-128865096D01*
X175228864Y-129042000D01*
X175691136Y-129042000D01*
X176118220Y-128865096D01*
X176445096Y-128538220D01*
X176622000Y-128111136D01*
X176622000Y-127648864D01*
X182298000Y-127648864D01*
X182298000Y-128111136D01*
X182474904Y-128538220D01*
X182801780Y-128865096D01*
X183228864Y-129042000D01*
X183691136Y-129042000D01*
X184118220Y-128865096D01*
X184445096Y-128538220D01*
X184622000Y-128111136D01*
X184622000Y-127648864D01*
X184445096Y-127221780D01*
X184118220Y-126894904D01*
X183691136Y-126718000D01*
X183228864Y-126718000D01*
X182801780Y-126894904D01*
X182474904Y-127221780D01*
X182298000Y-127648864D01*
X176622000Y-127648864D01*
X176445096Y-127221780D01*
X176118220Y-126894904D01*
X175691136Y-126718000D01*
X175228864Y-126718000D01*
X174801780Y-126894904D01*
X174474904Y-127221780D01*
X174298000Y-127648864D01*
X128577000Y-127648864D01*
X128577000Y-127585499D01*
X128451097Y-127281542D01*
X128218458Y-127048903D01*
X127914501Y-126923000D01*
X127585499Y-126923000D01*
X127281542Y-127048903D01*
X127048903Y-127281542D01*
X126923000Y-127585499D01*
X100602000Y-127585499D01*
X100602000Y-125108864D01*
X174298000Y-125108864D01*
X174298000Y-125571136D01*
X174474904Y-125998220D01*
X174801780Y-126325096D01*
X175228864Y-126502000D01*
X175691136Y-126502000D01*
X176118220Y-126325096D01*
X176445096Y-125998220D01*
X176622000Y-125571136D01*
X176622000Y-125108864D01*
X182298000Y-125108864D01*
X182298000Y-125571136D01*
X182474904Y-125998220D01*
X182801780Y-126325096D01*
X183228864Y-126502000D01*
X183691136Y-126502000D01*
X184118220Y-126325096D01*
X184445096Y-125998220D01*
X184622000Y-125571136D01*
X184622000Y-125108864D01*
X184445096Y-124681780D01*
X184118220Y-124354904D01*
X183691136Y-124178000D01*
X183228864Y-124178000D01*
X182801780Y-124354904D01*
X182474904Y-124681780D01*
X182298000Y-125108864D01*
X176622000Y-125108864D01*
X176445096Y-124681780D01*
X176118220Y-124354904D01*
X175691136Y-124178000D01*
X175228864Y-124178000D01*
X174801780Y-124354904D01*
X174474904Y-124681780D01*
X174298000Y-125108864D01*
X100602000Y-125108864D01*
X100602000Y-122568864D01*
X174298000Y-122568864D01*
X174298000Y-123031136D01*
X174474904Y-123458220D01*
X174801780Y-123785096D01*
X175228864Y-123962000D01*
X175691136Y-123962000D01*
X176118220Y-123785096D01*
X176445096Y-123458220D01*
X176622000Y-123031136D01*
X176622000Y-122568864D01*
X182298000Y-122568864D01*
X182298000Y-123031136D01*
X182474904Y-123458220D01*
X182801780Y-123785096D01*
X183228864Y-123962000D01*
X183691136Y-123962000D01*
X184118220Y-123785096D01*
X184445096Y-123458220D01*
X184622000Y-123031136D01*
X184622000Y-122568864D01*
X184445096Y-122141780D01*
X184118220Y-121814904D01*
X183691136Y-121638000D01*
X183228864Y-121638000D01*
X182801780Y-121814904D01*
X182474904Y-122141780D01*
X182298000Y-122568864D01*
X176622000Y-122568864D01*
X176445096Y-122141780D01*
X176118220Y-121814904D01*
X175691136Y-121638000D01*
X175228864Y-121638000D01*
X174801780Y-121814904D01*
X174474904Y-122141780D01*
X174298000Y-122568864D01*
X100602000Y-122568864D01*
X100602000Y-119000000D01*
X122973000Y-119000000D01*
X122973000Y-120750000D01*
X123013115Y-120951674D01*
X123127355Y-121122645D01*
X123627355Y-121622645D01*
X123798326Y-121736885D01*
X124000000Y-121777000D01*
X125250000Y-121777000D01*
X125451674Y-121736885D01*
X125622645Y-121622645D01*
X126122645Y-121122645D01*
X126236885Y-120951674D01*
X126277000Y-120750000D01*
X126277000Y-120527000D01*
X139223000Y-120527000D01*
X139223000Y-120750000D01*
X139263115Y-120951674D01*
X139377355Y-121122645D01*
X139877355Y-121622645D01*
X140048326Y-121736885D01*
X140250000Y-121777000D01*
X141500000Y-121777000D01*
X141701674Y-121736885D01*
X141872645Y-121622645D01*
X142122645Y-121372645D01*
X142236885Y-121201674D01*
X142277000Y-121000000D01*
X142277000Y-120028864D01*
X174298000Y-120028864D01*
X174298000Y-120491136D01*
X174474904Y-120918220D01*
X174801780Y-121245096D01*
X175228864Y-121422000D01*
X175691136Y-121422000D01*
X176118220Y-121245096D01*
X176445096Y-120918220D01*
X176622000Y-120491136D01*
X176622000Y-120028864D01*
X182298000Y-120028864D01*
X182298000Y-120491136D01*
X182474904Y-120918220D01*
X182801780Y-121245096D01*
X183228864Y-121422000D01*
X183691136Y-121422000D01*
X184118220Y-121245096D01*
X184445096Y-120918220D01*
X184622000Y-120491136D01*
X184622000Y-120028864D01*
X184445096Y-119601780D01*
X184118220Y-119274904D01*
X183691136Y-119098000D01*
X183228864Y-119098000D01*
X182801780Y-119274904D01*
X182474904Y-119601780D01*
X182298000Y-120028864D01*
X176622000Y-120028864D01*
X176445096Y-119601780D01*
X176118220Y-119274904D01*
X175691136Y-119098000D01*
X175228864Y-119098000D01*
X174801780Y-119274904D01*
X174474904Y-119601780D01*
X174298000Y-120028864D01*
X142277000Y-120028864D01*
X142277000Y-119968290D01*
X144756426Y-117488864D01*
X174298000Y-117488864D01*
X174298000Y-117951136D01*
X174474904Y-118378220D01*
X174801780Y-118705096D01*
X175228864Y-118882000D01*
X175691136Y-118882000D01*
X176118220Y-118705096D01*
X176445096Y-118378220D01*
X176622000Y-117951136D01*
X176622000Y-117488864D01*
X182298000Y-117488864D01*
X182298000Y-117951136D01*
X182474904Y-118378220D01*
X182801780Y-118705096D01*
X183228864Y-118882000D01*
X183691136Y-118882000D01*
X184118220Y-118705096D01*
X184445096Y-118378220D01*
X184622000Y-117951136D01*
X184622000Y-117488864D01*
X184445096Y-117061780D01*
X184118220Y-116734904D01*
X183691136Y-116558000D01*
X183228864Y-116558000D01*
X182801780Y-116734904D01*
X182474904Y-117061780D01*
X182298000Y-117488864D01*
X176622000Y-117488864D01*
X176445096Y-117061780D01*
X176118220Y-116734904D01*
X175691136Y-116558000D01*
X175228864Y-116558000D01*
X174801780Y-116734904D01*
X174474904Y-117061780D01*
X174298000Y-117488864D01*
X144756426Y-117488864D01*
X147296426Y-114948864D01*
X174298000Y-114948864D01*
X174298000Y-115411136D01*
X174474904Y-115838220D01*
X174801780Y-116165096D01*
X175228864Y-116342000D01*
X175691136Y-116342000D01*
X176118220Y-116165096D01*
X176445096Y-115838220D01*
X176622000Y-115411136D01*
X176622000Y-114948864D01*
X182298000Y-114948864D01*
X182298000Y-115411136D01*
X182474904Y-115838220D01*
X182801780Y-116165096D01*
X183228864Y-116342000D01*
X183691136Y-116342000D01*
X184118220Y-116165096D01*
X184445096Y-115838220D01*
X184622000Y-115411136D01*
X184622000Y-114948864D01*
X184445096Y-114521780D01*
X184118220Y-114194904D01*
X183691136Y-114018000D01*
X183228864Y-114018000D01*
X182801780Y-114194904D01*
X182474904Y-114521780D01*
X182298000Y-114948864D01*
X176622000Y-114948864D01*
X176445096Y-114521780D01*
X176118220Y-114194904D01*
X175691136Y-114018000D01*
X175228864Y-114018000D01*
X174801780Y-114194904D01*
X174474904Y-114521780D01*
X174298000Y-114948864D01*
X147296426Y-114948864D01*
X147372645Y-114872645D01*
X147486885Y-114701674D01*
X147527000Y-114500000D01*
X147527000Y-114035212D01*
X147577000Y-113914501D01*
X147577000Y-113585499D01*
X147513525Y-113432257D01*
X147486885Y-113298326D01*
X147372645Y-113127355D01*
X147201674Y-113013115D01*
X147067743Y-112986475D01*
X146914501Y-112923000D01*
X146585499Y-112923000D01*
X146464788Y-112973000D01*
X146000000Y-112973000D01*
X145798326Y-113013115D01*
X145627355Y-113127355D01*
X140531710Y-118223000D01*
X123750000Y-118223000D01*
X123548326Y-118263115D01*
X123377355Y-118377355D01*
X123127355Y-118627355D01*
X123013115Y-118798326D01*
X122973000Y-119000000D01*
X100602000Y-119000000D01*
X100602000Y-113857000D01*
X102430176Y-113857000D01*
X102430176Y-116143000D01*
X102471077Y-116348625D01*
X102587555Y-116522945D01*
X102761875Y-116639423D01*
X102967500Y-116680324D01*
X104872500Y-116680324D01*
X105078125Y-116639423D01*
X105252445Y-116522945D01*
X105368923Y-116348625D01*
X105388544Y-116249982D01*
X105393340Y-116257160D01*
X105882729Y-116584158D01*
X106460000Y-116698985D01*
X107037272Y-116584158D01*
X107526660Y-116257160D01*
X107853658Y-115767771D01*
X107939500Y-115336216D01*
X107939500Y-114663784D01*
X110060500Y-114663784D01*
X110060500Y-115336217D01*
X110146342Y-115767772D01*
X110473340Y-116257160D01*
X110962729Y-116584158D01*
X111540000Y-116698985D01*
X112117272Y-116584158D01*
X112606660Y-116257160D01*
X112810000Y-115952839D01*
X113013340Y-116257160D01*
X113502729Y-116584158D01*
X114080000Y-116698985D01*
X114657272Y-116584158D01*
X115146660Y-116257160D01*
X115473658Y-115767771D01*
X115559500Y-115336216D01*
X115559500Y-114663783D01*
X115473658Y-114232228D01*
X115146660Y-113742840D01*
X114657271Y-113415842D01*
X114080000Y-113301015D01*
X113502728Y-113415842D01*
X113013340Y-113742840D01*
X112810000Y-114047161D01*
X112606660Y-113742840D01*
X112117271Y-113415842D01*
X111540000Y-113301015D01*
X110962728Y-113415842D01*
X110473340Y-113742840D01*
X110146342Y-114232229D01*
X110060500Y-114663784D01*
X107939500Y-114663784D01*
X107939500Y-114663783D01*
X107853658Y-114232228D01*
X107526660Y-113742840D01*
X107037271Y-113415842D01*
X106460000Y-113301015D01*
X105882728Y-113415842D01*
X105393340Y-113742840D01*
X105388544Y-113750018D01*
X105368923Y-113651375D01*
X105252445Y-113477055D01*
X105078125Y-113360577D01*
X104872500Y-113319676D01*
X102967500Y-113319676D01*
X102761875Y-113360577D01*
X102587555Y-113477055D01*
X102471077Y-113651375D01*
X102430176Y-113857000D01*
X100602000Y-113857000D01*
X100602000Y-111250000D01*
X118412676Y-111250000D01*
X118412676Y-113250000D01*
X118453577Y-113455625D01*
X118570055Y-113629945D01*
X118744375Y-113746423D01*
X118950000Y-113787324D01*
X120550000Y-113787324D01*
X120755625Y-113746423D01*
X120929945Y-113629945D01*
X121046423Y-113455625D01*
X121087324Y-113250000D01*
X121087324Y-111919305D01*
X123503000Y-111919305D01*
X123503000Y-112580696D01*
X123579994Y-112967770D01*
X123873288Y-113406713D01*
X124312231Y-113700006D01*
X124830000Y-113802997D01*
X125347770Y-113700006D01*
X125786713Y-113406713D01*
X126080006Y-112967769D01*
X126100000Y-112867253D01*
X126119994Y-112967770D01*
X126413288Y-113406713D01*
X126852231Y-113700006D01*
X127370000Y-113802997D01*
X127887770Y-113700006D01*
X128326713Y-113406713D01*
X128620006Y-112967769D01*
X128640000Y-112867253D01*
X128659994Y-112967770D01*
X128953288Y-113406713D01*
X129392231Y-113700006D01*
X129910000Y-113802997D01*
X130427770Y-113700006D01*
X130866713Y-113406713D01*
X131160006Y-112967769D01*
X131237000Y-112580695D01*
X131237000Y-111919304D01*
X131160006Y-111532230D01*
X130866712Y-111093287D01*
X130427769Y-110799994D01*
X129910000Y-110697003D01*
X129392230Y-110799994D01*
X128953287Y-111093288D01*
X128659994Y-111532231D01*
X128640000Y-111632747D01*
X128620006Y-111532230D01*
X128326712Y-111093287D01*
X127887769Y-110799994D01*
X127370000Y-110697003D01*
X126852230Y-110799994D01*
X126413287Y-111093288D01*
X126119994Y-111532231D01*
X126100000Y-111632747D01*
X126080006Y-111532230D01*
X125786712Y-111093287D01*
X125347769Y-110799994D01*
X124830000Y-110697003D01*
X124312230Y-110799994D01*
X123873287Y-111093288D01*
X123579994Y-111532231D01*
X123503000Y-111919305D01*
X121087324Y-111919305D01*
X121087324Y-111250000D01*
X121046423Y-111044375D01*
X120929945Y-110870055D01*
X120755625Y-110753577D01*
X120550000Y-110712676D01*
X118950000Y-110712676D01*
X118744375Y-110753577D01*
X118570055Y-110870055D01*
X118453577Y-111044375D01*
X118412676Y-111250000D01*
X100602000Y-111250000D01*
X100602000Y-104500000D01*
X103613076Y-104500000D01*
X103613076Y-106500000D01*
X103653977Y-106705625D01*
X103770455Y-106879945D01*
X103944775Y-106996423D01*
X104150400Y-107037324D01*
X106150400Y-107037324D01*
X106356025Y-106996423D01*
X106530345Y-106879945D01*
X106646823Y-106705625D01*
X106687724Y-106500000D01*
X106687724Y-105196261D01*
X107585800Y-105196261D01*
X107585800Y-105803739D01*
X107818272Y-106364976D01*
X108247824Y-106794528D01*
X108809061Y-107027000D01*
X109416539Y-107027000D01*
X109977776Y-106794528D01*
X110407328Y-106364976D01*
X110639800Y-105803739D01*
X110639800Y-105196261D01*
X111548200Y-105196261D01*
X111548200Y-105803739D01*
X111780672Y-106364976D01*
X112210224Y-106794528D01*
X112771461Y-107027000D01*
X113378939Y-107027000D01*
X113940176Y-106794528D01*
X114369728Y-106364976D01*
X114602200Y-105803739D01*
X114602200Y-105196261D01*
X119473000Y-105196261D01*
X119473000Y-105803739D01*
X119705472Y-106364976D01*
X120135024Y-106794528D01*
X120696261Y-107027000D01*
X121303739Y-107027000D01*
X121864976Y-106794528D01*
X122294528Y-106364976D01*
X122527000Y-105803739D01*
X122527000Y-105196261D01*
X123435400Y-105196261D01*
X123435400Y-105803739D01*
X123667872Y-106364976D01*
X124097424Y-106794528D01*
X124658661Y-107027000D01*
X125266139Y-107027000D01*
X125827376Y-106794528D01*
X126256928Y-106364976D01*
X126489400Y-105803739D01*
X126489400Y-105196261D01*
X126256928Y-104635024D01*
X125827376Y-104205472D01*
X125266139Y-103973000D01*
X124658661Y-103973000D01*
X124097424Y-104205472D01*
X123667872Y-104635024D01*
X123435400Y-105196261D01*
X122527000Y-105196261D01*
X122294528Y-104635024D01*
X121864976Y-104205472D01*
X121303739Y-103973000D01*
X120696261Y-103973000D01*
X120135024Y-104205472D01*
X119705472Y-104635024D01*
X119473000Y-105196261D01*
X114602200Y-105196261D01*
X114369728Y-104635024D01*
X113940176Y-104205472D01*
X113378939Y-103973000D01*
X112771461Y-103973000D01*
X112210224Y-104205472D01*
X111780672Y-104635024D01*
X111548200Y-105196261D01*
X110639800Y-105196261D01*
X110407328Y-104635024D01*
X109977776Y-104205472D01*
X109416539Y-103973000D01*
X108809061Y-103973000D01*
X108247824Y-104205472D01*
X107818272Y-104635024D01*
X107585800Y-105196261D01*
X106687724Y-105196261D01*
X106687724Y-104500000D01*
X106646823Y-104294375D01*
X106530345Y-104120055D01*
X106356025Y-104003577D01*
X106150400Y-103962676D01*
X104150400Y-103962676D01*
X103944775Y-104003577D01*
X103770455Y-104120055D01*
X103653977Y-104294375D01*
X103613076Y-104500000D01*
X100602000Y-104500000D01*
X100602000Y-102335499D01*
X104273000Y-102335499D01*
X104273000Y-102664501D01*
X104398903Y-102968458D01*
X104631542Y-103201097D01*
X104935499Y-103327000D01*
X105264501Y-103327000D01*
X105568458Y-103201097D01*
X105667555Y-103102000D01*
X108273000Y-103102000D01*
X108273000Y-103264501D01*
X108398903Y-103568458D01*
X108631542Y-103801097D01*
X108935499Y-103927000D01*
X109264501Y-103927000D01*
X109568458Y-103801097D01*
X109667555Y-103702000D01*
X128173000Y-103702000D01*
X128173000Y-103914501D01*
X128259299Y-104122847D01*
X128059824Y-104205472D01*
X127630272Y-104635024D01*
X127397800Y-105196261D01*
X127397800Y-105803739D01*
X127630272Y-106364976D01*
X128059824Y-106794528D01*
X128621061Y-107027000D01*
X129228539Y-107027000D01*
X129789776Y-106794528D01*
X130219328Y-106364976D01*
X130451800Y-105803739D01*
X130451800Y-105196261D01*
X130219328Y-104635024D01*
X129986303Y-104401999D01*
X131825697Y-104401999D01*
X131592672Y-104635024D01*
X131360200Y-105196261D01*
X131360200Y-105803739D01*
X131592672Y-106364976D01*
X132022224Y-106794528D01*
X132583461Y-107027000D01*
X133190939Y-107027000D01*
X133752176Y-106794528D01*
X134181728Y-106364976D01*
X134414200Y-105803739D01*
X134414200Y-105196261D01*
X134181728Y-104635024D01*
X133948703Y-104401999D01*
X135788097Y-104401999D01*
X135555072Y-104635024D01*
X135322600Y-105196261D01*
X135322600Y-105803739D01*
X135555072Y-106364976D01*
X135984624Y-106794528D01*
X136545861Y-107027000D01*
X137153339Y-107027000D01*
X137714576Y-106794528D01*
X138144128Y-106364976D01*
X138253056Y-106102000D01*
X139317719Y-106102000D01*
X139377002Y-106113792D01*
X139436285Y-106102000D01*
X139436290Y-106102000D01*
X139611890Y-106067071D01*
X139811019Y-105934017D01*
X139844603Y-105883755D01*
X141426358Y-104302000D01*
X150644590Y-104302000D01*
X150650655Y-104311077D01*
X150613076Y-104500000D01*
X150613076Y-106500000D01*
X150653977Y-106705625D01*
X150770455Y-106879945D01*
X150944775Y-106996423D01*
X151150400Y-107037324D01*
X153150400Y-107037324D01*
X153356025Y-106996423D01*
X153530345Y-106879945D01*
X153646823Y-106705625D01*
X153687724Y-106500000D01*
X153687724Y-104500000D01*
X153646823Y-104294375D01*
X153530345Y-104120055D01*
X153411028Y-104040329D01*
X153549357Y-103902000D01*
X155044590Y-103902000D01*
X155065983Y-103934017D01*
X155265112Y-104067071D01*
X155440712Y-104102000D01*
X155440717Y-104102000D01*
X155479165Y-104109648D01*
X155247824Y-104205472D01*
X154818272Y-104635024D01*
X154585800Y-105196261D01*
X154585800Y-105803739D01*
X154818272Y-106364976D01*
X155247824Y-106794528D01*
X155809061Y-107027000D01*
X156416539Y-107027000D01*
X156977776Y-106794528D01*
X157407328Y-106364976D01*
X157639800Y-105803739D01*
X157639800Y-105196261D01*
X158548200Y-105196261D01*
X158548200Y-105803739D01*
X158780672Y-106364976D01*
X159210224Y-106794528D01*
X159771461Y-107027000D01*
X160378939Y-107027000D01*
X160940176Y-106794528D01*
X161369728Y-106364976D01*
X161602200Y-105803739D01*
X161602200Y-105196261D01*
X161417353Y-104750000D01*
X166473000Y-104750000D01*
X166473000Y-111750000D01*
X166513115Y-111951674D01*
X166627355Y-112122645D01*
X166877355Y-112372645D01*
X167048326Y-112486885D01*
X167250000Y-112527000D01*
X168750000Y-112527000D01*
X168951674Y-112486885D01*
X169068439Y-112408864D01*
X174298000Y-112408864D01*
X174298000Y-112871136D01*
X174474904Y-113298220D01*
X174801780Y-113625096D01*
X175228864Y-113802000D01*
X175691136Y-113802000D01*
X176118220Y-113625096D01*
X176445096Y-113298220D01*
X176622000Y-112871136D01*
X176622000Y-112408864D01*
X176838000Y-112408864D01*
X176838000Y-112871136D01*
X177014904Y-113298220D01*
X177341780Y-113625096D01*
X177768864Y-113802000D01*
X178231136Y-113802000D01*
X178658220Y-113625096D01*
X178985096Y-113298220D01*
X179162000Y-112871136D01*
X179162000Y-112408864D01*
X182298000Y-112408864D01*
X182298000Y-112871136D01*
X182474904Y-113298220D01*
X182801780Y-113625096D01*
X183228864Y-113802000D01*
X183691136Y-113802000D01*
X184118220Y-113625096D01*
X184445096Y-113298220D01*
X184622000Y-112871136D01*
X184622000Y-112408864D01*
X184838000Y-112408864D01*
X184838000Y-112871136D01*
X185014904Y-113298220D01*
X185341780Y-113625096D01*
X185768864Y-113802000D01*
X186231136Y-113802000D01*
X186658220Y-113625096D01*
X186985096Y-113298220D01*
X187162000Y-112871136D01*
X187162000Y-112408864D01*
X186985096Y-111981780D01*
X186658220Y-111654904D01*
X186231136Y-111478000D01*
X185768864Y-111478000D01*
X185341780Y-111654904D01*
X185014904Y-111981780D01*
X184838000Y-112408864D01*
X184622000Y-112408864D01*
X184445096Y-111981780D01*
X184118220Y-111654904D01*
X183691136Y-111478000D01*
X183228864Y-111478000D01*
X182801780Y-111654904D01*
X182474904Y-111981780D01*
X182298000Y-112408864D01*
X179162000Y-112408864D01*
X178985096Y-111981780D01*
X178658220Y-111654904D01*
X178231136Y-111478000D01*
X177768864Y-111478000D01*
X177341780Y-111654904D01*
X177014904Y-111981780D01*
X176838000Y-112408864D01*
X176622000Y-112408864D01*
X176445096Y-111981780D01*
X176118220Y-111654904D01*
X175691136Y-111478000D01*
X175228864Y-111478000D01*
X174801780Y-111654904D01*
X174474904Y-111981780D01*
X174298000Y-112408864D01*
X169068439Y-112408864D01*
X169122645Y-112372645D01*
X169372645Y-112122645D01*
X169486885Y-111951674D01*
X169527000Y-111750000D01*
X169527000Y-105196261D01*
X170435400Y-105196261D01*
X170435400Y-105803739D01*
X170667872Y-106364976D01*
X171097424Y-106794528D01*
X171658661Y-107027000D01*
X172266139Y-107027000D01*
X172827376Y-106794528D01*
X173256928Y-106364976D01*
X173489400Y-105803739D01*
X173489400Y-105196261D01*
X174397800Y-105196261D01*
X174397800Y-105803739D01*
X174630272Y-106364976D01*
X175059824Y-106794528D01*
X175621061Y-107027000D01*
X176228539Y-107027000D01*
X176789776Y-106794528D01*
X177219328Y-106364976D01*
X177451800Y-105803739D01*
X177451800Y-105196261D01*
X178360200Y-105196261D01*
X178360200Y-105803739D01*
X178592672Y-106364976D01*
X179022224Y-106794528D01*
X179583461Y-107027000D01*
X180190939Y-107027000D01*
X180752176Y-106794528D01*
X181181728Y-106364976D01*
X181414200Y-105803739D01*
X181414200Y-105196261D01*
X182322600Y-105196261D01*
X182322600Y-105803739D01*
X182555072Y-106364976D01*
X182984624Y-106794528D01*
X183545861Y-107027000D01*
X184153339Y-107027000D01*
X184714576Y-106794528D01*
X185144128Y-106364976D01*
X185376600Y-105803739D01*
X185376600Y-105196261D01*
X185144128Y-104635024D01*
X184714576Y-104205472D01*
X184153339Y-103973000D01*
X183545861Y-103973000D01*
X182984624Y-104205472D01*
X182555072Y-104635024D01*
X182322600Y-105196261D01*
X181414200Y-105196261D01*
X181181728Y-104635024D01*
X180752176Y-104205472D01*
X180190939Y-103973000D01*
X179583461Y-103973000D01*
X179022224Y-104205472D01*
X178592672Y-104635024D01*
X178360200Y-105196261D01*
X177451800Y-105196261D01*
X177219328Y-104635024D01*
X176789776Y-104205472D01*
X176228539Y-103973000D01*
X175621061Y-103973000D01*
X175059824Y-104205472D01*
X174630272Y-104635024D01*
X174397800Y-105196261D01*
X173489400Y-105196261D01*
X173256928Y-104635024D01*
X172827376Y-104205472D01*
X172266139Y-103973000D01*
X171658661Y-103973000D01*
X171097424Y-104205472D01*
X170667872Y-104635024D01*
X170435400Y-105196261D01*
X169527000Y-105196261D01*
X169527000Y-104750000D01*
X169486885Y-104548326D01*
X169372645Y-104377355D01*
X169122645Y-104127355D01*
X168951674Y-104013115D01*
X168750000Y-103973000D01*
X167250000Y-103973000D01*
X167048326Y-104013115D01*
X166877355Y-104127355D01*
X166627355Y-104377355D01*
X166513115Y-104548326D01*
X166473000Y-104750000D01*
X161417353Y-104750000D01*
X161369728Y-104635024D01*
X160940176Y-104205472D01*
X160378939Y-103973000D01*
X159771461Y-103973000D01*
X159210224Y-104205472D01*
X158780672Y-104635024D01*
X158548200Y-105196261D01*
X157639800Y-105196261D01*
X157407328Y-104635024D01*
X156977776Y-104205472D01*
X156705690Y-104092770D01*
X156834888Y-104067071D01*
X157034017Y-103934017D01*
X157067601Y-103883755D01*
X157349357Y-103602000D01*
X175144590Y-103602000D01*
X175165983Y-103634017D01*
X175365112Y-103767071D01*
X175540712Y-103802000D01*
X175540717Y-103802000D01*
X175600000Y-103813792D01*
X175659283Y-103802000D01*
X183240717Y-103802000D01*
X183300000Y-103813792D01*
X183359283Y-103802000D01*
X183359288Y-103802000D01*
X183534888Y-103767071D01*
X183734017Y-103634017D01*
X183767602Y-103583754D01*
X183924355Y-103427000D01*
X184064501Y-103427000D01*
X184368458Y-103301097D01*
X184601097Y-103068458D01*
X184727000Y-102764501D01*
X184727000Y-102435499D01*
X184601097Y-102131542D01*
X184368458Y-101898903D01*
X184064501Y-101773000D01*
X183735499Y-101773000D01*
X183431542Y-101898903D01*
X183198903Y-102131542D01*
X183073000Y-102435499D01*
X183073000Y-102575645D01*
X183050645Y-102598000D01*
X176727000Y-102598000D01*
X176727000Y-102435499D01*
X176601097Y-102131542D01*
X176368458Y-101898903D01*
X176064501Y-101773000D01*
X175735499Y-101773000D01*
X175431542Y-101898903D01*
X175332445Y-101998000D01*
X156959283Y-101998000D01*
X156900000Y-101986208D01*
X156840717Y-101998000D01*
X156840712Y-101998000D01*
X156779693Y-102010138D01*
X156568458Y-101798903D01*
X156264501Y-101673000D01*
X155935499Y-101673000D01*
X155631542Y-101798903D01*
X155532445Y-101898000D01*
X153159282Y-101898000D01*
X153099999Y-101886208D01*
X153040716Y-101898000D01*
X153040712Y-101898000D01*
X152865112Y-101932929D01*
X152865110Y-101932930D01*
X152865111Y-101932930D01*
X152827569Y-101958014D01*
X152668458Y-101798903D01*
X152364501Y-101673000D01*
X152035499Y-101673000D01*
X151731542Y-101798903D01*
X151632445Y-101898000D01*
X138809283Y-101898000D01*
X138750000Y-101886208D01*
X138690717Y-101898000D01*
X105667555Y-101898000D01*
X105568458Y-101798903D01*
X105264501Y-101673000D01*
X104935499Y-101673000D01*
X104631542Y-101798903D01*
X104398903Y-102031542D01*
X104273000Y-102335499D01*
X100602000Y-102335499D01*
X100602000Y-101602000D01*
X188398000Y-101602000D01*
X188398001Y-149398000D01*
X188398001Y-149398000D01*
G37*
X188398001Y-149398000D02*
X100602000Y-149398000D01*
X100602000Y-147365000D01*
X101827676Y-147365000D01*
X101827676Y-148635000D01*
X101868577Y-148840625D01*
X101985055Y-149014945D01*
X102159375Y-149131423D01*
X102365000Y-149172324D01*
X103635000Y-149172324D01*
X103840625Y-149131423D01*
X104014945Y-149014945D01*
X104131423Y-148840625D01*
X104172324Y-148635000D01*
X104172324Y-147768864D01*
X124698000Y-147768864D01*
X124698000Y-148231136D01*
X124874904Y-148658220D01*
X125201780Y-148985096D01*
X125628864Y-149162000D01*
X126091136Y-149162000D01*
X126518220Y-148985096D01*
X126845096Y-148658220D01*
X127022000Y-148231136D01*
X127022000Y-147768864D01*
X126854715Y-147365000D01*
X131827676Y-147365000D01*
X131827676Y-148635000D01*
X131868577Y-148840625D01*
X131985055Y-149014945D01*
X132159375Y-149131423D01*
X132365000Y-149172324D01*
X133635000Y-149172324D01*
X133840625Y-149131423D01*
X134014945Y-149014945D01*
X134131423Y-148840625D01*
X134172324Y-148635000D01*
X134172324Y-147768864D01*
X154698000Y-147768864D01*
X154698000Y-148231136D01*
X154874904Y-148658220D01*
X155201780Y-148985096D01*
X155628864Y-149162000D01*
X156091136Y-149162000D01*
X156518220Y-148985096D01*
X156845096Y-148658220D01*
X157022000Y-148231136D01*
X157022000Y-147768864D01*
X156854715Y-147365000D01*
X161827676Y-147365000D01*
X161827676Y-148635000D01*
X161868577Y-148840625D01*
X161985055Y-149014945D01*
X162159375Y-149131423D01*
X162365000Y-149172324D01*
X163635000Y-149172324D01*
X163840625Y-149131423D01*
X164014945Y-149014945D01*
X164131423Y-148840625D01*
X164172324Y-148635000D01*
X164172324Y-147768864D01*
X184698000Y-147768864D01*
X184698000Y-148231136D01*
X184874904Y-148658220D01*
X185201780Y-148985096D01*
X185628864Y-149162000D01*
X186091136Y-149162000D01*
X186518220Y-148985096D01*
X186845096Y-148658220D01*
X187022000Y-148231136D01*
X187022000Y-147768864D01*
X186845096Y-147341780D01*
X186518220Y-147014904D01*
X186091136Y-146838000D01*
X185628864Y-146838000D01*
X185201780Y-147014904D01*
X184874904Y-147341780D01*
X184698000Y-147768864D01*
X164172324Y-147768864D01*
X164172324Y-147365000D01*
X164131423Y-147159375D01*
X164014945Y-146985055D01*
X163840625Y-146868577D01*
X163635000Y-146827676D01*
X162365000Y-146827676D01*
X162159375Y-146868577D01*
X161985055Y-146985055D01*
X161868577Y-147159375D01*
X161827676Y-147365000D01*
X156854715Y-147365000D01*
X156845096Y-147341780D01*
X156518220Y-147014904D01*
X156091136Y-146838000D01*
X155628864Y-146838000D01*
X155201780Y-147014904D01*
X154874904Y-147341780D01*
X154698000Y-147768864D01*
X134172324Y-147768864D01*
X134172324Y-147365000D01*
X134131423Y-147159375D01*
X134014945Y-146985055D01*
X133840625Y-146868577D01*
X133635000Y-146827676D01*
X132365000Y-146827676D01*
X132159375Y-146868577D01*
X131985055Y-146985055D01*
X131868577Y-147159375D01*
X131827676Y-147365000D01*
X126854715Y-147365000D01*
X126845096Y-147341780D01*
X126518220Y-147014904D01*
X126091136Y-146838000D01*
X125628864Y-146838000D01*
X125201780Y-147014904D01*
X124874904Y-147341780D01*
X124698000Y-147768864D01*
X104172324Y-147768864D01*
X104172324Y-147365000D01*
X104131423Y-147159375D01*
X104014945Y-146985055D01*
X103840625Y-146868577D01*
X103635000Y-146827676D01*
X102365000Y-146827676D01*
X102159375Y-146868577D01*
X101985055Y-146985055D01*
X101868577Y-147159375D01*
X101827676Y-147365000D01*
X100602000Y-147365000D01*
X100602000Y-145228864D01*
X101838000Y-145228864D01*
X101838000Y-145691136D01*
X102014904Y-146118220D01*
X102341780Y-146445096D01*
X102768864Y-146622000D01*
X103231136Y-146622000D01*
X103658220Y-146445096D01*
X103985096Y-146118220D01*
X104162000Y-145691136D01*
X104162000Y-145228864D01*
X104378000Y-145228864D01*
X104378000Y-145691136D01*
X104554904Y-146118220D01*
X104881780Y-146445096D01*
X105308864Y-146622000D01*
X105771136Y-146622000D01*
X106198220Y-146445096D01*
X106525096Y-146118220D01*
X106702000Y-145691136D01*
X106702000Y-145228864D01*
X106918000Y-145228864D01*
X106918000Y-145691136D01*
X107094904Y-146118220D01*
X107421780Y-146445096D01*
X107848864Y-146622000D01*
X108311136Y-146622000D01*
X108738220Y-146445096D01*
X109065096Y-146118220D01*
X109242000Y-145691136D01*
X109242000Y-145228864D01*
X109458000Y-145228864D01*
X109458000Y-145691136D01*
X109634904Y-146118220D01*
X109961780Y-146445096D01*
X110388864Y-146622000D01*
X110851136Y-146622000D01*
X111278220Y-146445096D01*
X111605096Y-146118220D01*
X111782000Y-145691136D01*
X111782000Y-145228864D01*
X111998000Y-145228864D01*
X111998000Y-145691136D01*
X112174904Y-146118220D01*
X112501780Y-146445096D01*
X112928864Y-146622000D01*
X113391136Y-146622000D01*
X113818220Y-146445096D01*
X114145096Y-146118220D01*
X114322000Y-145691136D01*
X114322000Y-145228864D01*
X114538000Y-145228864D01*
X114538000Y-145691136D01*
X114714904Y-146118220D01*
X115041780Y-146445096D01*
X115468864Y-146622000D01*
X115931136Y-146622000D01*
X116358220Y-146445096D01*
X116685096Y-146118220D01*
X116862000Y-145691136D01*
X116862000Y-145228864D01*
X117078000Y-145228864D01*
X117078000Y-145691136D01*
X117254904Y-146118220D01*
X117581780Y-146445096D01*
X118008864Y-146622000D01*
X118471136Y-146622000D01*
X118898220Y-146445096D01*
X119225096Y-146118220D01*
X119402000Y-145691136D01*
X119402000Y-145228864D01*
X119618000Y-145228864D01*
X119618000Y-145691136D01*
X119794904Y-146118220D01*
X120121780Y-146445096D01*
X120548864Y-146622000D01*
X121011136Y-146622000D01*
X121438220Y-146445096D01*
X121765096Y-146118220D01*
X121942000Y-145691136D01*
X121942000Y-145228864D01*
X122158000Y-145228864D01*
X122158000Y-145691136D01*
X122334904Y-146118220D01*
X122661780Y-146445096D01*
X123088864Y-146622000D01*
X123551136Y-146622000D01*
X123978220Y-146445096D01*
X124305096Y-146118220D01*
X124482000Y-145691136D01*
X124482000Y-145228864D01*
X124698000Y-145228864D01*
X124698000Y-145691136D01*
X124874904Y-146118220D01*
X125201780Y-146445096D01*
X125628864Y-146622000D01*
X126091136Y-146622000D01*
X126518220Y-146445096D01*
X126845096Y-146118220D01*
X127022000Y-145691136D01*
X127022000Y-145228864D01*
X131838000Y-145228864D01*
X131838000Y-145691136D01*
X132014904Y-146118220D01*
X132341780Y-146445096D01*
X132768864Y-146622000D01*
X133231136Y-146622000D01*
X133658220Y-146445096D01*
X133985096Y-146118220D01*
X134162000Y-145691136D01*
X134162000Y-145436844D01*
X134245308Y-145353536D01*
X134310186Y-145310186D01*
X134399980Y-145175799D01*
X134378000Y-145228864D01*
X134378000Y-145691136D01*
X134554904Y-146118220D01*
X134881780Y-146445096D01*
X135308864Y-146622000D01*
X135771136Y-146622000D01*
X136198220Y-146445096D01*
X136525096Y-146118220D01*
X136702000Y-145691136D01*
X136702000Y-145228864D01*
X136918000Y-145228864D01*
X136918000Y-145691136D01*
X137094904Y-146118220D01*
X137421780Y-146445096D01*
X137848864Y-146622000D01*
X138311136Y-146622000D01*
X138738220Y-146445096D01*
X139065096Y-146118220D01*
X139242000Y-145691136D01*
X139242000Y-145228864D01*
X139458000Y-145228864D01*
X139458000Y-145691136D01*
X139634904Y-146118220D01*
X139961780Y-146445096D01*
X140388864Y-146622000D01*
X140851136Y-146622000D01*
X141278220Y-146445096D01*
X141605096Y-146118220D01*
X141782000Y-145691136D01*
X141782000Y-145228864D01*
X141998000Y-145228864D01*
X141998000Y-145691136D01*
X142174904Y-146118220D01*
X142501780Y-146445096D01*
X142928864Y-146622000D01*
X143391136Y-146622000D01*
X143818220Y-146445096D01*
X144145096Y-146118220D01*
X144322000Y-145691136D01*
X144322000Y-145228864D01*
X144538000Y-145228864D01*
X144538000Y-145691136D01*
X144714904Y-146118220D01*
X145041780Y-146445096D01*
X145468864Y-146622000D01*
X145931136Y-146622000D01*
X146358220Y-146445096D01*
X146685096Y-146118220D01*
X146862000Y-145691136D01*
X146862000Y-145228864D01*
X147078000Y-145228864D01*
X147078000Y-145691136D01*
X147254904Y-146118220D01*
X147581780Y-146445096D01*
X148008864Y-146622000D01*
X148471136Y-146622000D01*
X148898220Y-146445096D01*
X149225096Y-146118220D01*
X149402000Y-145691136D01*
X149402000Y-145228864D01*
X149618000Y-145228864D01*
X149618000Y-145691136D01*
X149794904Y-146118220D01*
X150121780Y-146445096D01*
X150548864Y-146622000D01*
X151011136Y-146622000D01*
X151438220Y-146445096D01*
X151765096Y-146118220D01*
X151942000Y-145691136D01*
X151942000Y-145228864D01*
X152158000Y-145228864D01*
X152158000Y-145691136D01*
X152334904Y-146118220D01*
X152661780Y-146445096D01*
X153088864Y-146622000D01*
X153551136Y-146622000D01*
X153978220Y-146445096D01*
X154305096Y-146118220D01*
X154482000Y-145691136D01*
X154482000Y-145228864D01*
X154698000Y-145228864D01*
X154698000Y-145691136D01*
X154874904Y-146118220D01*
X155201780Y-146445096D01*
X155628864Y-146622000D01*
X156091136Y-146622000D01*
X156518220Y-146445096D01*
X156845096Y-146118220D01*
X157022000Y-145691136D01*
X157022000Y-145228864D01*
X161838000Y-145228864D01*
X161838000Y-145691136D01*
X162014904Y-146118220D01*
X162341780Y-146445096D01*
X162768864Y-146622000D01*
X163231136Y-146622000D01*
X163658220Y-146445096D01*
X163985096Y-146118220D01*
X164162000Y-145691136D01*
X164162000Y-145228864D01*
X164378000Y-145228864D01*
X164378000Y-145691136D01*
X164554904Y-146118220D01*
X164881780Y-146445096D01*
X165308864Y-146622000D01*
X165771136Y-146622000D01*
X166198220Y-146445096D01*
X166525096Y-146118220D01*
X166702000Y-145691136D01*
X166702000Y-145228864D01*
X166918000Y-145228864D01*
X166918000Y-145691136D01*
X167094904Y-146118220D01*
X167421780Y-146445096D01*
X167848864Y-146622000D01*
X168311136Y-146622000D01*
X168738220Y-146445096D01*
X169065096Y-146118220D01*
X169242000Y-145691136D01*
X169242000Y-145228864D01*
X169458000Y-145228864D01*
X169458000Y-145691136D01*
X169634904Y-146118220D01*
X169961780Y-146445096D01*
X170388864Y-146622000D01*
X170851136Y-146622000D01*
X171278220Y-146445096D01*
X171605096Y-146118220D01*
X171782000Y-145691136D01*
X171782000Y-145228864D01*
X171998000Y-145228864D01*
X171998000Y-145691136D01*
X172174904Y-146118220D01*
X172501780Y-146445096D01*
X172928864Y-146622000D01*
X173391136Y-146622000D01*
X173818220Y-146445096D01*
X174145096Y-146118220D01*
X174322000Y-145691136D01*
X174322000Y-145228864D01*
X174538000Y-145228864D01*
X174538000Y-145691136D01*
X174714904Y-146118220D01*
X175041780Y-146445096D01*
X175468864Y-146622000D01*
X175931136Y-146622000D01*
X176358220Y-146445096D01*
X176685096Y-146118220D01*
X176862000Y-145691136D01*
X176862000Y-145228864D01*
X177078000Y-145228864D01*
X177078000Y-145691136D01*
X177254904Y-146118220D01*
X177581780Y-146445096D01*
X178008864Y-146622000D01*
X178471136Y-146622000D01*
X178898220Y-146445096D01*
X179225096Y-146118220D01*
X179402000Y-145691136D01*
X179402000Y-145228864D01*
X179618000Y-145228864D01*
X179618000Y-145691136D01*
X179794904Y-146118220D01*
X180121780Y-146445096D01*
X180548864Y-146622000D01*
X181011136Y-146622000D01*
X181438220Y-146445096D01*
X181765096Y-146118220D01*
X181942000Y-145691136D01*
X181942000Y-145228864D01*
X182158000Y-145228864D01*
X182158000Y-145691136D01*
X182334904Y-146118220D01*
X182661780Y-146445096D01*
X183088864Y-146622000D01*
X183551136Y-146622000D01*
X183978220Y-146445096D01*
X184305096Y-146118220D01*
X184482000Y-145691136D01*
X184482000Y-145228864D01*
X184698000Y-145228864D01*
X184698000Y-145691136D01*
X184874904Y-146118220D01*
X185201780Y-146445096D01*
X185628864Y-146622000D01*
X186091136Y-146622000D01*
X186518220Y-146445096D01*
X186845096Y-146118220D01*
X187022000Y-145691136D01*
X187022000Y-145228864D01*
X186845096Y-144801780D01*
X186518220Y-144474904D01*
X186091136Y-144298000D01*
X185628864Y-144298000D01*
X185201780Y-144474904D01*
X184874904Y-144801780D01*
X184698000Y-145228864D01*
X184482000Y-145228864D01*
X184305096Y-144801780D01*
X183978220Y-144474904D01*
X183551136Y-144298000D01*
X183088864Y-144298000D01*
X182661780Y-144474904D01*
X182334904Y-144801780D01*
X182158000Y-145228864D01*
X181942000Y-145228864D01*
X181765096Y-144801780D01*
X181438220Y-144474904D01*
X181011136Y-144298000D01*
X180548864Y-144298000D01*
X180121780Y-144474904D01*
X179794904Y-144801780D01*
X179618000Y-145228864D01*
X179402000Y-145228864D01*
X179225096Y-144801780D01*
X178898220Y-144474904D01*
X178471136Y-144298000D01*
X178008864Y-144298000D01*
X177581780Y-144474904D01*
X177254904Y-144801780D01*
X177078000Y-145228864D01*
X176862000Y-145228864D01*
X176685096Y-144801780D01*
X176358220Y-144474904D01*
X175931136Y-144298000D01*
X175468864Y-144298000D01*
X175041780Y-144474904D01*
X174714904Y-144801780D01*
X174538000Y-145228864D01*
X174322000Y-145228864D01*
X174145096Y-144801780D01*
X173818220Y-144474904D01*
X173391136Y-144298000D01*
X172928864Y-144298000D01*
X172501780Y-144474904D01*
X172174904Y-144801780D01*
X171998000Y-145228864D01*
X171782000Y-145228864D01*
X171605096Y-144801780D01*
X171278220Y-144474904D01*
X170851136Y-144298000D01*
X170388864Y-144298000D01*
X169961780Y-144474904D01*
X169634904Y-144801780D01*
X169458000Y-145228864D01*
X169242000Y-145228864D01*
X169065096Y-144801780D01*
X168738220Y-144474904D01*
X168311136Y-144298000D01*
X167848864Y-144298000D01*
X167421780Y-144474904D01*
X167094904Y-144801780D01*
X166918000Y-145228864D01*
X166702000Y-145228864D01*
X166525096Y-144801780D01*
X166198220Y-144474904D01*
X165771136Y-144298000D01*
X165308864Y-144298000D01*
X164881780Y-144474904D01*
X164554904Y-144801780D01*
X164378000Y-145228864D01*
X164162000Y-145228864D01*
X163985096Y-144801780D01*
X163658220Y-144474904D01*
X163231136Y-144298000D01*
X162768864Y-144298000D01*
X162341780Y-144474904D01*
X162014904Y-144801780D01*
X161838000Y-145228864D01*
X157022000Y-145228864D01*
X156845096Y-144801780D01*
X156518220Y-144474904D01*
X156091136Y-144298000D01*
X155628864Y-144298000D01*
X155201780Y-144474904D01*
X154874904Y-144801780D01*
X154698000Y-145228864D01*
X154482000Y-145228864D01*
X154305096Y-144801780D01*
X153978220Y-144474904D01*
X153551136Y-144298000D01*
X153088864Y-144298000D01*
X152661780Y-144474904D01*
X152334904Y-144801780D01*
X152158000Y-145228864D01*
X151942000Y-145228864D01*
X151765096Y-144801780D01*
X151438220Y-144474904D01*
X151011136Y-144298000D01*
X150548864Y-144298000D01*
X150121780Y-144474904D01*
X149794904Y-144801780D01*
X149618000Y-145228864D01*
X149402000Y-145228864D01*
X149225096Y-144801780D01*
X148898220Y-144474904D01*
X148471136Y-144298000D01*
X148008864Y-144298000D01*
X147581780Y-144474904D01*
X147254904Y-144801780D01*
X147078000Y-145228864D01*
X146862000Y-145228864D01*
X146685096Y-144801780D01*
X146358220Y-144474904D01*
X145931136Y-144298000D01*
X145468864Y-144298000D01*
X145041780Y-144474904D01*
X144714904Y-144801780D01*
X144538000Y-145228864D01*
X144322000Y-145228864D01*
X144145096Y-144801780D01*
X143818220Y-144474904D01*
X143391136Y-144298000D01*
X142928864Y-144298000D01*
X142501780Y-144474904D01*
X142174904Y-144801780D01*
X141998000Y-145228864D01*
X141782000Y-145228864D01*
X141605096Y-144801780D01*
X141278220Y-144474904D01*
X140851136Y-144298000D01*
X140388864Y-144298000D01*
X139961780Y-144474904D01*
X139634904Y-144801780D01*
X139458000Y-145228864D01*
X139242000Y-145228864D01*
X139065096Y-144801780D01*
X138738220Y-144474904D01*
X138311136Y-144298000D01*
X137848864Y-144298000D01*
X137421780Y-144474904D01*
X137094904Y-144801780D01*
X136918000Y-145228864D01*
X136702000Y-145228864D01*
X136525096Y-144801780D01*
X136198220Y-144474904D01*
X135771136Y-144298000D01*
X135308864Y-144298000D01*
X134881780Y-144474904D01*
X134554904Y-144801780D01*
X134510690Y-144908521D01*
X134542222Y-144750000D01*
X134527000Y-144673474D01*
X134527000Y-142585499D01*
X135923000Y-142585499D01*
X135923000Y-142914501D01*
X136048903Y-143218458D01*
X136281542Y-143451097D01*
X136585499Y-143577000D01*
X136914501Y-143577000D01*
X137218458Y-143451097D01*
X137451097Y-143218458D01*
X137577000Y-142914501D01*
X137577000Y-142585499D01*
X137527000Y-142464788D01*
X137527000Y-142071843D01*
X139597747Y-140001097D01*
X139718458Y-139951097D01*
X139951097Y-139718458D01*
X140077000Y-139414501D01*
X140077000Y-139085499D01*
X139951097Y-138781542D01*
X139718458Y-138548903D01*
X139414501Y-138423000D01*
X139085499Y-138423000D01*
X138781542Y-138548903D01*
X138548903Y-138781542D01*
X138498903Y-138902253D01*
X136254695Y-141146462D01*
X136189814Y-141189814D01*
X136018082Y-141446831D01*
X135975393Y-141661444D01*
X135957778Y-141750000D01*
X135973000Y-141826526D01*
X135973001Y-142464787D01*
X135923000Y-142585499D01*
X134527000Y-142585499D01*
X134527000Y-141535212D01*
X134577000Y-141414501D01*
X134577000Y-141085499D01*
X134451097Y-140781542D01*
X134218458Y-140548903D01*
X133914501Y-140423000D01*
X133585499Y-140423000D01*
X133281542Y-140548903D01*
X133048903Y-140781542D01*
X132923000Y-141085499D01*
X132923000Y-141414501D01*
X132973001Y-141535214D01*
X132973000Y-144298000D01*
X132768864Y-144298000D01*
X132341780Y-144474904D01*
X132014904Y-144801780D01*
X131838000Y-145228864D01*
X127022000Y-145228864D01*
X126845096Y-144801780D01*
X126518220Y-144474904D01*
X126091136Y-144298000D01*
X125628864Y-144298000D01*
X125201780Y-144474904D01*
X124874904Y-144801780D01*
X124698000Y-145228864D01*
X124482000Y-145228864D01*
X124305096Y-144801780D01*
X123978220Y-144474904D01*
X123551136Y-144298000D01*
X123088864Y-144298000D01*
X122661780Y-144474904D01*
X122334904Y-144801780D01*
X122158000Y-145228864D01*
X121942000Y-145228864D01*
X121765096Y-144801780D01*
X121438220Y-144474904D01*
X121011136Y-144298000D01*
X120548864Y-144298000D01*
X120121780Y-144474904D01*
X119794904Y-144801780D01*
X119618000Y-145228864D01*
X119402000Y-145228864D01*
X119225096Y-144801780D01*
X118898220Y-144474904D01*
X118471136Y-144298000D01*
X118008864Y-144298000D01*
X117581780Y-144474904D01*
X117254904Y-144801780D01*
X117078000Y-145228864D01*
X116862000Y-145228864D01*
X116685096Y-144801780D01*
X116358220Y-144474904D01*
X115931136Y-144298000D01*
X115468864Y-144298000D01*
X115041780Y-144474904D01*
X114714904Y-144801780D01*
X114538000Y-145228864D01*
X114322000Y-145228864D01*
X114145096Y-144801780D01*
X113818220Y-144474904D01*
X113391136Y-144298000D01*
X112928864Y-144298000D01*
X112501780Y-144474904D01*
X112174904Y-144801780D01*
X111998000Y-145228864D01*
X111782000Y-145228864D01*
X111605096Y-144801780D01*
X111278220Y-144474904D01*
X110851136Y-144298000D01*
X110388864Y-144298000D01*
X109961780Y-144474904D01*
X109634904Y-144801780D01*
X109458000Y-145228864D01*
X109242000Y-145228864D01*
X109065096Y-144801780D01*
X108738220Y-144474904D01*
X108311136Y-144298000D01*
X107848864Y-144298000D01*
X107421780Y-144474904D01*
X107094904Y-144801780D01*
X106918000Y-145228864D01*
X106702000Y-145228864D01*
X106525096Y-144801780D01*
X106198220Y-144474904D01*
X105771136Y-144298000D01*
X105308864Y-144298000D01*
X104881780Y-144474904D01*
X104554904Y-144801780D01*
X104378000Y-145228864D01*
X104162000Y-145228864D01*
X103985096Y-144801780D01*
X103658220Y-144474904D01*
X103231136Y-144298000D01*
X102768864Y-144298000D01*
X102341780Y-144474904D01*
X102014904Y-144801780D01*
X101838000Y-145228864D01*
X100602000Y-145228864D01*
X100602000Y-135268864D01*
X174298000Y-135268864D01*
X174298000Y-135731136D01*
X174474904Y-136158220D01*
X174801780Y-136485096D01*
X175228864Y-136662000D01*
X175691136Y-136662000D01*
X176118220Y-136485096D01*
X176445096Y-136158220D01*
X176622000Y-135731136D01*
X176622000Y-135268864D01*
X176454715Y-134865000D01*
X176827676Y-134865000D01*
X176827676Y-136135000D01*
X176868577Y-136340625D01*
X176985055Y-136514945D01*
X177159375Y-136631423D01*
X177365000Y-136672324D01*
X178635000Y-136672324D01*
X178840625Y-136631423D01*
X179014945Y-136514945D01*
X179131423Y-136340625D01*
X179172324Y-136135000D01*
X179172324Y-135268864D01*
X182298000Y-135268864D01*
X182298000Y-135731136D01*
X182474904Y-136158220D01*
X182801780Y-136485096D01*
X183228864Y-136662000D01*
X183691136Y-136662000D01*
X184118220Y-136485096D01*
X184445096Y-136158220D01*
X184622000Y-135731136D01*
X184622000Y-135268864D01*
X184454715Y-134865000D01*
X184827676Y-134865000D01*
X184827676Y-136135000D01*
X184868577Y-136340625D01*
X184985055Y-136514945D01*
X185159375Y-136631423D01*
X185365000Y-136672324D01*
X186635000Y-136672324D01*
X186840625Y-136631423D01*
X187014945Y-136514945D01*
X187131423Y-136340625D01*
X187172324Y-136135000D01*
X187172324Y-134865000D01*
X187131423Y-134659375D01*
X187014945Y-134485055D01*
X186840625Y-134368577D01*
X186635000Y-134327676D01*
X185365000Y-134327676D01*
X185159375Y-134368577D01*
X184985055Y-134485055D01*
X184868577Y-134659375D01*
X184827676Y-134865000D01*
X184454715Y-134865000D01*
X184445096Y-134841780D01*
X184118220Y-134514904D01*
X183691136Y-134338000D01*
X183228864Y-134338000D01*
X182801780Y-134514904D01*
X182474904Y-134841780D01*
X182298000Y-135268864D01*
X179172324Y-135268864D01*
X179172324Y-134865000D01*
X179131423Y-134659375D01*
X179014945Y-134485055D01*
X178840625Y-134368577D01*
X178635000Y-134327676D01*
X177365000Y-134327676D01*
X177159375Y-134368577D01*
X176985055Y-134485055D01*
X176868577Y-134659375D01*
X176827676Y-134865000D01*
X176454715Y-134865000D01*
X176445096Y-134841780D01*
X176118220Y-134514904D01*
X175691136Y-134338000D01*
X175228864Y-134338000D01*
X174801780Y-134514904D01*
X174474904Y-134841780D01*
X174298000Y-135268864D01*
X100602000Y-135268864D01*
X100602000Y-132728864D01*
X174298000Y-132728864D01*
X174298000Y-133191136D01*
X174474904Y-133618220D01*
X174801780Y-133945096D01*
X175228864Y-134122000D01*
X175691136Y-134122000D01*
X176118220Y-133945096D01*
X176445096Y-133618220D01*
X176622000Y-133191136D01*
X176622000Y-132728864D01*
X182298000Y-132728864D01*
X182298000Y-133191136D01*
X182474904Y-133618220D01*
X182801780Y-133945096D01*
X183228864Y-134122000D01*
X183691136Y-134122000D01*
X184118220Y-133945096D01*
X184445096Y-133618220D01*
X184622000Y-133191136D01*
X184622000Y-132728864D01*
X184445096Y-132301780D01*
X184118220Y-131974904D01*
X183691136Y-131798000D01*
X183228864Y-131798000D01*
X182801780Y-131974904D01*
X182474904Y-132301780D01*
X182298000Y-132728864D01*
X176622000Y-132728864D01*
X176445096Y-132301780D01*
X176118220Y-131974904D01*
X175691136Y-131798000D01*
X175228864Y-131798000D01*
X174801780Y-131974904D01*
X174474904Y-132301780D01*
X174298000Y-132728864D01*
X100602000Y-132728864D01*
X100602000Y-129735499D01*
X105273000Y-129735499D01*
X105273000Y-130064501D01*
X105398903Y-130368458D01*
X105631542Y-130601097D01*
X105935499Y-130727000D01*
X106264501Y-130727000D01*
X106566278Y-130602000D01*
X107333722Y-130602000D01*
X107635499Y-130727000D01*
X107964501Y-130727000D01*
X108268458Y-130601097D01*
X108501097Y-130368458D01*
X108627000Y-130064501D01*
X108627000Y-129735499D01*
X108501097Y-129431542D01*
X108268458Y-129198903D01*
X107964501Y-129073000D01*
X107635499Y-129073000D01*
X107331542Y-129198903D01*
X107132445Y-129398000D01*
X106767555Y-129398000D01*
X106568458Y-129198903D01*
X106264501Y-129073000D01*
X105935499Y-129073000D01*
X105631542Y-129198903D01*
X105398903Y-129431542D01*
X105273000Y-129735499D01*
X100602000Y-129735499D01*
X100602000Y-127585499D01*
X126923000Y-127585499D01*
X126923000Y-127914501D01*
X127048903Y-128218458D01*
X127123001Y-128292556D01*
X127123000Y-129207445D01*
X127048903Y-129281542D01*
X126923000Y-129585499D01*
X126923000Y-129914501D01*
X127048903Y-130218458D01*
X127281542Y-130451097D01*
X127585499Y-130577000D01*
X127914501Y-130577000D01*
X128218458Y-130451097D01*
X128451097Y-130218458D01*
X128463355Y-130188864D01*
X174298000Y-130188864D01*
X174298000Y-130651136D01*
X174474904Y-131078220D01*
X174801780Y-131405096D01*
X175228864Y-131582000D01*
X175691136Y-131582000D01*
X176118220Y-131405096D01*
X176445096Y-131078220D01*
X176622000Y-130651136D01*
X176622000Y-130188864D01*
X182298000Y-130188864D01*
X182298000Y-130651136D01*
X182474904Y-131078220D01*
X182801780Y-131405096D01*
X183228864Y-131582000D01*
X183691136Y-131582000D01*
X184118220Y-131405096D01*
X184445096Y-131078220D01*
X184622000Y-130651136D01*
X184622000Y-130188864D01*
X184445096Y-129761780D01*
X184118220Y-129434904D01*
X183691136Y-129258000D01*
X183228864Y-129258000D01*
X182801780Y-129434904D01*
X182474904Y-129761780D01*
X182298000Y-130188864D01*
X176622000Y-130188864D01*
X176445096Y-129761780D01*
X176118220Y-129434904D01*
X175691136Y-129258000D01*
X175228864Y-129258000D01*
X174801780Y-129434904D01*
X174474904Y-129761780D01*
X174298000Y-130188864D01*
X128463355Y-130188864D01*
X128577000Y-129914501D01*
X128577000Y-129585499D01*
X128451097Y-129281542D01*
X128377000Y-129207445D01*
X128377000Y-128292555D01*
X128451097Y-128218458D01*
X128577000Y-127914501D01*
X128577000Y-127648864D01*
X174298000Y-127648864D01*
X174298000Y-128111136D01*
X174474904Y-128538220D01*
X174801780Y-128865096D01*
X175228864Y-129042000D01*
X175691136Y-129042000D01*
X176118220Y-128865096D01*
X176445096Y-128538220D01*
X176622000Y-128111136D01*
X176622000Y-127648864D01*
X182298000Y-127648864D01*
X182298000Y-128111136D01*
X182474904Y-128538220D01*
X182801780Y-128865096D01*
X183228864Y-129042000D01*
X183691136Y-129042000D01*
X184118220Y-128865096D01*
X184445096Y-128538220D01*
X184622000Y-128111136D01*
X184622000Y-127648864D01*
X184445096Y-127221780D01*
X184118220Y-126894904D01*
X183691136Y-126718000D01*
X183228864Y-126718000D01*
X182801780Y-126894904D01*
X182474904Y-127221780D01*
X182298000Y-127648864D01*
X176622000Y-127648864D01*
X176445096Y-127221780D01*
X176118220Y-126894904D01*
X175691136Y-126718000D01*
X175228864Y-126718000D01*
X174801780Y-126894904D01*
X174474904Y-127221780D01*
X174298000Y-127648864D01*
X128577000Y-127648864D01*
X128577000Y-127585499D01*
X128451097Y-127281542D01*
X128218458Y-127048903D01*
X127914501Y-126923000D01*
X127585499Y-126923000D01*
X127281542Y-127048903D01*
X127048903Y-127281542D01*
X126923000Y-127585499D01*
X100602000Y-127585499D01*
X100602000Y-125108864D01*
X174298000Y-125108864D01*
X174298000Y-125571136D01*
X174474904Y-125998220D01*
X174801780Y-126325096D01*
X175228864Y-126502000D01*
X175691136Y-126502000D01*
X176118220Y-126325096D01*
X176445096Y-125998220D01*
X176622000Y-125571136D01*
X176622000Y-125108864D01*
X182298000Y-125108864D01*
X182298000Y-125571136D01*
X182474904Y-125998220D01*
X182801780Y-126325096D01*
X183228864Y-126502000D01*
X183691136Y-126502000D01*
X184118220Y-126325096D01*
X184445096Y-125998220D01*
X184622000Y-125571136D01*
X184622000Y-125108864D01*
X184445096Y-124681780D01*
X184118220Y-124354904D01*
X183691136Y-124178000D01*
X183228864Y-124178000D01*
X182801780Y-124354904D01*
X182474904Y-124681780D01*
X182298000Y-125108864D01*
X176622000Y-125108864D01*
X176445096Y-124681780D01*
X176118220Y-124354904D01*
X175691136Y-124178000D01*
X175228864Y-124178000D01*
X174801780Y-124354904D01*
X174474904Y-124681780D01*
X174298000Y-125108864D01*
X100602000Y-125108864D01*
X100602000Y-122568864D01*
X174298000Y-122568864D01*
X174298000Y-123031136D01*
X174474904Y-123458220D01*
X174801780Y-123785096D01*
X175228864Y-123962000D01*
X175691136Y-123962000D01*
X176118220Y-123785096D01*
X176445096Y-123458220D01*
X176622000Y-123031136D01*
X176622000Y-122568864D01*
X182298000Y-122568864D01*
X182298000Y-123031136D01*
X182474904Y-123458220D01*
X182801780Y-123785096D01*
X183228864Y-123962000D01*
X183691136Y-123962000D01*
X184118220Y-123785096D01*
X184445096Y-123458220D01*
X184622000Y-123031136D01*
X184622000Y-122568864D01*
X184445096Y-122141780D01*
X184118220Y-121814904D01*
X183691136Y-121638000D01*
X183228864Y-121638000D01*
X182801780Y-121814904D01*
X182474904Y-122141780D01*
X182298000Y-122568864D01*
X176622000Y-122568864D01*
X176445096Y-122141780D01*
X176118220Y-121814904D01*
X175691136Y-121638000D01*
X175228864Y-121638000D01*
X174801780Y-121814904D01*
X174474904Y-122141780D01*
X174298000Y-122568864D01*
X100602000Y-122568864D01*
X100602000Y-119000000D01*
X122973000Y-119000000D01*
X122973000Y-120750000D01*
X123013115Y-120951674D01*
X123127355Y-121122645D01*
X123627355Y-121622645D01*
X123798326Y-121736885D01*
X124000000Y-121777000D01*
X125250000Y-121777000D01*
X125451674Y-121736885D01*
X125622645Y-121622645D01*
X126122645Y-121122645D01*
X126236885Y-120951674D01*
X126277000Y-120750000D01*
X126277000Y-120527000D01*
X139223000Y-120527000D01*
X139223000Y-120750000D01*
X139263115Y-120951674D01*
X139377355Y-121122645D01*
X139877355Y-121622645D01*
X140048326Y-121736885D01*
X140250000Y-121777000D01*
X141500000Y-121777000D01*
X141701674Y-121736885D01*
X141872645Y-121622645D01*
X142122645Y-121372645D01*
X142236885Y-121201674D01*
X142277000Y-121000000D01*
X142277000Y-120028864D01*
X174298000Y-120028864D01*
X174298000Y-120491136D01*
X174474904Y-120918220D01*
X174801780Y-121245096D01*
X175228864Y-121422000D01*
X175691136Y-121422000D01*
X176118220Y-121245096D01*
X176445096Y-120918220D01*
X176622000Y-120491136D01*
X176622000Y-120028864D01*
X182298000Y-120028864D01*
X182298000Y-120491136D01*
X182474904Y-120918220D01*
X182801780Y-121245096D01*
X183228864Y-121422000D01*
X183691136Y-121422000D01*
X184118220Y-121245096D01*
X184445096Y-120918220D01*
X184622000Y-120491136D01*
X184622000Y-120028864D01*
X184445096Y-119601780D01*
X184118220Y-119274904D01*
X183691136Y-119098000D01*
X183228864Y-119098000D01*
X182801780Y-119274904D01*
X182474904Y-119601780D01*
X182298000Y-120028864D01*
X176622000Y-120028864D01*
X176445096Y-119601780D01*
X176118220Y-119274904D01*
X175691136Y-119098000D01*
X175228864Y-119098000D01*
X174801780Y-119274904D01*
X174474904Y-119601780D01*
X174298000Y-120028864D01*
X142277000Y-120028864D01*
X142277000Y-119968290D01*
X144756426Y-117488864D01*
X174298000Y-117488864D01*
X174298000Y-117951136D01*
X174474904Y-118378220D01*
X174801780Y-118705096D01*
X175228864Y-118882000D01*
X175691136Y-118882000D01*
X176118220Y-118705096D01*
X176445096Y-118378220D01*
X176622000Y-117951136D01*
X176622000Y-117488864D01*
X182298000Y-117488864D01*
X182298000Y-117951136D01*
X182474904Y-118378220D01*
X182801780Y-118705096D01*
X183228864Y-118882000D01*
X183691136Y-118882000D01*
X184118220Y-118705096D01*
X184445096Y-118378220D01*
X184622000Y-117951136D01*
X184622000Y-117488864D01*
X184445096Y-117061780D01*
X184118220Y-116734904D01*
X183691136Y-116558000D01*
X183228864Y-116558000D01*
X182801780Y-116734904D01*
X182474904Y-117061780D01*
X182298000Y-117488864D01*
X176622000Y-117488864D01*
X176445096Y-117061780D01*
X176118220Y-116734904D01*
X175691136Y-116558000D01*
X175228864Y-116558000D01*
X174801780Y-116734904D01*
X174474904Y-117061780D01*
X174298000Y-117488864D01*
X144756426Y-117488864D01*
X147296426Y-114948864D01*
X174298000Y-114948864D01*
X174298000Y-115411136D01*
X174474904Y-115838220D01*
X174801780Y-116165096D01*
X175228864Y-116342000D01*
X175691136Y-116342000D01*
X176118220Y-116165096D01*
X176445096Y-115838220D01*
X176622000Y-115411136D01*
X176622000Y-114948864D01*
X182298000Y-114948864D01*
X182298000Y-115411136D01*
X182474904Y-115838220D01*
X182801780Y-116165096D01*
X183228864Y-116342000D01*
X183691136Y-116342000D01*
X184118220Y-116165096D01*
X184445096Y-115838220D01*
X184622000Y-115411136D01*
X184622000Y-114948864D01*
X184445096Y-114521780D01*
X184118220Y-114194904D01*
X183691136Y-114018000D01*
X183228864Y-114018000D01*
X182801780Y-114194904D01*
X182474904Y-114521780D01*
X182298000Y-114948864D01*
X176622000Y-114948864D01*
X176445096Y-114521780D01*
X176118220Y-114194904D01*
X175691136Y-114018000D01*
X175228864Y-114018000D01*
X174801780Y-114194904D01*
X174474904Y-114521780D01*
X174298000Y-114948864D01*
X147296426Y-114948864D01*
X147372645Y-114872645D01*
X147486885Y-114701674D01*
X147527000Y-114500000D01*
X147527000Y-114035212D01*
X147577000Y-113914501D01*
X147577000Y-113585499D01*
X147513525Y-113432257D01*
X147486885Y-113298326D01*
X147372645Y-113127355D01*
X147201674Y-113013115D01*
X147067743Y-112986475D01*
X146914501Y-112923000D01*
X146585499Y-112923000D01*
X146464788Y-112973000D01*
X146000000Y-112973000D01*
X145798326Y-113013115D01*
X145627355Y-113127355D01*
X140531710Y-118223000D01*
X123750000Y-118223000D01*
X123548326Y-118263115D01*
X123377355Y-118377355D01*
X123127355Y-118627355D01*
X123013115Y-118798326D01*
X122973000Y-119000000D01*
X100602000Y-119000000D01*
X100602000Y-113857000D01*
X102430176Y-113857000D01*
X102430176Y-116143000D01*
X102471077Y-116348625D01*
X102587555Y-116522945D01*
X102761875Y-116639423D01*
X102967500Y-116680324D01*
X104872500Y-116680324D01*
X105078125Y-116639423D01*
X105252445Y-116522945D01*
X105368923Y-116348625D01*
X105388544Y-116249982D01*
X105393340Y-116257160D01*
X105882729Y-116584158D01*
X106460000Y-116698985D01*
X107037272Y-116584158D01*
X107526660Y-116257160D01*
X107853658Y-115767771D01*
X107939500Y-115336216D01*
X107939500Y-114663784D01*
X110060500Y-114663784D01*
X110060500Y-115336217D01*
X110146342Y-115767772D01*
X110473340Y-116257160D01*
X110962729Y-116584158D01*
X111540000Y-116698985D01*
X112117272Y-116584158D01*
X112606660Y-116257160D01*
X112810000Y-115952839D01*
X113013340Y-116257160D01*
X113502729Y-116584158D01*
X114080000Y-116698985D01*
X114657272Y-116584158D01*
X115146660Y-116257160D01*
X115473658Y-115767771D01*
X115559500Y-115336216D01*
X115559500Y-114663783D01*
X115473658Y-114232228D01*
X115146660Y-113742840D01*
X114657271Y-113415842D01*
X114080000Y-113301015D01*
X113502728Y-113415842D01*
X113013340Y-113742840D01*
X112810000Y-114047161D01*
X112606660Y-113742840D01*
X112117271Y-113415842D01*
X111540000Y-113301015D01*
X110962728Y-113415842D01*
X110473340Y-113742840D01*
X110146342Y-114232229D01*
X110060500Y-114663784D01*
X107939500Y-114663784D01*
X107939500Y-114663783D01*
X107853658Y-114232228D01*
X107526660Y-113742840D01*
X107037271Y-113415842D01*
X106460000Y-113301015D01*
X105882728Y-113415842D01*
X105393340Y-113742840D01*
X105388544Y-113750018D01*
X105368923Y-113651375D01*
X105252445Y-113477055D01*
X105078125Y-113360577D01*
X104872500Y-113319676D01*
X102967500Y-113319676D01*
X102761875Y-113360577D01*
X102587555Y-113477055D01*
X102471077Y-113651375D01*
X102430176Y-113857000D01*
X100602000Y-113857000D01*
X100602000Y-111250000D01*
X118412676Y-111250000D01*
X118412676Y-113250000D01*
X118453577Y-113455625D01*
X118570055Y-113629945D01*
X118744375Y-113746423D01*
X118950000Y-113787324D01*
X120550000Y-113787324D01*
X120755625Y-113746423D01*
X120929945Y-113629945D01*
X121046423Y-113455625D01*
X121087324Y-113250000D01*
X121087324Y-111919305D01*
X123503000Y-111919305D01*
X123503000Y-112580696D01*
X123579994Y-112967770D01*
X123873288Y-113406713D01*
X124312231Y-113700006D01*
X124830000Y-113802997D01*
X125347770Y-113700006D01*
X125786713Y-113406713D01*
X126080006Y-112967769D01*
X126100000Y-112867253D01*
X126119994Y-112967770D01*
X126413288Y-113406713D01*
X126852231Y-113700006D01*
X127370000Y-113802997D01*
X127887770Y-113700006D01*
X128326713Y-113406713D01*
X128620006Y-112967769D01*
X128640000Y-112867253D01*
X128659994Y-112967770D01*
X128953288Y-113406713D01*
X129392231Y-113700006D01*
X129910000Y-113802997D01*
X130427770Y-113700006D01*
X130866713Y-113406713D01*
X131160006Y-112967769D01*
X131237000Y-112580695D01*
X131237000Y-111919304D01*
X131160006Y-111532230D01*
X130866712Y-111093287D01*
X130427769Y-110799994D01*
X129910000Y-110697003D01*
X129392230Y-110799994D01*
X128953287Y-111093288D01*
X128659994Y-111532231D01*
X128640000Y-111632747D01*
X128620006Y-111532230D01*
X128326712Y-111093287D01*
X127887769Y-110799994D01*
X127370000Y-110697003D01*
X126852230Y-110799994D01*
X126413287Y-111093288D01*
X126119994Y-111532231D01*
X126100000Y-111632747D01*
X126080006Y-111532230D01*
X125786712Y-111093287D01*
X125347769Y-110799994D01*
X124830000Y-110697003D01*
X124312230Y-110799994D01*
X123873287Y-111093288D01*
X123579994Y-111532231D01*
X123503000Y-111919305D01*
X121087324Y-111919305D01*
X121087324Y-111250000D01*
X121046423Y-111044375D01*
X120929945Y-110870055D01*
X120755625Y-110753577D01*
X120550000Y-110712676D01*
X118950000Y-110712676D01*
X118744375Y-110753577D01*
X118570055Y-110870055D01*
X118453577Y-111044375D01*
X118412676Y-111250000D01*
X100602000Y-111250000D01*
X100602000Y-104500000D01*
X103613076Y-104500000D01*
X103613076Y-106500000D01*
X103653977Y-106705625D01*
X103770455Y-106879945D01*
X103944775Y-106996423D01*
X104150400Y-107037324D01*
X106150400Y-107037324D01*
X106356025Y-106996423D01*
X106530345Y-106879945D01*
X106646823Y-106705625D01*
X106687724Y-106500000D01*
X106687724Y-105196261D01*
X107585800Y-105196261D01*
X107585800Y-105803739D01*
X107818272Y-106364976D01*
X108247824Y-106794528D01*
X108809061Y-107027000D01*
X109416539Y-107027000D01*
X109977776Y-106794528D01*
X110407328Y-106364976D01*
X110639800Y-105803739D01*
X110639800Y-105196261D01*
X111548200Y-105196261D01*
X111548200Y-105803739D01*
X111780672Y-106364976D01*
X112210224Y-106794528D01*
X112771461Y-107027000D01*
X113378939Y-107027000D01*
X113940176Y-106794528D01*
X114369728Y-106364976D01*
X114602200Y-105803739D01*
X114602200Y-105196261D01*
X119473000Y-105196261D01*
X119473000Y-105803739D01*
X119705472Y-106364976D01*
X120135024Y-106794528D01*
X120696261Y-107027000D01*
X121303739Y-107027000D01*
X121864976Y-106794528D01*
X122294528Y-106364976D01*
X122527000Y-105803739D01*
X122527000Y-105196261D01*
X123435400Y-105196261D01*
X123435400Y-105803739D01*
X123667872Y-106364976D01*
X124097424Y-106794528D01*
X124658661Y-107027000D01*
X125266139Y-107027000D01*
X125827376Y-106794528D01*
X126256928Y-106364976D01*
X126489400Y-105803739D01*
X126489400Y-105196261D01*
X126256928Y-104635024D01*
X125827376Y-104205472D01*
X125266139Y-103973000D01*
X124658661Y-103973000D01*
X124097424Y-104205472D01*
X123667872Y-104635024D01*
X123435400Y-105196261D01*
X122527000Y-105196261D01*
X122294528Y-104635024D01*
X121864976Y-104205472D01*
X121303739Y-103973000D01*
X120696261Y-103973000D01*
X120135024Y-104205472D01*
X119705472Y-104635024D01*
X119473000Y-105196261D01*
X114602200Y-105196261D01*
X114369728Y-104635024D01*
X113940176Y-104205472D01*
X113378939Y-103973000D01*
X112771461Y-103973000D01*
X112210224Y-104205472D01*
X111780672Y-104635024D01*
X111548200Y-105196261D01*
X110639800Y-105196261D01*
X110407328Y-104635024D01*
X109977776Y-104205472D01*
X109416539Y-103973000D01*
X108809061Y-103973000D01*
X108247824Y-104205472D01*
X107818272Y-104635024D01*
X107585800Y-105196261D01*
X106687724Y-105196261D01*
X106687724Y-104500000D01*
X106646823Y-104294375D01*
X106530345Y-104120055D01*
X106356025Y-104003577D01*
X106150400Y-103962676D01*
X104150400Y-103962676D01*
X103944775Y-104003577D01*
X103770455Y-104120055D01*
X103653977Y-104294375D01*
X103613076Y-104500000D01*
X100602000Y-104500000D01*
X100602000Y-102335499D01*
X104273000Y-102335499D01*
X104273000Y-102664501D01*
X104398903Y-102968458D01*
X104631542Y-103201097D01*
X104935499Y-103327000D01*
X105264501Y-103327000D01*
X105568458Y-103201097D01*
X105667555Y-103102000D01*
X108273000Y-103102000D01*
X108273000Y-103264501D01*
X108398903Y-103568458D01*
X108631542Y-103801097D01*
X108935499Y-103927000D01*
X109264501Y-103927000D01*
X109568458Y-103801097D01*
X109667555Y-103702000D01*
X128173000Y-103702000D01*
X128173000Y-103914501D01*
X128259299Y-104122847D01*
X128059824Y-104205472D01*
X127630272Y-104635024D01*
X127397800Y-105196261D01*
X127397800Y-105803739D01*
X127630272Y-106364976D01*
X128059824Y-106794528D01*
X128621061Y-107027000D01*
X129228539Y-107027000D01*
X129789776Y-106794528D01*
X130219328Y-106364976D01*
X130451800Y-105803739D01*
X130451800Y-105196261D01*
X130219328Y-104635024D01*
X129986303Y-104401999D01*
X131825697Y-104401999D01*
X131592672Y-104635024D01*
X131360200Y-105196261D01*
X131360200Y-105803739D01*
X131592672Y-106364976D01*
X132022224Y-106794528D01*
X132583461Y-107027000D01*
X133190939Y-107027000D01*
X133752176Y-106794528D01*
X134181728Y-106364976D01*
X134414200Y-105803739D01*
X134414200Y-105196261D01*
X134181728Y-104635024D01*
X133948703Y-104401999D01*
X135788097Y-104401999D01*
X135555072Y-104635024D01*
X135322600Y-105196261D01*
X135322600Y-105803739D01*
X135555072Y-106364976D01*
X135984624Y-106794528D01*
X136545861Y-107027000D01*
X137153339Y-107027000D01*
X137714576Y-106794528D01*
X138144128Y-106364976D01*
X138253056Y-106102000D01*
X139317719Y-106102000D01*
X139377002Y-106113792D01*
X139436285Y-106102000D01*
X139436290Y-106102000D01*
X139611890Y-106067071D01*
X139811019Y-105934017D01*
X139844603Y-105883755D01*
X141426358Y-104302000D01*
X150644590Y-104302000D01*
X150650655Y-104311077D01*
X150613076Y-104500000D01*
X150613076Y-106500000D01*
X150653977Y-106705625D01*
X150770455Y-106879945D01*
X150944775Y-106996423D01*
X151150400Y-107037324D01*
X153150400Y-107037324D01*
X153356025Y-106996423D01*
X153530345Y-106879945D01*
X153646823Y-106705625D01*
X153687724Y-106500000D01*
X153687724Y-104500000D01*
X153646823Y-104294375D01*
X153530345Y-104120055D01*
X153411028Y-104040329D01*
X153549357Y-103902000D01*
X155044590Y-103902000D01*
X155065983Y-103934017D01*
X155265112Y-104067071D01*
X155440712Y-104102000D01*
X155440717Y-104102000D01*
X155479165Y-104109648D01*
X155247824Y-104205472D01*
X154818272Y-104635024D01*
X154585800Y-105196261D01*
X154585800Y-105803739D01*
X154818272Y-106364976D01*
X155247824Y-106794528D01*
X155809061Y-107027000D01*
X156416539Y-107027000D01*
X156977776Y-106794528D01*
X157407328Y-106364976D01*
X157639800Y-105803739D01*
X157639800Y-105196261D01*
X158548200Y-105196261D01*
X158548200Y-105803739D01*
X158780672Y-106364976D01*
X159210224Y-106794528D01*
X159771461Y-107027000D01*
X160378939Y-107027000D01*
X160940176Y-106794528D01*
X161369728Y-106364976D01*
X161602200Y-105803739D01*
X161602200Y-105196261D01*
X161417353Y-104750000D01*
X166473000Y-104750000D01*
X166473000Y-111750000D01*
X166513115Y-111951674D01*
X166627355Y-112122645D01*
X166877355Y-112372645D01*
X167048326Y-112486885D01*
X167250000Y-112527000D01*
X168750000Y-112527000D01*
X168951674Y-112486885D01*
X169068439Y-112408864D01*
X174298000Y-112408864D01*
X174298000Y-112871136D01*
X174474904Y-113298220D01*
X174801780Y-113625096D01*
X175228864Y-113802000D01*
X175691136Y-113802000D01*
X176118220Y-113625096D01*
X176445096Y-113298220D01*
X176622000Y-112871136D01*
X176622000Y-112408864D01*
X176838000Y-112408864D01*
X176838000Y-112871136D01*
X177014904Y-113298220D01*
X177341780Y-113625096D01*
X177768864Y-113802000D01*
X178231136Y-113802000D01*
X178658220Y-113625096D01*
X178985096Y-113298220D01*
X179162000Y-112871136D01*
X179162000Y-112408864D01*
X182298000Y-112408864D01*
X182298000Y-112871136D01*
X182474904Y-113298220D01*
X182801780Y-113625096D01*
X183228864Y-113802000D01*
X183691136Y-113802000D01*
X184118220Y-113625096D01*
X184445096Y-113298220D01*
X184622000Y-112871136D01*
X184622000Y-112408864D01*
X184838000Y-112408864D01*
X184838000Y-112871136D01*
X185014904Y-113298220D01*
X185341780Y-113625096D01*
X185768864Y-113802000D01*
X186231136Y-113802000D01*
X186658220Y-113625096D01*
X186985096Y-113298220D01*
X187162000Y-112871136D01*
X187162000Y-112408864D01*
X186985096Y-111981780D01*
X186658220Y-111654904D01*
X186231136Y-111478000D01*
X185768864Y-111478000D01*
X185341780Y-111654904D01*
X185014904Y-111981780D01*
X184838000Y-112408864D01*
X184622000Y-112408864D01*
X184445096Y-111981780D01*
X184118220Y-111654904D01*
X183691136Y-111478000D01*
X183228864Y-111478000D01*
X182801780Y-111654904D01*
X182474904Y-111981780D01*
X182298000Y-112408864D01*
X179162000Y-112408864D01*
X178985096Y-111981780D01*
X178658220Y-111654904D01*
X178231136Y-111478000D01*
X177768864Y-111478000D01*
X177341780Y-111654904D01*
X177014904Y-111981780D01*
X176838000Y-112408864D01*
X176622000Y-112408864D01*
X176445096Y-111981780D01*
X176118220Y-111654904D01*
X175691136Y-111478000D01*
X175228864Y-111478000D01*
X174801780Y-111654904D01*
X174474904Y-111981780D01*
X174298000Y-112408864D01*
X169068439Y-112408864D01*
X169122645Y-112372645D01*
X169372645Y-112122645D01*
X169486885Y-111951674D01*
X169527000Y-111750000D01*
X169527000Y-105196261D01*
X170435400Y-105196261D01*
X170435400Y-105803739D01*
X170667872Y-106364976D01*
X171097424Y-106794528D01*
X171658661Y-107027000D01*
X172266139Y-107027000D01*
X172827376Y-106794528D01*
X173256928Y-106364976D01*
X173489400Y-105803739D01*
X173489400Y-105196261D01*
X174397800Y-105196261D01*
X174397800Y-105803739D01*
X174630272Y-106364976D01*
X175059824Y-106794528D01*
X175621061Y-107027000D01*
X176228539Y-107027000D01*
X176789776Y-106794528D01*
X177219328Y-106364976D01*
X177451800Y-105803739D01*
X177451800Y-105196261D01*
X178360200Y-105196261D01*
X178360200Y-105803739D01*
X178592672Y-106364976D01*
X179022224Y-106794528D01*
X179583461Y-107027000D01*
X180190939Y-107027000D01*
X180752176Y-106794528D01*
X181181728Y-106364976D01*
X181414200Y-105803739D01*
X181414200Y-105196261D01*
X182322600Y-105196261D01*
X182322600Y-105803739D01*
X182555072Y-106364976D01*
X182984624Y-106794528D01*
X183545861Y-107027000D01*
X184153339Y-107027000D01*
X184714576Y-106794528D01*
X185144128Y-106364976D01*
X185376600Y-105803739D01*
X185376600Y-105196261D01*
X185144128Y-104635024D01*
X184714576Y-104205472D01*
X184153339Y-103973000D01*
X183545861Y-103973000D01*
X182984624Y-104205472D01*
X182555072Y-104635024D01*
X182322600Y-105196261D01*
X181414200Y-105196261D01*
X181181728Y-104635024D01*
X180752176Y-104205472D01*
X180190939Y-103973000D01*
X179583461Y-103973000D01*
X179022224Y-104205472D01*
X178592672Y-104635024D01*
X178360200Y-105196261D01*
X177451800Y-105196261D01*
X177219328Y-104635024D01*
X176789776Y-104205472D01*
X176228539Y-103973000D01*
X175621061Y-103973000D01*
X175059824Y-104205472D01*
X174630272Y-104635024D01*
X174397800Y-105196261D01*
X173489400Y-105196261D01*
X173256928Y-104635024D01*
X172827376Y-104205472D01*
X172266139Y-103973000D01*
X171658661Y-103973000D01*
X171097424Y-104205472D01*
X170667872Y-104635024D01*
X170435400Y-105196261D01*
X169527000Y-105196261D01*
X169527000Y-104750000D01*
X169486885Y-104548326D01*
X169372645Y-104377355D01*
X169122645Y-104127355D01*
X168951674Y-104013115D01*
X168750000Y-103973000D01*
X167250000Y-103973000D01*
X167048326Y-104013115D01*
X166877355Y-104127355D01*
X166627355Y-104377355D01*
X166513115Y-104548326D01*
X166473000Y-104750000D01*
X161417353Y-104750000D01*
X161369728Y-104635024D01*
X160940176Y-104205472D01*
X160378939Y-103973000D01*
X159771461Y-103973000D01*
X159210224Y-104205472D01*
X158780672Y-104635024D01*
X158548200Y-105196261D01*
X157639800Y-105196261D01*
X157407328Y-104635024D01*
X156977776Y-104205472D01*
X156705690Y-104092770D01*
X156834888Y-104067071D01*
X157034017Y-103934017D01*
X157067601Y-103883755D01*
X157349357Y-103602000D01*
X175144590Y-103602000D01*
X175165983Y-103634017D01*
X175365112Y-103767071D01*
X175540712Y-103802000D01*
X175540717Y-103802000D01*
X175600000Y-103813792D01*
X175659283Y-103802000D01*
X183240717Y-103802000D01*
X183300000Y-103813792D01*
X183359283Y-103802000D01*
X183359288Y-103802000D01*
X183534888Y-103767071D01*
X183734017Y-103634017D01*
X183767602Y-103583754D01*
X183924355Y-103427000D01*
X184064501Y-103427000D01*
X184368458Y-103301097D01*
X184601097Y-103068458D01*
X184727000Y-102764501D01*
X184727000Y-102435499D01*
X184601097Y-102131542D01*
X184368458Y-101898903D01*
X184064501Y-101773000D01*
X183735499Y-101773000D01*
X183431542Y-101898903D01*
X183198903Y-102131542D01*
X183073000Y-102435499D01*
X183073000Y-102575645D01*
X183050645Y-102598000D01*
X176727000Y-102598000D01*
X176727000Y-102435499D01*
X176601097Y-102131542D01*
X176368458Y-101898903D01*
X176064501Y-101773000D01*
X175735499Y-101773000D01*
X175431542Y-101898903D01*
X175332445Y-101998000D01*
X156959283Y-101998000D01*
X156900000Y-101986208D01*
X156840717Y-101998000D01*
X156840712Y-101998000D01*
X156779693Y-102010138D01*
X156568458Y-101798903D01*
X156264501Y-101673000D01*
X155935499Y-101673000D01*
X155631542Y-101798903D01*
X155532445Y-101898000D01*
X153159282Y-101898000D01*
X153099999Y-101886208D01*
X153040716Y-101898000D01*
X153040712Y-101898000D01*
X152865112Y-101932929D01*
X152865110Y-101932930D01*
X152865111Y-101932930D01*
X152827569Y-101958014D01*
X152668458Y-101798903D01*
X152364501Y-101673000D01*
X152035499Y-101673000D01*
X151731542Y-101798903D01*
X151632445Y-101898000D01*
X138809283Y-101898000D01*
X138750000Y-101886208D01*
X138690717Y-101898000D01*
X105667555Y-101898000D01*
X105568458Y-101798903D01*
X105264501Y-101673000D01*
X104935499Y-101673000D01*
X104631542Y-101798903D01*
X104398903Y-102031542D01*
X104273000Y-102335499D01*
X100602000Y-102335499D01*
X100602000Y-101602000D01*
X188398000Y-101602000D01*
X188398001Y-149398000D01*
G04 #@! TO.N,VCC*
G36*
X146873000Y-114447394D02*
X141660197Y-119660197D01*
X141632667Y-119701399D01*
X141623000Y-119750000D01*
X141623000Y-120947394D01*
X141447394Y-121123000D01*
X140302606Y-121123000D01*
X139877000Y-120697394D01*
X139877000Y-120250000D01*
X139867333Y-120201399D01*
X139839803Y-120160197D01*
X139589803Y-119910197D01*
X139548601Y-119882667D01*
X139500000Y-119873000D01*
X126000000Y-119873000D01*
X125951399Y-119882667D01*
X125910197Y-119910197D01*
X125660197Y-120160197D01*
X125632667Y-120201399D01*
X125623000Y-120250000D01*
X125623000Y-120697394D01*
X125197394Y-121123000D01*
X124052606Y-121123000D01*
X123627000Y-120697394D01*
X123627000Y-119052606D01*
X123802606Y-118877000D01*
X140750000Y-118877000D01*
X140798601Y-118867333D01*
X140839803Y-118839803D01*
X146052606Y-113627000D01*
X146873000Y-113627000D01*
X146873000Y-114447394D01*
X146873000Y-114447394D01*
G37*
X146873000Y-114447394D02*
X141660197Y-119660197D01*
X141632667Y-119701399D01*
X141623000Y-119750000D01*
X141623000Y-120947394D01*
X141447394Y-121123000D01*
X140302606Y-121123000D01*
X139877000Y-120697394D01*
X139877000Y-120250000D01*
X139867333Y-120201399D01*
X139839803Y-120160197D01*
X139589803Y-119910197D01*
X139548601Y-119882667D01*
X139500000Y-119873000D01*
X126000000Y-119873000D01*
X125951399Y-119882667D01*
X125910197Y-119910197D01*
X125660197Y-120160197D01*
X125632667Y-120201399D01*
X125623000Y-120250000D01*
X125623000Y-120697394D01*
X125197394Y-121123000D01*
X124052606Y-121123000D01*
X123627000Y-120697394D01*
X123627000Y-119052606D01*
X123802606Y-118877000D01*
X140750000Y-118877000D01*
X140798601Y-118867333D01*
X140839803Y-118839803D01*
X146052606Y-113627000D01*
X146873000Y-113627000D01*
X146873000Y-114447394D01*
G36*
X168873000Y-104802606D02*
X168873000Y-111697394D01*
X168697394Y-111873000D01*
X167302606Y-111873000D01*
X167127000Y-111697394D01*
X167127000Y-104802606D01*
X167302606Y-104627000D01*
X168697394Y-104627000D01*
X168873000Y-104802606D01*
X168873000Y-104802606D01*
G37*
X168873000Y-104802606D02*
X168873000Y-111697394D01*
X168697394Y-111873000D01*
X167302606Y-111873000D01*
X167127000Y-111697394D01*
X167127000Y-104802606D01*
X167302606Y-104627000D01*
X168697394Y-104627000D01*
X168873000Y-104802606D01*
G04 #@! TD*
M02*
