G04 #@! TF.GenerationSoftware,KiCad,Pcbnew,(5.0.2)-1*
G04 #@! TF.CreationDate,2019-04-13T07:43:48-04:00*
G04 #@! TF.ProjectId,Console,436f6e73-6f6c-4652-9e6b-696361645f70,rev?*
G04 #@! TF.SameCoordinates,Original*
G04 #@! TF.FileFunction,Soldermask,Bot*
G04 #@! TF.FilePolarity,Negative*
%FSLAX46Y46*%
G04 Gerber Fmt 4.6, Leading zero omitted, Abs format (unit mm)*
G04 Created by KiCad (PCBNEW (5.0.2)-1) date 4/13/2019 7:43:48 AM*
%MOMM*%
%LPD*%
G01*
G04 APERTURE LIST*
%ADD10C,0.600000*%
%ADD11C,0.100000*%
G04 APERTURE END LIST*
D10*
X111434047Y-133638095D02*
X112059047Y-138638095D01*
X112612619Y-135066666D01*
X114059047Y-138638095D01*
X113434047Y-133638095D01*
X114862619Y-133638095D02*
X115279285Y-136971428D01*
X115487619Y-138638095D02*
X115315000Y-138400000D01*
X115428095Y-138161904D01*
X115600714Y-138400000D01*
X115487619Y-138638095D01*
X115428095Y-138161904D01*
X117606666Y-133876190D02*
X117291190Y-133638095D01*
X116719761Y-133638095D01*
X116463809Y-133876190D01*
X116350714Y-134114285D01*
X116267380Y-134590476D01*
X116445952Y-136019047D01*
X116648333Y-136495238D01*
X116820952Y-136733333D01*
X117136428Y-136971428D01*
X117707857Y-136971428D01*
X117963809Y-136733333D01*
X118862619Y-133638095D02*
X119487619Y-138638095D01*
X120148333Y-133638095D02*
X120475714Y-136257142D01*
X120392380Y-136733333D01*
X120136428Y-136971428D01*
X119707857Y-136971428D01*
X119392380Y-136733333D01*
X119219761Y-136495238D01*
X122862619Y-133638095D02*
X123190000Y-136257142D01*
X123106666Y-136733333D01*
X122850714Y-136971428D01*
X122279285Y-136971428D01*
X121963809Y-136733333D01*
X122892380Y-133876190D02*
X122576904Y-133638095D01*
X121862619Y-133638095D01*
X121606666Y-133876190D01*
X121523333Y-134352380D01*
X121582857Y-134828571D01*
X121785238Y-135304761D01*
X122100714Y-135542857D01*
X122815000Y-135542857D01*
X123130476Y-135780952D01*
X125463809Y-133876190D02*
X125148333Y-133638095D01*
X124576904Y-133638095D01*
X124320952Y-133876190D01*
X124237619Y-134352380D01*
X124475714Y-136257142D01*
X124678095Y-136733333D01*
X124993571Y-136971428D01*
X125565000Y-136971428D01*
X125820952Y-136733333D01*
X125904285Y-136257142D01*
X125844761Y-135780952D01*
X124356666Y-135304761D01*
X127291190Y-133638095D02*
X127035238Y-133876190D01*
X126951904Y-134352380D01*
X127487619Y-138638095D01*
X130606666Y-133876190D02*
X131005476Y-133638095D01*
X131719761Y-133638095D01*
X132035238Y-133876190D01*
X132207857Y-134114285D01*
X132410238Y-134590476D01*
X132469761Y-135066666D01*
X132386428Y-135542857D01*
X132273333Y-135780952D01*
X132017380Y-136019047D01*
X131475714Y-136257142D01*
X131219761Y-136495238D01*
X131106666Y-136733333D01*
X131023333Y-137209523D01*
X131082857Y-137685714D01*
X131285238Y-138161904D01*
X131457857Y-138400000D01*
X131773333Y-138638095D01*
X132487619Y-138638095D01*
X132886428Y-138400000D01*
X135862619Y-133638095D02*
X136487619Y-138638095D01*
X137041190Y-135066666D01*
X138487619Y-138638095D01*
X137862619Y-133638095D01*
X140606666Y-133876190D02*
X140291190Y-133638095D01*
X139719761Y-133638095D01*
X139463809Y-133876190D01*
X139350714Y-134114285D01*
X139267380Y-134590476D01*
X139445952Y-136019047D01*
X139648333Y-136495238D01*
X139820952Y-136733333D01*
X140136428Y-136971428D01*
X140707857Y-136971428D01*
X140963809Y-136733333D01*
X143636428Y-134114285D02*
X143463809Y-133876190D01*
X143005476Y-133638095D01*
X142719761Y-133638095D01*
X142320952Y-133876190D01*
X142094761Y-134352380D01*
X142011428Y-134828571D01*
X141987619Y-135780952D01*
X142076904Y-136495238D01*
X142338809Y-137447619D01*
X142541190Y-137923809D01*
X142886428Y-138400000D01*
X143344761Y-138638095D01*
X143630476Y-138638095D01*
X144029285Y-138400000D01*
X144142380Y-138161904D01*
X145291190Y-133638095D02*
X145035238Y-133876190D01*
X144922142Y-134114285D01*
X144838809Y-134590476D01*
X145017380Y-136019047D01*
X145219761Y-136495238D01*
X145392380Y-136733333D01*
X145707857Y-136971428D01*
X146136428Y-136971428D01*
X146392380Y-136733333D01*
X146505476Y-136495238D01*
X146588809Y-136019047D01*
X146410238Y-134590476D01*
X146207857Y-134114285D01*
X146035238Y-133876190D01*
X145719761Y-133638095D01*
X145291190Y-133638095D01*
X147576904Y-133638095D02*
X147993571Y-136971428D01*
X147874523Y-136019047D02*
X148076904Y-136495238D01*
X148249523Y-136733333D01*
X148565000Y-136971428D01*
X148850714Y-136971428D01*
X149434047Y-133638095D02*
X149850714Y-136971428D01*
X149791190Y-136495238D02*
X149963809Y-136733333D01*
X150279285Y-136971428D01*
X150707857Y-136971428D01*
X150963809Y-136733333D01*
X151047142Y-136257142D01*
X150719761Y-133638095D01*
X151047142Y-136257142D02*
X151249523Y-136733333D01*
X151565000Y-136971428D01*
X151993571Y-136971428D01*
X152249523Y-136733333D01*
X152332857Y-136257142D01*
X152005476Y-133638095D01*
X154719761Y-133638095D02*
X155047142Y-136257142D01*
X154963809Y-136733333D01*
X154707857Y-136971428D01*
X154136428Y-136971428D01*
X153820952Y-136733333D01*
X154749523Y-133876190D02*
X154434047Y-133638095D01*
X153719761Y-133638095D01*
X153463809Y-133876190D01*
X153380476Y-134352380D01*
X153440000Y-134828571D01*
X153642380Y-135304761D01*
X153957857Y-135542857D01*
X154672142Y-135542857D01*
X154987619Y-135780952D01*
X157463809Y-133876190D02*
X157148333Y-133638095D01*
X156576904Y-133638095D01*
X156320952Y-133876190D01*
X156207857Y-134114285D01*
X156124523Y-134590476D01*
X156303095Y-136019047D01*
X156505476Y-136495238D01*
X156678095Y-136733333D01*
X156993571Y-136971428D01*
X157565000Y-136971428D01*
X157820952Y-136733333D01*
X158719761Y-133638095D02*
X159344761Y-138638095D01*
X159243571Y-135542857D02*
X159862619Y-133638095D01*
X160279285Y-136971428D02*
X158898333Y-135066666D01*
D11*
G36*
X135783558Y-147197088D02*
X135935522Y-147260033D01*
X136072284Y-147351415D01*
X136188585Y-147467716D01*
X136279967Y-147604478D01*
X136342912Y-147756442D01*
X136375000Y-147917758D01*
X136375000Y-148082242D01*
X136342912Y-148243558D01*
X136279967Y-148395522D01*
X136188585Y-148532284D01*
X136072284Y-148648585D01*
X135935522Y-148739967D01*
X135783558Y-148802912D01*
X135622242Y-148835000D01*
X135457758Y-148835000D01*
X135296442Y-148802912D01*
X135144478Y-148739967D01*
X135007716Y-148648585D01*
X134891415Y-148532284D01*
X134800033Y-148395522D01*
X134737088Y-148243558D01*
X134705000Y-148082242D01*
X134705000Y-147917758D01*
X134737088Y-147756442D01*
X134800033Y-147604478D01*
X134891415Y-147467716D01*
X135007716Y-147351415D01*
X135144478Y-147260033D01*
X135296442Y-147197088D01*
X135457758Y-147165000D01*
X135622242Y-147165000D01*
X135783558Y-147197088D01*
X135783558Y-147197088D01*
G37*
G36*
X118483558Y-147197088D02*
X118635522Y-147260033D01*
X118772284Y-147351415D01*
X118888585Y-147467716D01*
X118979967Y-147604478D01*
X119042912Y-147756442D01*
X119075000Y-147917758D01*
X119075000Y-148082242D01*
X119042912Y-148243558D01*
X118979967Y-148395522D01*
X118888585Y-148532284D01*
X118772284Y-148648585D01*
X118635522Y-148739967D01*
X118483558Y-148802912D01*
X118322242Y-148835000D01*
X118157758Y-148835000D01*
X117996442Y-148802912D01*
X117844478Y-148739967D01*
X117707716Y-148648585D01*
X117591415Y-148532284D01*
X117500033Y-148395522D01*
X117437088Y-148243558D01*
X117405000Y-148082242D01*
X117405000Y-147917758D01*
X117437088Y-147756442D01*
X117500033Y-147604478D01*
X117591415Y-147467716D01*
X117707716Y-147351415D01*
X117844478Y-147260033D01*
X117996442Y-147197088D01*
X118157758Y-147165000D01*
X118322242Y-147165000D01*
X118483558Y-147197088D01*
X118483558Y-147197088D01*
G37*
G36*
X133835000Y-148835000D02*
X132165000Y-148835000D01*
X132165000Y-147165000D01*
X133835000Y-147165000D01*
X133835000Y-148835000D01*
X133835000Y-148835000D01*
G37*
G36*
X186103558Y-147197088D02*
X186255522Y-147260033D01*
X186392284Y-147351415D01*
X186508585Y-147467716D01*
X186599967Y-147604478D01*
X186662912Y-147756442D01*
X186695000Y-147917758D01*
X186695000Y-148082242D01*
X186662912Y-148243558D01*
X186599967Y-148395522D01*
X186508585Y-148532284D01*
X186392284Y-148648585D01*
X186255522Y-148739967D01*
X186103558Y-148802912D01*
X185942242Y-148835000D01*
X185777758Y-148835000D01*
X185616442Y-148802912D01*
X185464478Y-148739967D01*
X185327716Y-148648585D01*
X185211415Y-148532284D01*
X185120033Y-148395522D01*
X185057088Y-148243558D01*
X185025000Y-148082242D01*
X185025000Y-147917758D01*
X185057088Y-147756442D01*
X185120033Y-147604478D01*
X185211415Y-147467716D01*
X185327716Y-147351415D01*
X185464478Y-147260033D01*
X185616442Y-147197088D01*
X185777758Y-147165000D01*
X185942242Y-147165000D01*
X186103558Y-147197088D01*
X186103558Y-147197088D01*
G37*
G36*
X183563558Y-147197088D02*
X183715522Y-147260033D01*
X183852284Y-147351415D01*
X183968585Y-147467716D01*
X184059967Y-147604478D01*
X184122912Y-147756442D01*
X184155000Y-147917758D01*
X184155000Y-148082242D01*
X184122912Y-148243558D01*
X184059967Y-148395522D01*
X183968585Y-148532284D01*
X183852284Y-148648585D01*
X183715522Y-148739967D01*
X183563558Y-148802912D01*
X183402242Y-148835000D01*
X183237758Y-148835000D01*
X183076442Y-148802912D01*
X182924478Y-148739967D01*
X182787716Y-148648585D01*
X182671415Y-148532284D01*
X182580033Y-148395522D01*
X182517088Y-148243558D01*
X182485000Y-148082242D01*
X182485000Y-147917758D01*
X182517088Y-147756442D01*
X182580033Y-147604478D01*
X182671415Y-147467716D01*
X182787716Y-147351415D01*
X182924478Y-147260033D01*
X183076442Y-147197088D01*
X183237758Y-147165000D01*
X183402242Y-147165000D01*
X183563558Y-147197088D01*
X183563558Y-147197088D01*
G37*
G36*
X181023558Y-147197088D02*
X181175522Y-147260033D01*
X181312284Y-147351415D01*
X181428585Y-147467716D01*
X181519967Y-147604478D01*
X181582912Y-147756442D01*
X181615000Y-147917758D01*
X181615000Y-148082242D01*
X181582912Y-148243558D01*
X181519967Y-148395522D01*
X181428585Y-148532284D01*
X181312284Y-148648585D01*
X181175522Y-148739967D01*
X181023558Y-148802912D01*
X180862242Y-148835000D01*
X180697758Y-148835000D01*
X180536442Y-148802912D01*
X180384478Y-148739967D01*
X180247716Y-148648585D01*
X180131415Y-148532284D01*
X180040033Y-148395522D01*
X179977088Y-148243558D01*
X179945000Y-148082242D01*
X179945000Y-147917758D01*
X179977088Y-147756442D01*
X180040033Y-147604478D01*
X180131415Y-147467716D01*
X180247716Y-147351415D01*
X180384478Y-147260033D01*
X180536442Y-147197088D01*
X180697758Y-147165000D01*
X180862242Y-147165000D01*
X181023558Y-147197088D01*
X181023558Y-147197088D01*
G37*
G36*
X178483558Y-147197088D02*
X178635522Y-147260033D01*
X178772284Y-147351415D01*
X178888585Y-147467716D01*
X178979967Y-147604478D01*
X179042912Y-147756442D01*
X179075000Y-147917758D01*
X179075000Y-148082242D01*
X179042912Y-148243558D01*
X178979967Y-148395522D01*
X178888585Y-148532284D01*
X178772284Y-148648585D01*
X178635522Y-148739967D01*
X178483558Y-148802912D01*
X178322242Y-148835000D01*
X178157758Y-148835000D01*
X177996442Y-148802912D01*
X177844478Y-148739967D01*
X177707716Y-148648585D01*
X177591415Y-148532284D01*
X177500033Y-148395522D01*
X177437088Y-148243558D01*
X177405000Y-148082242D01*
X177405000Y-147917758D01*
X177437088Y-147756442D01*
X177500033Y-147604478D01*
X177591415Y-147467716D01*
X177707716Y-147351415D01*
X177844478Y-147260033D01*
X177996442Y-147197088D01*
X178157758Y-147165000D01*
X178322242Y-147165000D01*
X178483558Y-147197088D01*
X178483558Y-147197088D01*
G37*
G36*
X175943558Y-147197088D02*
X176095522Y-147260033D01*
X176232284Y-147351415D01*
X176348585Y-147467716D01*
X176439967Y-147604478D01*
X176502912Y-147756442D01*
X176535000Y-147917758D01*
X176535000Y-148082242D01*
X176502912Y-148243558D01*
X176439967Y-148395522D01*
X176348585Y-148532284D01*
X176232284Y-148648585D01*
X176095522Y-148739967D01*
X175943558Y-148802912D01*
X175782242Y-148835000D01*
X175617758Y-148835000D01*
X175456442Y-148802912D01*
X175304478Y-148739967D01*
X175167716Y-148648585D01*
X175051415Y-148532284D01*
X174960033Y-148395522D01*
X174897088Y-148243558D01*
X174865000Y-148082242D01*
X174865000Y-147917758D01*
X174897088Y-147756442D01*
X174960033Y-147604478D01*
X175051415Y-147467716D01*
X175167716Y-147351415D01*
X175304478Y-147260033D01*
X175456442Y-147197088D01*
X175617758Y-147165000D01*
X175782242Y-147165000D01*
X175943558Y-147197088D01*
X175943558Y-147197088D01*
G37*
G36*
X173403558Y-147197088D02*
X173555522Y-147260033D01*
X173692284Y-147351415D01*
X173808585Y-147467716D01*
X173899967Y-147604478D01*
X173962912Y-147756442D01*
X173995000Y-147917758D01*
X173995000Y-148082242D01*
X173962912Y-148243558D01*
X173899967Y-148395522D01*
X173808585Y-148532284D01*
X173692284Y-148648585D01*
X173555522Y-148739967D01*
X173403558Y-148802912D01*
X173242242Y-148835000D01*
X173077758Y-148835000D01*
X172916442Y-148802912D01*
X172764478Y-148739967D01*
X172627716Y-148648585D01*
X172511415Y-148532284D01*
X172420033Y-148395522D01*
X172357088Y-148243558D01*
X172325000Y-148082242D01*
X172325000Y-147917758D01*
X172357088Y-147756442D01*
X172420033Y-147604478D01*
X172511415Y-147467716D01*
X172627716Y-147351415D01*
X172764478Y-147260033D01*
X172916442Y-147197088D01*
X173077758Y-147165000D01*
X173242242Y-147165000D01*
X173403558Y-147197088D01*
X173403558Y-147197088D01*
G37*
G36*
X170863558Y-147197088D02*
X171015522Y-147260033D01*
X171152284Y-147351415D01*
X171268585Y-147467716D01*
X171359967Y-147604478D01*
X171422912Y-147756442D01*
X171455000Y-147917758D01*
X171455000Y-148082242D01*
X171422912Y-148243558D01*
X171359967Y-148395522D01*
X171268585Y-148532284D01*
X171152284Y-148648585D01*
X171015522Y-148739967D01*
X170863558Y-148802912D01*
X170702242Y-148835000D01*
X170537758Y-148835000D01*
X170376442Y-148802912D01*
X170224478Y-148739967D01*
X170087716Y-148648585D01*
X169971415Y-148532284D01*
X169880033Y-148395522D01*
X169817088Y-148243558D01*
X169785000Y-148082242D01*
X169785000Y-147917758D01*
X169817088Y-147756442D01*
X169880033Y-147604478D01*
X169971415Y-147467716D01*
X170087716Y-147351415D01*
X170224478Y-147260033D01*
X170376442Y-147197088D01*
X170537758Y-147165000D01*
X170702242Y-147165000D01*
X170863558Y-147197088D01*
X170863558Y-147197088D01*
G37*
G36*
X168323558Y-147197088D02*
X168475522Y-147260033D01*
X168612284Y-147351415D01*
X168728585Y-147467716D01*
X168819967Y-147604478D01*
X168882912Y-147756442D01*
X168915000Y-147917758D01*
X168915000Y-148082242D01*
X168882912Y-148243558D01*
X168819967Y-148395522D01*
X168728585Y-148532284D01*
X168612284Y-148648585D01*
X168475522Y-148739967D01*
X168323558Y-148802912D01*
X168162242Y-148835000D01*
X167997758Y-148835000D01*
X167836442Y-148802912D01*
X167684478Y-148739967D01*
X167547716Y-148648585D01*
X167431415Y-148532284D01*
X167340033Y-148395522D01*
X167277088Y-148243558D01*
X167245000Y-148082242D01*
X167245000Y-147917758D01*
X167277088Y-147756442D01*
X167340033Y-147604478D01*
X167431415Y-147467716D01*
X167547716Y-147351415D01*
X167684478Y-147260033D01*
X167836442Y-147197088D01*
X167997758Y-147165000D01*
X168162242Y-147165000D01*
X168323558Y-147197088D01*
X168323558Y-147197088D01*
G37*
G36*
X165783558Y-147197088D02*
X165935522Y-147260033D01*
X166072284Y-147351415D01*
X166188585Y-147467716D01*
X166279967Y-147604478D01*
X166342912Y-147756442D01*
X166375000Y-147917758D01*
X166375000Y-148082242D01*
X166342912Y-148243558D01*
X166279967Y-148395522D01*
X166188585Y-148532284D01*
X166072284Y-148648585D01*
X165935522Y-148739967D01*
X165783558Y-148802912D01*
X165622242Y-148835000D01*
X165457758Y-148835000D01*
X165296442Y-148802912D01*
X165144478Y-148739967D01*
X165007716Y-148648585D01*
X164891415Y-148532284D01*
X164800033Y-148395522D01*
X164737088Y-148243558D01*
X164705000Y-148082242D01*
X164705000Y-147917758D01*
X164737088Y-147756442D01*
X164800033Y-147604478D01*
X164891415Y-147467716D01*
X165007716Y-147351415D01*
X165144478Y-147260033D01*
X165296442Y-147197088D01*
X165457758Y-147165000D01*
X165622242Y-147165000D01*
X165783558Y-147197088D01*
X165783558Y-147197088D01*
G37*
G36*
X163835000Y-148835000D02*
X162165000Y-148835000D01*
X162165000Y-147165000D01*
X163835000Y-147165000D01*
X163835000Y-148835000D01*
X163835000Y-148835000D01*
G37*
G36*
X126103558Y-147197088D02*
X126255522Y-147260033D01*
X126392284Y-147351415D01*
X126508585Y-147467716D01*
X126599967Y-147604478D01*
X126662912Y-147756442D01*
X126695000Y-147917758D01*
X126695000Y-148082242D01*
X126662912Y-148243558D01*
X126599967Y-148395522D01*
X126508585Y-148532284D01*
X126392284Y-148648585D01*
X126255522Y-148739967D01*
X126103558Y-148802912D01*
X125942242Y-148835000D01*
X125777758Y-148835000D01*
X125616442Y-148802912D01*
X125464478Y-148739967D01*
X125327716Y-148648585D01*
X125211415Y-148532284D01*
X125120033Y-148395522D01*
X125057088Y-148243558D01*
X125025000Y-148082242D01*
X125025000Y-147917758D01*
X125057088Y-147756442D01*
X125120033Y-147604478D01*
X125211415Y-147467716D01*
X125327716Y-147351415D01*
X125464478Y-147260033D01*
X125616442Y-147197088D01*
X125777758Y-147165000D01*
X125942242Y-147165000D01*
X126103558Y-147197088D01*
X126103558Y-147197088D01*
G37*
G36*
X123563558Y-147197088D02*
X123715522Y-147260033D01*
X123852284Y-147351415D01*
X123968585Y-147467716D01*
X124059967Y-147604478D01*
X124122912Y-147756442D01*
X124155000Y-147917758D01*
X124155000Y-148082242D01*
X124122912Y-148243558D01*
X124059967Y-148395522D01*
X123968585Y-148532284D01*
X123852284Y-148648585D01*
X123715522Y-148739967D01*
X123563558Y-148802912D01*
X123402242Y-148835000D01*
X123237758Y-148835000D01*
X123076442Y-148802912D01*
X122924478Y-148739967D01*
X122787716Y-148648585D01*
X122671415Y-148532284D01*
X122580033Y-148395522D01*
X122517088Y-148243558D01*
X122485000Y-148082242D01*
X122485000Y-147917758D01*
X122517088Y-147756442D01*
X122580033Y-147604478D01*
X122671415Y-147467716D01*
X122787716Y-147351415D01*
X122924478Y-147260033D01*
X123076442Y-147197088D01*
X123237758Y-147165000D01*
X123402242Y-147165000D01*
X123563558Y-147197088D01*
X123563558Y-147197088D01*
G37*
G36*
X121023558Y-147197088D02*
X121175522Y-147260033D01*
X121312284Y-147351415D01*
X121428585Y-147467716D01*
X121519967Y-147604478D01*
X121582912Y-147756442D01*
X121615000Y-147917758D01*
X121615000Y-148082242D01*
X121582912Y-148243558D01*
X121519967Y-148395522D01*
X121428585Y-148532284D01*
X121312284Y-148648585D01*
X121175522Y-148739967D01*
X121023558Y-148802912D01*
X120862242Y-148835000D01*
X120697758Y-148835000D01*
X120536442Y-148802912D01*
X120384478Y-148739967D01*
X120247716Y-148648585D01*
X120131415Y-148532284D01*
X120040033Y-148395522D01*
X119977088Y-148243558D01*
X119945000Y-148082242D01*
X119945000Y-147917758D01*
X119977088Y-147756442D01*
X120040033Y-147604478D01*
X120131415Y-147467716D01*
X120247716Y-147351415D01*
X120384478Y-147260033D01*
X120536442Y-147197088D01*
X120697758Y-147165000D01*
X120862242Y-147165000D01*
X121023558Y-147197088D01*
X121023558Y-147197088D01*
G37*
G36*
X115943558Y-147197088D02*
X116095522Y-147260033D01*
X116232284Y-147351415D01*
X116348585Y-147467716D01*
X116439967Y-147604478D01*
X116502912Y-147756442D01*
X116535000Y-147917758D01*
X116535000Y-148082242D01*
X116502912Y-148243558D01*
X116439967Y-148395522D01*
X116348585Y-148532284D01*
X116232284Y-148648585D01*
X116095522Y-148739967D01*
X115943558Y-148802912D01*
X115782242Y-148835000D01*
X115617758Y-148835000D01*
X115456442Y-148802912D01*
X115304478Y-148739967D01*
X115167716Y-148648585D01*
X115051415Y-148532284D01*
X114960033Y-148395522D01*
X114897088Y-148243558D01*
X114865000Y-148082242D01*
X114865000Y-147917758D01*
X114897088Y-147756442D01*
X114960033Y-147604478D01*
X115051415Y-147467716D01*
X115167716Y-147351415D01*
X115304478Y-147260033D01*
X115456442Y-147197088D01*
X115617758Y-147165000D01*
X115782242Y-147165000D01*
X115943558Y-147197088D01*
X115943558Y-147197088D01*
G37*
G36*
X153563558Y-147197088D02*
X153715522Y-147260033D01*
X153852284Y-147351415D01*
X153968585Y-147467716D01*
X154059967Y-147604478D01*
X154122912Y-147756442D01*
X154155000Y-147917758D01*
X154155000Y-148082242D01*
X154122912Y-148243558D01*
X154059967Y-148395522D01*
X153968585Y-148532284D01*
X153852284Y-148648585D01*
X153715522Y-148739967D01*
X153563558Y-148802912D01*
X153402242Y-148835000D01*
X153237758Y-148835000D01*
X153076442Y-148802912D01*
X152924478Y-148739967D01*
X152787716Y-148648585D01*
X152671415Y-148532284D01*
X152580033Y-148395522D01*
X152517088Y-148243558D01*
X152485000Y-148082242D01*
X152485000Y-147917758D01*
X152517088Y-147756442D01*
X152580033Y-147604478D01*
X152671415Y-147467716D01*
X152787716Y-147351415D01*
X152924478Y-147260033D01*
X153076442Y-147197088D01*
X153237758Y-147165000D01*
X153402242Y-147165000D01*
X153563558Y-147197088D01*
X153563558Y-147197088D01*
G37*
G36*
X138323558Y-147197088D02*
X138475522Y-147260033D01*
X138612284Y-147351415D01*
X138728585Y-147467716D01*
X138819967Y-147604478D01*
X138882912Y-147756442D01*
X138915000Y-147917758D01*
X138915000Y-148082242D01*
X138882912Y-148243558D01*
X138819967Y-148395522D01*
X138728585Y-148532284D01*
X138612284Y-148648585D01*
X138475522Y-148739967D01*
X138323558Y-148802912D01*
X138162242Y-148835000D01*
X137997758Y-148835000D01*
X137836442Y-148802912D01*
X137684478Y-148739967D01*
X137547716Y-148648585D01*
X137431415Y-148532284D01*
X137340033Y-148395522D01*
X137277088Y-148243558D01*
X137245000Y-148082242D01*
X137245000Y-147917758D01*
X137277088Y-147756442D01*
X137340033Y-147604478D01*
X137431415Y-147467716D01*
X137547716Y-147351415D01*
X137684478Y-147260033D01*
X137836442Y-147197088D01*
X137997758Y-147165000D01*
X138162242Y-147165000D01*
X138323558Y-147197088D01*
X138323558Y-147197088D01*
G37*
G36*
X140863558Y-147197088D02*
X141015522Y-147260033D01*
X141152284Y-147351415D01*
X141268585Y-147467716D01*
X141359967Y-147604478D01*
X141422912Y-147756442D01*
X141455000Y-147917758D01*
X141455000Y-148082242D01*
X141422912Y-148243558D01*
X141359967Y-148395522D01*
X141268585Y-148532284D01*
X141152284Y-148648585D01*
X141015522Y-148739967D01*
X140863558Y-148802912D01*
X140702242Y-148835000D01*
X140537758Y-148835000D01*
X140376442Y-148802912D01*
X140224478Y-148739967D01*
X140087716Y-148648585D01*
X139971415Y-148532284D01*
X139880033Y-148395522D01*
X139817088Y-148243558D01*
X139785000Y-148082242D01*
X139785000Y-147917758D01*
X139817088Y-147756442D01*
X139880033Y-147604478D01*
X139971415Y-147467716D01*
X140087716Y-147351415D01*
X140224478Y-147260033D01*
X140376442Y-147197088D01*
X140537758Y-147165000D01*
X140702242Y-147165000D01*
X140863558Y-147197088D01*
X140863558Y-147197088D01*
G37*
G36*
X143403558Y-147197088D02*
X143555522Y-147260033D01*
X143692284Y-147351415D01*
X143808585Y-147467716D01*
X143899967Y-147604478D01*
X143962912Y-147756442D01*
X143995000Y-147917758D01*
X143995000Y-148082242D01*
X143962912Y-148243558D01*
X143899967Y-148395522D01*
X143808585Y-148532284D01*
X143692284Y-148648585D01*
X143555522Y-148739967D01*
X143403558Y-148802912D01*
X143242242Y-148835000D01*
X143077758Y-148835000D01*
X142916442Y-148802912D01*
X142764478Y-148739967D01*
X142627716Y-148648585D01*
X142511415Y-148532284D01*
X142420033Y-148395522D01*
X142357088Y-148243558D01*
X142325000Y-148082242D01*
X142325000Y-147917758D01*
X142357088Y-147756442D01*
X142420033Y-147604478D01*
X142511415Y-147467716D01*
X142627716Y-147351415D01*
X142764478Y-147260033D01*
X142916442Y-147197088D01*
X143077758Y-147165000D01*
X143242242Y-147165000D01*
X143403558Y-147197088D01*
X143403558Y-147197088D01*
G37*
G36*
X145943558Y-147197088D02*
X146095522Y-147260033D01*
X146232284Y-147351415D01*
X146348585Y-147467716D01*
X146439967Y-147604478D01*
X146502912Y-147756442D01*
X146535000Y-147917758D01*
X146535000Y-148082242D01*
X146502912Y-148243558D01*
X146439967Y-148395522D01*
X146348585Y-148532284D01*
X146232284Y-148648585D01*
X146095522Y-148739967D01*
X145943558Y-148802912D01*
X145782242Y-148835000D01*
X145617758Y-148835000D01*
X145456442Y-148802912D01*
X145304478Y-148739967D01*
X145167716Y-148648585D01*
X145051415Y-148532284D01*
X144960033Y-148395522D01*
X144897088Y-148243558D01*
X144865000Y-148082242D01*
X144865000Y-147917758D01*
X144897088Y-147756442D01*
X144960033Y-147604478D01*
X145051415Y-147467716D01*
X145167716Y-147351415D01*
X145304478Y-147260033D01*
X145456442Y-147197088D01*
X145617758Y-147165000D01*
X145782242Y-147165000D01*
X145943558Y-147197088D01*
X145943558Y-147197088D01*
G37*
G36*
X148483558Y-147197088D02*
X148635522Y-147260033D01*
X148772284Y-147351415D01*
X148888585Y-147467716D01*
X148979967Y-147604478D01*
X149042912Y-147756442D01*
X149075000Y-147917758D01*
X149075000Y-148082242D01*
X149042912Y-148243558D01*
X148979967Y-148395522D01*
X148888585Y-148532284D01*
X148772284Y-148648585D01*
X148635522Y-148739967D01*
X148483558Y-148802912D01*
X148322242Y-148835000D01*
X148157758Y-148835000D01*
X147996442Y-148802912D01*
X147844478Y-148739967D01*
X147707716Y-148648585D01*
X147591415Y-148532284D01*
X147500033Y-148395522D01*
X147437088Y-148243558D01*
X147405000Y-148082242D01*
X147405000Y-147917758D01*
X147437088Y-147756442D01*
X147500033Y-147604478D01*
X147591415Y-147467716D01*
X147707716Y-147351415D01*
X147844478Y-147260033D01*
X147996442Y-147197088D01*
X148157758Y-147165000D01*
X148322242Y-147165000D01*
X148483558Y-147197088D01*
X148483558Y-147197088D01*
G37*
G36*
X151023558Y-147197088D02*
X151175522Y-147260033D01*
X151312284Y-147351415D01*
X151428585Y-147467716D01*
X151519967Y-147604478D01*
X151582912Y-147756442D01*
X151615000Y-147917758D01*
X151615000Y-148082242D01*
X151582912Y-148243558D01*
X151519967Y-148395522D01*
X151428585Y-148532284D01*
X151312284Y-148648585D01*
X151175522Y-148739967D01*
X151023558Y-148802912D01*
X150862242Y-148835000D01*
X150697758Y-148835000D01*
X150536442Y-148802912D01*
X150384478Y-148739967D01*
X150247716Y-148648585D01*
X150131415Y-148532284D01*
X150040033Y-148395522D01*
X149977088Y-148243558D01*
X149945000Y-148082242D01*
X149945000Y-147917758D01*
X149977088Y-147756442D01*
X150040033Y-147604478D01*
X150131415Y-147467716D01*
X150247716Y-147351415D01*
X150384478Y-147260033D01*
X150536442Y-147197088D01*
X150697758Y-147165000D01*
X150862242Y-147165000D01*
X151023558Y-147197088D01*
X151023558Y-147197088D01*
G37*
G36*
X156103558Y-147197088D02*
X156255522Y-147260033D01*
X156392284Y-147351415D01*
X156508585Y-147467716D01*
X156599967Y-147604478D01*
X156662912Y-147756442D01*
X156695000Y-147917758D01*
X156695000Y-148082242D01*
X156662912Y-148243558D01*
X156599967Y-148395522D01*
X156508585Y-148532284D01*
X156392284Y-148648585D01*
X156255522Y-148739967D01*
X156103558Y-148802912D01*
X155942242Y-148835000D01*
X155777758Y-148835000D01*
X155616442Y-148802912D01*
X155464478Y-148739967D01*
X155327716Y-148648585D01*
X155211415Y-148532284D01*
X155120033Y-148395522D01*
X155057088Y-148243558D01*
X155025000Y-148082242D01*
X155025000Y-147917758D01*
X155057088Y-147756442D01*
X155120033Y-147604478D01*
X155211415Y-147467716D01*
X155327716Y-147351415D01*
X155464478Y-147260033D01*
X155616442Y-147197088D01*
X155777758Y-147165000D01*
X155942242Y-147165000D01*
X156103558Y-147197088D01*
X156103558Y-147197088D01*
G37*
G36*
X103835000Y-148835000D02*
X102165000Y-148835000D01*
X102165000Y-147165000D01*
X103835000Y-147165000D01*
X103835000Y-148835000D01*
X103835000Y-148835000D01*
G37*
G36*
X105783558Y-147197088D02*
X105935522Y-147260033D01*
X106072284Y-147351415D01*
X106188585Y-147467716D01*
X106279967Y-147604478D01*
X106342912Y-147756442D01*
X106375000Y-147917758D01*
X106375000Y-148082242D01*
X106342912Y-148243558D01*
X106279967Y-148395522D01*
X106188585Y-148532284D01*
X106072284Y-148648585D01*
X105935522Y-148739967D01*
X105783558Y-148802912D01*
X105622242Y-148835000D01*
X105457758Y-148835000D01*
X105296442Y-148802912D01*
X105144478Y-148739967D01*
X105007716Y-148648585D01*
X104891415Y-148532284D01*
X104800033Y-148395522D01*
X104737088Y-148243558D01*
X104705000Y-148082242D01*
X104705000Y-147917758D01*
X104737088Y-147756442D01*
X104800033Y-147604478D01*
X104891415Y-147467716D01*
X105007716Y-147351415D01*
X105144478Y-147260033D01*
X105296442Y-147197088D01*
X105457758Y-147165000D01*
X105622242Y-147165000D01*
X105783558Y-147197088D01*
X105783558Y-147197088D01*
G37*
G36*
X108323558Y-147197088D02*
X108475522Y-147260033D01*
X108612284Y-147351415D01*
X108728585Y-147467716D01*
X108819967Y-147604478D01*
X108882912Y-147756442D01*
X108915000Y-147917758D01*
X108915000Y-148082242D01*
X108882912Y-148243558D01*
X108819967Y-148395522D01*
X108728585Y-148532284D01*
X108612284Y-148648585D01*
X108475522Y-148739967D01*
X108323558Y-148802912D01*
X108162242Y-148835000D01*
X107997758Y-148835000D01*
X107836442Y-148802912D01*
X107684478Y-148739967D01*
X107547716Y-148648585D01*
X107431415Y-148532284D01*
X107340033Y-148395522D01*
X107277088Y-148243558D01*
X107245000Y-148082242D01*
X107245000Y-147917758D01*
X107277088Y-147756442D01*
X107340033Y-147604478D01*
X107431415Y-147467716D01*
X107547716Y-147351415D01*
X107684478Y-147260033D01*
X107836442Y-147197088D01*
X107997758Y-147165000D01*
X108162242Y-147165000D01*
X108323558Y-147197088D01*
X108323558Y-147197088D01*
G37*
G36*
X110863558Y-147197088D02*
X111015522Y-147260033D01*
X111152284Y-147351415D01*
X111268585Y-147467716D01*
X111359967Y-147604478D01*
X111422912Y-147756442D01*
X111455000Y-147917758D01*
X111455000Y-148082242D01*
X111422912Y-148243558D01*
X111359967Y-148395522D01*
X111268585Y-148532284D01*
X111152284Y-148648585D01*
X111015522Y-148739967D01*
X110863558Y-148802912D01*
X110702242Y-148835000D01*
X110537758Y-148835000D01*
X110376442Y-148802912D01*
X110224478Y-148739967D01*
X110087716Y-148648585D01*
X109971415Y-148532284D01*
X109880033Y-148395522D01*
X109817088Y-148243558D01*
X109785000Y-148082242D01*
X109785000Y-147917758D01*
X109817088Y-147756442D01*
X109880033Y-147604478D01*
X109971415Y-147467716D01*
X110087716Y-147351415D01*
X110224478Y-147260033D01*
X110376442Y-147197088D01*
X110537758Y-147165000D01*
X110702242Y-147165000D01*
X110863558Y-147197088D01*
X110863558Y-147197088D01*
G37*
G36*
X113403558Y-147197088D02*
X113555522Y-147260033D01*
X113692284Y-147351415D01*
X113808585Y-147467716D01*
X113899967Y-147604478D01*
X113962912Y-147756442D01*
X113995000Y-147917758D01*
X113995000Y-148082242D01*
X113962912Y-148243558D01*
X113899967Y-148395522D01*
X113808585Y-148532284D01*
X113692284Y-148648585D01*
X113555522Y-148739967D01*
X113403558Y-148802912D01*
X113242242Y-148835000D01*
X113077758Y-148835000D01*
X112916442Y-148802912D01*
X112764478Y-148739967D01*
X112627716Y-148648585D01*
X112511415Y-148532284D01*
X112420033Y-148395522D01*
X112357088Y-148243558D01*
X112325000Y-148082242D01*
X112325000Y-147917758D01*
X112357088Y-147756442D01*
X112420033Y-147604478D01*
X112511415Y-147467716D01*
X112627716Y-147351415D01*
X112764478Y-147260033D01*
X112916442Y-147197088D01*
X113077758Y-147165000D01*
X113242242Y-147165000D01*
X113403558Y-147197088D01*
X113403558Y-147197088D01*
G37*
G36*
X143403558Y-144657088D02*
X143555522Y-144720033D01*
X143692284Y-144811415D01*
X143808585Y-144927716D01*
X143899967Y-145064478D01*
X143962912Y-145216442D01*
X143995000Y-145377758D01*
X143995000Y-145542242D01*
X143962912Y-145703558D01*
X143899967Y-145855522D01*
X143808585Y-145992284D01*
X143692284Y-146108585D01*
X143555522Y-146199967D01*
X143403558Y-146262912D01*
X143242242Y-146295000D01*
X143077758Y-146295000D01*
X142916442Y-146262912D01*
X142764478Y-146199967D01*
X142627716Y-146108585D01*
X142511415Y-145992284D01*
X142420033Y-145855522D01*
X142357088Y-145703558D01*
X142325000Y-145542242D01*
X142325000Y-145377758D01*
X142357088Y-145216442D01*
X142420033Y-145064478D01*
X142511415Y-144927716D01*
X142627716Y-144811415D01*
X142764478Y-144720033D01*
X142916442Y-144657088D01*
X143077758Y-144625000D01*
X143242242Y-144625000D01*
X143403558Y-144657088D01*
X143403558Y-144657088D01*
G37*
G36*
X110863558Y-144657088D02*
X111015522Y-144720033D01*
X111152284Y-144811415D01*
X111268585Y-144927716D01*
X111359967Y-145064478D01*
X111422912Y-145216442D01*
X111455000Y-145377758D01*
X111455000Y-145542242D01*
X111422912Y-145703558D01*
X111359967Y-145855522D01*
X111268585Y-145992284D01*
X111152284Y-146108585D01*
X111015522Y-146199967D01*
X110863558Y-146262912D01*
X110702242Y-146295000D01*
X110537758Y-146295000D01*
X110376442Y-146262912D01*
X110224478Y-146199967D01*
X110087716Y-146108585D01*
X109971415Y-145992284D01*
X109880033Y-145855522D01*
X109817088Y-145703558D01*
X109785000Y-145542242D01*
X109785000Y-145377758D01*
X109817088Y-145216442D01*
X109880033Y-145064478D01*
X109971415Y-144927716D01*
X110087716Y-144811415D01*
X110224478Y-144720033D01*
X110376442Y-144657088D01*
X110537758Y-144625000D01*
X110702242Y-144625000D01*
X110863558Y-144657088D01*
X110863558Y-144657088D01*
G37*
G36*
X113403558Y-144657088D02*
X113555522Y-144720033D01*
X113692284Y-144811415D01*
X113808585Y-144927716D01*
X113899967Y-145064478D01*
X113962912Y-145216442D01*
X113995000Y-145377758D01*
X113995000Y-145542242D01*
X113962912Y-145703558D01*
X113899967Y-145855522D01*
X113808585Y-145992284D01*
X113692284Y-146108585D01*
X113555522Y-146199967D01*
X113403558Y-146262912D01*
X113242242Y-146295000D01*
X113077758Y-146295000D01*
X112916442Y-146262912D01*
X112764478Y-146199967D01*
X112627716Y-146108585D01*
X112511415Y-145992284D01*
X112420033Y-145855522D01*
X112357088Y-145703558D01*
X112325000Y-145542242D01*
X112325000Y-145377758D01*
X112357088Y-145216442D01*
X112420033Y-145064478D01*
X112511415Y-144927716D01*
X112627716Y-144811415D01*
X112764478Y-144720033D01*
X112916442Y-144657088D01*
X113077758Y-144625000D01*
X113242242Y-144625000D01*
X113403558Y-144657088D01*
X113403558Y-144657088D01*
G37*
G36*
X156103558Y-144657088D02*
X156255522Y-144720033D01*
X156392284Y-144811415D01*
X156508585Y-144927716D01*
X156599967Y-145064478D01*
X156662912Y-145216442D01*
X156695000Y-145377758D01*
X156695000Y-145542242D01*
X156662912Y-145703558D01*
X156599967Y-145855522D01*
X156508585Y-145992284D01*
X156392284Y-146108585D01*
X156255522Y-146199967D01*
X156103558Y-146262912D01*
X155942242Y-146295000D01*
X155777758Y-146295000D01*
X155616442Y-146262912D01*
X155464478Y-146199967D01*
X155327716Y-146108585D01*
X155211415Y-145992284D01*
X155120033Y-145855522D01*
X155057088Y-145703558D01*
X155025000Y-145542242D01*
X155025000Y-145377758D01*
X155057088Y-145216442D01*
X155120033Y-145064478D01*
X155211415Y-144927716D01*
X155327716Y-144811415D01*
X155464478Y-144720033D01*
X155616442Y-144657088D01*
X155777758Y-144625000D01*
X155942242Y-144625000D01*
X156103558Y-144657088D01*
X156103558Y-144657088D01*
G37*
G36*
X153563558Y-144657088D02*
X153715522Y-144720033D01*
X153852284Y-144811415D01*
X153968585Y-144927716D01*
X154059967Y-145064478D01*
X154122912Y-145216442D01*
X154155000Y-145377758D01*
X154155000Y-145542242D01*
X154122912Y-145703558D01*
X154059967Y-145855522D01*
X153968585Y-145992284D01*
X153852284Y-146108585D01*
X153715522Y-146199967D01*
X153563558Y-146262912D01*
X153402242Y-146295000D01*
X153237758Y-146295000D01*
X153076442Y-146262912D01*
X152924478Y-146199967D01*
X152787716Y-146108585D01*
X152671415Y-145992284D01*
X152580033Y-145855522D01*
X152517088Y-145703558D01*
X152485000Y-145542242D01*
X152485000Y-145377758D01*
X152517088Y-145216442D01*
X152580033Y-145064478D01*
X152671415Y-144927716D01*
X152787716Y-144811415D01*
X152924478Y-144720033D01*
X153076442Y-144657088D01*
X153237758Y-144625000D01*
X153402242Y-144625000D01*
X153563558Y-144657088D01*
X153563558Y-144657088D01*
G37*
G36*
X115943558Y-144657088D02*
X116095522Y-144720033D01*
X116232284Y-144811415D01*
X116348585Y-144927716D01*
X116439967Y-145064478D01*
X116502912Y-145216442D01*
X116535000Y-145377758D01*
X116535000Y-145542242D01*
X116502912Y-145703558D01*
X116439967Y-145855522D01*
X116348585Y-145992284D01*
X116232284Y-146108585D01*
X116095522Y-146199967D01*
X115943558Y-146262912D01*
X115782242Y-146295000D01*
X115617758Y-146295000D01*
X115456442Y-146262912D01*
X115304478Y-146199967D01*
X115167716Y-146108585D01*
X115051415Y-145992284D01*
X114960033Y-145855522D01*
X114897088Y-145703558D01*
X114865000Y-145542242D01*
X114865000Y-145377758D01*
X114897088Y-145216442D01*
X114960033Y-145064478D01*
X115051415Y-144927716D01*
X115167716Y-144811415D01*
X115304478Y-144720033D01*
X115456442Y-144657088D01*
X115617758Y-144625000D01*
X115782242Y-144625000D01*
X115943558Y-144657088D01*
X115943558Y-144657088D01*
G37*
G36*
X133243558Y-144657088D02*
X133395522Y-144720033D01*
X133532284Y-144811415D01*
X133648585Y-144927716D01*
X133739967Y-145064478D01*
X133802912Y-145216442D01*
X133835000Y-145377758D01*
X133835000Y-145542242D01*
X133802912Y-145703558D01*
X133739967Y-145855522D01*
X133648585Y-145992284D01*
X133532284Y-146108585D01*
X133395522Y-146199967D01*
X133243558Y-146262912D01*
X133082242Y-146295000D01*
X132917758Y-146295000D01*
X132756442Y-146262912D01*
X132604478Y-146199967D01*
X132467716Y-146108585D01*
X132351415Y-145992284D01*
X132260033Y-145855522D01*
X132197088Y-145703558D01*
X132165000Y-145542242D01*
X132165000Y-145377758D01*
X132197088Y-145216442D01*
X132260033Y-145064478D01*
X132351415Y-144927716D01*
X132467716Y-144811415D01*
X132604478Y-144720033D01*
X132756442Y-144657088D01*
X132917758Y-144625000D01*
X133082242Y-144625000D01*
X133243558Y-144657088D01*
X133243558Y-144657088D01*
G37*
G36*
X165783558Y-144657088D02*
X165935522Y-144720033D01*
X166072284Y-144811415D01*
X166188585Y-144927716D01*
X166279967Y-145064478D01*
X166342912Y-145216442D01*
X166375000Y-145377758D01*
X166375000Y-145542242D01*
X166342912Y-145703558D01*
X166279967Y-145855522D01*
X166188585Y-145992284D01*
X166072284Y-146108585D01*
X165935522Y-146199967D01*
X165783558Y-146262912D01*
X165622242Y-146295000D01*
X165457758Y-146295000D01*
X165296442Y-146262912D01*
X165144478Y-146199967D01*
X165007716Y-146108585D01*
X164891415Y-145992284D01*
X164800033Y-145855522D01*
X164737088Y-145703558D01*
X164705000Y-145542242D01*
X164705000Y-145377758D01*
X164737088Y-145216442D01*
X164800033Y-145064478D01*
X164891415Y-144927716D01*
X165007716Y-144811415D01*
X165144478Y-144720033D01*
X165296442Y-144657088D01*
X165457758Y-144625000D01*
X165622242Y-144625000D01*
X165783558Y-144657088D01*
X165783558Y-144657088D01*
G37*
G36*
X151023558Y-144657088D02*
X151175522Y-144720033D01*
X151312284Y-144811415D01*
X151428585Y-144927716D01*
X151519967Y-145064478D01*
X151582912Y-145216442D01*
X151615000Y-145377758D01*
X151615000Y-145542242D01*
X151582912Y-145703558D01*
X151519967Y-145855522D01*
X151428585Y-145992284D01*
X151312284Y-146108585D01*
X151175522Y-146199967D01*
X151023558Y-146262912D01*
X150862242Y-146295000D01*
X150697758Y-146295000D01*
X150536442Y-146262912D01*
X150384478Y-146199967D01*
X150247716Y-146108585D01*
X150131415Y-145992284D01*
X150040033Y-145855522D01*
X149977088Y-145703558D01*
X149945000Y-145542242D01*
X149945000Y-145377758D01*
X149977088Y-145216442D01*
X150040033Y-145064478D01*
X150131415Y-144927716D01*
X150247716Y-144811415D01*
X150384478Y-144720033D01*
X150536442Y-144657088D01*
X150697758Y-144625000D01*
X150862242Y-144625000D01*
X151023558Y-144657088D01*
X151023558Y-144657088D01*
G37*
G36*
X121023558Y-144657088D02*
X121175522Y-144720033D01*
X121312284Y-144811415D01*
X121428585Y-144927716D01*
X121519967Y-145064478D01*
X121582912Y-145216442D01*
X121615000Y-145377758D01*
X121615000Y-145542242D01*
X121582912Y-145703558D01*
X121519967Y-145855522D01*
X121428585Y-145992284D01*
X121312284Y-146108585D01*
X121175522Y-146199967D01*
X121023558Y-146262912D01*
X120862242Y-146295000D01*
X120697758Y-146295000D01*
X120536442Y-146262912D01*
X120384478Y-146199967D01*
X120247716Y-146108585D01*
X120131415Y-145992284D01*
X120040033Y-145855522D01*
X119977088Y-145703558D01*
X119945000Y-145542242D01*
X119945000Y-145377758D01*
X119977088Y-145216442D01*
X120040033Y-145064478D01*
X120131415Y-144927716D01*
X120247716Y-144811415D01*
X120384478Y-144720033D01*
X120536442Y-144657088D01*
X120697758Y-144625000D01*
X120862242Y-144625000D01*
X121023558Y-144657088D01*
X121023558Y-144657088D01*
G37*
G36*
X123563558Y-144657088D02*
X123715522Y-144720033D01*
X123852284Y-144811415D01*
X123968585Y-144927716D01*
X124059967Y-145064478D01*
X124122912Y-145216442D01*
X124155000Y-145377758D01*
X124155000Y-145542242D01*
X124122912Y-145703558D01*
X124059967Y-145855522D01*
X123968585Y-145992284D01*
X123852284Y-146108585D01*
X123715522Y-146199967D01*
X123563558Y-146262912D01*
X123402242Y-146295000D01*
X123237758Y-146295000D01*
X123076442Y-146262912D01*
X122924478Y-146199967D01*
X122787716Y-146108585D01*
X122671415Y-145992284D01*
X122580033Y-145855522D01*
X122517088Y-145703558D01*
X122485000Y-145542242D01*
X122485000Y-145377758D01*
X122517088Y-145216442D01*
X122580033Y-145064478D01*
X122671415Y-144927716D01*
X122787716Y-144811415D01*
X122924478Y-144720033D01*
X123076442Y-144657088D01*
X123237758Y-144625000D01*
X123402242Y-144625000D01*
X123563558Y-144657088D01*
X123563558Y-144657088D01*
G37*
G36*
X148483558Y-144657088D02*
X148635522Y-144720033D01*
X148772284Y-144811415D01*
X148888585Y-144927716D01*
X148979967Y-145064478D01*
X149042912Y-145216442D01*
X149075000Y-145377758D01*
X149075000Y-145542242D01*
X149042912Y-145703558D01*
X148979967Y-145855522D01*
X148888585Y-145992284D01*
X148772284Y-146108585D01*
X148635522Y-146199967D01*
X148483558Y-146262912D01*
X148322242Y-146295000D01*
X148157758Y-146295000D01*
X147996442Y-146262912D01*
X147844478Y-146199967D01*
X147707716Y-146108585D01*
X147591415Y-145992284D01*
X147500033Y-145855522D01*
X147437088Y-145703558D01*
X147405000Y-145542242D01*
X147405000Y-145377758D01*
X147437088Y-145216442D01*
X147500033Y-145064478D01*
X147591415Y-144927716D01*
X147707716Y-144811415D01*
X147844478Y-144720033D01*
X147996442Y-144657088D01*
X148157758Y-144625000D01*
X148322242Y-144625000D01*
X148483558Y-144657088D01*
X148483558Y-144657088D01*
G37*
G36*
X126103558Y-144657088D02*
X126255522Y-144720033D01*
X126392284Y-144811415D01*
X126508585Y-144927716D01*
X126599967Y-145064478D01*
X126662912Y-145216442D01*
X126695000Y-145377758D01*
X126695000Y-145542242D01*
X126662912Y-145703558D01*
X126599967Y-145855522D01*
X126508585Y-145992284D01*
X126392284Y-146108585D01*
X126255522Y-146199967D01*
X126103558Y-146262912D01*
X125942242Y-146295000D01*
X125777758Y-146295000D01*
X125616442Y-146262912D01*
X125464478Y-146199967D01*
X125327716Y-146108585D01*
X125211415Y-145992284D01*
X125120033Y-145855522D01*
X125057088Y-145703558D01*
X125025000Y-145542242D01*
X125025000Y-145377758D01*
X125057088Y-145216442D01*
X125120033Y-145064478D01*
X125211415Y-144927716D01*
X125327716Y-144811415D01*
X125464478Y-144720033D01*
X125616442Y-144657088D01*
X125777758Y-144625000D01*
X125942242Y-144625000D01*
X126103558Y-144657088D01*
X126103558Y-144657088D01*
G37*
G36*
X103243558Y-144657088D02*
X103395522Y-144720033D01*
X103532284Y-144811415D01*
X103648585Y-144927716D01*
X103739967Y-145064478D01*
X103802912Y-145216442D01*
X103835000Y-145377758D01*
X103835000Y-145542242D01*
X103802912Y-145703558D01*
X103739967Y-145855522D01*
X103648585Y-145992284D01*
X103532284Y-146108585D01*
X103395522Y-146199967D01*
X103243558Y-146262912D01*
X103082242Y-146295000D01*
X102917758Y-146295000D01*
X102756442Y-146262912D01*
X102604478Y-146199967D01*
X102467716Y-146108585D01*
X102351415Y-145992284D01*
X102260033Y-145855522D01*
X102197088Y-145703558D01*
X102165000Y-145542242D01*
X102165000Y-145377758D01*
X102197088Y-145216442D01*
X102260033Y-145064478D01*
X102351415Y-144927716D01*
X102467716Y-144811415D01*
X102604478Y-144720033D01*
X102756442Y-144657088D01*
X102917758Y-144625000D01*
X103082242Y-144625000D01*
X103243558Y-144657088D01*
X103243558Y-144657088D01*
G37*
G36*
X145943558Y-144657088D02*
X146095522Y-144720033D01*
X146232284Y-144811415D01*
X146348585Y-144927716D01*
X146439967Y-145064478D01*
X146502912Y-145216442D01*
X146535000Y-145377758D01*
X146535000Y-145542242D01*
X146502912Y-145703558D01*
X146439967Y-145855522D01*
X146348585Y-145992284D01*
X146232284Y-146108585D01*
X146095522Y-146199967D01*
X145943558Y-146262912D01*
X145782242Y-146295000D01*
X145617758Y-146295000D01*
X145456442Y-146262912D01*
X145304478Y-146199967D01*
X145167716Y-146108585D01*
X145051415Y-145992284D01*
X144960033Y-145855522D01*
X144897088Y-145703558D01*
X144865000Y-145542242D01*
X144865000Y-145377758D01*
X144897088Y-145216442D01*
X144960033Y-145064478D01*
X145051415Y-144927716D01*
X145167716Y-144811415D01*
X145304478Y-144720033D01*
X145456442Y-144657088D01*
X145617758Y-144625000D01*
X145782242Y-144625000D01*
X145943558Y-144657088D01*
X145943558Y-144657088D01*
G37*
G36*
X105783558Y-144657088D02*
X105935522Y-144720033D01*
X106072284Y-144811415D01*
X106188585Y-144927716D01*
X106279967Y-145064478D01*
X106342912Y-145216442D01*
X106375000Y-145377758D01*
X106375000Y-145542242D01*
X106342912Y-145703558D01*
X106279967Y-145855522D01*
X106188585Y-145992284D01*
X106072284Y-146108585D01*
X105935522Y-146199967D01*
X105783558Y-146262912D01*
X105622242Y-146295000D01*
X105457758Y-146295000D01*
X105296442Y-146262912D01*
X105144478Y-146199967D01*
X105007716Y-146108585D01*
X104891415Y-145992284D01*
X104800033Y-145855522D01*
X104737088Y-145703558D01*
X104705000Y-145542242D01*
X104705000Y-145377758D01*
X104737088Y-145216442D01*
X104800033Y-145064478D01*
X104891415Y-144927716D01*
X105007716Y-144811415D01*
X105144478Y-144720033D01*
X105296442Y-144657088D01*
X105457758Y-144625000D01*
X105622242Y-144625000D01*
X105783558Y-144657088D01*
X105783558Y-144657088D01*
G37*
G36*
X183563558Y-144657088D02*
X183715522Y-144720033D01*
X183852284Y-144811415D01*
X183968585Y-144927716D01*
X184059967Y-145064478D01*
X184122912Y-145216442D01*
X184155000Y-145377758D01*
X184155000Y-145542242D01*
X184122912Y-145703558D01*
X184059967Y-145855522D01*
X183968585Y-145992284D01*
X183852284Y-146108585D01*
X183715522Y-146199967D01*
X183563558Y-146262912D01*
X183402242Y-146295000D01*
X183237758Y-146295000D01*
X183076442Y-146262912D01*
X182924478Y-146199967D01*
X182787716Y-146108585D01*
X182671415Y-145992284D01*
X182580033Y-145855522D01*
X182517088Y-145703558D01*
X182485000Y-145542242D01*
X182485000Y-145377758D01*
X182517088Y-145216442D01*
X182580033Y-145064478D01*
X182671415Y-144927716D01*
X182787716Y-144811415D01*
X182924478Y-144720033D01*
X183076442Y-144657088D01*
X183237758Y-144625000D01*
X183402242Y-144625000D01*
X183563558Y-144657088D01*
X183563558Y-144657088D01*
G37*
G36*
X181023558Y-144657088D02*
X181175522Y-144720033D01*
X181312284Y-144811415D01*
X181428585Y-144927716D01*
X181519967Y-145064478D01*
X181582912Y-145216442D01*
X181615000Y-145377758D01*
X181615000Y-145542242D01*
X181582912Y-145703558D01*
X181519967Y-145855522D01*
X181428585Y-145992284D01*
X181312284Y-146108585D01*
X181175522Y-146199967D01*
X181023558Y-146262912D01*
X180862242Y-146295000D01*
X180697758Y-146295000D01*
X180536442Y-146262912D01*
X180384478Y-146199967D01*
X180247716Y-146108585D01*
X180131415Y-145992284D01*
X180040033Y-145855522D01*
X179977088Y-145703558D01*
X179945000Y-145542242D01*
X179945000Y-145377758D01*
X179977088Y-145216442D01*
X180040033Y-145064478D01*
X180131415Y-144927716D01*
X180247716Y-144811415D01*
X180384478Y-144720033D01*
X180536442Y-144657088D01*
X180697758Y-144625000D01*
X180862242Y-144625000D01*
X181023558Y-144657088D01*
X181023558Y-144657088D01*
G37*
G36*
X138323558Y-144657088D02*
X138475522Y-144720033D01*
X138612284Y-144811415D01*
X138728585Y-144927716D01*
X138819967Y-145064478D01*
X138882912Y-145216442D01*
X138915000Y-145377758D01*
X138915000Y-145542242D01*
X138882912Y-145703558D01*
X138819967Y-145855522D01*
X138728585Y-145992284D01*
X138612284Y-146108585D01*
X138475522Y-146199967D01*
X138323558Y-146262912D01*
X138162242Y-146295000D01*
X137997758Y-146295000D01*
X137836442Y-146262912D01*
X137684478Y-146199967D01*
X137547716Y-146108585D01*
X137431415Y-145992284D01*
X137340033Y-145855522D01*
X137277088Y-145703558D01*
X137245000Y-145542242D01*
X137245000Y-145377758D01*
X137277088Y-145216442D01*
X137340033Y-145064478D01*
X137431415Y-144927716D01*
X137547716Y-144811415D01*
X137684478Y-144720033D01*
X137836442Y-144657088D01*
X137997758Y-144625000D01*
X138162242Y-144625000D01*
X138323558Y-144657088D01*
X138323558Y-144657088D01*
G37*
G36*
X178483558Y-144657088D02*
X178635522Y-144720033D01*
X178772284Y-144811415D01*
X178888585Y-144927716D01*
X178979967Y-145064478D01*
X179042912Y-145216442D01*
X179075000Y-145377758D01*
X179075000Y-145542242D01*
X179042912Y-145703558D01*
X178979967Y-145855522D01*
X178888585Y-145992284D01*
X178772284Y-146108585D01*
X178635522Y-146199967D01*
X178483558Y-146262912D01*
X178322242Y-146295000D01*
X178157758Y-146295000D01*
X177996442Y-146262912D01*
X177844478Y-146199967D01*
X177707716Y-146108585D01*
X177591415Y-145992284D01*
X177500033Y-145855522D01*
X177437088Y-145703558D01*
X177405000Y-145542242D01*
X177405000Y-145377758D01*
X177437088Y-145216442D01*
X177500033Y-145064478D01*
X177591415Y-144927716D01*
X177707716Y-144811415D01*
X177844478Y-144720033D01*
X177996442Y-144657088D01*
X178157758Y-144625000D01*
X178322242Y-144625000D01*
X178483558Y-144657088D01*
X178483558Y-144657088D01*
G37*
G36*
X163243558Y-144657088D02*
X163395522Y-144720033D01*
X163532284Y-144811415D01*
X163648585Y-144927716D01*
X163739967Y-145064478D01*
X163802912Y-145216442D01*
X163835000Y-145377758D01*
X163835000Y-145542242D01*
X163802912Y-145703558D01*
X163739967Y-145855522D01*
X163648585Y-145992284D01*
X163532284Y-146108585D01*
X163395522Y-146199967D01*
X163243558Y-146262912D01*
X163082242Y-146295000D01*
X162917758Y-146295000D01*
X162756442Y-146262912D01*
X162604478Y-146199967D01*
X162467716Y-146108585D01*
X162351415Y-145992284D01*
X162260033Y-145855522D01*
X162197088Y-145703558D01*
X162165000Y-145542242D01*
X162165000Y-145377758D01*
X162197088Y-145216442D01*
X162260033Y-145064478D01*
X162351415Y-144927716D01*
X162467716Y-144811415D01*
X162604478Y-144720033D01*
X162756442Y-144657088D01*
X162917758Y-144625000D01*
X163082242Y-144625000D01*
X163243558Y-144657088D01*
X163243558Y-144657088D01*
G37*
G36*
X175943558Y-144657088D02*
X176095522Y-144720033D01*
X176232284Y-144811415D01*
X176348585Y-144927716D01*
X176439967Y-145064478D01*
X176502912Y-145216442D01*
X176535000Y-145377758D01*
X176535000Y-145542242D01*
X176502912Y-145703558D01*
X176439967Y-145855522D01*
X176348585Y-145992284D01*
X176232284Y-146108585D01*
X176095522Y-146199967D01*
X175943558Y-146262912D01*
X175782242Y-146295000D01*
X175617758Y-146295000D01*
X175456442Y-146262912D01*
X175304478Y-146199967D01*
X175167716Y-146108585D01*
X175051415Y-145992284D01*
X174960033Y-145855522D01*
X174897088Y-145703558D01*
X174865000Y-145542242D01*
X174865000Y-145377758D01*
X174897088Y-145216442D01*
X174960033Y-145064478D01*
X175051415Y-144927716D01*
X175167716Y-144811415D01*
X175304478Y-144720033D01*
X175456442Y-144657088D01*
X175617758Y-144625000D01*
X175782242Y-144625000D01*
X175943558Y-144657088D01*
X175943558Y-144657088D01*
G37*
G36*
X140863558Y-144657088D02*
X141015522Y-144720033D01*
X141152284Y-144811415D01*
X141268585Y-144927716D01*
X141359967Y-145064478D01*
X141422912Y-145216442D01*
X141455000Y-145377758D01*
X141455000Y-145542242D01*
X141422912Y-145703558D01*
X141359967Y-145855522D01*
X141268585Y-145992284D01*
X141152284Y-146108585D01*
X141015522Y-146199967D01*
X140863558Y-146262912D01*
X140702242Y-146295000D01*
X140537758Y-146295000D01*
X140376442Y-146262912D01*
X140224478Y-146199967D01*
X140087716Y-146108585D01*
X139971415Y-145992284D01*
X139880033Y-145855522D01*
X139817088Y-145703558D01*
X139785000Y-145542242D01*
X139785000Y-145377758D01*
X139817088Y-145216442D01*
X139880033Y-145064478D01*
X139971415Y-144927716D01*
X140087716Y-144811415D01*
X140224478Y-144720033D01*
X140376442Y-144657088D01*
X140537758Y-144625000D01*
X140702242Y-144625000D01*
X140863558Y-144657088D01*
X140863558Y-144657088D01*
G37*
G36*
X135783558Y-144657088D02*
X135935522Y-144720033D01*
X136072284Y-144811415D01*
X136188585Y-144927716D01*
X136279967Y-145064478D01*
X136342912Y-145216442D01*
X136375000Y-145377758D01*
X136375000Y-145542242D01*
X136342912Y-145703558D01*
X136279967Y-145855522D01*
X136188585Y-145992284D01*
X136072284Y-146108585D01*
X135935522Y-146199967D01*
X135783558Y-146262912D01*
X135622242Y-146295000D01*
X135457758Y-146295000D01*
X135296442Y-146262912D01*
X135144478Y-146199967D01*
X135007716Y-146108585D01*
X134891415Y-145992284D01*
X134800033Y-145855522D01*
X134737088Y-145703558D01*
X134705000Y-145542242D01*
X134705000Y-145377758D01*
X134737088Y-145216442D01*
X134800033Y-145064478D01*
X134891415Y-144927716D01*
X135007716Y-144811415D01*
X135144478Y-144720033D01*
X135296442Y-144657088D01*
X135457758Y-144625000D01*
X135622242Y-144625000D01*
X135783558Y-144657088D01*
X135783558Y-144657088D01*
G37*
G36*
X173403558Y-144657088D02*
X173555522Y-144720033D01*
X173692284Y-144811415D01*
X173808585Y-144927716D01*
X173899967Y-145064478D01*
X173962912Y-145216442D01*
X173995000Y-145377758D01*
X173995000Y-145542242D01*
X173962912Y-145703558D01*
X173899967Y-145855522D01*
X173808585Y-145992284D01*
X173692284Y-146108585D01*
X173555522Y-146199967D01*
X173403558Y-146262912D01*
X173242242Y-146295000D01*
X173077758Y-146295000D01*
X172916442Y-146262912D01*
X172764478Y-146199967D01*
X172627716Y-146108585D01*
X172511415Y-145992284D01*
X172420033Y-145855522D01*
X172357088Y-145703558D01*
X172325000Y-145542242D01*
X172325000Y-145377758D01*
X172357088Y-145216442D01*
X172420033Y-145064478D01*
X172511415Y-144927716D01*
X172627716Y-144811415D01*
X172764478Y-144720033D01*
X172916442Y-144657088D01*
X173077758Y-144625000D01*
X173242242Y-144625000D01*
X173403558Y-144657088D01*
X173403558Y-144657088D01*
G37*
G36*
X186103558Y-144657088D02*
X186255522Y-144720033D01*
X186392284Y-144811415D01*
X186508585Y-144927716D01*
X186599967Y-145064478D01*
X186662912Y-145216442D01*
X186695000Y-145377758D01*
X186695000Y-145542242D01*
X186662912Y-145703558D01*
X186599967Y-145855522D01*
X186508585Y-145992284D01*
X186392284Y-146108585D01*
X186255522Y-146199967D01*
X186103558Y-146262912D01*
X185942242Y-146295000D01*
X185777758Y-146295000D01*
X185616442Y-146262912D01*
X185464478Y-146199967D01*
X185327716Y-146108585D01*
X185211415Y-145992284D01*
X185120033Y-145855522D01*
X185057088Y-145703558D01*
X185025000Y-145542242D01*
X185025000Y-145377758D01*
X185057088Y-145216442D01*
X185120033Y-145064478D01*
X185211415Y-144927716D01*
X185327716Y-144811415D01*
X185464478Y-144720033D01*
X185616442Y-144657088D01*
X185777758Y-144625000D01*
X185942242Y-144625000D01*
X186103558Y-144657088D01*
X186103558Y-144657088D01*
G37*
G36*
X170863558Y-144657088D02*
X171015522Y-144720033D01*
X171152284Y-144811415D01*
X171268585Y-144927716D01*
X171359967Y-145064478D01*
X171422912Y-145216442D01*
X171455000Y-145377758D01*
X171455000Y-145542242D01*
X171422912Y-145703558D01*
X171359967Y-145855522D01*
X171268585Y-145992284D01*
X171152284Y-146108585D01*
X171015522Y-146199967D01*
X170863558Y-146262912D01*
X170702242Y-146295000D01*
X170537758Y-146295000D01*
X170376442Y-146262912D01*
X170224478Y-146199967D01*
X170087716Y-146108585D01*
X169971415Y-145992284D01*
X169880033Y-145855522D01*
X169817088Y-145703558D01*
X169785000Y-145542242D01*
X169785000Y-145377758D01*
X169817088Y-145216442D01*
X169880033Y-145064478D01*
X169971415Y-144927716D01*
X170087716Y-144811415D01*
X170224478Y-144720033D01*
X170376442Y-144657088D01*
X170537758Y-144625000D01*
X170702242Y-144625000D01*
X170863558Y-144657088D01*
X170863558Y-144657088D01*
G37*
G36*
X168323558Y-144657088D02*
X168475522Y-144720033D01*
X168612284Y-144811415D01*
X168728585Y-144927716D01*
X168819967Y-145064478D01*
X168882912Y-145216442D01*
X168915000Y-145377758D01*
X168915000Y-145542242D01*
X168882912Y-145703558D01*
X168819967Y-145855522D01*
X168728585Y-145992284D01*
X168612284Y-146108585D01*
X168475522Y-146199967D01*
X168323558Y-146262912D01*
X168162242Y-146295000D01*
X167997758Y-146295000D01*
X167836442Y-146262912D01*
X167684478Y-146199967D01*
X167547716Y-146108585D01*
X167431415Y-145992284D01*
X167340033Y-145855522D01*
X167277088Y-145703558D01*
X167245000Y-145542242D01*
X167245000Y-145377758D01*
X167277088Y-145216442D01*
X167340033Y-145064478D01*
X167431415Y-144927716D01*
X167547716Y-144811415D01*
X167684478Y-144720033D01*
X167836442Y-144657088D01*
X167997758Y-144625000D01*
X168162242Y-144625000D01*
X168323558Y-144657088D01*
X168323558Y-144657088D01*
G37*
G36*
X118483558Y-144657088D02*
X118635522Y-144720033D01*
X118772284Y-144811415D01*
X118888585Y-144927716D01*
X118979967Y-145064478D01*
X119042912Y-145216442D01*
X119075000Y-145377758D01*
X119075000Y-145542242D01*
X119042912Y-145703558D01*
X118979967Y-145855522D01*
X118888585Y-145992284D01*
X118772284Y-146108585D01*
X118635522Y-146199967D01*
X118483558Y-146262912D01*
X118322242Y-146295000D01*
X118157758Y-146295000D01*
X117996442Y-146262912D01*
X117844478Y-146199967D01*
X117707716Y-146108585D01*
X117591415Y-145992284D01*
X117500033Y-145855522D01*
X117437088Y-145703558D01*
X117405000Y-145542242D01*
X117405000Y-145377758D01*
X117437088Y-145216442D01*
X117500033Y-145064478D01*
X117591415Y-144927716D01*
X117707716Y-144811415D01*
X117844478Y-144720033D01*
X117996442Y-144657088D01*
X118157758Y-144625000D01*
X118322242Y-144625000D01*
X118483558Y-144657088D01*
X118483558Y-144657088D01*
G37*
G36*
X108323558Y-144657088D02*
X108475522Y-144720033D01*
X108612284Y-144811415D01*
X108728585Y-144927716D01*
X108819967Y-145064478D01*
X108882912Y-145216442D01*
X108915000Y-145377758D01*
X108915000Y-145542242D01*
X108882912Y-145703558D01*
X108819967Y-145855522D01*
X108728585Y-145992284D01*
X108612284Y-146108585D01*
X108475522Y-146199967D01*
X108323558Y-146262912D01*
X108162242Y-146295000D01*
X107997758Y-146295000D01*
X107836442Y-146262912D01*
X107684478Y-146199967D01*
X107547716Y-146108585D01*
X107431415Y-145992284D01*
X107340033Y-145855522D01*
X107277088Y-145703558D01*
X107245000Y-145542242D01*
X107245000Y-145377758D01*
X107277088Y-145216442D01*
X107340033Y-145064478D01*
X107431415Y-144927716D01*
X107547716Y-144811415D01*
X107684478Y-144720033D01*
X107836442Y-144657088D01*
X107997758Y-144625000D01*
X108162242Y-144625000D01*
X108323558Y-144657088D01*
X108323558Y-144657088D01*
G37*
G36*
X183703558Y-134697088D02*
X183855522Y-134760033D01*
X183992284Y-134851415D01*
X184108585Y-134967716D01*
X184199967Y-135104478D01*
X184262912Y-135256442D01*
X184295000Y-135417758D01*
X184295000Y-135582242D01*
X184262912Y-135743558D01*
X184199967Y-135895522D01*
X184108585Y-136032284D01*
X183992284Y-136148585D01*
X183855522Y-136239967D01*
X183703558Y-136302912D01*
X183542242Y-136335000D01*
X183377758Y-136335000D01*
X183216442Y-136302912D01*
X183064478Y-136239967D01*
X182927716Y-136148585D01*
X182811415Y-136032284D01*
X182720033Y-135895522D01*
X182657088Y-135743558D01*
X182625000Y-135582242D01*
X182625000Y-135417758D01*
X182657088Y-135256442D01*
X182720033Y-135104478D01*
X182811415Y-134967716D01*
X182927716Y-134851415D01*
X183064478Y-134760033D01*
X183216442Y-134697088D01*
X183377758Y-134665000D01*
X183542242Y-134665000D01*
X183703558Y-134697088D01*
X183703558Y-134697088D01*
G37*
G36*
X186835000Y-136335000D02*
X185165000Y-136335000D01*
X185165000Y-134665000D01*
X186835000Y-134665000D01*
X186835000Y-136335000D01*
X186835000Y-136335000D01*
G37*
G36*
X178835000Y-136335000D02*
X177165000Y-136335000D01*
X177165000Y-134665000D01*
X178835000Y-134665000D01*
X178835000Y-136335000D01*
X178835000Y-136335000D01*
G37*
G36*
X175703558Y-134697088D02*
X175855522Y-134760033D01*
X175992284Y-134851415D01*
X176108585Y-134967716D01*
X176199967Y-135104478D01*
X176262912Y-135256442D01*
X176295000Y-135417758D01*
X176295000Y-135582242D01*
X176262912Y-135743558D01*
X176199967Y-135895522D01*
X176108585Y-136032284D01*
X175992284Y-136148585D01*
X175855522Y-136239967D01*
X175703558Y-136302912D01*
X175542242Y-136335000D01*
X175377758Y-136335000D01*
X175216442Y-136302912D01*
X175064478Y-136239967D01*
X174927716Y-136148585D01*
X174811415Y-136032284D01*
X174720033Y-135895522D01*
X174657088Y-135743558D01*
X174625000Y-135582242D01*
X174625000Y-135417758D01*
X174657088Y-135256442D01*
X174720033Y-135104478D01*
X174811415Y-134967716D01*
X174927716Y-134851415D01*
X175064478Y-134760033D01*
X175216442Y-134697088D01*
X175377758Y-134665000D01*
X175542242Y-134665000D01*
X175703558Y-134697088D01*
X175703558Y-134697088D01*
G37*
G36*
X178243558Y-132157088D02*
X178395522Y-132220033D01*
X178532284Y-132311415D01*
X178648585Y-132427716D01*
X178739967Y-132564478D01*
X178802912Y-132716442D01*
X178835000Y-132877758D01*
X178835000Y-133042242D01*
X178802912Y-133203558D01*
X178739967Y-133355522D01*
X178648585Y-133492284D01*
X178532284Y-133608585D01*
X178395522Y-133699967D01*
X178243558Y-133762912D01*
X178082242Y-133795000D01*
X177917758Y-133795000D01*
X177756442Y-133762912D01*
X177604478Y-133699967D01*
X177467716Y-133608585D01*
X177351415Y-133492284D01*
X177260033Y-133355522D01*
X177197088Y-133203558D01*
X177165000Y-133042242D01*
X177165000Y-132877758D01*
X177197088Y-132716442D01*
X177260033Y-132564478D01*
X177351415Y-132427716D01*
X177467716Y-132311415D01*
X177604478Y-132220033D01*
X177756442Y-132157088D01*
X177917758Y-132125000D01*
X178082242Y-132125000D01*
X178243558Y-132157088D01*
X178243558Y-132157088D01*
G37*
G36*
X186243558Y-132157088D02*
X186395522Y-132220033D01*
X186532284Y-132311415D01*
X186648585Y-132427716D01*
X186739967Y-132564478D01*
X186802912Y-132716442D01*
X186835000Y-132877758D01*
X186835000Y-133042242D01*
X186802912Y-133203558D01*
X186739967Y-133355522D01*
X186648585Y-133492284D01*
X186532284Y-133608585D01*
X186395522Y-133699967D01*
X186243558Y-133762912D01*
X186082242Y-133795000D01*
X185917758Y-133795000D01*
X185756442Y-133762912D01*
X185604478Y-133699967D01*
X185467716Y-133608585D01*
X185351415Y-133492284D01*
X185260033Y-133355522D01*
X185197088Y-133203558D01*
X185165000Y-133042242D01*
X185165000Y-132877758D01*
X185197088Y-132716442D01*
X185260033Y-132564478D01*
X185351415Y-132427716D01*
X185467716Y-132311415D01*
X185604478Y-132220033D01*
X185756442Y-132157088D01*
X185917758Y-132125000D01*
X186082242Y-132125000D01*
X186243558Y-132157088D01*
X186243558Y-132157088D01*
G37*
G36*
X183703558Y-132157088D02*
X183855522Y-132220033D01*
X183992284Y-132311415D01*
X184108585Y-132427716D01*
X184199967Y-132564478D01*
X184262912Y-132716442D01*
X184295000Y-132877758D01*
X184295000Y-133042242D01*
X184262912Y-133203558D01*
X184199967Y-133355522D01*
X184108585Y-133492284D01*
X183992284Y-133608585D01*
X183855522Y-133699967D01*
X183703558Y-133762912D01*
X183542242Y-133795000D01*
X183377758Y-133795000D01*
X183216442Y-133762912D01*
X183064478Y-133699967D01*
X182927716Y-133608585D01*
X182811415Y-133492284D01*
X182720033Y-133355522D01*
X182657088Y-133203558D01*
X182625000Y-133042242D01*
X182625000Y-132877758D01*
X182657088Y-132716442D01*
X182720033Y-132564478D01*
X182811415Y-132427716D01*
X182927716Y-132311415D01*
X183064478Y-132220033D01*
X183216442Y-132157088D01*
X183377758Y-132125000D01*
X183542242Y-132125000D01*
X183703558Y-132157088D01*
X183703558Y-132157088D01*
G37*
G36*
X175703558Y-132157088D02*
X175855522Y-132220033D01*
X175992284Y-132311415D01*
X176108585Y-132427716D01*
X176199967Y-132564478D01*
X176262912Y-132716442D01*
X176295000Y-132877758D01*
X176295000Y-133042242D01*
X176262912Y-133203558D01*
X176199967Y-133355522D01*
X176108585Y-133492284D01*
X175992284Y-133608585D01*
X175855522Y-133699967D01*
X175703558Y-133762912D01*
X175542242Y-133795000D01*
X175377758Y-133795000D01*
X175216442Y-133762912D01*
X175064478Y-133699967D01*
X174927716Y-133608585D01*
X174811415Y-133492284D01*
X174720033Y-133355522D01*
X174657088Y-133203558D01*
X174625000Y-133042242D01*
X174625000Y-132877758D01*
X174657088Y-132716442D01*
X174720033Y-132564478D01*
X174811415Y-132427716D01*
X174927716Y-132311415D01*
X175064478Y-132220033D01*
X175216442Y-132157088D01*
X175377758Y-132125000D01*
X175542242Y-132125000D01*
X175703558Y-132157088D01*
X175703558Y-132157088D01*
G37*
G36*
X186243558Y-129617088D02*
X186395522Y-129680033D01*
X186532284Y-129771415D01*
X186648585Y-129887716D01*
X186739967Y-130024478D01*
X186802912Y-130176442D01*
X186835000Y-130337758D01*
X186835000Y-130502242D01*
X186802912Y-130663558D01*
X186739967Y-130815522D01*
X186648585Y-130952284D01*
X186532284Y-131068585D01*
X186395522Y-131159967D01*
X186243558Y-131222912D01*
X186082242Y-131255000D01*
X185917758Y-131255000D01*
X185756442Y-131222912D01*
X185604478Y-131159967D01*
X185467716Y-131068585D01*
X185351415Y-130952284D01*
X185260033Y-130815522D01*
X185197088Y-130663558D01*
X185165000Y-130502242D01*
X185165000Y-130337758D01*
X185197088Y-130176442D01*
X185260033Y-130024478D01*
X185351415Y-129887716D01*
X185467716Y-129771415D01*
X185604478Y-129680033D01*
X185756442Y-129617088D01*
X185917758Y-129585000D01*
X186082242Y-129585000D01*
X186243558Y-129617088D01*
X186243558Y-129617088D01*
G37*
G36*
X178243558Y-129617088D02*
X178395522Y-129680033D01*
X178532284Y-129771415D01*
X178648585Y-129887716D01*
X178739967Y-130024478D01*
X178802912Y-130176442D01*
X178835000Y-130337758D01*
X178835000Y-130502242D01*
X178802912Y-130663558D01*
X178739967Y-130815522D01*
X178648585Y-130952284D01*
X178532284Y-131068585D01*
X178395522Y-131159967D01*
X178243558Y-131222912D01*
X178082242Y-131255000D01*
X177917758Y-131255000D01*
X177756442Y-131222912D01*
X177604478Y-131159967D01*
X177467716Y-131068585D01*
X177351415Y-130952284D01*
X177260033Y-130815522D01*
X177197088Y-130663558D01*
X177165000Y-130502242D01*
X177165000Y-130337758D01*
X177197088Y-130176442D01*
X177260033Y-130024478D01*
X177351415Y-129887716D01*
X177467716Y-129771415D01*
X177604478Y-129680033D01*
X177756442Y-129617088D01*
X177917758Y-129585000D01*
X178082242Y-129585000D01*
X178243558Y-129617088D01*
X178243558Y-129617088D01*
G37*
G36*
X175703558Y-129617088D02*
X175855522Y-129680033D01*
X175992284Y-129771415D01*
X176108585Y-129887716D01*
X176199967Y-130024478D01*
X176262912Y-130176442D01*
X176295000Y-130337758D01*
X176295000Y-130502242D01*
X176262912Y-130663558D01*
X176199967Y-130815522D01*
X176108585Y-130952284D01*
X175992284Y-131068585D01*
X175855522Y-131159967D01*
X175703558Y-131222912D01*
X175542242Y-131255000D01*
X175377758Y-131255000D01*
X175216442Y-131222912D01*
X175064478Y-131159967D01*
X174927716Y-131068585D01*
X174811415Y-130952284D01*
X174720033Y-130815522D01*
X174657088Y-130663558D01*
X174625000Y-130502242D01*
X174625000Y-130337758D01*
X174657088Y-130176442D01*
X174720033Y-130024478D01*
X174811415Y-129887716D01*
X174927716Y-129771415D01*
X175064478Y-129680033D01*
X175216442Y-129617088D01*
X175377758Y-129585000D01*
X175542242Y-129585000D01*
X175703558Y-129617088D01*
X175703558Y-129617088D01*
G37*
G36*
X183703558Y-129617088D02*
X183855522Y-129680033D01*
X183992284Y-129771415D01*
X184108585Y-129887716D01*
X184199967Y-130024478D01*
X184262912Y-130176442D01*
X184295000Y-130337758D01*
X184295000Y-130502242D01*
X184262912Y-130663558D01*
X184199967Y-130815522D01*
X184108585Y-130952284D01*
X183992284Y-131068585D01*
X183855522Y-131159967D01*
X183703558Y-131222912D01*
X183542242Y-131255000D01*
X183377758Y-131255000D01*
X183216442Y-131222912D01*
X183064478Y-131159967D01*
X182927716Y-131068585D01*
X182811415Y-130952284D01*
X182720033Y-130815522D01*
X182657088Y-130663558D01*
X182625000Y-130502242D01*
X182625000Y-130337758D01*
X182657088Y-130176442D01*
X182720033Y-130024478D01*
X182811415Y-129887716D01*
X182927716Y-129771415D01*
X183064478Y-129680033D01*
X183216442Y-129617088D01*
X183377758Y-129585000D01*
X183542242Y-129585000D01*
X183703558Y-129617088D01*
X183703558Y-129617088D01*
G37*
G36*
X186243558Y-127077088D02*
X186395522Y-127140033D01*
X186532284Y-127231415D01*
X186648585Y-127347716D01*
X186739967Y-127484478D01*
X186802912Y-127636442D01*
X186835000Y-127797758D01*
X186835000Y-127962242D01*
X186802912Y-128123558D01*
X186739967Y-128275522D01*
X186648585Y-128412284D01*
X186532284Y-128528585D01*
X186395522Y-128619967D01*
X186243558Y-128682912D01*
X186082242Y-128715000D01*
X185917758Y-128715000D01*
X185756442Y-128682912D01*
X185604478Y-128619967D01*
X185467716Y-128528585D01*
X185351415Y-128412284D01*
X185260033Y-128275522D01*
X185197088Y-128123558D01*
X185165000Y-127962242D01*
X185165000Y-127797758D01*
X185197088Y-127636442D01*
X185260033Y-127484478D01*
X185351415Y-127347716D01*
X185467716Y-127231415D01*
X185604478Y-127140033D01*
X185756442Y-127077088D01*
X185917758Y-127045000D01*
X186082242Y-127045000D01*
X186243558Y-127077088D01*
X186243558Y-127077088D01*
G37*
G36*
X183703558Y-127077088D02*
X183855522Y-127140033D01*
X183992284Y-127231415D01*
X184108585Y-127347716D01*
X184199967Y-127484478D01*
X184262912Y-127636442D01*
X184295000Y-127797758D01*
X184295000Y-127962242D01*
X184262912Y-128123558D01*
X184199967Y-128275522D01*
X184108585Y-128412284D01*
X183992284Y-128528585D01*
X183855522Y-128619967D01*
X183703558Y-128682912D01*
X183542242Y-128715000D01*
X183377758Y-128715000D01*
X183216442Y-128682912D01*
X183064478Y-128619967D01*
X182927716Y-128528585D01*
X182811415Y-128412284D01*
X182720033Y-128275522D01*
X182657088Y-128123558D01*
X182625000Y-127962242D01*
X182625000Y-127797758D01*
X182657088Y-127636442D01*
X182720033Y-127484478D01*
X182811415Y-127347716D01*
X182927716Y-127231415D01*
X183064478Y-127140033D01*
X183216442Y-127077088D01*
X183377758Y-127045000D01*
X183542242Y-127045000D01*
X183703558Y-127077088D01*
X183703558Y-127077088D01*
G37*
G36*
X175703558Y-127077088D02*
X175855522Y-127140033D01*
X175992284Y-127231415D01*
X176108585Y-127347716D01*
X176199967Y-127484478D01*
X176262912Y-127636442D01*
X176295000Y-127797758D01*
X176295000Y-127962242D01*
X176262912Y-128123558D01*
X176199967Y-128275522D01*
X176108585Y-128412284D01*
X175992284Y-128528585D01*
X175855522Y-128619967D01*
X175703558Y-128682912D01*
X175542242Y-128715000D01*
X175377758Y-128715000D01*
X175216442Y-128682912D01*
X175064478Y-128619967D01*
X174927716Y-128528585D01*
X174811415Y-128412284D01*
X174720033Y-128275522D01*
X174657088Y-128123558D01*
X174625000Y-127962242D01*
X174625000Y-127797758D01*
X174657088Y-127636442D01*
X174720033Y-127484478D01*
X174811415Y-127347716D01*
X174927716Y-127231415D01*
X175064478Y-127140033D01*
X175216442Y-127077088D01*
X175377758Y-127045000D01*
X175542242Y-127045000D01*
X175703558Y-127077088D01*
X175703558Y-127077088D01*
G37*
G36*
X178243558Y-127077088D02*
X178395522Y-127140033D01*
X178532284Y-127231415D01*
X178648585Y-127347716D01*
X178739967Y-127484478D01*
X178802912Y-127636442D01*
X178835000Y-127797758D01*
X178835000Y-127962242D01*
X178802912Y-128123558D01*
X178739967Y-128275522D01*
X178648585Y-128412284D01*
X178532284Y-128528585D01*
X178395522Y-128619967D01*
X178243558Y-128682912D01*
X178082242Y-128715000D01*
X177917758Y-128715000D01*
X177756442Y-128682912D01*
X177604478Y-128619967D01*
X177467716Y-128528585D01*
X177351415Y-128412284D01*
X177260033Y-128275522D01*
X177197088Y-128123558D01*
X177165000Y-127962242D01*
X177165000Y-127797758D01*
X177197088Y-127636442D01*
X177260033Y-127484478D01*
X177351415Y-127347716D01*
X177467716Y-127231415D01*
X177604478Y-127140033D01*
X177756442Y-127077088D01*
X177917758Y-127045000D01*
X178082242Y-127045000D01*
X178243558Y-127077088D01*
X178243558Y-127077088D01*
G37*
G36*
X175703558Y-124537088D02*
X175855522Y-124600033D01*
X175992284Y-124691415D01*
X176108585Y-124807716D01*
X176199967Y-124944478D01*
X176262912Y-125096442D01*
X176295000Y-125257758D01*
X176295000Y-125422242D01*
X176262912Y-125583558D01*
X176199967Y-125735522D01*
X176108585Y-125872284D01*
X175992284Y-125988585D01*
X175855522Y-126079967D01*
X175703558Y-126142912D01*
X175542242Y-126175000D01*
X175377758Y-126175000D01*
X175216442Y-126142912D01*
X175064478Y-126079967D01*
X174927716Y-125988585D01*
X174811415Y-125872284D01*
X174720033Y-125735522D01*
X174657088Y-125583558D01*
X174625000Y-125422242D01*
X174625000Y-125257758D01*
X174657088Y-125096442D01*
X174720033Y-124944478D01*
X174811415Y-124807716D01*
X174927716Y-124691415D01*
X175064478Y-124600033D01*
X175216442Y-124537088D01*
X175377758Y-124505000D01*
X175542242Y-124505000D01*
X175703558Y-124537088D01*
X175703558Y-124537088D01*
G37*
G36*
X178243558Y-124537088D02*
X178395522Y-124600033D01*
X178532284Y-124691415D01*
X178648585Y-124807716D01*
X178739967Y-124944478D01*
X178802912Y-125096442D01*
X178835000Y-125257758D01*
X178835000Y-125422242D01*
X178802912Y-125583558D01*
X178739967Y-125735522D01*
X178648585Y-125872284D01*
X178532284Y-125988585D01*
X178395522Y-126079967D01*
X178243558Y-126142912D01*
X178082242Y-126175000D01*
X177917758Y-126175000D01*
X177756442Y-126142912D01*
X177604478Y-126079967D01*
X177467716Y-125988585D01*
X177351415Y-125872284D01*
X177260033Y-125735522D01*
X177197088Y-125583558D01*
X177165000Y-125422242D01*
X177165000Y-125257758D01*
X177197088Y-125096442D01*
X177260033Y-124944478D01*
X177351415Y-124807716D01*
X177467716Y-124691415D01*
X177604478Y-124600033D01*
X177756442Y-124537088D01*
X177917758Y-124505000D01*
X178082242Y-124505000D01*
X178243558Y-124537088D01*
X178243558Y-124537088D01*
G37*
G36*
X183703558Y-124537088D02*
X183855522Y-124600033D01*
X183992284Y-124691415D01*
X184108585Y-124807716D01*
X184199967Y-124944478D01*
X184262912Y-125096442D01*
X184295000Y-125257758D01*
X184295000Y-125422242D01*
X184262912Y-125583558D01*
X184199967Y-125735522D01*
X184108585Y-125872284D01*
X183992284Y-125988585D01*
X183855522Y-126079967D01*
X183703558Y-126142912D01*
X183542242Y-126175000D01*
X183377758Y-126175000D01*
X183216442Y-126142912D01*
X183064478Y-126079967D01*
X182927716Y-125988585D01*
X182811415Y-125872284D01*
X182720033Y-125735522D01*
X182657088Y-125583558D01*
X182625000Y-125422242D01*
X182625000Y-125257758D01*
X182657088Y-125096442D01*
X182720033Y-124944478D01*
X182811415Y-124807716D01*
X182927716Y-124691415D01*
X183064478Y-124600033D01*
X183216442Y-124537088D01*
X183377758Y-124505000D01*
X183542242Y-124505000D01*
X183703558Y-124537088D01*
X183703558Y-124537088D01*
G37*
G36*
X186243558Y-124537088D02*
X186395522Y-124600033D01*
X186532284Y-124691415D01*
X186648585Y-124807716D01*
X186739967Y-124944478D01*
X186802912Y-125096442D01*
X186835000Y-125257758D01*
X186835000Y-125422242D01*
X186802912Y-125583558D01*
X186739967Y-125735522D01*
X186648585Y-125872284D01*
X186532284Y-125988585D01*
X186395522Y-126079967D01*
X186243558Y-126142912D01*
X186082242Y-126175000D01*
X185917758Y-126175000D01*
X185756442Y-126142912D01*
X185604478Y-126079967D01*
X185467716Y-125988585D01*
X185351415Y-125872284D01*
X185260033Y-125735522D01*
X185197088Y-125583558D01*
X185165000Y-125422242D01*
X185165000Y-125257758D01*
X185197088Y-125096442D01*
X185260033Y-124944478D01*
X185351415Y-124807716D01*
X185467716Y-124691415D01*
X185604478Y-124600033D01*
X185756442Y-124537088D01*
X185917758Y-124505000D01*
X186082242Y-124505000D01*
X186243558Y-124537088D01*
X186243558Y-124537088D01*
G37*
G36*
X186243558Y-121997088D02*
X186395522Y-122060033D01*
X186532284Y-122151415D01*
X186648585Y-122267716D01*
X186739967Y-122404478D01*
X186802912Y-122556442D01*
X186835000Y-122717758D01*
X186835000Y-122882242D01*
X186802912Y-123043558D01*
X186739967Y-123195522D01*
X186648585Y-123332284D01*
X186532284Y-123448585D01*
X186395522Y-123539967D01*
X186243558Y-123602912D01*
X186082242Y-123635000D01*
X185917758Y-123635000D01*
X185756442Y-123602912D01*
X185604478Y-123539967D01*
X185467716Y-123448585D01*
X185351415Y-123332284D01*
X185260033Y-123195522D01*
X185197088Y-123043558D01*
X185165000Y-122882242D01*
X185165000Y-122717758D01*
X185197088Y-122556442D01*
X185260033Y-122404478D01*
X185351415Y-122267716D01*
X185467716Y-122151415D01*
X185604478Y-122060033D01*
X185756442Y-121997088D01*
X185917758Y-121965000D01*
X186082242Y-121965000D01*
X186243558Y-121997088D01*
X186243558Y-121997088D01*
G37*
G36*
X178243558Y-121997088D02*
X178395522Y-122060033D01*
X178532284Y-122151415D01*
X178648585Y-122267716D01*
X178739967Y-122404478D01*
X178802912Y-122556442D01*
X178835000Y-122717758D01*
X178835000Y-122882242D01*
X178802912Y-123043558D01*
X178739967Y-123195522D01*
X178648585Y-123332284D01*
X178532284Y-123448585D01*
X178395522Y-123539967D01*
X178243558Y-123602912D01*
X178082242Y-123635000D01*
X177917758Y-123635000D01*
X177756442Y-123602912D01*
X177604478Y-123539967D01*
X177467716Y-123448585D01*
X177351415Y-123332284D01*
X177260033Y-123195522D01*
X177197088Y-123043558D01*
X177165000Y-122882242D01*
X177165000Y-122717758D01*
X177197088Y-122556442D01*
X177260033Y-122404478D01*
X177351415Y-122267716D01*
X177467716Y-122151415D01*
X177604478Y-122060033D01*
X177756442Y-121997088D01*
X177917758Y-121965000D01*
X178082242Y-121965000D01*
X178243558Y-121997088D01*
X178243558Y-121997088D01*
G37*
G36*
X175703558Y-121997088D02*
X175855522Y-122060033D01*
X175992284Y-122151415D01*
X176108585Y-122267716D01*
X176199967Y-122404478D01*
X176262912Y-122556442D01*
X176295000Y-122717758D01*
X176295000Y-122882242D01*
X176262912Y-123043558D01*
X176199967Y-123195522D01*
X176108585Y-123332284D01*
X175992284Y-123448585D01*
X175855522Y-123539967D01*
X175703558Y-123602912D01*
X175542242Y-123635000D01*
X175377758Y-123635000D01*
X175216442Y-123602912D01*
X175064478Y-123539967D01*
X174927716Y-123448585D01*
X174811415Y-123332284D01*
X174720033Y-123195522D01*
X174657088Y-123043558D01*
X174625000Y-122882242D01*
X174625000Y-122717758D01*
X174657088Y-122556442D01*
X174720033Y-122404478D01*
X174811415Y-122267716D01*
X174927716Y-122151415D01*
X175064478Y-122060033D01*
X175216442Y-121997088D01*
X175377758Y-121965000D01*
X175542242Y-121965000D01*
X175703558Y-121997088D01*
X175703558Y-121997088D01*
G37*
G36*
X183703558Y-121997088D02*
X183855522Y-122060033D01*
X183992284Y-122151415D01*
X184108585Y-122267716D01*
X184199967Y-122404478D01*
X184262912Y-122556442D01*
X184295000Y-122717758D01*
X184295000Y-122882242D01*
X184262912Y-123043558D01*
X184199967Y-123195522D01*
X184108585Y-123332284D01*
X183992284Y-123448585D01*
X183855522Y-123539967D01*
X183703558Y-123602912D01*
X183542242Y-123635000D01*
X183377758Y-123635000D01*
X183216442Y-123602912D01*
X183064478Y-123539967D01*
X182927716Y-123448585D01*
X182811415Y-123332284D01*
X182720033Y-123195522D01*
X182657088Y-123043558D01*
X182625000Y-122882242D01*
X182625000Y-122717758D01*
X182657088Y-122556442D01*
X182720033Y-122404478D01*
X182811415Y-122267716D01*
X182927716Y-122151415D01*
X183064478Y-122060033D01*
X183216442Y-121997088D01*
X183377758Y-121965000D01*
X183542242Y-121965000D01*
X183703558Y-121997088D01*
X183703558Y-121997088D01*
G37*
G36*
X178243558Y-119457088D02*
X178395522Y-119520033D01*
X178532284Y-119611415D01*
X178648585Y-119727716D01*
X178739967Y-119864478D01*
X178802912Y-120016442D01*
X178835000Y-120177758D01*
X178835000Y-120342242D01*
X178802912Y-120503558D01*
X178739967Y-120655522D01*
X178648585Y-120792284D01*
X178532284Y-120908585D01*
X178395522Y-120999967D01*
X178243558Y-121062912D01*
X178082242Y-121095000D01*
X177917758Y-121095000D01*
X177756442Y-121062912D01*
X177604478Y-120999967D01*
X177467716Y-120908585D01*
X177351415Y-120792284D01*
X177260033Y-120655522D01*
X177197088Y-120503558D01*
X177165000Y-120342242D01*
X177165000Y-120177758D01*
X177197088Y-120016442D01*
X177260033Y-119864478D01*
X177351415Y-119727716D01*
X177467716Y-119611415D01*
X177604478Y-119520033D01*
X177756442Y-119457088D01*
X177917758Y-119425000D01*
X178082242Y-119425000D01*
X178243558Y-119457088D01*
X178243558Y-119457088D01*
G37*
G36*
X175703558Y-119457088D02*
X175855522Y-119520033D01*
X175992284Y-119611415D01*
X176108585Y-119727716D01*
X176199967Y-119864478D01*
X176262912Y-120016442D01*
X176295000Y-120177758D01*
X176295000Y-120342242D01*
X176262912Y-120503558D01*
X176199967Y-120655522D01*
X176108585Y-120792284D01*
X175992284Y-120908585D01*
X175855522Y-120999967D01*
X175703558Y-121062912D01*
X175542242Y-121095000D01*
X175377758Y-121095000D01*
X175216442Y-121062912D01*
X175064478Y-120999967D01*
X174927716Y-120908585D01*
X174811415Y-120792284D01*
X174720033Y-120655522D01*
X174657088Y-120503558D01*
X174625000Y-120342242D01*
X174625000Y-120177758D01*
X174657088Y-120016442D01*
X174720033Y-119864478D01*
X174811415Y-119727716D01*
X174927716Y-119611415D01*
X175064478Y-119520033D01*
X175216442Y-119457088D01*
X175377758Y-119425000D01*
X175542242Y-119425000D01*
X175703558Y-119457088D01*
X175703558Y-119457088D01*
G37*
G36*
X186243558Y-119457088D02*
X186395522Y-119520033D01*
X186532284Y-119611415D01*
X186648585Y-119727716D01*
X186739967Y-119864478D01*
X186802912Y-120016442D01*
X186835000Y-120177758D01*
X186835000Y-120342242D01*
X186802912Y-120503558D01*
X186739967Y-120655522D01*
X186648585Y-120792284D01*
X186532284Y-120908585D01*
X186395522Y-120999967D01*
X186243558Y-121062912D01*
X186082242Y-121095000D01*
X185917758Y-121095000D01*
X185756442Y-121062912D01*
X185604478Y-120999967D01*
X185467716Y-120908585D01*
X185351415Y-120792284D01*
X185260033Y-120655522D01*
X185197088Y-120503558D01*
X185165000Y-120342242D01*
X185165000Y-120177758D01*
X185197088Y-120016442D01*
X185260033Y-119864478D01*
X185351415Y-119727716D01*
X185467716Y-119611415D01*
X185604478Y-119520033D01*
X185756442Y-119457088D01*
X185917758Y-119425000D01*
X186082242Y-119425000D01*
X186243558Y-119457088D01*
X186243558Y-119457088D01*
G37*
G36*
X183703558Y-119457088D02*
X183855522Y-119520033D01*
X183992284Y-119611415D01*
X184108585Y-119727716D01*
X184199967Y-119864478D01*
X184262912Y-120016442D01*
X184295000Y-120177758D01*
X184295000Y-120342242D01*
X184262912Y-120503558D01*
X184199967Y-120655522D01*
X184108585Y-120792284D01*
X183992284Y-120908585D01*
X183855522Y-120999967D01*
X183703558Y-121062912D01*
X183542242Y-121095000D01*
X183377758Y-121095000D01*
X183216442Y-121062912D01*
X183064478Y-120999967D01*
X182927716Y-120908585D01*
X182811415Y-120792284D01*
X182720033Y-120655522D01*
X182657088Y-120503558D01*
X182625000Y-120342242D01*
X182625000Y-120177758D01*
X182657088Y-120016442D01*
X182720033Y-119864478D01*
X182811415Y-119727716D01*
X182927716Y-119611415D01*
X183064478Y-119520033D01*
X183216442Y-119457088D01*
X183377758Y-119425000D01*
X183542242Y-119425000D01*
X183703558Y-119457088D01*
X183703558Y-119457088D01*
G37*
G36*
X175703558Y-116917088D02*
X175855522Y-116980033D01*
X175992284Y-117071415D01*
X176108585Y-117187716D01*
X176199967Y-117324478D01*
X176262912Y-117476442D01*
X176295000Y-117637758D01*
X176295000Y-117802242D01*
X176262912Y-117963558D01*
X176199967Y-118115522D01*
X176108585Y-118252284D01*
X175992284Y-118368585D01*
X175855522Y-118459967D01*
X175703558Y-118522912D01*
X175542242Y-118555000D01*
X175377758Y-118555000D01*
X175216442Y-118522912D01*
X175064478Y-118459967D01*
X174927716Y-118368585D01*
X174811415Y-118252284D01*
X174720033Y-118115522D01*
X174657088Y-117963558D01*
X174625000Y-117802242D01*
X174625000Y-117637758D01*
X174657088Y-117476442D01*
X174720033Y-117324478D01*
X174811415Y-117187716D01*
X174927716Y-117071415D01*
X175064478Y-116980033D01*
X175216442Y-116917088D01*
X175377758Y-116885000D01*
X175542242Y-116885000D01*
X175703558Y-116917088D01*
X175703558Y-116917088D01*
G37*
G36*
X178243558Y-116917088D02*
X178395522Y-116980033D01*
X178532284Y-117071415D01*
X178648585Y-117187716D01*
X178739967Y-117324478D01*
X178802912Y-117476442D01*
X178835000Y-117637758D01*
X178835000Y-117802242D01*
X178802912Y-117963558D01*
X178739967Y-118115522D01*
X178648585Y-118252284D01*
X178532284Y-118368585D01*
X178395522Y-118459967D01*
X178243558Y-118522912D01*
X178082242Y-118555000D01*
X177917758Y-118555000D01*
X177756442Y-118522912D01*
X177604478Y-118459967D01*
X177467716Y-118368585D01*
X177351415Y-118252284D01*
X177260033Y-118115522D01*
X177197088Y-117963558D01*
X177165000Y-117802242D01*
X177165000Y-117637758D01*
X177197088Y-117476442D01*
X177260033Y-117324478D01*
X177351415Y-117187716D01*
X177467716Y-117071415D01*
X177604478Y-116980033D01*
X177756442Y-116917088D01*
X177917758Y-116885000D01*
X178082242Y-116885000D01*
X178243558Y-116917088D01*
X178243558Y-116917088D01*
G37*
G36*
X183703558Y-116917088D02*
X183855522Y-116980033D01*
X183992284Y-117071415D01*
X184108585Y-117187716D01*
X184199967Y-117324478D01*
X184262912Y-117476442D01*
X184295000Y-117637758D01*
X184295000Y-117802242D01*
X184262912Y-117963558D01*
X184199967Y-118115522D01*
X184108585Y-118252284D01*
X183992284Y-118368585D01*
X183855522Y-118459967D01*
X183703558Y-118522912D01*
X183542242Y-118555000D01*
X183377758Y-118555000D01*
X183216442Y-118522912D01*
X183064478Y-118459967D01*
X182927716Y-118368585D01*
X182811415Y-118252284D01*
X182720033Y-118115522D01*
X182657088Y-117963558D01*
X182625000Y-117802242D01*
X182625000Y-117637758D01*
X182657088Y-117476442D01*
X182720033Y-117324478D01*
X182811415Y-117187716D01*
X182927716Y-117071415D01*
X183064478Y-116980033D01*
X183216442Y-116917088D01*
X183377758Y-116885000D01*
X183542242Y-116885000D01*
X183703558Y-116917088D01*
X183703558Y-116917088D01*
G37*
G36*
X186243558Y-116917088D02*
X186395522Y-116980033D01*
X186532284Y-117071415D01*
X186648585Y-117187716D01*
X186739967Y-117324478D01*
X186802912Y-117476442D01*
X186835000Y-117637758D01*
X186835000Y-117802242D01*
X186802912Y-117963558D01*
X186739967Y-118115522D01*
X186648585Y-118252284D01*
X186532284Y-118368585D01*
X186395522Y-118459967D01*
X186243558Y-118522912D01*
X186082242Y-118555000D01*
X185917758Y-118555000D01*
X185756442Y-118522912D01*
X185604478Y-118459967D01*
X185467716Y-118368585D01*
X185351415Y-118252284D01*
X185260033Y-118115522D01*
X185197088Y-117963558D01*
X185165000Y-117802242D01*
X185165000Y-117637758D01*
X185197088Y-117476442D01*
X185260033Y-117324478D01*
X185351415Y-117187716D01*
X185467716Y-117071415D01*
X185604478Y-116980033D01*
X185756442Y-116917088D01*
X185917758Y-116885000D01*
X186082242Y-116885000D01*
X186243558Y-116917088D01*
X186243558Y-116917088D01*
G37*
G36*
X114305928Y-113673676D02*
X114414552Y-113706627D01*
X114523176Y-113739577D01*
X114700493Y-113834355D01*
X114723392Y-113846595D01*
X114781889Y-113894602D01*
X114898887Y-113990619D01*
X115042904Y-114166105D01*
X115149923Y-114366323D01*
X115215824Y-114583572D01*
X115232500Y-114752884D01*
X115232500Y-115247115D01*
X115227969Y-115293117D01*
X115215824Y-115416428D01*
X115177136Y-115543965D01*
X115149922Y-115633679D01*
X115042906Y-115833893D01*
X114898884Y-116009384D01*
X114723395Y-116153404D01*
X114523177Y-116260423D01*
X114414552Y-116293374D01*
X114305929Y-116326324D01*
X114080000Y-116348576D01*
X113854072Y-116326324D01*
X113745449Y-116293374D01*
X113636824Y-116260423D01*
X113436606Y-116153404D01*
X113261117Y-116009384D01*
X113117096Y-115833894D01*
X113010077Y-115633677D01*
X112944176Y-115416428D01*
X112934398Y-115317151D01*
X112929617Y-115293117D01*
X112920240Y-115270478D01*
X112906626Y-115250104D01*
X112889299Y-115232777D01*
X112868924Y-115219163D01*
X112846285Y-115209785D01*
X112822252Y-115205005D01*
X112797748Y-115205005D01*
X112773714Y-115209786D01*
X112751075Y-115219163D01*
X112730701Y-115232777D01*
X112713374Y-115250104D01*
X112699760Y-115270479D01*
X112690382Y-115293118D01*
X112685602Y-115317151D01*
X112675824Y-115416428D01*
X112637136Y-115543965D01*
X112609922Y-115633679D01*
X112502906Y-115833893D01*
X112358884Y-116009384D01*
X112183395Y-116153404D01*
X111983177Y-116260423D01*
X111874552Y-116293374D01*
X111765929Y-116326324D01*
X111540000Y-116348576D01*
X111314072Y-116326324D01*
X111205449Y-116293374D01*
X111096824Y-116260423D01*
X110896606Y-116153404D01*
X110721117Y-116009384D01*
X110577096Y-115833894D01*
X110470077Y-115633677D01*
X110404176Y-115416428D01*
X110394398Y-115317151D01*
X110389617Y-115293117D01*
X110380240Y-115270478D01*
X110366626Y-115250104D01*
X110349299Y-115232777D01*
X110328924Y-115219163D01*
X110306285Y-115209785D01*
X110282252Y-115205005D01*
X110257748Y-115205005D01*
X110233714Y-115209786D01*
X110211075Y-115219163D01*
X110190701Y-115232777D01*
X110173374Y-115250104D01*
X110159760Y-115270479D01*
X110150382Y-115293118D01*
X110145602Y-115317151D01*
X110135824Y-115416428D01*
X110097136Y-115543965D01*
X110069922Y-115633679D01*
X109962906Y-115833893D01*
X109818884Y-116009384D01*
X109643395Y-116153404D01*
X109443177Y-116260423D01*
X109334552Y-116293374D01*
X109225929Y-116326324D01*
X109000000Y-116348576D01*
X108774072Y-116326324D01*
X108665449Y-116293374D01*
X108556824Y-116260423D01*
X108356606Y-116153404D01*
X108181117Y-116009384D01*
X108037096Y-115833894D01*
X107930077Y-115633677D01*
X107864176Y-115416428D01*
X107854398Y-115317151D01*
X107849617Y-115293117D01*
X107840240Y-115270478D01*
X107826626Y-115250104D01*
X107809299Y-115232777D01*
X107788924Y-115219163D01*
X107766285Y-115209785D01*
X107742252Y-115205005D01*
X107717748Y-115205005D01*
X107693714Y-115209786D01*
X107671075Y-115219163D01*
X107650701Y-115232777D01*
X107633374Y-115250104D01*
X107619760Y-115270479D01*
X107610382Y-115293118D01*
X107605602Y-115317151D01*
X107595824Y-115416428D01*
X107557136Y-115543965D01*
X107529922Y-115633679D01*
X107422906Y-115833893D01*
X107278884Y-116009384D01*
X107103395Y-116153404D01*
X106903177Y-116260423D01*
X106794552Y-116293374D01*
X106685929Y-116326324D01*
X106460000Y-116348576D01*
X106234072Y-116326324D01*
X106125449Y-116293374D01*
X106016824Y-116260423D01*
X105816606Y-116153404D01*
X105641117Y-116009384D01*
X105497096Y-115833894D01*
X105390077Y-115633677D01*
X105324176Y-115416428D01*
X105321898Y-115393299D01*
X105317117Y-115369265D01*
X105307740Y-115346626D01*
X105294126Y-115326252D01*
X105276799Y-115308925D01*
X105256424Y-115295311D01*
X105233785Y-115285933D01*
X105209752Y-115281153D01*
X105185248Y-115281153D01*
X105161214Y-115285934D01*
X105138575Y-115295311D01*
X105118201Y-115308925D01*
X105100874Y-115326252D01*
X105087260Y-115346627D01*
X105077882Y-115369266D01*
X105072500Y-115405551D01*
X105072500Y-116343000D01*
X102767500Y-116343000D01*
X102767500Y-113657000D01*
X105072500Y-113657000D01*
X105072500Y-114594450D01*
X105074902Y-114618836D01*
X105082015Y-114642285D01*
X105093566Y-114663896D01*
X105109112Y-114682838D01*
X105128054Y-114698384D01*
X105149665Y-114709935D01*
X105173114Y-114717048D01*
X105197500Y-114719450D01*
X105221886Y-114717048D01*
X105245335Y-114709935D01*
X105266946Y-114698384D01*
X105285888Y-114682838D01*
X105301434Y-114663896D01*
X105312985Y-114642285D01*
X105321898Y-114606702D01*
X105324176Y-114583573D01*
X105324177Y-114583571D01*
X105390077Y-114366325D01*
X105390077Y-114366324D01*
X105497094Y-114166110D01*
X105497095Y-114166108D01*
X105545102Y-114107611D01*
X105641119Y-113990613D01*
X105816605Y-113846596D01*
X106016823Y-113739577D01*
X106125447Y-113706627D01*
X106234071Y-113673676D01*
X106460000Y-113651424D01*
X106685928Y-113673676D01*
X106794552Y-113706627D01*
X106903176Y-113739577D01*
X107080493Y-113834355D01*
X107103392Y-113846595D01*
X107161889Y-113894602D01*
X107278887Y-113990619D01*
X107422904Y-114166105D01*
X107529923Y-114366323D01*
X107595824Y-114583572D01*
X107605602Y-114682849D01*
X107610383Y-114706883D01*
X107619760Y-114729522D01*
X107633374Y-114749896D01*
X107650701Y-114767223D01*
X107671076Y-114780837D01*
X107693715Y-114790215D01*
X107717748Y-114794995D01*
X107742252Y-114794995D01*
X107766286Y-114790214D01*
X107788925Y-114780837D01*
X107809299Y-114767223D01*
X107826626Y-114749896D01*
X107840240Y-114729521D01*
X107849618Y-114706882D01*
X107854398Y-114682849D01*
X107864176Y-114583573D01*
X107864177Y-114583571D01*
X107930077Y-114366325D01*
X107930077Y-114366324D01*
X108037094Y-114166110D01*
X108037095Y-114166108D01*
X108085102Y-114107611D01*
X108181119Y-113990613D01*
X108356605Y-113846596D01*
X108556823Y-113739577D01*
X108665447Y-113706627D01*
X108774071Y-113673676D01*
X109000000Y-113651424D01*
X109225928Y-113673676D01*
X109334552Y-113706627D01*
X109443176Y-113739577D01*
X109620493Y-113834355D01*
X109643392Y-113846595D01*
X109701889Y-113894602D01*
X109818887Y-113990619D01*
X109962904Y-114166105D01*
X110069923Y-114366323D01*
X110135824Y-114583572D01*
X110145602Y-114682849D01*
X110150383Y-114706883D01*
X110159760Y-114729522D01*
X110173374Y-114749896D01*
X110190701Y-114767223D01*
X110211076Y-114780837D01*
X110233715Y-114790215D01*
X110257748Y-114794995D01*
X110282252Y-114794995D01*
X110306286Y-114790214D01*
X110328925Y-114780837D01*
X110349299Y-114767223D01*
X110366626Y-114749896D01*
X110380240Y-114729521D01*
X110389618Y-114706882D01*
X110394398Y-114682849D01*
X110404176Y-114583573D01*
X110404177Y-114583571D01*
X110470077Y-114366325D01*
X110470077Y-114366324D01*
X110577094Y-114166110D01*
X110577095Y-114166108D01*
X110625102Y-114107611D01*
X110721119Y-113990613D01*
X110896605Y-113846596D01*
X111096823Y-113739577D01*
X111205447Y-113706627D01*
X111314071Y-113673676D01*
X111540000Y-113651424D01*
X111765928Y-113673676D01*
X111874552Y-113706627D01*
X111983176Y-113739577D01*
X112160493Y-113834355D01*
X112183392Y-113846595D01*
X112241889Y-113894602D01*
X112358887Y-113990619D01*
X112502904Y-114166105D01*
X112609923Y-114366323D01*
X112675824Y-114583572D01*
X112685602Y-114682849D01*
X112690383Y-114706883D01*
X112699760Y-114729522D01*
X112713374Y-114749896D01*
X112730701Y-114767223D01*
X112751076Y-114780837D01*
X112773715Y-114790215D01*
X112797748Y-114794995D01*
X112822252Y-114794995D01*
X112846286Y-114790214D01*
X112868925Y-114780837D01*
X112889299Y-114767223D01*
X112906626Y-114749896D01*
X112920240Y-114729521D01*
X112929618Y-114706882D01*
X112934398Y-114682849D01*
X112944176Y-114583573D01*
X112944177Y-114583571D01*
X113010077Y-114366325D01*
X113010077Y-114366324D01*
X113117094Y-114166110D01*
X113117095Y-114166108D01*
X113165102Y-114107611D01*
X113261119Y-113990613D01*
X113436605Y-113846596D01*
X113636823Y-113739577D01*
X113745447Y-113706627D01*
X113854071Y-113673676D01*
X114080000Y-113651424D01*
X114305928Y-113673676D01*
X114305928Y-113673676D01*
G37*
G36*
X175703558Y-114377088D02*
X175855522Y-114440033D01*
X175992284Y-114531415D01*
X176108585Y-114647716D01*
X176199967Y-114784478D01*
X176262912Y-114936442D01*
X176295000Y-115097758D01*
X176295000Y-115262242D01*
X176262912Y-115423558D01*
X176199967Y-115575522D01*
X176108585Y-115712284D01*
X175992284Y-115828585D01*
X175855522Y-115919967D01*
X175703558Y-115982912D01*
X175542242Y-116015000D01*
X175377758Y-116015000D01*
X175216442Y-115982912D01*
X175064478Y-115919967D01*
X174927716Y-115828585D01*
X174811415Y-115712284D01*
X174720033Y-115575522D01*
X174657088Y-115423558D01*
X174625000Y-115262242D01*
X174625000Y-115097758D01*
X174657088Y-114936442D01*
X174720033Y-114784478D01*
X174811415Y-114647716D01*
X174927716Y-114531415D01*
X175064478Y-114440033D01*
X175216442Y-114377088D01*
X175377758Y-114345000D01*
X175542242Y-114345000D01*
X175703558Y-114377088D01*
X175703558Y-114377088D01*
G37*
G36*
X186243558Y-114377088D02*
X186395522Y-114440033D01*
X186532284Y-114531415D01*
X186648585Y-114647716D01*
X186739967Y-114784478D01*
X186802912Y-114936442D01*
X186835000Y-115097758D01*
X186835000Y-115262242D01*
X186802912Y-115423558D01*
X186739967Y-115575522D01*
X186648585Y-115712284D01*
X186532284Y-115828585D01*
X186395522Y-115919967D01*
X186243558Y-115982912D01*
X186082242Y-116015000D01*
X185917758Y-116015000D01*
X185756442Y-115982912D01*
X185604478Y-115919967D01*
X185467716Y-115828585D01*
X185351415Y-115712284D01*
X185260033Y-115575522D01*
X185197088Y-115423558D01*
X185165000Y-115262242D01*
X185165000Y-115097758D01*
X185197088Y-114936442D01*
X185260033Y-114784478D01*
X185351415Y-114647716D01*
X185467716Y-114531415D01*
X185604478Y-114440033D01*
X185756442Y-114377088D01*
X185917758Y-114345000D01*
X186082242Y-114345000D01*
X186243558Y-114377088D01*
X186243558Y-114377088D01*
G37*
G36*
X183703558Y-114377088D02*
X183855522Y-114440033D01*
X183992284Y-114531415D01*
X184108585Y-114647716D01*
X184199967Y-114784478D01*
X184262912Y-114936442D01*
X184295000Y-115097758D01*
X184295000Y-115262242D01*
X184262912Y-115423558D01*
X184199967Y-115575522D01*
X184108585Y-115712284D01*
X183992284Y-115828585D01*
X183855522Y-115919967D01*
X183703558Y-115982912D01*
X183542242Y-116015000D01*
X183377758Y-116015000D01*
X183216442Y-115982912D01*
X183064478Y-115919967D01*
X182927716Y-115828585D01*
X182811415Y-115712284D01*
X182720033Y-115575522D01*
X182657088Y-115423558D01*
X182625000Y-115262242D01*
X182625000Y-115097758D01*
X182657088Y-114936442D01*
X182720033Y-114784478D01*
X182811415Y-114647716D01*
X182927716Y-114531415D01*
X183064478Y-114440033D01*
X183216442Y-114377088D01*
X183377758Y-114345000D01*
X183542242Y-114345000D01*
X183703558Y-114377088D01*
X183703558Y-114377088D01*
G37*
G36*
X178243558Y-114377088D02*
X178395522Y-114440033D01*
X178532284Y-114531415D01*
X178648585Y-114647716D01*
X178739967Y-114784478D01*
X178802912Y-114936442D01*
X178835000Y-115097758D01*
X178835000Y-115262242D01*
X178802912Y-115423558D01*
X178739967Y-115575522D01*
X178648585Y-115712284D01*
X178532284Y-115828585D01*
X178395522Y-115919967D01*
X178243558Y-115982912D01*
X178082242Y-116015000D01*
X177917758Y-116015000D01*
X177756442Y-115982912D01*
X177604478Y-115919967D01*
X177467716Y-115828585D01*
X177351415Y-115712284D01*
X177260033Y-115575522D01*
X177197088Y-115423558D01*
X177165000Y-115262242D01*
X177165000Y-115097758D01*
X177197088Y-114936442D01*
X177260033Y-114784478D01*
X177351415Y-114647716D01*
X177467716Y-114531415D01*
X177604478Y-114440033D01*
X177756442Y-114377088D01*
X177917758Y-114345000D01*
X178082242Y-114345000D01*
X178243558Y-114377088D01*
X178243558Y-114377088D01*
G37*
G36*
X175703558Y-111837088D02*
X175855522Y-111900033D01*
X175992284Y-111991415D01*
X176108585Y-112107716D01*
X176199967Y-112244478D01*
X176262912Y-112396442D01*
X176295000Y-112557758D01*
X176295000Y-112722242D01*
X176262912Y-112883558D01*
X176199967Y-113035522D01*
X176108585Y-113172284D01*
X175992284Y-113288585D01*
X175855522Y-113379967D01*
X175703558Y-113442912D01*
X175542242Y-113475000D01*
X175377758Y-113475000D01*
X175216442Y-113442912D01*
X175064478Y-113379967D01*
X174927716Y-113288585D01*
X174811415Y-113172284D01*
X174720033Y-113035522D01*
X174657088Y-112883558D01*
X174625000Y-112722242D01*
X174625000Y-112557758D01*
X174657088Y-112396442D01*
X174720033Y-112244478D01*
X174811415Y-112107716D01*
X174927716Y-111991415D01*
X175064478Y-111900033D01*
X175216442Y-111837088D01*
X175377758Y-111805000D01*
X175542242Y-111805000D01*
X175703558Y-111837088D01*
X175703558Y-111837088D01*
G37*
G36*
X178243558Y-111837088D02*
X178395522Y-111900033D01*
X178532284Y-111991415D01*
X178648585Y-112107716D01*
X178739967Y-112244478D01*
X178802912Y-112396442D01*
X178835000Y-112557758D01*
X178835000Y-112722242D01*
X178802912Y-112883558D01*
X178739967Y-113035522D01*
X178648585Y-113172284D01*
X178532284Y-113288585D01*
X178395522Y-113379967D01*
X178243558Y-113442912D01*
X178082242Y-113475000D01*
X177917758Y-113475000D01*
X177756442Y-113442912D01*
X177604478Y-113379967D01*
X177467716Y-113288585D01*
X177351415Y-113172284D01*
X177260033Y-113035522D01*
X177197088Y-112883558D01*
X177165000Y-112722242D01*
X177165000Y-112557758D01*
X177197088Y-112396442D01*
X177260033Y-112244478D01*
X177351415Y-112107716D01*
X177467716Y-111991415D01*
X177604478Y-111900033D01*
X177756442Y-111837088D01*
X177917758Y-111805000D01*
X178082242Y-111805000D01*
X178243558Y-111837088D01*
X178243558Y-111837088D01*
G37*
G36*
X183703558Y-111837088D02*
X183855522Y-111900033D01*
X183992284Y-111991415D01*
X184108585Y-112107716D01*
X184199967Y-112244478D01*
X184262912Y-112396442D01*
X184295000Y-112557758D01*
X184295000Y-112722242D01*
X184262912Y-112883558D01*
X184199967Y-113035522D01*
X184108585Y-113172284D01*
X183992284Y-113288585D01*
X183855522Y-113379967D01*
X183703558Y-113442912D01*
X183542242Y-113475000D01*
X183377758Y-113475000D01*
X183216442Y-113442912D01*
X183064478Y-113379967D01*
X182927716Y-113288585D01*
X182811415Y-113172284D01*
X182720033Y-113035522D01*
X182657088Y-112883558D01*
X182625000Y-112722242D01*
X182625000Y-112557758D01*
X182657088Y-112396442D01*
X182720033Y-112244478D01*
X182811415Y-112107716D01*
X182927716Y-111991415D01*
X183064478Y-111900033D01*
X183216442Y-111837088D01*
X183377758Y-111805000D01*
X183542242Y-111805000D01*
X183703558Y-111837088D01*
X183703558Y-111837088D01*
G37*
G36*
X186243558Y-111837088D02*
X186395522Y-111900033D01*
X186532284Y-111991415D01*
X186648585Y-112107716D01*
X186739967Y-112244478D01*
X186802912Y-112396442D01*
X186835000Y-112557758D01*
X186835000Y-112722242D01*
X186802912Y-112883558D01*
X186739967Y-113035522D01*
X186648585Y-113172284D01*
X186532284Y-113288585D01*
X186395522Y-113379967D01*
X186243558Y-113442912D01*
X186082242Y-113475000D01*
X185917758Y-113475000D01*
X185756442Y-113442912D01*
X185604478Y-113379967D01*
X185467716Y-113288585D01*
X185351415Y-113172284D01*
X185260033Y-113035522D01*
X185197088Y-112883558D01*
X185165000Y-112722242D01*
X185165000Y-112557758D01*
X185197088Y-112396442D01*
X185260033Y-112244478D01*
X185351415Y-112107716D01*
X185467716Y-111991415D01*
X185604478Y-111900033D01*
X185756442Y-111837088D01*
X185917758Y-111805000D01*
X186082242Y-111805000D01*
X186243558Y-111837088D01*
X186243558Y-111837088D01*
G37*
G36*
X127566029Y-111064469D02*
X127566032Y-111064470D01*
X127566033Y-111064470D01*
X127754534Y-111121651D01*
X127754536Y-111121652D01*
X127754539Y-111121653D01*
X127928258Y-111214507D01*
X128080528Y-111339472D01*
X128205491Y-111491740D01*
X128298348Y-111665463D01*
X128355531Y-111853970D01*
X128370000Y-112000876D01*
X128370000Y-112499123D01*
X128355531Y-112646029D01*
X128355530Y-112646032D01*
X128355530Y-112646033D01*
X128298349Y-112834535D01*
X128298347Y-112834539D01*
X128205493Y-113008258D01*
X128080528Y-113160528D01*
X127928260Y-113285491D01*
X127922468Y-113288587D01*
X127754535Y-113378349D01*
X127566034Y-113435530D01*
X127566033Y-113435530D01*
X127566030Y-113435531D01*
X127370000Y-113454838D01*
X127173971Y-113435531D01*
X127173968Y-113435530D01*
X127173967Y-113435530D01*
X126985466Y-113378349D01*
X126817533Y-113288587D01*
X126811741Y-113285491D01*
X126659473Y-113160528D01*
X126534509Y-113008259D01*
X126441652Y-112834537D01*
X126407588Y-112722242D01*
X126384470Y-112646034D01*
X126384470Y-112646033D01*
X126384469Y-112646030D01*
X126370000Y-112499124D01*
X126370000Y-112000877D01*
X126384469Y-111853971D01*
X126384470Y-111853967D01*
X126441651Y-111665466D01*
X126441652Y-111665464D01*
X126441653Y-111665461D01*
X126534507Y-111491742D01*
X126659472Y-111339472D01*
X126811740Y-111214509D01*
X126985463Y-111121652D01*
X126985465Y-111121651D01*
X127173966Y-111064470D01*
X127173967Y-111064470D01*
X127173970Y-111064469D01*
X127370000Y-111045162D01*
X127566029Y-111064469D01*
X127566029Y-111064469D01*
G37*
G36*
X130106029Y-111064469D02*
X130106032Y-111064470D01*
X130106033Y-111064470D01*
X130294534Y-111121651D01*
X130294536Y-111121652D01*
X130294539Y-111121653D01*
X130468258Y-111214507D01*
X130620528Y-111339472D01*
X130745491Y-111491740D01*
X130838348Y-111665463D01*
X130895531Y-111853970D01*
X130910000Y-112000876D01*
X130910000Y-112499123D01*
X130895531Y-112646029D01*
X130895530Y-112646032D01*
X130895530Y-112646033D01*
X130838349Y-112834535D01*
X130838347Y-112834539D01*
X130745493Y-113008258D01*
X130620528Y-113160528D01*
X130468260Y-113285491D01*
X130462468Y-113288587D01*
X130294535Y-113378349D01*
X130106034Y-113435530D01*
X130106033Y-113435530D01*
X130106030Y-113435531D01*
X129910000Y-113454838D01*
X129713971Y-113435531D01*
X129713968Y-113435530D01*
X129713967Y-113435530D01*
X129525466Y-113378349D01*
X129357533Y-113288587D01*
X129351741Y-113285491D01*
X129199473Y-113160528D01*
X129074509Y-113008259D01*
X128981652Y-112834537D01*
X128947588Y-112722242D01*
X128924470Y-112646034D01*
X128924470Y-112646033D01*
X128924469Y-112646030D01*
X128910000Y-112499124D01*
X128910000Y-112000877D01*
X128924469Y-111853971D01*
X128924470Y-111853967D01*
X128981651Y-111665466D01*
X128981652Y-111665464D01*
X128981653Y-111665461D01*
X129074507Y-111491742D01*
X129199472Y-111339472D01*
X129351740Y-111214509D01*
X129525463Y-111121652D01*
X129525465Y-111121651D01*
X129713966Y-111064470D01*
X129713967Y-111064470D01*
X129713970Y-111064469D01*
X129910000Y-111045162D01*
X130106029Y-111064469D01*
X130106029Y-111064469D01*
G37*
G36*
X125026029Y-111064469D02*
X125026032Y-111064470D01*
X125026033Y-111064470D01*
X125214534Y-111121651D01*
X125214536Y-111121652D01*
X125214539Y-111121653D01*
X125388258Y-111214507D01*
X125540528Y-111339472D01*
X125665491Y-111491740D01*
X125758348Y-111665463D01*
X125815531Y-111853970D01*
X125830000Y-112000876D01*
X125830000Y-112499123D01*
X125815531Y-112646029D01*
X125815530Y-112646032D01*
X125815530Y-112646033D01*
X125758349Y-112834535D01*
X125758347Y-112834539D01*
X125665493Y-113008258D01*
X125540528Y-113160528D01*
X125388260Y-113285491D01*
X125382468Y-113288587D01*
X125214535Y-113378349D01*
X125026034Y-113435530D01*
X125026033Y-113435530D01*
X125026030Y-113435531D01*
X124830000Y-113454838D01*
X124633971Y-113435531D01*
X124633968Y-113435530D01*
X124633967Y-113435530D01*
X124445466Y-113378349D01*
X124277533Y-113288587D01*
X124271741Y-113285491D01*
X124119473Y-113160528D01*
X123994509Y-113008259D01*
X123901652Y-112834537D01*
X123867588Y-112722242D01*
X123844470Y-112646034D01*
X123844470Y-112646033D01*
X123844469Y-112646030D01*
X123830000Y-112499124D01*
X123830000Y-112000877D01*
X123844469Y-111853971D01*
X123844470Y-111853967D01*
X123901651Y-111665466D01*
X123901652Y-111665464D01*
X123901653Y-111665461D01*
X123994507Y-111491742D01*
X124119472Y-111339472D01*
X124271740Y-111214509D01*
X124445463Y-111121652D01*
X124445465Y-111121651D01*
X124633966Y-111064470D01*
X124633967Y-111064470D01*
X124633970Y-111064469D01*
X124830000Y-111045162D01*
X125026029Y-111064469D01*
X125026029Y-111064469D01*
G37*
G36*
X122486029Y-111064469D02*
X122486032Y-111064470D01*
X122486033Y-111064470D01*
X122674534Y-111121651D01*
X122674536Y-111121652D01*
X122674539Y-111121653D01*
X122848258Y-111214507D01*
X123000528Y-111339472D01*
X123125491Y-111491740D01*
X123218348Y-111665463D01*
X123275531Y-111853970D01*
X123290000Y-112000876D01*
X123290000Y-112499123D01*
X123275531Y-112646029D01*
X123275530Y-112646032D01*
X123275530Y-112646033D01*
X123218349Y-112834535D01*
X123218347Y-112834539D01*
X123125493Y-113008258D01*
X123000528Y-113160528D01*
X122848260Y-113285491D01*
X122842468Y-113288587D01*
X122674535Y-113378349D01*
X122486034Y-113435530D01*
X122486033Y-113435530D01*
X122486030Y-113435531D01*
X122290000Y-113454838D01*
X122093971Y-113435531D01*
X122093968Y-113435530D01*
X122093967Y-113435530D01*
X121905466Y-113378349D01*
X121737533Y-113288587D01*
X121731741Y-113285491D01*
X121579473Y-113160528D01*
X121454509Y-113008259D01*
X121361652Y-112834537D01*
X121327588Y-112722242D01*
X121304470Y-112646034D01*
X121304470Y-112646033D01*
X121304469Y-112646030D01*
X121290000Y-112499124D01*
X121290000Y-112000877D01*
X121304469Y-111853971D01*
X121304470Y-111853967D01*
X121361651Y-111665466D01*
X121361652Y-111665464D01*
X121361653Y-111665461D01*
X121454507Y-111491742D01*
X121579472Y-111339472D01*
X121731740Y-111214509D01*
X121905463Y-111121652D01*
X121905465Y-111121651D01*
X122093966Y-111064470D01*
X122093967Y-111064470D01*
X122093970Y-111064469D01*
X122290000Y-111045162D01*
X122486029Y-111064469D01*
X122486029Y-111064469D01*
G37*
G36*
X120750000Y-113450000D02*
X118750000Y-113450000D01*
X118750000Y-111050000D01*
X120750000Y-111050000D01*
X120750000Y-113450000D01*
X120750000Y-113450000D01*
G37*
G36*
X106350400Y-106700000D02*
X103950400Y-106700000D01*
X103950400Y-104300000D01*
X106350400Y-104300000D01*
X106350400Y-106700000D01*
X106350400Y-106700000D01*
G37*
G36*
X109462826Y-104346115D02*
X109681212Y-104436573D01*
X109877758Y-104567901D01*
X110044899Y-104735042D01*
X110176227Y-104931588D01*
X110266685Y-105149974D01*
X110312800Y-105381809D01*
X110312800Y-105618191D01*
X110266685Y-105850026D01*
X110176227Y-106068412D01*
X110044899Y-106264958D01*
X109877758Y-106432099D01*
X109681212Y-106563427D01*
X109462826Y-106653885D01*
X109230991Y-106700000D01*
X108994609Y-106700000D01*
X108762774Y-106653885D01*
X108544388Y-106563427D01*
X108347842Y-106432099D01*
X108180701Y-106264958D01*
X108049373Y-106068412D01*
X107958915Y-105850026D01*
X107912800Y-105618191D01*
X107912800Y-105381809D01*
X107958915Y-105149974D01*
X108049373Y-104931588D01*
X108180701Y-104735042D01*
X108347842Y-104567901D01*
X108544388Y-104436573D01*
X108762774Y-104346115D01*
X108994609Y-104300000D01*
X109230991Y-104300000D01*
X109462826Y-104346115D01*
X109462826Y-104346115D01*
G37*
G36*
X133237226Y-104346115D02*
X133455612Y-104436573D01*
X133652158Y-104567901D01*
X133819299Y-104735042D01*
X133950627Y-104931588D01*
X134041085Y-105149974D01*
X134087200Y-105381809D01*
X134087200Y-105618191D01*
X134041085Y-105850026D01*
X133950627Y-106068412D01*
X133819299Y-106264958D01*
X133652158Y-106432099D01*
X133455612Y-106563427D01*
X133237226Y-106653885D01*
X133005391Y-106700000D01*
X132769009Y-106700000D01*
X132537174Y-106653885D01*
X132318788Y-106563427D01*
X132122242Y-106432099D01*
X131955101Y-106264958D01*
X131823773Y-106068412D01*
X131733315Y-105850026D01*
X131687200Y-105618191D01*
X131687200Y-105381809D01*
X131733315Y-105149974D01*
X131823773Y-104931588D01*
X131955101Y-104735042D01*
X132122242Y-104567901D01*
X132318788Y-104436573D01*
X132537174Y-104346115D01*
X132769009Y-104300000D01*
X133005391Y-104300000D01*
X133237226Y-104346115D01*
X133237226Y-104346115D01*
G37*
G36*
X180237226Y-104346115D02*
X180455612Y-104436573D01*
X180652158Y-104567901D01*
X180819299Y-104735042D01*
X180950627Y-104931588D01*
X181041085Y-105149974D01*
X181087200Y-105381809D01*
X181087200Y-105618191D01*
X181041085Y-105850026D01*
X180950627Y-106068412D01*
X180819299Y-106264958D01*
X180652158Y-106432099D01*
X180455612Y-106563427D01*
X180237226Y-106653885D01*
X180005391Y-106700000D01*
X179769009Y-106700000D01*
X179537174Y-106653885D01*
X179318788Y-106563427D01*
X179122242Y-106432099D01*
X178955101Y-106264958D01*
X178823773Y-106068412D01*
X178733315Y-105850026D01*
X178687200Y-105618191D01*
X178687200Y-105381809D01*
X178733315Y-105149974D01*
X178823773Y-104931588D01*
X178955101Y-104735042D01*
X179122242Y-104567901D01*
X179318788Y-104436573D01*
X179537174Y-104346115D01*
X179769009Y-104300000D01*
X180005391Y-104300000D01*
X180237226Y-104346115D01*
X180237226Y-104346115D01*
G37*
G36*
X176274826Y-104346115D02*
X176493212Y-104436573D01*
X176689758Y-104567901D01*
X176856899Y-104735042D01*
X176988227Y-104931588D01*
X177078685Y-105149974D01*
X177124800Y-105381809D01*
X177124800Y-105618191D01*
X177078685Y-105850026D01*
X176988227Y-106068412D01*
X176856899Y-106264958D01*
X176689758Y-106432099D01*
X176493212Y-106563427D01*
X176274826Y-106653885D01*
X176042991Y-106700000D01*
X175806609Y-106700000D01*
X175574774Y-106653885D01*
X175356388Y-106563427D01*
X175159842Y-106432099D01*
X174992701Y-106264958D01*
X174861373Y-106068412D01*
X174770915Y-105850026D01*
X174724800Y-105618191D01*
X174724800Y-105381809D01*
X174770915Y-105149974D01*
X174861373Y-104931588D01*
X174992701Y-104735042D01*
X175159842Y-104567901D01*
X175356388Y-104436573D01*
X175574774Y-104346115D01*
X175806609Y-104300000D01*
X176042991Y-104300000D01*
X176274826Y-104346115D01*
X176274826Y-104346115D01*
G37*
G36*
X172312426Y-104346115D02*
X172530812Y-104436573D01*
X172727358Y-104567901D01*
X172894499Y-104735042D01*
X173025827Y-104931588D01*
X173116285Y-105149974D01*
X173162400Y-105381809D01*
X173162400Y-105618191D01*
X173116285Y-105850026D01*
X173025827Y-106068412D01*
X172894499Y-106264958D01*
X172727358Y-106432099D01*
X172530812Y-106563427D01*
X172312426Y-106653885D01*
X172080591Y-106700000D01*
X171844209Y-106700000D01*
X171612374Y-106653885D01*
X171393988Y-106563427D01*
X171197442Y-106432099D01*
X171030301Y-106264958D01*
X170898973Y-106068412D01*
X170808515Y-105850026D01*
X170762400Y-105618191D01*
X170762400Y-105381809D01*
X170808515Y-105149974D01*
X170898973Y-104931588D01*
X171030301Y-104735042D01*
X171197442Y-104567901D01*
X171393988Y-104436573D01*
X171612374Y-104346115D01*
X171844209Y-104300000D01*
X172080591Y-104300000D01*
X172312426Y-104346115D01*
X172312426Y-104346115D01*
G37*
G36*
X168350026Y-104346115D02*
X168568412Y-104436573D01*
X168764958Y-104567901D01*
X168932099Y-104735042D01*
X169063427Y-104931588D01*
X169153885Y-105149974D01*
X169200000Y-105381809D01*
X169200000Y-105618191D01*
X169153885Y-105850026D01*
X169063427Y-106068412D01*
X168932099Y-106264958D01*
X168764958Y-106432099D01*
X168568412Y-106563427D01*
X168350026Y-106653885D01*
X168118191Y-106700000D01*
X167881809Y-106700000D01*
X167649974Y-106653885D01*
X167431588Y-106563427D01*
X167235042Y-106432099D01*
X167067901Y-106264958D01*
X166936573Y-106068412D01*
X166846115Y-105850026D01*
X166800000Y-105618191D01*
X166800000Y-105381809D01*
X166846115Y-105149974D01*
X166936573Y-104931588D01*
X167067901Y-104735042D01*
X167235042Y-104567901D01*
X167431588Y-104436573D01*
X167649974Y-104346115D01*
X167881809Y-104300000D01*
X168118191Y-104300000D01*
X168350026Y-104346115D01*
X168350026Y-104346115D01*
G37*
G36*
X164387626Y-104346115D02*
X164606012Y-104436573D01*
X164802558Y-104567901D01*
X164969699Y-104735042D01*
X165101027Y-104931588D01*
X165191485Y-105149974D01*
X165237600Y-105381809D01*
X165237600Y-105618191D01*
X165191485Y-105850026D01*
X165101027Y-106068412D01*
X164969699Y-106264958D01*
X164802558Y-106432099D01*
X164606012Y-106563427D01*
X164387626Y-106653885D01*
X164155791Y-106700000D01*
X163919409Y-106700000D01*
X163687574Y-106653885D01*
X163469188Y-106563427D01*
X163272642Y-106432099D01*
X163105501Y-106264958D01*
X162974173Y-106068412D01*
X162883715Y-105850026D01*
X162837600Y-105618191D01*
X162837600Y-105381809D01*
X162883715Y-105149974D01*
X162974173Y-104931588D01*
X163105501Y-104735042D01*
X163272642Y-104567901D01*
X163469188Y-104436573D01*
X163687574Y-104346115D01*
X163919409Y-104300000D01*
X164155791Y-104300000D01*
X164387626Y-104346115D01*
X164387626Y-104346115D01*
G37*
G36*
X160425226Y-104346115D02*
X160643612Y-104436573D01*
X160840158Y-104567901D01*
X161007299Y-104735042D01*
X161138627Y-104931588D01*
X161229085Y-105149974D01*
X161275200Y-105381809D01*
X161275200Y-105618191D01*
X161229085Y-105850026D01*
X161138627Y-106068412D01*
X161007299Y-106264958D01*
X160840158Y-106432099D01*
X160643612Y-106563427D01*
X160425226Y-106653885D01*
X160193391Y-106700000D01*
X159957009Y-106700000D01*
X159725174Y-106653885D01*
X159506788Y-106563427D01*
X159310242Y-106432099D01*
X159143101Y-106264958D01*
X159011773Y-106068412D01*
X158921315Y-105850026D01*
X158875200Y-105618191D01*
X158875200Y-105381809D01*
X158921315Y-105149974D01*
X159011773Y-104931588D01*
X159143101Y-104735042D01*
X159310242Y-104567901D01*
X159506788Y-104436573D01*
X159725174Y-104346115D01*
X159957009Y-104300000D01*
X160193391Y-104300000D01*
X160425226Y-104346115D01*
X160425226Y-104346115D01*
G37*
G36*
X156462826Y-104346115D02*
X156681212Y-104436573D01*
X156877758Y-104567901D01*
X157044899Y-104735042D01*
X157176227Y-104931588D01*
X157266685Y-105149974D01*
X157312800Y-105381809D01*
X157312800Y-105618191D01*
X157266685Y-105850026D01*
X157176227Y-106068412D01*
X157044899Y-106264958D01*
X156877758Y-106432099D01*
X156681212Y-106563427D01*
X156462826Y-106653885D01*
X156230991Y-106700000D01*
X155994609Y-106700000D01*
X155762774Y-106653885D01*
X155544388Y-106563427D01*
X155347842Y-106432099D01*
X155180701Y-106264958D01*
X155049373Y-106068412D01*
X154958915Y-105850026D01*
X154912800Y-105618191D01*
X154912800Y-105381809D01*
X154958915Y-105149974D01*
X155049373Y-104931588D01*
X155180701Y-104735042D01*
X155347842Y-104567901D01*
X155544388Y-104436573D01*
X155762774Y-104346115D01*
X155994609Y-104300000D01*
X156230991Y-104300000D01*
X156462826Y-104346115D01*
X156462826Y-104346115D01*
G37*
G36*
X184199626Y-104346115D02*
X184418012Y-104436573D01*
X184614558Y-104567901D01*
X184781699Y-104735042D01*
X184913027Y-104931588D01*
X185003485Y-105149974D01*
X185049600Y-105381809D01*
X185049600Y-105618191D01*
X185003485Y-105850026D01*
X184913027Y-106068412D01*
X184781699Y-106264958D01*
X184614558Y-106432099D01*
X184418012Y-106563427D01*
X184199626Y-106653885D01*
X183967791Y-106700000D01*
X183731409Y-106700000D01*
X183499574Y-106653885D01*
X183281188Y-106563427D01*
X183084642Y-106432099D01*
X182917501Y-106264958D01*
X182786173Y-106068412D01*
X182695715Y-105850026D01*
X182649600Y-105618191D01*
X182649600Y-105381809D01*
X182695715Y-105149974D01*
X182786173Y-104931588D01*
X182917501Y-104735042D01*
X183084642Y-104567901D01*
X183281188Y-104436573D01*
X183499574Y-104346115D01*
X183731409Y-104300000D01*
X183967791Y-104300000D01*
X184199626Y-104346115D01*
X184199626Y-104346115D01*
G37*
G36*
X153350400Y-106700000D02*
X150950400Y-106700000D01*
X150950400Y-104300000D01*
X153350400Y-104300000D01*
X153350400Y-106700000D01*
X153350400Y-106700000D01*
G37*
G36*
X129274826Y-104346115D02*
X129493212Y-104436573D01*
X129689758Y-104567901D01*
X129856899Y-104735042D01*
X129988227Y-104931588D01*
X130078685Y-105149974D01*
X130124800Y-105381809D01*
X130124800Y-105618191D01*
X130078685Y-105850026D01*
X129988227Y-106068412D01*
X129856899Y-106264958D01*
X129689758Y-106432099D01*
X129493212Y-106563427D01*
X129274826Y-106653885D01*
X129042991Y-106700000D01*
X128806609Y-106700000D01*
X128574774Y-106653885D01*
X128356388Y-106563427D01*
X128159842Y-106432099D01*
X127992701Y-106264958D01*
X127861373Y-106068412D01*
X127770915Y-105850026D01*
X127724800Y-105618191D01*
X127724800Y-105381809D01*
X127770915Y-105149974D01*
X127861373Y-104931588D01*
X127992701Y-104735042D01*
X128159842Y-104567901D01*
X128356388Y-104436573D01*
X128574774Y-104346115D01*
X128806609Y-104300000D01*
X129042991Y-104300000D01*
X129274826Y-104346115D01*
X129274826Y-104346115D01*
G37*
G36*
X125312426Y-104346115D02*
X125530812Y-104436573D01*
X125727358Y-104567901D01*
X125894499Y-104735042D01*
X126025827Y-104931588D01*
X126116285Y-105149974D01*
X126162400Y-105381809D01*
X126162400Y-105618191D01*
X126116285Y-105850026D01*
X126025827Y-106068412D01*
X125894499Y-106264958D01*
X125727358Y-106432099D01*
X125530812Y-106563427D01*
X125312426Y-106653885D01*
X125080591Y-106700000D01*
X124844209Y-106700000D01*
X124612374Y-106653885D01*
X124393988Y-106563427D01*
X124197442Y-106432099D01*
X124030301Y-106264958D01*
X123898973Y-106068412D01*
X123808515Y-105850026D01*
X123762400Y-105618191D01*
X123762400Y-105381809D01*
X123808515Y-105149974D01*
X123898973Y-104931588D01*
X124030301Y-104735042D01*
X124197442Y-104567901D01*
X124393988Y-104436573D01*
X124612374Y-104346115D01*
X124844209Y-104300000D01*
X125080591Y-104300000D01*
X125312426Y-104346115D01*
X125312426Y-104346115D01*
G37*
G36*
X121350026Y-104346115D02*
X121568412Y-104436573D01*
X121764958Y-104567901D01*
X121932099Y-104735042D01*
X122063427Y-104931588D01*
X122153885Y-105149974D01*
X122200000Y-105381809D01*
X122200000Y-105618191D01*
X122153885Y-105850026D01*
X122063427Y-106068412D01*
X121932099Y-106264958D01*
X121764958Y-106432099D01*
X121568412Y-106563427D01*
X121350026Y-106653885D01*
X121118191Y-106700000D01*
X120881809Y-106700000D01*
X120649974Y-106653885D01*
X120431588Y-106563427D01*
X120235042Y-106432099D01*
X120067901Y-106264958D01*
X119936573Y-106068412D01*
X119846115Y-105850026D01*
X119800000Y-105618191D01*
X119800000Y-105381809D01*
X119846115Y-105149974D01*
X119936573Y-104931588D01*
X120067901Y-104735042D01*
X120235042Y-104567901D01*
X120431588Y-104436573D01*
X120649974Y-104346115D01*
X120881809Y-104300000D01*
X121118191Y-104300000D01*
X121350026Y-104346115D01*
X121350026Y-104346115D01*
G37*
G36*
X117387626Y-104346115D02*
X117606012Y-104436573D01*
X117802558Y-104567901D01*
X117969699Y-104735042D01*
X118101027Y-104931588D01*
X118191485Y-105149974D01*
X118237600Y-105381809D01*
X118237600Y-105618191D01*
X118191485Y-105850026D01*
X118101027Y-106068412D01*
X117969699Y-106264958D01*
X117802558Y-106432099D01*
X117606012Y-106563427D01*
X117387626Y-106653885D01*
X117155791Y-106700000D01*
X116919409Y-106700000D01*
X116687574Y-106653885D01*
X116469188Y-106563427D01*
X116272642Y-106432099D01*
X116105501Y-106264958D01*
X115974173Y-106068412D01*
X115883715Y-105850026D01*
X115837600Y-105618191D01*
X115837600Y-105381809D01*
X115883715Y-105149974D01*
X115974173Y-104931588D01*
X116105501Y-104735042D01*
X116272642Y-104567901D01*
X116469188Y-104436573D01*
X116687574Y-104346115D01*
X116919409Y-104300000D01*
X117155791Y-104300000D01*
X117387626Y-104346115D01*
X117387626Y-104346115D01*
G37*
G36*
X137199626Y-104346115D02*
X137418012Y-104436573D01*
X137614558Y-104567901D01*
X137781699Y-104735042D01*
X137913027Y-104931588D01*
X138003485Y-105149974D01*
X138049600Y-105381809D01*
X138049600Y-105618191D01*
X138003485Y-105850026D01*
X137913027Y-106068412D01*
X137781699Y-106264958D01*
X137614558Y-106432099D01*
X137418012Y-106563427D01*
X137199626Y-106653885D01*
X136967791Y-106700000D01*
X136731409Y-106700000D01*
X136499574Y-106653885D01*
X136281188Y-106563427D01*
X136084642Y-106432099D01*
X135917501Y-106264958D01*
X135786173Y-106068412D01*
X135695715Y-105850026D01*
X135649600Y-105618191D01*
X135649600Y-105381809D01*
X135695715Y-105149974D01*
X135786173Y-104931588D01*
X135917501Y-104735042D01*
X136084642Y-104567901D01*
X136281188Y-104436573D01*
X136499574Y-104346115D01*
X136731409Y-104300000D01*
X136967791Y-104300000D01*
X137199626Y-104346115D01*
X137199626Y-104346115D01*
G37*
G36*
X113425226Y-104346115D02*
X113643612Y-104436573D01*
X113840158Y-104567901D01*
X114007299Y-104735042D01*
X114138627Y-104931588D01*
X114229085Y-105149974D01*
X114275200Y-105381809D01*
X114275200Y-105618191D01*
X114229085Y-105850026D01*
X114138627Y-106068412D01*
X114007299Y-106264958D01*
X113840158Y-106432099D01*
X113643612Y-106563427D01*
X113425226Y-106653885D01*
X113193391Y-106700000D01*
X112957009Y-106700000D01*
X112725174Y-106653885D01*
X112506788Y-106563427D01*
X112310242Y-106432099D01*
X112143101Y-106264958D01*
X112011773Y-106068412D01*
X111921315Y-105850026D01*
X111875200Y-105618191D01*
X111875200Y-105381809D01*
X111921315Y-105149974D01*
X112011773Y-104931588D01*
X112143101Y-104735042D01*
X112310242Y-104567901D01*
X112506788Y-104436573D01*
X112725174Y-104346115D01*
X112957009Y-104300000D01*
X113193391Y-104300000D01*
X113425226Y-104346115D01*
X113425226Y-104346115D01*
G37*
M02*
