G04 #@! TF.GenerationSoftware,KiCad,Pcbnew,(5.0.2)-1*
G04 #@! TF.CreationDate,2019-04-13T07:43:48-04:00*
G04 #@! TF.ProjectId,Console,436f6e73-6f6c-4652-9e6b-696361645f70,rev?*
G04 #@! TF.SameCoordinates,Original*
G04 #@! TF.FileFunction,Legend,Bot*
G04 #@! TF.FilePolarity,Positive*
%FSLAX46Y46*%
G04 Gerber Fmt 4.6, Leading zero omitted, Abs format (unit mm)*
G04 Created by KiCad (PCBNEW (5.0.2)-1) date 4/13/2019 7:43:48 AM*
%MOMM*%
%LPD*%
G01*
G04 APERTURE LIST*
%ADD10C,0.750000*%
%ADD11C,0.300000*%
%ADD12C,0.150000*%
G04 APERTURE END LIST*
D10*
X111031547Y-134138095D02*
X111656547Y-139138095D01*
X112210119Y-135566666D01*
X113656547Y-139138095D01*
X113031547Y-134138095D01*
X114460119Y-134138095D02*
X114876785Y-137471428D01*
X115085119Y-139138095D02*
X114912500Y-138900000D01*
X115025595Y-138661904D01*
X115198214Y-138900000D01*
X115085119Y-139138095D01*
X115025595Y-138661904D01*
X117204166Y-134376190D02*
X116888690Y-134138095D01*
X116317261Y-134138095D01*
X116061309Y-134376190D01*
X115948214Y-134614285D01*
X115864880Y-135090476D01*
X116043452Y-136519047D01*
X116245833Y-136995238D01*
X116418452Y-137233333D01*
X116733928Y-137471428D01*
X117305357Y-137471428D01*
X117561309Y-137233333D01*
X118460119Y-134138095D02*
X119085119Y-139138095D01*
X119745833Y-134138095D02*
X120073214Y-136757142D01*
X119989880Y-137233333D01*
X119733928Y-137471428D01*
X119305357Y-137471428D01*
X118989880Y-137233333D01*
X118817261Y-136995238D01*
X122460119Y-134138095D02*
X122787500Y-136757142D01*
X122704166Y-137233333D01*
X122448214Y-137471428D01*
X121876785Y-137471428D01*
X121561309Y-137233333D01*
X122489880Y-134376190D02*
X122174404Y-134138095D01*
X121460119Y-134138095D01*
X121204166Y-134376190D01*
X121120833Y-134852380D01*
X121180357Y-135328571D01*
X121382738Y-135804761D01*
X121698214Y-136042857D01*
X122412500Y-136042857D01*
X122727976Y-136280952D01*
X125061309Y-134376190D02*
X124745833Y-134138095D01*
X124174404Y-134138095D01*
X123918452Y-134376190D01*
X123835119Y-134852380D01*
X124073214Y-136757142D01*
X124275595Y-137233333D01*
X124591071Y-137471428D01*
X125162500Y-137471428D01*
X125418452Y-137233333D01*
X125501785Y-136757142D01*
X125442261Y-136280952D01*
X123954166Y-135804761D01*
X126888690Y-134138095D02*
X126632738Y-134376190D01*
X126549404Y-134852380D01*
X127085119Y-139138095D01*
X130204166Y-134376190D02*
X130602976Y-134138095D01*
X131317261Y-134138095D01*
X131632738Y-134376190D01*
X131805357Y-134614285D01*
X132007738Y-135090476D01*
X132067261Y-135566666D01*
X131983928Y-136042857D01*
X131870833Y-136280952D01*
X131614880Y-136519047D01*
X131073214Y-136757142D01*
X130817261Y-136995238D01*
X130704166Y-137233333D01*
X130620833Y-137709523D01*
X130680357Y-138185714D01*
X130882738Y-138661904D01*
X131055357Y-138900000D01*
X131370833Y-139138095D01*
X132085119Y-139138095D01*
X132483928Y-138900000D01*
X135460119Y-134138095D02*
X136085119Y-139138095D01*
X136638690Y-135566666D01*
X138085119Y-139138095D01*
X137460119Y-134138095D01*
X140204166Y-134376190D02*
X139888690Y-134138095D01*
X139317261Y-134138095D01*
X139061309Y-134376190D01*
X138948214Y-134614285D01*
X138864880Y-135090476D01*
X139043452Y-136519047D01*
X139245833Y-136995238D01*
X139418452Y-137233333D01*
X139733928Y-137471428D01*
X140305357Y-137471428D01*
X140561309Y-137233333D01*
X143233928Y-134614285D02*
X143061309Y-134376190D01*
X142602976Y-134138095D01*
X142317261Y-134138095D01*
X141918452Y-134376190D01*
X141692261Y-134852380D01*
X141608928Y-135328571D01*
X141585119Y-136280952D01*
X141674404Y-136995238D01*
X141936309Y-137947619D01*
X142138690Y-138423809D01*
X142483928Y-138900000D01*
X142942261Y-139138095D01*
X143227976Y-139138095D01*
X143626785Y-138900000D01*
X143739880Y-138661904D01*
X144888690Y-134138095D02*
X144632738Y-134376190D01*
X144519642Y-134614285D01*
X144436309Y-135090476D01*
X144614880Y-136519047D01*
X144817261Y-136995238D01*
X144989880Y-137233333D01*
X145305357Y-137471428D01*
X145733928Y-137471428D01*
X145989880Y-137233333D01*
X146102976Y-136995238D01*
X146186309Y-136519047D01*
X146007738Y-135090476D01*
X145805357Y-134614285D01*
X145632738Y-134376190D01*
X145317261Y-134138095D01*
X144888690Y-134138095D01*
X147174404Y-134138095D02*
X147591071Y-137471428D01*
X147472023Y-136519047D02*
X147674404Y-136995238D01*
X147847023Y-137233333D01*
X148162500Y-137471428D01*
X148448214Y-137471428D01*
X149031547Y-134138095D02*
X149448214Y-137471428D01*
X149388690Y-136995238D02*
X149561309Y-137233333D01*
X149876785Y-137471428D01*
X150305357Y-137471428D01*
X150561309Y-137233333D01*
X150644642Y-136757142D01*
X150317261Y-134138095D01*
X150644642Y-136757142D02*
X150847023Y-137233333D01*
X151162500Y-137471428D01*
X151591071Y-137471428D01*
X151847023Y-137233333D01*
X151930357Y-136757142D01*
X151602976Y-134138095D01*
X154317261Y-134138095D02*
X154644642Y-136757142D01*
X154561309Y-137233333D01*
X154305357Y-137471428D01*
X153733928Y-137471428D01*
X153418452Y-137233333D01*
X154347023Y-134376190D02*
X154031547Y-134138095D01*
X153317261Y-134138095D01*
X153061309Y-134376190D01*
X152977976Y-134852380D01*
X153037500Y-135328571D01*
X153239880Y-135804761D01*
X153555357Y-136042857D01*
X154269642Y-136042857D01*
X154585119Y-136280952D01*
X157061309Y-134376190D02*
X156745833Y-134138095D01*
X156174404Y-134138095D01*
X155918452Y-134376190D01*
X155805357Y-134614285D01*
X155722023Y-135090476D01*
X155900595Y-136519047D01*
X156102976Y-136995238D01*
X156275595Y-137233333D01*
X156591071Y-137471428D01*
X157162500Y-137471428D01*
X157418452Y-137233333D01*
X158317261Y-134138095D02*
X158942261Y-139138095D01*
X158841071Y-136042857D02*
X159460119Y-134138095D01*
X159876785Y-137471428D02*
X158495833Y-135566666D01*
D11*
X109971190Y-129907142D02*
X111495000Y-129907142D01*
X110733095Y-129145238D02*
X110733095Y-130669047D01*
X113495000Y-129145238D02*
X112352142Y-129145238D01*
X112923571Y-129145238D02*
X112923571Y-131145238D01*
X112733095Y-130859523D01*
X112542619Y-130669047D01*
X112352142Y-130573809D01*
X114352142Y-129335714D02*
X114447380Y-129240476D01*
X114352142Y-129145238D01*
X114256904Y-129240476D01*
X114352142Y-129335714D01*
X114352142Y-129145238D01*
X115399761Y-129145238D02*
X115780714Y-129145238D01*
X115971190Y-129240476D01*
X116066428Y-129335714D01*
X116256904Y-129621428D01*
X116352142Y-130002380D01*
X116352142Y-130764285D01*
X116256904Y-130954761D01*
X116161666Y-131050000D01*
X115971190Y-131145238D01*
X115590238Y-131145238D01*
X115399761Y-131050000D01*
X115304523Y-130954761D01*
X115209285Y-130764285D01*
X115209285Y-130288095D01*
X115304523Y-130097619D01*
X115399761Y-130002380D01*
X115590238Y-129907142D01*
X115971190Y-129907142D01*
X116161666Y-130002380D01*
X116256904Y-130097619D01*
X116352142Y-130288095D01*
X117018809Y-131145238D02*
X118352142Y-131145238D01*
X117495000Y-129145238D01*
X119399761Y-130288095D02*
X119209285Y-130383333D01*
X119114047Y-130478571D01*
X119018809Y-130669047D01*
X119018809Y-130764285D01*
X119114047Y-130954761D01*
X119209285Y-131050000D01*
X119399761Y-131145238D01*
X119780714Y-131145238D01*
X119971190Y-131050000D01*
X120066428Y-130954761D01*
X120161666Y-130764285D01*
X120161666Y-130669047D01*
X120066428Y-130478571D01*
X119971190Y-130383333D01*
X119780714Y-130288095D01*
X119399761Y-130288095D01*
X119209285Y-130192857D01*
X119114047Y-130097619D01*
X119018809Y-129907142D01*
X119018809Y-129526190D01*
X119114047Y-129335714D01*
X119209285Y-129240476D01*
X119399761Y-129145238D01*
X119780714Y-129145238D01*
X119971190Y-129240476D01*
X120066428Y-129335714D01*
X120161666Y-129526190D01*
X120161666Y-129907142D01*
X120066428Y-130097619D01*
X119971190Y-130192857D01*
X119780714Y-130288095D01*
X121018809Y-129335714D02*
X121114047Y-129240476D01*
X121018809Y-129145238D01*
X120923571Y-129240476D01*
X121018809Y-129335714D01*
X121018809Y-129145238D01*
X121780714Y-131145238D02*
X123018809Y-131145238D01*
X122352142Y-130383333D01*
X122637857Y-130383333D01*
X122828333Y-130288095D01*
X122923571Y-130192857D01*
X123018809Y-130002380D01*
X123018809Y-129526190D01*
X122923571Y-129335714D01*
X122828333Y-129240476D01*
X122637857Y-129145238D01*
X122066428Y-129145238D01*
X121875952Y-129240476D01*
X121780714Y-129335714D01*
X123971190Y-129145238D02*
X124352142Y-129145238D01*
X124542619Y-129240476D01*
X124637857Y-129335714D01*
X124828333Y-129621428D01*
X124923571Y-130002380D01*
X124923571Y-130764285D01*
X124828333Y-130954761D01*
X124733095Y-131050000D01*
X124542619Y-131145238D01*
X124161666Y-131145238D01*
X123971190Y-131050000D01*
X123875952Y-130954761D01*
X123780714Y-130764285D01*
X123780714Y-130288095D01*
X123875952Y-130097619D01*
X123971190Y-130002380D01*
X124161666Y-129907142D01*
X124542619Y-129907142D01*
X124733095Y-130002380D01*
X124828333Y-130097619D01*
X124923571Y-130288095D01*
X126637857Y-130478571D02*
X126637857Y-129145238D01*
X126161666Y-131240476D02*
X125685476Y-129811904D01*
X126923571Y-129811904D01*
X127685476Y-129335714D02*
X127780714Y-129240476D01*
X127685476Y-129145238D01*
X127590238Y-129240476D01*
X127685476Y-129335714D01*
X127685476Y-129145238D01*
X128447380Y-131145238D02*
X129780714Y-131145238D01*
X128923571Y-129145238D01*
X131399761Y-130478571D02*
X131399761Y-129145238D01*
X130923571Y-131240476D02*
X130447380Y-129811904D01*
X131685476Y-129811904D01*
X132352142Y-130954761D02*
X132447380Y-131050000D01*
X132637857Y-131145238D01*
X133114047Y-131145238D01*
X133304523Y-131050000D01*
X133399761Y-130954761D01*
X133494999Y-130764285D01*
X133494999Y-130573809D01*
X133399761Y-130288095D01*
X132256904Y-129145238D01*
X133494999Y-129145238D01*
X134256904Y-130954761D02*
X134352142Y-131050000D01*
X134542619Y-131145238D01*
X135018809Y-131145238D01*
X135209285Y-131050000D01*
X135304523Y-130954761D01*
X135399761Y-130764285D01*
X135399761Y-130573809D01*
X135304523Y-130288095D01*
X134161666Y-129145238D01*
X135399761Y-129145238D01*
X109971190Y-125845238D02*
X109971190Y-127178571D01*
X109971190Y-126988095D02*
X110066428Y-127083333D01*
X110256904Y-127178571D01*
X110542619Y-127178571D01*
X110733095Y-127083333D01*
X110828333Y-126892857D01*
X110828333Y-125845238D01*
X110828333Y-126892857D02*
X110923571Y-127083333D01*
X111114047Y-127178571D01*
X111399761Y-127178571D01*
X111590238Y-127083333D01*
X111685476Y-126892857D01*
X111685476Y-125845238D01*
X112637857Y-125845238D02*
X112637857Y-127178571D01*
X112637857Y-127845238D02*
X112542619Y-127750000D01*
X112637857Y-127654761D01*
X112733095Y-127750000D01*
X112637857Y-127845238D01*
X112637857Y-127654761D01*
X113590238Y-125845238D02*
X113590238Y-127845238D01*
X113780714Y-126607142D02*
X114352142Y-125845238D01*
X114352142Y-127178571D02*
X113590238Y-126416666D01*
X115971190Y-125940476D02*
X115780714Y-125845238D01*
X115399761Y-125845238D01*
X115209285Y-125940476D01*
X115114047Y-126130952D01*
X115114047Y-126892857D01*
X115209285Y-127083333D01*
X115399761Y-127178571D01*
X115780714Y-127178571D01*
X115971190Y-127083333D01*
X116066428Y-126892857D01*
X116066428Y-126702380D01*
X115114047Y-126511904D01*
X118161666Y-126797619D02*
X118066428Y-126892857D01*
X117875952Y-126988095D01*
X117685476Y-126988095D01*
X117495000Y-126892857D01*
X117399761Y-126797619D01*
X117304523Y-126607142D01*
X117304523Y-126416666D01*
X117399761Y-126226190D01*
X117495000Y-126130952D01*
X117685476Y-126035714D01*
X117875952Y-126035714D01*
X118066428Y-126130952D01*
X118161666Y-126226190D01*
X118161666Y-126988095D02*
X118161666Y-126226190D01*
X118256904Y-126130952D01*
X118352142Y-126130952D01*
X118542619Y-126226190D01*
X118637857Y-126416666D01*
X118637857Y-126892857D01*
X118447380Y-127178571D01*
X118161666Y-127369047D01*
X117780714Y-127464285D01*
X117399761Y-127369047D01*
X117114047Y-127178571D01*
X116923571Y-126892857D01*
X116828333Y-126511904D01*
X116923571Y-126130952D01*
X117114047Y-125845238D01*
X117399761Y-125654761D01*
X117780714Y-125559523D01*
X118161666Y-125654761D01*
X118447380Y-125845238D01*
X120352142Y-125845238D02*
X120352142Y-126892857D01*
X120256904Y-127083333D01*
X120066428Y-127178571D01*
X119685476Y-127178571D01*
X119495000Y-127083333D01*
X120352142Y-125940476D02*
X120161666Y-125845238D01*
X119685476Y-125845238D01*
X119495000Y-125940476D01*
X119399761Y-126130952D01*
X119399761Y-126321428D01*
X119495000Y-126511904D01*
X119685476Y-126607142D01*
X120161666Y-126607142D01*
X120352142Y-126702380D01*
X121304523Y-125845238D02*
X121304523Y-127178571D01*
X121304523Y-126797619D02*
X121399761Y-126988095D01*
X121495000Y-127083333D01*
X121685476Y-127178571D01*
X121875952Y-127178571D01*
X122256904Y-127178571D02*
X123018809Y-127178571D01*
X122542619Y-127845238D02*
X122542619Y-126130952D01*
X122637857Y-125940476D01*
X122828333Y-125845238D01*
X123018809Y-125845238D01*
X123685476Y-127178571D02*
X123685476Y-125178571D01*
X123685476Y-127083333D02*
X123875952Y-127178571D01*
X124256904Y-127178571D01*
X124447380Y-127083333D01*
X124542619Y-126988095D01*
X124637857Y-126797619D01*
X124637857Y-126226190D01*
X124542619Y-126035714D01*
X124447380Y-125940476D01*
X124256904Y-125845238D01*
X123875952Y-125845238D01*
X123685476Y-125940476D01*
X125780714Y-125845238D02*
X125590238Y-125940476D01*
X125495000Y-126035714D01*
X125399761Y-126226190D01*
X125399761Y-126797619D01*
X125495000Y-126988095D01*
X125590238Y-127083333D01*
X125780714Y-127178571D01*
X126066428Y-127178571D01*
X126256904Y-127083333D01*
X126352142Y-126988095D01*
X126447380Y-126797619D01*
X126447380Y-126226190D01*
X126352142Y-126035714D01*
X126256904Y-125940476D01*
X126066428Y-125845238D01*
X125780714Y-125845238D01*
X128066428Y-125940476D02*
X127875952Y-125845238D01*
X127495000Y-125845238D01*
X127304523Y-125940476D01*
X127209285Y-126130952D01*
X127209285Y-126892857D01*
X127304523Y-127083333D01*
X127495000Y-127178571D01*
X127875952Y-127178571D01*
X128066428Y-127083333D01*
X128161666Y-126892857D01*
X128161666Y-126702380D01*
X127209285Y-126511904D01*
X129018809Y-126035714D02*
X129114047Y-125940476D01*
X129018809Y-125845238D01*
X128923571Y-125940476D01*
X129018809Y-126035714D01*
X129018809Y-125845238D01*
X130828333Y-125940476D02*
X130637857Y-125845238D01*
X130256904Y-125845238D01*
X130066428Y-125940476D01*
X129971190Y-126035714D01*
X129875952Y-126226190D01*
X129875952Y-126797619D01*
X129971190Y-126988095D01*
X130066428Y-127083333D01*
X130256904Y-127178571D01*
X130637857Y-127178571D01*
X130828333Y-127083333D01*
X131971190Y-125845238D02*
X131780714Y-125940476D01*
X131685476Y-126035714D01*
X131590238Y-126226190D01*
X131590238Y-126797619D01*
X131685476Y-126988095D01*
X131780714Y-127083333D01*
X131971190Y-127178571D01*
X132256904Y-127178571D01*
X132447380Y-127083333D01*
X132542619Y-126988095D01*
X132637857Y-126797619D01*
X132637857Y-126226190D01*
X132542619Y-126035714D01*
X132447380Y-125940476D01*
X132256904Y-125845238D01*
X131971190Y-125845238D01*
X133495000Y-125845238D02*
X133495000Y-127178571D01*
X133495000Y-126988095D02*
X133590238Y-127083333D01*
X133780714Y-127178571D01*
X134066428Y-127178571D01*
X134256904Y-127083333D01*
X134352142Y-126892857D01*
X134352142Y-125845238D01*
X134352142Y-126892857D02*
X134447380Y-127083333D01*
X134637857Y-127178571D01*
X134923571Y-127178571D01*
X135114047Y-127083333D01*
X135209285Y-126892857D01*
X135209285Y-125845238D01*
D12*
G04 #@! TO.C,PS1*
X105125000Y-107985000D02*
X104490000Y-109255000D01*
X104490000Y-109255000D02*
X105760000Y-109255000D01*
X105760000Y-109255000D02*
X105125000Y-107985000D01*
G04 #@! TO.C,PS2*
X152125000Y-107985000D02*
X151490000Y-109255000D01*
X151490000Y-109255000D02*
X152760000Y-109255000D01*
X152760000Y-109255000D02*
X152125000Y-107985000D01*
G04 #@! TO.C,U1*
X103920000Y-116778000D02*
X103412000Y-117286000D01*
X103412000Y-117286000D02*
X104428000Y-117286000D01*
X104428000Y-117286000D02*
X103920000Y-116778000D01*
X103372380Y-111364761D02*
X104372380Y-111698095D01*
X103372380Y-112031428D01*
X104372380Y-112364761D02*
X103372380Y-112364761D01*
X104372380Y-112840952D02*
X103372380Y-112840952D01*
X104372380Y-113412380D01*
X103372380Y-113412380D01*
X105912380Y-111364761D02*
X106912380Y-111698095D01*
X105912380Y-112031428D01*
X106912380Y-112364761D02*
X105912380Y-112364761D01*
X106912380Y-112840952D02*
X105912380Y-112840952D01*
X106912380Y-113412380D01*
X105912380Y-113412380D01*
X109500000Y-118555904D02*
X109547619Y-118651142D01*
X109547619Y-118794000D01*
X109500000Y-118936857D01*
X109404761Y-119032095D01*
X109309523Y-119079714D01*
X109119047Y-119127333D01*
X108976190Y-119127333D01*
X108785714Y-119079714D01*
X108690476Y-119032095D01*
X108595238Y-118936857D01*
X108547619Y-118794000D01*
X108547619Y-118698761D01*
X108595238Y-118555904D01*
X108642857Y-118508285D01*
X108976190Y-118508285D01*
X108976190Y-118698761D01*
X108547619Y-118079714D02*
X109547619Y-118079714D01*
X108547619Y-117508285D01*
X109547619Y-117508285D01*
X108547619Y-117032095D02*
X109547619Y-117032095D01*
X109547619Y-116794000D01*
X109500000Y-116651142D01*
X109404761Y-116555904D01*
X109309523Y-116508285D01*
X109119047Y-116460666D01*
X108976190Y-116460666D01*
X108785714Y-116508285D01*
X108690476Y-116555904D01*
X108595238Y-116651142D01*
X108547619Y-116794000D01*
X108547619Y-117032095D01*
X110992380Y-110190095D02*
X111992380Y-110523428D01*
X110992380Y-110856761D01*
X110992380Y-111380571D02*
X110992380Y-111571047D01*
X111040000Y-111666285D01*
X111135238Y-111761523D01*
X111325714Y-111809142D01*
X111659047Y-111809142D01*
X111849523Y-111761523D01*
X111944761Y-111666285D01*
X111992380Y-111571047D01*
X111992380Y-111380571D01*
X111944761Y-111285333D01*
X111849523Y-111190095D01*
X111659047Y-111142476D01*
X111325714Y-111142476D01*
X111135238Y-111190095D01*
X111040000Y-111285333D01*
X110992380Y-111380571D01*
X110992380Y-112237714D02*
X111801904Y-112237714D01*
X111897142Y-112285333D01*
X111944761Y-112332952D01*
X111992380Y-112428190D01*
X111992380Y-112618666D01*
X111944761Y-112713904D01*
X111897142Y-112761523D01*
X111801904Y-112809142D01*
X110992380Y-112809142D01*
X110992380Y-113142476D02*
X110992380Y-113713904D01*
X111992380Y-113428190D02*
X110992380Y-113428190D01*
X113532380Y-110190095D02*
X114532380Y-110523428D01*
X113532380Y-110856761D01*
X113532380Y-111380571D02*
X113532380Y-111571047D01*
X113580000Y-111666285D01*
X113675238Y-111761523D01*
X113865714Y-111809142D01*
X114199047Y-111809142D01*
X114389523Y-111761523D01*
X114484761Y-111666285D01*
X114532380Y-111571047D01*
X114532380Y-111380571D01*
X114484761Y-111285333D01*
X114389523Y-111190095D01*
X114199047Y-111142476D01*
X113865714Y-111142476D01*
X113675238Y-111190095D01*
X113580000Y-111285333D01*
X113532380Y-111380571D01*
X113532380Y-112237714D02*
X114341904Y-112237714D01*
X114437142Y-112285333D01*
X114484761Y-112332952D01*
X114532380Y-112428190D01*
X114532380Y-112618666D01*
X114484761Y-112713904D01*
X114437142Y-112761523D01*
X114341904Y-112809142D01*
X113532380Y-112809142D01*
X113532380Y-113142476D02*
X113532380Y-113713904D01*
X114532380Y-113428190D02*
X113532380Y-113428190D01*
G04 #@! TD*
M02*
