G04 #@! TF.FileFunction,Legend,Bot*
%FSLAX46Y46*%
G04 Gerber Fmt 4.6, Leading zero omitted, Abs format (unit mm)*
G04 Created by KiCad (PCBNEW 4.0.2+dfsg1-2~bpo8+1-stable) date Wed 06 Apr 2016 09:14:05 AM EDT*
%MOMM*%
G01*
G04 APERTURE LIST*
%ADD10C,0.100000*%
%ADD11C,0.190500*%
%ADD12C,0.508000*%
%ADD13C,0.010000*%
%ADD14R,2.127200X2.432000*%
%ADD15O,2.127200X2.432000*%
%ADD16C,8.655000*%
%ADD17C,2.398980*%
%ADD18R,2.400000X2.400000*%
%ADD19C,2.400000*%
%ADD20R,2.432000X2.127200*%
%ADD21O,2.432000X2.127200*%
%ADD22C,1.797000*%
G04 APERTURE END LIST*
D10*
D11*
X45685471Y-72128381D02*
X45685471Y-72467047D01*
X45153281Y-72467047D02*
X46169281Y-72467047D01*
X46169281Y-71983238D01*
X45153281Y-71596190D02*
X46169281Y-71596190D01*
X45153281Y-70531809D02*
X45637090Y-70870475D01*
X45153281Y-71112380D02*
X46169281Y-71112380D01*
X46169281Y-70725333D01*
X46120900Y-70628571D01*
X46072519Y-70580190D01*
X45975757Y-70531809D01*
X45830614Y-70531809D01*
X45733852Y-70580190D01*
X45685471Y-70628571D01*
X45637090Y-70725333D01*
X45637090Y-71112380D01*
X45201662Y-70144761D02*
X45153281Y-69999618D01*
X45153281Y-69757714D01*
X45201662Y-69660952D01*
X45250043Y-69612571D01*
X45346805Y-69564190D01*
X45443567Y-69564190D01*
X45540329Y-69612571D01*
X45588710Y-69660952D01*
X45637090Y-69757714D01*
X45685471Y-69951237D01*
X45733852Y-70047999D01*
X45782233Y-70096380D01*
X45878995Y-70144761D01*
X45975757Y-70144761D01*
X46072519Y-70096380D01*
X46120900Y-70047999D01*
X46169281Y-69951237D01*
X46169281Y-69709333D01*
X46120900Y-69564190D01*
X46169281Y-69273904D02*
X46169281Y-68693333D01*
X45153281Y-68983618D02*
X46169281Y-68983618D01*
X45153281Y-67000000D02*
X45637090Y-67338666D01*
X45153281Y-67580571D02*
X46169281Y-67580571D01*
X46169281Y-67193524D01*
X46120900Y-67096762D01*
X46072519Y-67048381D01*
X45975757Y-67000000D01*
X45830614Y-67000000D01*
X45733852Y-67048381D01*
X45685471Y-67096762D01*
X45637090Y-67193524D01*
X45637090Y-67580571D01*
X45153281Y-66419428D02*
X45201662Y-66516190D01*
X45250043Y-66564571D01*
X45346805Y-66612952D01*
X45637090Y-66612952D01*
X45733852Y-66564571D01*
X45782233Y-66516190D01*
X45830614Y-66419428D01*
X45830614Y-66274286D01*
X45782233Y-66177524D01*
X45733852Y-66129143D01*
X45637090Y-66080762D01*
X45346805Y-66080762D01*
X45250043Y-66129143D01*
X45201662Y-66177524D01*
X45153281Y-66274286D01*
X45153281Y-66419428D01*
X45153281Y-65645333D02*
X46169281Y-65645333D01*
X45782233Y-65645333D02*
X45830614Y-65548571D01*
X45830614Y-65355048D01*
X45782233Y-65258286D01*
X45733852Y-65209905D01*
X45637090Y-65161524D01*
X45346805Y-65161524D01*
X45250043Y-65209905D01*
X45201662Y-65258286D01*
X45153281Y-65355048D01*
X45153281Y-65548571D01*
X45201662Y-65645333D01*
X45153281Y-64580952D02*
X45201662Y-64677714D01*
X45250043Y-64726095D01*
X45346805Y-64774476D01*
X45637090Y-64774476D01*
X45733852Y-64726095D01*
X45782233Y-64677714D01*
X45830614Y-64580952D01*
X45830614Y-64435810D01*
X45782233Y-64339048D01*
X45733852Y-64290667D01*
X45637090Y-64242286D01*
X45346805Y-64242286D01*
X45250043Y-64290667D01*
X45201662Y-64339048D01*
X45153281Y-64435810D01*
X45153281Y-64580952D01*
X45830614Y-63952000D02*
X45830614Y-63564952D01*
X46169281Y-63806857D02*
X45298424Y-63806857D01*
X45201662Y-63758476D01*
X45153281Y-63661714D01*
X45153281Y-63564952D01*
X45153281Y-63226286D02*
X45830614Y-63226286D01*
X46169281Y-63226286D02*
X46120900Y-63274667D01*
X46072519Y-63226286D01*
X46120900Y-63177905D01*
X46169281Y-63226286D01*
X46072519Y-63226286D01*
X45201662Y-62307048D02*
X45153281Y-62403810D01*
X45153281Y-62597333D01*
X45201662Y-62694095D01*
X45250043Y-62742476D01*
X45346805Y-62790857D01*
X45637090Y-62790857D01*
X45733852Y-62742476D01*
X45782233Y-62694095D01*
X45830614Y-62597333D01*
X45830614Y-62403810D01*
X45782233Y-62307048D01*
X45201662Y-61920000D02*
X45153281Y-61823238D01*
X45153281Y-61629714D01*
X45201662Y-61532953D01*
X45298424Y-61484572D01*
X45346805Y-61484572D01*
X45443567Y-61532953D01*
X45491948Y-61629714D01*
X45491948Y-61774857D01*
X45540329Y-61871619D01*
X45637090Y-61920000D01*
X45685471Y-61920000D01*
X45782233Y-61871619D01*
X45830614Y-61774857D01*
X45830614Y-61629714D01*
X45782233Y-61532953D01*
X44556381Y-71184952D02*
X44556381Y-70604381D01*
X43540381Y-70894666D02*
X44556381Y-70894666D01*
X43588762Y-69878667D02*
X43540381Y-69975429D01*
X43540381Y-70168952D01*
X43588762Y-70265714D01*
X43685524Y-70314095D01*
X44072571Y-70314095D01*
X44169333Y-70265714D01*
X44217714Y-70168952D01*
X44217714Y-69975429D01*
X44169333Y-69878667D01*
X44072571Y-69830286D01*
X43975810Y-69830286D01*
X43879048Y-70314095D01*
X43540381Y-68959429D02*
X44072571Y-68959429D01*
X44169333Y-69007810D01*
X44217714Y-69104572D01*
X44217714Y-69298095D01*
X44169333Y-69394857D01*
X43588762Y-68959429D02*
X43540381Y-69056191D01*
X43540381Y-69298095D01*
X43588762Y-69394857D01*
X43685524Y-69443238D01*
X43782286Y-69443238D01*
X43879048Y-69394857D01*
X43927429Y-69298095D01*
X43927429Y-69056191D01*
X43975810Y-68959429D01*
X43540381Y-68475619D02*
X44217714Y-68475619D01*
X44120952Y-68475619D02*
X44169333Y-68427238D01*
X44217714Y-68330476D01*
X44217714Y-68185334D01*
X44169333Y-68088572D01*
X44072571Y-68040191D01*
X43540381Y-68040191D01*
X44072571Y-68040191D02*
X44169333Y-67991810D01*
X44217714Y-67895048D01*
X44217714Y-67749905D01*
X44169333Y-67653143D01*
X44072571Y-67604762D01*
X43540381Y-67604762D01*
X44556381Y-65863048D02*
X44556381Y-66346857D01*
X44072571Y-66395238D01*
X44120952Y-66346857D01*
X44169333Y-66250095D01*
X44169333Y-66008191D01*
X44120952Y-65911429D01*
X44072571Y-65863048D01*
X43975810Y-65814667D01*
X43733905Y-65814667D01*
X43637143Y-65863048D01*
X43588762Y-65911429D01*
X43540381Y-66008191D01*
X43540381Y-66250095D01*
X43588762Y-66346857D01*
X43637143Y-66395238D01*
X44556381Y-64895429D02*
X44556381Y-65379238D01*
X44072571Y-65427619D01*
X44120952Y-65379238D01*
X44169333Y-65282476D01*
X44169333Y-65040572D01*
X44120952Y-64943810D01*
X44072571Y-64895429D01*
X43975810Y-64847048D01*
X43733905Y-64847048D01*
X43637143Y-64895429D01*
X43588762Y-64943810D01*
X43540381Y-65040572D01*
X43540381Y-65282476D01*
X43588762Y-65379238D01*
X43637143Y-65427619D01*
X44556381Y-63976191D02*
X44556381Y-64169714D01*
X44508000Y-64266476D01*
X44459619Y-64314857D01*
X44314476Y-64411619D01*
X44120952Y-64460000D01*
X43733905Y-64460000D01*
X43637143Y-64411619D01*
X43588762Y-64363238D01*
X43540381Y-64266476D01*
X43540381Y-64072953D01*
X43588762Y-63976191D01*
X43637143Y-63927810D01*
X43733905Y-63879429D01*
X43975810Y-63879429D01*
X44072571Y-63927810D01*
X44120952Y-63976191D01*
X44169333Y-64072953D01*
X44169333Y-64266476D01*
X44120952Y-64363238D01*
X44072571Y-64411619D01*
X43975810Y-64460000D01*
X44556381Y-63540762D02*
X44556381Y-62911810D01*
X44169333Y-63250476D01*
X44169333Y-63105334D01*
X44120952Y-63008572D01*
X44072571Y-62960191D01*
X43975810Y-62911810D01*
X43733905Y-62911810D01*
X43637143Y-62960191D01*
X43588762Y-63008572D01*
X43540381Y-63105334D01*
X43540381Y-63395619D01*
X43588762Y-63492381D01*
X43637143Y-63540762D01*
X42024243Y-72926665D02*
X41975862Y-72975046D01*
X41927481Y-73120189D01*
X41927481Y-73216951D01*
X41975862Y-73362093D01*
X42072624Y-73458855D01*
X42169386Y-73507236D01*
X42362910Y-73555617D01*
X42508052Y-73555617D01*
X42701576Y-73507236D01*
X42798338Y-73458855D01*
X42895100Y-73362093D01*
X42943481Y-73216951D01*
X42943481Y-73120189D01*
X42895100Y-72975046D01*
X42846719Y-72926665D01*
X41927481Y-72346093D02*
X41975862Y-72442855D01*
X42024243Y-72491236D01*
X42121005Y-72539617D01*
X42411290Y-72539617D01*
X42508052Y-72491236D01*
X42556433Y-72442855D01*
X42604814Y-72346093D01*
X42604814Y-72200951D01*
X42556433Y-72104189D01*
X42508052Y-72055808D01*
X42411290Y-72007427D01*
X42121005Y-72007427D01*
X42024243Y-72055808D01*
X41975862Y-72104189D01*
X41927481Y-72200951D01*
X41927481Y-72346093D01*
X42604814Y-71571998D02*
X41927481Y-71571998D01*
X42508052Y-71571998D02*
X42556433Y-71523617D01*
X42604814Y-71426855D01*
X42604814Y-71281713D01*
X42556433Y-71184951D01*
X42459671Y-71136570D01*
X41927481Y-71136570D01*
X41975862Y-70701141D02*
X41927481Y-70604379D01*
X41927481Y-70410855D01*
X41975862Y-70314094D01*
X42072624Y-70265713D01*
X42121005Y-70265713D01*
X42217767Y-70314094D01*
X42266148Y-70410855D01*
X42266148Y-70555998D01*
X42314529Y-70652760D01*
X42411290Y-70701141D01*
X42459671Y-70701141D01*
X42556433Y-70652760D01*
X42604814Y-70555998D01*
X42604814Y-70410855D01*
X42556433Y-70314094D01*
X41927481Y-69685141D02*
X41975862Y-69781903D01*
X42024243Y-69830284D01*
X42121005Y-69878665D01*
X42411290Y-69878665D01*
X42508052Y-69830284D01*
X42556433Y-69781903D01*
X42604814Y-69685141D01*
X42604814Y-69539999D01*
X42556433Y-69443237D01*
X42508052Y-69394856D01*
X42411290Y-69346475D01*
X42121005Y-69346475D01*
X42024243Y-69394856D01*
X41975862Y-69443237D01*
X41927481Y-69539999D01*
X41927481Y-69685141D01*
X41927481Y-68765903D02*
X41975862Y-68862665D01*
X42072624Y-68911046D01*
X42943481Y-68911046D01*
X41975862Y-67991809D02*
X41927481Y-68088571D01*
X41927481Y-68282094D01*
X41975862Y-68378856D01*
X42072624Y-68427237D01*
X42459671Y-68427237D01*
X42556433Y-68378856D01*
X42604814Y-68282094D01*
X42604814Y-68088571D01*
X42556433Y-67991809D01*
X42459671Y-67943428D01*
X42362910Y-67943428D01*
X42266148Y-68427237D01*
X41927481Y-66733904D02*
X42943481Y-66733904D01*
X42604814Y-66250094D02*
X41927481Y-66250094D01*
X42508052Y-66250094D02*
X42556433Y-66201713D01*
X42604814Y-66104951D01*
X42604814Y-65959809D01*
X42556433Y-65863047D01*
X42459671Y-65814666D01*
X41927481Y-65814666D01*
X42604814Y-65475999D02*
X42604814Y-65088951D01*
X42943481Y-65330856D02*
X42072624Y-65330856D01*
X41975862Y-65282475D01*
X41927481Y-65185713D01*
X41927481Y-65088951D01*
X41975862Y-64363238D02*
X41927481Y-64460000D01*
X41927481Y-64653523D01*
X41975862Y-64750285D01*
X42072624Y-64798666D01*
X42459671Y-64798666D01*
X42556433Y-64750285D01*
X42604814Y-64653523D01*
X42604814Y-64460000D01*
X42556433Y-64363238D01*
X42459671Y-64314857D01*
X42362910Y-64314857D01*
X42266148Y-64798666D01*
X41927481Y-63879428D02*
X42604814Y-63879428D01*
X42411290Y-63879428D02*
X42508052Y-63831047D01*
X42556433Y-63782666D01*
X42604814Y-63685904D01*
X42604814Y-63589143D01*
X42604814Y-63395619D02*
X42604814Y-63008571D01*
X41927481Y-63250476D02*
X42798338Y-63250476D01*
X42895100Y-63202095D01*
X42943481Y-63105333D01*
X42943481Y-63008571D01*
X41927481Y-62234477D02*
X42459671Y-62234477D01*
X42556433Y-62282858D01*
X42604814Y-62379620D01*
X42604814Y-62573143D01*
X42556433Y-62669905D01*
X41975862Y-62234477D02*
X41927481Y-62331239D01*
X41927481Y-62573143D01*
X41975862Y-62669905D01*
X42072624Y-62718286D01*
X42169386Y-62718286D01*
X42266148Y-62669905D01*
X42314529Y-62573143D01*
X42314529Y-62331239D01*
X42362910Y-62234477D01*
X41975862Y-61315239D02*
X41927481Y-61412001D01*
X41927481Y-61605524D01*
X41975862Y-61702286D01*
X42024243Y-61750667D01*
X42121005Y-61799048D01*
X42411290Y-61799048D01*
X42508052Y-61750667D01*
X42556433Y-61702286D01*
X42604814Y-61605524D01*
X42604814Y-61412001D01*
X42556433Y-61315239D01*
X41975862Y-60492763D02*
X41927481Y-60589525D01*
X41927481Y-60783048D01*
X41975862Y-60879810D01*
X42072624Y-60928191D01*
X42459671Y-60928191D01*
X42556433Y-60879810D01*
X42604814Y-60783048D01*
X42604814Y-60589525D01*
X42556433Y-60492763D01*
X42459671Y-60444382D01*
X42362910Y-60444382D01*
X42266148Y-60928191D01*
D12*
X55736048Y-117650239D02*
X58530048Y-117650239D01*
X58530048Y-116585858D01*
X58397000Y-116319763D01*
X58263952Y-116186715D01*
X57997857Y-116053667D01*
X57598714Y-116053667D01*
X57332619Y-116186715D01*
X57199571Y-116319763D01*
X57066524Y-116585858D01*
X57066524Y-117650239D01*
X55736048Y-114856239D02*
X58530048Y-114856239D01*
X55736048Y-113658810D02*
X57199571Y-113658810D01*
X57465667Y-113791858D01*
X57598714Y-114057953D01*
X57598714Y-114457096D01*
X57465667Y-114723191D01*
X57332619Y-114856239D01*
X55736048Y-111130905D02*
X57199571Y-111130905D01*
X57465667Y-111263953D01*
X57598714Y-111530048D01*
X57598714Y-112062239D01*
X57465667Y-112328334D01*
X55869095Y-111130905D02*
X55736048Y-111397001D01*
X55736048Y-112062239D01*
X55869095Y-112328334D01*
X56135190Y-112461382D01*
X56401286Y-112461382D01*
X56667381Y-112328334D01*
X56800429Y-112062239D01*
X56800429Y-111397001D01*
X56933476Y-111130905D01*
X55736048Y-109401286D02*
X55869095Y-109667381D01*
X56135190Y-109800429D01*
X58530048Y-109800429D01*
X55736048Y-107139476D02*
X57199571Y-107139476D01*
X57465667Y-107272524D01*
X57598714Y-107538619D01*
X57598714Y-108070810D01*
X57465667Y-108336905D01*
X55869095Y-107139476D02*
X55736048Y-107405572D01*
X55736048Y-108070810D01*
X55869095Y-108336905D01*
X56135190Y-108469953D01*
X56401286Y-108469953D01*
X56667381Y-108336905D01*
X56800429Y-108070810D01*
X56800429Y-107405572D01*
X56933476Y-107139476D01*
X57598714Y-105809000D02*
X55736048Y-105809000D01*
X57332619Y-105809000D02*
X57465667Y-105675952D01*
X57598714Y-105409857D01*
X57598714Y-105010714D01*
X57465667Y-104744619D01*
X57199571Y-104611571D01*
X55736048Y-104611571D01*
X55736048Y-103547190D02*
X57598714Y-102083666D01*
X57598714Y-103547190D02*
X55736048Y-102083666D01*
D13*
G36*
X73759250Y-82752456D02*
X73505223Y-82803523D01*
X73080192Y-82885587D01*
X72562930Y-82983492D01*
X72394000Y-83015095D01*
X71794556Y-83127569D01*
X71195426Y-83241082D01*
X70711398Y-83333869D01*
X70647750Y-83346223D01*
X69981000Y-83476009D01*
X69981000Y-84693277D01*
X68044250Y-85109836D01*
X67366537Y-85257151D01*
X66770930Y-85389533D01*
X66304361Y-85496325D01*
X66013760Y-85566872D01*
X65946233Y-85586251D01*
X65892225Y-85557700D01*
X65852776Y-85409157D01*
X65826685Y-85114977D01*
X65812751Y-84649514D01*
X65809773Y-83987124D01*
X65816550Y-83102162D01*
X65819233Y-82874837D01*
X65853500Y-80103566D01*
X67758500Y-79757564D01*
X68432088Y-79636484D01*
X69022621Y-79532705D01*
X69482392Y-79454427D01*
X69763696Y-79409853D01*
X69822250Y-79402782D01*
X69929771Y-79512337D01*
X69977879Y-79860627D01*
X69981000Y-80029000D01*
X69998134Y-80391013D01*
X70041940Y-80620367D01*
X70076250Y-80662779D01*
X70229069Y-80641956D01*
X70585435Y-80585484D01*
X71098609Y-80500996D01*
X71721853Y-80396124D01*
X72013000Y-80346500D01*
X72662899Y-80235581D01*
X73216585Y-80141597D01*
X73629358Y-80072096D01*
X73856518Y-80034623D01*
X73886250Y-80030222D01*
X73894126Y-79908031D01*
X73901290Y-79562579D01*
X73907491Y-79024601D01*
X73912479Y-78324836D01*
X73916003Y-77494019D01*
X73917812Y-76562890D01*
X73918000Y-76139625D01*
X73918000Y-72250250D01*
X73568750Y-72315771D01*
X73312830Y-72363467D01*
X72867908Y-72446076D01*
X72294751Y-72552326D01*
X71654124Y-72670945D01*
X71600349Y-72680896D01*
X69981198Y-72980500D01*
X69981099Y-73647250D01*
X69974042Y-74019884D01*
X69956020Y-74261882D01*
X69940267Y-74314000D01*
X69811080Y-74335517D01*
X69455322Y-74397304D01*
X68896508Y-74495217D01*
X68158152Y-74625112D01*
X67263772Y-74782846D01*
X66236881Y-74964272D01*
X65100995Y-75165248D01*
X63879629Y-75381630D01*
X63454552Y-75457000D01*
X62204229Y-75678132D01*
X61026924Y-75885173D01*
X59946834Y-76073950D01*
X58988158Y-76240290D01*
X58175092Y-76380017D01*
X57531835Y-76488960D01*
X57082586Y-76562943D01*
X56851541Y-76597794D01*
X56827785Y-76600000D01*
X56698909Y-76503975D01*
X56647809Y-76197170D01*
X56646000Y-76092000D01*
X56646791Y-75881453D01*
X56625667Y-75733144D01*
X56547389Y-75643114D01*
X56376715Y-75607403D01*
X56078405Y-75622052D01*
X55617216Y-75683100D01*
X54957909Y-75786588D01*
X54533078Y-75854583D01*
X52836000Y-76125166D01*
X52836000Y-83739536D01*
X53121750Y-83673940D01*
X53352213Y-83627375D01*
X53774707Y-83547694D01*
X54331083Y-83445677D01*
X54963194Y-83332103D01*
X55026750Y-83320805D01*
X56646000Y-83033267D01*
X56646000Y-82362389D01*
X56654179Y-81971366D01*
X56704950Y-81763539D01*
X56837670Y-81668124D01*
X57058750Y-81620027D01*
X57480630Y-81551443D01*
X58038369Y-81467022D01*
X58677909Y-81374221D01*
X59345192Y-81280494D01*
X59986161Y-81193301D01*
X60546756Y-81120095D01*
X60972921Y-81068336D01*
X61210598Y-81045477D01*
X61227543Y-81045000D01*
X61310908Y-81054935D01*
X61372693Y-81106170D01*
X61415528Y-81230855D01*
X61442043Y-81461141D01*
X61454868Y-81829176D01*
X61456634Y-82367109D01*
X61449971Y-83107090D01*
X61442827Y-83676325D01*
X61408500Y-86307649D01*
X59376500Y-86652908D01*
X58482540Y-86804648D01*
X57808393Y-86913571D01*
X57323095Y-86977194D01*
X56995683Y-86993032D01*
X56795193Y-86958604D01*
X56690660Y-86871427D01*
X56651120Y-86729016D01*
X56645611Y-86528889D01*
X56646000Y-86433942D01*
X56631767Y-86080006D01*
X56573288Y-85924295D01*
X56446895Y-85911869D01*
X56423750Y-85918055D01*
X56209958Y-85963005D01*
X55808579Y-86033598D01*
X55283390Y-86118973D01*
X54868000Y-86182957D01*
X54275614Y-86273866D01*
X53743930Y-86358582D01*
X53344239Y-86425583D01*
X53185250Y-86454936D01*
X52836000Y-86526182D01*
X52836000Y-94157750D01*
X53185250Y-94092041D01*
X53444953Y-94047945D01*
X53892731Y-93976665D01*
X54465385Y-93888105D01*
X55090250Y-93793581D01*
X56646000Y-93560830D01*
X56646000Y-92901006D01*
X56656593Y-92511713D01*
X56711142Y-92304828D01*
X56843802Y-92208949D01*
X56995250Y-92170885D01*
X57201124Y-92133058D01*
X57620061Y-92058999D01*
X58223461Y-91953614D01*
X58982724Y-91821807D01*
X59869249Y-91668485D01*
X60854437Y-91498552D01*
X61909687Y-91316914D01*
X63006399Y-91128476D01*
X64115974Y-90938142D01*
X65209811Y-90750818D01*
X66259310Y-90571410D01*
X67235872Y-90404822D01*
X68110895Y-90255959D01*
X68855779Y-90129727D01*
X69441926Y-90031032D01*
X69840734Y-89964777D01*
X70023604Y-89935869D01*
X70031767Y-89935000D01*
X70075018Y-90049374D01*
X70102643Y-90342168D01*
X70108000Y-90578559D01*
X70119809Y-90957220D01*
X70169010Y-91136151D01*
X70276266Y-91169073D01*
X70330250Y-91156367D01*
X70539278Y-91108053D01*
X70938900Y-91026555D01*
X71469724Y-90923671D01*
X72013000Y-90822093D01*
X72619421Y-90709219D01*
X73156353Y-90606758D01*
X73561246Y-90526803D01*
X73759250Y-90484517D01*
X74045000Y-90415465D01*
X74045000Y-82691161D01*
X73759250Y-82752456D01*
X73759250Y-82752456D01*
G37*
X73759250Y-82752456D02*
X73505223Y-82803523D01*
X73080192Y-82885587D01*
X72562930Y-82983492D01*
X72394000Y-83015095D01*
X71794556Y-83127569D01*
X71195426Y-83241082D01*
X70711398Y-83333869D01*
X70647750Y-83346223D01*
X69981000Y-83476009D01*
X69981000Y-84693277D01*
X68044250Y-85109836D01*
X67366537Y-85257151D01*
X66770930Y-85389533D01*
X66304361Y-85496325D01*
X66013760Y-85566872D01*
X65946233Y-85586251D01*
X65892225Y-85557700D01*
X65852776Y-85409157D01*
X65826685Y-85114977D01*
X65812751Y-84649514D01*
X65809773Y-83987124D01*
X65816550Y-83102162D01*
X65819233Y-82874837D01*
X65853500Y-80103566D01*
X67758500Y-79757564D01*
X68432088Y-79636484D01*
X69022621Y-79532705D01*
X69482392Y-79454427D01*
X69763696Y-79409853D01*
X69822250Y-79402782D01*
X69929771Y-79512337D01*
X69977879Y-79860627D01*
X69981000Y-80029000D01*
X69998134Y-80391013D01*
X70041940Y-80620367D01*
X70076250Y-80662779D01*
X70229069Y-80641956D01*
X70585435Y-80585484D01*
X71098609Y-80500996D01*
X71721853Y-80396124D01*
X72013000Y-80346500D01*
X72662899Y-80235581D01*
X73216585Y-80141597D01*
X73629358Y-80072096D01*
X73856518Y-80034623D01*
X73886250Y-80030222D01*
X73894126Y-79908031D01*
X73901290Y-79562579D01*
X73907491Y-79024601D01*
X73912479Y-78324836D01*
X73916003Y-77494019D01*
X73917812Y-76562890D01*
X73918000Y-76139625D01*
X73918000Y-72250250D01*
X73568750Y-72315771D01*
X73312830Y-72363467D01*
X72867908Y-72446076D01*
X72294751Y-72552326D01*
X71654124Y-72670945D01*
X71600349Y-72680896D01*
X69981198Y-72980500D01*
X69981099Y-73647250D01*
X69974042Y-74019884D01*
X69956020Y-74261882D01*
X69940267Y-74314000D01*
X69811080Y-74335517D01*
X69455322Y-74397304D01*
X68896508Y-74495217D01*
X68158152Y-74625112D01*
X67263772Y-74782846D01*
X66236881Y-74964272D01*
X65100995Y-75165248D01*
X63879629Y-75381630D01*
X63454552Y-75457000D01*
X62204229Y-75678132D01*
X61026924Y-75885173D01*
X59946834Y-76073950D01*
X58988158Y-76240290D01*
X58175092Y-76380017D01*
X57531835Y-76488960D01*
X57082586Y-76562943D01*
X56851541Y-76597794D01*
X56827785Y-76600000D01*
X56698909Y-76503975D01*
X56647809Y-76197170D01*
X56646000Y-76092000D01*
X56646791Y-75881453D01*
X56625667Y-75733144D01*
X56547389Y-75643114D01*
X56376715Y-75607403D01*
X56078405Y-75622052D01*
X55617216Y-75683100D01*
X54957909Y-75786588D01*
X54533078Y-75854583D01*
X52836000Y-76125166D01*
X52836000Y-83739536D01*
X53121750Y-83673940D01*
X53352213Y-83627375D01*
X53774707Y-83547694D01*
X54331083Y-83445677D01*
X54963194Y-83332103D01*
X55026750Y-83320805D01*
X56646000Y-83033267D01*
X56646000Y-82362389D01*
X56654179Y-81971366D01*
X56704950Y-81763539D01*
X56837670Y-81668124D01*
X57058750Y-81620027D01*
X57480630Y-81551443D01*
X58038369Y-81467022D01*
X58677909Y-81374221D01*
X59345192Y-81280494D01*
X59986161Y-81193301D01*
X60546756Y-81120095D01*
X60972921Y-81068336D01*
X61210598Y-81045477D01*
X61227543Y-81045000D01*
X61310908Y-81054935D01*
X61372693Y-81106170D01*
X61415528Y-81230855D01*
X61442043Y-81461141D01*
X61454868Y-81829176D01*
X61456634Y-82367109D01*
X61449971Y-83107090D01*
X61442827Y-83676325D01*
X61408500Y-86307649D01*
X59376500Y-86652908D01*
X58482540Y-86804648D01*
X57808393Y-86913571D01*
X57323095Y-86977194D01*
X56995683Y-86993032D01*
X56795193Y-86958604D01*
X56690660Y-86871427D01*
X56651120Y-86729016D01*
X56645611Y-86528889D01*
X56646000Y-86433942D01*
X56631767Y-86080006D01*
X56573288Y-85924295D01*
X56446895Y-85911869D01*
X56423750Y-85918055D01*
X56209958Y-85963005D01*
X55808579Y-86033598D01*
X55283390Y-86118973D01*
X54868000Y-86182957D01*
X54275614Y-86273866D01*
X53743930Y-86358582D01*
X53344239Y-86425583D01*
X53185250Y-86454936D01*
X52836000Y-86526182D01*
X52836000Y-94157750D01*
X53185250Y-94092041D01*
X53444953Y-94047945D01*
X53892731Y-93976665D01*
X54465385Y-93888105D01*
X55090250Y-93793581D01*
X56646000Y-93560830D01*
X56646000Y-92901006D01*
X56656593Y-92511713D01*
X56711142Y-92304828D01*
X56843802Y-92208949D01*
X56995250Y-92170885D01*
X57201124Y-92133058D01*
X57620061Y-92058999D01*
X58223461Y-91953614D01*
X58982724Y-91821807D01*
X59869249Y-91668485D01*
X60854437Y-91498552D01*
X61909687Y-91316914D01*
X63006399Y-91128476D01*
X64115974Y-90938142D01*
X65209811Y-90750818D01*
X66259310Y-90571410D01*
X67235872Y-90404822D01*
X68110895Y-90255959D01*
X68855779Y-90129727D01*
X69441926Y-90031032D01*
X69840734Y-89964777D01*
X70023604Y-89935869D01*
X70031767Y-89935000D01*
X70075018Y-90049374D01*
X70102643Y-90342168D01*
X70108000Y-90578559D01*
X70119809Y-90957220D01*
X70169010Y-91136151D01*
X70276266Y-91169073D01*
X70330250Y-91156367D01*
X70539278Y-91108053D01*
X70938900Y-91026555D01*
X71469724Y-90923671D01*
X72013000Y-90822093D01*
X72619421Y-90709219D01*
X73156353Y-90606758D01*
X73561246Y-90526803D01*
X73759250Y-90484517D01*
X74045000Y-90415465D01*
X74045000Y-82691161D01*
X73759250Y-82752456D01*
G36*
X77531057Y-104916363D02*
X76556044Y-104498490D01*
X75656488Y-104109570D01*
X74858785Y-103761273D01*
X74189328Y-103465270D01*
X73674514Y-103233233D01*
X73340739Y-103076833D01*
X73214396Y-103007741D01*
X73214357Y-103007678D01*
X73298961Y-102912629D01*
X73563493Y-102677390D01*
X73987932Y-102318414D01*
X74552258Y-101852153D01*
X75236452Y-101295061D01*
X76020493Y-100663591D01*
X76884363Y-99974196D01*
X77475201Y-99505981D01*
X81791802Y-96094500D01*
X81791901Y-92815692D01*
X81790956Y-91818380D01*
X81786761Y-91047066D01*
X81777383Y-90473751D01*
X81760885Y-90070437D01*
X81735334Y-89809125D01*
X81698794Y-89661816D01*
X81649331Y-89600512D01*
X81585009Y-89597215D01*
X81569750Y-89601179D01*
X81349733Y-89651792D01*
X80950273Y-89732501D01*
X80442056Y-89829238D01*
X80204500Y-89872840D01*
X79606772Y-89983448D01*
X79024483Y-90094851D01*
X78559646Y-90187433D01*
X78458250Y-90208626D01*
X77855000Y-90337048D01*
X77855000Y-90951433D01*
X77842113Y-91324900D01*
X77778111Y-91519652D01*
X77624985Y-91610632D01*
X77505750Y-91640072D01*
X77313183Y-91676834D01*
X76896543Y-91753436D01*
X76281827Y-91865189D01*
X75495029Y-92007404D01*
X74562143Y-92175392D01*
X73509165Y-92364464D01*
X72362089Y-92569932D01*
X71146910Y-92787107D01*
X71124000Y-92791196D01*
X69910481Y-93008166D01*
X68766799Y-93213307D01*
X67718600Y-93401974D01*
X66791532Y-93569518D01*
X66011240Y-93711295D01*
X65403370Y-93822656D01*
X64993569Y-93898957D01*
X64807482Y-93935549D01*
X64805750Y-93935954D01*
X64636898Y-93956096D01*
X64552211Y-93873538D01*
X64522936Y-93630972D01*
X64520000Y-93366420D01*
X64505450Y-93003307D01*
X64468234Y-92772464D01*
X64438859Y-92729000D01*
X64280681Y-92749153D01*
X63930295Y-92803145D01*
X63445737Y-92881279D01*
X62885039Y-92973857D01*
X62306237Y-93071183D01*
X61767363Y-93163558D01*
X61326452Y-93241285D01*
X61041539Y-93294666D01*
X60995750Y-93304349D01*
X60710000Y-93368840D01*
X60710000Y-97248478D01*
X60710777Y-98343629D01*
X60714112Y-99210639D01*
X60721509Y-99875364D01*
X60734476Y-100363661D01*
X60754518Y-100701386D01*
X60783141Y-100914395D01*
X60821850Y-101028547D01*
X60872152Y-101069696D01*
X60932250Y-101064663D01*
X61134685Y-101021917D01*
X61535040Y-100948879D01*
X62080339Y-100854840D01*
X62717605Y-100749091D01*
X62900750Y-100719384D01*
X64647000Y-100437560D01*
X64647000Y-99758280D01*
X64663432Y-99381735D01*
X64705712Y-99135068D01*
X64744321Y-99079000D01*
X64887062Y-99058270D01*
X65242495Y-99000376D01*
X65773085Y-98911767D01*
X66441296Y-98798890D01*
X67209593Y-98668191D01*
X68040440Y-98526119D01*
X68896302Y-98379120D01*
X69739643Y-98233642D01*
X70532927Y-98096132D01*
X71238620Y-97973038D01*
X71819184Y-97870806D01*
X72237085Y-97795885D01*
X72454787Y-97754721D01*
X72457500Y-97754146D01*
X72634784Y-97722683D01*
X72605344Y-97773431D01*
X72457500Y-97881306D01*
X72165196Y-98097157D01*
X71724739Y-98431866D01*
X71161200Y-98865674D01*
X70499651Y-99378820D01*
X69765162Y-99951545D01*
X68982805Y-100564087D01*
X68177651Y-101196688D01*
X67374771Y-101829586D01*
X66599236Y-102443022D01*
X65876117Y-103017236D01*
X65230485Y-103532466D01*
X64687412Y-103968954D01*
X64271969Y-104306940D01*
X64009226Y-104526662D01*
X63923991Y-104607104D01*
X64027255Y-104684533D01*
X64339390Y-104846923D01*
X64834434Y-105082445D01*
X65486423Y-105379267D01*
X66269394Y-105725559D01*
X67157383Y-106109493D01*
X68074799Y-106498404D01*
X69040054Y-106905923D01*
X69926932Y-107284435D01*
X70709177Y-107622418D01*
X71360531Y-107908352D01*
X71854737Y-108130716D01*
X72165536Y-108277988D01*
X72267000Y-108337796D01*
X72148070Y-108373458D01*
X71815884Y-108446270D01*
X71307357Y-108549417D01*
X70659398Y-108676082D01*
X69908920Y-108819448D01*
X69092834Y-108972700D01*
X68248051Y-109129021D01*
X67411484Y-109281595D01*
X66620044Y-109423606D01*
X65910642Y-109548236D01*
X65320190Y-109648671D01*
X64885600Y-109718093D01*
X64643783Y-109749686D01*
X64615250Y-109750810D01*
X64558398Y-109634810D01*
X64524334Y-109345767D01*
X64520000Y-109175500D01*
X64486341Y-108777525D01*
X64388266Y-108607680D01*
X64361250Y-108602471D01*
X64183356Y-108621298D01*
X63805394Y-108673999D01*
X63277914Y-108753142D01*
X62651466Y-108851291D01*
X62456250Y-108882611D01*
X60710000Y-109164282D01*
X60710000Y-116879182D01*
X61059250Y-116806743D01*
X61333500Y-116756726D01*
X61784863Y-116681564D01*
X62339207Y-116593413D01*
X62678500Y-116541157D01*
X63393058Y-116433291D01*
X63894854Y-116350305D01*
X64221254Y-116272879D01*
X64409620Y-116181695D01*
X64497317Y-116057432D01*
X64521710Y-115880773D01*
X64520161Y-115632396D01*
X64520000Y-115589000D01*
X64534967Y-115204595D01*
X64599403Y-115002025D01*
X64742608Y-114909928D01*
X64805750Y-114893071D01*
X64984041Y-114859909D01*
X65388002Y-114789533D01*
X65992704Y-114686147D01*
X66773218Y-114553957D01*
X67704614Y-114397168D01*
X68761963Y-114219984D01*
X69920334Y-114026612D01*
X71154800Y-113821256D01*
X71473250Y-113768393D01*
X77855000Y-112709485D01*
X77855000Y-113196743D01*
X77857810Y-113404378D01*
X77889529Y-113549947D01*
X77985094Y-113637225D01*
X78179440Y-113669985D01*
X78507504Y-113652002D01*
X79004221Y-113587051D01*
X79704527Y-113478906D01*
X80014000Y-113430000D01*
X80622774Y-113334865D01*
X81139271Y-113256041D01*
X81512452Y-113201182D01*
X81691278Y-113177943D01*
X81696750Y-113177648D01*
X81722611Y-113055817D01*
X81745804Y-112713778D01*
X81765329Y-112185317D01*
X81780189Y-111504219D01*
X81789384Y-110704272D01*
X81792000Y-109955417D01*
X81792000Y-106734833D01*
X77531057Y-104916363D01*
X77531057Y-104916363D01*
G37*
X77531057Y-104916363D02*
X76556044Y-104498490D01*
X75656488Y-104109570D01*
X74858785Y-103761273D01*
X74189328Y-103465270D01*
X73674514Y-103233233D01*
X73340739Y-103076833D01*
X73214396Y-103007741D01*
X73214357Y-103007678D01*
X73298961Y-102912629D01*
X73563493Y-102677390D01*
X73987932Y-102318414D01*
X74552258Y-101852153D01*
X75236452Y-101295061D01*
X76020493Y-100663591D01*
X76884363Y-99974196D01*
X77475201Y-99505981D01*
X81791802Y-96094500D01*
X81791901Y-92815692D01*
X81790956Y-91818380D01*
X81786761Y-91047066D01*
X81777383Y-90473751D01*
X81760885Y-90070437D01*
X81735334Y-89809125D01*
X81698794Y-89661816D01*
X81649331Y-89600512D01*
X81585009Y-89597215D01*
X81569750Y-89601179D01*
X81349733Y-89651792D01*
X80950273Y-89732501D01*
X80442056Y-89829238D01*
X80204500Y-89872840D01*
X79606772Y-89983448D01*
X79024483Y-90094851D01*
X78559646Y-90187433D01*
X78458250Y-90208626D01*
X77855000Y-90337048D01*
X77855000Y-90951433D01*
X77842113Y-91324900D01*
X77778111Y-91519652D01*
X77624985Y-91610632D01*
X77505750Y-91640072D01*
X77313183Y-91676834D01*
X76896543Y-91753436D01*
X76281827Y-91865189D01*
X75495029Y-92007404D01*
X74562143Y-92175392D01*
X73509165Y-92364464D01*
X72362089Y-92569932D01*
X71146910Y-92787107D01*
X71124000Y-92791196D01*
X69910481Y-93008166D01*
X68766799Y-93213307D01*
X67718600Y-93401974D01*
X66791532Y-93569518D01*
X66011240Y-93711295D01*
X65403370Y-93822656D01*
X64993569Y-93898957D01*
X64807482Y-93935549D01*
X64805750Y-93935954D01*
X64636898Y-93956096D01*
X64552211Y-93873538D01*
X64522936Y-93630972D01*
X64520000Y-93366420D01*
X64505450Y-93003307D01*
X64468234Y-92772464D01*
X64438859Y-92729000D01*
X64280681Y-92749153D01*
X63930295Y-92803145D01*
X63445737Y-92881279D01*
X62885039Y-92973857D01*
X62306237Y-93071183D01*
X61767363Y-93163558D01*
X61326452Y-93241285D01*
X61041539Y-93294666D01*
X60995750Y-93304349D01*
X60710000Y-93368840D01*
X60710000Y-97248478D01*
X60710777Y-98343629D01*
X60714112Y-99210639D01*
X60721509Y-99875364D01*
X60734476Y-100363661D01*
X60754518Y-100701386D01*
X60783141Y-100914395D01*
X60821850Y-101028547D01*
X60872152Y-101069696D01*
X60932250Y-101064663D01*
X61134685Y-101021917D01*
X61535040Y-100948879D01*
X62080339Y-100854840D01*
X62717605Y-100749091D01*
X62900750Y-100719384D01*
X64647000Y-100437560D01*
X64647000Y-99758280D01*
X64663432Y-99381735D01*
X64705712Y-99135068D01*
X64744321Y-99079000D01*
X64887062Y-99058270D01*
X65242495Y-99000376D01*
X65773085Y-98911767D01*
X66441296Y-98798890D01*
X67209593Y-98668191D01*
X68040440Y-98526119D01*
X68896302Y-98379120D01*
X69739643Y-98233642D01*
X70532927Y-98096132D01*
X71238620Y-97973038D01*
X71819184Y-97870806D01*
X72237085Y-97795885D01*
X72454787Y-97754721D01*
X72457500Y-97754146D01*
X72634784Y-97722683D01*
X72605344Y-97773431D01*
X72457500Y-97881306D01*
X72165196Y-98097157D01*
X71724739Y-98431866D01*
X71161200Y-98865674D01*
X70499651Y-99378820D01*
X69765162Y-99951545D01*
X68982805Y-100564087D01*
X68177651Y-101196688D01*
X67374771Y-101829586D01*
X66599236Y-102443022D01*
X65876117Y-103017236D01*
X65230485Y-103532466D01*
X64687412Y-103968954D01*
X64271969Y-104306940D01*
X64009226Y-104526662D01*
X63923991Y-104607104D01*
X64027255Y-104684533D01*
X64339390Y-104846923D01*
X64834434Y-105082445D01*
X65486423Y-105379267D01*
X66269394Y-105725559D01*
X67157383Y-106109493D01*
X68074799Y-106498404D01*
X69040054Y-106905923D01*
X69926932Y-107284435D01*
X70709177Y-107622418D01*
X71360531Y-107908352D01*
X71854737Y-108130716D01*
X72165536Y-108277988D01*
X72267000Y-108337796D01*
X72148070Y-108373458D01*
X71815884Y-108446270D01*
X71307357Y-108549417D01*
X70659398Y-108676082D01*
X69908920Y-108819448D01*
X69092834Y-108972700D01*
X68248051Y-109129021D01*
X67411484Y-109281595D01*
X66620044Y-109423606D01*
X65910642Y-109548236D01*
X65320190Y-109648671D01*
X64885600Y-109718093D01*
X64643783Y-109749686D01*
X64615250Y-109750810D01*
X64558398Y-109634810D01*
X64524334Y-109345767D01*
X64520000Y-109175500D01*
X64486341Y-108777525D01*
X64388266Y-108607680D01*
X64361250Y-108602471D01*
X64183356Y-108621298D01*
X63805394Y-108673999D01*
X63277914Y-108753142D01*
X62651466Y-108851291D01*
X62456250Y-108882611D01*
X60710000Y-109164282D01*
X60710000Y-116879182D01*
X61059250Y-116806743D01*
X61333500Y-116756726D01*
X61784863Y-116681564D01*
X62339207Y-116593413D01*
X62678500Y-116541157D01*
X63393058Y-116433291D01*
X63894854Y-116350305D01*
X64221254Y-116272879D01*
X64409620Y-116181695D01*
X64497317Y-116057432D01*
X64521710Y-115880773D01*
X64520161Y-115632396D01*
X64520000Y-115589000D01*
X64534967Y-115204595D01*
X64599403Y-115002025D01*
X64742608Y-114909928D01*
X64805750Y-114893071D01*
X64984041Y-114859909D01*
X65388002Y-114789533D01*
X65992704Y-114686147D01*
X66773218Y-114553957D01*
X67704614Y-114397168D01*
X68761963Y-114219984D01*
X69920334Y-114026612D01*
X71154800Y-113821256D01*
X71473250Y-113768393D01*
X77855000Y-112709485D01*
X77855000Y-113196743D01*
X77857810Y-113404378D01*
X77889529Y-113549947D01*
X77985094Y-113637225D01*
X78179440Y-113669985D01*
X78507504Y-113652002D01*
X79004221Y-113587051D01*
X79704527Y-113478906D01*
X80014000Y-113430000D01*
X80622774Y-113334865D01*
X81139271Y-113256041D01*
X81512452Y-113201182D01*
X81691278Y-113177943D01*
X81696750Y-113177648D01*
X81722611Y-113055817D01*
X81745804Y-112713778D01*
X81765329Y-112185317D01*
X81780189Y-111504219D01*
X81789384Y-110704272D01*
X81792000Y-109955417D01*
X81792000Y-106734833D01*
X77531057Y-104916363D01*
G36*
X89792777Y-120898626D02*
X89792553Y-116160500D01*
X88341366Y-114922250D01*
X87668191Y-114364069D01*
X87157353Y-113978321D01*
X86794483Y-113754978D01*
X86567434Y-113684000D01*
X86317177Y-113701950D01*
X85882408Y-113749829D01*
X85329623Y-113818683D01*
X84725317Y-113899558D01*
X84135986Y-113983502D01*
X83628123Y-114061558D01*
X83268226Y-114124774D01*
X83220750Y-114134653D01*
X83123942Y-114161605D01*
X83051915Y-114216743D01*
X83001006Y-114333584D01*
X82967551Y-114545646D01*
X82947887Y-114886444D01*
X82938348Y-115389496D01*
X82935271Y-116088318D01*
X82935000Y-116748554D01*
X82935000Y-119300268D01*
X83347750Y-119226039D01*
X83967626Y-119117006D01*
X84395902Y-119057850D01*
X84691032Y-119053850D01*
X84911469Y-119110286D01*
X85115668Y-119232436D01*
X85337366Y-119405725D01*
X85856000Y-119822511D01*
X85856000Y-123414627D01*
X85252750Y-124075646D01*
X84936964Y-124408366D01*
X84678356Y-124619764D01*
X84392735Y-124754018D01*
X83995910Y-124855305D01*
X83633500Y-124925311D01*
X82992464Y-125037783D01*
X82537271Y-125092036D01*
X82205549Y-125083738D01*
X81934924Y-125008560D01*
X81663023Y-124862169D01*
X81535278Y-124779624D01*
X81030000Y-124445247D01*
X81030000Y-117800657D01*
X79629108Y-116536079D01*
X79122869Y-116087326D01*
X78671969Y-115702941D01*
X78314621Y-115414350D01*
X78089035Y-115252983D01*
X78041700Y-115230456D01*
X77865454Y-115237995D01*
X77482443Y-115281744D01*
X76936230Y-115354887D01*
X76270377Y-115450604D01*
X75528449Y-115562079D01*
X74754008Y-115682494D01*
X73990618Y-115805032D01*
X73281842Y-115922875D01*
X72671244Y-116029206D01*
X72202386Y-116117207D01*
X71918833Y-116180060D01*
X71866551Y-116196849D01*
X71718137Y-116316704D01*
X71432027Y-116595341D01*
X71038758Y-117001244D01*
X70568871Y-117502899D01*
X70056801Y-118064460D01*
X68457000Y-119841419D01*
X68476075Y-124160460D01*
X68482850Y-125208743D01*
X68493305Y-126197423D01*
X68506771Y-127092283D01*
X68522576Y-127859102D01*
X68540049Y-128463661D01*
X68558520Y-128871741D01*
X68571325Y-129019672D01*
X68613314Y-129239796D01*
X68691101Y-129434001D01*
X68836046Y-129637844D01*
X69079503Y-129886882D01*
X69452831Y-130216671D01*
X69987387Y-130662768D01*
X70108000Y-130762155D01*
X70819187Y-131328083D01*
X71363145Y-131717613D01*
X71736385Y-131928377D01*
X71886000Y-131968391D01*
X72135029Y-131952541D01*
X72571651Y-131906532D01*
X73132234Y-131837646D01*
X73695750Y-131761315D01*
X75188000Y-131550316D01*
X75188000Y-128967158D01*
X75183156Y-128188297D01*
X75169630Y-127503576D01*
X75148937Y-126950694D01*
X75122588Y-126567350D01*
X75092098Y-126391241D01*
X75084325Y-126384000D01*
X74911779Y-126405586D01*
X74571829Y-126461472D01*
X74242174Y-126520515D01*
X73503698Y-126657030D01*
X72521000Y-125697452D01*
X72522402Y-123976976D01*
X72523803Y-122256500D01*
X73125652Y-121584204D01*
X73414157Y-121269524D01*
X73645856Y-121063413D01*
X73892326Y-120930794D01*
X74225146Y-120836591D01*
X74715892Y-120745730D01*
X74900162Y-120714628D01*
X76072823Y-120517348D01*
X76582912Y-120921346D01*
X77093000Y-121325344D01*
X77093000Y-128018794D01*
X78574616Y-129245486D01*
X79100531Y-129677046D01*
X79563050Y-130049331D01*
X79924486Y-130332562D01*
X80147149Y-130496960D01*
X80193935Y-130525020D01*
X80354468Y-130516329D01*
X80721154Y-130462068D01*
X81253158Y-130370428D01*
X81909648Y-130249602D01*
X82649790Y-130107782D01*
X83432751Y-129953159D01*
X84217698Y-129793926D01*
X84963797Y-129638275D01*
X85630217Y-129494398D01*
X86176122Y-129370486D01*
X86560681Y-129274733D01*
X86743059Y-129215329D01*
X86750931Y-129209540D01*
X86856122Y-129086269D01*
X87098006Y-128802374D01*
X87448650Y-128390655D01*
X87880116Y-127883913D01*
X88312820Y-127375626D01*
X89793000Y-125636751D01*
X89792777Y-120898626D01*
X89792777Y-120898626D01*
G37*
X89792777Y-120898626D02*
X89792553Y-116160500D01*
X88341366Y-114922250D01*
X87668191Y-114364069D01*
X87157353Y-113978321D01*
X86794483Y-113754978D01*
X86567434Y-113684000D01*
X86317177Y-113701950D01*
X85882408Y-113749829D01*
X85329623Y-113818683D01*
X84725317Y-113899558D01*
X84135986Y-113983502D01*
X83628123Y-114061558D01*
X83268226Y-114124774D01*
X83220750Y-114134653D01*
X83123942Y-114161605D01*
X83051915Y-114216743D01*
X83001006Y-114333584D01*
X82967551Y-114545646D01*
X82947887Y-114886444D01*
X82938348Y-115389496D01*
X82935271Y-116088318D01*
X82935000Y-116748554D01*
X82935000Y-119300268D01*
X83347750Y-119226039D01*
X83967626Y-119117006D01*
X84395902Y-119057850D01*
X84691032Y-119053850D01*
X84911469Y-119110286D01*
X85115668Y-119232436D01*
X85337366Y-119405725D01*
X85856000Y-119822511D01*
X85856000Y-123414627D01*
X85252750Y-124075646D01*
X84936964Y-124408366D01*
X84678356Y-124619764D01*
X84392735Y-124754018D01*
X83995910Y-124855305D01*
X83633500Y-124925311D01*
X82992464Y-125037783D01*
X82537271Y-125092036D01*
X82205549Y-125083738D01*
X81934924Y-125008560D01*
X81663023Y-124862169D01*
X81535278Y-124779624D01*
X81030000Y-124445247D01*
X81030000Y-117800657D01*
X79629108Y-116536079D01*
X79122869Y-116087326D01*
X78671969Y-115702941D01*
X78314621Y-115414350D01*
X78089035Y-115252983D01*
X78041700Y-115230456D01*
X77865454Y-115237995D01*
X77482443Y-115281744D01*
X76936230Y-115354887D01*
X76270377Y-115450604D01*
X75528449Y-115562079D01*
X74754008Y-115682494D01*
X73990618Y-115805032D01*
X73281842Y-115922875D01*
X72671244Y-116029206D01*
X72202386Y-116117207D01*
X71918833Y-116180060D01*
X71866551Y-116196849D01*
X71718137Y-116316704D01*
X71432027Y-116595341D01*
X71038758Y-117001244D01*
X70568871Y-117502899D01*
X70056801Y-118064460D01*
X68457000Y-119841419D01*
X68476075Y-124160460D01*
X68482850Y-125208743D01*
X68493305Y-126197423D01*
X68506771Y-127092283D01*
X68522576Y-127859102D01*
X68540049Y-128463661D01*
X68558520Y-128871741D01*
X68571325Y-129019672D01*
X68613314Y-129239796D01*
X68691101Y-129434001D01*
X68836046Y-129637844D01*
X69079503Y-129886882D01*
X69452831Y-130216671D01*
X69987387Y-130662768D01*
X70108000Y-130762155D01*
X70819187Y-131328083D01*
X71363145Y-131717613D01*
X71736385Y-131928377D01*
X71886000Y-131968391D01*
X72135029Y-131952541D01*
X72571651Y-131906532D01*
X73132234Y-131837646D01*
X73695750Y-131761315D01*
X75188000Y-131550316D01*
X75188000Y-128967158D01*
X75183156Y-128188297D01*
X75169630Y-127503576D01*
X75148937Y-126950694D01*
X75122588Y-126567350D01*
X75092098Y-126391241D01*
X75084325Y-126384000D01*
X74911779Y-126405586D01*
X74571829Y-126461472D01*
X74242174Y-126520515D01*
X73503698Y-126657030D01*
X72521000Y-125697452D01*
X72522402Y-123976976D01*
X72523803Y-122256500D01*
X73125652Y-121584204D01*
X73414157Y-121269524D01*
X73645856Y-121063413D01*
X73892326Y-120930794D01*
X74225146Y-120836591D01*
X74715892Y-120745730D01*
X74900162Y-120714628D01*
X76072823Y-120517348D01*
X76582912Y-120921346D01*
X77093000Y-121325344D01*
X77093000Y-128018794D01*
X78574616Y-129245486D01*
X79100531Y-129677046D01*
X79563050Y-130049331D01*
X79924486Y-130332562D01*
X80147149Y-130496960D01*
X80193935Y-130525020D01*
X80354468Y-130516329D01*
X80721154Y-130462068D01*
X81253158Y-130370428D01*
X81909648Y-130249602D01*
X82649790Y-130107782D01*
X83432751Y-129953159D01*
X84217698Y-129793926D01*
X84963797Y-129638275D01*
X85630217Y-129494398D01*
X86176122Y-129370486D01*
X86560681Y-129274733D01*
X86743059Y-129215329D01*
X86750931Y-129209540D01*
X86856122Y-129086269D01*
X87098006Y-128802374D01*
X87448650Y-128390655D01*
X87880116Y-127883913D01*
X88312820Y-127375626D01*
X89793000Y-125636751D01*
X89792777Y-120898626D01*
G36*
X137162028Y-103255184D02*
X137153948Y-102649224D01*
X137136515Y-102227666D01*
X137106483Y-101955718D01*
X137060606Y-101798589D01*
X136995640Y-101721487D01*
X136941750Y-101697838D01*
X136748569Y-101662082D01*
X136347779Y-101602649D01*
X135784021Y-101525651D01*
X135101933Y-101437199D01*
X134406385Y-101350731D01*
X132093269Y-101068903D01*
X131952101Y-100359702D01*
X131865392Y-99937755D01*
X131741833Y-99353958D01*
X131599772Y-98694390D01*
X131492593Y-98203907D01*
X131357080Y-97562124D01*
X131281489Y-97125307D01*
X131261891Y-96852579D01*
X131294357Y-96703063D01*
X131343376Y-96651403D01*
X131501947Y-96556463D01*
X131842814Y-96355144D01*
X132328966Y-96069213D01*
X132923395Y-95720434D01*
X133589089Y-95330574D01*
X133634514Y-95303997D01*
X134292115Y-94911592D01*
X134867351Y-94553681D01*
X135326401Y-94252519D01*
X135635445Y-94030360D01*
X135760661Y-93909461D01*
X135761764Y-93904166D01*
X135718158Y-93739575D01*
X135593946Y-93381047D01*
X135404383Y-92869862D01*
X135164722Y-92247299D01*
X134932922Y-91661155D01*
X134098844Y-89576478D01*
X132996172Y-89880028D01*
X132400825Y-90045799D01*
X131668568Y-90252455D01*
X130906316Y-90469714D01*
X130409761Y-90612578D01*
X128926022Y-91041579D01*
X128260427Y-89948540D01*
X127910608Y-89388544D01*
X127543856Y-88824946D01*
X127220508Y-88349698D01*
X127112458Y-88198968D01*
X126630084Y-87542435D01*
X128288034Y-85309443D01*
X128770004Y-84653095D01*
X129193020Y-84063174D01*
X129535819Y-83570489D01*
X129777136Y-83205853D01*
X129895709Y-83000076D01*
X129903742Y-82968301D01*
X129806329Y-82845146D01*
X129562260Y-82570494D01*
X129200678Y-82176177D01*
X128750727Y-81694030D01*
X128320594Y-81238966D01*
X126779687Y-79617780D01*
X124605768Y-81347075D01*
X122431850Y-83076370D01*
X121357549Y-82266088D01*
X120837007Y-81880432D01*
X120321272Y-81510134D01*
X119886940Y-81209690D01*
X119706851Y-81091654D01*
X119385663Y-80873865D01*
X119176314Y-80703385D01*
X119130228Y-80640272D01*
X119161705Y-80496987D01*
X119249863Y-80145557D01*
X119385081Y-79623033D01*
X119557738Y-78966462D01*
X119758213Y-78212895D01*
X119834876Y-77926731D01*
X120040254Y-77150442D01*
X120217179Y-76460275D01*
X120356796Y-75892593D01*
X120450251Y-75483761D01*
X120488688Y-75270141D01*
X120487220Y-75247887D01*
X120318483Y-75144626D01*
X119971249Y-74975688D01*
X119491662Y-74760026D01*
X118925867Y-74516592D01*
X118320009Y-74264335D01*
X117720234Y-74022209D01*
X117172686Y-73809165D01*
X116723511Y-73644153D01*
X116418853Y-73546126D01*
X116306369Y-73530832D01*
X116204667Y-73680031D01*
X116007822Y-74007359D01*
X115738355Y-74472281D01*
X115418788Y-75034263D01*
X115071641Y-75652767D01*
X114719437Y-76287259D01*
X114384697Y-76897204D01*
X114089944Y-77442067D01*
X113857698Y-77881311D01*
X113710481Y-78174402D01*
X113669000Y-78277681D01*
X113568916Y-78336992D01*
X113398870Y-78309381D01*
X113268538Y-78269444D01*
X113070895Y-78211738D01*
X112775660Y-78127759D01*
X112352550Y-78009001D01*
X111771285Y-77846959D01*
X111001583Y-77633128D01*
X110163320Y-77400630D01*
X109388140Y-77185725D01*
X109111195Y-74892613D01*
X109017971Y-74132776D01*
X108930168Y-73439245D01*
X108854081Y-72860071D01*
X108796005Y-72443303D01*
X108765035Y-72250250D01*
X108695819Y-71901000D01*
X104282510Y-71901000D01*
X104214177Y-72313750D01*
X104174037Y-72582710D01*
X104109099Y-73047944D01*
X104026957Y-73653801D01*
X103935203Y-74344628D01*
X103890682Y-74684657D01*
X103798826Y-75361651D01*
X103712610Y-75946233D01*
X103639192Y-76393573D01*
X103585729Y-76658845D01*
X103567129Y-76711206D01*
X103427183Y-76763723D01*
X103082696Y-76866070D01*
X102575567Y-77006569D01*
X101947694Y-77173539D01*
X101415776Y-77310894D01*
X99332815Y-77842190D01*
X98113235Y-75701085D01*
X97730467Y-75034821D01*
X97386292Y-74446539D01*
X97101710Y-73971265D01*
X96897723Y-73644024D01*
X96795329Y-73499840D01*
X96791695Y-73496964D01*
X96629189Y-73514242D01*
X96288649Y-73623944D01*
X95816411Y-73805258D01*
X95258816Y-74037374D01*
X94662200Y-74299480D01*
X94072903Y-74570765D01*
X93537262Y-74830417D01*
X93101616Y-75057624D01*
X92812305Y-75231575D01*
X92715183Y-75327802D01*
X92746347Y-75516332D01*
X92830976Y-75899382D01*
X92957149Y-76426037D01*
X93112943Y-77045379D01*
X93160170Y-77228164D01*
X93314266Y-77852004D01*
X93431080Y-78386309D01*
X93501514Y-78784219D01*
X93516470Y-78998870D01*
X93508237Y-79021041D01*
X93346882Y-79073790D01*
X92972454Y-79153403D01*
X92423731Y-79253784D01*
X91739493Y-79368841D01*
X90958518Y-79492478D01*
X90119587Y-79618603D01*
X89261478Y-79741120D01*
X88422970Y-79853937D01*
X87642842Y-79950959D01*
X87443500Y-79974084D01*
X86678001Y-80045376D01*
X85753227Y-80106931D01*
X84763860Y-80153817D01*
X83804582Y-80181100D01*
X83379500Y-80185798D01*
X81938165Y-80163520D01*
X80711488Y-80079578D01*
X79666128Y-79927181D01*
X78768740Y-79699542D01*
X77985983Y-79389870D01*
X77284513Y-78991377D01*
X77185950Y-78924702D01*
X76884396Y-78745569D01*
X76669389Y-78670768D01*
X76620053Y-78681615D01*
X76576407Y-78844512D01*
X76546708Y-79186443D01*
X76537467Y-79621231D01*
X76615015Y-80410945D01*
X76855496Y-81120668D01*
X77284872Y-81804674D01*
X77917147Y-82505500D01*
X78705855Y-83154888D01*
X79693764Y-83767250D01*
X80826348Y-84317398D01*
X82049084Y-84780141D01*
X83307447Y-85130289D01*
X83829530Y-85237003D01*
X85325105Y-85602182D01*
X86652781Y-86119927D01*
X87801570Y-86780829D01*
X88760482Y-87575476D01*
X89518531Y-88494458D01*
X90064728Y-89528364D01*
X90388084Y-90667784D01*
X90421681Y-90882681D01*
X90478248Y-91322390D01*
X90512508Y-91647514D01*
X90517577Y-91792028D01*
X90516640Y-91793694D01*
X90404588Y-91740879D01*
X90110928Y-91577707D01*
X89671651Y-91324843D01*
X89122749Y-91002951D01*
X88637892Y-90715003D01*
X86615443Y-89540118D01*
X84762857Y-88531239D01*
X83082633Y-87689453D01*
X81577274Y-87015845D01*
X80249281Y-86511500D01*
X79101155Y-86177503D01*
X78135396Y-86014939D01*
X77766722Y-85998000D01*
X77298434Y-86013403D01*
X76983436Y-86080303D01*
X76721840Y-86229742D01*
X76541023Y-86378896D01*
X76121817Y-86911167D01*
X75965104Y-87324134D01*
X75881907Y-87687360D01*
X75846958Y-87985351D01*
X75860090Y-88309864D01*
X75921139Y-88752658D01*
X75962070Y-89002215D01*
X76070992Y-89485020D01*
X76239468Y-90055908D01*
X76382876Y-90462715D01*
X76694305Y-91268500D01*
X76718179Y-90633500D01*
X76749165Y-90171916D01*
X76799313Y-89752014D01*
X76822473Y-89623568D01*
X76902893Y-89248635D01*
X79982447Y-88721082D01*
X83062000Y-88193529D01*
X83062000Y-93571211D01*
X84744750Y-93727531D01*
X85992773Y-93856318D01*
X87423611Y-94025948D01*
X88971005Y-94227501D01*
X90568692Y-94452059D01*
X92150410Y-94690701D01*
X93403240Y-94893015D01*
X95679980Y-95273239D01*
X96444106Y-96001370D01*
X98259078Y-97810790D01*
X99949422Y-99656691D01*
X101506041Y-101523426D01*
X102919839Y-103395350D01*
X104181720Y-105256814D01*
X105282588Y-107092172D01*
X106213346Y-108885777D01*
X106964899Y-110621982D01*
X107528150Y-112285140D01*
X107894003Y-113859605D01*
X108053362Y-115329729D01*
X108054589Y-115973284D01*
X108017500Y-117017614D01*
X105876842Y-117966299D01*
X104991255Y-118348711D01*
X104320480Y-118615973D01*
X103867488Y-118767003D01*
X103635256Y-118800723D01*
X103610261Y-118789061D01*
X103538965Y-118585959D01*
X103497930Y-118189623D01*
X103485767Y-117658842D01*
X103501083Y-117052403D01*
X103542490Y-116429094D01*
X103608595Y-115847701D01*
X103690469Y-115398500D01*
X103907246Y-114685165D01*
X104235113Y-113862415D01*
X104632114Y-113019294D01*
X105056295Y-112244850D01*
X105465700Y-111628128D01*
X105468904Y-111623938D01*
X105928004Y-111024375D01*
X105540057Y-110018394D01*
X104856619Y-108541377D01*
X103940193Y-107035282D01*
X102807123Y-105519509D01*
X101473752Y-104013460D01*
X99956423Y-102536535D01*
X98271478Y-101108137D01*
X97592338Y-100583377D01*
X97008947Y-100154486D01*
X96595589Y-99878643D01*
X96328993Y-99744129D01*
X96185888Y-99739221D01*
X96143002Y-99852198D01*
X96143000Y-99853365D01*
X96127139Y-100016610D01*
X96083198Y-100389334D01*
X96016646Y-100929242D01*
X95932949Y-101594038D01*
X95837575Y-102341426D01*
X95735991Y-103129110D01*
X95633664Y-103914795D01*
X95536061Y-104656185D01*
X95448650Y-105310984D01*
X95376897Y-105836897D01*
X95326269Y-106191627D01*
X95311484Y-106286250D01*
X95242491Y-106699000D01*
X93617002Y-106699000D01*
X92828897Y-106691693D01*
X91970831Y-106671936D01*
X91160317Y-106642981D01*
X90650421Y-106616945D01*
X89309328Y-106534889D01*
X89233256Y-106154526D01*
X89078359Y-105639517D01*
X88799992Y-104968206D01*
X88425187Y-104188904D01*
X87980975Y-103349919D01*
X87494388Y-102499559D01*
X86992457Y-101686135D01*
X86502214Y-100957954D01*
X86050691Y-100363327D01*
X85886098Y-100172722D01*
X85263698Y-99450221D01*
X84664262Y-98687415D01*
X84132010Y-97944796D01*
X83711162Y-97282858D01*
X83531588Y-96951750D01*
X83324684Y-96589252D01*
X83166355Y-96423213D01*
X83075870Y-96468597D01*
X83062000Y-96587113D01*
X82966147Y-96726304D01*
X82706832Y-96978657D01*
X82326421Y-97308506D01*
X81867284Y-97680183D01*
X81371787Y-98058020D01*
X80984795Y-98335817D01*
X81025978Y-98453341D01*
X81209947Y-98733081D01*
X81514020Y-99144540D01*
X81915520Y-99657223D01*
X82391767Y-100240633D01*
X82480486Y-100346989D01*
X83023125Y-101000199D01*
X83550178Y-101643256D01*
X84024057Y-102229665D01*
X84407176Y-102712930D01*
X84653072Y-103034467D01*
X85318856Y-104034589D01*
X85913282Y-105112980D01*
X86407469Y-106206052D01*
X86772535Y-107250220D01*
X86974358Y-108145162D01*
X87069615Y-108794500D01*
X88780558Y-108767454D01*
X89386295Y-108756839D01*
X90189080Y-108741227D01*
X91132037Y-108721808D01*
X92158290Y-108699774D01*
X93210962Y-108676317D01*
X94015750Y-108657755D01*
X97540000Y-108575102D01*
X97543030Y-106970301D01*
X97565636Y-105932719D01*
X97628823Y-105136626D01*
X97732201Y-104585111D01*
X97875379Y-104281265D01*
X97884442Y-104271759D01*
X98063974Y-104260854D01*
X98391236Y-104396137D01*
X98827288Y-104651547D01*
X99333191Y-105001019D01*
X99870006Y-105418491D01*
X100398794Y-105877901D01*
X100667686Y-106134635D01*
X101610003Y-107223178D01*
X102308640Y-108380745D01*
X102764415Y-109610405D01*
X102978148Y-110915228D01*
X102950658Y-112298286D01*
X102692960Y-113722761D01*
X102456461Y-114523339D01*
X102158390Y-115332748D01*
X101822762Y-116100689D01*
X101473589Y-116776859D01*
X101134885Y-117310957D01*
X100830664Y-117652682D01*
X100808483Y-117670242D01*
X99823716Y-118273977D01*
X98669462Y-118726016D01*
X97388145Y-119014697D01*
X96022191Y-119128357D01*
X95519585Y-119124237D01*
X94197670Y-119081500D01*
X93186661Y-121468743D01*
X92884695Y-122190953D01*
X92624434Y-122831159D01*
X92419759Y-123353718D01*
X92284550Y-123722984D01*
X92232687Y-123903312D01*
X92234232Y-123914566D01*
X92362402Y-123886260D01*
X92706277Y-123782065D01*
X93241812Y-123609975D01*
X93944962Y-123377985D01*
X94015750Y-123354251D01*
X94015750Y-122319002D01*
X93989650Y-122287437D01*
X94023150Y-122164944D01*
X94131710Y-121914614D01*
X94330793Y-121499540D01*
X94518238Y-121119532D01*
X94774923Y-120615781D01*
X94958570Y-120304039D01*
X95101344Y-120145126D01*
X95235408Y-120099864D01*
X95342748Y-120115185D01*
X95669761Y-120140553D01*
X96182359Y-120115075D01*
X96819179Y-120047333D01*
X97518858Y-119945912D01*
X98220031Y-119819393D01*
X98861334Y-119676359D01*
X99248646Y-119568872D01*
X99872013Y-119358821D01*
X100536587Y-119109477D01*
X101101747Y-118873681D01*
X101117116Y-118866724D01*
X101963732Y-118482202D01*
X102411534Y-118839511D01*
X102859336Y-119196821D01*
X98453418Y-120757412D01*
X97451551Y-121112009D01*
X96527904Y-121438403D01*
X95709144Y-121727211D01*
X95021938Y-121969050D01*
X94492952Y-122154535D01*
X94148852Y-122274283D01*
X94016304Y-122318911D01*
X94015750Y-122319002D01*
X94015750Y-123354251D01*
X94791683Y-123094089D01*
X95757930Y-122766281D01*
X96819659Y-122402554D01*
X97786800Y-122068497D01*
X98932036Y-121672402D01*
X100019462Y-121298090D01*
X101022228Y-120954674D01*
X101913482Y-120651271D01*
X102666375Y-120396996D01*
X103254056Y-120200963D01*
X103649674Y-120072288D01*
X103807644Y-120024548D01*
X104348961Y-119860144D01*
X105061985Y-119612788D01*
X105887641Y-119305621D01*
X106766852Y-118961782D01*
X107640543Y-118604410D01*
X108449638Y-118256645D01*
X109135062Y-117941626D01*
X109176142Y-117921759D01*
X110818361Y-117056748D01*
X112326685Y-116126560D01*
X113644321Y-115166530D01*
X113777160Y-115059002D01*
X114710819Y-114294563D01*
X115423770Y-114783032D01*
X115915171Y-115157194D01*
X116522129Y-115676459D01*
X117194828Y-116293142D01*
X117883453Y-116959554D01*
X118538190Y-117628010D01*
X119109224Y-118250821D01*
X119383384Y-118573500D01*
X120664639Y-120318203D01*
X121783447Y-122222520D01*
X122746754Y-124301003D01*
X123561506Y-126568206D01*
X124054238Y-128314707D01*
X124054238Y-122124508D01*
X123640808Y-120966592D01*
X122879481Y-119200622D01*
X121908513Y-117559080D01*
X120745752Y-116060374D01*
X119409044Y-114722913D01*
X117916237Y-113565104D01*
X116285179Y-112605356D01*
X114968082Y-112021272D01*
X114679663Y-111910258D01*
X115111820Y-111050879D01*
X115772008Y-109460092D01*
X116212610Y-107766405D01*
X116432718Y-105996133D01*
X116431423Y-104175594D01*
X116207814Y-102331103D01*
X115760984Y-100488976D01*
X115503541Y-99714000D01*
X114718721Y-97868110D01*
X113732987Y-96109234D01*
X112569741Y-94464483D01*
X111252385Y-92960964D01*
X109804323Y-91625786D01*
X108248956Y-90486058D01*
X106844009Y-89683205D01*
X105090089Y-88942538D01*
X103290142Y-88450360D01*
X101442979Y-88206659D01*
X99547410Y-88211422D01*
X97602246Y-88464639D01*
X95606298Y-88966298D01*
X93941827Y-89558648D01*
X93423764Y-89764723D01*
X92999883Y-89929990D01*
X92721068Y-90034818D01*
X92637107Y-90062000D01*
X92601043Y-89951929D01*
X92587000Y-89704051D01*
X92500178Y-89038539D01*
X92258751Y-88263745D01*
X91891283Y-87446363D01*
X91426336Y-86653082D01*
X91070573Y-86163336D01*
X90281275Y-85347436D01*
X89283988Y-84596135D01*
X88120871Y-83929968D01*
X86834082Y-83369468D01*
X85465781Y-82935171D01*
X84058126Y-82647610D01*
X83773775Y-82609291D01*
X83492897Y-82574479D01*
X83305014Y-82545973D01*
X83231772Y-82519801D01*
X83294818Y-82491991D01*
X83515798Y-82458569D01*
X83916359Y-82415562D01*
X84518148Y-82358998D01*
X85342810Y-82284903D01*
X85729000Y-82250443D01*
X88527085Y-81952843D01*
X91472572Y-81550941D01*
X94487903Y-81058377D01*
X97495522Y-80488786D01*
X100417871Y-79855806D01*
X103072305Y-79200854D01*
X104731109Y-78763595D01*
X105929805Y-78957337D01*
X108348286Y-79472154D01*
X110749460Y-80224522D01*
X113103154Y-81198317D01*
X115379197Y-82377416D01*
X117547418Y-83745696D01*
X119577646Y-85287033D01*
X121439709Y-86985304D01*
X121963542Y-87525651D01*
X123061864Y-88767617D01*
X124157286Y-90146188D01*
X125203563Y-91596096D01*
X126154453Y-93052076D01*
X126963712Y-94448861D01*
X127224957Y-94951500D01*
X127900571Y-96464420D01*
X128503409Y-98137843D01*
X129006665Y-99882469D01*
X129383533Y-101608997D01*
X129550416Y-102698500D01*
X129681723Y-104375398D01*
X129688060Y-106182560D01*
X129575006Y-108032367D01*
X129348139Y-109837198D01*
X129013034Y-111509435D01*
X128981520Y-111635638D01*
X128391772Y-113614337D01*
X127622900Y-115648508D01*
X126710382Y-117657751D01*
X125689697Y-119561664D01*
X124968448Y-120730004D01*
X124054238Y-122124508D01*
X124054238Y-128314707D01*
X124084580Y-128422256D01*
X124240267Y-129028199D01*
X124383331Y-129565695D01*
X124497324Y-129974134D01*
X124563226Y-130186107D01*
X124606536Y-130254490D01*
X124681424Y-130265163D01*
X124806858Y-130200863D01*
X125001802Y-130044327D01*
X125285222Y-129778292D01*
X125676084Y-129385496D01*
X126193354Y-128848674D01*
X126855998Y-128150564D01*
X127201366Y-127784816D01*
X127849159Y-127095693D01*
X128438619Y-126463917D01*
X128947517Y-125913690D01*
X129353625Y-125469211D01*
X129634713Y-125154683D01*
X129768554Y-124994307D01*
X129776324Y-124981364D01*
X129719417Y-124842989D01*
X129534865Y-124540124D01*
X129247894Y-124111126D01*
X128883730Y-123594351D01*
X128679102Y-123313017D01*
X127540055Y-121762977D01*
X128167854Y-120612739D01*
X128515118Y-119958464D01*
X128889588Y-119224395D01*
X129225591Y-118540013D01*
X129314915Y-118351250D01*
X129551099Y-117875089D01*
X129762669Y-117501057D01*
X129919724Y-117279478D01*
X129974840Y-117240632D01*
X130139909Y-117275049D01*
X130503066Y-117369586D01*
X131018970Y-117511855D01*
X131642277Y-117689468D01*
X132020500Y-117799506D01*
X132677973Y-117985634D01*
X133248373Y-118134739D01*
X133688155Y-118236415D01*
X133953777Y-118280257D01*
X134010839Y-118275125D01*
X134090250Y-118127530D01*
X134239560Y-117790920D01*
X134439465Y-117314098D01*
X134670660Y-116745869D01*
X134913842Y-116135040D01*
X135149707Y-115530415D01*
X135358952Y-114980798D01*
X135522272Y-114534995D01*
X135620364Y-114241811D01*
X135640000Y-114156190D01*
X135536769Y-114041378D01*
X135250153Y-113820401D01*
X134814774Y-113517438D01*
X134265253Y-113156669D01*
X133703251Y-112803490D01*
X133080520Y-112419713D01*
X132537573Y-112084992D01*
X132109321Y-111820859D01*
X131830679Y-111648849D01*
X131736573Y-111590535D01*
X131746105Y-111466770D01*
X131799224Y-111159159D01*
X131884742Y-110731878D01*
X131893435Y-110690740D01*
X131990146Y-110171101D01*
X132095012Y-109505497D01*
X132191796Y-108800788D01*
X132234516Y-108445746D01*
X132317165Y-107797722D01*
X132396998Y-107368370D01*
X132482678Y-107122623D01*
X132582872Y-107025411D01*
X132585655Y-107024576D01*
X132771785Y-106990247D01*
X133164452Y-106930408D01*
X133718217Y-106851565D01*
X134387643Y-106760218D01*
X134973250Y-106682858D01*
X137164000Y-106397554D01*
X137164000Y-104080336D01*
X137162028Y-103255184D01*
X137162028Y-103255184D01*
G37*
X137162028Y-103255184D02*
X137153948Y-102649224D01*
X137136515Y-102227666D01*
X137106483Y-101955718D01*
X137060606Y-101798589D01*
X136995640Y-101721487D01*
X136941750Y-101697838D01*
X136748569Y-101662082D01*
X136347779Y-101602649D01*
X135784021Y-101525651D01*
X135101933Y-101437199D01*
X134406385Y-101350731D01*
X132093269Y-101068903D01*
X131952101Y-100359702D01*
X131865392Y-99937755D01*
X131741833Y-99353958D01*
X131599772Y-98694390D01*
X131492593Y-98203907D01*
X131357080Y-97562124D01*
X131281489Y-97125307D01*
X131261891Y-96852579D01*
X131294357Y-96703063D01*
X131343376Y-96651403D01*
X131501947Y-96556463D01*
X131842814Y-96355144D01*
X132328966Y-96069213D01*
X132923395Y-95720434D01*
X133589089Y-95330574D01*
X133634514Y-95303997D01*
X134292115Y-94911592D01*
X134867351Y-94553681D01*
X135326401Y-94252519D01*
X135635445Y-94030360D01*
X135760661Y-93909461D01*
X135761764Y-93904166D01*
X135718158Y-93739575D01*
X135593946Y-93381047D01*
X135404383Y-92869862D01*
X135164722Y-92247299D01*
X134932922Y-91661155D01*
X134098844Y-89576478D01*
X132996172Y-89880028D01*
X132400825Y-90045799D01*
X131668568Y-90252455D01*
X130906316Y-90469714D01*
X130409761Y-90612578D01*
X128926022Y-91041579D01*
X128260427Y-89948540D01*
X127910608Y-89388544D01*
X127543856Y-88824946D01*
X127220508Y-88349698D01*
X127112458Y-88198968D01*
X126630084Y-87542435D01*
X128288034Y-85309443D01*
X128770004Y-84653095D01*
X129193020Y-84063174D01*
X129535819Y-83570489D01*
X129777136Y-83205853D01*
X129895709Y-83000076D01*
X129903742Y-82968301D01*
X129806329Y-82845146D01*
X129562260Y-82570494D01*
X129200678Y-82176177D01*
X128750727Y-81694030D01*
X128320594Y-81238966D01*
X126779687Y-79617780D01*
X124605768Y-81347075D01*
X122431850Y-83076370D01*
X121357549Y-82266088D01*
X120837007Y-81880432D01*
X120321272Y-81510134D01*
X119886940Y-81209690D01*
X119706851Y-81091654D01*
X119385663Y-80873865D01*
X119176314Y-80703385D01*
X119130228Y-80640272D01*
X119161705Y-80496987D01*
X119249863Y-80145557D01*
X119385081Y-79623033D01*
X119557738Y-78966462D01*
X119758213Y-78212895D01*
X119834876Y-77926731D01*
X120040254Y-77150442D01*
X120217179Y-76460275D01*
X120356796Y-75892593D01*
X120450251Y-75483761D01*
X120488688Y-75270141D01*
X120487220Y-75247887D01*
X120318483Y-75144626D01*
X119971249Y-74975688D01*
X119491662Y-74760026D01*
X118925867Y-74516592D01*
X118320009Y-74264335D01*
X117720234Y-74022209D01*
X117172686Y-73809165D01*
X116723511Y-73644153D01*
X116418853Y-73546126D01*
X116306369Y-73530832D01*
X116204667Y-73680031D01*
X116007822Y-74007359D01*
X115738355Y-74472281D01*
X115418788Y-75034263D01*
X115071641Y-75652767D01*
X114719437Y-76287259D01*
X114384697Y-76897204D01*
X114089944Y-77442067D01*
X113857698Y-77881311D01*
X113710481Y-78174402D01*
X113669000Y-78277681D01*
X113568916Y-78336992D01*
X113398870Y-78309381D01*
X113268538Y-78269444D01*
X113070895Y-78211738D01*
X112775660Y-78127759D01*
X112352550Y-78009001D01*
X111771285Y-77846959D01*
X111001583Y-77633128D01*
X110163320Y-77400630D01*
X109388140Y-77185725D01*
X109111195Y-74892613D01*
X109017971Y-74132776D01*
X108930168Y-73439245D01*
X108854081Y-72860071D01*
X108796005Y-72443303D01*
X108765035Y-72250250D01*
X108695819Y-71901000D01*
X104282510Y-71901000D01*
X104214177Y-72313750D01*
X104174037Y-72582710D01*
X104109099Y-73047944D01*
X104026957Y-73653801D01*
X103935203Y-74344628D01*
X103890682Y-74684657D01*
X103798826Y-75361651D01*
X103712610Y-75946233D01*
X103639192Y-76393573D01*
X103585729Y-76658845D01*
X103567129Y-76711206D01*
X103427183Y-76763723D01*
X103082696Y-76866070D01*
X102575567Y-77006569D01*
X101947694Y-77173539D01*
X101415776Y-77310894D01*
X99332815Y-77842190D01*
X98113235Y-75701085D01*
X97730467Y-75034821D01*
X97386292Y-74446539D01*
X97101710Y-73971265D01*
X96897723Y-73644024D01*
X96795329Y-73499840D01*
X96791695Y-73496964D01*
X96629189Y-73514242D01*
X96288649Y-73623944D01*
X95816411Y-73805258D01*
X95258816Y-74037374D01*
X94662200Y-74299480D01*
X94072903Y-74570765D01*
X93537262Y-74830417D01*
X93101616Y-75057624D01*
X92812305Y-75231575D01*
X92715183Y-75327802D01*
X92746347Y-75516332D01*
X92830976Y-75899382D01*
X92957149Y-76426037D01*
X93112943Y-77045379D01*
X93160170Y-77228164D01*
X93314266Y-77852004D01*
X93431080Y-78386309D01*
X93501514Y-78784219D01*
X93516470Y-78998870D01*
X93508237Y-79021041D01*
X93346882Y-79073790D01*
X92972454Y-79153403D01*
X92423731Y-79253784D01*
X91739493Y-79368841D01*
X90958518Y-79492478D01*
X90119587Y-79618603D01*
X89261478Y-79741120D01*
X88422970Y-79853937D01*
X87642842Y-79950959D01*
X87443500Y-79974084D01*
X86678001Y-80045376D01*
X85753227Y-80106931D01*
X84763860Y-80153817D01*
X83804582Y-80181100D01*
X83379500Y-80185798D01*
X81938165Y-80163520D01*
X80711488Y-80079578D01*
X79666128Y-79927181D01*
X78768740Y-79699542D01*
X77985983Y-79389870D01*
X77284513Y-78991377D01*
X77185950Y-78924702D01*
X76884396Y-78745569D01*
X76669389Y-78670768D01*
X76620053Y-78681615D01*
X76576407Y-78844512D01*
X76546708Y-79186443D01*
X76537467Y-79621231D01*
X76615015Y-80410945D01*
X76855496Y-81120668D01*
X77284872Y-81804674D01*
X77917147Y-82505500D01*
X78705855Y-83154888D01*
X79693764Y-83767250D01*
X80826348Y-84317398D01*
X82049084Y-84780141D01*
X83307447Y-85130289D01*
X83829530Y-85237003D01*
X85325105Y-85602182D01*
X86652781Y-86119927D01*
X87801570Y-86780829D01*
X88760482Y-87575476D01*
X89518531Y-88494458D01*
X90064728Y-89528364D01*
X90388084Y-90667784D01*
X90421681Y-90882681D01*
X90478248Y-91322390D01*
X90512508Y-91647514D01*
X90517577Y-91792028D01*
X90516640Y-91793694D01*
X90404588Y-91740879D01*
X90110928Y-91577707D01*
X89671651Y-91324843D01*
X89122749Y-91002951D01*
X88637892Y-90715003D01*
X86615443Y-89540118D01*
X84762857Y-88531239D01*
X83082633Y-87689453D01*
X81577274Y-87015845D01*
X80249281Y-86511500D01*
X79101155Y-86177503D01*
X78135396Y-86014939D01*
X77766722Y-85998000D01*
X77298434Y-86013403D01*
X76983436Y-86080303D01*
X76721840Y-86229742D01*
X76541023Y-86378896D01*
X76121817Y-86911167D01*
X75965104Y-87324134D01*
X75881907Y-87687360D01*
X75846958Y-87985351D01*
X75860090Y-88309864D01*
X75921139Y-88752658D01*
X75962070Y-89002215D01*
X76070992Y-89485020D01*
X76239468Y-90055908D01*
X76382876Y-90462715D01*
X76694305Y-91268500D01*
X76718179Y-90633500D01*
X76749165Y-90171916D01*
X76799313Y-89752014D01*
X76822473Y-89623568D01*
X76902893Y-89248635D01*
X79982447Y-88721082D01*
X83062000Y-88193529D01*
X83062000Y-93571211D01*
X84744750Y-93727531D01*
X85992773Y-93856318D01*
X87423611Y-94025948D01*
X88971005Y-94227501D01*
X90568692Y-94452059D01*
X92150410Y-94690701D01*
X93403240Y-94893015D01*
X95679980Y-95273239D01*
X96444106Y-96001370D01*
X98259078Y-97810790D01*
X99949422Y-99656691D01*
X101506041Y-101523426D01*
X102919839Y-103395350D01*
X104181720Y-105256814D01*
X105282588Y-107092172D01*
X106213346Y-108885777D01*
X106964899Y-110621982D01*
X107528150Y-112285140D01*
X107894003Y-113859605D01*
X108053362Y-115329729D01*
X108054589Y-115973284D01*
X108017500Y-117017614D01*
X105876842Y-117966299D01*
X104991255Y-118348711D01*
X104320480Y-118615973D01*
X103867488Y-118767003D01*
X103635256Y-118800723D01*
X103610261Y-118789061D01*
X103538965Y-118585959D01*
X103497930Y-118189623D01*
X103485767Y-117658842D01*
X103501083Y-117052403D01*
X103542490Y-116429094D01*
X103608595Y-115847701D01*
X103690469Y-115398500D01*
X103907246Y-114685165D01*
X104235113Y-113862415D01*
X104632114Y-113019294D01*
X105056295Y-112244850D01*
X105465700Y-111628128D01*
X105468904Y-111623938D01*
X105928004Y-111024375D01*
X105540057Y-110018394D01*
X104856619Y-108541377D01*
X103940193Y-107035282D01*
X102807123Y-105519509D01*
X101473752Y-104013460D01*
X99956423Y-102536535D01*
X98271478Y-101108137D01*
X97592338Y-100583377D01*
X97008947Y-100154486D01*
X96595589Y-99878643D01*
X96328993Y-99744129D01*
X96185888Y-99739221D01*
X96143002Y-99852198D01*
X96143000Y-99853365D01*
X96127139Y-100016610D01*
X96083198Y-100389334D01*
X96016646Y-100929242D01*
X95932949Y-101594038D01*
X95837575Y-102341426D01*
X95735991Y-103129110D01*
X95633664Y-103914795D01*
X95536061Y-104656185D01*
X95448650Y-105310984D01*
X95376897Y-105836897D01*
X95326269Y-106191627D01*
X95311484Y-106286250D01*
X95242491Y-106699000D01*
X93617002Y-106699000D01*
X92828897Y-106691693D01*
X91970831Y-106671936D01*
X91160317Y-106642981D01*
X90650421Y-106616945D01*
X89309328Y-106534889D01*
X89233256Y-106154526D01*
X89078359Y-105639517D01*
X88799992Y-104968206D01*
X88425187Y-104188904D01*
X87980975Y-103349919D01*
X87494388Y-102499559D01*
X86992457Y-101686135D01*
X86502214Y-100957954D01*
X86050691Y-100363327D01*
X85886098Y-100172722D01*
X85263698Y-99450221D01*
X84664262Y-98687415D01*
X84132010Y-97944796D01*
X83711162Y-97282858D01*
X83531588Y-96951750D01*
X83324684Y-96589252D01*
X83166355Y-96423213D01*
X83075870Y-96468597D01*
X83062000Y-96587113D01*
X82966147Y-96726304D01*
X82706832Y-96978657D01*
X82326421Y-97308506D01*
X81867284Y-97680183D01*
X81371787Y-98058020D01*
X80984795Y-98335817D01*
X81025978Y-98453341D01*
X81209947Y-98733081D01*
X81514020Y-99144540D01*
X81915520Y-99657223D01*
X82391767Y-100240633D01*
X82480486Y-100346989D01*
X83023125Y-101000199D01*
X83550178Y-101643256D01*
X84024057Y-102229665D01*
X84407176Y-102712930D01*
X84653072Y-103034467D01*
X85318856Y-104034589D01*
X85913282Y-105112980D01*
X86407469Y-106206052D01*
X86772535Y-107250220D01*
X86974358Y-108145162D01*
X87069615Y-108794500D01*
X88780558Y-108767454D01*
X89386295Y-108756839D01*
X90189080Y-108741227D01*
X91132037Y-108721808D01*
X92158290Y-108699774D01*
X93210962Y-108676317D01*
X94015750Y-108657755D01*
X97540000Y-108575102D01*
X97543030Y-106970301D01*
X97565636Y-105932719D01*
X97628823Y-105136626D01*
X97732201Y-104585111D01*
X97875379Y-104281265D01*
X97884442Y-104271759D01*
X98063974Y-104260854D01*
X98391236Y-104396137D01*
X98827288Y-104651547D01*
X99333191Y-105001019D01*
X99870006Y-105418491D01*
X100398794Y-105877901D01*
X100667686Y-106134635D01*
X101610003Y-107223178D01*
X102308640Y-108380745D01*
X102764415Y-109610405D01*
X102978148Y-110915228D01*
X102950658Y-112298286D01*
X102692960Y-113722761D01*
X102456461Y-114523339D01*
X102158390Y-115332748D01*
X101822762Y-116100689D01*
X101473589Y-116776859D01*
X101134885Y-117310957D01*
X100830664Y-117652682D01*
X100808483Y-117670242D01*
X99823716Y-118273977D01*
X98669462Y-118726016D01*
X97388145Y-119014697D01*
X96022191Y-119128357D01*
X95519585Y-119124237D01*
X94197670Y-119081500D01*
X93186661Y-121468743D01*
X92884695Y-122190953D01*
X92624434Y-122831159D01*
X92419759Y-123353718D01*
X92284550Y-123722984D01*
X92232687Y-123903312D01*
X92234232Y-123914566D01*
X92362402Y-123886260D01*
X92706277Y-123782065D01*
X93241812Y-123609975D01*
X93944962Y-123377985D01*
X94015750Y-123354251D01*
X94015750Y-122319002D01*
X93989650Y-122287437D01*
X94023150Y-122164944D01*
X94131710Y-121914614D01*
X94330793Y-121499540D01*
X94518238Y-121119532D01*
X94774923Y-120615781D01*
X94958570Y-120304039D01*
X95101344Y-120145126D01*
X95235408Y-120099864D01*
X95342748Y-120115185D01*
X95669761Y-120140553D01*
X96182359Y-120115075D01*
X96819179Y-120047333D01*
X97518858Y-119945912D01*
X98220031Y-119819393D01*
X98861334Y-119676359D01*
X99248646Y-119568872D01*
X99872013Y-119358821D01*
X100536587Y-119109477D01*
X101101747Y-118873681D01*
X101117116Y-118866724D01*
X101963732Y-118482202D01*
X102411534Y-118839511D01*
X102859336Y-119196821D01*
X98453418Y-120757412D01*
X97451551Y-121112009D01*
X96527904Y-121438403D01*
X95709144Y-121727211D01*
X95021938Y-121969050D01*
X94492952Y-122154535D01*
X94148852Y-122274283D01*
X94016304Y-122318911D01*
X94015750Y-122319002D01*
X94015750Y-123354251D01*
X94791683Y-123094089D01*
X95757930Y-122766281D01*
X96819659Y-122402554D01*
X97786800Y-122068497D01*
X98932036Y-121672402D01*
X100019462Y-121298090D01*
X101022228Y-120954674D01*
X101913482Y-120651271D01*
X102666375Y-120396996D01*
X103254056Y-120200963D01*
X103649674Y-120072288D01*
X103807644Y-120024548D01*
X104348961Y-119860144D01*
X105061985Y-119612788D01*
X105887641Y-119305621D01*
X106766852Y-118961782D01*
X107640543Y-118604410D01*
X108449638Y-118256645D01*
X109135062Y-117941626D01*
X109176142Y-117921759D01*
X110818361Y-117056748D01*
X112326685Y-116126560D01*
X113644321Y-115166530D01*
X113777160Y-115059002D01*
X114710819Y-114294563D01*
X115423770Y-114783032D01*
X115915171Y-115157194D01*
X116522129Y-115676459D01*
X117194828Y-116293142D01*
X117883453Y-116959554D01*
X118538190Y-117628010D01*
X119109224Y-118250821D01*
X119383384Y-118573500D01*
X120664639Y-120318203D01*
X121783447Y-122222520D01*
X122746754Y-124301003D01*
X123561506Y-126568206D01*
X124054238Y-128314707D01*
X124054238Y-122124508D01*
X123640808Y-120966592D01*
X122879481Y-119200622D01*
X121908513Y-117559080D01*
X120745752Y-116060374D01*
X119409044Y-114722913D01*
X117916237Y-113565104D01*
X116285179Y-112605356D01*
X114968082Y-112021272D01*
X114679663Y-111910258D01*
X115111820Y-111050879D01*
X115772008Y-109460092D01*
X116212610Y-107766405D01*
X116432718Y-105996133D01*
X116431423Y-104175594D01*
X116207814Y-102331103D01*
X115760984Y-100488976D01*
X115503541Y-99714000D01*
X114718721Y-97868110D01*
X113732987Y-96109234D01*
X112569741Y-94464483D01*
X111252385Y-92960964D01*
X109804323Y-91625786D01*
X108248956Y-90486058D01*
X106844009Y-89683205D01*
X105090089Y-88942538D01*
X103290142Y-88450360D01*
X101442979Y-88206659D01*
X99547410Y-88211422D01*
X97602246Y-88464639D01*
X95606298Y-88966298D01*
X93941827Y-89558648D01*
X93423764Y-89764723D01*
X92999883Y-89929990D01*
X92721068Y-90034818D01*
X92637107Y-90062000D01*
X92601043Y-89951929D01*
X92587000Y-89704051D01*
X92500178Y-89038539D01*
X92258751Y-88263745D01*
X91891283Y-87446363D01*
X91426336Y-86653082D01*
X91070573Y-86163336D01*
X90281275Y-85347436D01*
X89283988Y-84596135D01*
X88120871Y-83929968D01*
X86834082Y-83369468D01*
X85465781Y-82935171D01*
X84058126Y-82647610D01*
X83773775Y-82609291D01*
X83492897Y-82574479D01*
X83305014Y-82545973D01*
X83231772Y-82519801D01*
X83294818Y-82491991D01*
X83515798Y-82458569D01*
X83916359Y-82415562D01*
X84518148Y-82358998D01*
X85342810Y-82284903D01*
X85729000Y-82250443D01*
X88527085Y-81952843D01*
X91472572Y-81550941D01*
X94487903Y-81058377D01*
X97495522Y-80488786D01*
X100417871Y-79855806D01*
X103072305Y-79200854D01*
X104731109Y-78763595D01*
X105929805Y-78957337D01*
X108348286Y-79472154D01*
X110749460Y-80224522D01*
X113103154Y-81198317D01*
X115379197Y-82377416D01*
X117547418Y-83745696D01*
X119577646Y-85287033D01*
X121439709Y-86985304D01*
X121963542Y-87525651D01*
X123061864Y-88767617D01*
X124157286Y-90146188D01*
X125203563Y-91596096D01*
X126154453Y-93052076D01*
X126963712Y-94448861D01*
X127224957Y-94951500D01*
X127900571Y-96464420D01*
X128503409Y-98137843D01*
X129006665Y-99882469D01*
X129383533Y-101608997D01*
X129550416Y-102698500D01*
X129681723Y-104375398D01*
X129688060Y-106182560D01*
X129575006Y-108032367D01*
X129348139Y-109837198D01*
X129013034Y-111509435D01*
X128981520Y-111635638D01*
X128391772Y-113614337D01*
X127622900Y-115648508D01*
X126710382Y-117657751D01*
X125689697Y-119561664D01*
X124968448Y-120730004D01*
X124054238Y-122124508D01*
X124054238Y-128314707D01*
X124084580Y-128422256D01*
X124240267Y-129028199D01*
X124383331Y-129565695D01*
X124497324Y-129974134D01*
X124563226Y-130186107D01*
X124606536Y-130254490D01*
X124681424Y-130265163D01*
X124806858Y-130200863D01*
X125001802Y-130044327D01*
X125285222Y-129778292D01*
X125676084Y-129385496D01*
X126193354Y-128848674D01*
X126855998Y-128150564D01*
X127201366Y-127784816D01*
X127849159Y-127095693D01*
X128438619Y-126463917D01*
X128947517Y-125913690D01*
X129353625Y-125469211D01*
X129634713Y-125154683D01*
X129768554Y-124994307D01*
X129776324Y-124981364D01*
X129719417Y-124842989D01*
X129534865Y-124540124D01*
X129247894Y-124111126D01*
X128883730Y-123594351D01*
X128679102Y-123313017D01*
X127540055Y-121762977D01*
X128167854Y-120612739D01*
X128515118Y-119958464D01*
X128889588Y-119224395D01*
X129225591Y-118540013D01*
X129314915Y-118351250D01*
X129551099Y-117875089D01*
X129762669Y-117501057D01*
X129919724Y-117279478D01*
X129974840Y-117240632D01*
X130139909Y-117275049D01*
X130503066Y-117369586D01*
X131018970Y-117511855D01*
X131642277Y-117689468D01*
X132020500Y-117799506D01*
X132677973Y-117985634D01*
X133248373Y-118134739D01*
X133688155Y-118236415D01*
X133953777Y-118280257D01*
X134010839Y-118275125D01*
X134090250Y-118127530D01*
X134239560Y-117790920D01*
X134439465Y-117314098D01*
X134670660Y-116745869D01*
X134913842Y-116135040D01*
X135149707Y-115530415D01*
X135358952Y-114980798D01*
X135522272Y-114534995D01*
X135620364Y-114241811D01*
X135640000Y-114156190D01*
X135536769Y-114041378D01*
X135250153Y-113820401D01*
X134814774Y-113517438D01*
X134265253Y-113156669D01*
X133703251Y-112803490D01*
X133080520Y-112419713D01*
X132537573Y-112084992D01*
X132109321Y-111820859D01*
X131830679Y-111648849D01*
X131736573Y-111590535D01*
X131746105Y-111466770D01*
X131799224Y-111159159D01*
X131884742Y-110731878D01*
X131893435Y-110690740D01*
X131990146Y-110171101D01*
X132095012Y-109505497D01*
X132191796Y-108800788D01*
X132234516Y-108445746D01*
X132317165Y-107797722D01*
X132396998Y-107368370D01*
X132482678Y-107122623D01*
X132582872Y-107025411D01*
X132585655Y-107024576D01*
X132771785Y-106990247D01*
X133164452Y-106930408D01*
X133718217Y-106851565D01*
X134387643Y-106760218D01*
X134973250Y-106682858D01*
X137164000Y-106397554D01*
X137164000Y-104080336D01*
X137162028Y-103255184D01*
G36*
X118854398Y-104526306D02*
X118808798Y-103418089D01*
X118729241Y-102345292D01*
X118618539Y-101379260D01*
X118495972Y-100666500D01*
X117950511Y-98623199D01*
X117207618Y-96652846D01*
X116283777Y-94778229D01*
X115195469Y-93022131D01*
X113959176Y-91407337D01*
X112591382Y-89956632D01*
X111108567Y-88692802D01*
X109527215Y-87638630D01*
X108779500Y-87234530D01*
X107148368Y-86549955D01*
X105378203Y-86054939D01*
X103502894Y-85752996D01*
X101556332Y-85647639D01*
X99572405Y-85742378D01*
X97585003Y-86040728D01*
X97476500Y-86063065D01*
X96826796Y-86211916D01*
X96170265Y-86385023D01*
X95553043Y-86567502D01*
X95021267Y-86744470D01*
X94621071Y-86901043D01*
X94398591Y-87022336D01*
X94368417Y-87065769D01*
X94446001Y-87242652D01*
X94636294Y-87519243D01*
X94720731Y-87625013D01*
X94958607Y-87884554D01*
X95142382Y-87974532D01*
X95365296Y-87932283D01*
X95429368Y-87908754D01*
X95841053Y-87784316D01*
X96443113Y-87643262D01*
X97173429Y-87496597D01*
X97969881Y-87355330D01*
X98770351Y-87230467D01*
X99512721Y-87133017D01*
X100134871Y-87073987D01*
X100143500Y-87073416D01*
X101956028Y-87074032D01*
X103789480Y-87301884D01*
X105599220Y-87743858D01*
X107340612Y-88386841D01*
X108969019Y-89217719D01*
X110176500Y-90020918D01*
X111518438Y-91163413D01*
X112790718Y-92517808D01*
X113969929Y-94046249D01*
X115032655Y-95710882D01*
X115955484Y-97473851D01*
X116715001Y-99297302D01*
X117287792Y-101143380D01*
X117431855Y-101751143D01*
X117581475Y-102700029D01*
X117661769Y-103800184D01*
X117674116Y-104971739D01*
X117619897Y-106134828D01*
X117500489Y-107209583D01*
X117322275Y-108097459D01*
X117129882Y-108751315D01*
X116898975Y-109434462D01*
X116670611Y-110027809D01*
X116603877Y-110181252D01*
X116418736Y-110600891D01*
X116289069Y-110916826D01*
X116238323Y-111071351D01*
X116239627Y-111077761D01*
X116366257Y-111129416D01*
X116662972Y-111243180D01*
X117006930Y-111372493D01*
X117741359Y-111646550D01*
X117873718Y-111300025D01*
X117999132Y-110906210D01*
X118151729Y-110328669D01*
X118316541Y-109634153D01*
X118478602Y-108889415D01*
X118622946Y-108161206D01*
X118734606Y-107516279D01*
X118759345Y-107350071D01*
X118832483Y-106563639D01*
X118863230Y-105598604D01*
X118854398Y-104526306D01*
X118854398Y-104526306D01*
G37*
X118854398Y-104526306D02*
X118808798Y-103418089D01*
X118729241Y-102345292D01*
X118618539Y-101379260D01*
X118495972Y-100666500D01*
X117950511Y-98623199D01*
X117207618Y-96652846D01*
X116283777Y-94778229D01*
X115195469Y-93022131D01*
X113959176Y-91407337D01*
X112591382Y-89956632D01*
X111108567Y-88692802D01*
X109527215Y-87638630D01*
X108779500Y-87234530D01*
X107148368Y-86549955D01*
X105378203Y-86054939D01*
X103502894Y-85752996D01*
X101556332Y-85647639D01*
X99572405Y-85742378D01*
X97585003Y-86040728D01*
X97476500Y-86063065D01*
X96826796Y-86211916D01*
X96170265Y-86385023D01*
X95553043Y-86567502D01*
X95021267Y-86744470D01*
X94621071Y-86901043D01*
X94398591Y-87022336D01*
X94368417Y-87065769D01*
X94446001Y-87242652D01*
X94636294Y-87519243D01*
X94720731Y-87625013D01*
X94958607Y-87884554D01*
X95142382Y-87974532D01*
X95365296Y-87932283D01*
X95429368Y-87908754D01*
X95841053Y-87784316D01*
X96443113Y-87643262D01*
X97173429Y-87496597D01*
X97969881Y-87355330D01*
X98770351Y-87230467D01*
X99512721Y-87133017D01*
X100134871Y-87073987D01*
X100143500Y-87073416D01*
X101956028Y-87074032D01*
X103789480Y-87301884D01*
X105599220Y-87743858D01*
X107340612Y-88386841D01*
X108969019Y-89217719D01*
X110176500Y-90020918D01*
X111518438Y-91163413D01*
X112790718Y-92517808D01*
X113969929Y-94046249D01*
X115032655Y-95710882D01*
X115955484Y-97473851D01*
X116715001Y-99297302D01*
X117287792Y-101143380D01*
X117431855Y-101751143D01*
X117581475Y-102700029D01*
X117661769Y-103800184D01*
X117674116Y-104971739D01*
X117619897Y-106134828D01*
X117500489Y-107209583D01*
X117322275Y-108097459D01*
X117129882Y-108751315D01*
X116898975Y-109434462D01*
X116670611Y-110027809D01*
X116603877Y-110181252D01*
X116418736Y-110600891D01*
X116289069Y-110916826D01*
X116238323Y-111071351D01*
X116239627Y-111077761D01*
X116366257Y-111129416D01*
X116662972Y-111243180D01*
X117006930Y-111372493D01*
X117741359Y-111646550D01*
X117873718Y-111300025D01*
X117999132Y-110906210D01*
X118151729Y-110328669D01*
X118316541Y-109634153D01*
X118478602Y-108889415D01*
X118622946Y-108161206D01*
X118734606Y-107516279D01*
X118759345Y-107350071D01*
X118832483Y-106563639D01*
X118863230Y-105598604D01*
X118854398Y-104526306D01*
%LPC*%
D14*
X130000000Y-93000000D03*
D15*
X127460000Y-93000000D03*
X124920000Y-93000000D03*
X122380000Y-93000000D03*
X119840000Y-93000000D03*
X117300000Y-93000000D03*
X114760000Y-93000000D03*
X112220000Y-93000000D03*
X109680000Y-93000000D03*
X107140000Y-93000000D03*
X104600000Y-93000000D03*
X102060000Y-93000000D03*
X99520000Y-93000000D03*
X96980000Y-93000000D03*
X94440000Y-93000000D03*
X91900000Y-93000000D03*
X89360000Y-93000000D03*
X86820000Y-93000000D03*
X84280000Y-93000000D03*
X81740000Y-93000000D03*
X79200000Y-93000000D03*
X76660000Y-93000000D03*
X74120000Y-93000000D03*
X71580000Y-93000000D03*
X69040000Y-93000000D03*
X66500000Y-93000000D03*
D14*
X130000000Y-113320000D03*
D15*
X127460000Y-113320000D03*
X124920000Y-113320000D03*
X122380000Y-113320000D03*
X119840000Y-113320000D03*
X117300000Y-113320000D03*
X114760000Y-113320000D03*
X112220000Y-113320000D03*
X109680000Y-113320000D03*
X107140000Y-113320000D03*
X104600000Y-113320000D03*
X102060000Y-113320000D03*
X99520000Y-113320000D03*
X96980000Y-113320000D03*
X94440000Y-113320000D03*
X91900000Y-113320000D03*
X89360000Y-113320000D03*
X86820000Y-113320000D03*
X84280000Y-113320000D03*
X81740000Y-113320000D03*
X79200000Y-113320000D03*
X76660000Y-113320000D03*
X74120000Y-113320000D03*
X71580000Y-113320000D03*
X69040000Y-113320000D03*
X66500000Y-113320000D03*
D16*
X45000000Y-145000000D03*
X135000000Y-145000000D03*
X45000000Y-55000000D03*
X135000000Y-55000000D03*
D17*
X118920000Y-109000000D03*
X129080000Y-109000000D03*
X118920000Y-106000000D03*
X129080000Y-106000000D03*
X101420000Y-109500000D03*
X111580000Y-109500000D03*
X101420000Y-106500000D03*
X111580000Y-106500000D03*
X101920000Y-101000000D03*
X112080000Y-101000000D03*
X101920000Y-98000000D03*
X112080000Y-98000000D03*
X118920000Y-100000000D03*
X129080000Y-100000000D03*
X118920000Y-97000000D03*
X129080000Y-97000000D03*
X69080000Y-121000000D03*
X58920000Y-121000000D03*
X70080000Y-102000000D03*
X59920000Y-102000000D03*
X69080000Y-78000000D03*
X58920000Y-78000000D03*
X89080000Y-78000000D03*
X78920000Y-78000000D03*
X69080000Y-124000000D03*
X58920000Y-124000000D03*
X70080000Y-105000000D03*
X59920000Y-105000000D03*
X69080000Y-81000000D03*
X58920000Y-81000000D03*
X89080000Y-81000000D03*
X78920000Y-81000000D03*
X69080000Y-127000000D03*
X58920000Y-127000000D03*
X70080000Y-108000000D03*
X59920000Y-108000000D03*
X69080000Y-84000000D03*
X58920000Y-84000000D03*
X72080000Y-71000000D03*
X61920000Y-71000000D03*
X89080000Y-69000000D03*
X78920000Y-69000000D03*
X122000000Y-78080000D03*
X122000000Y-67920000D03*
X107000000Y-78080000D03*
X107000000Y-67920000D03*
X89080000Y-72000000D03*
X78920000Y-72000000D03*
X118000000Y-78080000D03*
X118000000Y-67920000D03*
X103000000Y-78080000D03*
X103000000Y-67920000D03*
X89080000Y-75000000D03*
X78920000Y-75000000D03*
X114000000Y-78080000D03*
X114000000Y-67920000D03*
X99000000Y-78080000D03*
X99000000Y-67920000D03*
D18*
X98410000Y-143470000D03*
X98410000Y-138470000D03*
D19*
X101910000Y-143470000D03*
X101910000Y-138470000D03*
X105410000Y-143470000D03*
X105410000Y-138470000D03*
X108910000Y-143470000D03*
X108910000Y-138470000D03*
X112410000Y-143470000D03*
X112410000Y-138470000D03*
D18*
X47500000Y-114750000D03*
X52500000Y-114750000D03*
D19*
X47500000Y-118250000D03*
X52500000Y-118250000D03*
X47500000Y-121750000D03*
X52500000Y-121750000D03*
X47500000Y-125250000D03*
X52500000Y-125250000D03*
D18*
X47500000Y-94750000D03*
X52500000Y-94750000D03*
D19*
X47500000Y-98250000D03*
X52500000Y-98250000D03*
X47500000Y-101750000D03*
X52500000Y-101750000D03*
X47500000Y-105250000D03*
X52500000Y-105250000D03*
D18*
X47500000Y-74750000D03*
X52500000Y-74750000D03*
D19*
X47500000Y-78250000D03*
X52500000Y-78250000D03*
X47500000Y-81750000D03*
X52500000Y-81750000D03*
X47500000Y-85250000D03*
X52500000Y-85250000D03*
D18*
X63250000Y-56500000D03*
X63250000Y-61500000D03*
D19*
X59750000Y-56500000D03*
X59750000Y-61500000D03*
X56250000Y-56500000D03*
X56250000Y-61500000D03*
X52750000Y-56500000D03*
X52750000Y-61500000D03*
D18*
X81250000Y-56500000D03*
X81250000Y-61500000D03*
D19*
X77750000Y-56500000D03*
X77750000Y-61500000D03*
X74250000Y-56500000D03*
X74250000Y-61500000D03*
X70750000Y-56500000D03*
X70750000Y-61500000D03*
D18*
X109250000Y-56500000D03*
X109250000Y-61500000D03*
D19*
X105750000Y-56500000D03*
X105750000Y-61500000D03*
X102250000Y-56500000D03*
X102250000Y-61500000D03*
X98750000Y-56500000D03*
X98750000Y-61500000D03*
D18*
X126250000Y-56500000D03*
X126250000Y-61500000D03*
D19*
X122750000Y-56500000D03*
X122750000Y-61500000D03*
X119250000Y-56500000D03*
X119250000Y-61500000D03*
X115750000Y-56500000D03*
X115750000Y-61500000D03*
D18*
X57770000Y-143470000D03*
X57770000Y-138470000D03*
D19*
X61270000Y-143470000D03*
X61270000Y-138470000D03*
X64770000Y-143470000D03*
X64770000Y-138470000D03*
X68270000Y-143470000D03*
X68270000Y-138470000D03*
X71770000Y-143470000D03*
X71770000Y-138470000D03*
D18*
X78090000Y-143470000D03*
X78090000Y-138470000D03*
D19*
X81590000Y-143470000D03*
X81590000Y-138470000D03*
X85090000Y-143470000D03*
X85090000Y-138470000D03*
X88590000Y-143470000D03*
X88590000Y-138470000D03*
X92090000Y-143470000D03*
X92090000Y-138470000D03*
D18*
X133500000Y-136750000D03*
X128500000Y-136750000D03*
D19*
X133500000Y-133250000D03*
X128500000Y-133250000D03*
X133500000Y-129750000D03*
X128500000Y-129750000D03*
X133500000Y-126250000D03*
X128500000Y-126250000D03*
X133500000Y-122750000D03*
X128500000Y-122750000D03*
X133500000Y-119250000D03*
X128500000Y-119250000D03*
D18*
X133500000Y-85750000D03*
X128500000Y-85750000D03*
D19*
X133500000Y-82250000D03*
X128500000Y-82250000D03*
X133500000Y-78750000D03*
X128500000Y-78750000D03*
X133500000Y-75250000D03*
X128500000Y-75250000D03*
X133500000Y-71750000D03*
X128500000Y-71750000D03*
X133500000Y-68250000D03*
X128500000Y-68250000D03*
D20*
X88000000Y-54000000D03*
D21*
X88000000Y-56540000D03*
X88000000Y-59080000D03*
X88000000Y-61620000D03*
D20*
X93000000Y-54000000D03*
D21*
X93000000Y-56540000D03*
X93000000Y-59080000D03*
X93000000Y-61620000D03*
D22*
X137500000Y-103000000D03*
X133500000Y-103000000D03*
X83000000Y-122000000D03*
X93500000Y-70500000D03*
M02*
